<svg width="354" height="355" viewBox="0 0 354 355" fill="none" xmlns="http://www.w3.org/2000/svg">
<path d="M3.99999 177C3.99999 272.545 81.4547 350 177 350C272.545 350 350 272.545 350 177C350 81.4547 272.545 4 177 3.99999C81.4547 3.99999 4 81.4547 3.99999 177Z" stroke="white" stroke-width="0.94" stroke-miterlimit="10"/>
<path d="M347.9 179.061L352.543 179.061L352.543 174.417L347.9 174.417L347.9 179.061Z" fill="white" stroke="#272727" stroke-width="1.38" stroke-miterlimit="10"/>
<path d="M350.183 174.091L350.453 91.957" stroke="#666666" stroke-width="2" stroke-miterlimit="10"/>
<path d="M353 92.0956C353 90.6908 351.865 89.5421 350.46 89.5352C349.056 89.5352 347.907 90.6701 347.9 92.0748C347.9 93.4865 349.035 94.6283 350.44 94.6352C351.844 94.6352 352.993 93.5004 353 92.0956Z" fill="#666666"/>
<path d="M352.543 174.451L347.899 174.451L347.899 179.095L352.543 179.095L352.543 174.451Z" fill="black" stroke="#D8D8D8" stroke-width="1.38" stroke-miterlimit="10"/>
<path d="M350.259 179.412L349.989 261.553" stroke="#666666" stroke-width="2" stroke-miterlimit="10"/>
<path d="M347.443 261.415C347.443 262.819 348.578 263.968 349.983 263.975C351.387 263.982 352.536 262.84 352.543 261.435C352.543 260.024 351.408 258.882 350.003 258.875C348.599 258.868 347.45 260.01 347.443 261.415Z" fill="#666666"/>
<path d="M1.45628 179.061L6.09961 179.061L6.09961 174.417L1.45628 174.417L1.45628 179.061Z" fill="white" stroke="#272727" stroke-width="1.38" stroke-miterlimit="10"/>
<path d="M3.73987 174.091L4.00977 91.957" stroke="#666666" stroke-width="2" stroke-miterlimit="10"/>
<path d="M6.55664 92.0956C6.55664 90.6908 5.42176 89.5421 4.01699 89.5352C2.61222 89.5352 1.46348 90.6701 1.45656 92.0748C1.45656 93.4865 2.59144 94.6283 3.99621 94.6352C5.40098 94.6352 6.54972 93.5004 6.55664 92.0956Z" fill="#666666"/>
<path d="M6.09939 174.451L1.45605 174.451L1.45605 179.095L6.09939 179.095L6.09939 174.451Z" fill="black" stroke="#D8D8D8" stroke-width="1.38" stroke-miterlimit="10"/>
<path d="M3.81543 179.412L3.54553 261.553" stroke="#666666" stroke-width="2" stroke-miterlimit="10"/>
<path d="M0.99953 261.415C0.99953 262.819 2.13443 263.968 3.5392 263.975C4.94397 263.982 6.09269 262.84 6.09961 261.435C6.09961 260.024 4.96473 258.882 3.55996 258.875C2.15519 258.868 1.00645 260.01 0.99953 261.415Z" fill="#666666"/>
<path d="M174.916 349.456L174.916 354.1L179.559 354.1L179.559 349.456L174.916 349.456Z" fill="white" stroke="#272727" stroke-width="1.38" stroke-miterlimit="10"/>
<path d="M179.884 351.74L262.025 352.01" stroke="#666666" stroke-width="2" stroke-miterlimit="10"/>
<path d="M261.887 354.557C263.292 354.557 264.44 353.422 264.447 352.017C264.447 350.613 263.312 349.464 261.908 349.457C260.503 349.457 259.354 350.592 259.347 351.997C259.347 353.401 260.482 354.55 261.887 354.557Z" fill="#666666"/>
<path d="M179.531 354.1L179.531 349.457L174.888 349.457L174.888 354.1L179.531 354.1Z" fill="black" stroke="#D8D8D8" stroke-width="1.38" stroke-miterlimit="10"/>
<path d="M174.562 351.824L92.4283 351.547" stroke="#666666" stroke-width="2" stroke-miterlimit="10"/>
<path d="M92.5599 349C91.1551 349 90.0065 350.135 89.9995 351.54C89.9995 352.944 91.1344 354.093 92.5392 354.1C93.944 354.1 95.0927 352.965 95.0996 351.56C95.0996 350.156 93.9647 349.007 92.5599 349Z" fill="#666666"/>
<path d="M174.916 1.45628L174.916 6.09961L179.559 6.09961L179.559 1.45628L174.916 1.45628Z" fill="white" stroke="#272727" stroke-width="1.38" stroke-miterlimit="10"/>
<path d="M179.884 3.74023L262.025 4.01013" stroke="#666666" stroke-width="2" stroke-miterlimit="10"/>
<path d="M261.887 6.55711C263.292 6.55711 264.44 5.42219 264.447 4.01742C264.447 2.61265 263.312 1.46395 261.908 1.45703C260.503 1.45703 259.354 2.59191 259.347 3.99668C259.347 5.40145 260.482 6.55019 261.887 6.55711Z" fill="#666666"/>
<path d="M179.531 6.10036L179.531 1.45703L174.888 1.45703L174.888 6.10036L179.531 6.10036Z" fill="black" stroke="#D8D8D8" stroke-width="1.38" stroke-miterlimit="10"/>
<path d="M174.562 3.82369L92.4283 3.54687" stroke="#666666" stroke-width="2" stroke-miterlimit="10"/>
<path d="M92.5599 1C91.1551 1 90.0065 2.13492 89.9995 3.53969C89.9995 4.94446 91.1344 6.09316 92.5392 6.10008C93.944 6.10008 95.0927 4.9652 95.0996 3.56043C95.0996 2.15566 93.9647 1.00692 92.5599 1Z" fill="#666666"/>
</svg>
