<svg width="353" height="355" viewBox="0 0 353 355" fill="none" xmlns="http://www.w3.org/2000/svg">
<path d="M2.99999 177C2.99999 272.545 80.4547 350 176 350C271.545 350 349 272.545 349 177C349 81.4547 271.545 4 176 3.99999C80.4547 3.99999 3 81.4547 2.99999 177Z" stroke="white" stroke-width="0.94" stroke-miterlimit="10"/>
<path d="M349 4.00002L3 4L2.99998 350L349 350L349 4.00002Z" stroke="white" stroke-width="0.94" stroke-miterlimit="10"/>
<path d="M351 6L351 1L346 1L346 6L351 6Z" fill="#2D2C2D" stroke="white" stroke-width="0.94" stroke-miterlimit="10"/>
<path d="M351 352L351 348L346 348L346 352L351 352Z" fill="#2D2C2D" stroke="white" stroke-width="0.94" stroke-miterlimit="10"/>
<path d="M5 6L5 1L1 1L1 6L5 6Z" fill="#2D2C2D" stroke="white" stroke-width="0.94" stroke-miterlimit="10"/>
<path d="M5 352L5 348L1 348L1 352L5 352Z" fill="#2D2C2D" stroke="white" stroke-width="0.94" stroke-miterlimit="10"/>
<path d="M346.9 179.061L351.543 179.061L351.543 174.417L346.9 174.417L346.9 179.061Z" fill="white" stroke="#272727" stroke-width="1.38" stroke-miterlimit="10"/>
<path d="M349.183 174.091L349.453 91.957" stroke="#666666" stroke-width="2" stroke-miterlimit="10"/>
<path d="M352 92.0956C352 90.6908 350.865 89.5421 349.46 89.5352C348.056 89.5352 346.907 90.6701 346.9 92.0748C346.9 93.4865 348.035 94.6283 349.44 94.6352C350.844 94.6352 351.993 93.5004 352 92.0956Z" fill="#666666"/>
<path d="M351.543 174.451L346.899 174.451L346.899 179.095L351.543 179.095L351.543 174.451Z" fill="black" stroke="#D8D8D8" stroke-width="1.38" stroke-miterlimit="10"/>
<path d="M349.259 179.412L348.989 261.553" stroke="#666666" stroke-width="2" stroke-miterlimit="10"/>
<path d="M346.443 261.415C346.443 262.819 347.578 263.968 348.983 263.975C350.387 263.982 351.536 262.84 351.543 261.435C351.543 260.024 350.408 258.882 349.003 258.875C347.599 258.868 346.45 260.01 346.443 261.415Z" fill="#666666"/>
<path d="M173.916 349.456L173.916 354.1L178.559 354.1L178.559 349.456L173.916 349.456Z" fill="white" stroke="#272727" stroke-width="1.38" stroke-miterlimit="10"/>
<path d="M178.884 351.74L261.025 352.01" stroke="#666666" stroke-width="2" stroke-miterlimit="10"/>
<path d="M260.887 354.557C262.292 354.557 263.44 353.422 263.447 352.017C263.447 350.613 262.312 349.464 260.908 349.457C259.503 349.457 258.354 350.592 258.347 351.997C258.347 353.401 259.482 354.55 260.887 354.557Z" fill="#666666"/>
<path d="M178.531 354.1L178.531 349.457L173.888 349.457L173.888 354.1L178.531 354.1Z" fill="black" stroke="#D8D8D8" stroke-width="1.38" stroke-miterlimit="10"/>
<path d="M173.562 351.824L91.4283 351.547" stroke="#666666" stroke-width="2" stroke-miterlimit="10"/>
<path d="M91.5599 349C90.1551 349 89.0065 350.135 88.9995 351.54C88.9995 352.944 90.1344 354.093 91.5392 354.1C92.944 354.1 94.0927 352.965 94.0996 351.56C94.0996 350.156 92.9647 349.007 91.5599 349Z" fill="#666666"/>
<path d="M173.916 1.45628L173.916 6.09961L178.559 6.09961L178.559 1.45628L173.916 1.45628Z" fill="white" stroke="#272727" stroke-width="1.38" stroke-miterlimit="10"/>
<path d="M178.884 3.74023L261.025 4.01013" stroke="#666666" stroke-width="2" stroke-miterlimit="10"/>
<path d="M260.887 6.55711C262.292 6.55711 263.44 5.42219 263.447 4.01742C263.447 2.61265 262.312 1.46395 260.908 1.45703C259.503 1.45703 258.354 2.59191 258.347 3.99668C258.347 5.40145 259.482 6.55019 260.887 6.55711Z" fill="#666666"/>
<path d="M178.531 6.10036L178.531 1.45703L173.888 1.45703L173.888 6.10036L178.531 6.10036Z" fill="black" stroke="#D8D8D8" stroke-width="1.38" stroke-miterlimit="10"/>
<path d="M173.562 3.82369L91.4283 3.54687" stroke="#666666" stroke-width="2" stroke-miterlimit="10"/>
<path d="M91.5599 1C90.1551 1 89.0065 2.13492 88.9995 3.53969C88.9995 4.94446 90.1344 6.09316 91.5392 6.10008C92.944 6.10008 94.0927 4.9652 94.0996 3.56043C94.0996 2.15566 92.9647 1.00692 91.5599 1Z" fill="#666666"/>
</svg>
