<svg width="554" height="353" viewBox="0 0 554 353" fill="none" xmlns="http://www.w3.org/2000/svg">
<path d="M203.5 60C171.191 60 145 85.9675 145 118C145 150.033 171.191 176 203.5 176C235.809 176 262 150.033 262 118C262 85.9675 235.809 60 203.5 60Z" fill="#239b44"/>
<path d="M377 2.99998C281.455 2.99998 204 80.4547 204 176C204 271.545 281.455 349 377 349C472.545 349 550 271.545 550 176C550 80.4547 472.545 2.99999 377 2.99998Z" stroke="white" stroke-width="0.94" stroke-miterlimit="10"/>
<path d="M550 349L550 3L204 2.99997L204 349L550 349Z" stroke="white" stroke-width="0.94" stroke-miterlimit="10"/>
<path d="M550 349L550 3L3 2.99995L2.99997 349L550 349Z" stroke="white" stroke-width="0.94" stroke-miterlimit="10"/>
<path d="M548 351L553 351L553 346L548 346L548 351Z" fill="#2D2C2D" stroke="white" stroke-width="0.94" stroke-miterlimit="10"/>
<path d="M202 351L206 351L206 346L202 346L202 351Z" fill="#2D2C2D" stroke="white" stroke-width="0.94" stroke-miterlimit="10"/>
<path d="M1 351L5 351L5 346L1 346L1 351Z" fill="#2D2C2D" stroke="white" stroke-width="0.94" stroke-miterlimit="10"/>
<path d="M548 5L553 5L553 1L548 1L548 5Z" fill="#2D2C2D" stroke="white" stroke-width="0.94" stroke-miterlimit="10"/>
<path d="M202 5L206 5L206 1L202 1L202 5Z" fill="#2D2C2D" stroke="white" stroke-width="0.94" stroke-miterlimit="10"/>
<path d="M1 5L5 5L5 1L1 1L1 5Z" fill="#2D2C2D" stroke="white" stroke-width="0.94" stroke-miterlimit="10"/>
<path d="M374.94 346.9L374.94 351.543L379.584 351.543L379.584 346.9L374.94 346.9Z" fill="white" stroke="#272727" stroke-width="1.38" stroke-miterlimit="10"/>
<path d="M379.909 349.183L462.043 349.453" stroke="#666666" stroke-width="2" stroke-miterlimit="10"/>
<path d="M461.905 352C463.31 352 464.458 350.865 464.465 349.46C464.465 348.056 463.33 346.907 461.926 346.9C460.514 346.9 459.372 348.035 459.365 349.44C459.365 350.844 460.5 351.993 461.905 352Z" fill="#666666"/>
<path d="M379.549 351.544L379.549 346.9L374.906 346.9L374.906 351.544L379.549 351.544Z" fill="black" stroke="#D8D8D8" stroke-width="1.38" stroke-miterlimit="10"/>
<path d="M374.587 349.26L292.446 348.99" stroke="#666666" stroke-width="2" stroke-miterlimit="10"/>
<path d="M292.584 346.443C291.18 346.443 290.031 347.578 290.024 348.983C290.017 350.387 291.159 351.536 292.564 351.543C293.975 351.543 295.117 350.408 295.124 349.003C295.131 347.599 293.989 346.45 292.584 346.443Z" fill="#666666"/>
<path d="M148.329 115.674L143.686 115.674L143.686 120.317L148.329 120.317L148.329 115.674Z" fill="white" stroke="#272727" stroke-width="1.38" stroke-miterlimit="10"/>
<path d="M146.045 120.642L145.776 202.783" stroke="#666666" stroke-width="2" stroke-miterlimit="10"/>
<path d="M143.229 202.645C143.229 204.049 144.364 205.198 145.769 205.205C147.173 205.205 148.322 204.07 148.329 202.665C148.329 201.261 147.194 200.112 145.789 200.105C144.385 200.105 143.236 201.24 143.229 202.645Z" fill="#666666"/>
<path d="M143.686 120.289L148.329 120.289L148.329 115.646L143.686 115.646L143.686 120.289Z" fill="black" stroke="#D8D8D8" stroke-width="1.38" stroke-miterlimit="10"/>
<path d="M145.962 115.32L146.239 33.1861" stroke="#666666" stroke-width="2" stroke-miterlimit="10"/>
<path d="M148.786 33.3177C148.786 31.913 147.651 30.7643 146.246 30.7573C144.842 30.7573 143.693 31.8922 143.686 33.297C143.686 34.7018 144.821 35.8505 146.226 35.8574C147.63 35.8574 148.779 34.7225 148.786 33.3177Z" fill="#666666"/>
</svg>
