<svg width="75" height="18" viewBox="0 0 75 18" fill="none" xmlns="http://www.w3.org/2000/svg">
<path d="M74.8 16.7413C74.8 16.7413 74.76 16.7513 74.74 16.7513C74.31 16.7513 73.87 16.7713 73.44 16.6913C73.01 16.6013 72.61 16.4413 72.24 16.2213C71.7 15.9013 71.23 15.4913 70.83 15.0013C70.4 14.4813 69.97 13.9613 69.54 13.4313C68.98 12.7513 68.42 12.0713 67.86 11.3913C67.3 10.7113 66.73 10.0213 66.16 9.34133C65.81 8.92133 65.47 8.49133 65.12 8.07133C64.83 7.72133 64.54 7.36133 64.25 7.01133C64.24 6.99133 64.22 6.96133 64.19 6.98133C64.17 6.98133 64.18 7.02133 64.18 7.04133C64.18 7.07133 64.18 7.10133 64.18 7.13133C64.18 9.79133 64.18 12.4513 64.18 15.1113C64.18 15.9013 63.61 16.5913 62.83 16.7413C62.73 16.7613 62.63 16.7713 62.53 16.7713C62.07 16.7713 61.61 16.7713 61.15 16.7713C61.01 16.7713 61 16.7713 61 16.6213C61 11.5013 61 6.38133 61 1.25133C61 1.12133 61 1.11133 61.14 1.11133C61.88 1.11133 62.62 1.11133 63.36 1.11133C63.42 1.11133 63.47 1.11133 63.51 1.17133C64.09 1.87133 64.67 2.58133 65.25 3.28133C65.76 3.90133 66.27 4.51133 66.78 5.13133C67.33 5.79133 67.87 6.46133 68.42 7.12133C69.13 7.98133 69.85 8.85133 70.56 9.71133C70.88 10.0913 71.19 10.4813 71.51 10.8613C71.53 10.8813 71.53 10.9013 71.55 10.9313C71.6 10.8613 71.59 10.8113 71.59 10.7713C71.59 8.12133 71.59 5.46133 71.59 2.81133C71.59 2.08133 71.99 1.48133 72.67 1.21133C72.82 1.15133 72.97 1.11133 73.13 1.11133C73.68 1.11133 74.24 1.11133 74.79 1.11133V16.7513L74.8 16.7413Z" fill="#1C1C1C"/>
<path d="M46.9202 17.1713C46.9202 17.1713 46.8302 17.1513 46.7902 17.1513C46.1802 17.1513 45.5802 17.0713 44.9902 16.9313C44.1002 16.7213 43.2702 16.3713 42.5002 15.8813C42.0802 15.6113 41.6902 15.3013 41.3202 14.9713C40.7602 14.4613 40.2902 13.8913 39.8902 13.2513C39.4702 12.5813 39.1602 11.8613 38.9602 11.0913C38.8202 10.5813 38.7402 10.0613 38.7002 9.53126C38.6702 9.13126 38.6702 8.73126 38.7002 8.32126C38.7202 8.07126 38.7502 7.83126 38.7902 7.58126C38.8802 7.04126 39.0202 6.51126 39.2202 5.99126C39.5102 5.24126 39.9102 4.54126 40.4002 3.90126C40.8002 3.39126 41.2502 2.94126 41.7602 2.54126C42.4102 2.02126 43.1202 1.62126 43.9002 1.33126C44.5702 1.08126 45.2702 0.921258 45.9902 0.831258C46.5102 0.771258 47.0302 0.771258 47.5602 0.791258C48.1802 0.811258 48.7902 0.921258 49.3902 1.08126C50.1802 1.30126 50.9202 1.62126 51.6102 2.06126C52.1802 2.43126 52.6902 2.87126 53.1602 3.36126C53.8302 4.07126 54.3502 4.87126 54.7302 5.77126C54.9802 6.35126 55.1502 6.96126 55.2502 7.58126C55.3502 8.16126 55.3902 8.75126 55.3502 9.34126C55.3002 10.1813 55.1402 11.0013 54.8502 11.7913C54.6102 12.4213 54.3002 13.0213 53.9102 13.5713C53.5302 14.1113 53.0802 14.6013 52.5902 15.0313C52.1702 15.4113 51.7102 15.7313 51.2202 16.0213C50.7302 16.3013 50.2102 16.5413 49.6702 16.7113C49.2002 16.8613 48.7202 16.9813 48.2402 17.0513C47.9102 17.1013 47.5802 17.1313 47.2402 17.1313C47.1902 17.1313 47.1402 17.1313 47.0902 17.1513H46.9302L46.9202 17.1713ZM41.8902 8.96126C41.8902 11.7713 44.1602 14.0713 47.0002 14.0713C49.8502 14.0713 52.1202 11.8013 52.1202 8.97126C52.1202 6.11126 49.8402 3.86126 46.9902 3.86126C44.1602 3.86126 41.8902 6.15126 41.8902 8.97126V8.96126Z" fill="#1C1C1C"/>
<path d="M16.2404 16.7618C15.6904 16.7618 15.1304 16.7618 14.5804 16.7618C14.4804 16.7618 14.4104 16.7318 14.3504 16.6418C13.8504 15.9718 13.3004 15.3618 12.6804 14.8018C11.9804 14.1718 11.2004 13.6518 10.3504 13.2518C9.68041 12.9318 8.98041 12.7018 8.25041 12.5318C7.79041 12.4218 7.34041 12.3418 6.87041 12.2818C6.78041 12.2718 6.74041 12.2818 6.70041 12.3718C6.27041 13.2018 5.84041 14.0418 5.40041 14.8718C5.27041 15.1318 5.15041 15.3918 4.98041 15.6318C4.58041 16.1818 4.06041 16.5618 3.39041 16.7118C3.22041 16.7518 3.05041 16.7618 2.88041 16.7618C2.30041 16.7618 1.71041 16.7618 1.13041 16.7618C0.980414 16.7618 0.970414 16.7418 1.03041 16.6118C1.37041 15.9118 1.71041 15.2218 2.05041 14.5218C2.40041 13.8118 2.75041 13.1118 3.10041 12.4018C3.62041 11.3318 4.15041 10.2618 4.67041 9.1918C5.06041 8.4018 5.45041 7.6218 5.83041 6.8318C6.36041 5.7518 6.88041 4.6818 7.41041 3.6018C7.80041 2.8018 8.20041 2.0018 8.60041 1.1918C8.64041 1.1118 8.68041 1.0918 8.77041 1.0918C9.26041 1.0918 9.75041 1.0918 10.2504 1.0918C10.3404 1.0918 10.3904 1.1218 10.4304 1.2118C10.7404 1.8418 11.0504 2.4718 11.3604 3.1018C11.6504 3.6818 11.9304 4.2718 12.2204 4.8518C12.8304 6.0818 13.4404 7.3218 14.0504 8.5518C14.6004 9.6618 15.1504 10.7818 15.6904 11.9018C16.1004 12.7418 16.5204 13.5818 16.9304 14.4118C17.2904 15.1518 17.6604 15.8918 18.0204 16.6218C18.0704 16.7318 18.0604 16.7418 17.9404 16.7418C17.3704 16.7418 16.8104 16.7418 16.2404 16.7418V16.7618ZM11.5104 10.7418L9.51041 6.5418C9.38041 6.8118 9.26041 7.0518 9.15041 7.2918C8.80041 8.0318 8.45041 8.7818 8.09041 9.5218C8.06041 9.5918 8.07041 9.6218 8.14041 9.6318C8.34041 9.6818 8.55041 9.7218 8.75041 9.7718C9.33041 9.9118 9.89041 10.0918 10.4504 10.2918C10.8004 10.4218 11.1404 10.5618 11.5104 10.7418Z" fill="#1C1C1C"/>
<path d="M27.2405 11.1809C27.3405 11.0209 27.4005 10.8609 27.4705 10.7109C27.7705 10.0709 28.0705 9.42087 28.3705 8.78087C28.6505 8.18087 28.9305 7.59087 29.2005 6.99087C29.6505 6.03087 30.0905 5.07087 30.5405 4.11087C30.8005 3.56087 31.0505 3.01087 31.3105 2.46087C31.6005 1.87087 32.0605 1.46087 32.6805 1.24087C32.9505 1.14087 33.2305 1.10087 33.5105 1.11087C34.1405 1.11087 34.7705 1.11087 35.4005 1.11087C35.5505 1.11087 35.5505 1.12087 35.4905 1.25086C35.0505 2.18087 34.6005 3.11086 34.1605 4.04086C33.6305 5.15086 33.0905 6.27087 32.5605 7.38087C32.2305 8.07087 31.9105 8.75086 31.5805 9.44086C31.2305 10.1709 30.8805 10.8909 30.5305 11.6209C30.1805 12.3409 29.8405 13.0609 29.5005 13.7809C29.2105 14.3809 28.9305 14.9809 28.6405 15.5809C28.4705 15.9409 28.2905 16.3009 28.1205 16.6609C28.0805 16.7409 28.0405 16.7709 27.9605 16.7709C27.4805 16.7709 27.0005 16.7709 26.5105 16.7709C26.4205 16.7709 26.3705 16.7409 26.3405 16.6609C26.0505 16.0409 25.7605 15.4309 25.4605 14.8109C25.0705 13.9909 24.6705 13.1709 24.2805 12.3509C23.8805 11.5109 23.4805 10.6709 23.0805 9.83087C22.6505 8.93087 22.2205 8.03087 21.7905 7.14087C21.5105 6.56087 21.2405 5.99087 20.9705 5.41087C20.5505 4.53087 20.1305 3.65087 19.7005 2.77087C19.4505 2.26087 19.2105 1.74087 18.9605 1.23087C18.9205 1.14087 18.9205 1.12087 19.0205 1.12087C19.7205 1.12087 20.4305 1.11087 21.1305 1.12087C21.6505 1.13087 22.1105 1.34087 22.5105 1.67087C22.9005 1.99087 23.1205 2.42087 23.3205 2.86087C23.8005 3.89087 24.2905 4.92087 24.7705 5.96087C25.0705 6.60087 25.3705 7.25087 25.6705 7.89087C26.1805 8.97087 26.6905 10.0609 27.2005 11.1409C27.2005 11.1509 27.2105 11.1609 27.2305 11.1909L27.2405 11.1809Z" fill="#1C1C1C"/>
</svg>
