<svg width="55" height="27" viewBox="0 0 55 27" fill="none" xmlns="http://www.w3.org/2000/svg">
<path d="M0.356852 10.1323C-0.0978813 7.34398 1.59909 4.75003 4.92783 4.21805C5.99683 4.03475 7.0962 4.16317 8.09402 4.5879L8.7415 8.55712L8.53005 8.59287C7.33005 7.873 6.33082 7.66883 5.48537 7.80505C4.67433 7.9364 3.79325 8.46137 3.9722 9.56426C4.15116 10.6671 5.15765 10.9035 5.96881 10.7699C6.77998 10.6363 7.69675 10.1247 8.60819 9.06303L8.81965 9.02727L9.46701 12.9988C8.65251 13.7082 7.65165 14.1703 6.58249 14.3306C3.24644 14.8712 0.823885 12.9849 0.356852 10.1323Z" fill="#1C1C1C"/>
<path d="M9.71381 12.5749L9.70597 2.12385C9.7057 1.87828 9.75393 1.63506 9.8479 1.40811C9.94186 1.18117 10.0797 0.97494 10.2536 0.801212C10.4275 0.627485 10.634 0.489664 10.8613 0.39563C11.0886 0.301596 11.3322 0.253191 11.5783 0.253182V0.253182C11.8367 0.253026 12.0924 0.306176 12.3292 0.409287C12.5661 0.512398 12.7791 0.663249 12.9548 0.852375C13.1305 1.0415 13.2651 1.26482 13.3503 1.50831C13.4354 1.75181 13.4692 2.01022 13.4495 2.26735L12.9848 8.31378L13.1481 8.32302C13.5889 4.07001 14.4935 2.5263 16.7974 2.52479C18.6733 2.52407 19.8417 3.72153 19.8433 6.95449L19.8494 12.5641L15.9993 12.5736L15.9967 9.07703C15.9959 7.76157 15.9453 6.56371 14.9413 6.56374C13.7074 6.56441 13.5604 8.15776 13.5624 10.5388L13.5629 12.5835L9.71381 12.5749Z" fill="#1C1C1C"/>
<path d="M20.4935 8.85556C19.776 6.12509 21.1707 3.40047 24.1306 2.62726C26.5661 1.99025 29.005 2.86196 29.6945 5.48406C29.7947 5.89085 29.8581 6.30577 29.8839 6.72385L23.9251 7.99316C24.3444 9.07329 25.4483 9.23793 26.6381 8.93035C27.7338 8.66135 28.7163 8.05377 29.4453 7.19432L29.6532 7.14019L30.5747 10.6524C29.9486 11.2985 28.7403 12.014 27.1806 12.4211C23.9179 13.2748 21.23 11.653 20.4935 8.85556ZM26.4797 6.25648C26.1946 5.82234 25.6577 5.65567 25.0221 5.8242C24.7172 5.89312 24.4402 6.05205 24.2271 6.28028C24.0141 6.50852 23.8748 6.79551 23.8274 7.10388L26.4797 6.25648Z" fill="#1C1C1C"/>
<path d="M31.516 11.0632L30.2871 1.0293L34.329 1.4532L34.4083 6.41263C34.4561 7.40235 34.4457 8.394 34.3769 9.38247L34.5086 9.38991L35.9858 1.62185L39.815 2.02237L39.6481 9.92813L39.7774 9.93544C39.9232 8.96169 40.1192 7.99608 40.3644 7.04246L41.4623 2.19956L45.5042 2.62346L42.2182 12.184L37.5064 11.6904L37.5971 5.29568L37.4677 5.28837L36.2296 11.5637L31.516 11.0632Z" fill="#1C1C1C"/>
<path d="M10.1429 20.3131C9.67206 17.5284 11.3579 14.9293 14.679 14.3719C15.7466 14.1828 16.8463 14.3049 17.8462 14.7236L18.5167 18.6896L18.3052 18.7253C17.1003 18.012 16.0984 17.8145 15.255 17.9554C14.4115 18.0963 13.5667 18.6233 13.7526 19.7243C13.9385 20.8253 14.9454 21.0549 15.7567 20.919C16.568 20.7831 17.4807 20.2622 18.3856 19.1956L18.5948 19.1597L19.2675 23.1258C18.457 23.84 17.4592 24.3085 16.3911 24.4763C13.0609 25.0332 10.6261 23.1621 10.1429 20.3131Z" fill="#1C1C1C"/>
<path d="M19.5749 24.7856L19.7667 14.3458C19.7763 13.8499 19.9828 13.3782 20.3407 13.0342C20.6987 12.6902 21.1788 12.5021 21.6757 12.5113V12.5113C21.9339 12.5163 22.1883 12.5745 22.423 12.6821C22.6576 12.7897 22.8676 12.9445 23.0396 13.1368C23.2116 13.329 23.3421 13.5546 23.4228 13.7994C23.5035 14.0443 23.5327 14.3031 23.5086 14.5596L22.926 20.5971L23.0916 20.6065C23.6138 16.3626 24.5561 14.837 26.8507 14.8781C28.7246 14.9136 29.8712 16.1348 29.8116 19.3621L29.7083 24.9746L25.8581 24.9046L25.9238 21.4073C25.948 20.0933 25.9202 18.8944 24.9173 18.8763C23.6825 18.852 23.5062 20.4414 23.4626 22.8221L23.4245 24.8646L19.5749 24.7856Z" fill="#1C1C1C"/>
<path d="M29.6233 18.57C29.4685 15.751 31.459 13.3213 34.809 13.1381C38.1112 12.9545 40.3866 15.1483 40.5482 17.9677C40.7097 20.7872 38.7694 23.1765 35.3848 23.3668C32.0003 23.5571 29.7871 21.3896 29.6233 18.57ZM37.1158 18.1576C37.0581 17.1252 36.1296 16.716 35.0107 16.7777C33.8917 16.8394 33.032 17.3474 33.0989 18.3803C33.1657 19.4133 34.069 19.8233 35.1857 19.7615C36.3024 19.6997 37.1804 19.1904 37.1226 18.158L37.1158 18.1576Z" fill="#1C1C1C"/>
<path d="M37.5268 18.5801C38.093 15.8132 40.6377 13.9692 43.9257 14.6413C47.1665 15.3016 48.8123 18.0005 48.2461 20.7674C47.6799 23.5344 45.1906 25.3656 41.8784 24.6785C38.5663 23.9914 36.9607 21.3448 37.5268 18.5801ZM44.8771 20.0794C45.0846 19.0665 44.2871 18.4353 43.1933 18.2121C42.0996 17.989 41.1418 18.2597 40.9273 19.2745C40.7129 20.2892 41.4993 20.9153 42.5953 21.1386C43.6914 21.3618 44.6695 21.0945 44.8771 20.0794V20.0794Z" fill="#1C1C1C"/>
<path d="M47.9772 23.3216C48.2047 22.1554 49.3201 21.3528 50.7156 21.6339C52.1111 21.915 52.8274 23.0574 52.5998 24.2236C52.3723 25.3898 51.2944 26.174 49.8803 25.8987C48.4662 25.6234 47.7473 24.4877 47.9772 23.3216ZM50.1653 20.8576C49.6171 20.0451 49.0218 18.3734 49.5189 15.823L50.0601 13.0546L54.5252 13.925L53.984 16.6934C53.4906 19.2191 52.3038 20.5605 51.4927 21.0963L50.1653 20.8576Z" fill="#1C1C1C"/>
<path d="M46.036 13.3899C45.9404 13.4757 45.8287 13.5419 45.7073 13.5845C45.5859 13.627 45.4573 13.6452 45.3288 13.638C45.2004 13.6307 45.0746 13.5981 44.9588 13.5421C44.843 13.4862 44.7394 13.4078 44.6541 13.3117C44.4937 13.1167 44.415 12.8674 44.4345 12.616C44.4539 12.3645 44.5701 12.1302 44.7586 11.9622C44.9471 11.7942 45.1934 11.7055 45.446 11.7145C45.6986 11.7235 45.938 11.8297 46.114 12.0107C46.2867 12.2041 46.3755 12.4579 46.3609 12.7165C46.3463 12.975 46.2294 13.2172 46.036 13.3899ZM44.8241 12.0355C44.7404 12.1079 44.6725 12.1967 44.6245 12.2963C44.5766 12.396 44.5497 12.5045 44.5455 12.6149C44.5373 12.7253 44.5516 12.8362 44.5875 12.941C44.6235 13.0457 44.6803 13.1421 44.7546 13.2243C44.8659 13.3491 45.0117 13.4382 45.1737 13.4802C45.3357 13.5223 45.5065 13.5154 45.6646 13.4605C45.8227 13.4056 45.9608 13.3051 46.0615 13.1717C46.1623 13.0383 46.2211 12.8781 46.2305 12.7113C46.24 12.5446 46.1996 12.3788 46.1145 12.2349C46.0294 12.091 45.9035 11.9756 45.7526 11.9032C45.6018 11.8308 45.4328 11.8047 45.2671 11.8282C45.1014 11.8518 44.9464 11.9238 44.8218 12.0353L44.8241 12.0355ZM45.3952 12.1223C45.4946 12.122 45.5932 12.1407 45.6857 12.1773C45.7377 12.2012 45.7805 12.2414 45.8077 12.2917C45.8348 12.342 45.8448 12.3997 45.8361 12.4562C45.8378 12.4981 45.8278 12.5396 45.8072 12.5761C45.7867 12.6126 45.7564 12.6428 45.7197 12.6632C45.6707 12.6875 45.6172 12.7015 45.5626 12.7043C45.5988 12.7102 45.6333 12.7237 45.6639 12.7438C45.6946 12.7639 45.7206 12.7903 45.7404 12.8211C45.7737 12.871 45.791 12.9298 45.79 12.9897L45.7857 13.0667C45.7843 13.0917 45.7827 13.1188 45.7811 13.1483C45.7773 13.1661 45.7763 13.1844 45.778 13.2026L45.7772 13.2162L45.6002 13.2062L45.6015 13.1836L45.6034 13.1496L45.6083 13.0635C45.6171 13.0177 45.6136 12.9704 45.5981 12.9264C45.5826 12.8824 45.5556 12.8434 45.52 12.8132C45.4556 12.7819 45.3847 12.7662 45.3132 12.7674L45.1634 12.7589L45.1396 13.1802L44.9535 13.1696L45.0139 12.1007L45.3952 12.1223ZM45.5899 12.3014C45.5205 12.2656 45.4434 12.2472 45.3653 12.2478L45.2042 12.2387L45.1819 12.6328L45.3521 12.6424C45.4135 12.6484 45.4754 12.6434 45.535 12.6277C45.5649 12.615 45.5911 12.595 45.6113 12.5696C45.6315 12.5442 45.6451 12.5142 45.6507 12.4823C45.6564 12.4504 45.654 12.4175 45.6437 12.3867C45.6334 12.356 45.6156 12.3282 45.5919 12.3061L45.5899 12.3014Z" fill="#1C1C1C"/>
</svg>
