<svg width="72" height="23" viewBox="0 0 72 23" fill="none" xmlns="http://www.w3.org/2000/svg">
<path d="M71.7996 6.64074V7.76074C71.7296 7.95074 71.6496 8.13074 71.5796 8.32074C70.6896 10.7507 69.8296 13.2007 68.8596 15.6007C68.2996 16.9907 67.6996 18.3607 66.8696 19.6207C65.9696 20.9707 64.7396 21.8107 63.1496 22.1207C63.0596 22.1407 62.9696 22.1707 62.8796 22.1907H61.1096C60.4696 22.0007 59.8096 21.8507 59.2296 21.5007C58.2596 20.9107 57.4596 20.1807 57.2196 19.0207C57.0496 18.2107 57.2796 17.4907 57.9596 16.9907C58.6396 16.4907 59.3696 16.5507 60.0796 16.9607C60.3396 17.1007 60.5696 17.2907 60.8196 17.4407C61.0196 17.5607 61.2296 17.6607 61.4596 17.5007C61.6796 17.3507 61.7096 17.1307 61.6896 16.9007C61.6696 16.5407 61.5996 16.1807 61.4996 15.8407C60.7496 13.3407 59.8196 10.9007 59.0996 8.40074C59.0996 8.37074 59.0496 8.35074 58.9996 8.31074C58.7396 9.64074 58.4896 10.9507 58.2096 12.2607C57.9396 13.5107 57.7196 14.7807 57.1396 15.9507C56.8296 16.5807 56.3396 17.0107 55.6796 17.2507C55.1696 17.4307 54.6496 17.5307 54.1096 17.5707C52.8796 17.6707 51.9896 17.1607 51.3996 16.0907C50.9996 15.3707 50.6896 14.6207 50.3996 13.8607C50.0996 13.0507 49.8096 12.2307 49.4796 11.3207C49.3796 12.0807 49.2996 12.7407 49.2196 13.3907C49.0796 14.4607 48.9396 15.5407 48.5796 16.5707C48.3496 17.2507 47.9996 17.8707 47.2996 18.1407C45.4496 18.8507 43.4996 18.8107 42.3696 16.6607C41.8796 15.7207 41.4296 14.7707 40.9796 13.8107C40.8596 13.5507 40.7396 13.2907 40.5896 12.9607C40.3896 13.3207 40.2496 13.6207 40.0696 13.8907C38.7396 15.8907 36.8196 17.0207 34.5596 17.6607C33.4596 17.9707 32.3396 18.0107 31.2196 17.7707C29.1596 17.3307 27.7596 16.0507 26.7996 14.2307C26.6596 13.9707 26.5296 13.7007 26.3896 13.4107C26.2596 13.5507 26.2996 13.6807 26.2896 13.7907C26.1596 15.1707 26.0796 16.5607 25.8996 17.9407C25.7196 19.3107 24.6596 20.1007 23.2896 19.9807C22.0596 19.8807 21.1496 18.8807 21.1996 17.5707C21.2396 16.3607 21.3796 15.1507 21.4796 13.9407C21.5396 13.1707 21.6496 12.4007 21.6596 11.6207C21.6796 10.4707 20.9096 9.63074 19.9096 9.62074C18.9596 9.61074 18.2396 10.2707 18.0996 11.3107C17.9896 12.1807 17.9296 13.0607 17.8496 13.9407C17.7396 15.0707 17.6796 16.2107 17.5196 17.3307C17.3396 18.5407 16.2196 19.3607 15.0296 19.2507C13.7396 19.1307 12.8496 18.1807 12.8296 16.9207C12.8296 16.7607 12.8696 16.6007 12.7896 16.4307C12.7396 16.4707 12.6996 16.4907 12.6596 16.5207C11.7296 17.5507 10.5496 18.1307 9.22962 18.5007C5.45962 19.5307 0.99962 17.7807 0.15962 13.0307C-0.42038 9.72074 0.95962 6.59074 3.81962 5.07074C5.93962 3.95074 8.14962 3.74074 10.3896 4.75074C11.0996 5.07074 11.7096 5.54074 12.0596 6.25074C12.4196 6.99074 12.4896 7.76075 11.9696 8.45075C11.4496 9.14075 10.6996 9.29074 9.87962 9.17074C9.23962 9.08074 8.75962 8.67074 8.24962 8.34074C6.85962 7.47074 5.23962 8.09075 4.82962 9.68075C4.49962 10.9607 4.72962 12.1807 5.43962 13.2907C6.34962 14.6907 8.03962 14.8507 9.22962 13.6807C9.61962 13.3007 9.97962 12.8807 10.3796 12.5007C11.1496 11.7807 11.9896 11.6707 12.9196 12.1607C13.1196 12.2607 13.2096 12.2707 13.2296 12.0207C13.3096 11.0907 13.3896 10.1607 13.4696 9.23074C13.6596 7.07074 13.8396 4.92074 14.0396 2.76074C14.1496 1.61074 15.0896 0.750746 16.2096 0.700746C17.4896 0.640746 18.4596 1.36075 18.7296 2.54075C18.8596 3.13075 18.7296 3.71075 18.6896 4.29075C18.6196 5.24075 18.5296 6.19075 18.4396 7.22075C19.7196 6.23075 21.0796 5.88075 22.5796 6.13075C24.1096 6.38075 25.2096 7.25074 25.9496 8.65074C25.9996 8.52074 26.0296 8.46074 26.0496 8.40074C26.8896 5.13074 30.5596 2.95074 33.5396 2.98074C35.7996 3.00074 37.5896 3.98074 38.7296 5.99074C38.8396 6.19074 38.8996 6.24074 39.0996 6.06074C40.5596 4.66074 42.4196 5.10074 43.1096 7.00074C43.7396 8.75074 44.3696 10.5007 44.9996 12.2407C45.1096 12.5507 45.2296 12.8607 45.3396 13.1607C45.4396 13.0807 45.4596 13.0107 45.4696 12.9307C45.6596 11.5007 45.8396 10.0707 46.0296 8.64074C46.1696 7.65074 46.2396 6.64074 46.6496 5.71074C47.0896 4.70074 47.9496 4.38074 48.9496 4.31074C49.8396 4.25074 50.5696 4.57074 51.0896 5.33074C51.4796 5.91074 51.7396 6.56074 51.9796 7.21074C52.5396 8.74074 53.0896 10.2807 53.6496 11.8107C53.6996 11.9407 53.6996 12.1007 53.8896 12.2107C54.0096 11.3207 54.1196 10.4507 54.2396 9.58074C54.4296 8.15074 54.5796 6.71075 54.8196 5.29075C54.9896 4.24075 55.8396 3.51074 56.8496 3.41074C57.8896 3.31074 58.8296 3.88074 59.2296 4.89074C59.3396 5.16074 59.4196 5.18074 59.6396 5.00074C60.1396 4.59074 60.7296 4.43074 61.3696 4.49074C62.4196 4.60074 63.1596 5.30075 63.4296 6.45075C63.9196 8.50075 64.4096 10.5607 64.8896 12.6107C64.9196 12.7407 64.9296 12.8907 65.0896 13.0407C65.2896 12.4407 65.4696 11.8807 65.6496 11.3307C66.1696 9.73075 66.6696 8.12075 67.1996 6.52075C67.7796 4.79075 69.6896 4.27075 71.0496 5.45075C71.4196 5.77075 71.6096 6.19075 71.7796 6.63075L71.7996 6.64074ZM38.6696 9.83074C39.0963 9.85074 39.2463 9.71074 39.1196 9.41074C39.0396 9.22074 38.9596 9.04074 38.8896 8.85074C38.8096 8.64074 38.7096 8.61075 38.5496 8.79075C38.1896 9.18075 37.7296 9.43075 37.2696 9.68075C35.4696 10.6607 33.5996 11.5007 31.7596 12.3807C31.3596 12.5707 31.3396 12.6607 31.6496 12.9807C31.7396 13.0807 31.8396 13.1707 31.9496 13.2507C33.3196 14.3107 35.3396 13.8607 36.2296 12.2907C36.4496 11.9107 36.5996 11.4907 36.7996 11.1007C37.2196 10.2807 37.8796 9.84074 38.6696 9.84074V9.83074ZM30.0096 8.98074C30.0096 9.06074 30.0096 9.14075 30.0096 9.22075C30.0396 9.81075 30.0996 9.84074 30.6396 9.59074C31.8196 9.03074 32.9996 8.46074 34.1896 7.92074C34.5296 7.77074 34.4896 7.63074 34.2896 7.40074C33.5996 6.60074 32.6496 6.33074 31.6896 6.66074C30.6096 7.05074 29.9996 7.87074 29.9996 8.98074H30.0096Z" fill="#1C1C1C"/>
</svg>
