<svg width="65" height="29" viewBox="0 0 65 29" fill="none" xmlns="http://www.w3.org/2000/svg">
<path d="M64.791 21.2505C64.791 22.4705 64.791 23.7005 64.791 24.9205C64.791 25.1505 64.7311 25.2505 64.4811 25.2405C63.7011 25.2405 62.9211 25.2405 62.1411 25.2405C61.9411 25.2405 61.871 25.1705 61.871 24.9605C61.871 24.1105 61.871 23.2605 61.871 22.4105C61.871 22.3305 61.9211 22.2105 61.8211 22.1805C61.7311 22.1505 61.671 22.2505 61.621 22.3105C60.411 23.6005 59.051 24.7105 57.551 25.6505C55.981 26.6305 54.321 27.3905 52.551 27.9305C50.451 28.5705 48.301 28.8605 46.111 28.8205C44.561 28.7905 43.041 28.5905 41.531 28.2205C39.371 27.6905 37.361 26.8405 35.471 25.6705C34.131 24.8405 32.911 23.8605 31.781 22.7605C31.601 22.5905 31.601 22.4905 31.801 22.3505C32.331 21.9605 32.851 21.5605 33.381 21.1605C33.681 20.9305 33.691 20.9305 33.961 21.1905C34.671 21.8805 35.451 22.4905 36.271 23.0505C38.061 24.2705 40.011 25.1405 42.121 25.6605C44.431 26.2405 46.771 26.3605 49.121 26.0105C52.611 25.4905 55.701 24.0705 58.381 21.7705C58.881 21.3405 59.361 20.8905 59.811 20.4005C59.851 20.3505 59.941 20.3105 59.911 20.2305C59.881 20.1305 59.7811 20.1805 59.7011 20.1705C58.8411 20.1705 57.981 20.1705 57.121 20.1705C56.891 20.1705 56.8211 20.1005 56.8211 19.8705C56.8311 19.1005 56.8211 18.3305 56.8211 17.5505C56.8211 17.3205 56.891 17.2305 57.131 17.2305C59.551 17.2305 61.9711 17.2305 64.3911 17.2305C64.7711 17.2305 64.771 17.2305 64.771 17.6305C64.771 18.8305 64.771 20.0205 64.771 21.2205L64.791 21.2505Z" fill="#1C1C1C"/>
<path d="M47.4609 12.7416C47.4609 9.89156 47.4609 7.05156 47.4609 4.20156C47.4609 3.9749 47.5743 3.85823 47.8009 3.85156C48.5909 3.85156 49.381 3.85156 50.171 3.85156C50.421 3.85156 50.5009 3.92156 50.5009 4.17156C50.4909 5.73156 50.5009 7.29156 50.5009 8.86156C50.5009 9.0949 50.6143 9.21156 50.8409 9.21156C53.4009 9.21156 55.9609 9.21156 58.5209 9.21156C58.8809 9.21156 58.881 9.21156 58.881 8.84156C58.881 7.28156 58.881 5.72156 58.881 4.15156C58.881 3.93156 58.941 3.85156 59.171 3.85156C59.991 3.86156 60.8009 3.86156 61.6209 3.85156C61.8409 3.85156 61.921 3.91156 61.921 4.14156C61.921 7.96156 61.921 11.7816 61.921 15.5916C61.921 15.8216 61.8409 15.8916 61.6209 15.8916C60.8009 15.8916 59.9709 15.8816 59.1509 15.8916C58.9409 15.8916 58.881 15.8116 58.891 15.6116C58.891 14.5816 58.891 13.5416 58.891 12.5116C58.891 12.2916 58.8209 12.2216 58.6109 12.2216C56.0009 12.2216 53.3909 12.2216 50.7709 12.2216C50.5309 12.2216 50.511 12.3216 50.511 12.5216C50.511 15.4416 50.511 18.3516 50.511 21.2716C50.511 21.5416 50.431 21.6016 50.171 21.6016C49.381 21.5816 48.5909 21.6016 47.8009 21.6016C47.5809 21.6016 47.4709 21.4849 47.4709 21.2516C47.4709 18.4116 47.4709 15.5716 47.4709 12.7416H47.4609Z" fill="#1C1C1C"/>
<path d="M39.0516 18.4108C37.4216 18.4408 36.0816 18.1008 34.8616 17.3508C33.1916 16.3208 32.1416 14.8509 31.6816 12.9409C31.4116 11.8309 31.3916 10.7209 31.6216 9.61085C32.1216 7.24085 33.4816 5.52085 35.6916 4.52085C37.1716 3.86085 38.7216 3.70085 40.3216 4.00085C42.3616 4.38085 43.9816 5.41085 45.1016 7.16085C46.0416 8.62085 46.3716 10.2408 46.1916 11.9608C46.0116 13.7308 45.2916 15.2408 44.0016 16.4608C42.9416 17.4608 41.6816 18.0508 40.2616 18.3108C39.8016 18.3908 39.3316 18.4008 39.0716 18.4108H39.0516ZM34.6116 11.2108C34.5816 11.7608 34.7016 12.3209 34.9116 12.8709C36.0316 15.8409 39.9116 16.5508 41.9916 14.1608C43.4016 12.5408 43.4616 10.0108 42.1416 8.32085C41.0316 6.91085 39.1016 6.36085 37.4716 6.94085C35.7616 7.54085 34.5516 9.28085 34.6116 11.2108V11.2108Z" fill="#1C1C1C"/>
<path d="M5.90091 16.0306C4.70091 16.0106 3.42091 15.6006 2.37091 14.6106C1.31091 13.6006 0.790923 12.3406 0.800923 10.8606C0.800923 9.18064 1.46091 7.83063 2.76091 6.80063C3.92091 5.88063 5.27093 5.55063 6.74093 5.71063C8.15093 5.86063 9.31092 6.48063 10.2309 7.55063C10.4609 7.82063 10.4609 7.83063 10.2009 8.06063C9.63092 8.56063 9.07091 9.05063 8.51091 9.56063C8.36091 9.69063 8.26091 9.73064 8.12091 9.54064C7.67091 8.94064 7.08092 8.58063 6.33092 8.51063C5.53092 8.43063 4.56092 8.81063 4.09092 9.73063C3.55092 10.7806 3.80091 12.3306 5.04091 12.9406C6.15091 13.4806 7.50092 13.1406 8.20092 12.1206C8.40092 11.8306 8.40092 11.8406 8.67092 12.0406C9.29092 12.5106 9.91091 12.9806 10.5409 13.4406C10.7209 13.5706 10.7209 13.6606 10.5909 13.8306C9.46092 15.3206 7.96092 16.0406 5.88092 16.0306H5.90091Z" fill="#1C1C1C"/>
<path d="M26.5511 16.0403C24.4711 15.9803 22.8111 15.1703 21.7811 13.2903C21.2511 12.3203 21.0911 11.2703 21.2411 10.1903C21.4811 8.43032 22.4211 7.12032 23.9811 6.29032C24.9611 5.77032 26.0211 5.60032 27.1311 5.72032C28.2411 5.84032 29.2211 6.25032 30.0711 6.98032C30.3111 7.19032 30.5211 7.44032 30.7311 7.68032C30.8411 7.81032 30.8411 7.90032 30.7111 8.01032C30.1011 8.55032 29.4811 9.08032 28.8711 9.62032C28.7311 9.74032 28.6511 9.72032 28.5411 9.58032C28.1211 9.05032 27.6011 8.67032 26.9111 8.56032C25.7611 8.37032 24.6811 9.02032 24.3411 10.1303C23.9911 11.2703 24.4711 12.6203 25.7111 13.0703C26.7211 13.4403 28.0111 13.0503 28.6211 12.1103C28.7611 11.9003 28.8511 11.8703 29.0611 12.0303C29.6811 12.5203 30.3111 12.9903 30.9511 13.4503C31.1211 13.5703 31.1511 13.6603 31.0111 13.8403C30.1911 14.9103 29.1511 15.6403 27.8111 15.9203C27.3911 16.0103 26.9711 16.0603 26.5411 16.0503L26.5511 16.0403Z" fill="#1C1C1C"/>
<path d="M14.4417 8.65023C14.4417 10.9302 14.4417 13.2102 14.4417 15.5002C14.4417 15.8402 14.4417 15.8502 14.1017 15.8502C13.3517 15.8502 12.6116 15.8502 11.8616 15.8502C11.575 15.8502 11.4316 15.7036 11.4316 15.4102C11.4316 13.8602 11.4316 12.3002 11.4316 10.7502C11.4316 7.79024 11.4316 4.83024 11.4316 1.87024C11.4316 1.49024 11.4317 1.49023 11.8217 1.49023C12.6017 1.49023 13.3817 1.49023 14.1617 1.49023C14.4017 1.49023 14.4516 1.57024 14.4516 1.79024C14.4516 4.08024 14.4516 6.37024 14.4516 8.66024L14.4417 8.65023Z" fill="#1C1C1C"/>
<path d="M19.7314 10.8613C19.7314 12.4013 19.7314 13.9513 19.7314 15.4913C19.7314 15.8413 19.7314 15.8413 19.3914 15.8413C18.5914 15.8413 17.7914 15.8413 17.0014 15.8413C16.7614 15.8413 16.6914 15.7713 16.6914 15.5313C16.6914 12.4213 16.6914 9.32133 16.6914 6.21133C16.6914 5.87133 16.6914 5.87133 17.0414 5.86133C17.8214 5.86133 18.6014 5.86133 19.3814 5.86133C19.6414 5.86133 19.7314 5.93133 19.7214 6.20133C19.7114 7.75133 19.7214 9.31133 19.7214 10.8613H19.7314Z" fill="#1C1C1C"/>
<path d="M20.1105 2.73096C20.1105 3.77096 19.3206 4.57096 18.3006 4.61096C17.1906 4.65096 16.3205 3.80096 16.3105 2.76096C16.3105 1.72096 17.1106 0.93096 18.1606 0.88096C19.2206 0.83096 20.1505 1.70096 20.1105 2.72096V2.73096Z" fill="#1C1C1C"/>
</svg>
