<svg width="61" height="19" viewBox="0 0 61 19" fill="none" xmlns="http://www.w3.org/2000/svg">
<g clip-path="url(#clip0_2165_16421)">
<path d="M47.8643 5.51245C46.9743 5.24468 46.0689 5.06325 45.1617 4.8878C43.5558 4.57777 41.9396 4.32745 40.3123 4.16532C39.2773 4.06243 38.2368 4.01099 37.1976 3.95266C34.8632 3.82222 32.5278 3.75929 30.1902 3.78272C28.1619 3.80293 26.1331 3.86034 24.1186 4.11433C21.5916 4.43263 19.0826 4.85795 16.6236 5.53358C16.4022 5.59451 16.2913 5.74011 16.2906 5.97038C16.2906 9.75963 16.2906 13.5484 16.2906 17.3377C16.2906 17.6053 16.1539 17.7393 15.8803 17.7396C15.0778 17.7396 14.2748 17.7327 13.4723 17.7437C13.2458 17.7469 13.169 17.6909 13.1694 17.4502C13.1778 14.021 13.1755 10.5919 13.1755 7.16227C13.1755 7.09337 13.1718 7.02448 13.1755 6.95558C13.1843 6.78243 13.1097 6.7613 12.9634 6.82468C12.2201 7.14665 11.5019 7.51685 10.7864 7.89394C9.92691 8.34681 9.1091 8.86812 8.29917 9.40183C8.17552 9.48313 8.05882 9.54789 8.1005 9.74172C8.35103 10.9074 8.33019 12.0837 8.1871 13.2581C8.01113 14.7045 7.71568 16.1279 7.26695 17.5168C7.12802 17.9463 6.96733 18.3706 6.69643 18.7418C6.6691 18.779 6.64502 18.8189 6.61446 18.8525C6.41857 19.0674 6.31577 19.0486 6.20972 18.7859C6.07265 18.4451 5.93835 18.1024 5.79017 17.7662C5.7082 17.5802 5.72394 17.4144 5.82073 17.2412C6.47831 16.0649 6.89092 14.8037 7.14099 13.4864C7.32807 12.5021 7.36234 11.5114 7.25028 10.5161C7.21786 10.2286 7.17155 10.2006 6.98354 10.3466C5.6656 11.3677 4.45046 12.4906 3.4488 13.8281C2.96534 14.4735 2.64164 15.201 2.3235 15.9317C2.11234 16.4163 1.90071 16.9009 1.69463 17.3877C1.6423 17.5113 1.56404 17.5908 1.43253 17.6215C1.04215 17.7138 0.654079 17.8135 0.262309 17.8985C0.0090006 17.9531 -0.0396235 17.8966 0.0270609 17.6555C0.384563 16.3635 1.04631 15.2377 1.89793 14.2057C2.66804 13.2724 3.5229 12.4236 4.42823 11.6249C5.1775 10.9644 5.9666 10.3498 6.78951 9.77984C7.05532 9.59566 7.07616 9.55019 6.96085 9.24705C6.61353 8.33303 6.06385 7.54349 5.43313 6.80126C4.53937 5.74945 3.46038 4.9374 2.23089 4.31275C2.18504 4.28933 2.12577 4.28106 2.09381 4.19379C2.32212 4.19747 2.51661 4.28841 2.71157 4.35317C3.3335 4.55986 3.95866 4.76884 4.52733 5.09678C5.68319 5.76369 6.68809 6.59227 7.3253 7.79335C7.50173 8.12543 7.67585 8.45842 7.80413 8.81163C7.86433 8.97698 7.93379 9.01097 8.08892 8.90808C9.60738 7.90175 11.2254 7.07776 12.8971 6.35665C13.1472 6.24872 13.1903 6.09072 13.1796 5.85509C13.1639 5.51429 13.1782 5.48444 13.5103 5.51842C14.5596 5.62498 15.5316 5.33332 16.5157 5.03156C18.5176 4.41747 20.5742 4.0459 22.6488 3.76434C24.1779 3.55674 25.7135 3.42446 27.2524 3.32387C28.0137 3.27427 28.7773 3.24671 29.54 3.22466C30.8121 3.18792 32.0847 3.12821 33.3563 3.14291C35.1137 3.16358 36.8697 3.23477 38.6225 3.39001C40.7282 3.57649 42.8259 3.82314 44.9131 4.152C47.0164 4.48315 49.116 4.83865 51.1536 5.478C51.2666 5.51337 51.3814 5.51337 51.4972 5.51337C52.1455 5.51337 52.7939 5.5198 53.4422 5.5097C53.6547 5.50648 53.7552 5.58135 53.7177 5.78849C53.6283 6.27949 53.8446 6.51373 54.3003 6.72409C55.9289 7.47597 57.4451 8.4203 58.801 9.59704C59.61 10.2993 60.35 11.0691 60.8733 12.0153C61.0706 12.3717 61.0345 12.588 60.7835 12.7359C60.4362 12.9403 60.0402 12.8783 59.843 12.571C59.5776 12.1586 59.3285 11.7374 59.0251 11.3479C58.2698 10.3779 57.3261 9.61954 56.3156 8.93656C55.5756 8.43638 54.8013 7.99085 54.0067 7.58069C53.733 7.43923 53.7205 7.45071 53.7191 7.75982C53.7186 7.92839 53.7145 8.09649 53.7191 8.26506C53.7228 8.41203 53.6552 8.47542 53.5093 8.46853C53.4325 8.46485 53.3551 8.46853 53.2778 8.46853C48.9868 8.46853 44.6959 8.46853 40.4049 8.46899C40.2896 8.46899 40.1715 8.46623 40.0595 8.48782C39.7765 8.54202 39.651 8.6968 39.6473 8.98341C39.6436 9.28195 39.6543 9.58096 39.6431 9.87905C39.6367 10.0628 39.7131 10.1298 39.889 10.1151C39.9655 10.1087 40.0432 10.1142 40.1206 10.1142C44.4268 10.1142 48.7335 10.1142 53.0398 10.1142C53.1245 10.1142 53.2097 10.1138 53.2945 10.1142C53.6075 10.117 53.626 10.1335 53.6265 10.4353C53.6274 11.0934 53.6265 11.7521 53.6265 12.4103C53.6265 12.571 53.6237 12.7318 53.6265 12.8925C53.6283 13.0161 53.5774 13.0786 53.4463 13.0694C53.3695 13.0639 53.2921 13.0671 53.2148 13.0671C48.816 13.0671 44.4166 13.0671 40.0178 13.0671C39.7708 13.0671 39.647 13.1877 39.6464 13.429C39.6459 13.7046 39.6431 13.9802 39.6478 14.2558C39.6533 14.5796 39.8112 14.749 40.1377 14.7817C40.2526 14.7931 40.3688 14.789 40.4846 14.789C44.7834 14.789 49.0822 14.789 53.3806 14.789C53.6368 14.789 53.7651 14.9139 53.7654 15.1638C53.7654 15.9295 53.7599 16.6947 53.7691 17.4603C53.7714 17.667 53.7061 17.7432 53.4917 17.7432C49.0697 17.7386 44.6473 17.7442 40.2252 17.7345C39.6019 17.7331 38.9777 17.6734 38.3808 17.4598C37.1879 17.0327 36.5303 16.1403 36.5243 14.8822C36.5141 12.7084 36.5136 10.5345 36.5243 8.36059C36.5307 6.95283 37.3902 5.95706 38.8239 5.65576C39.3472 5.54552 39.877 5.51245 40.4109 5.51291C42.819 5.51475 45.2266 5.51291 47.6346 5.51291C47.7115 5.51291 47.7879 5.51291 47.8648 5.51291L47.8643 5.51245Z" fill="#1C1C1C"/>
<path d="M17.6777 11.6144C17.6777 9.70093 17.6777 7.78793 17.6777 5.87448C17.6777 5.51346 17.6777 5.51209 18.0301 5.51255C19.01 5.51392 19.9899 5.51898 20.9698 5.51714C22.4267 5.51438 23.5862 6.1248 24.5249 7.19865C25.6007 8.43004 26.6783 9.6596 27.7549 10.8905C28.6237 11.8845 29.4901 12.8807 30.3612 13.8723C30.7502 14.3151 31.2142 14.644 31.8111 14.7579C32.0904 14.8111 32.1177 14.7932 32.1177 14.5075C32.1177 11.607 32.1209 8.70654 32.1126 5.80604C32.1121 5.5718 32.1765 5.50428 32.4104 5.50795C33.2282 5.52035 34.046 5.51806 34.8638 5.50887C35.0824 5.50658 35.1592 5.57547 35.1588 5.79777C35.1514 9.68532 35.149 13.5733 35.1514 17.4609C35.1514 17.6685 35.0865 17.7438 34.873 17.7424C33.9163 17.7346 32.9591 17.7502 32.0028 17.736C30.8924 17.7194 29.8425 17.4976 28.9604 16.7641C28.4838 16.3682 28.1013 15.8864 27.6998 15.4225C26.3481 13.8613 25.0014 12.2955 23.6488 10.7353C23.1912 10.2075 22.7559 9.66005 22.2614 9.16493C21.8881 8.79105 21.4477 8.54027 20.905 8.48791C20.7633 8.47413 20.6984 8.50537 20.7049 8.65097C20.7082 8.71986 20.7049 8.78876 20.7049 8.85765C20.7049 11.7044 20.7049 14.5516 20.7049 17.3984C20.7049 17.7443 20.7045 17.7452 20.3622 17.7452C19.5676 17.7456 18.7729 17.7461 17.9778 17.7452C17.6912 17.7452 17.6782 17.7328 17.6782 17.4462C17.6773 15.5024 17.6782 13.5586 17.6777 11.6144V11.6144Z" fill="#1C1C1C"/>
<path d="M16.7659 2.02369C16.7682 3.15082 15.8791 4.05335 14.7621 4.05794C13.5989 4.06254 12.6856 3.1793 12.6778 2.04252C12.6708 0.90391 13.5789 -0.000917908 14.7288 6.98825e-07C15.874 0.000919305 16.764 0.885078 16.7664 2.02369H16.7659Z" fill="#1C1C1C"/>
</g>
<defs>
<clipPath id="clip0_2165_16421">
<rect width="61" height="19" fill="white"/>
</clipPath>
</defs>
</svg>
