<svg width="61" height="23" viewBox="0 0 61 23" fill="none" xmlns="http://www.w3.org/2000/svg">
<path d="M4.74175 6.31445V12.3565H5.36679L9.74202 6.31445H14.6729L8.56142 14.1621L14.534 22.0098H9.60314L5.57513 16.2456H4.74175V22.0098H0.783203V6.31445H4.74175V6.31445Z" fill="#1C1C1C"/>
<path d="M12.9375 14.2344C12.9375 13.1232 13.1458 12.0815 13.4931 11.1092C13.8403 10.1369 14.3265 9.30356 14.9515 8.60907C15.5765 7.91459 16.3405 7.35899 17.1738 6.9423C18.0072 6.52561 18.9795 6.38672 19.9518 6.38672C20.9241 6.38672 21.688 6.52561 22.5214 6.9423C23.3547 7.35899 24.0492 7.91459 24.6048 8.60907V6.45615H28.5634V22.1515H24.6048V19.9986C23.9798 20.693 23.2853 21.2487 22.5214 21.6653C21.688 22.082 20.9241 22.1515 19.9518 22.1515C18.9795 22.1515 18.0072 22.0126 17.1738 21.5959C16.3405 21.1792 15.5765 20.6236 14.9515 19.9291C14.3265 19.2347 13.8403 18.4012 13.4931 17.429C13.1458 16.3178 12.9375 15.3455 12.9375 14.2344ZM16.8961 14.2344C16.8961 14.79 16.9655 15.2761 17.1738 15.7622C17.3822 16.2484 17.66 16.6651 18.0072 17.0123C18.3545 17.3595 18.7712 17.6373 19.1878 17.8457C19.674 18.054 20.1601 18.1235 20.7157 18.1235C21.2713 18.1235 21.7574 18.054 22.1741 17.8457C22.6603 17.6373 23.077 17.3595 23.4242 17.0123C23.7714 16.6651 24.0492 16.2484 24.2576 15.7622C24.4659 15.2761 24.5354 14.79 24.5354 14.2344C24.5354 13.6788 24.4659 13.1926 24.2576 12.7065C24.0492 12.2204 23.7714 11.8037 23.4242 11.4564C23.077 11.1092 22.6603 10.8314 22.1741 10.623C21.688 10.4147 21.2019 10.3453 20.7157 10.3453C20.1601 10.3453 19.674 10.4147 19.1878 10.623C18.7017 10.8314 18.3545 11.1092 18.0072 11.4564C17.66 11.8037 17.3822 12.2204 17.1738 12.7065C17.035 13.1926 16.8961 13.6788 16.8961 14.2344Z" fill="#1C1C1C"/>
<path d="M34.6745 6.38393V8.60628C35.0912 7.98125 35.7162 7.42563 36.3413 7.00894C37.0357 6.59225 37.7997 6.38393 38.7719 6.38393L40.0915 10.3425C39.6053 10.3425 37.7997 10.4119 37.3135 10.6203C36.8274 10.8286 36.4107 11.037 35.994 11.3842C35.6468 11.7315 35.2995 12.0787 35.0217 12.4954C34.7439 12.9121 34.605 13.3982 34.605 13.8149V22.0098H30.6465V6.31445H34.6745V6.38393Z" fill="#1C1C1C"/>
<path d="M44.5352 6.31445L47.8687 16.4539L51.2717 6.31445H55.508L49.8827 22.0098H45.6464L40.2988 6.31445H44.5352Z" fill="#1C1C1C"/>
<path d="M56.209 2.43069C56.209 1.73621 56.4173 1.18062 56.9035 0.694483C57.3896 0.208345 57.9452 0 58.5702 0C59.2647 0 59.8203 0.208345 60.3064 0.694483C60.7926 1.18062 61.0009 1.73621 61.0009 2.43069C61.0009 3.05572 60.7926 3.61133 60.3064 4.09747C59.8203 4.5836 59.2647 4.79195 58.5702 4.79195C57.9452 4.79195 57.3896 4.5836 56.9035 4.09747C56.4868 3.61133 56.209 3.05572 56.209 2.43069ZM60.5842 6.38925V22.0845H56.6257V6.38925H60.5842Z" fill="#1C1C1C"/>
</svg>
