<svg width="88" height="30" viewBox="0 0 88 30" fill="none" xmlns="http://www.w3.org/2000/svg">
<path d="M45.0408 25.9705C45.0408 25.9705 32.6408 27.8305 16.5108 19.3505C16.5108 19.3505 2.38078 11.4905 0.800781 9.98047C0.800781 9.98047 5.04078 12.1505 6.80078 13.0505C6.80078 13.0505 9.66078 12.8405 10.9308 13.5705C12.2008 14.2905 15.4408 15.2605 18.3408 13.7405C21.2308 12.2205 29.1208 9.36047 41.0808 16.0805C41.0808 16.0805 27.1508 10.6505 20.7208 16.7105C20.7208 16.7105 23.9408 22.2705 45.0408 25.9705Z" fill="#1C1C1C"/>
<path fill-rule="evenodd" clip-rule="evenodd" d="M63.8004 11.9102C62.6404 11.9102 61.8704 11.8802 60.6904 11.7102C60.5704 11.6902 60.5304 11.6702 60.4504 11.6502C60.2604 11.6202 60.0804 11.6102 59.9104 11.5802L59.1504 11.4202C59.0504 11.3902 59.0104 11.3602 58.8904 11.3302C58.2604 11.1902 57.6304 10.9902 57.0604 10.7202C56.9704 10.6802 56.9504 10.6602 56.8604 10.6202C56.7804 10.5802 56.7404 10.5802 56.6504 10.5202L55.9304 10.0202C55.7804 9.90017 55.7704 9.77017 55.5404 9.77017C55.5104 9.91017 55.3004 10.1902 55.2104 10.3202C54.9104 10.7902 54.5004 11.2402 53.9804 11.4602C53.6904 11.5802 53.8204 11.5602 53.4404 11.5602C53.2104 11.5602 53.0204 11.3502 52.8904 11.2002C52.6904 10.9702 52.5004 10.5902 52.0604 10.4402C51.5304 10.2602 51.0504 10.5002 50.6604 10.7802L50.1204 11.1902C50.0404 11.2602 50.0704 11.2702 49.9804 11.3502C49.5204 11.7702 49.0504 12.4502 48.8704 13.0502L48.7704 13.2802C48.7304 13.3802 48.7504 13.4102 48.7004 13.5102C48.6604 13.6102 48.6404 13.6302 48.6204 13.7302C48.5904 13.8702 48.6204 13.8502 48.5604 13.9802C48.5004 14.1302 48.5104 14.0702 48.5104 14.2602C48.7204 14.2002 48.8104 13.9102 48.9104 13.7502C49.0804 13.4702 49.2504 13.1902 49.4704 12.9502C49.6904 12.7002 49.9104 12.4702 50.2204 12.3102C50.6404 12.0802 51.1804 11.9502 51.5704 12.2902C51.7404 12.4402 51.8104 12.6502 51.9604 12.8102C52.5204 13.4402 53.5504 12.9602 54.0404 12.4702C54.1504 12.3602 54.2104 12.3502 54.3004 12.2202L54.6504 11.8002C55.0004 11.3402 54.9304 11.2802 55.4504 11.5802C55.5804 11.6502 55.7204 11.7102 55.8704 11.7702L56.3004 11.9502C56.4104 11.9802 56.4204 12.0002 56.5104 12.0402C56.6004 12.0802 56.6804 12.1002 56.7604 12.1302C57.2004 12.3302 57.6904 12.4502 58.1504 12.6002L60.6604 13.2002C60.8704 13.2202 61.0104 13.2202 61.2104 13.2602C62.1804 13.4402 64.0204 13.4302 64.9104 13.2802C65.1604 13.2402 65.4504 13.2202 65.7004 13.1802C65.8504 13.1502 65.9204 13.1302 66.0604 13.1002L67.8904 12.7302C68.2004 12.6702 69.7304 12.2402 69.9604 12.1302L70.4404 11.9702C70.5304 11.9402 70.5404 11.9502 70.6204 11.9202L72.8404 11.0602C72.9604 11.0202 73.0204 10.9802 73.1504 10.9202L74.0504 10.5002C74.2004 10.4402 74.2504 10.3602 74.4104 10.3602C74.5704 10.3602 74.5704 10.9302 74.8904 11.0902C75.6904 11.4902 76.6404 10.4802 76.9904 9.90017L77.4304 9.15017C77.5904 8.83017 77.8304 8.45017 77.8504 8.08017C77.8504 7.98017 77.8504 7.90017 77.7304 7.93017C77.6204 7.95017 77.3204 8.51018 77.2404 8.63018C77.0804 8.89018 76.9304 9.08018 76.7204 9.29018C76.2704 9.75018 75.3204 9.85017 75.3204 8.98017C75.3204 8.79017 75.8804 6.89017 75.3204 7.39017C74.9404 7.73017 74.7804 8.52017 74.6404 9.02017C74.5004 9.51017 74.5604 9.42017 74.1704 9.66017C73.9404 9.80017 73.6504 9.94018 73.4004 10.0402C72.7104 10.3302 72.0104 10.5802 71.2804 10.7602C70.9704 10.8402 70.6904 10.9602 70.3704 11.0102C70.1804 11.0402 70.0804 11.0702 69.9004 11.1202L67.9604 11.4802C67.7604 11.5102 67.6604 11.5402 67.4604 11.5502C67.2904 11.5702 67.1304 11.5902 66.9604 11.6202C65.9804 11.7902 64.8004 11.8902 63.7804 11.8902L63.8004 11.9102Z" fill="#1C1C1C"/>
<path fill-rule="evenodd" clip-rule="evenodd" d="M82.7101 7.10008C82.7101 6.82008 82.7201 6.09008 82.8301 5.93008C82.9601 5.73008 83.5101 5.11008 83.6901 4.89008C83.7601 4.81008 83.7501 4.78008 83.8101 4.71008L85.5901 2.39008C85.7901 2.13008 85.9401 1.87008 86.0001 1.55008C86.0601 1.27008 86.0301 0.680078 86.0301 0.330078C85.8001 0.330078 85.8701 0.34008 85.7701 0.48008L82.6301 4.58008C82.5701 4.68008 82.5401 4.72008 82.4801 4.84008L82.3201 5.48008C82.1701 6.32008 82.3501 8.05008 82.2401 9.03008C82.2001 9.37008 82.3801 9.44008 82.0401 9.94008C81.8801 10.1901 81.6801 10.3601 81.4601 10.5401C81.3801 10.6101 81.3301 10.6401 81.2401 10.6901C81.0401 10.8001 80.9601 10.9401 80.7101 10.9401C80.6401 10.6201 80.5301 10.2801 80.3301 10.0301C80.2901 9.98008 80.2801 9.98008 80.2401 9.92008C80.0801 9.70008 79.9401 9.52008 79.6701 9.44008C79.2001 9.30008 78.8301 9.63008 78.5701 9.94008C78.3001 10.2701 78.0001 10.9001 77.8801 11.3201C77.8001 11.6301 77.7601 11.8301 77.9101 12.1501C78.0601 12.4801 78.4801 12.7001 78.8801 12.7001C79.1201 12.7001 80.0701 12.4601 79.8201 12.8601C79.7201 13.0201 78.7401 13.6201 78.5201 13.7601L77.4001 14.4301C77.2901 14.5101 77.2901 14.4901 77.1501 14.5501C77.0401 14.6001 76.7701 14.7301 76.7001 14.8201C76.6401 14.8901 76.6201 15.0001 76.7601 15.0001C76.9601 15.0001 78.6201 14.6201 78.7601 14.5601C79.2701 14.3401 79.1301 14.4201 79.5301 14.1101C79.7401 13.9401 79.8701 13.7001 80.0101 13.4701V13.4501C80.0101 13.4501 80.0301 13.4301 80.0401 13.4301L80.2301 13.0001C80.2501 12.9201 80.2701 12.8701 80.3101 12.7801C80.3501 12.6901 80.3601 12.6501 80.3901 12.5601C80.4701 12.3601 80.6401 12.1901 80.7501 12.0101L81.1501 11.5301C81.3701 11.3101 81.8601 10.6901 82.1101 10.6901C82.2801 10.6901 82.2701 10.9201 82.2901 11.0901C82.4201 11.9601 82.9801 12.1901 83.7601 11.9101C83.8201 11.8901 83.8801 11.8601 83.9401 11.8201C84.0101 11.7801 84.0301 11.7801 84.0901 11.7301C84.4701 11.5201 84.7401 11.1001 84.9401 10.7201C84.9701 10.6501 84.9801 10.6401 85.0201 10.5601C85.1201 10.3001 85.2401 10.0801 85.3001 9.82008C85.3301 9.66008 85.3901 9.53008 85.4201 9.40008L85.6301 8.09008C85.7601 7.15008 85.6101 5.36008 85.7901 4.67008C85.8301 4.53008 85.8501 4.35008 85.9101 4.21008C85.9901 3.95008 86.3901 3.18008 86.3301 2.98008C86.2601 2.77008 86.1001 3.06008 86.0501 3.13008L85.6501 3.84008C85.4901 4.25008 85.2801 4.61008 85.1401 5.02008L85.0201 5.47008C84.8801 5.93008 84.9601 6.59008 84.9601 7.07008C84.9601 7.49008 84.9201 7.79008 84.9201 8.19008C84.9201 8.77008 84.8301 9.13008 84.6601 9.63008C84.5401 9.99008 84.1401 10.3101 83.7901 10.4201C83.6701 10.4601 83.4701 10.4301 83.3301 10.3801C82.9601 10.2501 82.9001 9.53008 82.8301 9.18008C82.7301 8.69008 82.7101 7.54008 82.7101 7.07008V7.10008Z" fill="#1C1C1C"/>
<path fill-rule="evenodd" clip-rule="evenodd" d="M54.0905 12.9893C53.9005 12.9893 53.8305 13.1293 53.7405 13.2493C53.5105 13.5493 53.0605 13.9093 52.9805 14.2793C53.1205 14.4393 53.1905 14.4193 53.4005 14.5093C53.5205 14.5593 53.6705 14.6693 53.7705 14.7393C54.1705 15.0393 54.2205 15.1293 54.3005 15.4693C54.5305 15.4493 54.8105 15.1093 54.9505 14.9693C55.0705 14.8393 55.2105 14.7093 55.3205 14.5693C55.3705 14.4993 55.4205 14.4393 55.5205 14.4293C55.7005 14.4193 56.1305 14.6893 56.2705 14.8093C56.3705 14.8993 56.5305 15.0393 56.6005 15.1493C56.7305 15.3493 56.6905 15.5093 56.8605 15.4093C56.9305 15.3693 57.9205 14.4993 57.9205 14.1993C57.9205 13.7593 57.1805 13.3493 56.9005 13.1493C56.8305 13.0993 56.8305 13.0793 56.7405 13.0293C56.3605 12.8193 56.2505 13.0993 56.0605 13.3193L55.6705 13.7793C55.4305 14.0893 55.2905 13.7293 55.1505 13.6093C54.9305 13.4193 54.3505 12.9793 54.0905 12.9793V12.9893Z" fill="#1C1C1C"/>
<path fill-rule="evenodd" clip-rule="evenodd" d="M51.8899 5.97916C51.7999 5.97916 50.9299 5.04916 50.4999 5.03916C50.3499 5.03916 50.2299 5.17916 50.1699 5.26916L49.9499 5.52916L49.9299 5.54916C49.7599 5.70916 49.4199 6.07916 49.4199 6.32916C49.4199 6.47916 49.7699 6.50916 50.0899 6.73916C50.2799 6.86916 50.5399 7.04916 50.6499 7.26916C50.6899 7.34916 50.6999 7.43916 50.7399 7.51916C50.9399 7.46916 51.2099 7.16916 51.3599 7.01916C51.4599 6.91916 51.5399 6.84916 51.6299 6.74916C51.7699 6.60916 51.7499 6.49916 51.9899 6.49916C52.2499 6.49916 52.7799 6.93916 52.9599 7.14916C53.0899 7.29916 53.0599 7.35916 53.1399 7.50916C53.3499 7.48916 54.0999 6.69916 54.2499 6.48916C54.5699 6.00916 53.6199 5.39916 53.2499 5.17916C52.9199 4.97916 52.8699 4.95916 52.6299 5.20916L52.1499 5.74916C52.0999 5.81916 51.9899 5.98916 51.8899 5.98916V5.97916Z" fill="#1C1C1C"/>
<path fill-rule="evenodd" clip-rule="evenodd" d="M74.5909 15.46C74.7509 15.44 75.0709 15.09 75.2109 14.96L75.5209 14.63C75.9709 14.1 75.7309 13.96 75.3209 13.57C75.1409 13.4 75.0209 13.34 74.8109 13.2C74.6209 13.08 74.4609 12.88 74.1909 13.02C74.1509 13.05 73.8209 13.42 73.7709 13.48C73.6009 13.7 73.5309 13.83 73.3409 13.93C73.1109 13.81 73.0709 13.63 72.7309 13.39C71.7009 12.69 71.9409 12.9 71.2209 13.66C71.0609 13.83 70.8809 14.04 70.8809 14.26C70.8809 14.42 71.4909 14.52 71.8509 14.88C72.1909 15.22 72.1209 15.27 72.2009 15.44C72.4109 15.32 72.5808 15.18 72.7608 15.01C73.3608 14.41 73.2309 14.24 73.8209 14.57C73.9709 14.65 74.0109 14.69 74.1409 14.79C74.5209 15.09 74.4909 15.2 74.6109 15.44L74.5909 15.46Z" fill="#1C1C1C"/>
<path fill-rule="evenodd" clip-rule="evenodd" d="M71.6113 5.97946C71.4813 5.97946 71.4613 5.87946 71.1813 5.62946C71.0013 5.45946 70.3813 5.02946 70.1913 5.03946C70.0513 5.03946 69.9413 5.18946 69.8613 5.27946C69.6413 5.51946 69.1113 6.08946 69.1113 6.31946C69.1113 6.49946 69.5613 6.51946 69.8913 6.78946C70.2113 7.03946 70.3013 7.20946 70.4613 7.50946C70.6313 7.46946 70.6613 7.38946 70.7713 7.27946C70.9713 7.07946 70.9313 7.16946 71.2013 6.85946L71.2613 6.78946C71.5613 6.46946 71.5313 6.33946 72.0413 6.62946C72.2913 6.76946 72.4813 6.93945 72.6713 7.14945C72.7813 7.26945 72.7913 7.38946 72.8613 7.52946C72.9213 7.48946 72.9713 7.44945 73.0413 7.39945C73.3213 7.18945 73.6113 6.83946 73.8513 6.58946C73.9613 6.47946 74.0613 6.31946 74.0213 6.16946C73.9313 5.85946 73.5013 5.52946 73.2313 5.35946L72.8213 5.09946C72.8213 5.09946 72.7913 5.07946 72.7813 5.07946C72.4713 4.91946 72.6113 4.95946 72.0813 5.46946L71.8713 5.72946C71.7513 5.86946 71.7113 5.97946 71.6113 5.97946V5.97946Z" fill="#1C1C1C"/>
<path fill-rule="evenodd" clip-rule="evenodd" d="M86.6397 6.78948C86.6397 8.35948 86.8597 9.09948 86.6397 10.6795C86.6097 10.9095 86.5597 11.0795 86.5197 11.3095C86.4297 11.8895 86.2597 11.8695 86.4697 12.0695C86.5697 12.0495 86.5797 12.0195 86.6497 11.9495C86.7697 11.8095 86.8797 11.5095 86.9697 11.3295C87.4297 10.4295 87.5497 8.84948 87.5497 7.77948C87.5497 7.33948 87.4797 7.03948 87.4797 6.58948C87.4797 5.94948 87.4697 6.15948 87.5397 5.56948C87.5697 5.34948 87.5797 5.24948 87.5797 4.99948C87.4597 4.97948 87.4397 4.95948 87.3597 5.04948C87.2497 5.16948 87.1197 5.42948 87.0497 5.57948C87.0097 5.65948 87.0097 5.64948 86.9797 5.71948C86.9397 5.79948 86.9197 5.86948 86.8797 5.94948C86.8197 6.05948 86.8097 6.04948 86.7697 6.20948C86.7297 6.37948 86.6397 6.58948 86.6397 6.78948Z" fill="#1C1C1C"/>
<path d="M53.7509 26.2791L50.5209 22.4891V26.2791H49.4709V20.1791C49.4709 19.9991 49.4609 19.8491 49.4309 19.7191C49.4009 19.5991 49.3509 19.4991 49.2709 19.4291C49.1909 19.3591 49.0909 19.3091 48.9609 19.2791C48.8309 19.2491 48.6709 19.2291 48.4609 19.2191V19.0391H50.5109V22.3491L53.6709 19.0391H54.4109L51.4909 22.1091L53.8709 24.9191C54.0409 25.1291 54.2009 25.3091 54.3509 25.4491C54.5009 25.5991 54.6409 25.7091 54.7809 25.7991C54.9209 25.8891 55.0509 25.9591 55.1909 26.0091C55.3209 26.0591 55.4709 26.0791 55.6209 26.0891V26.2591H53.7509V26.2791Z" fill="#1C1C1C"/>
<path d="M61.7312 23.4088C61.7312 24.4588 61.5212 25.2188 61.1012 25.6988C60.6812 26.1788 60.0212 26.4188 59.1112 26.4188C58.2012 26.4188 57.5312 26.1788 57.1012 25.7088C56.6712 25.2288 56.4512 24.4988 56.4512 23.4988V20.1888C56.4512 20.0088 56.4412 19.8588 56.4112 19.7288C56.3812 19.6088 56.3312 19.5088 56.2512 19.4388C56.1712 19.3688 56.0712 19.3088 55.9412 19.2788C55.8112 19.2488 55.6512 19.2288 55.4512 19.2288V19.0488H57.5012V23.5388C57.5012 24.3688 57.6412 24.9788 57.9412 25.3588C58.2312 25.7488 58.6912 25.9388 59.3112 25.9388C59.9312 25.9388 60.4312 25.7288 60.7412 25.3188C61.0512 24.9088 61.2012 24.2688 61.2012 23.4088V19.0488H61.7212V23.4088H61.7312Z" fill="#1C1C1C"/>
<path d="M69.6008 26.3693H69.2108L67.4008 21.1793L65.5908 26.3693H65.1508L63.3508 20.2693C63.1408 19.5693 62.7908 19.2193 62.3008 19.2193V19.0393H64.0408L65.6308 24.3593L67.0708 20.2593C66.9808 19.9293 66.8208 19.6793 66.6108 19.4893C66.4008 19.2993 66.1508 19.2093 65.8708 19.2093V19.0293H67.7408L69.5708 24.3893L71.1408 19.0293H71.7108L69.5808 26.3593L69.6008 26.3693Z" fill="#1C1C1C"/>
<path d="M77.1804 26.2793L76.2204 23.8793H73.4004L72.4504 26.2793H71.9004L74.3304 20.2093C74.4504 19.9293 74.5004 19.7493 74.5004 19.6393C74.5004 19.3593 74.2204 19.2193 73.6604 19.2093V19.0293H75.3804L77.7604 24.9993C77.8404 25.1993 77.9204 25.3693 77.9904 25.5093C78.0704 25.6493 78.1504 25.7593 78.2404 25.8393C78.3304 25.9193 78.4204 25.9893 78.5204 26.0293C78.6204 26.0693 78.7404 26.0893 78.8704 26.0893V26.2593H77.1704L77.1804 26.2793ZM74.8104 20.3493L73.5804 23.4493H76.0404L74.8104 20.3493V20.3493Z" fill="#1C1C1C"/>
<path d="M79.7302 26.2788V20.1788C79.7302 19.9888 79.7102 19.8388 79.6902 19.7188C79.6602 19.5988 79.6102 19.5088 79.5402 19.4388C79.4702 19.3688 79.3702 19.3188 79.2402 19.2888C79.1102 19.2588 78.9402 19.2388 78.7402 19.2288V19.0488H80.7902V26.2888H79.7402L79.7302 26.2788Z" fill="#1C1C1C"/>
<path d="M87.6212 20.6995C87.5612 20.4295 87.5012 20.2195 87.4312 20.0595C87.3612 19.8995 87.2712 19.7795 87.1512 19.6895C87.0312 19.5995 86.8612 19.5495 86.6512 19.5195C86.4412 19.4895 86.1713 19.4795 85.8313 19.4795H85.3112V26.2795H84.2612V19.4795H83.7413C83.5613 19.4795 83.4112 19.4795 83.2812 19.4795C83.1613 19.4795 83.0513 19.4895 82.9613 19.4995C82.8713 19.5095 82.7912 19.5295 82.7312 19.5395C82.6612 19.5595 82.6012 19.5795 82.5412 19.6095C82.3812 19.6895 82.2612 19.8095 82.1812 19.9595C82.1012 20.1195 82.0213 20.3595 81.9613 20.6795H81.7812L81.8712 19.0195H87.7113L87.8013 20.6795H87.6313L87.6212 20.6995Z" fill="#1C1C1C"/>
<path d="M49.9612 29.82L49.6912 29.13H48.8812L48.6112 29.82H48.4512L49.1512 28.08C49.1812 28 49.2012 27.95 49.2012 27.92C49.2012 27.84 49.1212 27.8 48.9612 27.8V27.75H49.4512L50.1312 29.46C50.1512 29.52 50.1812 29.57 50.2012 29.61C50.2212 29.65 50.2512 29.68 50.2712 29.71C50.2912 29.74 50.3212 29.75 50.3512 29.76C50.3812 29.77 50.4112 29.78 50.4512 29.78V29.83H49.9612V29.82ZM49.2812 28.12L48.9312 29.01H49.6412L49.2912 28.12H49.2812Z" fill="#1C1C1C"/>
<path d="M55.1218 29.82V28.07C55.1218 28.02 55.1218 27.97 55.1118 27.94C55.1118 27.91 55.0918 27.88 55.0718 27.86C55.0518 27.84 55.0218 27.83 54.9818 27.82C54.9418 27.82 54.8918 27.8 54.8418 27.8V27.75H55.4318V29.82H55.1318H55.1218Z" fill="#1C1C1C"/>
<path d="M61.7516 29.53C61.8016 29.61 61.8616 29.67 61.9216 29.71C61.9816 29.75 62.0417 29.78 62.1017 29.78V29.83H61.6116L60.9617 28.87H60.7717V29.83H60.4716V28.08C60.4716 28.03 60.4717 27.98 60.4617 27.95C60.4617 27.92 60.4417 27.89 60.4117 27.87C60.3917 27.85 60.3617 27.83 60.3217 27.82C60.2817 27.82 60.2416 27.8 60.1816 27.8V27.75H61.0316C61.2916 27.75 61.4916 27.8 61.6116 27.89C61.7416 27.98 61.8017 28.12 61.8017 28.31C61.8017 28.52 61.7216 28.67 61.5616 28.76C61.5216 28.78 61.4817 28.8 61.4417 28.81C61.4017 28.82 61.3516 28.83 61.2816 28.84L61.7417 29.52L61.7516 29.53ZM60.7816 28.74H60.9316C60.9316 28.74 61.0116 28.74 61.0416 28.74H61.1116C61.1116 28.74 61.1516 28.73 61.1716 28.72C61.3916 28.68 61.5016 28.54 61.5016 28.31C61.5016 28.16 61.4616 28.05 61.3716 27.98C61.2816 27.91 61.1316 27.88 60.9316 27.88C60.9016 27.88 60.8717 27.88 60.8517 27.88C60.8317 27.88 60.8217 27.89 60.8017 27.9C60.7917 27.91 60.7816 27.93 60.7816 27.95C60.7816 27.97 60.7816 28.01 60.7816 28.05V28.74Z" fill="#1C1C1C"/>
<path d="M68.4103 29.85H68.3003L67.7803 28.36L67.2603 29.85H67.1403L66.6203 28.1C66.5603 27.9 66.4603 27.8 66.3203 27.8V27.75H66.8203L67.2803 29.27L67.6903 28.1C67.6603 28.01 67.6203 27.93 67.5603 27.88C67.5003 27.83 67.4303 27.8 67.3503 27.8V27.75H67.8903L68.4103 29.29L68.8603 27.75H69.0203L68.4103 29.85V29.85Z" fill="#1C1C1C"/>
<path d="M75.0102 29.82L74.7302 29.13H73.9202L73.6502 29.82H73.4902L74.1902 28.08C74.2202 28 74.2402 27.95 74.2402 27.92C74.2402 27.84 74.1602 27.8 74.0002 27.8V27.75H74.4902L75.1702 29.46C75.1902 29.52 75.2102 29.57 75.2402 29.61C75.2602 29.65 75.2802 29.68 75.3102 29.71C75.3302 29.73 75.3602 29.75 75.3902 29.76C75.4202 29.77 75.4502 29.78 75.4902 29.78V29.83H75.0002L75.0102 29.82ZM74.3302 28.12L73.9802 29.01H74.6902L74.3402 28.12H74.3302Z" fill="#1C1C1C"/>
<path d="M80.8921 28.8598V29.4798C80.8921 29.5398 80.8921 29.5798 80.9021 29.6198C80.9021 29.6598 80.9221 29.6898 80.9421 29.7098C80.9621 29.7298 80.9921 29.7498 81.0321 29.7598C81.0721 29.7598 81.1221 29.7798 81.1721 29.7798V29.8298H80.5821V28.8798L80.1321 28.1798C80.0821 28.1098 80.0421 28.0498 80.0021 27.9998C79.9621 27.9498 79.9321 27.9098 79.8921 27.8898C79.8621 27.8598 79.8221 27.8398 79.7821 27.8298C79.7421 27.8198 79.7021 27.8098 79.6621 27.8098V27.7598H80.1821L80.7921 28.7098L81.3921 27.7598H81.5721L80.8721 28.8698L80.8921 28.8598Z" fill="#1C1C1C"/>
<path d="M87.0416 27.8298C86.6816 27.8498 86.5016 27.9598 86.5016 28.1598C86.5016 28.2398 86.5317 28.3198 86.6017 28.3798C86.6717 28.4498 86.7917 28.5198 86.9617 28.6098C87.0717 28.6698 87.1617 28.7198 87.2417 28.7698C87.3117 28.8198 87.3716 28.8698 87.4216 28.9298C87.4716 28.9798 87.5017 29.0398 87.5217 29.0998C87.5417 29.1598 87.5517 29.2198 87.5517 29.2898C87.5517 29.3798 87.5316 29.4498 87.5016 29.5298C87.4616 29.5998 87.4217 29.6598 87.3517 29.7198C87.2917 29.7698 87.2117 29.8098 87.1317 29.8398C87.0417 29.8698 86.9517 29.8798 86.8517 29.8798C86.8217 29.8798 86.7916 29.8798 86.7616 29.8798C86.7316 29.8798 86.7017 29.8798 86.6617 29.8698C86.6217 29.8698 86.5816 29.8598 86.5316 29.8498C86.4816 29.8498 86.4216 29.8298 86.3616 29.8098C86.3516 29.8098 86.3317 29.8098 86.3217 29.8098C86.3117 29.8098 86.2916 29.8098 86.2816 29.8098H86.2316L86.1816 29.3198H86.2316C86.2816 29.4698 86.3516 29.5798 86.4516 29.6498C86.5516 29.7298 86.6716 29.7698 86.8116 29.7698C86.8716 29.7698 86.9316 29.7698 86.9816 29.7398C87.0316 29.7198 87.0816 29.6998 87.1216 29.6598C87.1616 29.6298 87.1917 29.5898 87.2117 29.5398C87.2317 29.4898 87.2417 29.4398 87.2417 29.3898C87.2417 29.2998 87.2017 29.2198 87.1317 29.1398C87.0617 29.0698 86.9417 28.9898 86.7717 28.8998C86.5317 28.7798 86.3817 28.6698 86.3217 28.5698C86.2617 28.4798 86.2316 28.3798 86.2316 28.2698C86.2316 28.1798 86.2516 28.0998 86.2916 28.0298C86.3316 27.9598 86.3917 27.8998 86.4617 27.8598C86.4917 27.8398 86.5317 27.8298 86.5717 27.8098C86.6117 27.7998 86.6517 27.7898 86.6917 27.7798C86.7417 27.7798 86.7916 27.7598 86.8416 27.7598C86.9016 27.7598 86.9616 27.7598 87.0316 27.7598V27.8698L87.0416 27.8298Z" fill="#1C1C1C"/>
</svg>
