<svg width="92" height="23" viewBox="0 0 92 23" fill="none" xmlns="http://www.w3.org/2000/svg">
<path d="M0.269531 10.3804C0.329531 10.0604 0.389536 9.73043 0.469536 9.41043C0.879536 7.73043 1.79954 6.36043 3.03954 5.18043C4.76954 3.54043 6.83953 2.47043 9.08953 1.73043C10.9495 1.12043 12.8695 0.780433 14.8295 0.670433C17.5895 0.520433 20.2895 0.790432 22.9395 1.59043C25.0295 2.22043 26.9695 3.14043 28.6695 4.52043C30.0495 5.64043 31.1495 6.97043 31.7695 8.66043C32.1795 9.78043 32.2395 10.9404 32.1695 12.1104C31.9695 15.1604 30.4495 17.4604 28.0795 19.2604C26.2795 20.6204 24.2295 21.4604 22.0395 21.9804C19.4695 22.6004 16.8595 22.7504 14.2295 22.5604C11.9595 22.3904 9.74953 21.9504 7.63953 21.0704C5.67953 20.2604 3.93954 19.1404 2.54954 17.5304C1.32954 16.1104 0.569531 14.4804 0.339531 12.6104C0.339531 12.5604 0.359536 12.4904 0.289536 12.4604V10.3704L0.269531 10.3804ZM0.929535 10.3804C0.849535 10.9804 0.889532 11.5604 0.989532 12.1404C1.26953 13.7104 2.05954 15.0204 3.15954 16.1504C4.78954 17.8304 6.78954 18.8904 8.97954 19.6504C11.0195 20.3504 13.1195 20.7104 15.2695 20.7904C17.6795 20.8904 20.0495 20.6404 22.3795 19.9904C24.4895 19.4004 26.4495 18.5204 28.1795 17.1504C29.4295 16.1604 30.4395 14.9904 31.0595 13.5104C31.4295 12.6304 31.5895 11.7104 31.5495 10.7504C31.5495 10.6604 31.5795 10.5204 31.3895 10.5704C29.3395 11.0604 27.3195 11.6604 25.3595 12.4504C25.2195 12.5104 25.1995 12.5504 25.2595 12.6904C25.5595 13.3504 25.3495 14.0604 24.7495 14.4704C24.3895 14.7104 23.9995 14.8204 23.5695 14.7704C23.4595 14.7604 23.4195 14.7804 23.4195 14.9004C23.3995 15.2504 23.2595 15.5604 23.0095 15.8104C22.5895 16.2204 22.0895 16.4304 21.4895 16.3804C21.4095 16.3804 21.3495 16.3504 21.3095 16.4604C20.9795 17.2804 20.2395 17.6804 19.3795 17.5304C19.3095 17.5204 19.2595 17.5004 19.2095 17.5704C18.7795 18.1104 18.1995 18.1704 17.5795 18.1004C17.1995 18.0604 16.8495 17.9204 16.5095 17.7504C16.4195 17.7004 16.3595 17.6904 16.2595 17.7704C15.2895 18.5604 14.0495 18.3204 13.4295 17.2304C13.3895 17.1504 13.3495 17.1104 13.2495 17.1304C12.4495 17.2704 11.7895 16.9604 11.3795 16.2704C11.3295 16.1904 11.2895 16.1804 11.2095 16.1804C10.3095 16.2604 9.58954 15.7804 9.29954 14.9104C9.26954 14.8104 9.22954 14.7704 9.10954 14.7704C7.97954 14.8204 7.19953 13.8704 7.49953 12.7804C7.53953 12.6504 7.49954 12.6004 7.39954 12.5404C7.15954 12.3904 6.90954 12.2504 6.65954 12.1304C4.83954 11.2704 2.89954 10.8404 0.939537 10.3904L0.929535 10.3804ZM12.3495 5.88043C11.9795 5.98043 11.6595 6.05043 11.3495 6.14043C10.5695 6.39043 9.76953 6.45043 8.95953 6.30043C7.39953 6.01043 5.89953 5.53043 4.42953 4.95043C4.30953 4.90043 4.21954 4.90043 4.11954 4.99043C3.85954 5.24043 3.56953 5.47043 3.30953 5.72043C2.23953 6.78043 1.43953 8.00043 1.05953 9.47043C1.01953 9.63043 1.01954 9.71043 1.21954 9.77043C2.43954 10.1004 3.66954 10.3504 4.86954 10.7604C5.87954 11.1104 6.87953 11.4604 7.76953 12.0704C7.87953 12.1504 7.91953 12.0604 7.98953 12.0104C8.61953 11.5304 9.45953 11.5604 10.0195 12.1104C10.1295 12.2204 10.1895 12.2304 10.3195 12.1504C11.1095 11.7004 12.1395 11.9304 12.6395 12.6604C12.7095 12.7704 12.7795 12.7704 12.8895 12.7404C13.8595 12.5004 14.8395 13.1204 14.9495 14.0604C14.9695 14.2204 14.9195 14.4104 14.9995 14.5204C15.0795 14.6404 15.2995 14.5704 15.4495 14.6104C16.5195 14.8804 17.1095 15.9504 16.7495 16.9904C16.6995 17.1304 16.7295 17.1904 16.8595 17.2404C17.0895 17.3404 17.3195 17.4304 17.5595 17.4704C17.8995 17.5304 18.2395 17.5204 18.5495 17.3404C18.6895 17.2604 18.7695 17.1704 18.6095 17.0104C18.2095 16.6004 17.8295 16.1704 17.4495 15.7404C17.3695 15.6504 17.2795 15.5304 17.3795 15.4104C17.4995 15.2804 17.6195 15.3804 17.7195 15.4504C17.7595 15.4704 17.7895 15.5104 17.8195 15.5304C18.2395 15.8904 18.6395 16.2704 19.0295 16.6604C19.3795 17.0104 19.8695 17.0604 20.2895 16.7904C20.7295 16.5104 20.7795 16.1504 20.4295 15.7604C19.9795 15.2504 19.5195 14.7404 19.0695 14.2304C19.0195 14.1804 18.9795 14.1204 18.9395 14.0604C18.8995 14.0004 18.8995 13.9404 18.9395 13.8804C18.9895 13.8104 19.0595 13.8104 19.1295 13.8204C19.2395 13.8404 19.3195 13.9204 19.3995 13.9904C19.9295 14.4504 20.4295 14.9404 20.9295 15.4404C21.1795 15.6904 21.4595 15.7904 21.7995 15.7304C22.2295 15.6504 22.5995 15.4504 22.7595 15.0104C22.9095 14.6104 22.6795 14.3204 22.4095 14.0504C21.7995 13.4404 21.1895 12.8304 20.5795 12.2204C20.5295 12.1704 20.4795 12.1204 20.4395 12.0604C20.3895 11.9904 20.3595 11.9004 20.4395 11.8204C20.5195 11.7304 20.6095 11.7504 20.6995 11.8004C20.7795 11.8404 20.8395 11.9004 20.9095 11.9604C21.6195 12.5904 22.3295 13.2204 23.0395 13.8604C23.2995 14.0904 23.5895 14.1904 23.9195 14.1304C24.2995 14.0704 24.6195 13.9004 24.7495 13.5204C24.8695 13.1504 24.7395 12.8204 24.4495 12.5704C22.5895 10.9604 20.7395 9.34043 18.8395 7.78043C18.4995 7.50043 18.1595 7.24043 17.7695 7.03043C17.2895 6.78043 16.7995 6.74043 16.2995 6.94043C15.8395 7.12043 15.4295 7.40043 15.0295 7.69043C14.4895 8.08043 14.0095 8.55043 13.3995 8.84043C12.5695 9.24043 11.7395 9.15043 10.9595 8.73043C10.4195 8.44043 10.3695 7.98043 10.7895 7.53043C11.2995 6.98043 11.8095 6.44043 12.3495 5.85043V5.88043ZM17.1395 4.50043C15.3995 4.50043 14.2995 4.93043 13.1795 5.95043C12.5295 6.54043 11.9595 7.20043 11.3695 7.83043C11.0595 8.16043 11.0895 8.26043 11.5095 8.41043C11.5595 8.43043 11.6195 8.45043 11.6795 8.46043C12.2895 8.58043 12.8795 8.54043 13.4095 8.17043C13.6195 8.02043 13.8295 7.88043 14.0295 7.73043C14.5495 7.34043 15.0395 6.90043 15.6095 6.58043C16.5295 6.06043 17.4395 6.04043 18.3295 6.67043C18.6095 6.87043 18.8895 7.06043 19.1495 7.28043C20.9995 8.78043 22.7795 10.3504 24.5795 11.9104C24.6995 12.0204 24.7995 12.0404 24.9595 11.9704C25.9595 11.5304 26.9895 11.1504 28.0295 10.8204C29.0895 10.4804 30.1495 10.1704 31.2395 9.94043C31.4495 9.90043 31.4795 9.81043 31.4195 9.63043C31.3795 9.51043 31.3595 9.39043 31.3295 9.27043C30.8595 7.63043 29.8695 6.35043 28.6195 5.24043C28.4995 5.13043 28.4095 5.12043 28.2595 5.19043C27.0495 5.73043 25.7795 6.09043 24.4495 6.16043C22.8995 6.24043 21.4295 5.89043 20.0195 5.24043C19.0395 4.79043 18.0195 4.51043 17.1595 4.50043H17.1395ZM4.82954 4.48043C5.99954 4.91043 7.14953 5.24043 8.31953 5.55043C9.38953 5.84043 10.4295 5.85043 11.4895 5.48043C11.9495 5.32043 12.4395 5.23043 12.9395 5.21043C13.0695 5.21043 13.1695 5.17043 13.2695 5.09043C14.2295 4.32043 15.3495 3.97043 16.5695 3.90043C17.8595 3.83043 19.0795 4.14043 20.2395 4.68043C22.1995 5.60043 24.2095 5.82043 26.2995 5.24043C26.8395 5.09043 27.3595 4.92043 27.8795 4.68043C27.8395 4.65043 27.8295 4.62043 27.7995 4.61043C27.5595 4.45043 27.3295 4.27043 27.0795 4.12043C24.2295 2.33043 21.0795 1.52043 17.7495 1.29043C16.0695 1.18043 14.3995 1.25043 12.7295 1.50043C10.5295 1.83043 8.42953 2.45043 6.45953 3.48043C5.89953 3.77043 5.35954 4.09043 4.82954 4.48043ZM9.95953 13.3504C9.93953 13.2104 9.91954 13.1204 9.89954 13.0304C9.79954 12.5604 9.35953 12.2204 8.88953 12.2604C8.38953 12.3004 7.98953 12.7104 7.98953 13.2104C7.98953 13.6104 8.15953 13.9104 8.51953 14.0904C8.88953 14.2804 9.24954 14.2304 9.57954 13.9804C9.62954 13.9504 9.65953 13.8604 9.73953 13.9104C9.80953 13.9504 9.81954 14.0304 9.79954 14.1004C9.79954 14.1104 9.79954 14.1304 9.79954 14.1404C9.75954 14.6404 9.87953 15.0804 10.3095 15.3804C10.7295 15.6804 11.1495 15.6904 11.5795 15.4004C11.7395 15.2904 11.8095 15.3504 11.7995 15.5804C11.7795 16.0004 11.9995 16.2604 12.3495 16.4404C12.6995 16.6204 13.0495 16.6804 13.3895 16.4304C13.7495 16.1604 13.7495 16.1604 13.8195 16.6004C13.9195 17.2204 14.4395 17.6504 15.0795 17.6404C15.6795 17.6404 16.1995 17.1804 16.2795 16.5904C16.3695 15.9704 15.9995 15.3904 15.4095 15.2104C15.1095 15.1204 14.8195 15.1604 14.5395 15.2704C14.4695 15.3004 14.3795 15.3404 14.3095 15.2704C14.2295 15.2004 14.2795 15.1104 14.3095 15.0304C14.3695 14.8504 14.4095 14.6704 14.4295 14.4804C14.4795 14.0204 14.2795 13.6304 13.9195 13.4304C13.4695 13.2004 12.9995 13.2304 12.6395 13.5304C12.4495 13.6904 12.3995 13.6704 12.3595 13.4304C12.2995 13.0504 12.1195 12.7504 11.7395 12.6104C11.2495 12.4404 10.7995 12.5204 10.3895 12.8504C10.2295 12.9804 10.1195 13.1404 9.97954 13.3504H9.95953Z" fill="#1C1C1C"/>
<path d="M47.3687 7.46929C47.3687 6.90929 47.3687 6.34929 47.3687 5.79929C47.3687 5.46929 47.3588 5.12929 47.2988 4.79929C47.1388 3.87929 46.6987 3.15929 45.7887 2.82929C44.7187 2.43929 43.6388 2.45929 42.5788 2.85929C42.3988 2.92929 42.2388 3.11929 42.0688 3.11929C41.8888 3.11929 41.7287 2.92929 41.5387 2.84929C40.5787 2.44929 39.5888 2.43929 38.5988 2.69929C37.6488 2.94929 37.0788 3.58929 36.8488 4.52929C36.7788 4.82929 36.7287 5.12929 36.7287 5.42929C36.7287 6.88929 36.7287 8.33929 36.7188 9.79929C36.7188 9.93929 36.7687 9.96929 36.8887 9.96929C37.3887 9.96929 37.8887 9.95929 38.3887 9.96929C38.5587 9.96929 38.5887 9.92929 38.5887 9.75929C38.5887 8.60929 38.5887 7.46929 38.5887 6.31929C38.5887 5.95929 38.5887 5.59929 38.5887 5.22929C38.5987 4.67929 38.8588 4.32929 39.3188 4.19929C39.9388 4.01929 40.6187 4.17929 40.8987 4.57929C40.9787 4.68929 41.0287 4.81929 41.0587 4.95929C41.0987 5.10929 41.1087 5.25929 41.1087 5.40929C41.1087 6.85929 41.1087 8.30929 41.1087 9.75929C41.1087 9.91929 41.1387 9.96929 41.3087 9.96929C41.7987 9.95929 42.2788 9.95929 42.7688 9.96929C42.9488 9.96929 42.9787 9.90929 42.9787 9.74929C42.9787 8.41929 42.9787 7.09929 42.9787 5.76929C42.9787 5.56929 42.9787 5.37929 42.9787 5.17929C43.0087 4.65929 43.2787 4.32929 43.7887 4.21929C44.0787 4.15929 44.3787 4.15929 44.6787 4.21929C45.1387 4.32929 45.3987 4.61929 45.4688 5.08929C45.4887 5.22929 45.4987 5.35929 45.4987 5.49929C45.4987 6.66929 45.4987 7.84929 45.4987 9.01929C45.4987 9.65929 45.7987 9.95929 46.4487 9.96929C46.6787 9.96929 46.9187 9.95929 47.1487 9.96929C47.3287 9.97929 47.3788 9.92929 47.3788 9.74929C47.3688 8.97929 47.3788 8.20929 47.3788 7.44929L47.3687 7.46929ZM67.2487 5.20929C67.4987 5.20929 67.7388 5.18929 67.9888 5.20929C68.1888 5.22929 68.2287 5.15929 68.1987 4.96929C68.0487 3.96929 67.4988 3.26929 66.5988 2.84929C65.8788 2.50929 65.1088 2.41929 64.3288 2.50929C63.1288 2.63929 62.1888 3.18929 61.6288 4.26929C61.0388 5.39929 60.9688 6.58929 61.3788 7.77929C61.7288 8.78929 62.4288 9.47929 63.4388 9.83929C64.0188 10.0393 64.6087 10.0893 65.2188 10.0393C66.8787 9.89929 67.9688 8.90929 68.2388 7.27929C68.2588 7.14929 68.2387 7.11929 68.1087 7.11929C67.6187 7.11929 67.1387 7.12929 66.6487 7.11929C66.4287 7.11929 66.3387 7.15929 66.2787 7.39929C66.1187 8.13929 65.6387 8.52929 64.8987 8.58929C64.2287 8.64929 63.6688 8.29929 63.3788 7.65929C63.2288 7.32929 63.1588 6.96929 63.1288 6.60929C63.0888 5.90929 63.1588 5.22929 63.5688 4.63929C63.9588 4.06929 64.5187 3.90929 65.1687 4.01929C65.7787 4.11929 66.1188 4.49929 66.2388 5.08929C66.2588 5.19929 66.3088 5.22929 66.4088 5.21929C66.6888 5.21929 66.9588 5.21929 67.2388 5.21929L67.2487 5.20929ZM50.7787 15.9693V11.6393C50.7787 11.266 50.5888 11.0926 50.2088 11.1193C49.6188 11.1593 48.9287 11.8393 48.9287 12.3893C48.9287 15.1393 48.9287 17.8993 48.9287 20.6493C48.9287 20.7893 48.9688 20.8193 49.0988 20.8193C49.5888 20.8193 50.0687 20.8093 50.5587 20.8193C50.7387 20.8193 50.7887 20.7693 50.7787 20.5893C50.7787 19.0493 50.7787 17.4993 50.7787 15.9593V15.9693ZM64.3687 18.4893C64.3687 19.2793 64.3687 19.9393 64.3687 20.5993C64.3687 20.7493 64.3987 20.7993 64.5587 20.7993C65.0487 20.7893 65.5487 20.7993 66.0387 20.7993C66.1987 20.7993 66.2487 20.7693 66.2487 20.5993C66.2387 20.0793 66.2487 19.5593 66.2487 19.0293C66.2487 18.2493 66.2388 17.4793 66.2688 16.6993C66.3088 15.7893 66.8487 15.2793 67.7487 15.2493C67.9887 15.2493 68.2288 15.2393 68.4688 15.2493C68.5787 15.2493 68.6187 15.2193 68.6187 15.0993C68.6187 14.5593 68.6187 14.0093 68.6187 13.4693C68.6187 13.3493 68.5688 13.3293 68.4688 13.3293C68.1887 13.3293 67.9187 13.3293 67.6387 13.3393C65.7587 13.4493 64.6687 14.4693 64.4287 16.3393C64.3287 17.0993 64.4088 17.8593 64.3788 18.4893H64.3687ZM56.4187 7.79929C56.4187 8.53929 56.4187 9.15929 56.4187 9.76929C56.4187 9.93929 56.4487 10.0093 56.6387 9.99929C57.1287 9.98929 57.6088 9.98929 58.0988 9.99929C58.2688 9.99929 58.2988 9.95929 58.2988 9.79929C58.2988 8.63929 58.2988 7.47929 58.2988 6.31929C58.2988 6.12929 58.3087 5.92929 58.3387 5.73929C58.4387 4.95929 58.9587 4.49929 59.7487 4.46929C59.9987 4.46929 60.2587 4.44929 60.5087 4.46929C60.6487 4.46929 60.6787 4.41929 60.6787 4.28929C60.6787 3.75929 60.6787 3.22929 60.6787 2.69929C60.6787 2.56929 60.6288 2.53929 60.5188 2.53929C60.1088 2.53929 59.7088 2.53929 59.2988 2.58929C58.1088 2.76929 57.2087 3.32929 56.7487 4.47929C56.5887 4.88929 56.4988 5.30929 56.4588 5.74929C56.3888 6.46929 56.4487 7.19929 56.4287 7.79929H56.4187ZM54.6087 17.2293C54.6087 16.0993 54.6087 14.9693 54.6087 13.8393C54.6087 13.6893 54.5787 13.6393 54.4187 13.6393C53.9287 13.6493 53.4288 13.6493 52.9388 13.6393C52.7888 13.6393 52.7487 13.6793 52.7487 13.8293C52.7487 16.0893 52.7487 18.3493 52.7487 20.6093C52.7487 20.7593 52.7787 20.8193 52.9487 20.8193C53.4387 20.8093 53.9188 20.8093 54.4088 20.8193C54.5788 20.8193 54.6087 20.7793 54.6087 20.6093C54.6087 19.4793 54.6087 18.3493 54.6087 17.2193V17.2293ZM53.6987 11.1193C53.4287 11.1193 53.1587 11.1193 52.8887 11.1193C52.7887 11.1193 52.7487 11.1493 52.7487 11.2493C52.7487 11.7193 52.7487 12.1893 52.7487 12.6593C52.7487 12.7693 52.7887 12.7893 52.8887 12.7893C53.4087 12.7893 53.9388 12.7893 54.4588 12.7893C54.5688 12.7893 54.6087 12.7493 54.6087 12.6393C54.6087 12.1793 54.6087 11.7093 54.6087 11.2493C54.6087 11.1293 54.5588 11.1093 54.4588 11.1093C54.2088 11.1093 53.9487 11.1093 53.6987 11.1093V11.1193ZM52.7487 6.75929C51.9587 6.75929 51.1688 6.75929 50.3788 6.75929C50.2088 6.75929 50.1588 6.79929 50.1888 6.96929C50.2088 7.06929 50.2188 7.16929 50.2388 7.26929C50.3988 8.03929 50.7988 8.42929 51.5688 8.54929C52.3688 8.67929 53.0888 8.36929 53.4388 7.74929C53.4788 7.66929 53.5287 7.64929 53.6087 7.64929C54.0987 7.64929 54.5788 7.64929 55.0688 7.64929C55.1788 7.64929 55.1987 7.66929 55.1687 7.78929C54.7987 9.02929 53.7688 9.86929 52.4588 10.0093C51.6088 10.0993 50.7787 10.0293 50.0087 9.61929C48.9587 9.05929 48.4387 8.12929 48.2587 6.98929C48.1387 6.19929 48.2088 5.42929 48.5188 4.68929C49.1088 3.25929 50.6187 2.40929 52.1787 2.53929C53.8187 2.67929 54.9688 3.84929 55.2688 5.52929C55.3288 5.86929 55.3488 6.20929 55.3488 6.54929C55.3488 6.71929 55.3087 6.78929 55.1187 6.77929C54.3287 6.76929 53.5387 6.77929 52.7487 6.77929V6.75929ZM51.7688 5.50929H52.9888C53.3988 5.50929 53.3988 5.50929 53.2688 5.10929C53.1388 4.68929 52.9488 4.29929 52.5188 4.12929C51.6788 3.78929 50.4087 4.01929 50.1987 5.33929C50.1787 5.46929 50.1987 5.51929 50.3387 5.50929C50.8187 5.50929 51.2987 5.50929 51.7787 5.50929H51.7688Z" fill="#1C1C1C"/>
<path d="M91.799 6.84973C91.709 7.01973 91.719 7.20973 91.669 7.38973C91.309 8.88973 90.109 9.90973 88.559 10.0297C87.739 10.0997 86.949 10.0297 86.209 9.64973C85.049 9.05973 84.479 8.05973 84.349 6.79973C84.269 6.06973 84.329 5.34973 84.609 4.65973C85.129 3.35973 86.129 2.67973 87.499 2.49973C88.249 2.39973 88.979 2.46973 89.679 2.76973C90.919 3.29973 91.559 4.27973 91.759 5.57973C91.759 5.62973 91.739 5.68973 91.799 5.70973V6.83973V6.84973ZM89.809 6.26973C89.809 5.93973 89.779 5.61973 89.699 5.29973C89.499 4.49973 88.929 3.99973 88.159 3.96973C87.309 3.93973 86.709 4.33973 86.459 5.15973C86.229 5.91973 86.229 6.68973 86.479 7.43973C86.719 8.17973 87.279 8.57973 88.049 8.57973C88.819 8.57973 89.359 8.19973 89.629 7.45973C89.769 7.06973 89.799 6.66973 89.809 6.26973V6.26973Z" fill="#1C1C1C"/>
<path d="M47.3702 7.46913C47.3702 8.23913 47.3702 9.00913 47.3702 9.76913C47.3702 9.95913 47.3102 9.99913 47.1402 9.98913C46.9102 9.97913 46.6802 9.98913 46.4402 9.98913C45.8002 9.97913 45.4902 9.67913 45.4902 9.03913C45.4902 7.86913 45.4902 6.68913 45.4902 5.51913C45.4902 5.37913 45.4802 5.23913 45.4602 5.10913C45.3902 4.63913 45.1302 4.34913 44.6702 4.23913C44.3802 4.16913 44.0802 4.16913 43.7802 4.23913C43.2702 4.34913 43.0002 4.67913 42.9702 5.19913C42.9602 5.39913 42.9702 5.58913 42.9702 5.78913C42.9702 7.11913 42.9702 8.43913 42.9702 9.76913C42.9702 9.92913 42.9402 9.99913 42.7602 9.98913C42.2702 9.97913 41.7902 9.97913 41.3002 9.98913C41.1302 9.98913 41.1002 9.93913 41.1002 9.77913C41.1002 8.32913 41.1002 6.87913 41.1002 5.42913C41.1002 5.27913 41.0902 5.12913 41.0502 4.97913C41.0202 4.84913 40.9702 4.71913 40.8902 4.59913C40.6102 4.20913 39.9302 4.04913 39.3102 4.21913C38.8402 4.34913 38.5902 4.69913 38.5802 5.24913C38.5802 5.60913 38.5802 5.96913 38.5802 6.33913C38.5802 7.48913 38.5802 8.62913 38.5802 9.77913C38.5802 9.93913 38.5402 9.98913 38.3802 9.98913C37.8802 9.97913 37.3802 9.98913 36.8802 9.98913C36.7502 9.98913 36.7002 9.95913 36.7102 9.81913C36.7102 8.35913 36.7102 6.90913 36.7202 5.44913C36.7202 5.14913 36.7702 4.83913 36.8402 4.54913C37.0802 3.60913 37.6502 2.96913 38.5902 2.71913C39.5802 2.45913 40.5702 2.46913 41.5302 2.86913C41.7102 2.94913 41.8802 3.12913 42.0602 3.13913C42.2302 3.13913 42.3902 2.94913 42.5702 2.87913C43.6402 2.47913 44.7202 2.45913 45.7802 2.84913C46.6802 3.17913 47.1302 3.89913 47.2902 4.81913C47.3502 5.14913 47.3602 5.47913 47.3602 5.81913C47.3602 6.37913 47.3602 6.93913 47.3602 7.48913L47.3702 7.46913Z" fill="#1C1C1C"/>
<path d="M67.2591 5.19976C66.9791 5.19976 66.7091 5.19976 66.4291 5.19976C66.3291 5.19976 66.2791 5.17976 66.2591 5.06976C66.1391 4.47976 65.7992 4.09976 65.1892 3.99976C64.5392 3.88976 63.9791 4.04976 63.5891 4.61976C63.1791 5.21976 63.1091 5.89976 63.1491 6.58976C63.1691 6.94976 63.2391 7.30976 63.3991 7.63976C63.6891 8.28976 64.2492 8.62976 64.9192 8.56976C65.6692 8.50976 66.1392 8.11976 66.2992 7.37976C66.3492 7.13976 66.4492 7.08976 66.6692 7.09976C67.1592 7.11976 67.6392 7.09976 68.1292 7.09976C68.2592 7.09976 68.2891 7.12976 68.2591 7.25976C67.9891 8.88976 66.8992 9.87976 65.2392 10.0198C64.6292 10.0698 64.0392 10.0198 63.4592 9.81976C62.4492 9.45976 61.7391 8.76976 61.3991 7.75976C60.9891 6.55976 61.0691 5.36976 61.6491 4.24976C62.2091 3.16976 63.1492 2.61976 64.3492 2.48976C65.1392 2.39976 65.8991 2.48976 66.6191 2.82976C67.5191 3.24976 68.0692 3.94976 68.2192 4.94976C68.2492 5.13976 68.2091 5.20976 68.0091 5.18976C67.7591 5.16976 67.5192 5.18976 67.2692 5.18976L67.2591 5.19976Z" fill="#1C1C1C"/>
<path d="M50.7797 15.9599C50.7797 17.4999 50.7797 19.0499 50.7797 20.5899C50.7797 20.7699 50.7397 20.8199 50.5597 20.8199C50.0697 20.8099 49.5897 20.8199 49.0997 20.8199C48.9697 20.8199 48.9297 20.7899 48.9297 20.6499C48.9297 17.8999 48.9297 15.1399 48.9297 12.3899C48.9297 11.8399 49.6197 11.1699 50.2097 11.1199C50.5897 11.0932 50.7797 11.2665 50.7797 11.6399V15.9699V15.9599Z" fill="#1C1C1C"/>
<path d="M64.3694 18.4803C64.3994 17.8503 64.3194 17.0903 64.4194 16.3303C64.6594 14.4703 65.7594 13.4403 67.6294 13.3303C67.9094 13.3103 68.1794 13.3303 68.4594 13.3203C68.5694 13.3203 68.6094 13.3403 68.6094 13.4603C68.6094 14.0003 68.6094 14.5503 68.6094 15.0903C68.6094 15.2003 68.5794 15.2403 68.4594 15.2403C68.2194 15.2403 67.9794 15.2403 67.7394 15.2403C66.8294 15.2703 66.2894 15.7703 66.2594 16.6903C66.2294 17.4603 66.2494 18.2403 66.2394 19.0203C66.2394 19.5403 66.2394 20.0603 66.2394 20.5903C66.2394 20.7603 66.1894 20.8003 66.0294 20.7903C65.5394 20.7903 65.0394 20.7903 64.5494 20.7903C64.3894 20.7903 64.3594 20.7403 64.3594 20.5903C64.3594 19.9303 64.3594 19.2703 64.3594 18.4803H64.3694Z" fill="#1C1C1C"/>
<path d="M56.4202 7.7893C56.4402 7.1893 56.3901 6.4693 56.4501 5.7393C56.4901 5.3093 56.5702 4.8793 56.7402 4.4693C57.2002 3.3093 58.1001 2.7593 59.2901 2.5793C59.6901 2.5193 60.1001 2.5393 60.5101 2.5293C60.6301 2.5293 60.6802 2.5593 60.6702 2.6893C60.6702 3.2193 60.6702 3.7493 60.6702 4.2793C60.6702 4.4093 60.6402 4.4593 60.5002 4.4593C60.2502 4.4593 59.9902 4.4593 59.7402 4.4593C58.9502 4.4793 58.4402 4.9393 58.3302 5.7293C58.3002 5.9193 58.2901 6.1193 58.2901 6.3093C58.2901 7.4693 58.2901 8.6293 58.2901 9.7893C58.2901 9.9493 58.2501 9.9993 58.0901 9.9893C57.6001 9.9793 57.1202 9.9793 56.6302 9.9893C56.4402 9.9893 56.4102 9.9293 56.4102 9.7593C56.4202 9.1393 56.4102 8.5293 56.4102 7.7893H56.4202Z" fill="#1C1C1C"/>
<path d="M54.61 17.2199C54.61 18.3499 54.61 19.4799 54.61 20.6099C54.61 20.7699 54.57 20.8199 54.41 20.8199C53.92 20.8099 53.44 20.8099 52.95 20.8199C52.78 20.8199 52.75 20.7599 52.75 20.6099C52.75 18.3499 52.75 16.0899 52.75 13.8299C52.75 13.6799 52.79 13.6299 52.94 13.6399C53.43 13.6399 53.93 13.6499 54.42 13.6399C54.58 13.6399 54.61 13.6899 54.61 13.8399C54.61 14.9699 54.61 16.0999 54.61 17.2299V17.2199Z" fill="#1C1C1C"/>
<path d="M53.7 11.1094C53.95 11.1094 54.21 11.1094 54.46 11.1094C54.57 11.1094 54.62 11.1294 54.61 11.2494C54.61 11.7094 54.61 12.1794 54.61 12.6394C54.61 12.7494 54.57 12.7894 54.46 12.7894C53.94 12.7894 53.41 12.7894 52.89 12.7894C52.79 12.7894 52.75 12.7694 52.75 12.6594C52.75 12.1894 52.75 11.7194 52.75 11.2494C52.75 11.1394 52.78 11.1094 52.89 11.1194C53.16 11.1194 53.43 11.1194 53.7 11.1194V11.1094Z" fill="#1C1C1C"/>
<path d="M75.2494 5.94883C75.2394 6.39883 75.2894 6.95883 75.2194 7.50883C75.0694 8.76883 74.3594 9.54883 73.1394 9.86883C72.3394 10.0788 71.5394 10.1588 70.7294 9.94883C69.2494 9.55883 68.5794 7.90883 69.3494 6.58883C69.6694 6.03883 70.1994 5.77883 70.7794 5.59883C71.3494 5.42883 71.9394 5.39883 72.5094 5.29883C72.7494 5.25883 72.9794 5.19883 73.1794 5.05883C73.5194 4.81883 73.5094 4.35883 73.1394 4.18883C72.5994 3.92883 72.0394 3.89883 71.4794 4.17883C71.2594 4.28883 71.1194 4.48883 71.0294 4.71883C70.9994 4.80883 70.9494 4.85883 70.8494 4.85883C70.3794 4.85883 69.9094 4.85883 69.4294 4.85883C69.2994 4.85883 69.2594 4.81883 69.2794 4.67883C69.3894 3.44883 70.0294 2.75883 71.2794 2.56883C72.1594 2.43883 73.0294 2.45883 73.8794 2.74883C74.7894 3.04883 75.2194 3.65883 75.2294 4.61883C75.2294 5.03883 75.2294 5.45883 75.2294 5.97883L75.2494 5.94883ZM73.4594 6.31883C73.1594 6.40883 72.8694 6.49883 72.5794 6.54883C72.2794 6.60883 71.9794 6.66883 71.6894 6.73883C71.4694 6.79883 71.2694 6.89883 71.1094 7.06883C70.6994 7.49883 70.8494 8.26883 71.3694 8.47883C72.1494 8.77883 73.1094 8.30883 73.3594 7.51883C73.4794 7.12883 73.4294 6.72883 73.4494 6.31883H73.4594Z" fill="#1C1C1C"/>
<path d="M83.1688 0.199687C83.1688 2.37969 83.1688 4.55969 83.1688 6.73969C83.1688 7.17969 83.1288 7.61969 83.0088 8.04969C82.7488 8.98969 82.1388 9.60969 81.2088 9.87969C80.3288 10.1397 79.4288 10.1497 78.5388 9.91969C77.5188 9.64969 76.8288 9.00969 76.5388 7.99969C76.1788 6.75969 76.1988 5.49969 76.6388 4.27969C77.1988 2.72969 79.1388 2.03969 80.5288 2.85969C80.6888 2.94969 80.8288 3.05969 80.9588 3.18969C81.0788 3.31969 81.1888 3.45969 81.3388 3.62969C81.3388 3.40969 81.3388 3.21969 81.3388 3.02969C81.3388 2.45969 81.3388 1.89969 81.3388 1.32969C81.3388 1.15969 81.3888 1.03969 81.4988 0.919688C81.8488 0.539688 82.2988 0.339688 82.7988 0.229688C82.8388 0.229688 82.8888 0.239687 82.9088 0.179688H83.1688V0.199687ZM81.3388 6.34969C81.3288 5.95969 81.2888 5.57969 81.1688 5.19969C80.9488 4.53969 80.5088 4.20969 79.8388 4.18969C79.1288 4.16969 78.6588 4.47969 78.4288 5.13969C78.1488 5.93969 78.1388 6.74969 78.3988 7.54969C78.5988 8.17969 79.0588 8.48969 79.6988 8.50969C80.4188 8.52969 80.8888 8.22969 81.1388 7.60969C81.2988 7.20969 81.3388 6.77969 81.3488 6.34969H81.3388Z" fill="#1C1C1C"/>
<path d="M76.0803 18.4205C75.7503 19.4405 75.1903 20.2305 74.1503 20.5805C73.2403 20.8905 72.3303 20.9005 71.4103 20.6105C70.4303 20.3005 69.7503 19.6505 69.3803 18.7005C68.9703 17.6505 68.9603 16.5905 69.3603 15.5405C69.9203 14.0805 71.4003 13.2105 72.9703 13.3105C74.7503 13.4205 75.8803 14.7005 76.1503 16.3705C76.2003 16.6905 76.2103 17.0205 76.2203 17.3405C76.2203 17.5005 76.1803 17.5605 76.0003 17.5605C74.4203 17.5605 72.8503 17.5605 71.2703 17.5505C71.0603 17.5505 71.0303 17.6205 71.0603 17.7905C71.1003 17.9705 71.1203 18.1605 71.1803 18.3405C71.3403 18.8205 71.6603 19.1405 72.1603 19.2705C72.8203 19.4305 73.4603 19.3905 74.0003 18.9205C74.0803 18.8505 74.1903 18.7705 74.2203 18.6805C74.3103 18.4005 74.5103 18.4205 74.7403 18.4205C75.1803 18.4205 75.6203 18.4205 76.0803 18.4205V18.4205ZM74.2403 16.2805C74.1803 15.9405 74.0803 15.6305 73.8903 15.3405C73.7603 15.1505 73.6103 14.9905 73.3903 14.9105C72.5703 14.5905 71.3003 14.7805 71.0703 16.1005C71.0403 16.2505 71.0703 16.3005 71.2303 16.3005C72.1803 16.3005 73.1303 16.3005 74.0803 16.3005C74.1303 16.3005 74.1803 16.3005 74.2403 16.2905V16.2805Z" fill="#1C1C1C"/>
<path d="M58.2799 14.3194C58.9099 13.4594 59.7499 13.1694 60.7599 13.2994C61.7899 13.4294 62.5599 13.9594 62.9299 14.9494C63.4099 16.2294 63.4399 17.5494 63.0199 18.8494C62.6299 20.0494 61.6999 20.6094 60.4899 20.7694C59.8199 20.8594 59.1599 20.8294 58.4999 20.6494C57.3399 20.3394 56.6999 19.5594 56.4899 18.3894C56.4299 18.0694 56.4199 17.7394 56.4199 17.4194C56.4199 15.6894 56.4199 13.9594 56.4199 12.2294C56.4199 12.0694 56.4699 11.9394 56.5699 11.8094C56.9799 11.2994 57.5199 11.1094 58.1599 11.1094C58.3299 11.1094 58.2799 11.2194 58.2799 11.2994C58.2799 12.2294 58.2799 13.1694 58.2799 14.0994C58.2799 14.1694 58.2799 14.2394 58.2799 14.3094V14.3194ZM61.3899 17.0994C61.3899 16.6194 61.3199 16.1494 61.1799 15.7994C60.9399 15.2094 60.4899 14.9094 59.8499 14.9094C59.2199 14.9094 58.7499 15.1794 58.5199 15.7794C58.1999 16.6294 58.1799 17.4994 58.4799 18.3494C58.6799 18.9194 59.1099 19.2194 59.7199 19.2394C60.3499 19.2694 60.8599 19.0494 61.1399 18.4494C61.3399 18.0194 61.3899 17.5594 61.3999 17.0994H61.3899Z" fill="#1C1C1C"/>
</svg>
