<svg width="47" height="35" viewBox="0 0 47 35" fill="none" xmlns="http://www.w3.org/2000/svg">
<g clip-path="url(#clip0_2165_16413)">
<path d="M15.5675 18.568C14.9001 18.3475 14.2538 18.1691 13.6341 17.9276C11.5312 17.1139 9.7885 15.8224 8.52782 13.943C8.33713 13.6595 8.18351 13.3393 8.07757 13.0191C7.78094 12.0951 8.25767 11.4284 9.23761 11.3601C9.84676 11.3182 10.4347 11.4021 11.0227 11.5701C11.5259 11.7119 12.045 11.8169 12.6277 11.8379C12.241 11.3129 11.8755 10.7617 11.457 10.2577C10.4771 9.07126 10.0004 7.66958 9.93681 6.18916C9.83087 3.75328 11.563 2.25185 13.7241 2.09961C15.451 1.97887 16.8282 2.69283 18.0677 3.77428C19.0476 4.62999 19.7733 5.70618 20.5466 6.74038C20.642 6.86637 20.732 6.99762 20.8168 7.11311C21.2299 5.94242 21.5954 4.77698 22.051 3.65353C22.8031 1.81088 24.1592 0.519442 26.1349 0.136211C29.6203 -0.541005 32.2265 1.4329 32.3854 4.88197C32.4542 6.3204 32.0887 7.65384 31.6067 8.97677C31.559 9.10276 31.5114 9.22351 31.4213 9.4545C32.0728 9.16576 32.6343 8.92427 33.1958 8.67228C33.4712 8.55154 33.7414 8.4203 34.0115 8.2838C34.8802 7.83758 35.8072 7.71683 36.7765 7.76408C38.1273 7.82183 38.6623 8.87177 38.5722 9.91647C38.4186 11.7014 37.4863 13.0873 36.1409 14.2528C35.2192 15.0507 34.2234 15.6912 33.1269 16.2057C33.0051 16.2634 32.8886 16.3317 32.6873 16.4366C33.1057 16.5101 33.4395 16.5521 33.7679 16.6309C34.287 16.7516 34.4724 17.1139 34.1757 17.5548C33.9374 17.9118 33.6354 18.2583 33.2805 18.4998C31.2147 19.9225 28.9529 20.8412 26.3892 20.6259C25.4516 20.5472 24.6518 20.6417 23.799 21.0407C22.7661 21.5289 21.6113 21.4134 20.5096 21.3137C19.5243 21.2244 18.5497 20.9829 17.5803 20.7782C17.2678 20.7152 16.9553 20.5944 16.664 20.4579C15.7688 20.038 15.4933 19.5655 15.5675 18.568M32.3006 18.1061C31.9828 18.0011 31.8133 17.9328 31.6438 17.8961C31.1724 17.7911 30.6903 17.7123 30.2189 17.5968C30.0229 17.5496 29.8216 17.4603 29.6521 17.3448C29.3661 17.1454 29.3131 16.8776 29.5621 16.6414C29.8057 16.4104 30.113 16.2267 30.4202 16.0797C31.5484 15.5389 32.7032 15.0612 33.8102 14.489C34.377 14.195 34.9014 13.7908 35.3729 13.3603C35.8708 12.9088 36.2151 12.3366 36.4322 11.6856C36.6918 10.9034 36.0773 10.032 35.2775 10.1632C34.9173 10.221 34.5359 10.2682 34.2075 10.4099C33.2329 10.8352 32.2794 11.3182 31.3101 11.7591C30.7433 12.0164 30.1659 12.2684 29.5727 12.4573C29.2072 12.5728 28.7675 12.6253 28.455 12.2999C28.1425 11.9744 28.2431 11.5754 28.3703 11.1974C28.4709 10.8929 28.5927 10.5937 28.6987 10.2892C29.0906 9.16051 29.525 8.04232 29.8534 6.89787C30.1236 5.95817 29.9964 5.02897 29.3555 4.22576C28.4603 3.10231 26.1773 2.78208 25.0755 4.03152C24.7418 4.4095 24.3816 4.80323 24.1857 5.24945C23.7937 6.15241 23.5023 7.09736 23.1792 8.03182C22.9832 8.59879 22.8349 9.17626 22.623 9.73273C22.2046 10.8299 21.2299 11.0504 20.3771 10.2472C20.16 10.0425 19.9481 9.82723 19.7627 9.59099C19.0635 8.70378 18.3802 7.80608 17.6757 6.92412C17.0189 6.09466 16.2508 5.4332 15.1808 5.14971C13.6394 4.74023 12.1298 6.10516 12.3999 7.67483C12.5482 8.54629 12.919 9.297 13.4593 9.96372C14.2168 10.8929 15.0166 11.7854 15.7953 12.6988C15.9436 12.8721 16.1131 13.0401 16.219 13.2396C16.5262 13.8013 16.272 14.258 15.6311 14.2948C15.3821 14.3105 15.1172 14.2948 14.8736 14.237C13.6765 13.9798 12.4794 13.7068 11.2822 13.439C11.1021 13.397 10.9167 13.3446 10.7367 13.3498C10.244 13.3708 10.0375 13.6753 10.1858 14.1373C10.3712 14.7252 10.7367 15.1925 11.2134 15.5809C11.955 16.1847 12.7654 16.6676 13.703 16.9144C14.7306 17.1874 15.7635 17.4446 16.7911 17.7071C17.146 17.8016 17.5221 17.8541 17.8558 18.0011C18.3484 18.2163 18.4067 18.5733 18.0677 18.9933C17.914 19.1823 17.7604 19.3765 17.5433 19.6495C17.877 19.8542 18.1259 20.0905 18.412 20.164C19.4661 20.4212 20.5307 20.6574 21.6325 20.6102C22.284 20.5787 22.8667 20.3897 23.3328 19.933C23.8202 19.4552 24.3552 19.2715 25.0385 19.4657C26.5163 19.891 28.0048 19.9067 29.4932 19.4972C30.4573 19.2295 31.3736 18.8725 32.29 18.1113" fill="#1C1C1C"/>
<path d="M46.947 33.8352H45.0613C45.0454 33.5675 45.0189 33.326 45.0136 33.0793C45.0083 32.0241 45.0136 30.9636 45.003 29.9084C45.003 29.268 44.7911 28.6852 44.4204 28.1708C43.7318 27.2206 42.3228 27.0998 41.4911 27.924C40.7496 28.659 40.5165 29.5777 40.6648 30.5751C40.7337 31.0424 40.8555 31.5411 41.1045 31.9348C41.6818 32.8483 42.6088 33.011 43.6152 32.8378C43.9277 32.7853 44.2297 32.675 44.5422 32.591C44.6905 33.3365 44.6746 33.3575 44.1184 33.6567C42.7359 34.397 40.7284 33.83 39.7325 32.8955C38.6149 31.8508 38.1858 29.8769 39.1234 28.4805C39.4359 28.0185 39.865 27.5775 40.3417 27.2836C41.989 26.2704 44.0443 26.2546 45.5751 27.3781C46.4809 28.0448 46.9894 28.9425 47.0053 30.0817C47.0159 31.1159 47.0053 32.1501 47.0053 33.1843C47.0053 33.3838 46.9735 33.5832 46.9576 33.83" fill="#1C1C1C"/>
<path d="M15.4621 32.585C15.5522 33.3777 15.5469 33.3987 14.9695 33.677C14.1855 34.055 13.3751 34.076 12.5329 33.8975C11.0179 33.5772 9.80494 32.3488 9.61425 30.9261C9.3547 28.9575 10.1492 27.624 12.0456 26.8891C13.4175 26.3536 14.7735 26.4113 16.066 27.1148C17.2313 27.75 17.8563 28.7527 17.8828 30.0809C17.904 31.1151 17.8881 32.1493 17.8828 33.1835C17.8828 33.383 17.8563 33.5825 17.8404 33.803C17.2048 33.9605 16.6168 33.866 15.9547 33.866C15.9335 33.5982 15.9018 33.3777 15.9018 33.1573C15.8965 32.0758 15.8912 30.9944 15.9018 29.9182C15.9018 29.4457 15.8011 29.0047 15.5892 28.59C15.2184 27.8603 14.657 27.4193 13.7883 27.4035C12.8931 27.393 12.2945 27.813 11.9078 28.5742C11.4788 29.4194 11.4841 30.3224 11.7118 31.1991C12.0509 32.5273 13.105 33.1205 14.4822 32.8423C14.7947 32.7793 15.1019 32.6743 15.4568 32.5798" fill="#1C1C1C"/>
<path d="M1.87568 33.8458H0.0588204C0.0376325 33.6043 0.00585067 33.389 0.00585067 33.1685C0.00585067 32.0661 0.0164446 30.9636 0.000553706 29.8612C-0.0206342 28.6328 0.567329 27.6983 1.57905 27.1313C3.33764 26.1444 5.14921 26.1706 6.9078 27.2258C7.88774 27.8138 8.31679 28.7588 8.38565 29.8192C8.46511 31.0791 8.40155 32.3443 8.39625 33.6095C8.39625 33.6725 8.34858 33.7355 8.3062 33.8405H6.47875C6.45756 33.599 6.43107 33.3785 6.42578 33.158C6.42048 32.1448 6.42048 31.1369 6.42578 30.1237C6.42578 29.562 6.28276 29.0422 6.04439 28.533C5.76895 27.9555 5.32401 27.6091 4.72015 27.4043C4.02625 27.1681 3.45418 27.3571 2.91389 27.7876C2.11934 28.4228 1.92335 29.31 1.88627 30.2444C1.8492 31.2104 1.87568 32.1763 1.87568 33.137V33.8405V33.8458Z" fill="#1C1C1C"/>
<path d="M24.5569 26.5739H26.326C26.3472 26.8102 26.3843 27.0254 26.3843 27.2406C26.3896 28.2066 26.3843 29.1725 26.3843 30.1332C26.3843 30.7842 26.5379 31.3984 26.8557 31.9759C27.7297 33.5613 29.6843 33.3671 30.4206 32.1124C30.7437 31.5612 30.9291 30.9837 30.9291 30.3485C30.9291 29.3353 30.9291 28.3273 30.9291 27.3141C30.9291 27.0884 30.9503 26.8679 30.9662 26.6212C31.6071 26.4847 32.1951 26.5267 32.8519 26.5792C32.8731 26.7944 32.9155 26.9939 32.9155 27.1881C32.9208 28.2223 32.9261 29.2565 32.9155 30.2907C32.889 32.3644 31.4429 33.6873 29.4619 33.9131C28.6673 34.0023 27.9045 33.9393 27.1365 33.7661C25.7434 33.4511 24.3874 32.0546 24.4986 30.4062C24.5675 29.3773 24.5092 28.3378 24.5145 27.3036C24.5145 27.0779 24.5357 26.8574 24.5516 26.5582" fill="#1C1C1C"/>
<path d="M23.5138 34.2011C23.5774 34.9098 23.5297 34.9991 22.9576 35.0043C22.5021 35.0043 22.036 34.9623 21.5857 34.8783C20.4681 34.6684 19.8907 33.8966 19.6629 32.8572C19.557 32.369 19.5199 31.8597 19.5146 31.3558C19.4987 29.0354 19.5093 26.7097 19.5093 24.3894V23.5704C20.1661 23.4497 20.7753 23.5074 21.4586 23.5284C21.5592 24.5206 21.4586 25.4813 21.5275 26.5103C22.0519 26.5365 22.5445 26.5575 23.1113 26.5838V27.7964C22.5975 27.8227 22.0995 27.8489 21.5592 27.8752C21.5381 28.0589 21.5063 28.2112 21.5063 28.3687C21.5063 29.6129 21.5063 30.8518 21.5063 32.096C21.5063 32.2797 21.5063 32.4635 21.5328 32.6472C21.7023 33.7496 22.0836 34.0856 23.2119 34.1539C23.3019 34.1539 23.3867 34.1854 23.5138 34.2116" fill="#1C1C1C"/>
<path d="M36.4065 33.8651H34.4943C34.4625 33.6761 34.4149 33.5029 34.4149 33.3296C34.4096 32.0225 34.3778 30.7153 34.4201 29.4081C34.4731 27.7124 35.6279 26.4735 37.3706 26.5312C37.7572 26.5417 38.1439 26.5522 38.5783 26.5627V27.4919C38.2922 27.4762 38.0592 27.4237 37.842 27.4499C37.0051 27.5549 36.4224 28.2216 36.4118 29.1141C36.3959 30.4213 36.4118 31.7285 36.4118 33.0357V33.8546L36.4065 33.8651Z" fill="#1C1C1C"/>
</g>
<defs>
<clipPath id="clip0_2165_16413">
<rect width="47" height="35" fill="white"/>
</clipPath>
</defs>
</svg>
