<svg width="51" height="39" viewBox="0 0 51 39" fill="none" xmlns="http://www.w3.org/2000/svg">
<path d="M29.4543 17.9707C29.8764 17.3816 30.2944 16.7894 30.7216 16.2034C33.6467 12.1871 36.6226 8.21067 40.1366 4.68118C41.6409 3.17059 43.2427 1.78171 45.1772 0.83874C46.1699 0.354983 47.2073 0.0921382 48.321 0.158616C49.7581 0.244527 50.9176 1.41659 50.9094 2.80445C50.9094 2.98445 50.9715 3.23503 50.7518 3.29844C50.5016 3.37105 50.4751 3.10207 50.4111 2.9415C50.168 2.33092 49.6869 2.01183 49.0899 1.84614C47.846 1.5025 46.6326 1.69989 45.4518 2.12433C43.497 2.82695 41.8727 4.05833 40.4092 5.49631C37.4912 8.36408 34.9943 11.5939 32.5533 14.8687C30.8762 17.1188 29.2753 19.425 27.6836 21.7375C27.4629 22.0586 27.2229 22.3705 26.9594 22.6569C26.753 22.8819 26.4824 22.9934 26.1814 22.8062C25.8997 22.6313 25.8071 22.3583 25.8844 22.0545C25.9973 21.6096 26.1366 21.1709 26.2851 20.7362C27.0632 18.4637 27.3927 16.1103 27.5809 13.7243C27.7172 11.9958 27.7904 10.2613 28.0558 8.53795C27.8758 8.51851 27.8595 8.66579 27.8046 8.74965C24.1228 14.2796 19.3609 18.5854 13.3917 21.4848C10.7463 22.7694 7.97581 23.6694 4.9785 23.5181C3.64411 23.4506 2.35446 23.1816 1.24484 22.3583C-0.516731 21.0512 -0.263481 18.1579 1.6954 17.176C2.18664 16.9295 2.70128 16.8682 3.23016 16.9664C4.56761 17.2149 5.04359 18.6386 4.14756 19.7247C3.87803 20.051 3.54443 20.323 3.25457 20.6339C2.64839 21.2834 2.77451 22.0054 3.5902 22.3572C4.51268 22.7551 5.49619 22.797 6.48478 22.7203C10.0974 22.4411 13.3134 21.0318 16.3127 19.1019C20.855 16.1789 24.6639 12.4898 27.528 7.86498C28.0833 6.96906 28.5674 6.02916 29.0973 5.11687C29.4838 4.45209 29.915 3.81901 30.5548 3.36594C30.8345 3.16753 31.1304 3.009 31.4915 3.02025C32.0072 3.03559 32.1851 3.30048 31.9319 3.74844C31.6471 4.25368 31.3766 4.75994 31.1681 5.30403C30.6921 6.54769 30.5914 7.86089 30.4856 9.16386C30.2476 12.0971 30.1124 15.0416 29.4523 17.9676L29.4543 17.9707Z" fill="#1C1C1C"/>
<path d="M42.7492 36.0939C42.7492 34.9239 42.7522 33.7528 42.7471 32.5828C42.7461 32.2167 42.8112 31.9416 43.2709 31.9569C43.5832 31.9671 43.755 32.0909 43.755 32.409C43.7581 34.0791 43.7591 35.7492 43.755 37.4194C43.755 37.672 43.6676 37.8939 43.396 37.9768C43.1001 38.0668 42.8244 38.0166 42.5814 37.8233C42.3901 37.671 42.2905 37.45 42.1786 37.2394C41.5307 36.0254 40.8828 34.8114 40.1251 33.6056C40.1251 33.896 40.1251 34.1865 40.1251 34.4769C40.1251 35.4148 40.1241 36.3516 40.1251 37.2895C40.1251 37.6382 40.1617 38.0095 39.6542 38.0187C39.1508 38.0279 39.1599 37.672 39.1609 37.312C39.165 35.7952 39.1589 34.2785 39.165 32.7608C39.166 32.4509 39.0745 32.053 39.5332 31.9855C39.9715 31.9211 40.415 31.8945 40.6764 32.4038C41.1992 33.4174 41.7433 34.4197 42.2772 35.4271C42.3962 35.651 42.5081 35.8791 42.6241 36.1051L42.7461 36.0939H42.7492Z" fill="#1C1C1C"/>
<path d="M3.5741 36.1971C3.5741 35.0107 3.57207 33.8253 3.57614 32.6389C3.57614 32.4395 3.53749 32.2135 3.74599 32.0836C3.92906 31.9701 4.13146 31.9629 4.33182 32.0468C4.5271 32.1286 4.53218 32.3045 4.53218 32.4773C4.5332 34.1475 4.5332 35.8176 4.5332 37.4878C4.5332 37.7199 4.50777 37.9572 4.24232 38.0196C3.88431 38.1034 3.51308 38.1116 3.2761 37.7629C3.05743 37.4397 2.87436 37.092 2.68925 36.7473C2.1441 35.7327 1.60607 34.7141 0.958197 33.7159C0.958197 34.2498 0.958197 34.7846 0.958197 35.3185C0.958197 35.9997 0.95718 36.6818 0.958197 37.363C0.958197 37.7169 0.97447 38.0615 0.458815 38.0615C-0.0456519 38.0615 0.000116274 37.7209 0.000116274 37.3937C0.000116274 35.8596 -0.000900797 34.3265 0.000116274 32.7923C0.000116274 32.4712 -0.0537885 32.101 0.388637 32.0212C0.809705 31.9455 1.21857 31.9946 1.45554 32.416C1.78914 33.0092 2.09833 33.6157 2.41769 34.217C2.77265 34.8849 3.12659 35.5538 3.48155 36.2216L3.57309 36.1981L3.5741 36.1971Z" fill="#1C1C1C"/>
<path d="M30.7261 34.2702C30.7261 33.7588 30.7261 33.2484 30.7261 32.7371C30.7261 32.3771 30.6712 31.9792 31.2224 31.9843C31.7452 31.9894 31.6852 32.3719 31.6862 32.7115C31.6882 33.7332 31.673 34.756 31.6933 35.7767C31.7136 36.7431 32.1835 37.2668 32.9921 37.2831C33.7691 37.2985 34.2645 36.8741 34.2868 36.0927C34.3194 34.9523 34.3011 33.8109 34.3112 32.6696C34.3133 32.4538 34.2818 32.2165 34.4994 32.0661C34.8371 31.8319 35.3049 32.0416 35.307 32.466C35.311 33.725 35.4148 34.9881 35.249 36.241C35.0791 37.5204 34.2116 38.1903 32.8548 38.1463C31.6058 38.1065 30.8156 37.3425 30.7383 36.0569C30.7027 35.4627 30.7322 34.8654 30.7322 34.2691H30.7251L30.7261 34.2702Z" fill="#1C1C1C"/>
<path d="M15.5014 35.062C15.5014 34.2785 15.4871 33.4951 15.5054 32.7117C15.5197 32.1267 15.6621 31.9988 16.2469 31.9907C16.7035 31.9845 17.1592 31.9743 17.6148 32.0459C18.7011 32.2167 19.293 32.859 19.2737 33.8776C19.2544 34.9167 18.5567 35.6838 17.5274 35.7963C16.8493 35.8699 16.51 36.261 16.5093 36.9694C16.5093 37.1739 16.5052 37.3785 16.5052 37.582C16.5052 37.9267 16.3272 38.0606 15.9936 38.0617C15.6468 38.0617 15.4993 37.899 15.5004 37.5656C15.5014 36.7311 15.5004 35.8965 15.5004 35.062H15.5014ZM16.5113 33.9461H16.5154C16.5154 34.1844 16.5123 34.4227 16.5164 34.661C16.5195 34.7991 16.5357 34.93 16.6913 34.9975C17.0026 35.1335 17.8467 34.8625 18.0705 34.5485C18.339 34.1711 18.2953 33.4205 17.9647 33.1269C17.6037 32.8058 17.1378 32.7536 16.7198 32.8794C16.3455 32.9919 16.5662 33.4113 16.5144 33.6915C16.4991 33.7733 16.5123 33.8613 16.5123 33.9461H16.5113Z" fill="#1C1C1C"/>
<path d="M10.1306 38.0549C9.74106 38.0549 9.35152 38.0538 8.96198 38.0549C8.63856 38.0569 8.44531 37.9219 8.44531 37.5732C8.44531 35.8877 8.44531 34.2022 8.44531 32.5167C8.44531 32.1782 8.63754 32.0105 8.95181 32.0053C9.74716 31.9941 10.5425 31.9982 11.3389 32.0023C11.6165 32.0033 11.7905 32.1414 11.7955 32.4349C11.8006 32.7427 11.6186 32.846 11.3368 32.843C10.8456 32.8389 10.3544 32.8542 9.86413 32.8409C9.54985 32.8327 9.39627 32.9371 9.40034 33.2776C9.41865 34.7913 9.2488 34.4865 10.5822 34.5203C10.7174 34.5233 10.8527 34.5254 10.988 34.5213C11.2575 34.5141 11.4558 34.5837 11.4619 34.9089C11.468 35.2464 11.2728 35.3548 10.9778 35.3579C10.6218 35.362 10.2659 35.3753 9.91193 35.3599C9.54782 35.3446 9.39119 35.4837 9.39831 35.8641C9.42882 37.4525 9.20303 37.1743 10.6991 37.2039C10.9534 37.2091 11.2077 37.2029 11.4609 37.2183C11.7315 37.2346 11.8484 37.4034 11.8342 37.6652C11.822 37.9055 11.6959 38.0457 11.4497 38.0467C11.0093 38.0497 10.57 38.0467 10.1296 38.0467V38.0508L10.1306 38.0549Z" fill="#1C1C1C"/>
<path d="M47.6048 34.914C47.6048 34.1143 47.6129 33.3145 47.6017 32.5147C47.5956 32.0851 47.7899 31.8857 48.2109 31.8867C48.9554 31.8888 49.6999 31.8867 50.4444 31.8888C50.7546 31.8888 50.9855 32.0002 50.9763 32.3551C50.9672 32.707 50.7119 32.7397 50.4373 32.7376C49.9471 32.7346 49.4558 32.7448 48.9656 32.7366C48.689 32.7315 48.5638 32.844 48.5659 33.1283C48.5781 34.7013 48.3991 34.3751 49.7548 34.4098C49.9237 34.4139 50.0935 34.4088 50.2624 34.4068C50.5075 34.4037 50.6519 34.5203 50.6539 34.7698C50.657 35.0296 50.5359 35.1892 50.2573 35.1902C49.8515 35.1912 49.4446 35.2086 49.0388 35.1902C48.69 35.1738 48.5537 35.3078 48.5618 35.6627C48.5984 37.384 48.3248 37.0557 49.9166 37.0935C50.1535 37.0996 50.3905 37.0925 50.6265 37.1078C50.898 37.1252 51.0099 37.296 50.9977 37.5558C50.9875 37.7982 50.8594 37.9393 50.6163 37.9414C49.7538 37.9465 48.8903 37.9526 48.0279 37.9383C47.6719 37.9322 47.6027 37.6662 47.6037 37.3645C47.6068 36.5474 47.6037 35.7312 47.6037 34.914H47.6048Z" fill="#1C1C1C"/>
<path d="M24.4302 35.3922C24.4302 34.711 24.417 34.0288 24.4343 33.3477C24.4434 32.9795 24.3193 32.8097 23.9359 32.8363C23.6491 32.8568 23.3602 32.8373 23.0724 32.8343C22.8263 32.8312 22.6981 32.7034 22.69 32.4559C22.6819 32.2032 22.7652 31.9977 23.046 31.9946C24.3 31.9844 25.553 31.9844 26.8071 31.9905C27.0776 31.9915 27.1966 32.1705 27.1905 32.4303C27.1844 32.6993 27.04 32.8333 26.7725 32.8353C26.4674 32.8373 26.1612 32.8547 25.8582 32.8353C25.4991 32.8128 25.3944 32.9703 25.3873 33.317C25.3588 34.6957 25.4879 36.0743 25.3995 37.454C25.3771 37.7966 25.3517 38.0625 24.9133 38.0533C24.481 38.0452 24.4282 37.7762 24.4302 37.4366C24.4353 36.7555 24.4312 36.0733 24.4302 35.3922V35.3922Z" fill="#1C1C1C"/>
</svg>
