<svg width="73" height="29" viewBox="0 0 73 29" fill="none" xmlns="http://www.w3.org/2000/svg">
<g clip-path="url(#clip0_2165_16405)">
<path d="M-0.000262312 15.9114C0.225461 15.0513 0.412296 14.1834 0.78343 13.3641C1.28391 12.2576 1.94248 11.2618 2.76168 10.3778C4.9293 8.04018 7.62361 6.62159 10.6755 5.8441C13.079 5.232 15.5036 4.77846 17.9993 4.84581C19.3519 4.88246 20.6919 5.01375 21.982 5.44853C22.277 5.54828 22.4546 5.48178 22.6287 5.24564C23.3583 4.25246 24.3838 3.77164 25.5598 3.57812C27.4433 3.26695 29.3269 2.96004 31.2138 2.6736C33.5032 2.32577 35.7824 1.88843 38.1157 1.94214C38.8495 1.95919 39.5757 1.995 40.291 2.16038C40.4693 2.2013 40.6249 2.19534 40.7728 2.09474C41.5227 1.58664 42.3791 1.44342 43.2516 1.36243C45.081 1.19193 46.9105 1.01716 48.7416 0.867119C49.8043 0.780162 50.8712 0.740094 51.9364 0.673598C52.6068 0.631825 53.2722 0.529523 53.9502 0.65399C54.5479 0.763112 55.0847 0.990733 55.5565 1.35731C55.7636 1.51759 55.9208 1.51077 56.1246 1.38886C57.6311 0.486045 59.2898 0.185107 61.0127 0.159531C62.6012 0.135661 64.1847 0.124578 65.7377 0.582379C68.6248 1.43319 70.9031 3.04785 72.2769 5.79636C72.774 6.79125 73.0166 7.85859 72.9989 8.99329C72.982 10.0172 72.9744 11.018 72.5212 11.9779C71.784 13.5415 70.5455 14.5184 69.0052 15.1646C67.8664 15.6421 66.6778 15.8705 65.4426 15.9507C63.7831 16.0589 62.1667 15.8876 60.5706 15.4409C60.4015 15.3931 60.2223 15.3292 60.0608 15.5014C59.3997 16.2056 58.5171 16.3769 57.621 16.5236C55.6537 16.845 53.6907 17.1928 51.7209 17.5005C50.0715 17.758 48.4441 18.1433 46.7803 18.3317C46.3119 18.3846 45.8859 18.6958 45.3947 18.787C43.6548 19.1101 41.9285 19.5099 40.1827 19.7955C39.2562 19.9473 38.2975 19.9558 37.4276 19.4545C37.2661 19.3616 37.1258 19.3317 36.9871 19.5091C36.2558 20.4434 35.2405 20.8381 34.1203 21.0649C32.5513 21.3829 30.9906 21.7444 29.4233 22.0709C28.6159 22.2388 27.8559 22.0282 27.1491 21.6514C26.8947 21.5159 26.7661 21.5363 26.5844 21.7375C24.9629 23.527 23.0438 24.9174 20.8838 25.9677C18.69 27.0351 16.3753 27.7034 13.9566 28.0069C13.6378 28.047 13.3208 28.1016 13.0029 28.1502H9.28737C9.22059 28.1305 9.15464 28.1007 9.08617 28.093C7.43001 27.9166 5.87954 27.4289 4.43981 26.5687C2.79212 25.5841 1.57642 24.2354 0.829927 22.4511C0.429204 21.4929 0.214471 20.4877 -0.00195312 19.4801V15.9106L-0.000262312 15.9114ZM17.4109 6.06661C15.6524 5.99159 13.8931 6.38118 12.1339 6.75288C8.80126 7.45706 5.79754 8.79465 3.48704 11.4187C2.78282 12.2184 2.20878 13.1092 1.80384 14.0981C0.934757 16.2209 0.942366 18.3778 1.49442 20.5849C2.22569 23.5108 4.0746 25.3556 6.83062 26.336C9.02276 27.1161 11.2918 27.1493 13.5702 26.8441C16.1377 26.5005 18.5995 25.8006 20.8973 24.5619C22.9246 23.469 24.7431 22.1246 26.1617 20.2755C26.4255 19.9311 26.7645 19.8876 27.1178 20.134C27.2337 20.2149 27.3393 20.3087 27.4568 20.3854C28.0258 20.7563 28.6328 21.0172 29.3252 20.8654C30.9729 20.5057 32.6113 20.1024 34.2632 19.764C35.1568 19.5807 35.7917 19.1007 36.2533 18.3377C36.6067 17.7537 36.9381 17.7009 37.5003 18.0837C38.1842 18.5491 38.9248 18.8006 39.7685 18.6301C41.3105 18.3181 42.8449 17.9336 44.4022 17.7444C45.3921 17.6242 46.2173 17.0734 47.2478 17.0103C48.8904 16.9097 50.5128 16.4758 52.1453 16.1919C54.0271 15.8646 55.9073 15.527 57.7943 15.2363C58.4114 15.1416 58.9263 14.9336 59.3304 14.4562C59.8072 13.8927 59.8199 13.8893 60.5114 14.122C62.865 14.9132 65.244 15.0359 67.6399 14.3496C68.9502 13.9737 70.1363 13.3513 70.9505 12.2115C72.1949 10.4698 72.0875 8.57812 71.3267 6.71196C70.3595 4.33941 68.5013 2.86627 66.1612 2.01546C64.3292 1.34879 62.4229 1.15953 60.4734 1.37351C58.9415 1.54146 57.4891 1.89951 56.1948 2.78442C55.7188 3.10923 55.4956 3.06746 55.0991 2.62586C54.5952 2.06575 53.9773 1.82108 53.2299 1.80318C52.5663 1.78698 51.9136 1.89269 51.2534 1.90719C50.3572 1.92765 49.4611 2.00949 48.5666 2.08536C47.072 2.21239 45.5781 2.34708 44.0851 2.49627C43.3336 2.5713 42.5 2.48519 41.8795 2.94044C41.111 3.50395 40.3916 3.4383 39.5259 3.284C37.9281 2.99926 36.3006 3.12969 34.7003 3.36755C31.6737 3.81853 28.6514 4.3002 25.6333 4.80659C24.623 4.97624 23.7751 5.46388 23.3296 6.46558C23.1022 6.97624 22.8528 7.11691 22.3337 6.89696C20.7739 6.23626 19.144 6.02313 17.4109 6.0649V6.06661Z" fill="#1C1C1C"/>
<path d="M16.9652 7.82043C18.9435 7.78463 20.7045 8.07278 22.3547 8.88864C24.4927 9.94575 25.6602 11.7156 26.0221 14.0506C26.3797 16.3609 25.6374 18.3038 24.0489 19.9671C22.5694 21.5161 20.7256 22.4649 18.7752 23.2296C16.8672 23.9764 14.8847 24.4215 12.8439 24.6116C11.1514 24.7693 9.47662 24.725 7.82977 24.2646C6.09415 23.7795 4.62906 22.9091 3.67967 21.3013C3.21047 20.5067 2.97037 19.6388 2.86554 18.736C2.67702 17.1103 2.91711 15.5587 3.71771 14.1077C4.38643 12.8955 5.31046 11.9185 6.40949 11.1103C8.87638 9.29614 11.6865 8.3865 14.6852 7.98071C15.4951 7.87158 16.3024 7.78974 16.9652 7.82129V7.82043ZM9.88664 16.3047C9.85874 17.0353 10.0709 17.6934 10.5106 18.2518C11.4574 19.4547 12.7289 19.921 14.2286 19.8238C15.8527 19.7181 17.2062 19.0634 18.257 17.8068C19.8523 15.8989 19.1726 13.1572 16.8697 12.2458C15.0216 11.5152 13.3021 11.8758 11.7279 12.9969C10.6078 13.7949 9.92046 14.8776 9.88664 16.3038V16.3047Z" fill="#1C1C1C"/>
<path d="M38.4067 4.5902C39.2242 4.55355 40.0662 4.60555 40.8626 4.9278C42.1112 5.43249 42.8899 6.36173 43.0606 7.70529C43.2027 8.81868 42.6117 9.62175 41.735 10.2304C41.0951 10.6746 41.1094 10.6473 41.7257 11.1648C42.9854 12.2245 44.2247 13.3089 45.47 14.3856C45.667 14.5561 45.8395 14.7488 45.7685 15.042C45.6941 15.3489 45.4109 15.3387 45.191 15.3822C43.5383 15.7087 41.883 16.0224 40.2277 16.3353C39.8126 16.4137 39.4457 16.2986 39.1447 15.9969C37.4522 14.2961 35.7597 12.5953 34.0714 10.8894C33.7527 10.568 33.8068 10.4009 34.2506 10.3029C34.6894 10.2049 35.1324 10.1273 35.5703 10.0301C35.9288 9.95082 36.2712 9.82294 36.595 9.64562C36.9703 9.44016 37.289 9.17588 37.2628 8.70444C37.2349 8.21425 36.7919 7.7428 36.3168 7.61493C35.9973 7.52882 35.6794 7.54928 35.359 7.60043C34.6666 7.71126 33.9708 7.80248 33.2835 7.93974C32.7534 8.0463 32.6232 8.31399 32.7796 8.83914C33.5109 11.3046 34.243 13.7709 34.9768 16.2364C35.0377 16.4419 35.0775 16.6482 35.0673 16.863C35.0529 17.1691 34.8999 17.3873 34.6099 17.4512C32.8955 17.8264 31.1793 18.198 29.4597 18.5476C28.9778 18.6456 28.6473 18.3916 28.5222 17.909C27.6793 14.6669 26.8381 11.4248 25.9969 8.1827C25.9014 7.81356 25.7966 7.44613 25.7095 7.07443C25.6106 6.65329 25.8236 6.29438 26.2446 6.22533C27.8923 5.95593 29.5426 5.69847 31.1928 5.44528C32.6215 5.22618 34.0511 5.01476 35.4816 4.81101C36.4411 4.6746 37.4032 4.56292 38.4067 4.59106V4.5902Z" fill="#1C1C1C"/>
<path d="M53.9386 3.14934C54.4433 3.06238 54.7738 3.32325 54.9683 3.82282C55.1162 4.20475 55.3031 4.57133 55.4366 4.95752C55.5558 5.30108 55.4138 5.51592 55.0579 5.55087C53.7737 5.67449 52.4887 5.78531 51.2037 5.89784C50.7844 5.9345 50.3634 5.95326 49.9449 6.001C49.5289 6.04874 49.4588 6.17406 49.5907 6.56025C49.8223 7.24141 50.0015 7.37099 50.7091 7.30108C51.9789 7.17576 53.2462 7.03425 54.5151 6.89955C54.9446 6.85437 55.2185 7.09819 55.3876 7.44175C55.5998 7.87142 55.7697 8.32325 55.9371 8.77338C56.1079 9.23033 55.9549 9.48096 55.4662 9.53894C54.1854 9.69154 52.903 9.83732 51.6205 9.97628C51.1301 10.0291 51.0321 10.1672 51.1944 10.6387C51.4396 11.348 51.6847 11.4682 52.4371 11.3608C54.0333 11.1314 55.6328 10.926 57.2314 10.7171C57.6431 10.6634 57.9559 10.8501 58.1216 11.2201C58.3406 11.7094 58.5342 12.2116 58.7134 12.718C58.8673 13.1545 58.7117 13.3812 58.2442 13.4528C55.9845 13.7998 53.723 14.1408 51.4641 14.4938C50.2027 14.6915 48.9439 14.9064 47.6843 15.1186C47.1779 15.2039 46.8389 15.018 46.6706 14.5296C45.5513 11.2823 44.3813 8.05385 43.1537 4.84669C42.9348 4.27551 43.0573 4.06579 43.6644 3.98906C45.1523 3.80066 46.6461 3.66511 48.1425 3.56025C49.9474 3.43408 51.7507 3.28574 53.5539 3.14848C53.6655 3.13996 53.7788 3.14763 53.9377 3.14763L53.9386 3.14934Z" fill="#1C1C1C"/>
<path d="M62.2868 2.79629C64.342 2.79714 66.2729 3.24556 67.9713 4.46807C69.2403 5.38197 70.2117 6.53542 70.5786 8.09893C71.0224 9.99151 70.0122 11.8764 68.2089 12.5977C66.5443 13.2635 64.834 13.2422 63.1136 12.9063C61.7441 12.6386 60.4608 12.1339 59.3736 11.2379C57.9465 10.0606 56.9675 8.59339 56.7393 6.70336C56.5719 5.32144 57.4427 3.96423 58.8257 3.40328C59.2704 3.2234 59.7252 3.08103 60.1919 2.97787C60.8809 2.82527 61.5801 2.77753 62.286 2.79714L62.2868 2.79629ZM64.9854 10.1151C66.3896 10.1151 67.1192 9.11172 66.6356 7.79032C66.3203 6.92928 65.7462 6.24897 64.9372 5.81334C64.189 5.4101 63.4087 5.10149 62.5235 5.31121C61.5851 5.53371 61.0737 6.36321 61.3121 7.30098C61.6993 8.82613 63.3825 10.1151 64.9854 10.1151Z" fill="#1C1C1C"/>
</g>
<defs>
<clipPath id="clip0_2165_16405">
<rect width="73" height="28" fill="white" transform="translate(0 0.150391)"/>
</clipPath>
</defs>
</svg>
