<svg width="38" height="38" viewBox="0 0 38 38" fill="none" xmlns="http://www.w3.org/2000/svg">
<path d="M18.9299 37.8598C8.49217 37.8598 0 29.3677 0 18.9299C0 8.49217 8.49217 0 18.9299 0C29.3677 0 37.8598 8.49217 37.8598 18.9299C37.8598 29.3677 29.3677 37.8598 18.9299 37.8598Z" fill="#292B37" fill-opacity="0.3"/>
<path fill-rule="evenodd" clip-rule="evenodd" d="M0 19.0705C0 29.5083 8.49217 38.0005 18.9299 38.0005C29.3677 38.0005 37.8598 29.5083 37.8598 19.0705C37.8598 8.63279 29.3677 0.140625 18.9299 0.140625C8.49217 0.140625 0 8.63279 0 19.0705ZM0.370033 19.0682C0.370033 8.83526 8.69464 0.508332 18.9299 0.508332C29.1652 0.508332 37.4898 8.83526 37.4898 19.0682C37.4898 29.3012 29.1629 37.6281 18.9299 37.6281C8.69697 37.6281 0.370033 29.3012 0.370033 19.0682ZM12.3573 5.50751C12.3433 5.4214 12.2618 5.10955 12.2386 5.03507L12.1408 5.06067C12.1478 5.16307 12.1478 5.28642 12.1269 5.38184C12.1082 5.47725 12.085 5.51449 11.9407 5.59362L11.7429 5.69834C11.5962 5.77514 11.552 5.74721 11.4589 5.575L11.2146 5.12351L11.4683 4.9862C11.6242 4.90242 11.6591 4.91871 11.7964 5.08162L11.8872 5.03275L11.5939 4.49049L11.5032 4.53937C11.5637 4.73253 11.5637 4.7814 11.4077 4.86518L11.1517 5.00482L10.8608 4.4742C10.8166 4.39275 10.8213 4.38344 10.9097 4.33457L11.0982 4.23217C11.2332 4.16002 11.2821 4.15304 11.3589 4.19028C11.4217 4.21821 11.5055 4.28337 11.573 4.35551L11.6568 4.295C11.5791 4.17358 11.4811 4.0147 11.4354 3.94069L11.4171 3.91101C11.3868 3.93195 11.296 3.98315 11.0447 4.12046L10.2511 4.551L10.2976 4.63479C10.4815 4.55566 10.5187 4.55333 10.6351 4.76977L11.1587 5.73325C11.2704 5.94038 11.2635 5.96598 11.047 6.11027L11.0912 6.19405L12.3573 5.50751ZM13.3185 3.60133C13.2021 3.45006 13.0532 3.29414 12.8088 3.38955C12.6366 3.45704 12.5947 3.6153 12.6529 3.75959C12.7157 3.91784 12.8553 3.96671 13.1276 3.99231C13.4814 4.0249 13.6978 4.09239 13.8002 4.34838C13.9189 4.6486 13.7537 4.96976 13.3883 5.11405C13.223 5.17922 13.0601 5.19085 12.9252 5.20016C12.8809 5.14198 12.746 4.91624 12.6761 4.79289L12.7623 4.73238C12.8809 4.88133 13.1253 5.09544 13.3883 4.99071C13.5605 4.92322 13.621 4.76962 13.5535 4.59973C13.486 4.42984 13.3534 4.38097 13.0788 4.34838C12.7436 4.30882 12.5225 4.24599 12.4178 3.98068C12.3154 3.7177 12.4364 3.41515 12.8158 3.26621C12.9452 3.2148 13.0665 3.19445 13.1437 3.18149C13.1679 3.17744 13.1877 3.17412 13.2021 3.17079C13.251 3.26388 13.3161 3.38257 13.4046 3.54315L13.3185 3.60133ZM15.3899 2.74721C15.4295 2.78212 15.504 2.87056 15.5622 2.97528L15.6552 2.94503C15.5994 2.77746 15.5296 2.55172 15.497 2.43303L15.4225 2.45165C15.3923 2.51448 15.362 2.53776 15.2875 2.55638L14.1914 2.83565C14.1123 2.85659 14.0797 2.86125 14.0215 2.80772L13.9447 2.82634C13.975 2.9683 14.0075 3.1731 14.0378 3.36626L14.1355 3.34066C14.1449 3.2243 14.1542 3.12888 14.1774 3.06605C14.21 2.98226 14.2473 2.94968 14.4009 2.91012L14.5963 2.85892L14.9315 4.16684C14.9896 4.39258 14.971 4.42051 14.7337 4.49964L14.7569 4.59273L15.6296 4.36931L15.6064 4.27622C15.3504 4.32277 15.3201 4.3088 15.2619 4.08306L14.9268 2.77514L15.1386 2.72161C15.2968 2.68205 15.3271 2.69601 15.3899 2.74721ZM16.3418 2.84944C16.4977 2.76104 16.5582 2.66334 16.5442 2.57727C16.5303 2.47259 16.4256 2.45398 16.3162 2.447C16.2976 2.44467 16.265 2.41676 16.258 2.36325C16.2464 2.28649 16.2952 2.20507 16.4116 2.18878C16.5466 2.17017 16.7025 2.25625 16.7304 2.45863C16.7653 2.69358 16.5885 2.85642 16.3953 2.94017L16.3418 2.84944ZM19.1208 2.40494C18.937 2.2397 18.674 2.16989 18.297 2.18152L17.4545 2.2141L17.4568 2.30952C17.6709 2.32116 17.7035 2.33978 17.7105 2.57948L17.7431 3.67562C17.75 3.91067 17.7314 3.93395 17.5057 3.95955L17.508 4.05496L18.2481 4.03169C18.5809 4.02006 18.8508 3.9386 19.058 3.77337C19.2721 3.60115 19.4001 3.3405 19.3908 3.01235C19.3815 2.73075 19.2674 2.53526 19.1208 2.40494ZM18.3691 3.90136C18.1596 3.90602 18.0945 3.84318 18.0875 3.63838L18.0526 2.50268C18.0503 2.40959 18.0549 2.3677 18.0805 2.34443C18.1015 2.32348 18.155 2.30021 18.269 2.29788C18.4575 2.2909 18.6135 2.32348 18.7391 2.42588C18.9067 2.5469 18.9975 2.77963 19.0068 3.06355C19.0231 3.58486 18.7973 3.8874 18.3691 3.90136ZM22.9465 4.09227C22.9289 4.12457 22.9102 4.15854 22.8913 4.19298L22.8912 4.19311L22.8911 4.19329C22.8324 4.30018 22.7711 4.41165 22.7324 4.49256L21.6386 4.2482L21.6549 4.17605C21.8364 4.06434 22.0365 3.93634 22.2111 3.81067C22.4578 3.63147 22.6207 3.45926 22.6719 3.23351C22.7184 3.02406 22.6416 2.87279 22.4485 2.82857C22.2739 2.78901 22.125 2.89141 22.0133 2.99381L21.9528 2.91235L22.1785 2.70057C22.2925 2.61446 22.4554 2.58421 22.6253 2.62144C22.8976 2.68195 23.0791 2.91701 23.0117 3.22188C22.9628 3.44529 22.8418 3.58726 22.5066 3.7874C22.3693 3.87118 22.1738 3.98754 22.0458 4.05969C22.052 4.06071 22.1437 4.08146 22.2462 4.10462C22.3771 4.13422 22.5254 4.16776 22.5346 4.16907C22.6975 4.20631 22.737 4.20165 22.8767 4.05038L22.9465 4.09227ZM24.7014 4.19706C24.8387 3.7991 24.8504 3.2778 24.4128 3.12652C23.98 2.97525 23.6565 3.39649 23.5215 3.79445C23.3842 4.19474 23.3749 4.71371 23.8147 4.86498C24.2523 5.01626 24.5664 4.58804 24.7014 4.19706ZM23.8589 3.89685C23.9846 3.53379 24.1661 3.16143 24.3733 3.23125C24.5711 3.30107 24.4989 3.6967 24.3709 4.07604C24.2429 4.45073 24.0591 4.82542 23.8566 4.7556C23.6588 4.68579 23.7333 4.26223 23.8589 3.89685ZM26.1025 5.32332C26.0024 5.43503 25.8791 5.57467 25.8046 5.66543L24.7922 5.18834L24.8225 5.12085C25.025 5.05103 25.2461 4.96958 25.4439 4.8858C25.7232 4.76478 25.921 4.63213 26.0187 4.42268C26.1095 4.22951 26.0676 4.06428 25.8884 3.97817C25.7255 3.90137 25.5602 3.96886 25.4276 4.04566L25.3857 3.95257L25.6533 3.79664C25.7837 3.73846 25.9489 3.74312 26.1072 3.81759C26.3585 3.93628 26.4865 4.20624 26.3538 4.48784C26.2561 4.69496 26.1072 4.80667 25.7371 4.93002C25.5858 4.98122 25.3694 5.05336 25.2298 5.09525C25.2368 5.09874 25.3461 5.15052 25.4555 5.20231C25.5649 5.25409 25.6743 5.30587 25.6813 5.30936C25.8325 5.3815 25.8721 5.38616 26.0397 5.26747L26.1025 5.32332ZM27.7918 5.80764C28.0129 5.44924 28.1363 4.9419 27.743 4.69987C27.352 4.46016 26.947 4.79761 26.726 5.15601C26.5049 5.51674 26.3815 6.02175 26.7795 6.26611C27.1751 6.50815 27.5754 6.16139 27.7918 5.80764ZM27.0332 5.33288C27.2333 5.00474 27.494 4.68125 27.6801 4.79529C27.8593 4.90467 27.7034 5.27703 27.4939 5.61914C27.2868 5.95659 27.0238 6.28008 26.8423 6.16837C26.6654 6.05899 26.8307 5.66103 27.0332 5.33288ZM29.9705 27.0322C27.5036 30.4719 23.4752 32.7177 18.93 32.7177C14.3849 32.7177 10.3564 30.4696 7.88951 27.0322H7.62886C10.126 30.5953 14.2592 32.9318 18.93 32.9318C23.6008 32.9318 27.734 30.5953 30.2312 27.0322H29.9705ZM18.93 5.55155C15.3809 5.55155 12.146 6.91998 9.72336 9.1588H9.4115C11.89 6.79431 15.2413 5.33745 18.9277 5.33745C22.6164 5.33745 25.9653 6.79431 28.4438 9.1588H28.1366C25.7139 6.92231 22.4791 5.55155 18.93 5.55155ZM18.9531 29.6408C18.7948 29.8549 18.5947 29.9712 18.5039 29.9712C18.4131 29.9712 18.3736 29.8968 18.4318 29.6012L18.4783 29.3778C18.3596 29.5756 18.1874 29.7362 18.0897 29.8153C17.9873 29.8991 17.8639 29.9712 17.7569 29.9712C17.6428 29.9712 17.5497 29.8316 17.5497 29.5709C17.5497 29.2661 17.6894 28.931 17.9081 28.7308C18.0757 28.5749 18.3084 28.4748 18.5272 28.4748C18.6435 28.4748 18.7517 28.499 18.8267 28.5158L18.8267 28.5158C18.8583 28.5229 18.8839 28.5286 18.9019 28.5307C18.8437 28.7355 18.7297 29.2335 18.6691 29.5989C18.6528 29.6896 18.6598 29.7245 18.6854 29.7245C18.725 29.7245 18.7925 29.6827 18.9088 29.5616L18.9531 29.6408ZM18.3666 29.3708C18.4387 29.28 18.5225 29.1195 18.5551 28.9822C18.5877 28.8588 18.6156 28.7424 18.6273 28.6656C18.583 28.6424 18.476 28.6144 18.3806 28.6144C17.9989 28.6144 17.8197 29.1055 17.8197 29.5267C17.8197 29.6571 17.8546 29.7408 17.9198 29.7408C18.0198 29.7408 18.1641 29.6408 18.3666 29.3708ZM19.9399 28.6426C20.0353 28.6426 20.2005 28.6309 20.2657 28.624L20.3262 28.5123H19.9678C20.0027 28.3447 20.0539 28.1352 20.0935 28.0049L20.0655 27.9886C19.998 28.0491 19.8607 28.1376 19.8095 28.1655L19.7351 28.5123H19.5419L19.4488 28.6147V28.6426H19.7071L19.5186 29.499C19.4348 29.8807 19.4884 29.9691 19.6024 29.9691C19.742 29.9691 19.9957 29.7853 20.0981 29.627L20.0562 29.5456C19.9375 29.6666 19.8305 29.7504 19.7653 29.7504C19.7351 29.7504 19.7164 29.7201 19.7327 29.62C19.749 29.5223 19.7932 29.3152 19.9399 28.6426ZM7.73142 29.8924C7.74306 29.8319 7.74073 29.7667 7.72211 29.6992C7.7035 29.6317 7.66859 29.5689 7.61506 29.5107C7.58713 29.4805 7.55455 29.4525 7.51731 29.4293C7.48008 29.406 7.44052 29.3897 7.39863 29.3804C7.35674 29.3711 7.31484 29.3734 7.27295 29.3827C7.23106 29.392 7.1915 29.4153 7.15194 29.4502C7.1147 29.4851 7.09143 29.52 7.07979 29.5573C7.06815 29.5945 7.06583 29.6341 7.07048 29.676C7.07514 29.7178 7.0891 29.7597 7.10772 29.804C7.12634 29.8482 7.14728 29.897 7.17055 29.9459C7.19848 30.0041 7.22641 30.0669 7.25201 30.1298C7.27761 30.1926 7.2939 30.2578 7.29855 30.3229C7.30321 30.3881 7.29623 30.4533 7.27528 30.5184C7.25433 30.5836 7.20779 30.6464 7.1403 30.7093C7.07048 30.7744 6.99601 30.8163 6.92154 30.8373C6.84474 30.8582 6.77027 30.8629 6.69812 30.8512C6.62365 30.8396 6.55383 30.8117 6.48401 30.7698C6.41419 30.7279 6.35369 30.6767 6.29783 30.6185C6.2187 30.5324 6.16052 30.4346 6.11863 30.3253C6.07907 30.2159 6.06743 30.1042 6.08372 29.9901L6.34438 30.0227C6.32576 30.0972 6.32809 30.1763 6.3467 30.2578C6.36532 30.3392 6.40488 30.409 6.46307 30.4719C6.49332 30.5045 6.5259 30.5324 6.56547 30.5557C6.60503 30.5789 6.64459 30.5952 6.68881 30.6045C6.73303 30.6138 6.77492 30.6115 6.81914 30.6022C6.86335 30.5929 6.90525 30.5696 6.94714 30.5301C6.98903 30.4928 7.01463 30.4533 7.02626 30.409C7.0379 30.3671 7.04023 30.3206 7.03092 30.2741C7.02394 30.2275 7.00764 30.1786 6.98437 30.1274C6.974 30.1046 6.96363 30.0813 6.95305 30.0576C6.9399 30.0281 6.92642 29.9978 6.91223 29.9669C6.8843 29.911 6.86103 29.8552 6.84008 29.7946C6.81914 29.7365 6.80983 29.676 6.8075 29.6154C6.80517 29.5549 6.81681 29.4968 6.84008 29.4362C6.86336 29.3781 6.90757 29.3176 6.96808 29.2617C7.03557 29.1989 7.10539 29.1593 7.17986 29.143C7.25433 29.1267 7.32648 29.1244 7.39863 29.1384C7.47077 29.1523 7.54059 29.1826 7.60575 29.2245C7.67092 29.2664 7.73142 29.3152 7.78262 29.3711C7.85477 29.4502 7.91062 29.5363 7.94553 29.6317C7.98044 29.7272 7.9944 29.8156 7.98509 29.9017L7.73142 29.8924ZM7.14952 31.4563L7.36828 31.6425L7.80348 31.4191L8.46908 31.987L8.3178 32.4524L8.53889 32.6409L9.13467 30.7256L8.95547 30.5743L7.14952 31.4563ZM8.54355 31.7542L8.01991 31.3051L8.84376 30.8745L8.54355 31.7542ZM10.3661 33.416L10.3707 33.4183L11.1666 32.1779L11.3831 32.3175L10.3893 33.8698L10.1147 33.6952L10.1054 31.9032L10.1007 31.9009L9.28853 33.1693L9.0721 33.0296L10.0658 31.4774L10.3474 31.6589L10.3661 33.416ZM12.3514 34.7843C12.4817 34.7773 12.6027 34.7424 12.7098 34.6842L12.5795 34.4701C12.4957 34.519 12.4072 34.5446 12.3118 34.5469C12.2164 34.5493 12.1233 34.5283 12.0279 34.4841C11.9325 34.4399 11.8534 34.3817 11.7905 34.3119C11.7277 34.2397 11.6835 34.1629 11.6579 34.0768C11.6323 33.9907 11.623 33.9 11.6323 33.8045C11.6416 33.7091 11.6672 33.616 11.7114 33.5206C11.7556 33.4299 11.8091 33.3507 11.8766 33.2832C11.9441 33.2157 12.0186 33.1645 12.1024 33.1273C12.1862 33.0901 12.2746 33.0738 12.37 33.0738C12.4654 33.0738 12.5608 33.0971 12.6586 33.1413C12.7447 33.1808 12.8168 33.2367 12.875 33.3088C12.9332 33.381 12.9704 33.4555 12.9844 33.5299L13.2334 33.4741C13.2195 33.4159 13.2008 33.3624 13.1706 33.3088C13.1403 33.2553 13.1054 33.2064 13.0612 33.1599C13.0193 33.111 12.9704 33.0691 12.9169 33.0319C12.8634 32.9947 12.8075 32.9621 12.7517 32.9365C12.6237 32.8783 12.4957 32.8434 12.3677 32.8364C12.2397 32.8294 12.1163 32.8457 12.0023 32.8853C11.8883 32.9248 11.7835 32.9877 11.6881 33.0761C11.5927 33.1645 11.5159 33.2739 11.4554 33.4043C11.3949 33.5323 11.3623 33.6626 11.3576 33.7906C11.353 33.9186 11.3716 34.0396 11.4135 34.1536C11.4554 34.27 11.5206 34.3724 11.609 34.4655C11.6974 34.5586 11.8045 34.6354 11.9325 34.6936C12.0791 34.761 12.2211 34.7913 12.3514 34.7843ZM13.8238 35.3592L13.5794 35.2801L14.0728 33.7417L13.5096 33.5602L13.5794 33.3438L14.9502 33.7836L14.8804 34.0001L14.3172 33.8185L13.8238 35.3592ZM15.3951 35.7572C15.4765 35.8131 15.5766 35.8526 15.6953 35.8759C15.814 35.8992 15.921 35.8992 16.0211 35.8759C16.1189 35.8526 16.2026 35.8131 16.2725 35.7572C16.3423 35.7014 16.4005 35.6339 16.4447 35.5524C16.4889 35.4733 16.5191 35.3872 16.5378 35.2941L16.7565 34.1537L16.5029 34.1049L16.2887 35.2313C16.2771 35.2941 16.2585 35.3523 16.2306 35.4105C16.2026 35.4686 16.1677 35.5175 16.1235 35.5594C16.0793 35.6013 16.0258 35.6292 15.9629 35.6478C15.8978 35.6641 15.8256 35.6665 15.7418 35.6502C15.6581 35.6339 15.5882 35.6059 15.537 35.5664C15.4858 35.5268 15.4463 35.478 15.4207 35.4244C15.3951 35.3709 15.3811 35.3104 15.3765 35.2476C15.3718 35.1847 15.3765 35.1219 15.3881 35.0614L15.6022 33.935L15.3485 33.8861L15.1298 35.0265C15.1112 35.1172 15.1088 35.2103 15.1205 35.3011C15.1321 35.3918 15.1624 35.478 15.2066 35.5548C15.2508 35.6339 15.3136 35.7014 15.3951 35.7572ZM17.2962 36.0692L17.0099 36.0529L17.9153 34.2586L18.148 34.2726L18.8322 36.16L18.5413 36.1437L18.3807 35.6806L17.508 35.6294L17.2962 36.0692ZM17.6104 35.4083L18.2992 35.4478L18.006 34.5658L17.6104 35.4083ZM19.4722 36.1366L19.7306 36.1203L19.6747 35.3081L19.9493 35.2894L20.4706 36.0784L20.7825 36.0574L20.2123 35.2452C20.3426 35.215 20.445 35.1545 20.5242 35.066C20.6033 34.9776 20.6382 34.8659 20.6289 34.7309C20.6219 34.6378 20.601 34.5587 20.5614 34.4958C20.5218 34.433 20.473 34.3818 20.4101 34.3469C20.3473 34.3097 20.2775 34.2864 20.196 34.2724C20.1146 34.2585 20.0308 34.2561 19.9424 34.2608L19.3536 34.298L19.4722 36.1366ZM19.9586 35.066L19.6631 35.0846L19.6258 34.4958L19.94 34.4749C19.9936 34.4726 20.0471 34.4726 20.0983 34.4796C20.1495 34.4865 20.1937 34.4982 20.2333 34.5191C20.2728 34.5401 20.3031 34.568 20.3287 34.6029C20.3519 34.6401 20.3682 34.6844 20.3706 34.7402C20.3729 34.7961 20.3659 34.8426 20.345 34.8822C20.3264 34.9217 20.2961 34.9543 20.2589 34.9799C20.2216 35.0078 20.1774 35.0265 20.1262 35.0404C20.075 35.0544 20.0192 35.0614 19.9586 35.066ZM22.1536 35.8316L21.8976 35.8782L21.7533 35.0939L20.8852 34.1886L21.1971 34.1304L21.8487 34.8588L22.2025 33.9465L22.498 33.893L22.007 35.0473L22.1536 35.8316ZM24.2501 33.3393L23.659 33.565L24.32 35.2872L24.9111 35.0614C25.0205 35.0195 25.1229 34.959 25.2206 34.8822C25.3183 34.8054 25.3975 34.7147 25.4603 34.6099C25.5231 34.5052 25.5604 34.3865 25.5743 34.2585C25.586 34.1305 25.565 33.9909 25.5092 33.8443C25.451 33.6907 25.3719 33.572 25.2765 33.4836C25.181 33.3974 25.074 33.3346 24.9576 33.2997C24.8413 33.2625 24.7226 33.2508 24.5992 33.2601C24.4759 33.2718 24.3595 33.2974 24.2501 33.3393ZM24.7808 34.8659L24.4782 34.9823L23.9825 33.6814L24.2827 33.565C24.3874 33.5254 24.4875 33.5022 24.5876 33.4975C24.6877 33.4929 24.7784 33.5045 24.8645 33.5348C24.9506 33.565 25.0251 33.6139 25.0926 33.6814C25.1578 33.7489 25.2113 33.835 25.2532 33.942C25.2928 34.0444 25.309 34.1422 25.3044 34.2376C25.2997 34.3307 25.2741 34.4191 25.2322 34.4982C25.1904 34.5774 25.1298 34.6495 25.053 34.7123C24.9739 34.7752 24.8855 34.8264 24.7808 34.8659ZM27.7177 32.6502C27.7875 32.7736 27.8294 32.8993 27.8457 33.0273C27.8619 33.1553 27.8526 33.2786 27.8177 33.395C27.7851 33.5137 27.727 33.6207 27.6455 33.7231C27.5641 33.8232 27.464 33.9093 27.3406 33.9768C27.2173 34.0466 27.0939 34.0885 26.9659 34.1071C26.8403 34.1234 26.7169 34.1164 26.5982 34.0838C26.4795 34.0513 26.3702 33.9954 26.2701 33.9163C26.17 33.8372 26.0839 33.7348 26.0141 33.6114C25.9443 33.4857 25.9001 33.3601 25.8838 33.2321C25.8675 33.1041 25.8768 32.983 25.9117 32.8667C25.9466 32.7503 26.0025 32.6433 26.0839 32.5432C26.1654 32.4431 26.2654 32.3593 26.3888 32.2895C26.5121 32.2197 26.6355 32.1778 26.7635 32.1592C26.8915 32.1406 27.0125 32.1476 27.1312 32.1778C27.2475 32.2081 27.3569 32.2639 27.4593 32.3431C27.5594 32.4222 27.6455 32.5246 27.7177 32.6502ZM27.4733 32.7876C27.4244 32.6991 27.3616 32.6246 27.2894 32.5641C27.2173 32.5036 27.1382 32.4571 27.0521 32.4292C26.966 32.4012 26.8752 32.3896 26.7821 32.3989C26.689 32.4082 26.5936 32.4385 26.5005 32.4897C26.4074 32.5409 26.3353 32.606 26.2794 32.6828C26.2236 32.7596 26.1863 32.8411 26.1677 32.9295C26.1491 33.018 26.1468 33.1087 26.163 33.2041C26.1793 33.2996 26.2119 33.388 26.2608 33.4764C26.312 33.5649 26.3725 33.6417 26.447 33.7045C26.5191 33.7673 26.6006 33.8116 26.6844 33.8395C26.7705 33.8674 26.8589 33.8767 26.952 33.8697C27.0451 33.8604 27.1382 33.8302 27.2289 33.779C27.322 33.7278 27.3965 33.6626 27.4523 33.5858C27.5082 33.509 27.5478 33.4276 27.5687 33.3391C27.5897 33.2507 27.592 33.1599 27.5757 33.0645C27.5594 32.9691 27.5245 32.876 27.4733 32.7876ZM28.8049 33.0042L29.0097 32.8483L28.5117 32.1943L28.7305 32.0268L29.6009 32.3968L29.8499 32.2083L28.9283 31.8476C29.0191 31.7498 29.0726 31.6428 29.0889 31.5264C29.1028 31.41 29.0703 31.296 28.9888 31.1889C28.9306 31.1145 28.8701 31.0609 28.8026 31.0307C28.7351 31.0004 28.6653 30.9865 28.5932 30.9911C28.521 30.9958 28.4489 31.0144 28.3744 31.0493C28.2999 31.0819 28.2278 31.1261 28.158 31.1796L27.6879 31.538L28.8049 33.0042ZM28.6188 31.8452L28.3837 32.0244L28.023 31.559L28.2743 31.3681C28.3186 31.3356 28.3628 31.3076 28.4093 31.2844C28.4559 31.2611 28.5001 31.2471 28.5443 31.2425C28.5885 31.2378 28.6304 31.2425 28.67 31.2588C28.7119 31.275 28.7491 31.3053 28.7817 31.3495C28.8166 31.3937 28.8352 31.4356 28.8399 31.4798C28.8445 31.5217 28.8375 31.566 28.8212 31.6078C28.8049 31.6497 28.7793 31.6916 28.7444 31.7312C28.7095 31.7708 28.6676 31.808 28.6188 31.8452ZM30.4246 31.7055L30.2198 31.9056L29.503 30.0299L29.6705 29.867L31.5254 30.6326L31.3159 30.8374L30.8644 30.6443L30.2384 31.2563L30.4246 31.7055ZM30.1476 31.0259L30.641 30.5442L29.7916 30.1672L30.1476 31.0259ZM32.4355 29.1526L31.9188 29.7926L30.6644 28.7779L30.5015 28.978L31.9351 30.137L32.6147 29.2968L32.4355 29.1526ZM3.86762 16.1915C4.17482 16.9153 4.85205 17.3295 5.7271 17.3295C6.86513 17.3295 7.72389 16.5336 7.72389 15.4794C7.72389 14.4786 6.7255 14.0062 5.8551 13.706C5.13831 13.457 4.31678 13.08 4.31678 12.3981C4.31678 11.6115 4.94747 11.0413 5.81787 11.0413C6.47415 11.0413 6.98615 11.3485 7.2212 11.8814L7.26542 11.9815L7.72156 11.786L7.67735 11.6836C7.3748 10.9715 6.68128 10.5456 5.81787 10.5456C4.67984 10.5456 3.82108 11.3415 3.82108 12.3958C3.82108 13.3965 4.81947 13.8689 5.68987 14.1691C6.40666 14.4181 7.22819 14.7952 7.22819 15.477C7.22819 16.2637 6.5975 16.8338 5.7271 16.8338C5.07082 16.8338 4.55882 16.5266 4.32377 15.9937L4.27955 15.8936L3.82341 16.0891L3.86762 16.1915ZM12.4948 17.2201H12.9882V10.6549H12.4948V13.3196H9.58105V10.6549H9.08767V17.2201H9.58105V13.813H12.4948V17.2201ZM14.3049 13.9363C14.3049 15.7934 15.8153 17.3015 17.6702 17.3015C19.525 17.3015 21.0354 15.7911 21.0354 13.9363C21.0354 12.0814 19.5273 10.5711 17.6702 10.5711C15.813 10.5711 14.3049 12.0814 14.3049 13.9363ZM14.8006 13.9363C14.8006 12.3537 16.0876 11.0668 17.6702 11.0668C19.2527 11.0668 20.542 12.3537 20.5397 13.9363C20.5397 15.5188 19.2527 16.8058 17.6702 16.8058C16.0876 16.8058 14.8006 15.5188 14.8006 13.9363ZM26.7585 17.2201H27.2519V10.1034L24.8036 14.6881L22.3554 10.1034V17.2178H22.8487V12.0699L24.8036 15.74L26.7585 12.0699V17.2201ZM28.5276 17.1293L28.9907 17.2946L29.6609 15.5049H32.5351L33.2077 17.2946L33.6708 17.1293L31.0992 10.2942L28.5276 17.1293ZM32.3443 15.0139H29.8471L31.0992 11.6975L32.3443 15.0139ZM4.20536 25.4308C4.40317 25.4448 4.6359 25.4541 4.82906 25.4541C6.52098 25.4541 7.57057 24.8211 7.57057 23.8018C7.57057 23.1199 7.09814 22.5962 6.26032 22.3332C6.79327 22.0749 7.09116 21.6397 7.09116 21.0998C7.09116 20.1642 6.24636 19.6057 4.82906 19.6057C4.63823 19.6057 4.40317 19.615 4.20536 19.629L4.10295 19.636V25.4238L4.20536 25.4308ZM4.82906 24.991C4.74761 24.991 4.65917 24.991 4.56375 24.9886H4.56608V22.5986H4.82208C6.25334 22.5986 7.10977 23.0477 7.10977 23.7994C7.10977 24.5441 6.25567 24.991 4.82906 24.991ZM4.90819 22.1378H4.56375V20.0665C4.60216 20.0656 4.64018 20.0661 4.67692 20.0667H4.677H4.67708H4.67716H4.67724H4.67731H4.67739H4.67746H4.67753H4.6776H4.67767H4.67771C4.73196 20.0675 4.78339 20.0683 4.82906 20.0642C5.97174 20.0642 6.62803 20.4412 6.62803 21.0975C6.62803 21.7491 5.98571 22.1378 4.90819 22.1378ZM8.4296 25.3609L8.86247 25.5169L9.45592 23.9343H11.9763L12.5721 25.5169L13.005 25.3609L10.7173 19.2845L8.4296 25.3609ZM11.7948 23.4735H9.62814L10.715 20.597L11.7948 23.4735ZM13.8961 25.4472H17.6942V24.9841H14.6967L17.7989 19.6267H14.0008V20.0898H16.9984L13.8961 25.4472ZM18.6945 25.3609L19.1274 25.5169L19.7232 23.9343H22.2413L22.837 25.5169L23.2699 25.3609L20.9822 19.2845L18.6945 25.3609ZM22.0621 23.4735H19.8954L20.9822 20.597L22.0621 23.4735ZM24.1665 25.3609L24.5993 25.5169L25.1951 23.9343H27.7132L28.309 25.5169L28.7418 25.3609L26.4541 19.2845L24.1665 25.3609ZM27.5317 23.4735H25.365L26.4518 20.597L27.5317 23.4735ZM31.574 23.4525L33.1798 25.561L33.5475 25.2887L32.0441 23.3105C32.8749 22.9777 33.3846 22.3284 33.3846 21.586C33.3846 20.6016 32.4141 19.6032 30.5616 19.6032C30.3708 19.6032 30.1357 19.6125 29.9379 19.6265L29.8355 19.6334V25.4446H30.2987V23.5479C30.792 23.5781 31.2109 23.5386 31.574 23.4525ZM30.3064 23.0875L30.2987 23.0871V20.0663C30.3373 20.0654 30.3756 20.066 30.4126 20.0665C30.4668 20.0674 30.5183 20.0681 30.564 20.064C32.1861 20.064 32.9238 20.8506 32.9238 21.5837C32.9238 22.3121 32.1861 23.0964 30.564 23.0964C30.4848 23.0964 30.3968 23.092 30.3064 23.0875Z" fill="#1C1C1C"/>
</svg>
