<svg width="82" height="36" viewBox="0 0 82 36" fill="none" xmlns="http://www.w3.org/2000/svg">
<g clip-path="url(#clip0_2165_16318)">
<path d="M12.0533 22.9317C11.7589 22.7113 11.3587 22.6333 10.848 22.6976L10.5352 22.7366L10.5467 25.6591C10.6226 25.6568 10.6893 25.6522 10.7445 25.6499C10.802 25.6453 10.848 25.643 10.8871 25.6361C11.3794 25.5742 11.7704 25.3905 12.0602 25.0852C12.3524 24.7798 12.4973 24.3987 12.495 23.9442C12.495 23.4896 12.3455 23.1521 12.051 22.934L12.0533 22.9317Z" fill="#1C1C1C"/>
<path d="M49.6805 12.6366L49.5586 12.6527L49.5908 20.4101C51.0009 20.1622 51.7001 18.8031 51.6909 16.3351C51.6863 15.1184 51.5023 14.1794 51.1412 13.5205C50.78 12.8547 50.2924 12.5609 49.6828 12.6366H49.6805Z" fill="#1C1C1C"/>
<path d="M69.6875 9.76396L69.5449 9.78232L69.561 13.4142L69.8256 13.3821C70.2787 13.3247 70.656 13.0974 70.9573 12.698C71.2586 12.2985 71.4081 11.8187 71.4058 11.2585C71.4012 10.1198 70.8285 9.62162 69.6898 9.76396H69.6875Z" fill="#1C1C1C"/>
<path d="M0 9.82131V36L82 26.1787V0L0 9.82131ZM15.3175 27.1659C14.5147 28.0704 13.4543 28.603 12.1385 28.7683L6.62248 29.457L6.55807 14.2177L11.1402 13.6461C12.8539 13.4326 14.1237 13.669 14.9517 14.3555C15.7936 15.0603 16.2169 16.0543 16.2215 17.3377C16.2284 19.2455 15.3267 20.391 13.5141 20.7767C14.5469 20.8066 15.306 21.066 15.7913 21.5596C16.2744 22.0532 16.5205 22.8177 16.5251 23.8577C16.5297 25.1663 16.1295 26.2705 15.3198 27.1682L15.3175 27.1659ZM17.4498 28.1048L17.3854 12.8655L21.3235 12.3742L21.3718 23.9518L24.3276 23.5822L24.3437 27.2439L17.4475 28.1048H17.4498ZM25.1304 27.1452L25.066 11.9059L32.3878 10.9922L32.4039 14.5759L29.0225 14.9983L29.0317 17.2183L32.0635 16.8395L32.0773 20.2831L29.0455 20.6619L29.0547 22.9922L32.4361 22.5697L32.4522 26.2315L25.1304 27.1452V27.1452ZM40.2547 25.2581L38.2466 19.8998C38.0373 19.3281 37.8463 18.7886 37.6784 18.2881C37.5082 17.7853 37.361 17.3055 37.2322 16.8487C37.3196 17.9116 37.3817 18.8368 37.4231 19.6289C37.4645 20.4209 37.4852 21.1165 37.4875 21.7134L37.5036 25.6024L33.7449 26.0708L33.6805 10.8315L37.4392 10.3631L39.4358 15.4666C39.5439 15.7697 39.6658 16.1163 39.8039 16.5066C39.9419 16.8969 40.0914 17.3491 40.2593 17.8611L40.6711 19.1536C40.5215 17.8496 40.4065 16.7316 40.326 15.7995C40.2455 14.8674 40.2064 14.0823 40.2018 13.444L40.188 10.0187L43.9466 9.55041L44.0111 24.7897L40.2524 25.2581H40.2547ZM53.9367 21.7938C52.9154 23.0932 51.388 23.8691 49.3523 24.124L45.6672 24.5831L45.6028 9.34379L49.0026 8.91907C50.9487 8.67572 52.4645 9.03386 53.5526 9.9912C54.981 11.2424 55.701 13.1502 55.7125 15.7169C55.724 18.2445 55.1306 20.2694 53.9321 21.7961L53.9367 21.7938ZM57.0421 23.1643L56.9777 7.92501L64.2994 7.01129L64.3155 10.595L60.9341 11.0174L60.9433 13.2374L63.9751 12.8586L63.9889 16.3023L60.9571 16.6811L60.9663 19.0113L64.3477 18.5889L64.3638 22.2506L57.0421 23.1643V23.1643ZM71.7684 21.3254L69.7994 16.1393C69.781 16.0497 69.7465 15.9327 69.6982 15.7857C69.6498 15.6411 69.5923 15.4666 69.521 15.2646L69.5532 16.2678L69.5762 21.5986L65.6566 22.0876L65.5922 6.84829L69.6245 6.34551C71.4004 6.12282 72.7299 6.32256 73.6155 6.94241C74.7403 7.73675 75.3062 8.99713 75.3131 10.719C75.32 12.5625 74.5724 13.9284 73.0704 14.8215L76.0262 20.7928L71.7661 21.3254H71.7684Z" fill="#1C1C1C"/>
<path d="M11.9057 19.1288C12.1794 18.8648 12.3151 18.525 12.3128 18.1095C12.3082 17.2279 11.8436 16.8445 10.9189 16.9593C10.8752 16.9639 10.82 16.9731 10.7532 16.9845C10.6865 16.996 10.606 17.0121 10.5117 17.0305L10.5232 19.6453L10.7878 19.6132C11.2593 19.5535 11.6319 19.3928 11.9057 19.1288Z" fill="#1C1C1C"/>
</g>
<defs>
<clipPath id="clip0_2165_16318">
<rect width="82" height="36" fill="white"/>
</clipPath>
</defs>
</svg>
