<svg width="132" height="29" viewBox="0 0 132 29" fill="none" xmlns="http://www.w3.org/2000/svg">
<path d="M95.1002 0.299061H104.06C104.22 0.349061 104.38 0.339062 104.54 0.339062C107.82 0.359062 111.1 0.439062 114.38 0.539062C119.03 0.679063 123.68 0.89906 128.33 1.16906C129.59 1.23906 130.68 2.15906 130.87 3.35906C131.11 4.97906 131.29 6.59906 131.43 8.22906C131.56 9.74906 131.6 11.2791 131.69 12.7991V16.0691C131.68 16.1891 131.65 16.3191 131.65 16.4391C131.59 19.3191 131.32 22.1791 130.94 25.0291C130.75 26.4291 129.94 27.3591 128.65 27.5691C128.19 27.6491 127.71 27.6391 127.23 27.6691C124.06 27.8691 120.9 28.0091 117.73 28.1291C114.92 28.2391 112.1 28.3291 109.29 28.3691C109.19 28.3691 109.1 28.3891 109 28.3991H90.1702C90.0802 28.3891 89.9902 28.3691 89.9102 28.3691C86.3602 28.3091 82.8202 28.1891 79.2702 28.0391C76.4102 27.9191 73.5602 27.7791 70.7002 27.5991C69.5502 27.5291 68.4602 26.5691 68.2902 25.4491C68.0802 24.0791 67.9302 22.6991 67.8002 21.3291C67.6402 19.6891 67.5902 18.0291 67.4902 16.3891V12.3691C67.5002 12.2391 67.5302 12.1091 67.5302 11.9691C67.6102 9.12906 67.8702 6.29906 68.2802 3.47906C68.4702 2.18906 69.5102 1.23906 70.8102 1.15906C74.4102 0.949061 78.0202 0.759063 81.6302 0.629063C85.7602 0.479063 89.8802 0.369063 94.0102 0.329063C94.3802 0.329063 94.7402 0.359063 95.1102 0.289062L95.1002 0.299061ZM89.7502 13.6291C89.7702 13.5091 89.7902 13.3991 89.8202 13.2891C89.9902 12.5091 90.1702 11.7391 90.3502 10.9591C90.4102 10.6791 90.4002 10.6491 90.1002 10.6491C89.8502 10.6491 89.6002 10.6591 89.3502 10.6491C89.1302 10.6391 89.0402 10.7391 88.9902 10.9491C88.7702 12.0191 88.5202 13.0791 88.3002 14.1491C88.1602 14.8191 87.9602 15.4791 87.9002 16.1691C87.8202 17.1691 88.2602 17.9991 89.0902 18.2691C90.2802 18.6491 91.4002 18.4891 92.3202 17.5891C93.0602 16.8691 93.3802 15.9391 93.3802 14.9191C93.3802 13.9791 92.8602 13.2891 92.0502 13.0891C91.2902 12.8991 90.5802 13.0191 89.9502 13.5191C89.9002 13.5591 89.8602 13.6291 89.7502 13.6291ZM83.8402 10.7191C83.1702 10.7191 82.5002 10.7191 81.8302 10.7191C81.6502 10.7191 81.5602 10.7691 81.5202 10.9591C81.3602 11.7091 81.1902 12.4591 81.0302 13.2091C80.6802 14.8091 80.3302 16.4191 79.9702 18.0191C79.9202 18.2391 79.9802 18.2891 80.1802 18.2891C80.5102 18.2891 80.8402 18.2791 81.1702 18.2891C81.4002 18.2991 81.5002 18.2291 81.5502 17.9891C81.7302 17.1391 81.9402 16.2991 82.1202 15.4591C82.1602 15.2591 82.2502 15.1791 82.4602 15.1891C83.1502 15.1991 83.8402 15.1891 84.5202 15.1891C84.6902 15.1891 84.7802 15.1291 84.8202 14.9591C84.8802 14.6991 84.9702 14.4491 85.0502 14.1891C85.1402 13.8991 85.1302 13.8891 84.8302 13.8891C84.1202 13.8891 83.4202 13.8891 82.7102 13.8891C82.5102 13.8891 82.4102 13.8591 82.4802 13.6191C82.6002 13.1791 82.7102 12.7391 82.8002 12.2891C82.8402 12.0791 82.9302 12.0091 83.1402 12.0191C83.8402 12.0291 84.5302 12.0191 85.2302 12.0191C85.4502 12.0191 85.5702 11.9491 85.6502 11.7391C85.7502 11.4791 85.8702 11.2291 85.9902 10.9791C86.0902 10.7791 86.0702 10.6991 85.8202 10.6991C85.1602 10.7091 84.5002 10.6991 83.8402 10.6991V10.7191ZM96.8902 16.1991C97.4502 16.1991 98.0202 16.1991 98.5802 16.1991C98.7602 16.1991 98.8602 16.1391 98.8902 15.9491C98.9702 15.5491 99.0402 15.1391 99.0102 14.7291C98.9602 13.7291 98.3402 13.0891 97.3702 13.0191C95.3802 12.8691 93.6802 14.5691 93.8102 16.5691C93.8602 17.4091 94.3502 18.0591 95.1502 18.2891C96.3302 18.6391 97.3502 18.2991 98.2402 17.4891C98.3502 17.3891 98.3302 17.3191 98.2402 17.2291C98.0902 17.0991 97.9402 16.9791 97.8002 16.8291C97.6402 16.6591 97.5202 16.6491 97.3402 16.8191C96.9502 17.1891 96.4902 17.3591 95.9402 17.3091C95.4502 17.2591 95.1102 16.9491 95.0502 16.4891C95.0202 16.2891 95.0602 16.1891 95.2902 16.1991C95.8302 16.2091 96.3602 16.1991 96.9002 16.1991H96.8902ZM109.19 16.1991C109.74 16.1991 110.3 16.1991 110.85 16.1991C110.99 16.1991 111.11 16.1791 111.15 15.9991C111.24 15.5791 111.32 15.1591 111.29 14.7291C111.21 13.6191 110.55 13.0091 109.43 13.0091C107.6 13.0091 106.09 14.4991 106.06 16.3391C106.05 17.3591 106.64 18.1391 107.64 18.3491C108.74 18.5791 109.68 18.2391 110.5 17.4891C110.62 17.3791 110.6 17.2991 110.49 17.2091C110.35 17.0891 110.2 16.9691 110.07 16.8291C109.91 16.6491 109.78 16.6391 109.59 16.8091C109.21 17.1691 108.75 17.3391 108.22 17.2991C107.73 17.2591 107.4 16.9691 107.31 16.4991C107.27 16.2791 107.31 16.1891 107.56 16.1891C108.1 16.1991 108.65 16.1891 109.19 16.1891V16.1991ZM105.38 17.0891C105.05 17.2191 104.79 17.2791 104.5 17.2491C104.2 17.2191 104.07 17.0691 104.08 16.7691C104.08 16.6691 104.1 16.5691 104.12 16.4791C104.26 15.8191 104.41 15.1691 104.54 14.5091C104.57 14.3491 104.65 14.2891 104.81 14.2991C105.11 14.3091 105.42 14.2991 105.72 14.2991C105.89 14.2991 106 14.2591 106.07 14.0891C106.17 13.8191 106.29 13.5591 106.42 13.3091C106.53 13.0791 106.45 13.0291 106.23 13.0391C105.88 13.0391 105.53 13.0391 105.18 13.0391C104.84 13.0391 104.84 13.0391 104.92 12.6991C104.99 12.4091 105.05 12.1191 105.12 11.8391C105.17 11.6491 105.14 11.5591 104.91 11.5691C104.65 11.5891 104.39 11.5891 104.13 11.5691C103.87 11.5491 103.77 11.6491 103.72 11.8991C103.46 13.1791 103.18 14.4491 102.92 15.7291C102.8 16.2991 102.62 16.8591 102.64 17.4491C102.66 17.9491 102.89 18.2491 103.38 18.3691C103.9 18.4891 104.41 18.4491 104.92 18.3291C105.02 18.3091 105.11 18.2691 105.14 18.1591C105.21 17.8291 105.28 17.4991 105.37 17.1091L105.38 17.0891ZM113.76 10.6691C113.69 10.6691 113.62 10.6691 113.55 10.6691C113.04 10.6691 113.11 10.6091 113 11.1091C112.72 12.3991 112.45 13.6891 112.17 14.9791C111.96 15.9691 111.75 16.9491 111.54 17.9391C111.487 18.1724 111.584 18.2891 111.83 18.2891C112.04 18.2891 112.26 18.2791 112.47 18.2891C112.73 18.3091 112.84 18.2191 112.9 17.9491C113.36 15.7391 113.84 13.5291 114.31 11.3291C114.45 10.6691 114.45 10.6691 113.76 10.6691V10.6691ZM102.14 13.0391C100.69 12.9691 100.04 13.6691 99.7202 14.7791C99.4202 15.8591 99.2302 16.9791 98.9802 18.0691C98.9502 18.2191 99.0002 18.2891 99.1602 18.2891C99.4302 18.2891 99.7002 18.2791 99.9602 18.2891C100.22 18.3091 100.31 18.1991 100.36 17.9491C100.54 17.0491 100.74 16.1491 100.95 15.2591C101.12 14.5191 101.41 14.2991 102.17 14.2991C102.23 14.2991 102.3 14.2991 102.36 14.2991C102.49 14.3091 102.56 14.2491 102.58 14.1291C102.64 13.8291 102.7 13.5291 102.76 13.2391C102.79 13.0991 102.73 13.0391 102.59 13.0391C102.42 13.0391 102.25 13.0391 102.12 13.0391H102.14ZM85.8002 18.2891C85.8902 18.2891 85.9802 18.2791 86.0702 18.2891C86.3702 18.3291 86.5302 18.2191 86.5302 17.9091C86.5302 17.8791 86.5402 17.8591 86.5502 17.8291C86.8702 16.3491 87.1802 14.8591 87.5102 13.3791C87.5502 13.1791 87.5102 13.1191 87.3102 13.1291C87.0302 13.1291 86.7602 13.1391 86.4802 13.1291C86.2702 13.1191 86.1902 13.1991 86.1402 13.4091C85.8502 14.8091 85.5402 16.1991 85.2402 17.5991C85.0902 18.2891 85.1002 18.2891 85.8002 18.2891V18.2891ZM87.0802 12.2591C87.6202 12.2591 88.0802 11.7891 88.0702 11.2691C88.0702 10.8891 87.7802 10.6491 87.3802 10.6491C86.8702 10.6491 86.4102 11.1291 86.4202 11.6391C86.4202 12.0191 86.6802 12.2591 87.0802 12.2491V12.2591Z" fill="#1C1C1C"/>
<path d="M91.9901 15.28C91.9801 16.24 91.3801 17.02 90.5601 17.17C89.7501 17.31 89.2101 16.83 89.2501 16.01C89.3001 15.07 90.0401 14.28 90.9101 14.24C91.6301 14.21 92.0001 14.57 91.9901 15.28Z" fill="#1C1C1C"/>
<path d="M96.481 15.1588C96.141 15.1588 95.8009 15.1588 95.4609 15.1588C95.3109 15.1588 95.2809 15.1088 95.3309 14.9688C95.6109 14.2788 96.501 13.8688 97.201 14.1188C97.551 14.2388 97.7409 14.5588 97.7209 14.9388C97.7209 15.0888 97.6509 15.1688 97.4909 15.1588C97.1509 15.1588 96.8109 15.1588 96.4709 15.1588H96.481Z" fill="#1C1C1C"/>
<path d="M108.751 15.1592C108.411 15.1592 108.071 15.1592 107.731 15.1592C107.581 15.1592 107.541 15.1192 107.601 14.9692C107.881 14.2892 108.741 13.8792 109.451 14.1092C109.821 14.2292 110.041 14.5792 109.991 14.9592C109.971 15.0992 109.911 15.1592 109.761 15.1592C109.421 15.1592 109.081 15.1592 108.741 15.1592H108.751Z" fill="#1C1C1C"/>
<path d="M0.430145 17.9788V11.4988C0.450145 11.3888 0.480148 11.2888 0.480148 11.1788C0.560148 8.78883 0.820152 6.41883 1.14015 4.04883C1.22015 3.47883 1.34016 2.93883 1.71016 2.46883C2.33016 1.69883 3.15015 1.37883 4.12015 1.33883C5.89015 1.26883 7.65016 1.17883 9.41016 1.07883C12.6002 0.898831 15.8002 0.79883 18.9902 0.69883C20.7602 0.63883 22.5301 0.628827 24.2901 0.598827C24.4401 0.598827 24.5801 0.568828 24.7301 0.548828H41.0202C41.2302 0.628828 41.4502 0.598827 41.6602 0.598827C43.5502 0.638827 45.4402 0.648828 47.3302 0.708828C51.0402 0.848828 54.7401 1.00883 58.4501 1.17883C59.6501 1.22883 60.8501 1.28883 62.0401 1.41883C63.1901 1.53883 64.1302 2.48883 64.3102 3.63883C64.6202 5.68883 64.8502 7.75883 64.9602 9.82883C64.9902 10.4588 65.0501 11.0888 65.0901 11.7188V17.7188C65.0401 18.3488 64.9902 18.9788 64.9602 19.6088C64.8402 21.6588 64.6302 23.6988 64.3202 25.7288C64.1202 27.0088 63.1502 27.9488 61.8602 28.0288C59.0202 28.2088 56.1802 28.3788 53.3302 28.4888C50.4002 28.6088 47.4802 28.7388 44.5502 28.7688C44.4002 28.7688 44.2602 28.7988 44.1102 28.8188H21.4202C21.3002 28.7988 21.1802 28.7688 21.0602 28.7688C17.2602 28.7088 13.4602 28.5488 9.66016 28.3688C7.67016 28.2688 5.67015 28.1788 3.68015 28.0388C2.43015 27.9488 1.40015 27.0288 1.20015 25.7988C0.88015 23.8188 0.680156 21.8188 0.550156 19.8088C0.510156 19.1888 0.460156 18.5788 0.410156 17.9588L0.430145 17.9788ZM19.0202 13.7188C19.0202 14.4988 19.0102 15.2788 19.0202 16.0688C19.0502 17.6388 19.7501 18.4588 21.1801 18.6688C22.4701 18.8588 23.6501 18.2488 24.0901 17.1288C24.4401 16.2388 24.4102 15.3588 23.9602 14.5088C23.2802 13.2188 21.7002 12.8888 20.5502 13.7888C20.4902 13.8388 20.4102 13.9088 20.3502 13.8988C20.2302 13.8788 20.2601 13.7488 20.2601 13.6588C20.2601 12.9988 20.2601 12.3388 20.2601 11.6788C20.2601 10.8388 20.2602 10.8488 19.4402 10.8688C19.1302 10.8688 19.0101 10.9888 19.0101 11.3088C19.0201 12.1188 19.0101 12.9288 19.0101 13.7388L19.0202 13.7188ZM7.50015 14.6888C7.49015 15.3488 7.59015 15.9788 7.83015 16.5888C8.59015 18.4488 11.0802 19.1988 12.6602 18.0588C13.4202 17.4988 13.4202 17.3388 12.6602 16.7888C12.4602 16.6388 12.3201 16.6388 12.1501 16.8388C11.3401 17.7788 9.89016 17.4888 9.24016 16.5488C8.55016 15.5588 8.56015 13.7488 9.26015 12.7788C9.96015 11.8188 11.2702 11.6988 12.1302 12.5188C12.4168 12.7922 12.7201 12.8055 13.0401 12.5588C13.4201 12.2688 13.4302 12.1888 13.1102 11.8188C12.0802 10.6288 10.2802 10.4388 8.96016 11.3788C7.82016 12.1888 7.51016 13.3688 7.49016 14.6788L7.50015 14.6888ZM30.0901 16.3388C30.5801 16.3388 31.0602 16.3388 31.5502 16.3388C31.7902 16.3388 31.9401 16.2588 31.9301 15.9888C31.9001 14.5488 31.2002 13.1088 29.3002 13.2988C28.2202 13.4088 27.3502 14.0888 27.1002 15.0988C26.7902 16.3588 27.1802 17.5288 28.1102 18.1088C29.1502 18.7588 30.5802 18.6588 31.3802 17.8588C31.4802 17.7588 31.6601 17.6488 31.5401 17.4888C31.3801 17.2588 31.1302 17.0888 30.8802 16.9688C30.6702 16.8688 30.5802 17.1088 30.4602 17.2088C29.7402 17.7988 28.6402 17.5588 28.3602 16.7488C28.2602 16.4788 28.3202 16.3388 28.6302 16.3388C29.1202 16.3388 29.6001 16.3388 30.0901 16.3388V16.3388ZM49.4102 13.2788C47.8502 13.2788 46.8602 14.2788 46.8302 15.8788C46.8102 17.4088 47.8702 18.5188 49.3802 18.5288C50.8702 18.5288 51.9401 17.4688 51.9501 15.9488C51.9501 14.3188 50.9802 13.2888 49.4102 13.2788ZM17.0901 17.7888C17.1301 17.9088 17.1401 17.9588 17.1501 18.0088C17.2501 18.4688 17.6201 18.3688 17.9301 18.3688C18.2701 18.3688 18.2402 18.0988 18.2402 17.8688C18.2402 16.9288 18.2501 15.9788 18.2301 15.0388C18.2101 14.3188 17.9202 13.6988 17.1902 13.4488C16.3002 13.1388 15.4102 13.1688 14.5702 13.6588C14.0502 13.9588 14.0602 14.1388 14.5302 14.5088C14.7402 14.6788 14.8702 14.5488 15.0302 14.4588C15.6802 14.0788 16.4302 14.0788 16.8502 14.4688C17.0302 14.6388 17.1802 14.8588 17.1002 15.1088C17.0202 15.3488 16.7602 15.2788 16.5702 15.2888C15.9502 15.3088 15.3302 15.3188 14.7402 15.5488C14.0502 15.8188 13.7102 16.3488 13.7502 17.0888C13.7902 17.7488 14.2202 18.2488 14.9102 18.4288C15.7402 18.6388 16.4501 18.4288 17.0901 17.7788V17.7888ZM52.8202 15.8588C52.8202 16.5488 52.8202 17.2388 52.8202 17.9288C52.8202 18.0888 52.8002 18.2588 52.9902 18.3488C53.5502 18.6188 54.0602 18.3188 54.0702 17.7088C54.0802 16.9288 54.0002 16.1388 54.1102 15.3588C54.2102 14.6788 54.6302 14.3488 55.2802 14.3788C55.8102 14.3988 56.0602 14.7088 56.1402 15.4088C56.2402 16.2388 56.1802 17.0788 56.1902 17.9188C56.1902 18.2488 56.3201 18.3988 56.6501 18.3688C56.7801 18.3688 56.9202 18.3688 57.0502 18.3688C57.2902 18.3688 57.3902 18.2388 57.3902 18.0088C57.3902 16.9588 57.4201 15.8988 57.3701 14.8488C57.3301 13.8788 56.6702 13.2988 55.7102 13.2688C55.1302 13.2488 54.6101 13.3788 54.2301 13.8588C54.1601 13.9488 54.0101 14.0488 54.0101 13.8588C54.0101 13.2588 53.6002 13.3888 53.2502 13.3688C52.9102 13.3488 52.7902 13.4988 52.8002 13.8288C52.8102 14.4988 52.8002 15.1788 52.8002 15.8488L52.8202 15.8588ZM41.7502 18.5188C42.0502 18.5388 42.3402 18.4688 42.6302 18.4088C42.8502 18.3588 43.0701 18.2688 43.2601 18.1388C43.7601 17.8088 43.9602 17.3388 43.9202 16.7588C43.8802 16.1988 43.5802 15.8188 43.0702 15.6288C42.6002 15.4588 42.1102 15.3588 41.6402 15.2088C41.4302 15.1388 41.2402 15.0288 41.2502 14.7588C41.2502 14.4788 41.4501 14.3588 41.6801 14.2888C42.0801 14.1688 42.4302 14.2688 42.7402 14.5288C42.9302 14.6888 43.0602 14.6788 43.2202 14.5088C43.3002 14.4188 43.3902 14.3288 43.4902 14.2588C43.8002 14.0388 43.7101 13.8588 43.4501 13.6688C42.7101 13.1288 41.3102 13.1188 40.5802 13.6688C40.3902 13.8088 40.2502 13.9788 40.1402 14.1888C39.7502 14.9788 40.0602 15.8088 40.8902 16.1088C41.3502 16.2688 41.8301 16.3688 42.2901 16.5188C42.5201 16.5888 42.6901 16.7488 42.6801 17.0288C42.6701 17.2988 42.4901 17.4388 42.2601 17.5188C41.7701 17.6988 41.3202 17.5688 40.9402 17.2388C40.7202 17.0488 40.5502 17.0388 40.3602 17.2588C40.2702 17.3588 40.1702 17.4488 40.0702 17.5388C39.8702 17.7088 39.9001 17.8388 40.0901 17.9988C40.5801 18.3888 41.1501 18.5088 41.7601 18.5188H41.7502ZM34.5602 18.3688C34.8502 18.3388 35.2101 18.4988 35.3701 18.0588C35.9101 16.6088 36.4601 15.1588 37.0101 13.7088C37.0501 13.6088 37.1002 13.4988 36.9902 13.4188C36.7002 13.1988 35.8502 13.4488 35.7202 13.7988C35.4002 14.6888 35.0801 15.5788 34.7601 16.4588C34.7201 16.5588 34.7002 16.6988 34.5802 16.7088C34.4502 16.7088 34.4301 16.5688 34.4001 16.4688C34.1201 15.7088 33.8602 14.9488 33.5802 14.1888C33.2602 13.2888 33.4302 13.3988 32.4202 13.3988C32.0002 13.3988 31.9701 13.4388 32.1201 13.8388C32.6301 15.1588 33.1702 16.4688 33.6602 17.7988C33.8202 18.2488 34.0402 18.4988 34.5502 18.3888L34.5602 18.3688ZM25.0101 14.6088C25.0101 15.6988 25.0101 16.7988 25.0101 17.8888C25.0101 18.2288 25.1201 18.3988 25.4801 18.3688C25.6001 18.3588 25.7201 18.3688 25.8401 18.3688C26.1501 18.3888 26.2702 18.2488 26.2702 17.9388C26.2702 15.7288 26.2702 13.5088 26.2702 11.2988C26.2702 10.9888 26.1702 10.8388 25.8502 10.8588C25.7302 10.8588 25.6102 10.8688 25.4902 10.8588C25.1402 10.8288 25.0102 10.9788 25.0202 11.3288C25.0302 12.4188 25.0202 13.5188 25.0202 14.6088H25.0101ZM37.7402 15.8388C37.7402 16.5388 37.7402 17.2388 37.7402 17.9388C37.7402 18.2488 37.8602 18.3888 38.1702 18.3688C38.2602 18.3688 38.3601 18.3688 38.4501 18.3688C38.9501 18.3688 38.9802 18.3288 38.9902 17.8388C38.9902 16.5288 38.9902 15.2188 38.9902 13.9088C38.9902 13.3788 38.9702 13.3688 38.4402 13.3688C38.3902 13.3688 38.3302 13.3688 38.2802 13.3688C37.7702 13.3688 37.7502 13.3888 37.7402 13.8888C37.7402 14.5388 37.7402 15.1888 37.7402 15.8288V15.8388ZM46.0401 15.9088C46.0401 15.2388 46.0201 14.5588 46.0401 13.8888C46.0501 13.4988 45.9102 13.3288 45.5302 13.3788C45.4502 13.3788 45.3701 13.3788 45.2901 13.3788C44.8901 13.3288 44.7802 13.5188 44.7802 13.8988C44.8002 15.2188 44.8002 16.5488 44.7802 17.8688C44.7802 18.2588 44.9101 18.4288 45.2901 18.3888C45.3601 18.3888 45.4202 18.3888 45.4902 18.3888C45.9902 18.3888 46.0302 18.3588 46.0302 17.8688C46.0302 17.2188 46.0302 16.5688 46.0302 15.9288L46.0401 15.9088ZM51.3401 11.0488L51.2802 10.9188C50.9302 10.8188 50.5802 10.8788 50.2202 10.8788C50.1102 10.8788 50.0102 10.9288 49.9402 11.0188C49.6802 11.3888 49.4102 11.7688 49.1602 12.1388C49.1102 12.2188 49.0602 12.3388 49.2102 12.3488C49.5202 12.3488 49.8502 12.4488 50.1302 12.1788C50.5302 11.7988 50.9302 11.4288 51.3302 11.0488H51.3401ZM38.3602 10.8688C37.9502 10.8688 37.6202 11.1688 37.6102 11.5588C37.6102 11.9188 37.9702 12.2688 38.3502 12.2688C38.7502 12.2688 39.0802 11.9588 39.0802 11.5688C39.0802 11.1588 38.7802 10.8788 38.3502 10.8788L38.3602 10.8688ZM46.1402 11.5688C46.1402 11.1588 45.8502 10.8688 45.4102 10.8688C45.0002 10.8688 44.7002 11.1388 44.6902 11.5288C44.6802 11.9288 44.9901 12.2488 45.4001 12.2588C45.8001 12.2588 46.1402 11.9488 46.1402 11.5588V11.5688Z" fill="#1C1C1C"/>
<path d="M20.25 15.9789C20.25 15.0389 20.8 14.4589 21.66 14.4689C22.5 14.4689 23.06 15.0989 23.06 16.0089C23.06 16.9089 22.47 17.5089 21.61 17.4989C20.76 17.4789 20.25 16.9089 20.26 15.9789H20.25Z" fill="#1C1C1C"/>
<path d="M29.4505 15.3997C29.1505 15.3997 28.8605 15.3997 28.5605 15.3997C28.3605 15.3997 28.2805 15.2897 28.3205 15.0797C28.4205 14.5997 28.9405 14.1897 29.4805 14.1797C30.0605 14.1797 30.5005 14.4997 30.6205 15.0097C30.6805 15.2697 30.6005 15.3997 30.3305 15.3997C30.0305 15.3997 29.7405 15.3997 29.4405 15.3997H29.4505Z" fill="#1C1C1C"/>
<path d="M50.6996 15.8185C50.6996 16.9685 49.9796 17.6085 49.0296 17.3585C48.6196 17.2485 48.3496 16.9985 48.1996 16.5985C48.0596 16.2085 48.0196 15.8185 48.1296 15.4085C48.3096 14.6985 48.7396 14.3585 49.4696 14.3885C50.1196 14.4085 50.5696 14.8285 50.6796 15.5285C50.6996 15.6485 50.6996 15.7685 50.6996 15.8185V15.8185Z" fill="#1C1C1C"/>
<path d="M15.8407 17.5985C15.3907 17.5985 15.0507 17.3485 15.0007 16.9985C14.9607 16.6385 15.1807 16.3785 15.6507 16.2585C16.0007 16.1685 16.3707 16.1685 16.7307 16.1485C16.9607 16.1285 17.0607 16.2585 17.0607 16.4885C17.0607 17.1385 16.5607 17.5985 15.8407 17.5985V17.5985Z" fill="#1C1C1C"/>
</svg>
