<svg width="81" height="19" viewBox="0 0 81 19" fill="none" xmlns="http://www.w3.org/2000/svg">
<path d="M27.1585 12.1487C27.1585 14.1187 27.1585 16.0787 27.1585 18.0487C27.1585 18.4787 27.1285 18.4987 26.7085 18.4987C25.9385 18.4987 25.1685 18.4987 24.3985 18.4987C24.0985 18.4987 24.0485 18.4487 24.0485 18.1487C24.0485 17.8187 24.0485 17.4887 24.0485 17.1687C24.0485 17.1287 24.0485 17.0687 24.0085 17.0487C23.9585 17.0187 23.9285 17.0687 23.8985 17.0987C23.4085 17.6587 22.7885 17.9887 22.0985 18.2087C21.0385 18.5487 19.9685 18.5887 18.8785 18.3487C17.9085 18.1387 17.0285 17.7287 16.2485 17.1287C15.4185 16.4887 14.7885 15.6687 14.3485 14.7087C13.8785 13.6687 13.6985 12.5887 13.7685 11.4587C13.8385 10.4287 14.1485 9.46873 14.6685 8.58873C15.2585 7.58873 16.0585 6.79873 17.0785 6.23873C17.8985 5.77873 18.7785 5.50873 19.7185 5.41873C20.6785 5.31873 21.5885 5.48873 22.4585 5.87873C22.9885 6.11873 23.4485 6.46873 23.8785 6.85873C23.9185 6.89873 23.9585 6.97873 24.0185 6.95873C24.0985 6.92873 24.0685 6.83873 24.0685 6.77873C24.0685 6.55873 24.0685 6.33873 24.0685 6.11873C24.0685 5.84873 24.1185 5.78873 24.3985 5.80873C25.0985 5.84873 25.7985 5.82873 26.4985 5.83873C26.6085 5.83873 26.7285 5.83873 26.8385 5.82873C27.0985 5.80873 27.1685 5.85873 27.1685 6.12873C27.1685 6.99873 27.1685 7.86873 27.1685 8.73873C27.1685 9.87873 27.1685 11.0287 27.1685 12.1687L27.1585 12.1487ZM24.1485 11.9487C24.1885 9.86873 22.5385 8.07873 20.2785 8.10873C18.1585 8.12873 16.4785 9.77873 16.4885 11.9687C16.4885 14.1887 18.2585 15.7687 20.3085 15.7887C22.4485 15.8087 24.1985 14.0587 24.1485 11.9487Z" fill="#1C1C1C"/>
<path d="M50.9783 17.0596C50.3883 17.6996 49.6583 18.0996 48.8383 18.3096C48.0383 18.5096 47.2283 18.5796 46.3983 18.4496C45.1283 18.2596 43.9983 17.7796 43.0283 16.9396C41.7683 15.8396 41.0183 14.4596 40.8283 12.7796C40.7383 12.0296 40.7483 11.2796 40.9083 10.5496C41.1083 9.59964 41.5083 8.72964 42.1083 7.95964C42.8383 7.03964 43.7183 6.32964 44.8183 5.88964C46.3983 5.25964 47.9883 5.18964 49.5583 5.91964C49.9883 6.11964 50.3883 6.39964 50.7383 6.73964C50.8183 6.81964 50.8983 6.95964 51.0083 6.90964C51.1083 6.86964 51.0483 6.71964 51.0483 6.60964C51.0483 6.42964 51.0483 6.23964 51.0483 6.05964C51.0483 5.89964 51.1283 5.80964 51.3083 5.80964C52.0283 5.80964 52.7383 5.80964 53.4583 5.80964C53.5983 5.80964 53.7483 5.80964 53.8883 5.78964C54.0983 5.77964 54.1683 5.83964 54.1683 6.04964C54.1683 9.25964 54.1583 12.4696 54.1583 15.6796C54.1583 16.5296 54.1183 17.3696 54.1883 18.2196C54.1983 18.3896 54.1183 18.4896 53.9283 18.4896C53.0583 18.4896 52.1883 18.4896 51.3183 18.4896C51.1083 18.4896 51.0383 18.3696 51.0383 18.1796C51.0383 17.8396 51.0383 17.4896 51.0383 17.1496C51.0383 17.1096 51.0383 17.0696 50.9783 17.0296V17.0596ZM47.3283 15.8096C49.4683 15.7896 51.2283 14.0396 51.1783 11.8596C51.1283 9.77964 49.4783 8.08964 47.3283 8.10964C45.1683 8.12964 43.5183 9.78964 43.5183 11.9496C43.5183 14.1696 45.2483 15.7396 47.3383 15.8096H47.3283Z" fill="#1C1C1C"/>
<path d="M67.3891 12.1691C67.3891 14.1991 67.3891 16.2291 67.3891 18.2491C67.3891 18.4291 67.3091 18.5091 67.1491 18.5091C66.3691 18.5091 65.5991 18.5091 64.8191 18.5091C64.6691 18.5091 64.5891 18.4291 64.5891 18.2791C64.5891 18.1991 64.5891 18.1091 64.5891 18.0291C64.5891 14.9591 64.5891 11.8891 64.5891 8.80906C64.5891 8.53573 64.4557 8.39906 64.1891 8.39906C62.9191 8.39906 61.6391 8.39906 60.3691 8.39906C60.0591 8.39906 60.0291 8.42906 60.0291 8.73906C60.0291 10.5191 60.0191 12.3091 60.0291 14.0891C60.0291 14.5291 60.0991 14.9691 60.4491 15.3091C60.6891 15.5491 60.9691 15.6691 61.2991 15.7091C61.6791 15.7691 62.0591 15.7591 62.4391 15.7491C62.6391 15.7491 62.7391 15.8191 62.7391 16.0191C62.7391 16.7191 62.7391 17.4191 62.7391 18.1191C62.7391 18.2491 62.6691 18.3391 62.5291 18.3491C61.3491 18.4591 60.1791 18.4891 59.0591 18.0391C58.2991 17.7391 57.8191 17.1691 57.5291 16.4091C57.2791 15.7591 57.2291 15.0891 57.2191 14.4091C57.2091 12.5291 57.2191 10.6591 57.2191 8.77906C57.2191 8.38906 57.2191 8.38906 56.8291 8.38906C56.2391 8.38906 55.6591 8.38906 55.0691 8.38906C54.8591 8.38906 54.7891 8.31906 54.7891 8.10906C54.7891 7.42906 54.7891 6.74906 54.7891 6.06906C54.7891 5.87906 54.8191 5.77906 55.0591 5.78906C55.6791 5.80906 56.2891 5.79906 56.9091 5.79906C57.1891 5.79906 57.2291 5.76906 57.2291 5.47906C57.2291 4.70906 57.2291 3.93906 57.2291 3.16906C57.2291 2.95906 57.2891 2.83906 57.5091 2.76906C58.2691 2.54906 59.0191 2.30906 59.7791 2.07906C59.9691 2.01906 60.0291 2.10906 60.0291 2.28906C60.0291 2.84906 60.0291 3.41906 60.0291 3.97906C60.0291 4.47906 60.0291 4.98906 60.0291 5.48906C60.0291 5.75906 60.0691 5.78906 60.3291 5.77906C60.5191 5.77906 60.7091 5.79906 60.8991 5.79906C62.7991 5.79906 64.6991 5.79906 66.5891 5.79906C66.7591 5.79906 66.9391 5.79906 67.1091 5.76906C67.3091 5.74906 67.3991 5.83906 67.3891 6.02906C67.3891 6.19906 67.3791 6.36906 67.3791 6.52906C67.3791 8.39906 67.3791 10.2691 67.3791 12.1291L67.3891 12.1691Z" fill="#1C1C1C"/>
<path d="M74.4795 18.5095C72.6395 18.5095 70.7895 18.5095 68.9495 18.5095C68.5495 18.5095 68.5195 18.4795 68.5195 18.0795C68.5195 17.4495 68.5195 16.8295 68.5195 16.1995C68.5195 16.0395 68.5695 15.9095 68.6795 15.7895C69.3495 15.1395 70.0195 14.4795 70.6795 13.8195C71.2195 13.2795 71.7595 12.7295 72.3095 12.1895C72.9895 11.5095 73.6795 10.8495 74.3595 10.1695C74.8895 9.64952 75.4195 9.11952 75.9395 8.58952C75.9795 8.54952 76.0395 8.51952 76.0195 8.45952C75.9995 8.37952 75.9195 8.41952 75.8595 8.41952C75.1295 8.41952 74.3995 8.39952 73.6695 8.39952C72.1495 8.39952 70.6395 8.39952 69.1195 8.39952C68.7595 8.39952 68.7395 8.37952 68.7395 8.02952C68.7395 7.39952 68.7395 6.77952 68.7395 6.14952C68.7395 5.81952 68.7695 5.78952 69.0895 5.81952C69.1495 5.81952 69.2095 5.81952 69.2695 5.81952C72.8995 5.81952 76.5295 5.81952 80.1595 5.81952C80.3495 5.81952 80.4195 5.88952 80.4095 6.06952C80.4095 6.79952 80.4095 7.52952 80.4095 8.26952C80.4095 8.37952 80.3595 8.45952 80.2895 8.52952C78.8795 9.91952 77.4595 11.3095 76.0495 12.6995C75.0395 13.6995 74.0295 14.7095 73.0195 15.7095C72.9795 15.7495 72.9095 15.7895 72.9495 15.8595C72.9895 15.9195 73.0595 15.8995 73.1195 15.8995C74.2295 15.8995 75.3495 15.8995 76.4595 15.8995C77.6895 15.8995 78.9295 15.8995 80.1595 15.8995C80.3395 15.8995 80.3995 15.9595 80.3995 16.1295C80.3995 16.8195 80.3995 17.4995 80.3995 18.1895C80.3995 18.4795 80.3695 18.5095 80.0695 18.5095C78.1995 18.5095 76.3295 18.5095 74.4695 18.5095H74.4795Z" fill="#1C1C1C"/>
<path d="M28.2188 12.1395C28.2188 10.1795 28.2188 8.21955 28.2188 6.25955C28.2188 5.82955 28.2488 5.80955 28.6688 5.80955C29.4488 5.80955 30.2388 5.81955 31.0188 5.81955C31.2788 5.81955 31.3188 5.84955 31.3188 6.11955C31.3188 6.37955 31.3188 6.63955 31.3188 6.89955C31.3188 6.94955 31.2988 7.01955 31.3588 7.03955C31.4188 7.05955 31.4488 6.99955 31.4888 6.96955C32.0288 6.44955 32.6487 6.04955 33.3487 5.78955C34.2187 5.47955 35.0988 5.36955 36.0188 5.51955C36.7588 5.63955 37.4388 5.87955 38.0588 6.31955C38.9088 6.92955 39.4187 7.75955 39.6887 8.75955C39.8487 9.34955 39.8788 9.93955 39.8788 10.5395C39.8688 13.0495 39.8788 15.5595 39.8788 18.0595C39.8788 18.4695 39.8588 18.4895 39.4488 18.4895C38.6788 18.4895 37.9088 18.4895 37.1388 18.4895C36.8588 18.4895 36.8088 18.4295 36.8288 18.1495C36.8288 18.0395 36.8388 17.9395 36.8388 17.8295C36.8388 15.5495 36.8388 13.2695 36.8388 10.9895C36.8388 10.6095 36.7788 10.2295 36.6788 9.85955C36.4088 8.86955 35.4888 8.26955 34.5388 8.22955C33.8988 8.20955 33.2787 8.26955 32.7087 8.58955C31.9687 9.00955 31.5888 9.67955 31.4088 10.4895C31.3188 10.8695 31.3188 11.2595 31.3188 11.6495C31.3188 13.8095 31.3188 15.9595 31.3188 18.1195C31.3188 18.4395 31.2788 18.4795 30.9488 18.4795C30.1688 18.4795 29.3888 18.4795 28.6188 18.4795C28.2788 18.4795 28.2188 18.4295 28.2188 18.0795C28.2188 16.0895 28.2188 14.0995 28.2188 12.1095V12.1395Z" fill="#1C1C1C"/>
<path d="M7.15906 0.629141C9.17906 0.629141 11.1991 0.629141 13.2191 0.629141C13.5891 0.629141 13.6191 0.659141 13.6191 1.02914C13.6191 1.73914 13.6191 2.44914 13.6191 3.15914C13.6191 3.47914 13.5891 3.50914 13.2591 3.50914C10.0991 3.50914 6.92906 3.50914 3.76906 3.50914C3.46906 3.50914 3.31906 3.65581 3.31906 3.94914C3.31906 4.47914 3.31906 4.99914 3.31906 5.52914C3.31906 5.73914 3.38906 5.83914 3.60906 5.82914C4.42906 5.81914 5.24906 5.80914 6.06906 5.79914C6.18906 5.79914 6.38906 5.73914 6.41906 5.86914C6.46906 6.02914 6.25906 6.04914 6.14906 6.10914C5.20906 6.60914 4.35906 7.23914 3.58906 7.96914C2.60906 8.87914 1.75906 9.89914 1.00906 11.0091C0.959062 11.0891 0.909062 11.2091 0.789062 11.1591C0.689062 11.1191 0.719063 10.9991 0.719063 10.9091C0.719063 7.58914 0.719063 4.25914 0.719063 0.939141C0.719063 0.639141 0.749062 0.619141 1.04906 0.619141C3.08906 0.619141 5.11906 0.619141 7.15906 0.619141V0.629141Z" fill="#1C1C1C"/>
<path d="M13.6287 7.24867C13.6287 7.61867 13.6287 7.97867 13.6287 8.34867C13.6287 8.53867 13.5587 8.61867 13.3687 8.63867C12.9687 8.68867 12.5687 8.67867 12.1687 8.75867C11.3087 8.91867 10.4787 9.14867 9.68867 9.50867C8.32867 10.1187 7.15867 10.9987 6.19867 12.1387C5.36867 13.1087 4.75867 14.2087 4.35867 15.4287C4.06867 16.3287 3.89867 17.2587 3.87867 18.2087C3.87867 18.4487 3.80867 18.5087 3.55867 18.5187C2.85867 18.5187 2.15867 18.5187 1.45867 18.5187C1.14867 18.5187 1.08867 18.4587 1.09867 18.1587C1.14867 16.7687 1.38867 15.4287 1.86867 14.1187C2.35867 12.7887 3.05867 11.5787 3.92867 10.4787C4.62867 9.60867 5.44867 8.85867 6.35867 8.20867C7.32867 7.51867 8.36867 6.96867 9.48867 6.57867C10.6687 6.17867 11.8787 5.89867 13.1287 5.88867C13.462 5.88867 13.6287 6.05534 13.6287 6.38867C13.6287 6.67867 13.6287 6.96867 13.6287 7.25867V7.24867Z" fill="#1C1C1C"/>
<path d="M67.9687 2.79945C67.9687 3.76945 67.1087 4.60945 66.1287 4.60945C65.1387 4.60945 64.2987 3.77945 64.3087 2.78945C64.3087 1.78945 65.1387 0.949453 66.1087 0.939453C67.2687 0.939453 67.9887 1.93945 67.9787 2.78945L67.9687 2.79945Z" fill="#1C1C1C"/>
</svg>
