<svg width="64" height="25" viewBox="0 0 64 25" fill="none" xmlns="http://www.w3.org/2000/svg">
<path d="M63.4312 9.93829C62.6912 12.4183 61.9412 14.8983 61.2012 17.3783C60.6512 19.2483 60.1012 21.1183 59.5812 22.9983C59.4312 23.5483 59.1512 23.7883 58.5612 23.7683C57.4612 23.7383 56.3612 23.7283 55.2612 23.7683C54.5812 23.7983 54.2412 23.5483 54.0712 22.8783C53.2312 19.6483 52.3412 16.4283 51.4712 13.2083C51.4012 12.9583 51.4012 12.6783 51.0512 12.4583C50.5912 13.4183 50.4212 14.4383 50.1312 15.4183C49.3812 17.9483 48.6712 20.4983 47.9612 23.0483C47.8312 23.5183 47.6012 23.7783 47.0712 23.7683C45.8412 23.7483 44.6012 23.7583 43.3712 23.7683C42.9312 23.7683 42.6812 23.5883 42.5512 23.1683C41.0812 18.1983 39.6012 13.2383 38.1112 8.27829C37.9112 7.60829 38.0812 7.31829 38.7912 7.34829C39.3812 7.36829 39.9812 7.40829 40.5612 7.34829C41.4512 7.24829 41.8412 7.61829 42.0612 8.46829C43.0012 12.0883 44.0012 15.6883 44.9912 19.2883C45.0812 19.6083 45.1212 19.9683 45.4412 20.2583C45.7612 19.9983 45.7812 19.6083 45.8712 19.2783C46.9012 15.6883 47.9412 12.0983 48.9212 8.48829C49.1512 7.64829 49.5112 7.22829 50.4212 7.34829C50.8412 7.40829 51.2812 7.34829 51.7112 7.34829C53.0712 7.34829 53.0512 7.34829 53.4312 8.61829C54.5012 12.2583 55.5912 15.8883 56.6712 19.5183C56.7312 19.7383 56.7312 20.0783 57.0412 20.0483C57.3412 20.0183 57.2912 19.6783 57.3512 19.4583C58.1112 16.6183 58.8512 13.7783 59.6112 10.9383C59.8812 9.92829 60.1912 8.93829 60.4512 7.92829C60.5612 7.51829 60.7812 7.34829 61.1812 7.34829C61.9312 7.35829 62.6812 7.36829 63.4312 7.36829V9.93829V9.93829Z" fill="#1C1C1C"/>
<path d="M19.7804 15.4294C19.6104 10.8594 23.5904 6.64943 28.7704 6.81943C33.5504 6.97943 37.1804 10.6194 37.1704 15.6094C37.1704 20.2994 33.6504 24.1994 28.4604 24.1894C23.0904 24.1894 19.5704 19.8894 19.7804 15.4194V15.4294ZM28.4204 20.6394C31.4804 20.6194 33.4904 18.2094 33.5704 15.2994C33.6404 12.7694 31.0804 10.3294 28.5104 10.3194C25.7904 10.3094 23.3304 12.7694 23.3304 15.5094C23.3304 18.2794 25.6604 20.6394 28.4104 20.6494L28.4204 20.6394Z" fill="#1C1C1C"/>
<path d="M3.00096 17.3391C3.00096 15.5191 2.98096 13.6991 3.00096 11.8891C3.01096 11.1091 2.74095 10.7091 1.93095 10.7991C1.19095 10.8891 0.890957 10.5491 0.940957 9.82907C0.950957 9.61907 0.940957 9.39907 0.940957 9.18907C0.940957 8.23907 0.760948 7.71907 2.18095 7.81907C2.82095 7.85907 2.98095 7.44907 2.99095 6.88907C3.02095 5.76907 2.88096 4.64907 3.13096 3.53907C3.37096 2.50907 3.95097 1.79907 4.95097 1.47907C6.70097 0.919068 8.53096 0.899068 10.291 1.15907C11.351 1.31907 10.611 2.51907 10.781 3.22907C10.881 3.65907 10.731 4.02907 10.161 4.02907C9.33096 4.02907 8.50096 4.02907 7.66096 4.02907C6.77096 4.03907 6.49095 4.28907 6.46095 5.14907C6.44095 5.75907 6.46095 6.37907 6.46095 6.98907C6.46095 7.55907 6.73094 7.81907 7.30094 7.80907C7.97094 7.80907 8.64095 7.82907 9.31095 7.80907C9.87095 7.78907 10.1609 7.97907 10.1509 8.58907C10.1209 11.1891 10.4309 10.7291 8.08094 10.7791C7.92094 10.7791 7.76096 10.7791 7.60096 10.7791C6.63096 10.7991 6.47096 10.9391 6.47096 11.8991C6.47096 14.4391 6.47096 16.9791 6.47096 19.5191C6.47096 20.6391 6.45096 21.7691 6.47096 22.8891C6.48096 23.4891 6.28097 23.7891 5.64097 23.7591C5.02097 23.7291 4.40096 23.7291 3.79096 23.7591C3.19096 23.7791 2.99095 23.5091 2.99095 22.9391C3.01095 21.0691 2.99095 19.1991 2.99095 17.3291L3.00096 17.3391Z" fill="#1C1C1C"/>
<path d="M12.5002 11.3799C12.5002 8.27993 12.5202 5.17993 12.4902 2.07993C12.4902 1.31993 12.7202 0.999934 13.5002 1.06993C14.0102 1.11993 14.5202 1.10993 15.0302 1.06993C15.7102 1.01993 16.0203 1.26993 15.9803 1.97993C15.9403 2.72993 15.9803 3.47993 15.9803 4.21993C15.9803 9.23993 15.9803 14.2599 15.9803 19.2899C15.9803 20.4499 16.1702 20.6299 17.3402 20.6399C18.3469 20.6399 18.8503 21.1566 18.8503 22.1899C18.8503 23.2233 18.3303 23.7499 17.2903 23.7699C16.7503 23.7699 16.2202 23.7699 15.6802 23.7699C13.4202 23.7699 12.5202 22.8899 12.5202 20.5999C12.5102 17.5299 12.5202 14.4599 12.5202 11.3799H12.5002Z" fill="#1C1C1C"/>
<path d="M27.2101 13.0098C27.3101 13.0498 27.4602 13.0898 27.6002 13.1598C28.6402 13.7598 29.6902 14.3498 30.7202 14.9698C31.2102 15.2598 31.2501 15.6798 30.7701 15.9798C29.7001 16.6398 28.6102 17.2698 27.5002 17.8598C27.0002 18.1198 26.6702 17.8798 26.6602 17.2998C26.6602 16.0698 26.6602 14.8498 26.6602 13.6198C26.6602 13.2998 26.7502 13.0298 27.2002 13.0098H27.2101Z" fill="#1C1C1C"/>
</svg>
