<svg width="130" height="19" viewBox="0 0 130 19" fill="none" xmlns="http://www.w3.org/2000/svg">
<path d="M20.1499 18.179C18.3599 18.259 17.0199 17.319 15.9499 15.799C15.0199 14.479 14.3599 12.969 13.6799 11.479C13.3099 10.679 12.9499 9.87904 12.3999 9.20904C11.5199 8.13904 10.6599 8.15904 9.82988 9.28904C9.09988 10.269 8.63988 11.429 8.10988 12.549C7.41988 14.029 6.70988 15.509 5.58988 16.669C4.54988 17.749 3.34988 18.269 1.92988 18.189C1.30988 18.159 0.969877 17.959 0.999877 17.199C1.01988 16.669 0.999877 16.139 1.00988 15.609C1.00988 15.119 1.20988 14.839 1.65988 14.839C2.89988 14.839 3.53988 13.919 4.07988 12.869C4.65988 11.739 5.18988 10.579 5.73988 9.41904C6.14988 8.54904 6.61988 7.72904 7.21988 7.00904C9.71988 4.02904 13.2699 4.26904 15.4599 7.55904C16.4199 9.00904 17.0599 10.669 17.8599 12.219C18.3999 13.259 18.8199 14.639 20.0699 14.679C21.3899 14.719 21.8599 13.309 22.4099 12.239C23.1399 10.829 23.7399 9.32904 24.5499 7.96904C25.9099 5.67904 27.8199 4.74904 30.2199 4.84904C31.0099 4.87904 31.3499 5.23904 31.2999 6.11904C31.2799 6.48904 31.2899 6.85904 31.2999 7.21904C31.3299 8.03904 31.0199 8.46904 30.2599 8.35904C28.6799 8.11904 27.7799 9.07904 27.0599 10.519C26.2399 12.159 25.5899 13.899 24.5899 15.419C23.4799 17.109 22.0999 18.259 20.1199 18.179H20.1499Z" fill="#1C1C1C"/>
<path d="M85.72 8.88976C85.72 6.51976 85.75 4.13976 85.71 1.76976C85.69 0.739763 85.96 0.289763 86.94 0.319763C89.41 0.409763 89.25 -0.0302384 89.25 2.86976C89.25 4.31643 89.87 5.02643 91.11 4.99976C94.67 4.92976 96.59 6.86976 96.82 10.9198C96.92 12.7498 96.84 14.5998 96.85 16.4398C96.85 17.2398 96.57 17.5998 95.82 17.6498C93.33 17.7998 93.33 17.8198 93.33 15.0498C93.33 13.6198 93.35 12.1798 93.31 10.7498C93.26 9.08976 92.6 8.33976 91.27 8.33976C89.89 8.33976 89.29 9.02976 89.26 10.7298C89.23 12.5698 89.22 14.4098 89.26 16.2598C89.28 17.2298 89 17.6698 88.08 17.6498C85.38 17.6098 85.74 17.8098 85.72 15.0198C85.71 12.9698 85.72 10.9298 85.72 8.87976V8.88976Z" fill="#1C1C1C"/>
<path d="M119.889 12.7591C118.689 12.7591 117.499 12.7591 116.299 12.7591C116.069 12.7591 115.729 12.6391 115.649 13.0091C115.589 13.3191 115.839 13.5391 116.039 13.6891C117.119 14.5191 118.309 14.6391 119.459 14.0591C120.769 13.3991 122.109 13.6491 123.419 13.7191C124.349 13.7691 123.779 14.4491 123.549 14.8191C121.939 17.4191 118.429 18.5091 115.629 17.2891C112.969 16.1291 111.309 13.3391 111.699 10.6791C112.159 7.48914 114.639 5.08915 117.559 4.98915C120.859 4.87915 123.519 6.67915 124.319 9.55915C124.379 9.78915 124.439 10.0291 124.489 10.2691C124.849 12.3691 124.579 12.7391 122.719 12.7391C121.779 12.7391 120.829 12.7391 119.889 12.7391V12.7591ZM115.609 9.78915H120.629C119.159 7.85915 117.019 7.87915 115.609 9.78915Z" fill="#1C1C1C"/>
<path d="M105.941 12.7588C104.781 12.7588 103.621 12.7588 102.461 12.7588C102.231 12.7588 101.881 12.6088 101.781 12.9388C101.671 13.2988 101.981 13.5188 102.211 13.7088C103.211 14.5188 104.351 14.6388 105.421 14.1188C106.731 13.4788 108.051 13.7088 109.381 13.6788C109.971 13.6688 110.171 13.9488 109.841 14.5988C108.721 16.8288 105.661 18.1988 102.951 17.6688C100.371 17.1588 98.2708 14.9388 97.8808 12.3088C97.4008 9.02881 99.6608 5.62881 102.781 5.08881C105.181 4.67881 107.401 5.19881 109.191 7.23881C110.221 8.40881 110.681 9.79881 110.671 11.4488C110.671 12.3688 110.391 12.8088 109.531 12.7688C108.341 12.7188 107.141 12.7588 105.941 12.7588V12.7588ZM104.261 9.92881C104.871 9.92881 105.491 9.92881 106.101 9.92881C106.301 9.92881 106.591 9.97881 106.631 9.66881C106.651 9.51881 106.481 9.30881 106.361 9.17881C105.371 8.13881 103.401 8.04881 102.321 9.00881C102.121 9.17881 101.831 9.36881 101.891 9.65881C101.991 10.0788 102.371 9.90881 102.631 9.92881C103.171 9.95881 103.711 9.92881 104.261 9.92881V9.92881Z" fill="#1C1C1C"/>
<path d="M67.4202 13.4302C67.4202 12.4502 67.4602 11.4602 67.4202 10.4902C67.3502 9.04017 66.6602 8.34017 65.3902 8.35017C64.1302 8.35017 63.4402 9.06017 63.4002 10.5402C63.3502 12.4602 63.3402 14.3802 63.3802 16.3102C63.4002 17.3202 63.0502 17.6702 62.1702 17.6702C59.8302 17.6902 59.8102 17.7202 59.8402 15.1302C59.8602 13.2502 59.7002 11.3702 60.0102 9.50017C60.3902 7.27017 61.5402 5.75017 63.4802 5.26017C66.8202 4.40017 69.3902 5.43017 70.5002 8.36017C70.8202 9.20017 70.9402 10.1002 70.9602 10.9902C70.9902 12.7902 70.9602 14.5902 70.9802 16.3902C70.9902 17.2502 70.7202 17.6302 69.9102 17.6602C67.4402 17.7502 67.4402 17.7802 67.4402 15.0302C67.4402 14.5002 67.4402 13.9702 67.4402 13.4302H67.4202Z" fill="#1C1C1C"/>
<path d="M46.8199 13.5289C46.8199 14.5489 46.8099 15.5689 46.8199 16.5989C46.8199 17.3189 46.5399 17.6389 45.8999 17.6389C42.8599 17.6589 43.3199 17.8689 43.2899 14.9489C43.2699 13.4789 43.3099 12.0089 43.2599 10.5389C43.2099 9.02886 42.5899 8.36886 41.2999 8.35886C40.0599 8.33886 39.2999 9.05886 39.2399 10.4889C39.1699 12.4089 39.1699 14.3289 39.2199 16.2489C39.2499 17.3289 38.8899 17.6689 37.9499 17.6689C35.6799 17.6689 35.6699 17.7089 35.6799 15.1489C35.6899 13.3889 35.5999 11.6389 35.8199 9.87886C36.1599 7.03886 37.9499 5.14886 40.4999 5.02886C41.3999 4.97886 42.3099 4.93886 43.1999 5.23886C45.3699 5.94886 46.6499 7.77886 46.7899 10.4789C46.8399 11.4989 46.7899 12.5189 46.7899 13.5489H46.7999L46.8199 13.5289Z" fill="#1C1C1C"/>
<path d="M58.8292 9.46898C58.8292 10.249 58.8292 11.019 58.8292 11.799C58.7992 15.649 56.5192 18.049 53.1092 17.819C49.6192 17.579 47.8492 15.479 47.8292 11.519C47.8292 9.75898 47.8492 7.99898 47.8192 6.24898C47.7992 5.39898 48.1192 5.10897 48.8492 5.06897C51.2392 4.92897 51.2292 4.90898 51.2492 7.64898C51.2592 9.23898 51.1192 10.839 51.3392 12.419C51.5492 13.869 52.1392 14.389 53.4092 14.369C54.7092 14.339 55.3592 13.599 55.4192 11.919C55.4792 10.329 55.4092 8.72897 55.4592 7.13897C55.4792 6.48897 55.1092 5.56898 55.8192 5.24898C56.6492 4.86898 57.6092 4.96897 58.4892 5.22897C58.8792 5.33897 58.8292 5.80897 58.8392 6.16897C58.8392 7.26897 58.8392 8.37897 58.8392 9.47897L58.8292 9.46898Z" fill="#1C1C1C"/>
<path d="M82.2904 9.81061C81.5804 9.90061 80.8204 9.72061 80.0804 9.01061C78.9704 7.97061 77.2504 8.14061 76.1604 9.18061C75.2204 10.0806 74.9504 11.3806 75.4504 12.6106C76.1604 14.3606 78.5104 15.0206 80.0504 13.7506C81.2604 12.7506 82.5504 13.2406 83.8204 13.1706C84.2004 13.1506 84.3104 13.5006 84.1504 13.8606C83.9604 14.3006 83.7504 14.7306 83.4804 15.1106C80.7704 19.0006 74.8204 18.6006 72.5204 14.4006C71.2804 12.1306 71.5704 9.33061 73.2604 7.28061C76.0204 3.92061 81.3204 4.29061 83.6804 8.01061C83.9704 8.46061 84.4404 8.98061 84.2104 9.53061C83.9804 10.0906 83.3604 9.74061 82.9204 9.81061C82.7804 9.83061 82.6304 9.81061 82.3004 9.81061H82.2904Z" fill="#1C1C1C"/>
<path d="M128.16 6.28939C128.7 6.08939 128.64 5.09939 129.14 5.36939C129.64 5.63939 129.34 6.39939 129.35 6.93939C129.37 7.82939 128.73 7.21939 128.49 7.25939C127.89 7.35939 126.92 7.76939 127.06 6.30939C127.08 6.05939 127.02 5.79939 126.71 5.84939C126.42 5.89939 126.45 6.17939 126.43 6.42939C126.4 6.77939 126.51 7.31939 126.09 7.31939C125.65 7.31939 125.73 6.72939 125.77 6.42939C125.85 5.90939 124.91 5.72939 125.42 5.23939C125.81 4.86939 126.4 5.15939 126.89 5.11939C127.64 5.05939 127.84 5.70939 128.15 6.27939L128.16 6.28939Z" fill="#1C1C1C"/>
</svg>
