<svg width="84" height="28" viewBox="0 0 84 28" fill="none" xmlns="http://www.w3.org/2000/svg">
<path d="M14.9371 19.5715C14.2171 19.5715 13.5071 19.5715 12.7871 19.5715C12.4871 19.5715 12.3171 19.4514 12.1671 19.2014C10.9471 17.1914 9.75709 15.1514 8.46709 13.1814C7.38709 11.5314 6.1471 9.99145 5.0071 8.37145C4.2971 7.36145 3.64709 6.31145 2.97709 5.27145C2.11709 3.94145 1.2471 2.60145 0.387095 1.26145C0.307095 1.14145 0.157092 1.01145 0.227092 0.871446C0.307092 0.691446 0.517094 0.761445 0.667094 0.761445C2.07709 0.761445 3.4871 0.761445 4.8971 0.761445C5.1371 0.761445 5.30708 0.821444 5.44708 1.04144C6.36708 2.57144 7.30709 4.10145 8.23709 5.62145C8.40709 5.90145 8.59709 6.18145 8.77709 6.46145C8.88709 6.63145 8.95709 6.67145 9.07709 6.46145C10.1171 4.73145 11.1771 3.00145 12.2171 1.27145C12.4271 0.921447 12.6571 0.741443 13.0971 0.751443C14.4271 0.781443 15.7671 0.751445 17.1071 0.761445C17.2371 0.761445 17.4071 0.711444 17.4771 0.861444C17.5471 1.00144 17.4171 1.11144 17.3471 1.22144C16.1971 3.00144 15.0571 4.79145 13.9071 6.57145C13.2171 7.65145 12.5171 8.72144 11.8071 9.79144C11.6371 10.0514 11.5971 10.2514 11.7971 10.5514C13.1071 12.5414 14.3871 14.5414 15.6771 16.5414C16.2471 17.4314 16.8171 18.3314 17.3971 19.2214C17.5571 19.4714 17.4771 19.5514 17.2171 19.5514C16.4671 19.5514 15.7071 19.5514 14.9571 19.5514L14.9371 19.5715Z" fill="#1C1C1C"/>
<path d="M48.1063 10.1313C48.1063 11.0713 48.1163 12.0113 48.1063 12.9513C48.0663 15.6113 46.8463 17.6313 44.6463 19.0413C43.7563 19.6113 42.7363 19.8713 41.6663 19.9513C40.1563 20.0613 38.7663 19.6913 37.5163 18.8913C36.0563 17.9513 35.0363 16.6213 34.6163 14.9113C33.9863 12.3113 34.6163 10.0313 36.5563 8.15133C37.4463 7.28133 38.5163 6.77133 39.7163 6.47133C41.1163 6.13133 42.4563 6.31133 43.7663 6.82133C44.1363 6.96133 44.2063 6.93133 44.1963 6.54133C44.1863 6.21133 44.3063 6.11133 44.6263 6.11133C45.6363 6.12133 46.6563 6.13133 47.6663 6.11133C48.0163 6.11133 48.1163 6.24133 48.1063 6.57133C48.0963 7.76133 48.1063 8.94133 48.1063 10.1313V10.1313ZM41.2563 10.2813C39.6363 10.1513 38.3963 11.5213 38.4263 13.0313C38.4563 14.5413 39.5563 15.7513 41.1663 15.7913C42.6863 15.8213 43.9263 14.5513 43.9663 13.1013C44.0163 11.5713 42.7063 10.1613 41.2563 10.2813V10.2813Z" fill="#1C1C1C"/>
<path d="M73.4368 18.3599C71.9968 20.1099 69.3468 20.2899 67.5768 19.4499C66.1368 18.7699 65.3568 17.6199 65.2468 16.0699C65.1468 14.6199 65.7668 13.4499 66.9868 12.6499C67.7668 12.1399 68.6568 11.9399 69.5668 11.8099C70.5268 11.6799 71.4868 11.5199 72.4468 11.3499C72.7568 11.2899 73.0268 11.1299 73.0768 10.7599C73.1368 10.2999 73.0268 9.89992 72.6368 9.60992C71.8468 9.02992 70.4068 9.13992 69.7168 9.83992C69.4668 10.0899 69.3068 10.3999 69.2168 10.7299C69.1268 11.0799 68.9168 11.1499 68.5868 11.0799C67.7368 10.8899 66.8768 10.7199 66.0168 10.5399C65.4268 10.4199 65.4168 10.4099 65.5768 9.82992C66.0768 7.96992 67.3168 6.84992 69.0968 6.23992C69.7868 5.99992 70.5168 5.91992 71.2068 5.91992C72.7168 5.92992 74.2268 6.11992 75.4668 7.11992C76.4668 7.91992 76.9968 8.98992 77.1268 10.2699C77.3968 13.0099 77.1768 15.7499 77.2568 18.4799C77.2568 18.7099 77.2668 18.9499 77.3068 19.1799C77.3468 19.4499 77.2468 19.5399 76.9868 19.5399C75.9568 19.5399 74.9368 19.5399 73.9068 19.5399C73.6868 19.5399 73.5768 19.4399 73.5168 19.2299C73.4368 18.9499 73.4668 18.6699 73.4268 18.3299L73.4368 18.3599ZM73.0968 14.5699C73.0668 14.3599 73.1768 14.0999 73.0268 13.9499C72.8968 13.8199 72.6868 14.0299 72.5068 13.9899C72.4968 13.9899 72.4868 13.9899 72.4668 13.9899C71.6868 14.0799 70.9068 14.1699 70.1568 14.4399C69.6768 14.6099 69.3368 15.0699 69.3268 15.5599C69.3068 16.0799 69.5768 16.5599 70.0168 16.7199C70.6968 16.9699 71.3868 16.9399 72.0168 16.5999C72.8068 16.1699 73.1068 15.4299 73.0968 14.5599V14.5699Z" fill="#1C1C1C"/>
<path d="M27.1882 9.90049C27.2082 12.3505 26.5483 14.3305 25.1783 16.0005C23.9183 17.5505 22.3482 18.7105 20.3582 19.2005C20.2882 19.2205 20.2183 19.2505 20.1483 19.2805C19.3283 19.5805 19.0482 19.4805 18.5882 18.7705C17.9882 17.8405 17.3782 16.9105 16.7782 15.9705C16.7082 15.8605 16.5682 15.7405 16.6382 15.6105C16.7082 15.4705 16.8883 15.5205 17.0083 15.5305C17.9183 15.5605 18.8182 15.5005 19.6682 15.1605C21.3082 14.5005 22.4483 13.3605 22.8983 11.6505C23.4683 9.48049 22.9082 7.61049 21.1982 6.12049C20.4182 5.44049 19.5182 5.05049 18.4682 4.92049C17.9282 4.85049 17.3883 4.82049 16.8483 4.81049C16.5783 4.81049 16.5182 4.71049 16.6682 4.47049C17.3882 3.38049 18.1082 2.28049 18.8082 1.18049C18.9782 0.910489 19.2083 0.870489 19.4783 0.930489C20.4183 1.14049 21.3382 1.42049 22.1982 1.87049C23.6882 2.66049 24.8483 3.80049 25.7583 5.20049C26.3383 6.10049 26.7283 7.08049 26.9583 8.13049C27.1083 8.81049 27.1783 9.49049 27.1783 9.91049L27.1882 9.90049Z" fill="#1C1C1C"/>
<path d="M57.4277 13.3215C57.4277 12.2415 57.4177 11.3215 57.4277 10.4115C57.4277 10.0815 57.3177 9.97148 56.9977 9.98148C56.5077 10.0015 56.0077 9.98148 55.5177 9.98148C55.2477 9.98148 55.1077 9.90149 55.1177 9.60149C55.1277 8.64149 55.1277 7.67149 55.1177 6.71149C55.1177 6.44149 55.2177 6.33148 55.4877 6.33148C55.9077 6.33148 56.3277 6.32148 56.7177 6.15148C57.4577 5.83148 57.7177 5.20149 57.7877 4.46149C57.8277 3.94149 57.8077 3.42148 57.7877 2.90148C57.7877 2.64148 57.8777 2.52148 58.1577 2.52148C59.1577 2.52148 60.1577 2.52148 61.1577 2.52148C61.4677 2.52148 61.5277 2.68148 61.5277 2.94148C61.5277 3.90148 61.5277 4.87148 61.5277 5.83148C61.5277 6.31148 61.5377 6.32149 62.0377 6.32149C62.5677 6.32149 63.0977 6.32149 63.6277 6.32149C63.9677 6.32149 64.1277 6.43148 64.1177 6.79148C64.1077 7.70148 64.0977 8.62149 64.1177 9.53149C64.1177 9.88149 63.9777 9.98148 63.6477 9.97148C63.0877 9.95148 62.5377 9.97148 61.9777 9.97148C61.6477 9.97148 61.5077 10.0715 61.5177 10.4115C61.5277 11.8715 61.5077 13.3315 61.5277 14.7815C61.5477 15.7715 61.8977 15.9715 62.8277 16.0915C63.1077 16.1215 63.3877 16.1215 63.6677 16.0015C63.8477 15.9315 63.9877 16.0015 63.9877 16.2315C63.9877 17.2215 63.9877 18.2115 63.9877 19.2015C63.9877 19.3915 63.8777 19.5015 63.6977 19.5415C61.9277 19.9615 60.2177 19.9915 58.7177 18.7315C58.1677 18.2715 57.8177 17.6615 57.6277 16.9715C57.2777 15.7115 57.4677 14.4215 57.4177 13.3115L57.4277 13.3215Z" fill="#1C1C1C"/>
<path d="M83.2882 9.97065C83.2882 12.9906 83.2882 16.0007 83.2882 19.0207C83.2882 19.5707 83.2882 19.5707 82.7282 19.5707C81.6882 19.5707 80.6482 19.5707 79.6082 19.5707C79.2682 19.5707 79.1582 19.4606 79.1582 19.1206C79.1582 13.0106 79.1582 6.91065 79.1582 0.80065C79.1582 0.44065 79.2782 0.320649 79.6282 0.330649C80.6882 0.340649 81.7582 0.350649 82.8182 0.330649C83.1782 0.330649 83.2882 0.460652 83.2882 0.810652C83.2782 3.86065 83.2882 6.92065 83.2882 9.97065V9.97065Z" fill="#1C1C1C"/>
<path d="M36.3967 20.0508C36.9567 20.0508 37.5067 20.0508 38.0667 20.0508C38.3267 20.0508 38.4467 20.1408 38.4667 20.4108C38.5567 21.5208 39.6067 22.6308 40.7867 22.7508C41.6167 22.8308 42.3367 22.6808 42.9867 22.1608C43.5267 21.7208 43.8567 21.1508 43.9367 20.4608C43.9767 20.1408 44.1067 20.0508 44.4067 20.0508C45.4667 20.0608 46.5367 20.0608 47.5967 20.0508C47.9267 20.0508 48.0367 20.1808 48.0267 20.4908C47.9567 21.8608 47.5467 23.1008 46.7267 24.2008C45.8167 25.4108 44.6667 26.3008 43.2067 26.7208C41.4567 27.2108 39.7467 27.1008 38.1067 26.2508C36.4267 25.3808 35.3167 24.0408 34.7167 22.2808C34.5067 21.6708 34.4367 21.0308 34.3867 20.4008C34.3667 20.1308 34.5067 20.0608 34.7467 20.0608C35.3067 20.0608 35.8567 20.0608 36.4167 20.0608L36.3967 20.0508Z" fill="#1C1C1C"/>
<path d="M32.757 12.9803C32.757 15.0103 32.757 17.0303 32.757 19.0603C32.757 19.5503 32.737 19.5703 32.257 19.5703C31.207 19.5703 30.1569 19.5603 29.1069 19.5703C28.7269 19.5703 28.627 19.4403 28.627 19.0803C28.637 14.9903 28.627 10.9003 28.627 6.82034C28.627 6.47034 28.7269 6.33034 29.0869 6.34034C30.1569 6.36034 31.2369 6.35034 32.3069 6.34034C32.6469 6.34034 32.757 6.46034 32.757 6.80034C32.747 8.86034 32.757 10.9303 32.757 12.9903V12.9803Z" fill="#1C1C1C"/>
<path d="M54.1278 12.9605C54.1278 15.0005 54.1278 17.0405 54.1278 19.0805C54.1278 19.5605 54.1278 19.5705 53.6278 19.5705C52.5678 19.5705 51.4978 19.5705 50.4378 19.5705C50.1178 19.5705 50.0078 19.4705 50.0078 19.1405C50.0078 15.0105 50.0078 10.8905 50.0078 6.76051C50.0078 6.43051 50.1378 6.33051 50.4478 6.34051C51.5278 6.35051 52.5978 6.35051 53.6778 6.34051C54.0278 6.34051 54.1478 6.45052 54.1478 6.81052C54.1378 8.86052 54.1478 10.9105 54.1478 12.9605H54.1278Z" fill="#1C1C1C"/>
<path d="M2.49728 19.5598C1.75728 19.5598 1.01729 19.5598 0.27729 19.5598C0.0372897 19.5598 -0.0927149 19.4898 0.0772851 19.2298C1.31729 17.2998 2.55729 15.3698 3.80729 13.4498C4.30729 12.6698 4.82729 11.9098 5.31729 11.1198C5.48729 10.8598 5.58729 10.8998 5.73729 11.1198C6.45729 12.1498 7.18728 13.1798 7.91728 14.1998C8.03728 14.3698 8.02729 14.5098 7.92729 14.6798C6.99729 16.2198 6.05729 17.7598 5.12729 19.2998C5.00729 19.4998 4.86729 19.5698 4.64729 19.5698C3.92729 19.5698 3.21728 19.5698 2.49728 19.5698V19.5598Z" fill="#1C1C1C"/>
<path d="M30.6673 4.81063C29.3073 4.81063 28.2873 3.78063 28.2773 2.42063C28.2773 1.03063 29.4274 -0.0293787 30.6774 0.000621258C32.0774 0.0306213 33.0673 0.940627 33.1073 2.42063C33.1473 3.65063 32.0173 4.92062 30.6673 4.80062V4.81063Z" fill="#1C1C1C"/>
<path d="M52.0265 4.80977C50.6465 4.86977 49.6365 3.71977 49.6565 2.41977C49.6765 0.979769 50.7165 0.00976562 52.0465 0.00976562C53.3965 0.00976562 54.4265 1.01977 54.4965 2.43977C54.5465 3.47977 53.4165 4.95977 52.0265 4.81977V4.80977Z" fill="#1C1C1C"/>
</svg>
