<svg width="28" height="37" viewBox="0 0 28 37" fill="none" xmlns="http://www.w3.org/2000/svg">
<path d="M0.171875 3.86271V0.00495856C0.235965 0.00495856 0.300052 0 0.369072 0C1.6065 0 2.83899 0 4.07642 0C11.6341 0 19.1918 0.00495856 26.7495 0.00991711C26.9072 0.00991711 26.9861 0.0876012 26.9861 0.242969C26.9861 3.41149 26.9861 6.58496 26.9861 9.75348C26.9861 10.413 26.9861 11.0774 26.9861 11.7369C26.9861 11.8509 26.9466 11.9005 26.8333 11.8956C26.6508 11.8857 26.4635 11.8807 26.2811 11.8807C25.3148 11.8807 24.3485 11.8807 23.3823 11.8807C22.5195 11.8807 21.6568 11.8807 20.799 11.8807C20.6165 11.8807 20.6116 11.8807 20.6116 11.6923C20.6116 11.6526 20.6116 11.6129 20.6116 11.5782C20.6165 9.75348 20.6264 7.93369 20.6313 6.10894C20.6313 5.95027 20.6313 5.94531 20.4686 5.94531C19.4432 5.94531 18.4227 5.94035 17.3973 5.94035C17.2247 5.94035 17.2198 5.95027 17.2198 6.1139C17.2198 9.92207 17.2198 13.7302 17.2198 17.5384C17.2198 17.707 17.2247 17.712 17.3973 17.712C18.1417 17.712 18.8812 17.712 19.6256 17.712C19.7982 17.712 19.808 17.7169 19.808 17.8954C19.8129 19.7301 19.808 21.5648 19.8277 23.3994C19.8277 23.6126 19.8277 23.6126 19.6158 23.6126C18.1417 23.6126 16.6676 23.6126 15.1936 23.6126C12.6595 23.6126 10.1206 23.6126 7.58657 23.6126C7.37951 23.6126 7.37952 23.6126 7.37952 23.3994C7.37459 22.7796 7.37951 22.1598 7.36965 21.54C7.35486 20.3251 7.35979 19.1103 7.35979 17.8954C7.35979 17.7169 7.36472 17.712 7.5422 17.712C8.1338 17.7169 8.7254 17.7219 9.317 17.7318C9.42546 17.7318 9.47475 17.6971 9.46489 17.583C9.46489 17.5533 9.46489 17.5235 9.46489 17.4888C9.46489 13.9087 9.4649 10.3287 9.45997 6.74859C9.45997 6.51554 9.45997 6.28249 9.45997 6.04944C9.45997 5.95522 9.43039 5.90564 9.32686 5.9106C8.45425 5.92052 7.58164 5.90564 6.70903 5.93043C6.61536 5.93043 6.57593 5.9701 6.57593 6.06431C6.57593 6.26266 6.56607 6.461 6.56114 6.65438C6.55128 8.34029 6.54142 10.0212 6.53649 11.7071V11.7419C6.53649 11.8857 6.5217 11.9005 6.3738 11.9005C6.1766 11.9005 5.9794 11.8906 5.78713 11.8906C4.0074 11.8906 2.2326 11.8906 0.452873 11.8857C0.28854 11.8857 0.206373 11.803 0.206373 11.6377C0.206373 9.11878 0.201449 6.59984 0.196519 4.07593C0.196519 4.00651 0.18666 3.93709 0.18173 3.86767L0.171875 3.86271Z" fill="#1C1C1C"/>
<path d="M0.171875 32.8008C0.615574 32.8008 1.05434 32.8008 1.49804 32.8008C2.22768 32.8008 2.95731 32.8008 3.69188 32.8008C3.8595 32.8008 3.86937 32.8057 3.86937 32.9743C3.86937 33.3165 3.86937 33.6537 3.86937 33.9958C3.86937 34.1346 3.85458 34.1495 3.71654 34.1495C3.53906 34.1495 3.36157 34.1495 3.18409 34.1495C3.07563 34.1495 3.02633 34.1148 3.03126 34.0008C3.03619 33.8718 3.03126 33.7379 3.03126 33.6041C3.03126 33.5198 3.00169 33.4751 2.91295 33.4751C2.82421 33.4751 2.73546 33.4751 2.64672 33.4751C2.56291 33.4751 2.52841 33.5099 2.52841 33.5941C2.52841 33.8322 2.52841 34.0652 2.52841 34.3032C2.52841 34.6404 2.52841 34.9776 2.52841 35.3148C2.52841 35.4239 2.55798 35.4685 2.67137 35.4685C2.91294 35.4635 2.89816 35.4536 2.89816 35.7015C2.89816 35.8156 2.89816 35.9247 2.89816 36.0387C2.89816 36.1181 2.86858 36.1528 2.7897 36.1528C2.27205 36.1528 1.75932 36.1528 1.24167 36.1528C1.16279 36.1528 1.12828 36.1181 1.13321 36.0387C1.13321 35.89 1.13321 35.7362 1.13321 35.5875C1.13321 35.4982 1.17265 35.4635 1.25646 35.4635C1.50296 35.4734 1.48817 35.4586 1.48817 35.2255C1.48817 34.7049 1.48817 34.1793 1.48817 33.6586C1.48817 33.4851 1.48324 33.4801 1.31562 33.4801C0.960662 33.4801 1.00504 33.4355 1.00504 33.7975C1.00011 34.1991 1.05926 34.1446 0.655004 34.1495C0.492315 34.1495 0.329635 34.1495 0.171875 34.1495V32.8008V32.8008Z" fill="#1C1C1C"/>
<path d="M13.5708 26.955C9.18804 26.955 4.80527 26.955 0.422512 26.955C0.264752 26.955 0.185882 26.874 0.185882 26.712C0.185882 26.5583 0.190812 26.3996 0.185882 26.2459C0.180952 26.1269 0.230241 26.0872 0.34363 26.0922C0.37814 26.0922 0.412661 26.0922 0.447171 26.0922C9.21269 26.0922 17.9782 26.0922 26.7388 26.0922C26.8998 26.0922 26.9804 26.1715 26.9804 26.3302C26.9804 26.4938 26.9804 26.6575 26.9804 26.8162C26.9804 26.9203 26.9409 26.955 26.8423 26.95C26.793 26.95 26.7437 26.95 26.6944 26.95C22.3215 26.95 17.9437 26.95 13.5708 26.95V26.955Z" fill="#1C1C1C"/>
<path d="M13.5873 27.7775C17.975 27.7775 22.3627 27.7775 26.7454 27.7775C27.0018 27.7775 26.9821 27.7626 26.9821 28.0155C26.9821 28.1643 26.9821 28.318 26.9821 28.4667C26.9821 28.6155 26.9771 28.6205 26.8243 28.6205C26.7997 28.6205 26.7701 28.6205 26.7454 28.6205C17.975 28.6205 9.20451 28.6205 0.438989 28.6205C0.182629 28.6205 0.197424 28.6403 0.197424 28.3775C0.197424 28.2387 0.197424 28.0998 0.197424 27.961C0.197424 27.7775 0.197432 27.7775 0.374912 27.7775C0.414351 27.7775 0.453782 27.7775 0.488292 27.7775C4.85626 27.7775 9.22424 27.7775 13.5922 27.7775H13.5873Z" fill="#1C1C1C"/>
<path d="M13.5862 30.3015C9.19851 30.3015 4.81574 30.3015 0.428051 30.3015C0.270292 30.3015 0.191406 30.2205 0.191406 30.0585C0.191406 29.8948 0.191406 29.7312 0.191406 29.5725C0.191406 29.4882 0.225926 29.4486 0.309736 29.4535C0.354106 29.4535 0.393536 29.4535 0.437906 29.4535C9.20836 29.4535 17.9739 29.4535 26.7443 29.4535C27.0056 29.4535 26.9859 29.4337 26.9859 29.7015C26.9859 29.8651 26.9859 30.0287 26.9859 30.1874C26.9859 30.2667 26.9563 30.3015 26.8774 30.3015C26.8281 30.3015 26.7789 30.3015 26.7296 30.3015C22.3517 30.3015 17.9739 30.3015 13.5911 30.3015H13.5862Z" fill="#1C1C1C"/>
<path d="M13.5862 31.9733C9.19851 31.9733 4.81574 31.9733 0.428051 31.9733C0.270292 31.9733 0.191406 31.8923 0.191406 31.7304C0.191406 31.5667 0.191406 31.4031 0.191406 31.2444C0.191406 31.1601 0.225926 31.1205 0.309736 31.1254C0.354106 31.1254 0.393536 31.1254 0.437906 31.1254C9.20836 31.1254 17.9739 31.1254 26.7443 31.1254C27.0106 31.1254 26.9859 31.1105 26.9859 31.3733C26.9859 31.537 26.9859 31.7006 26.9859 31.8593C26.9859 31.9386 26.9563 31.9733 26.8774 31.9733C26.8281 31.9733 26.7789 31.9733 26.7296 31.9733C22.3517 31.9733 17.9739 31.9733 13.5911 31.9733H13.5862Z" fill="#1C1C1C"/>
<path d="M12.8461 36.1521C12.6095 36.1521 12.3679 36.1521 12.1312 36.1521C12.0228 36.1521 11.9883 36.1124 11.9883 36.0083C11.9883 35.8694 11.9883 35.7306 11.9883 35.5918C11.9883 35.5075 12.0179 35.4628 12.1115 35.4678C12.3827 35.4777 12.358 35.4777 12.358 35.205C12.358 34.6844 12.358 34.1687 12.358 33.648C12.358 33.4943 12.3482 33.4844 12.1953 33.4844C12.0573 33.4844 11.9883 33.4133 11.9883 33.2712C11.9883 33.1571 11.9883 33.0381 11.9883 32.9241C11.9883 32.8447 12.0228 32.8051 12.1066 32.8051C12.5996 32.8051 13.0926 32.8051 13.5856 32.8051C13.6694 32.8051 13.7039 32.8398 13.7039 32.9241C13.7039 33.0728 13.7039 33.2265 13.7039 33.3753C13.7039 33.4546 13.6694 33.4844 13.5905 33.4893C13.3342 33.5042 13.3342 33.5042 13.3342 33.767C13.3342 33.8265 13.3342 33.891 13.3342 33.9505C13.3342 34.124 13.3342 34.129 13.5067 34.129C13.8124 34.129 14.123 34.129 14.4286 34.129C14.5321 34.129 14.5765 34.0893 14.5716 33.9852C14.5667 33.8563 14.5716 33.7273 14.5716 33.6034C14.5716 33.5191 14.542 33.4844 14.4582 33.4844C14.2068 33.4745 14.2068 33.4745 14.2068 33.2166C14.2068 33.1174 14.2068 33.0232 14.2068 32.9241C14.2068 32.8447 14.2363 32.8001 14.3202 32.8051C14.8132 32.8051 15.3062 32.8051 15.7992 32.8051C15.8682 32.8051 15.9076 32.8348 15.9076 32.9092C15.9076 33.0679 15.9076 33.2265 15.9076 33.3852C15.9076 33.4596 15.8682 33.4844 15.7992 33.4893C15.5379 33.5092 15.5379 33.5092 15.5379 33.7769C15.5379 34.2877 15.5477 34.7984 15.5477 35.3091C15.5477 35.4628 15.5576 35.4728 15.7104 35.4777C15.8386 35.4777 15.9027 35.5422 15.9027 35.6711C15.9027 35.7951 15.9027 35.919 15.9027 36.043C15.9027 36.1223 15.8731 36.162 15.7893 36.162C15.2914 36.162 14.7984 36.162 14.3004 36.162C14.2265 36.162 14.192 36.1273 14.192 36.0579C14.192 35.8992 14.192 35.7405 14.192 35.5819C14.192 35.5025 14.2364 35.4777 14.3103 35.4777C14.5716 35.4678 14.5716 35.4628 14.5716 35.1951C14.5716 35.1157 14.5716 35.0314 14.5716 34.9521C14.5716 34.8728 14.5371 34.843 14.4582 34.843C14.123 34.843 13.7877 34.843 13.4525 34.843C13.3687 34.843 13.3292 34.8728 13.3342 34.9571C13.3342 35.0959 13.3342 35.2347 13.3342 35.3736C13.3342 35.448 13.3687 35.4728 13.4377 35.4777C13.7039 35.4976 13.7039 35.4976 13.7039 35.7703C13.7039 35.8447 13.7039 35.919 13.7039 35.9885C13.7039 36.157 13.7039 36.162 13.5363 36.162C13.3046 36.162 13.0729 36.162 12.8461 36.162V36.1521Z" fill="#1C1C1C"/>
<path d="M21.5286 34.5255C21.5532 34.5007 21.5434 34.4759 21.5434 34.4461C21.5434 34.1684 21.5434 33.8908 21.5434 33.6081C21.5434 33.5189 21.5187 33.4742 21.4201 33.4742C21.1588 33.4742 21.1736 33.499 21.1736 33.2214C21.1736 33.1172 21.1736 33.0131 21.1736 32.909C21.1736 32.8346 21.2032 32.7949 21.2821 32.7949C21.7258 32.7949 22.1744 32.7949 22.6181 32.7949C22.6871 32.7949 22.7266 32.8197 22.7266 32.8991C22.7266 33.0577 22.7266 33.2164 22.7266 33.3751C22.7266 33.4495 22.6921 33.4742 22.6181 33.4792C22.3568 33.499 22.3568 33.499 22.3568 33.7618C22.3568 34.4957 22.3568 35.2345 22.3568 35.9684C22.3568 36.1469 22.3568 36.1519 22.1793 36.1519C22.0166 36.1519 21.854 36.1469 21.6962 36.1519C21.5927 36.1519 21.5187 36.1221 21.4497 36.0428C21.0109 35.5122 20.5672 34.9916 20.1235 34.461C20.0989 34.4312 20.0791 34.3916 20.0348 34.3717C19.9953 34.3965 20.0101 34.4312 20.0101 34.466C20.0101 34.7486 20.0101 35.0312 20.0101 35.3139C20.0101 35.423 20.0397 35.4676 20.1531 35.4676C20.4637 35.4676 20.4637 35.4676 20.4637 35.7849C20.4637 35.8742 20.4637 35.9634 20.4637 36.0527C20.4637 36.1172 20.4292 36.1519 20.3602 36.1519C19.9066 36.1519 19.4531 36.1519 18.9995 36.1519C18.9354 36.1519 18.896 36.1221 18.896 36.0577C18.896 35.894 18.896 35.7304 18.896 35.5717C18.896 35.4874 18.9453 35.4725 19.0192 35.4676C19.1918 35.4626 19.1918 35.4577 19.1918 35.2841C19.1918 34.7387 19.1918 34.1932 19.1918 33.6478C19.1918 33.4941 19.1918 33.4842 19.0389 33.4891C18.9255 33.4891 18.8861 33.4445 18.891 33.3404C18.896 33.2065 18.891 33.0676 18.891 32.9338C18.891 32.8495 18.9206 32.8048 19.0093 32.8048C19.315 32.8048 19.6157 32.8048 19.9214 32.8048C19.9904 32.8048 20.0348 32.8346 20.0792 32.8842C20.5327 33.4098 20.9863 33.9354 21.4398 34.461C21.4645 34.4907 21.4793 34.5304 21.5236 34.5304L21.5286 34.5255Z" fill="#1C1C1C"/>
<path d="M5.93516 36.1529C5.43723 36.1529 4.93437 36.1529 4.43644 36.1529C4.31812 36.1529 4.27868 36.1083 4.28361 35.9992C4.28854 35.8653 4.28361 35.7265 4.28361 35.5926C4.28361 35.5083 4.31319 35.4637 4.40686 35.4637C4.67801 35.4686 4.65336 35.4736 4.65336 35.1959C4.65336 34.6852 4.65336 34.1745 4.65336 33.6637C4.65336 33.4803 4.65335 33.4803 4.47587 33.4753C4.28853 33.4753 4.28853 33.4753 4.28853 33.2869C4.28853 33.1629 4.28853 33.0389 4.28853 32.915C4.28853 32.8307 4.32304 32.791 4.41178 32.791C5.43722 32.791 6.45773 32.791 7.48317 32.791C7.57684 32.791 7.61627 32.8257 7.61627 32.9199C7.61627 33.2869 7.61627 33.6538 7.61627 34.0207C7.61627 34.105 7.58177 34.1397 7.49796 34.1397C7.29583 34.1397 7.09863 34.1397 6.8965 34.1397C6.81269 34.1397 6.77818 34.0951 6.77818 34.0158C6.77818 33.8769 6.77818 33.7381 6.77818 33.5993C6.77818 33.5051 6.73875 33.4703 6.64508 33.4703C6.34928 33.4703 6.05347 33.4703 5.75767 33.4703C5.664 33.4703 5.62457 33.5001 5.62457 33.5993C5.62457 33.7331 5.62457 33.872 5.62457 34.0059C5.62457 34.0852 5.65907 34.1199 5.73795 34.115C5.90557 34.115 6.06826 34.115 6.23588 34.115C6.32955 34.115 6.36899 34.1546 6.36406 34.2488C6.36406 34.3976 6.36406 34.5414 6.36406 34.6901C6.36406 34.7943 6.3197 34.824 6.22603 34.824C6.0732 34.824 5.92037 34.824 5.76261 34.824C5.66401 34.824 5.61964 34.8538 5.62457 34.9579C5.6295 35.0868 5.62457 35.2207 5.62457 35.3546C5.62457 35.4339 5.65908 35.4686 5.73303 35.4686C6.04855 35.4686 6.36406 35.4686 6.67958 35.4686C6.75846 35.4686 6.78804 35.4339 6.78804 35.3546C6.78804 35.2158 6.78804 35.0769 6.78804 34.9381C6.78804 34.8538 6.82256 34.8191 6.90637 34.8191C7.10357 34.8191 7.30075 34.8191 7.49302 34.8191C7.5719 34.8191 7.60148 34.8587 7.60148 34.9331C7.60148 35.3 7.60148 35.667 7.60148 36.0339C7.60148 36.1331 7.54725 36.1529 7.46344 36.1529C6.95072 36.1529 6.43801 36.1529 5.93022 36.1529H5.93516Z" fill="#1C1C1C"/>
<path d="M25.1515 32.84C25.7135 32.84 26.2755 32.84 26.8375 32.84C26.9854 32.84 26.9953 32.8499 26.9953 32.9987C26.9953 33.3408 26.9953 33.678 26.9953 34.0201C26.9953 34.1689 26.9854 34.1788 26.8375 34.1788C26.6551 34.1788 26.4678 34.1788 26.2854 34.1788C26.2016 34.1788 26.1671 34.1441 26.1671 34.0598C26.1671 33.9259 26.1621 33.797 26.1671 33.6631C26.172 33.5491 26.1276 33.5094 26.0192 33.5144C25.9403 33.5193 25.8565 33.5144 25.7776 33.5144C25.6987 33.5144 25.6642 33.5491 25.6642 33.6284C25.6642 34.2086 25.6642 34.7887 25.6642 35.3689C25.6642 35.4532 25.7036 35.4879 25.7825 35.4879C26.0685 35.4779 26.029 35.4978 26.034 35.7507C26.034 35.8498 26.034 35.954 26.034 36.0531C26.034 36.1275 26.0044 36.1672 25.9255 36.1672C25.4078 36.1672 24.8853 36.1672 24.3676 36.1672C24.2887 36.1672 24.2592 36.1275 24.2592 36.0531C24.2592 35.9044 24.2592 35.7606 24.2592 35.6118C24.2592 35.5226 24.2986 35.4829 24.3873 35.4879C24.6585 35.4978 24.624 35.473 24.624 35.235C24.624 34.7143 24.624 34.1986 24.624 33.678C24.624 33.5243 24.6141 33.5144 24.4613 33.5144C24.0767 33.5144 24.1359 33.4648 24.126 33.8466C24.1211 34.2234 24.1704 34.1689 23.8007 34.1738C23.6774 34.1738 23.5542 34.1738 23.4309 34.1738C23.3422 34.1738 23.3027 34.1441 23.3027 34.0499C23.3027 33.6879 23.3027 33.321 23.3027 32.959C23.3027 32.8499 23.357 32.8301 23.4457 32.8301C24.0127 32.8301 24.5845 32.8301 25.1515 32.8301V32.84Z" fill="#1C1C1C"/>
<path d="M11.5101 33.4801C11.5101 33.6586 11.5101 33.8371 11.5101 34.0157C11.5101 34.1049 11.4805 34.1545 11.3868 34.1495C11.1699 34.1495 10.9579 34.1495 10.741 34.1495C10.6671 34.1495 10.6276 34.1198 10.603 34.0454C10.4699 33.619 10.1642 33.4256 9.73035 33.4851C9.37046 33.5347 9.09932 33.8619 9.08946 34.2685C9.08453 34.452 9.06973 34.6305 9.1141 34.814C9.2127 35.2008 9.53808 35.4933 9.89797 35.5032C10.2381 35.5131 10.4797 35.3396 10.5783 35.0123C10.6145 34.8867 10.6999 34.8239 10.8347 34.8239C11.0171 34.8239 11.1946 34.8239 11.377 34.8239C11.4756 34.8239 11.5052 34.8586 11.4953 34.9528C11.4213 35.4834 11.1206 35.8404 10.6523 36.0635C10.4748 36.1478 10.2924 36.1974 10.0952 36.1875C9.97193 36.1776 9.84868 36.1776 9.72543 36.1875C9.05495 36.247 8.4387 35.7115 8.26122 35.1412C8.10839 34.6404 8.11332 34.1396 8.31544 33.6537C8.54715 33.0983 8.99579 32.8405 9.56767 32.7611C9.85361 32.7215 10.1346 32.7512 10.4058 32.8504C10.4551 32.8702 10.5044 32.8901 10.5487 32.9198C10.6177 32.9694 10.6818 33.0239 10.6769 32.8702C10.6769 32.8157 10.7213 32.8008 10.7657 32.8008C10.9826 32.8008 11.1946 32.8008 11.4115 32.8008C11.4953 32.8008 11.5101 32.8554 11.5101 32.9248C11.5101 33.1082 11.5101 33.2967 11.5101 33.4801V33.4801Z" fill="#1C1C1C"/>
<path d="M3.36632 12.6895C4.36218 12.6895 5.35804 12.6895 6.35389 12.6895C6.5363 12.6895 6.54124 12.6895 6.54124 12.8779C6.54124 13.0366 6.54124 13.1952 6.54124 13.3539C6.54124 13.5522 6.54123 13.5522 6.3391 13.5522C6.06796 13.5522 5.79187 13.5522 5.52072 13.5522C3.81988 13.5522 2.11903 13.5522 0.423116 13.5522C0.378746 13.5522 0.329447 13.5522 0.285077 13.5522C0.225917 13.5522 0.191406 13.5225 0.191406 13.458C0.191406 13.2349 0.191406 13.0068 0.191406 12.7837C0.191406 12.7192 0.230847 12.6944 0.285077 12.6944C0.329447 12.6944 0.368892 12.6944 0.413262 12.6944C1.39926 12.6944 2.38032 12.6944 3.36632 12.6944V12.6895Z" fill="#1C1C1C"/>
<path d="M3.37218 15.2236C2.37632 15.2236 1.38047 15.2236 0.384608 15.2236C0.197268 15.2236 0.197266 15.2236 0.197266 15.0352C0.197266 14.8567 0.197266 14.6782 0.197266 14.4997C0.197266 14.3906 0.24164 14.3509 0.34024 14.3608C0.35503 14.3608 0.369818 14.3608 0.384608 14.3608C2.37632 14.3608 4.36804 14.3608 6.35975 14.3608C6.54709 14.3608 6.5471 14.3608 6.5471 14.5493C6.5471 14.7179 6.5471 14.8914 6.5471 15.06C6.5471 15.2137 6.53723 15.2236 6.3844 15.2236C5.37868 15.2236 4.3779 15.2236 3.37218 15.2236Z" fill="#1C1C1C"/>
<path d="M3.35739 23.602C2.37139 23.602 1.38046 23.602 0.394462 23.602C0.197263 23.602 0.197266 23.602 0.197266 23.4036C0.197266 23.245 0.197266 23.0863 0.197266 22.9276C0.197266 22.7491 0.197273 22.7441 0.374753 22.7441C0.384613 22.7441 0.389537 22.7441 0.399397 22.7441C2.38618 22.7441 4.36803 22.7441 6.35482 22.7441C6.48628 22.7441 6.55203 22.8103 6.55203 22.9425C6.55203 23.0764 6.55203 23.2053 6.55203 23.3392C6.55203 23.6119 6.58654 23.6069 6.29074 23.6069C6.04917 23.6069 5.8076 23.6069 5.56603 23.6069C4.83146 23.6069 4.09689 23.6069 3.36233 23.6069L3.35739 23.602Z" fill="#1C1C1C"/>
<path d="M3.37218 24.416C4.35818 24.416 5.33924 24.416 6.32524 24.416C6.47314 24.416 6.5471 24.492 6.5471 24.6441C6.5471 24.8127 6.5471 24.9862 6.5471 25.1548C6.5471 25.2441 6.51259 25.2838 6.42385 25.2788C6.3992 25.2788 6.36961 25.2788 6.34496 25.2788C4.36311 25.2788 2.38126 25.2788 0.404332 25.2788C0.266292 25.2788 0.197266 25.2077 0.197266 25.0656C0.197266 24.902 0.197266 24.7383 0.197266 24.5796C0.197266 24.4309 0.212059 24.421 0.355029 24.421C0.961418 24.421 1.57273 24.421 2.17912 24.421C2.57845 24.421 2.97779 24.421 3.37712 24.421L3.37218 24.416Z" fill="#1C1C1C"/>
<path d="M23.8155 15.2235C22.8197 15.2235 21.8238 15.2235 20.828 15.2235C20.6456 15.2235 20.6456 15.2235 20.6406 15.0351C20.6406 14.8516 20.6406 14.6731 20.6406 14.4896C20.6406 14.4004 20.6751 14.3607 20.7639 14.3656C20.7984 14.3656 20.8329 14.3656 20.8674 14.3656C22.8345 14.3656 24.7966 14.3656 26.7637 14.3656C26.9182 14.3656 26.9954 14.445 26.9954 14.6037C26.9954 14.7574 26.9954 14.9111 26.9954 15.0698C26.9954 15.2185 26.9806 15.2284 26.8376 15.2284C25.9601 15.2284 25.0825 15.2284 24.2099 15.2284C24.0768 15.2284 23.9486 15.2284 23.8155 15.2284V15.2235Z" fill="#1C1C1C"/>
<path d="M23.8214 21.0684C24.8173 21.0684 25.8131 21.0684 26.809 21.0684C26.9914 21.0684 26.9963 21.0684 26.9963 21.2568C26.9963 21.4402 26.9963 21.6188 26.9963 21.8022C26.9963 21.8915 26.9618 21.9311 26.8731 21.9311C26.8336 21.9311 26.7942 21.9311 26.7597 21.9311C24.7975 21.9311 22.8354 21.9311 20.8782 21.9311C20.8388 21.9311 20.7993 21.9311 20.7648 21.9311C20.6859 21.9311 20.6465 21.8964 20.6465 21.8121C20.6465 21.6088 20.6465 21.4006 20.6465 21.1973C20.6465 21.0981 20.6908 21.0684 20.7796 21.0733C20.9571 21.0733 21.1346 21.0733 21.312 21.0733C22.1501 21.0733 22.9882 21.0733 23.8263 21.0733L23.8214 21.0684Z" fill="#1C1C1C"/>
<path d="M23.8302 22.7441C24.8212 22.7441 25.817 22.7441 26.808 22.7441C27.0002 22.7441 27.0002 22.7441 27.0002 22.9375C27.0002 23.116 27.0002 23.2945 27.0002 23.473C27.0002 23.5673 26.9657 23.6119 26.8721 23.6069C26.8326 23.6069 26.7932 23.6069 26.7587 23.6069C24.8014 23.6069 22.8442 23.6069 20.887 23.6069C20.8427 23.6069 20.7934 23.6069 20.749 23.6069C20.6849 23.6069 20.6504 23.5722 20.6504 23.5078C20.6504 23.2896 20.6504 23.0764 20.6504 22.8582C20.6504 22.7838 20.68 22.7491 20.7539 22.7491C20.7983 22.7491 20.8377 22.7491 20.8821 22.7491C21.8681 22.7491 22.8492 22.7491 23.8352 22.7491L23.8302 22.7441Z" fill="#1C1C1C"/>
<path d="M23.8106 25.2782C22.8197 25.2782 21.8238 25.2782 20.8329 25.2782C20.6406 25.2782 20.6406 25.2782 20.6406 25.0848C20.6406 24.9013 20.6406 24.7228 20.6406 24.5393C20.6406 24.455 20.6751 24.4154 20.754 24.4203C20.7935 24.4203 20.8329 24.4203 20.8674 24.4203C22.8295 24.4203 24.7917 24.4203 26.7538 24.4203C26.7785 24.4203 26.808 24.4203 26.8327 24.4203C26.9757 24.4203 26.9905 24.4352 26.9905 24.584C26.9905 24.7575 26.9905 24.9311 26.9905 25.1046C26.9905 25.2732 26.9806 25.2831 26.813 25.2831C25.8072 25.2831 24.8065 25.2831 23.8008 25.2831L23.8106 25.2782Z" fill="#1C1C1C"/>
<path d="M23.8263 13.5516C22.8305 13.5516 21.8346 13.5516 20.8387 13.5516C20.6465 13.5516 20.6465 13.5516 20.6465 13.3582C20.6465 13.1748 20.6465 12.9962 20.6465 12.8128C20.6465 12.7285 20.681 12.6888 20.7599 12.6938C20.7894 12.6938 20.819 12.6938 20.8535 12.6938C22.8305 12.6938 24.8074 12.6938 26.7843 12.6938C26.9256 12.6938 26.9963 12.7648 26.9963 12.907C26.9963 13.0607 26.9963 13.2144 26.9963 13.3731C26.9963 13.5516 26.9864 13.5566 26.8139 13.5566C25.818 13.5566 24.8222 13.5566 23.8263 13.5566V13.5516Z" fill="#1C1C1C"/>
<path d="M3.3772 21.0698C4.36813 21.0698 5.35905 21.0698 6.35491 21.0698C6.54718 21.0698 6.54718 21.0698 6.54718 21.2632C6.54718 21.4466 6.54718 21.6251 6.54718 21.8086C6.54718 21.8929 6.51268 21.9276 6.42887 21.9276C6.3845 21.9276 6.34505 21.9276 6.30068 21.9276C4.34348 21.9276 2.38627 21.9276 0.429065 21.9276C0.268018 21.9276 0.1875 21.8466 0.1875 21.6846C0.1875 21.5309 0.19243 21.3772 0.1875 21.2185C0.1875 21.1045 0.222009 21.0599 0.340328 21.0648C0.853047 21.0648 1.36083 21.0648 1.87355 21.0648C2.37148 21.0648 2.87434 21.0648 3.37227 21.0648L3.3772 21.0698Z" fill="#1C1C1C"/>
<path d="M3.38101 16.0508C4.37193 16.0508 5.3678 16.0508 6.35872 16.0508C6.55099 16.0508 6.551 16.0508 6.551 16.2442C6.551 16.4227 6.551 16.6012 6.551 16.7797C6.551 16.864 6.52142 16.9037 6.43761 16.8987C6.40803 16.8987 6.37845 16.8987 6.34394 16.8987C4.36208 16.8987 2.38023 16.8987 0.403303 16.8987C0.26855 16.8987 0.201172 16.8293 0.201172 16.6904C0.201172 16.5318 0.201172 16.3731 0.201172 16.2144C0.201172 16.0607 0.211025 16.0508 0.363855 16.0508C1.36957 16.0508 2.38022 16.0508 3.38594 16.0508H3.38101Z" fill="#1C1C1C"/>
<path d="M23.8115 16.0508C24.8123 16.0508 25.8131 16.0508 26.8139 16.0508C26.9963 16.0508 27.0012 16.0508 27.0012 16.2392C27.0012 16.4177 27.0012 16.5962 27.0012 16.7747C27.0012 16.859 26.9717 16.9086 26.878 16.8987C26.8435 16.8987 26.809 16.8987 26.7745 16.8987C24.8074 16.8987 22.8453 16.8987 20.8782 16.8987C20.8338 16.8987 20.7944 16.8987 20.75 16.8987C20.6761 16.8987 20.6465 16.864 20.6465 16.7896C20.6465 16.5813 20.6465 16.3731 20.6465 16.1648C20.6465 16.0805 20.6859 16.0508 20.7648 16.0508C20.9965 16.0508 21.2282 16.0508 21.455 16.0508C22.2389 16.0508 23.0227 16.0508 23.8115 16.0508V16.0508Z" fill="#1C1C1C"/>
<path d="M3.36725 17.7227C4.3631 17.7227 5.35896 17.7227 6.35482 17.7227C6.54709 17.7227 6.5471 17.7227 6.5471 17.916C6.5471 18.0945 6.5471 18.2731 6.5471 18.4516C6.5471 18.5359 6.51751 18.5755 6.4337 18.5706C6.40412 18.5706 6.37454 18.5706 6.34003 18.5706C4.35817 18.5706 2.37632 18.5706 0.399397 18.5706C0.264644 18.5706 0.197266 18.5028 0.197266 18.3673C0.197266 18.2136 0.197266 18.0598 0.197266 17.9012C0.197266 17.7276 0.202199 17.7227 0.369818 17.7227C1.37061 17.7227 2.37139 17.7227 3.37218 17.7227H3.36725Z" fill="#1C1C1C"/>
<path d="M23.8263 18.569C22.8305 18.569 21.8346 18.569 20.8387 18.569C20.6465 18.569 20.6465 18.569 20.6465 18.3756C20.6465 18.1971 20.6465 18.0186 20.6465 17.8401C20.6465 17.7558 20.681 17.7162 20.7648 17.7211C20.7944 17.7211 20.824 17.7211 20.8585 17.7211C22.8403 17.7211 24.8222 17.7211 26.804 17.7211C26.9388 17.7211 27.0062 17.7905 27.0062 17.9294C27.0062 18.093 27.0062 18.2566 27.0062 18.4153C27.0062 18.5294 26.9717 18.574 26.8533 18.569C26.2864 18.569 25.7145 18.569 25.1476 18.569C24.7088 18.569 24.27 18.569 23.8313 18.569H23.8263Z" fill="#1C1C1C"/>
<path d="M3.35647 20.2464C2.36554 20.2464 1.36968 20.2464 0.378748 20.2464C0.191409 20.2464 0.191406 20.2464 0.191406 20.0579C0.191406 19.8993 0.191406 19.7406 0.191406 19.5819C0.191406 19.3984 0.191409 19.3984 0.378748 19.3984C1.18234 19.3984 1.98593 19.3984 2.78952 19.3984C3.97765 19.3984 5.16577 19.3984 6.35389 19.3984C6.54123 19.3984 6.54124 19.3984 6.54124 19.5869C6.54124 19.7555 6.54124 19.9191 6.54124 20.0877C6.54124 20.2414 6.53138 20.2513 6.37362 20.2513C5.3679 20.2513 4.35725 20.2513 3.35153 20.2513L3.35647 20.2464Z" fill="#1C1C1C"/>
<path d="M23.8115 20.2448C22.8157 20.2448 21.8198 20.2448 20.824 20.2448C20.6465 20.2448 20.6465 20.2448 20.6465 20.0613C20.6465 19.8779 20.6465 19.6994 20.6465 19.5159C20.6465 19.4316 20.6761 19.3919 20.7599 19.3969C20.7894 19.3969 20.819 19.3969 20.8535 19.3969C22.8354 19.3969 24.8173 19.3969 26.7942 19.3969C26.9289 19.3969 26.9963 19.4647 26.9963 19.6002C26.9963 19.7539 26.9963 19.9076 26.9963 20.0663C26.9963 20.2399 26.9914 20.2448 26.8238 20.2448C25.818 20.2448 24.8172 20.2448 23.8115 20.2448V20.2448Z" fill="#1C1C1C"/>
<path d="M17.4018 32.8008C17.6385 32.8008 17.88 32.8008 18.1167 32.8008C18.2103 32.8008 18.2498 32.8355 18.2498 32.9297C18.2498 33.0735 18.2498 33.2173 18.2498 33.3611C18.2498 33.4454 18.2153 33.49 18.1265 33.4851C17.8603 33.4801 17.88 33.4702 17.88 33.7429C17.88 34.2685 17.88 34.7941 17.88 35.3197C17.88 35.4635 17.8899 35.4685 18.0328 35.4734C18.1775 35.4734 18.2498 35.5478 18.2498 35.6966C18.2498 35.8106 18.2498 35.9296 18.2498 36.0437C18.2498 36.1181 18.2153 36.1577 18.1413 36.1577C17.6434 36.1577 17.1504 36.1577 16.6525 36.1577C16.5736 36.1577 16.5391 36.123 16.5391 36.0486C16.5391 35.8949 16.5391 35.7412 16.5391 35.5825C16.5391 35.5032 16.5736 35.4734 16.6525 35.4734C16.9088 35.4586 16.9088 35.4586 16.9088 35.2057C16.9088 34.69 16.9088 34.1743 16.9088 33.6636C16.9088 33.495 16.9088 33.495 16.7412 33.49C16.7018 33.49 16.6623 33.49 16.6278 33.49C16.5736 33.49 16.544 33.4603 16.544 33.4057C16.544 33.2371 16.544 33.0735 16.544 32.9049C16.544 32.8157 16.6032 32.8107 16.6672 32.8107C16.9137 32.8107 17.1602 32.8107 17.4067 32.8107L17.4018 32.8008Z" fill="#1C1C1C"/>
</svg>
