<svg width="85" height="22" viewBox="0 0 85 22" fill="none" xmlns="http://www.w3.org/2000/svg">
<path d="M34.9719 21.2945C34.7106 21.2747 34.4444 21.2648 34.1831 21.2301C32.6548 21.0367 31.3878 20.3871 30.5152 19.0731C30.0025 18.3045 29.7461 17.4417 29.6574 16.5294C29.5539 15.4286 29.6426 14.3426 30.0124 13.2964C30.4462 12.0617 31.1808 11.075 32.3492 10.4502C32.9802 10.118 33.6556 9.93945 34.3606 9.87003C35.1889 9.78573 36.0072 9.83532 36.8059 10.0832C38.2208 10.5146 39.2167 11.4171 39.8132 12.7708C40.178 13.5989 40.3308 14.4765 40.3851 15.374C40.3999 15.5972 40.4048 15.8153 40.4196 16.0385C40.4245 16.1525 40.3752 16.2021 40.2618 16.1971C40.2076 16.1971 40.1534 16.1971 40.0942 16.1971C37.7672 16.1971 35.4403 16.1971 33.1133 16.1971C32.9293 16.1971 32.8405 16.2914 32.8471 16.4798C32.8866 17.655 33.6408 18.5872 34.7353 18.7756C35.8347 18.964 36.8946 18.6268 37.5503 17.5855C37.6539 17.4169 37.7574 17.2434 37.8461 17.0649C37.8954 16.9657 37.9447 16.9409 38.0532 16.9955C38.7532 17.3624 39.4582 17.7244 40.1632 18.0814C40.252 18.126 40.2963 18.1657 40.2322 18.2698C39.4188 19.5491 38.3687 20.5309 36.8946 20.9921C36.3425 21.1656 35.7805 21.2697 35.1987 21.2697C35.1346 21.2697 35.0656 21.2648 35.0015 21.2945H34.967H34.9719ZM35.0212 14.1889C35.3318 14.1889 35.6424 14.1889 35.9481 14.1889C36.2981 14.1889 36.6432 14.1889 36.9932 14.1889C37.0672 14.1889 37.1609 14.1988 37.1411 14.0749C37.077 13.6534 36.9883 13.2468 36.7319 12.8947C36.1699 12.1163 34.8881 11.8782 34.0155 12.384C33.4141 12.7311 33.0739 13.2567 32.9211 13.9212C32.857 14.1939 32.8126 14.1939 33.1281 14.1939C33.7592 14.1939 34.3902 14.1939 35.0163 14.1939L35.0212 14.1889Z" fill="#1C1C1C"/>
<path d="M84.8667 17.7242C84.8273 17.9176 84.7977 18.116 84.7435 18.3093C84.4625 19.2961 83.8018 19.9605 82.9243 20.4316C82.1109 20.868 81.2333 21.0713 80.3213 21.1308C79.2071 21.2051 78.1274 21.0613 77.0823 20.6647C76.2047 20.3324 75.4406 19.8217 74.7701 19.1721C74.6962 19.0978 74.6814 19.0531 74.7701 18.9738C75.3568 18.4432 75.9435 17.9077 76.5252 17.3722C76.6287 17.273 76.6928 17.2829 76.7963 17.3771C77.4619 18.0019 78.2063 18.4928 79.1134 18.6614C79.7346 18.7804 80.3459 18.7457 80.9425 18.5176C81.115 18.4531 81.2728 18.3589 81.4009 18.225C81.7608 17.8581 81.6918 17.3325 81.2383 17.0995C80.8833 16.916 80.4938 16.8515 80.1093 16.792C79.1282 16.6482 78.157 16.4697 77.2351 16.0879C76.2343 15.6763 75.623 14.9326 75.4603 13.8566C75.3075 12.8401 75.6279 11.9574 76.3083 11.2087C77.0379 10.4054 77.9795 10.0186 79.0247 9.88476C81.0558 9.63187 82.8898 10.1525 84.5512 11.3376C84.6646 11.417 84.6547 11.4616 84.5611 11.5459C83.9892 12.0715 83.4222 12.5971 82.8602 13.1326C82.7567 13.2318 82.6926 13.2268 82.5841 13.1475C81.9334 12.6665 81.2284 12.3045 80.4149 12.2103C79.9417 12.1558 79.4733 12.1706 79.0296 12.369C78.7979 12.4731 78.6155 12.6318 78.5761 12.8996C78.5416 13.1772 78.65 13.3805 78.9014 13.5194C79.2663 13.7177 79.6755 13.7723 80.0797 13.8466C80.9967 14.0202 81.9186 14.1838 82.7863 14.5458C83.3631 14.7888 83.8955 15.1012 84.2899 15.602C84.6104 16.0036 84.7879 16.4648 84.847 16.9705C84.847 17.0102 84.8618 17.0449 84.8717 17.0846V17.7193L84.8667 17.7242Z" fill="#1C1C1C"/>
<path d="M61.8503 16.5642C61.8503 17.6353 61.8503 18.741 61.8503 19.8418C61.8503 20.1641 61.8947 20.4715 62.0672 20.7542C62.1214 20.8434 62.1017 20.8881 61.9982 20.893C61.9637 20.893 61.9341 20.893 61.8996 20.893C61.027 20.893 60.1544 20.893 59.2768 20.893C59.0353 20.893 59.0303 20.8881 59.0303 20.6401C59.0303 20.4666 59.0303 20.298 59.0303 20.1244C59.0303 20.0749 59.0501 20.0104 59.0106 19.9856C58.9515 19.9559 58.912 20.0203 58.8726 20.055C58.5817 20.2633 58.2908 20.4765 57.9704 20.6451C56.7724 21.2649 55.5251 21.3889 54.268 20.8881C53.0798 20.417 52.4537 19.4699 52.3256 18.2055C52.2023 16.9609 52.7594 16.0336 53.7158 15.3047C54.2827 14.8733 54.9434 14.6601 55.6237 14.4866C56.5801 14.2486 57.5464 14.0651 58.5127 13.8915C58.6754 13.8618 58.7395 13.8023 58.7296 13.6337C58.7197 13.3461 58.7296 13.0585 58.6606 12.7709C58.5571 12.3296 58.281 12.0718 57.8422 12.0122C57.5168 11.9676 57.1915 11.9775 56.871 12.0767C56.3829 12.2205 56.0723 12.5379 55.959 13.0387C55.9244 13.1973 55.8505 13.242 55.6977 13.237C54.7856 13.2321 53.8736 13.237 52.9615 13.237C52.7495 13.237 52.7495 13.2221 52.7643 13.004C52.8333 12.1957 53.1143 11.4966 53.7355 10.9561C54.1989 10.5495 54.7363 10.2817 55.3279 10.128C56.1709 9.90982 57.0288 9.86023 57.8915 9.91974C58.488 9.95941 59.0796 10.0487 59.6466 10.2371C60.2086 10.4206 60.7262 10.6933 61.1404 11.1346C61.5643 11.5858 61.7862 12.1263 61.8158 12.7412C61.8749 14.0056 61.8207 15.275 61.8454 16.5741L61.8503 16.5642ZM58.7247 16.1973C58.7247 16.113 58.7247 16.0783 58.7247 16.0386C58.7247 15.7857 58.7247 15.7857 58.493 15.8601C57.9309 16.0485 57.3689 16.232 56.8118 16.4254C56.4717 16.5444 56.1364 16.6782 55.8505 16.9014C55.4758 17.1939 55.323 17.6253 55.4462 18.0369C55.5843 18.4832 55.9935 18.8104 56.452 18.8253C57.2703 18.8501 57.8866 18.4633 58.3303 17.8038C58.6655 17.3129 58.6902 16.7278 58.7198 16.2022L58.7247 16.1973Z" fill="#1C1C1C"/>
<path d="M44.8948 11.1091C45.1018 10.8959 45.2842 10.7125 45.4913 10.5637C45.9843 10.2116 46.5513 10.0629 47.133 9.97364C47.9169 9.85463 48.6859 9.89926 49.4353 10.1869C50.4065 10.5587 50.9537 11.2777 51.1066 12.3042C51.1707 12.7207 51.1953 13.1422 51.1953 13.5636C51.2002 15.9189 51.1953 18.2743 51.1953 20.6296C51.1953 20.8874 51.1953 20.8924 50.9389 20.8924C50.0565 20.8924 49.1691 20.8924 48.2866 20.8924C48.045 20.8924 48.045 20.8924 48.0401 20.6395C48.0401 18.5371 48.0401 16.4297 48.0401 14.3272C48.0401 14.0892 48.0303 13.8512 47.9908 13.6132C47.8873 12.9488 47.3992 12.5174 46.7139 12.4678C46.5069 12.4529 46.2949 12.4579 46.0878 12.4926C45.5653 12.5818 45.2152 12.8744 45.0427 13.3752C44.9539 13.6331 44.9096 13.9008 44.8948 14.1735C44.8652 14.7289 44.8603 15.2842 44.8652 15.8396C44.8652 17.4462 44.8652 19.0478 44.8652 20.6544C44.8652 20.8874 44.8652 20.8924 44.6384 20.8924C43.7313 20.8924 42.8242 20.8924 41.9171 20.8924C41.71 20.8924 41.7051 20.8825 41.7051 20.6742C41.7051 17.2528 41.7051 13.8314 41.7051 10.41C41.7051 10.1968 41.71 10.1869 41.9319 10.1869C42.8439 10.1869 43.756 10.1869 44.668 10.1869C44.8849 10.1869 44.8948 10.1918 44.8948 10.41C44.8948 10.6282 44.8948 10.8414 44.8948 11.1042V11.1091Z" fill="#1C1C1C"/>
<path d="M24.4457 15.1613C24.4457 13.3415 24.4457 11.5167 24.4457 9.69693C24.4457 9.46884 24.4457 9.46884 24.214 9.46884C23.0653 9.46884 21.9116 9.46884 20.763 9.46884C20.5313 9.46884 20.5312 9.46884 20.5312 9.24074C20.5312 8.36308 20.5312 7.48541 20.5312 6.60775C20.5312 6.44908 20.5806 6.39453 20.7383 6.39453C24.3027 6.39453 27.872 6.39453 31.4364 6.39453C31.5941 6.39453 31.6533 6.44412 31.6533 6.60279C31.6533 7.48541 31.6533 8.36804 31.6533 9.25066C31.6533 9.449 31.6385 9.46388 31.4315 9.46388C30.2828 9.46388 29.1292 9.46388 27.9805 9.46388C27.7389 9.46388 27.7389 9.46388 27.7389 9.70189C27.7389 13.3117 27.7389 16.9215 27.7389 20.5314C27.7389 20.581 27.7389 20.6305 27.7389 20.6801C27.7537 20.8388 27.6847 20.8933 27.5269 20.8933C26.5705 20.8884 25.6141 20.8884 24.6577 20.8933C24.4851 20.8933 24.4407 20.8338 24.4407 20.6702C24.4407 18.8306 24.4407 16.991 24.4407 15.1563L24.4457 15.1613Z" fill="#1C1C1C"/>
<path d="M8.61094 9.46298C6.02762 9.46298 3.44924 9.46298 0.865922 9.46298C0.685156 9.46298 0.59313 9.37207 0.589844 9.19026C0.589844 8.32747 0.589844 7.46964 0.589844 6.60685C0.589844 6.43826 0.639145 6.38867 0.806765 6.38867C6.01283 6.38867 11.2189 6.38867 16.4299 6.38867C16.6419 6.38867 16.6567 6.40355 16.6567 6.61676C16.6567 7.48947 16.6567 8.36218 16.6567 9.22992C16.6567 9.45802 16.6518 9.46298 16.42 9.46298C13.817 9.46298 11.214 9.46298 8.61094 9.46298V9.46298Z" fill="#1C1C1C"/>
<path d="M63.5645 15.522C63.5645 13.8113 63.5645 12.1006 63.5645 10.3899C63.5645 10.1569 63.5644 10.1519 63.7912 10.1519C64.6688 10.1519 65.5512 10.1519 66.4288 10.1519C66.6408 10.1519 66.6506 10.1668 66.6556 10.38C66.6556 10.623 66.6556 10.8709 66.6556 11.1139C66.6556 11.1436 66.6457 11.1883 66.6802 11.2031C66.7147 11.223 66.7394 11.1833 66.764 11.1635C67.5627 10.4891 68.5092 10.1866 69.5297 10.0676C69.6727 10.0527 69.7171 10.0875 69.7171 10.2313C69.7171 11.0494 69.7171 11.8626 69.7171 12.6808C69.7171 12.8246 69.6629 12.8742 69.5297 12.894C69.017 12.9684 68.4994 13.0428 67.9965 13.1618C67.8141 13.2064 67.6366 13.2609 67.4591 13.3353C67.0302 13.5138 66.8232 13.846 66.764 14.2923C66.7344 14.5006 66.7246 14.7138 66.7295 14.922C66.7295 16.8212 66.7295 18.7203 66.7295 20.6194C66.7295 20.7979 66.6408 20.8872 66.4633 20.8872C65.5858 20.8872 64.7033 20.8872 63.8257 20.8872C63.6515 20.8872 63.5645 20.8029 63.5645 20.6343C63.5645 18.9286 63.5645 17.2228 63.5645 15.5171V15.522Z" fill="#1C1C1C"/>
<path d="M70.8956 15.5234C70.8956 13.8176 70.8956 12.1119 70.8956 10.4061C70.8956 10.2408 70.9777 10.1582 71.1421 10.1582C72.0245 10.1582 72.9119 10.1582 73.7944 10.1582C74.0113 10.1582 74.0163 10.1632 74.0163 10.3813C74.0163 13.8127 74.0163 17.244 74.0163 20.6803C74.0163 20.8885 74.0064 20.8984 73.7993 20.8984C72.9021 20.8984 72.0097 20.8984 71.1125 20.8984C70.8956 20.8984 70.8906 20.8935 70.8906 20.6753C70.8906 18.9596 70.8906 17.244 70.8906 15.5283L70.8956 15.5234Z" fill="#1C1C1C"/>
<path d="M8.62963 5.0696C6.04631 5.0696 3.46793 5.0696 0.884618 5.0696C0.690705 5.0696 0.59375 4.96878 0.59375 4.76713C0.59375 4.41011 0.59375 4.05806 0.59375 3.70104C0.59375 3.57212 0.638115 3.51261 0.766295 3.52253C0.815595 3.52253 0.864896 3.52253 0.914196 3.52253C6.05618 3.52253 11.1982 3.52253 16.3352 3.52253C16.3746 3.52253 16.4141 3.52253 16.4535 3.52253C16.6162 3.5027 16.6606 3.58203 16.6606 3.73575C16.6507 4.10268 16.6606 4.46962 16.6606 4.83655C16.6606 5.06464 16.6606 5.0696 16.4289 5.0696C13.8308 5.0696 11.2327 5.0696 8.63456 5.0696H8.62963Z" fill="#1C1C1C"/>
<path d="M8.62963 12.3343C6.03645 12.3343 3.44328 12.3343 0.850104 12.3343C0.679198 12.3343 0.59375 12.25 0.59375 12.0814C0.59375 11.7095 0.59375 11.3376 0.59375 10.9657C0.59375 10.8368 0.64305 10.7822 0.77123 10.7922C0.82053 10.7922 0.869824 10.7922 0.919124 10.7922C6.0611 10.7922 11.2031 10.7922 16.3451 10.7922C16.3944 10.7922 16.4437 10.7922 16.493 10.7922C16.6113 10.7822 16.6606 10.8368 16.6606 10.9558C16.6606 11.3624 16.6606 11.769 16.6606 12.1706C16.6606 12.3244 16.5768 12.3392 16.4585 12.3392C15.6056 12.3392 14.7576 12.3392 13.9047 12.3392C12.1447 12.3392 10.3896 12.3392 8.62963 12.3392V12.3343Z" fill="#1C1C1C"/>
<path d="M8.62963 14.0307C6.04138 14.0307 3.45314 14.0307 0.869828 14.0307C0.685775 14.0307 0.59375 13.9398 0.59375 13.758C0.59375 13.6291 0.59375 13.5002 0.59375 13.3762C0.59375 13.277 0.633189 13.2324 0.731789 13.2324C0.781089 13.2324 0.83039 13.2324 0.87969 13.2324C6.03646 13.2324 11.1982 13.2324 16.3549 13.2324C16.4092 13.2324 16.4634 13.2324 16.5225 13.2324C16.6113 13.2324 16.6557 13.277 16.6557 13.3663C16.6557 13.5448 16.6557 13.7233 16.6557 13.9018C16.6557 13.9911 16.6162 14.0357 16.5225 14.0357C16.4683 14.0357 16.4141 14.0357 16.3549 14.0357C13.7765 14.0357 11.2031 14.0357 8.6247 14.0357L8.62963 14.0307Z" fill="#1C1C1C"/>
<path d="M8.60991 2.62946C6.0266 2.62946 3.44821 2.62946 0.864893 2.62946C0.684127 2.62946 0.59375 2.5369 0.59375 2.35178C0.59375 2.22286 0.59375 2.09393 0.59375 1.96997C0.59375 1.8708 0.638119 1.82617 0.731789 1.82617C0.786019 1.82617 0.840247 1.82617 0.899407 1.82617C6.04632 1.82617 11.1932 1.82617 16.3401 1.82617C16.6606 1.82617 16.6606 1.82617 16.6606 2.14352C16.6557 2.70879 16.7296 2.6245 16.1775 2.6245C13.6582 2.6245 11.1341 2.6245 8.61484 2.6245L8.60991 2.62946Z" fill="#1C1C1C"/>
<path d="M8.61094 14.6844C11.214 14.6844 13.8219 14.6844 16.425 14.6844C16.4989 14.6844 16.6123 14.6398 16.6419 14.7538C16.6715 14.8877 16.6813 15.0265 16.632 15.1604C16.6172 15.1951 16.5778 15.1951 16.5433 15.1951C16.4841 15.1951 16.42 15.1951 16.3609 15.1951C11.209 15.1951 6.05227 15.1951 0.900431 15.1951C0.841272 15.1951 0.777184 15.1951 0.718024 15.1951C0.634214 15.1951 0.594774 15.1554 0.594774 15.0711C0.594774 15.0612 0.594774 15.0513 0.594774 15.0364C0.581628 14.7984 0.695011 14.6794 0.934937 14.6794C3.4936 14.6794 6.0572 14.6794 8.61586 14.6794L8.61094 14.6844Z" fill="#1C1C1C"/>
<path d="M72.4537 8.8633C72.0002 8.8633 71.5466 8.8633 71.093 8.8633C70.9451 8.8633 70.886 8.82363 70.8909 8.66496C70.8958 7.97076 70.8958 7.27656 70.8909 6.58236C70.8909 6.43856 70.9353 6.38402 71.0783 6.38898C71.9952 6.38898 72.9122 6.38898 73.8292 6.38898C73.9623 6.38898 74.0165 6.42865 74.0165 6.57245C74.0165 7.27656 74.0165 7.98068 74.0165 8.68975C74.0165 8.83355 73.9574 8.86826 73.8243 8.86826C73.3658 8.86826 72.9073 8.86826 72.4488 8.86826L72.4537 8.8633Z" fill="#1C1C1C"/>
<path d="M8.63022 1.23188C6.04197 1.23188 3.45373 1.23188 0.870419 1.23188C0.61406 1.23188 0.515456 1.07817 0.604195 0.825279C0.623915 0.775693 0.658431 0.755859 0.702801 0.755859C0.761961 0.755859 0.826049 0.755859 0.885208 0.755859C6.04691 0.755859 11.2135 0.755859 16.3752 0.755859C16.6464 0.755859 16.7351 0.88974 16.6513 1.15254C16.6316 1.21205 16.5971 1.23188 16.5429 1.23188C16.4837 1.23188 16.4196 1.23188 16.3604 1.23188C13.7821 1.23188 11.2086 1.23188 8.63022 1.23188Z" fill="#1C1C1C"/>
</svg>
