<svg width="71" height="22" viewBox="0 0 71 22" fill="none" xmlns="http://www.w3.org/2000/svg">
<g clip-path="url(#clip0_2165_16129)">
<path d="M70.9991 21.9972H22.2637V0H70.9991V21.9972ZM67.0973 18.3708C67.0973 16.4151 67.1381 14.5566 67.0803 12.7017C67.0518 11.7988 66.4445 11.1929 65.5174 11.2123C64.7669 11.228 64.023 11.5139 63.0969 11.7202C62.1755 10.8959 61.219 10.8765 59.8261 11.9071C59.7853 10.883 59.1078 11.4371 58.657 11.3594V18.3671H59.7359C59.753 18.0091 59.7796 17.7001 59.7805 17.392C59.7862 16.1922 59.7378 14.9905 59.8052 13.7943C59.8318 13.3243 59.9845 12.7369 60.309 12.4436C60.5852 12.1939 61.2864 12.1115 61.6223 12.2836C61.9478 12.451 62.203 13.0311 62.2191 13.4409C62.2856 15.0709 62.2467 16.7047 62.2467 18.3467H63.4356C63.4356 17.9008 63.4347 17.5262 63.4356 17.1524C63.4394 15.9211 63.4081 14.6889 63.4603 13.4594C63.5058 12.3909 64.1786 11.9034 65.1151 12.1679C65.8913 12.3872 65.8979 13.0246 65.9055 13.6204C65.9274 15.1894 65.9131 16.7583 65.9131 18.3708H67.0964H67.0973ZM35.4626 15.2347C35.4038 14.3817 35.4209 13.6842 35.2956 13.0107C35.0736 11.8136 34.3761 11.2502 33.1815 11.1725C31.6196 11.0717 30.6812 11.5333 30.3121 12.7128C29.8585 14.1616 29.8595 15.6454 30.3443 17.0886C30.7457 18.282 31.7667 18.739 33.3494 18.5447C34.5944 18.3921 35.2282 17.7075 35.3411 16.3448H34.1332C33.6787 17.4586 33.134 17.8074 32.2858 17.5456C31.5485 17.318 31.2221 16.4364 31.483 15.2338H35.4617L35.4626 15.2347ZM30.7267 9.41298V8.2899H24.5732V9.44443H27.0119V18.3708H28.3593V9.41298H30.7258H30.7267ZM41.637 11.364V18.4245C42.0583 18.3995 42.3894 18.3791 42.7993 18.3551C42.7993 16.738 42.7585 15.2245 42.8126 13.7138C42.8515 12.6157 43.4057 12.0995 44.3251 12.1254C45.2228 12.1504 45.5397 12.575 45.5445 13.7878C45.5502 15.2957 45.5454 16.8046 45.5454 18.356H46.7125C46.7125 16.5326 46.7856 14.7657 46.6698 13.0098C46.6328 12.4427 46.2153 11.5925 45.7636 11.4325C45.0956 11.1947 44.236 11.4269 43.4674 11.5287C43.2586 11.5565 43.085 11.8321 42.825 12.0542C42.8278 11.0264 42.1731 11.3409 41.637 11.365V11.364ZM55.6016 11.3622C55.6016 12.452 55.6073 13.4261 55.5997 14.3993C55.5941 15.0922 55.6396 15.7944 55.539 16.4762C55.4233 17.2597 54.8947 17.7029 54.0455 17.6492C53.2238 17.5983 52.9827 17.0331 52.9381 16.3448C52.9135 15.9674 52.9286 15.5881 52.9286 15.2097C52.9286 13.9303 52.9286 12.6499 52.9286 11.3159C52.4637 11.3363 52.1515 11.3492 51.7378 11.3668C51.7378 13.1467 51.7255 14.8739 51.7416 16.602C51.7568 18.2635 53.294 19.1201 54.7866 18.3079C55.0323 18.1747 55.2468 17.9869 55.4754 17.825L55.428 18.1303C55.8626 18.2441 56.2972 18.3588 56.7555 18.479V11.3613H55.6026L55.6016 11.3622ZM38.1906 18.3801C38.1906 17.0775 38.1859 15.8841 38.1916 14.6907C38.2011 12.8016 38.5455 12.4233 40.4385 12.2429V10.9699C39.6083 11.3122 38.9203 11.5962 38.2495 11.8728C38.24 11.1984 37.7276 11.2021 37.0605 11.4186V18.3801H38.1906V18.3801ZM49.7518 11.3233C49.3182 11.3437 48.9851 11.3585 48.6577 11.3742V18.4171C49.062 18.3967 49.3931 18.381 49.7518 18.3625V11.3224V11.3233ZM49.8609 9.42778C49.8334 9.005 49.8087 8.63126 49.7822 8.21774C49.2698 8.24827 48.9026 8.26954 48.5382 8.29175V9.42778H49.8609Z" fill="#1C1C1C"/>
<path d="M20.4023 21.9997H0.015625V13.6941C2.55957 12.941 5.14907 12.1695 7.74141 11.4081C9.81661 10.7985 11.9023 10.2231 13.968 9.58475C14.5174 9.41453 14.8381 9.47744 15.2034 9.93074C16.7643 11.8661 18.3736 13.7635 19.9459 15.6895C20.1547 15.9458 20.3758 16.2853 20.3833 16.5915C20.4251 18.3548 20.4033 20.1199 20.4033 21.9997H20.4023Z" fill="#1C1C1C"/>
<path d="M7.72484 4.32529C5.14104 6.94427 2.63599 9.4837 0 12.1563V0.0078125H20.3421V11.2183C16.1101 8.90643 11.9464 6.63159 7.72484 4.32529Z" fill="#1C1C1C"/>
<path d="M34.1498 14.3324H31.4132C31.2728 12.8282 31.6903 12.1075 32.6875 12.0687C33.7636 12.027 34.1147 12.5488 34.1498 14.3324V14.3324Z" fill="#1C1C1C"/>
</g>
<defs>
<clipPath id="clip0_2165_16129">
<rect width="71" height="22" fill="white"/>
</clipPath>
</defs>
</svg>
