<svg width="142" height="18" viewBox="0 0 142 18" fill="none" xmlns="http://www.w3.org/2000/svg">
<path d="M141.709 7.92841C141.236 8.08213 141.428 7.65074 141.319 7.47719C141.112 7.57636 141.191 7.97304 140.881 7.94329C140.619 7.9185 140.674 7.59123 140.467 7.44743C140.452 7.55156 140.442 7.63586 140.432 7.7152C140.417 7.82924 140.383 7.94329 140.245 7.92346C140.117 7.90858 140.092 7.78462 140.087 7.67553C140.077 7.47719 140.087 7.27884 140.072 7.0805C140.067 6.95654 140.052 6.80778 139.89 6.80282C139.717 6.79291 139.702 6.94166 139.693 7.06563C139.678 7.27885 139.683 7.49702 139.668 7.71024C139.663 7.82429 139.619 7.93337 139.485 7.92841C139.347 7.92346 139.338 7.79949 139.323 7.69041C139.278 7.32347 139.456 6.902 139.007 6.62928C138.864 6.54002 139.047 6.40614 139.175 6.40614C139.569 6.39622 139.969 6.36151 140.348 6.43093C140.752 6.50035 140.654 7.00117 140.92 7.24414C141.241 7.02596 141.058 6.30697 141.704 6.41606V7.92841H141.709Z" fill="#1C1C1C"/>
<path d="M11.7383 0.148438C11.8418 0.24265 11.9749 0.321984 12.0489 0.436031C12.2757 0.778171 12.2658 1.12527 11.9355 1.38808C11.6249 1.636 11.2897 1.59633 11.0333 1.30378C10.772 1.00626 10.8115 0.674042 11.0678 0.386446C11.1566 0.282316 11.2995 0.227774 11.4179 0.148438H11.7383V0.148438Z" fill="#1C1C1C"/>
<path d="M9.48659 0.148438C9.58026 0.227774 9.69365 0.297193 9.77253 0.391406C10.0387 0.708753 10.0535 1.04098 9.75774 1.35337C9.48659 1.63105 9.05768 1.62113 8.81118 1.32857C8.5351 1.00131 8.55975 0.674044 8.86541 0.376531C8.95415 0.292235 9.06754 0.227773 9.16614 0.158353C9.2746 0.158353 9.38306 0.158353 9.48659 0.158353V0.148438Z" fill="#1C1C1C"/>
<path d="M0.458984 8.89947C0.552654 8.79039 0.626604 8.65651 0.739994 8.58213C1.05551 8.36891 1.39075 8.37387 1.64711 8.67138C1.88375 8.9441 1.88868 9.27633 1.64711 9.54905C1.39075 9.83664 1.06044 9.87135 0.739994 9.64822C0.626604 9.56888 0.552654 9.43996 0.458984 9.33087V8.89947V8.89947Z" fill="#1C1C1C"/>
<path d="M15.7272 14.6066C17.2259 14.7058 18.6507 14.5124 19.9177 13.605C21.8502 12.2265 22.7031 9.777 22.008 7.49606C21.3227 5.23992 19.2176 3.65318 16.8611 3.62343C16.0033 3.61351 15.1455 3.60855 14.2876 3.62343C13.8637 3.62839 13.6517 3.48459 13.6615 3.03337C13.6763 2.29454 13.6665 1.56067 13.6615 0.82185C13.6615 0.524336 13.7306 0.261532 14.0904 0.26649C15.6976 0.281366 17.3097 0.127651 18.8972 0.534253C22.5602 1.47142 25.1632 4.5606 25.5231 8.33406C25.9964 13.2381 22.2249 17.8099 16.94 17.9735C16.0624 18.0032 15.1849 17.9685 14.3123 17.9834C13.8686 17.9933 13.6467 17.8396 13.6566 17.3636C13.6763 16.6446 13.6714 15.9256 13.6566 15.2066C13.6467 14.7653 13.8439 14.5918 14.2729 14.6066C14.756 14.6265 15.2391 14.6066 15.7223 14.6066H15.7272Z" fill="#1C1C1C"/>
<path d="M63.0696 9.01846C63.0696 7.3276 63.0844 5.63177 63.0597 3.9409C63.0499 3.42521 63.2175 3.23183 63.7351 3.25166C65.1648 3.31612 66.6044 3.13266 68.0242 3.35083C70.7554 3.76735 72.3823 5.52268 72.6781 8.27964C72.8408 9.79695 72.6239 11.2349 71.7661 12.5142C70.6963 14.1059 69.0989 14.7555 67.2601 14.8398C66.0818 14.8944 64.8986 14.8398 63.7154 14.8596C63.2323 14.8696 63.0499 14.6911 63.0548 14.2002C63.0745 12.4696 63.0646 10.744 63.0646 9.0135L63.0696 9.01846ZM64.8148 9.06309C64.8148 10.3374 64.8247 11.6167 64.8099 12.8911C64.8099 13.2828 64.9479 13.4415 65.3423 13.4266C65.9684 13.4068 66.5945 13.4266 67.2206 13.4167C68.9412 13.382 70.3413 12.2713 70.785 10.6002C71.0069 9.75233 70.9822 8.88458 70.8885 8.02675C70.7061 6.38051 69.6067 5.17062 68.0144 4.79873C67.1516 4.59543 66.2691 4.73923 65.3965 4.68964C64.9479 4.66485 64.8049 4.84832 64.8099 5.28963C64.8296 6.5491 64.8148 7.80362 64.8197 9.06309H64.8148Z" fill="#1C1C1C"/>
<path d="M79.7374 7.34271C79.8558 7.16421 79.9494 6.96091 80.1023 6.81711C81.2756 5.67168 83.4793 5.85515 84.2188 7.24354C84.4209 7.62535 84.5491 7.48155 84.7315 7.22867C85.2492 6.52455 85.9542 6.12787 86.8268 6.07828C88.503 5.97415 89.5876 6.95099 89.696 8.85507C89.8045 10.7046 89.7355 12.5591 89.7453 14.4136C89.7453 14.7012 89.6122 14.8252 89.3263 14.8549C88.1677 14.9838 88.079 14.9144 88.0839 13.7293C88.0839 12.3459 88.0839 10.9575 88.0938 9.57406C88.0938 9.23192 88.0642 8.88978 87.9705 8.56252C87.8276 8.06666 87.5811 7.66006 87.0437 7.54106C86.4472 7.40718 85.8901 7.50139 85.4809 8.0022C85.0076 8.58235 84.6822 9.23688 84.697 10.0203C84.7217 11.4583 84.6526 12.9013 84.7562 14.3343C84.7808 14.6615 84.6576 14.8252 84.3075 14.8599C83.0948 14.969 83.0405 14.9343 83.0455 13.6996C83.0455 12.3161 83.0504 10.9278 83.0553 9.54431C83.0553 9.1625 83.0257 8.79061 82.9025 8.42864C82.5771 7.48155 81.4284 7.15429 80.6692 7.81873C79.9741 8.4336 79.6388 9.23688 79.629 10.1641C79.6142 11.498 79.6339 12.8269 79.6339 14.1607C79.6339 14.8103 79.5747 14.8599 78.924 14.8648C78.7613 14.8648 78.6035 14.8549 78.4409 14.8648C78.0514 14.8847 77.8936 14.6963 77.8985 14.3144C77.9084 11.8302 77.9084 9.34597 77.9035 6.86669C77.9035 6.46009 78.0612 6.2915 78.4803 6.28654C79.486 6.26671 79.486 6.25183 79.5797 7.20883L79.7424 7.35759L79.7374 7.34271Z" fill="#1C1C1C"/>
<path d="M41.0288 12.9654C41.3394 11.6216 41.6204 10.4365 41.8965 9.25143C42.0838 8.44319 42.281 7.6399 42.4487 6.83165C42.5325 6.42505 42.7346 6.26638 43.1536 6.2763C44.8003 6.30605 44.47 6.10275 44.8298 7.56056C45.2045 9.07788 45.5644 10.6051 45.9292 12.1224C45.9687 12.291 46.0278 12.4596 46.0969 12.6927C46.2645 12.4844 46.2743 12.2861 46.3138 12.1026C46.7082 10.3671 47.0976 8.62665 47.492 6.89116C47.6153 6.35563 48.5421 6.01845 48.9908 6.34076C49.1534 6.45481 49.1239 6.61844 49.0844 6.78207C48.4485 9.33077 47.8076 11.8745 47.1667 14.4232C47.0878 14.7356 46.8955 14.8744 46.58 14.8546C46.5603 14.8546 46.5455 14.8546 46.5258 14.8546C44.9432 14.8447 45.2144 15.0083 44.8545 13.61C44.396 11.8547 43.9572 10.0944 43.484 8.24484C43.2572 8.64649 43.2227 9.01342 43.1438 9.36052C42.779 10.9572 42.4141 12.5489 42.0789 14.1554C41.9754 14.6662 41.7634 14.8893 41.2162 14.8695C39.9048 14.8248 40.0823 14.9934 39.752 13.7538C39.1505 11.4927 38.549 9.23655 37.9476 6.97545C37.78 6.34572 37.8194 6.29117 38.4652 6.28125C39.4562 6.26638 39.4611 6.26638 39.6879 7.25313C40.0773 8.93408 40.4569 10.62 40.8464 12.3009C40.8859 12.4695 40.9352 12.6381 41.0239 12.9604L41.0288 12.9654Z" fill="#1C1C1C"/>
<path d="M95.982 10.8634C95.1044 10.8634 94.2269 10.8733 93.3494 10.8634C92.9747 10.8584 92.8514 10.9775 92.9106 11.3741C93.1472 12.9857 93.9459 13.7741 95.3657 13.7443C96.3862 13.7245 96.9976 13.2683 97.3229 12.2915C97.4955 11.7708 98.5061 11.4684 98.9104 11.8154C99.0829 11.9642 99.0139 12.1477 98.9745 12.3163C98.6491 13.6898 97.7765 14.5427 96.4405 14.9046C93.6994 15.6484 91.3182 13.8633 91.2048 11.0122C91.1555 9.71798 91.333 8.47834 92.176 7.45192C93.3001 6.08832 94.7889 5.81064 96.4109 6.24203C97.9934 6.66351 98.7625 7.86348 99.0632 9.39567C99.3492 10.8584 99.3245 10.8634 97.8603 10.8634C97.2342 10.8634 96.6081 10.8634 95.982 10.8634V10.8634ZM95.1389 9.62872C95.6763 9.62872 96.2088 9.62872 96.7461 9.62872C97.3377 9.62377 97.4265 9.49484 97.2539 8.90974C96.9187 7.77918 96.1496 7.29325 94.8727 7.39242C93.9459 7.4668 93.1324 8.28992 92.9993 9.26179C92.955 9.5841 93.1275 9.62872 93.3691 9.62872C93.9607 9.62872 94.5473 9.62872 95.1389 9.62872V9.62872Z" fill="#1C1C1C"/>
<path d="M112.848 6.07437C113.647 6.0942 114.352 6.20329 115.007 6.51568C115.806 6.89749 116.284 7.53218 116.452 8.40489C116.526 8.77678 116.407 8.98008 115.998 9.00983C115.18 9.06934 115.111 9.03463 114.785 8.27101C114.638 7.92391 114.386 7.67598 114.041 7.52723C113.316 7.2198 112.582 7.21484 111.847 7.49748C111.374 7.68094 111.147 8.05779 111.137 8.54373C111.127 9.01479 111.472 9.23297 111.857 9.37677C112.567 9.64453 113.321 9.70899 114.056 9.84287C114.48 9.92221 114.894 10.0263 115.293 10.185C116.225 10.5519 116.738 11.2313 116.772 12.2329C116.807 13.1949 116.378 13.9634 115.55 14.4246C114.002 15.2824 112.389 15.2626 110.807 14.5237C109.924 14.1122 109.515 13.3188 109.367 12.3767C109.308 11.98 109.431 11.747 109.88 11.7767C110.112 11.7916 110.343 11.7767 110.575 11.7817C110.802 11.7817 110.925 11.8858 110.984 12.1188C111.32 13.3982 111.877 13.8395 113.188 13.8048C113.721 13.7899 114.263 13.7353 114.707 13.3684C115.352 12.8428 115.278 11.985 114.539 11.6081C113.854 11.261 113.094 11.2213 112.355 11.0825C111.896 10.9982 111.438 10.904 111.009 10.7255C110.196 10.3933 109.619 9.85775 109.545 8.91066C109.466 7.88424 109.806 7.076 110.733 6.56526C111.408 6.19337 112.153 6.09916 112.833 6.06445L112.848 6.07437Z" fill="#1C1C1C"/>
<path d="M121.706 10.5608C121.706 10.3079 121.692 10.055 121.706 9.80707C121.81 8.18066 122.816 6.79226 124.236 6.30137C125.882 5.73113 127.726 6.15261 128.766 7.37737C129.609 8.36412 129.782 9.57897 129.752 10.8236C129.742 11.2698 129.683 11.7161 129.555 12.1525C128.954 14.1756 127.272 15.3011 125.222 15.0334C123.092 14.7557 121.766 13.3028 121.692 11.1508C121.687 10.9525 121.692 10.7542 121.692 10.5558H121.702L121.706 10.5608ZM128.041 10.5806C128.041 10.0005 127.968 9.43022 127.795 8.87982C127.504 7.96744 126.843 7.4468 125.956 7.39225C124.837 7.32779 124.107 7.67985 123.718 8.6071C123.185 9.8864 123.181 11.2153 123.703 12.4996C124.083 13.4367 124.857 13.8136 125.986 13.7342C126.868 13.6747 127.534 13.1392 127.81 12.2318C127.972 11.6963 128.046 11.1409 128.046 10.5806H128.041Z" fill="#1C1C1C"/>
<path d="M133.016 7.32275C133.612 6.58888 134.332 6.1922 135.205 6.08807C137.058 5.87485 138.35 7.0054 138.458 9.09791C138.552 10.8582 138.488 12.6234 138.498 14.3837C138.498 14.6912 138.37 14.83 138.054 14.8597C136.851 14.9688 136.689 14.7953 136.787 13.5755C136.905 12.1573 136.861 10.7342 136.822 9.31609C136.792 8.3095 136.324 7.67481 135.634 7.52605C134.726 7.33267 133.972 7.67977 133.464 8.54255C133.159 9.0632 132.986 9.61856 132.996 10.2334C133.006 11.5474 132.991 12.8615 133.016 14.1755C133.026 14.6912 132.833 14.9143 132.325 14.8597C132.217 14.8498 132.109 14.8597 132.005 14.8597C131.325 14.8548 131.275 14.8102 131.275 14.1209C131.275 11.7458 131.275 9.37063 131.285 6.99548C131.285 6.7426 131.201 6.38062 131.561 6.32608C131.975 6.26162 132.439 6.15253 132.809 6.40541C133.06 6.57896 132.843 6.95581 133.016 7.32771V7.32275Z" fill="#1C1C1C"/>
<path d="M55.7299 7.22902C55.9172 7.22902 55.9764 7.10506 56.0651 7.02076C57.061 6.08856 58.2146 5.81087 59.4915 6.28194C60.7585 6.74804 61.2022 7.83892 61.2466 9.06865C61.3156 10.8289 61.2712 12.5991 61.2811 14.3594C61.2811 14.7016 61.143 14.8354 60.8029 14.8553C59.6394 14.9346 59.6147 14.9148 59.6147 13.7793C59.6147 12.4107 59.6246 11.0422 59.6147 9.67359C59.6147 9.40583 59.5901 9.13311 59.5408 8.8703C59.4175 8.23065 59.1365 7.69512 58.4512 7.53645C57.7167 7.36786 57.0561 7.53645 56.5532 8.12652C56.0454 8.72155 55.7743 9.41575 55.7743 10.2042C55.7743 11.4983 55.7841 12.7975 55.7841 14.0917C55.7841 14.8057 55.7447 14.8454 55.02 14.8503C54.8967 14.8503 54.7685 14.8404 54.6453 14.8503C54.2016 14.885 54.029 14.6768 54.0438 14.2404C54.0783 13.214 54.1227 12.1925 54.1227 11.1661C54.1227 9.76284 54.0931 8.35957 54.0488 6.9563C54.034 6.44557 54.2164 6.21252 54.734 6.27202C54.877 6.2869 55.02 6.28194 55.1629 6.27202C55.5573 6.24227 55.725 6.42574 55.6954 6.81746C55.6855 6.95134 55.7151 7.09018 55.725 7.22406L55.7299 7.22902Z" fill="#1C1C1C"/>
<path d="M102.362 7.29327C102.672 7.03543 102.909 6.7875 103.19 6.60899C105.335 5.23547 107.716 6.4404 107.859 9.02381C107.957 10.799 107.888 12.589 107.898 14.3691C107.898 14.7162 107.74 14.8352 107.41 14.8551C106.242 14.9294 106.232 14.9245 106.232 13.7691C106.232 12.3807 106.237 10.9973 106.237 9.60892C106.237 9.32132 106.227 9.03372 106.153 8.75109C105.818 7.46186 104.408 7.02551 103.407 7.91805C102.741 8.51308 102.406 9.26678 102.396 10.1593C102.387 11.4733 102.401 12.7874 102.401 14.1014C102.401 14.8303 102.382 14.8452 101.637 14.8501C101.529 14.8501 101.42 14.8402 101.317 14.8501C100.824 14.8997 100.646 14.6716 100.661 14.1857C100.72 12.4254 100.779 10.6601 100.74 8.89489C100.725 8.23044 100.705 7.56599 100.671 6.90154C100.651 6.44536 100.829 6.26189 101.297 6.26189C102.268 6.26685 102.268 6.24702 102.352 7.28336L102.362 7.29327Z" fill="#1C1C1C"/>
<path d="M33.6324 9.75764C33.6324 8.26512 33.6176 6.77259 33.6423 5.27511C33.6472 4.82388 33.4895 4.67016 33.0458 4.68504C32.3309 4.70983 31.6161 4.67512 30.9012 4.69496C30.354 4.70983 30.3047 4.39249 30.3047 3.96605C30.3047 3.5297 30.3836 3.24706 30.916 3.25202C33.2972 3.27185 35.6734 3.27185 38.0546 3.25202C38.6265 3.24706 38.6216 3.57432 38.6314 3.98093C38.6413 4.41232 38.5871 4.71975 38.0398 4.69992C37.3989 4.67017 36.7531 4.69 36.1073 4.69496C35.3875 4.69496 35.4023 4.69992 35.3776 5.40899C35.2692 8.27008 35.3875 11.1262 35.3776 13.9873C35.3776 14.2749 35.5255 14.6815 35.1509 14.7955C34.7121 14.9294 34.224 14.9344 33.7803 14.7757C33.5683 14.7013 33.6275 14.4336 33.6275 14.2402C33.6275 12.7477 33.6275 11.2551 33.6275 9.75764H33.6324Z" fill="#1C1C1C"/>
<path d="M52.2344 8.27499C52.1112 10.2287 52.2689 12.1873 52.2344 14.141C52.2246 14.7905 52.1703 14.85 51.5294 14.855C51.3667 14.855 51.209 14.8451 51.0463 14.855C50.6618 14.8748 50.4941 14.7013 50.4941 14.3096C50.4991 11.8104 50.4991 9.31629 50.4941 6.81718C50.4941 6.43041 50.647 6.28165 51.0364 6.27174C52.2295 6.23703 52.2295 6.22711 52.2295 7.40725C52.2295 7.69484 52.2295 7.98244 52.2295 8.27003L52.2344 8.27499Z" fill="#1C1C1C"/>
<path d="M74.3446 10.5212C74.3446 9.33614 74.3643 8.15105 74.3347 6.96596C74.3248 6.46018 74.4875 6.21721 75.0052 6.28167C75.0249 6.28167 75.0397 6.28167 75.0594 6.28167C76.075 6.27176 76.1046 6.27672 76.0651 7.27834C75.9764 9.52457 76.0257 11.7658 76.0651 14.0121C76.07 14.2848 76.1834 14.6715 75.8581 14.7856C75.4242 14.9393 74.9362 14.9344 74.4925 14.7757C74.2805 14.7013 74.3396 14.4335 74.3396 14.2402C74.3396 13.0005 74.3396 11.7609 74.3396 10.5212H74.3446Z" fill="#1C1C1C"/>
<path d="M118.365 10.5755C118.365 9.35076 118.38 8.13095 118.36 6.90619C118.35 6.44504 118.508 6.2715 118.981 6.2715C120.046 6.2715 120.036 6.25662 120.036 7.32271C120.036 9.58877 120.036 11.8548 120.036 14.1209C120.036 14.83 120.011 14.8498 119.316 14.8548C119.227 14.8548 119.139 14.8448 119.05 14.8548C118.547 14.9143 118.35 14.711 118.36 14.1853C118.389 12.9804 118.37 11.7755 118.37 10.5706L118.365 10.5755Z" fill="#1C1C1C"/>
<path d="M50.503 4.54718C50.5523 4.29925 50.3699 3.89761 50.7298 3.76869C51.1488 3.61993 51.6073 3.64968 52.0461 3.76869C52.1792 3.8034 52.2186 3.9472 52.2235 4.07612C52.2334 4.25463 52.2383 4.43313 52.2383 4.6166C52.2383 5.55377 52.2383 5.55873 51.3263 5.55873C50.5079 5.55873 50.498 5.53889 50.498 4.54718H50.503Z" fill="#1C1C1C"/>
<path d="M76.0811 4.65481C76.0811 5.54735 76.0712 5.55727 75.1838 5.55231C74.3556 5.55231 74.3457 5.53743 74.3457 4.59531C74.3457 3.70277 74.3556 3.69285 75.243 3.69781C76.0712 3.69781 76.0811 3.71269 76.0811 4.65481Z" fill="#1C1C1C"/>
<path d="M120.041 4.7051C119.977 4.94311 120.199 5.34476 119.844 5.48856C119.45 5.64723 119.006 5.59765 118.587 5.49848C118.449 5.46377 118.4 5.3398 118.39 5.20592C118.38 5.06212 118.375 4.91832 118.375 4.77948C118.369 4.04892 118.709 3.69025 119.396 3.70348C120.041 3.71339 120.046 3.72331 120.046 4.7051H120.041Z" fill="#1C1C1C"/>
<path d="M8.78175 15.7273C8.40214 15.7273 8.08169 15.415 8.11127 15.0431C8.14578 14.6563 8.3627 14.4183 8.76203 14.3935C9.14164 14.3737 9.45716 14.6761 9.46209 15.053C9.46702 15.4249 9.15643 15.7323 8.77682 15.7273H8.78175Z" fill="#1C1C1C"/>
<path d="M7.4589 1.28907C7.46383 1.66592 7.15324 1.99319 6.78349 1.96344C6.39895 1.93369 6.15739 1.71551 6.13767 1.30891C6.11795 0.922142 6.40881 0.609753 6.78349 0.599836C7.14338 0.589919 7.45397 0.907266 7.4589 1.28907V1.28907Z" fill="#1C1C1C"/>
<path d="M5.19185 2.46502C5.19185 2.84187 4.87633 3.16418 4.51644 3.15426C4.14669 3.14435 3.8361 2.82204 3.86075 2.44519C3.8854 2.03859 4.12697 1.82537 4.50658 1.7857C4.86647 1.75099 5.18692 2.08321 5.19185 2.46006V2.46502Z" fill="#1C1C1C"/>
<path d="M2.20024 6.61029C2.1608 7.01194 1.93402 7.23507 1.54455 7.26482C1.1748 7.28961 0.869141 6.96731 0.869141 6.5855C0.869141 6.20369 1.1748 5.87643 1.54455 5.90618C1.96853 5.93593 2.16573 6.20369 2.20024 6.61525V6.61029Z" fill="#1C1C1C"/>
<path d="M6.13384 16.9587C6.12398 16.572 6.41978 16.2447 6.78953 16.2645C7.17406 16.2844 7.43535 16.4926 7.45014 16.8992C7.46493 17.3157 7.23815 17.5785 6.8191 17.6232C6.45429 17.6628 6.13877 17.3405 6.12891 16.9587H6.13384Z" fill="#1C1C1C"/>
<path d="M5.19189 5.4931C5.19189 5.86995 4.87144 6.20713 4.51155 6.17242C4.12701 6.13771 3.88544 5.9245 3.86079 5.52285C3.83614 5.146 4.13687 4.8237 4.51155 4.80882C4.87144 4.7989 5.19189 5.11625 5.19189 5.4931V5.4931Z" fill="#1C1C1C"/>
<path d="M6.32574 4.488C5.9412 4.488 5.62075 4.18553 5.65033 3.81364C5.67991 3.3872 5.9412 3.16406 6.35532 3.16406C6.75958 3.16406 6.97157 3.42687 7.00115 3.80868C7.03073 4.18057 6.70535 4.488 6.32574 4.488V4.488Z" fill="#1C1C1C"/>
<path d="M2.19835 11.6319C2.15891 12.0385 1.95678 12.3013 1.5328 12.3261C1.15812 12.3459 0.862318 12.0236 0.867248 11.6368C0.872178 11.255 1.18277 10.9327 1.55252 10.9674C1.93706 11.0021 2.16384 11.2253 2.19835 11.6319V11.6319Z" fill="#1C1C1C"/>
<path d="M7.01114 14.4035C6.99635 14.7705 6.66111 15.0779 6.29629 15.0581C5.94133 15.0382 5.61595 14.6763 5.66032 14.3242C5.70962 13.9325 5.95119 13.7093 6.34066 13.6994C6.70055 13.6895 7.021 14.0515 7.00621 14.4035H7.01114Z" fill="#1C1C1C"/>
<path d="M11.5317 3.66458C11.1127 3.60012 10.8711 3.38194 10.8711 2.95551C10.8711 2.57866 11.2063 2.26627 11.5712 2.3109C11.9902 2.36048 12.2022 2.61833 12.1874 3.0398C12.1726 3.45632 11.9064 3.62491 11.5366 3.66458H11.5317Z" fill="#1C1C1C"/>
<path d="M3.50167 7.17389C3.86156 7.17389 4.17215 7.50611 4.15243 7.88296C4.12778 8.28956 3.89114 8.50278 3.50167 8.52261C3.13193 8.54741 2.82134 8.2251 2.81641 7.84825C2.81641 7.47636 3.127 7.16893 3.50167 7.17389V7.17389Z" fill="#1C1C1C"/>
<path d="M4.15123 10.3927C4.14137 10.7696 3.82092 11.077 3.4561 11.0572C3.08142 11.0373 2.78069 10.7101 2.8152 10.3431C2.85464 9.94646 3.09128 9.72828 3.48568 9.71341C3.87515 9.69853 4.16109 10.006 4.15123 10.3927V10.3927Z" fill="#1C1C1C"/>
<path d="M4.47775 12.0245C4.90173 12.0245 5.22218 12.3418 5.18767 12.7137C5.15316 13.1352 4.90173 13.3633 4.47775 13.3484C4.07349 13.3385 3.84671 13.0955 3.85164 12.6989C3.85164 12.2774 4.108 12.0542 4.47282 12.0195L4.47775 12.0245Z" fill="#1C1C1C"/>
<path d="M5.19265 15.7922C5.16307 16.1641 4.95108 16.417 4.53203 16.4517C4.17214 16.4815 3.85169 16.1492 3.86155 15.7674C3.87141 15.3658 4.09326 15.1327 4.48273 15.0931C4.84262 15.0534 5.18279 15.3856 5.19265 15.7873V15.7922Z" fill="#1C1C1C"/>
<path d="M12.1928 15.2317C12.183 15.6234 11.8822 15.9011 11.4928 15.8664C11.0934 15.8317 10.8913 15.5887 10.8716 15.192C10.8568 14.8201 11.1772 14.5127 11.5519 14.5176C11.9167 14.5176 12.2027 14.8399 12.1928 15.2267V15.2317Z" fill="#1C1C1C"/>
<path d="M8.762 2.43016C9.1071 2.41529 9.4522 2.75247 9.46206 3.10948C9.46699 3.46154 9.12682 3.82847 8.78665 3.80864C8.39718 3.78385 8.1704 3.54088 8.1211 3.15907C8.07673 2.81197 8.4169 2.44504 8.762 2.43016V2.43016Z" fill="#1C1C1C"/>
<path d="M2.6976 4.95802C2.30813 4.95802 2.03205 4.67043 2.05177 4.27374C2.07149 3.87706 2.29334 3.62417 2.68281 3.61921C3.092 3.61425 3.3385 3.86714 3.36808 4.28366C3.39273 4.65555 3.07721 4.96298 2.6976 4.96298V4.95802Z" fill="#1C1C1C"/>
<path d="M2.05043 13.8579C2.08001 13.5108 2.32158 13.3125 2.71598 13.3125C3.09559 13.3125 3.40618 13.6398 3.36674 14.0117C3.32237 14.4083 3.08573 14.6265 2.6864 14.6315C2.30186 14.6364 2.03071 14.329 2.0455 13.8579H2.05043Z" fill="#1C1C1C"/>
<path d="M9.96464 17.4035C9.92027 17.7705 9.70828 17.9986 9.29909 17.9986C8.90469 17.9986 8.58917 17.6911 8.62368 17.3193C8.66312 16.9226 8.89483 16.6945 9.28923 16.6746C9.64912 16.6548 9.9745 17.0019 9.95971 17.4035H9.96464Z" fill="#1C1C1C"/>
<path d="M12.1875 17.4135C12.148 17.7606 11.9508 17.9986 11.5367 17.9986C11.1374 17.9986 10.8416 17.7061 10.8712 17.3193C10.9008 16.9226 11.1325 16.6945 11.5269 16.6747C11.9015 16.6548 12.1973 16.9821 12.1875 17.4185V17.4135Z" fill="#1C1C1C"/>
</svg>
