<svg width="63" height="16" viewBox="0 0 63 16" fill="none" xmlns="http://www.w3.org/2000/svg">
<path d="M37.2007 0.519531C37.2993 0.549283 37.4029 0.549282 37.5015 0.549282C38.3001 0.559199 39.0692 0.742666 39.8284 0.980677C40.139 1.07985 40.42 1.2534 40.7109 1.40215C41.0856 1.59058 41.3962 1.87322 41.7117 2.13602C41.8694 2.2699 41.9878 2.44841 42.1011 2.62196C42.3427 2.98889 42.5941 3.35087 42.7519 3.76243C42.8406 3.99548 42.8998 4.23349 42.9294 4.47646C42.9639 4.79876 42.9836 5.12107 43.0033 5.44338C43.0181 5.64668 42.9836 5.85494 42.9688 6.05824C42.9491 6.33592 42.9392 6.6136 42.8751 6.88632C42.7963 7.23342 42.6533 7.55572 42.4709 7.85819C42.2638 8.19537 42.0518 8.5276 41.7807 8.81519C41.6328 8.96891 41.4553 9.08296 41.2926 9.2218C41.0609 9.41518 40.8292 9.6036 40.5679 9.75236C40.5186 9.77715 40.4742 9.80691 40.4249 9.82674C39.7594 10.0697 39.084 10.2631 38.3889 10.392C38.2114 10.4267 38.0339 10.4267 37.8564 10.4416C35.8746 10.5656 33.8878 10.4714 31.901 10.5011C31.7284 10.5011 31.7284 10.5011 31.7284 10.6697C31.7284 11.7705 31.7284 12.8713 31.7284 13.9721C31.7284 14.5919 31.8221 15.1969 32.0834 15.7671C32.1721 15.9654 32.1672 15.9704 31.9552 15.9704C29.6332 15.9704 27.3062 15.9704 24.9842 15.9704C24.9596 15.9704 24.9349 15.9704 24.9053 15.9704C24.8758 15.9704 24.8363 15.9853 24.8166 15.9555C24.7919 15.9208 24.8363 15.8911 24.8511 15.8613C25.0237 15.5192 25.1666 15.1671 25.2011 14.7754C25.2356 14.3688 25.2554 13.9622 25.2554 13.5556C25.2554 9.83666 25.2554 6.11278 25.2554 2.39386C25.2554 1.9823 25.211 1.5757 25.0631 1.18398C25.0237 1.07985 24.9941 0.975718 24.9596 0.871588C24.9201 0.752583 24.8905 0.623661 24.7969 0.529449H37.2106L37.2007 0.519531ZM31.763 5.56238C31.763 6.23179 31.763 6.90119 31.763 7.57556C31.763 7.67473 31.7925 7.69952 31.8911 7.69952C32.4482 7.69952 33.0102 7.69456 33.5673 7.69952C34.0505 7.69952 34.5188 7.64993 34.9822 7.50614C35.3618 7.38713 35.7217 7.25325 35.988 6.93094C36.0866 6.81194 36.1704 6.68302 36.2443 6.54913C36.3626 6.33592 36.5105 6.13262 36.5056 5.86981C36.5056 5.7756 36.5253 5.67643 36.5253 5.58222C36.5253 5.38883 36.5253 5.18553 36.476 5.00206C36.4169 4.76901 36.3281 4.54092 36.1704 4.34258C35.9485 4.0649 35.7168 3.81697 35.3618 3.7178C35.3224 3.70788 35.283 3.68805 35.2485 3.67317C34.9625 3.54425 34.6569 3.45995 34.3413 3.455C33.523 3.44508 32.7095 3.455 31.8911 3.455C31.7925 3.455 31.7679 3.48971 31.7679 3.58392C31.7679 4.24837 31.7679 4.91281 31.7679 5.57726L31.763 5.56238Z" fill="#1C1C1C"/>
<path d="M62.0833 0.519531C62.0833 1.67983 62.0833 2.83518 62.0833 3.99548C62.0833 4.1244 62.0636 4.11944 61.9601 4.07482C61.5607 3.91614 61.1515 3.79218 60.7276 3.74259C60.6783 3.73763 60.6339 3.73763 60.5846 3.73763C58.0752 3.73763 55.5659 3.73763 53.0565 3.73763C52.9579 3.73763 52.9086 3.78722 52.9086 3.88639C52.9086 5.00702 52.9086 6.13262 52.9086 7.25325C52.9086 7.39209 52.9086 7.39209 53.0466 7.39209C55.206 7.39209 57.3604 7.39209 59.5197 7.39209C59.7613 7.39209 59.9881 7.30779 60.2247 7.26813C60.3775 7.24333 60.5304 7.20366 60.6832 7.16895C60.8015 7.14416 60.8015 7.14416 60.8015 7.26317C60.8015 8.24496 60.8015 9.22675 60.8015 10.2085C60.8015 10.3672 60.8015 10.5209 60.8015 10.6796C60.8015 10.754 60.7818 10.7788 60.7029 10.7639C60.3529 10.6846 60.0029 10.6102 59.6528 10.5457C59.5246 10.5209 59.3915 10.5209 59.2634 10.516C58.6619 10.4763 58.0654 10.4961 57.4639 10.4961C55.9997 10.4961 54.5404 10.4961 53.0762 10.4961C52.9612 10.4961 52.9037 10.554 52.9037 10.6697C52.9037 11.9242 52.9037 13.1787 52.9037 14.4332C52.9037 14.7308 52.9579 15.0134 53.0466 15.2911C53.1058 15.4795 53.1797 15.658 53.2488 15.8415C53.2931 15.9605 53.2882 15.9654 53.16 15.9654C51.6958 15.9654 50.2316 15.9654 48.7625 15.9654C47.8603 15.9654 46.963 15.9654 46.0608 15.9654C45.9277 15.9654 45.9228 15.9654 45.9721 15.8415C46.0559 15.6183 46.1397 15.3902 46.2137 15.1621C46.3123 14.8547 46.3468 14.5423 46.3468 14.225C46.3468 10.2383 46.3468 6.25658 46.3468 2.2699C46.3468 1.90793 46.2679 1.55091 46.2285 1.18894C46.2285 1.1691 46.2186 1.14927 46.2087 1.13439C46.0904 0.941008 46.0263 0.722832 45.9277 0.52449H62.0784L62.0833 0.519531Z" fill="#1C1C1C"/>
<path d="M22.185 0.519531C22.1357 0.583993 22.0568 0.603827 21.9927 0.643495C21.7265 0.802169 21.4948 1.00547 21.2778 1.21869C21.1694 1.32778 21.0609 1.43686 20.9327 1.52116C20.7207 1.66496 20.5778 1.86826 20.4249 2.0666C20.1144 2.4732 19.7939 2.86989 19.4735 3.27153C18.8967 3.99052 18.3248 4.70951 17.748 5.4285C17.1712 6.14749 16.5993 6.86648 16.0225 7.58547C15.4703 8.27471 14.9181 8.96395 14.366 9.65319C14.3266 9.69782 14.3167 9.74245 14.3167 9.80195C14.3167 11.3837 14.3167 12.9655 14.3167 14.5473C14.3167 14.7803 14.4202 14.9936 14.4794 15.2167C14.5336 15.415 14.6026 15.5985 14.716 15.772C14.721 15.782 14.7308 15.7968 14.7357 15.8068C14.7998 15.9406 14.785 15.9605 14.6371 15.9605C12.251 15.9605 9.86984 15.9605 7.48373 15.9605C7.45908 15.9605 7.43936 15.9605 7.41471 15.9605C7.3802 15.9605 7.36048 15.9406 7.39006 15.9109C7.56753 15.7225 7.6119 15.4745 7.69571 15.2464C7.80417 14.944 7.81896 14.6365 7.81896 14.3192C7.81896 12.8267 7.81896 11.3341 7.81896 9.84658C7.81896 9.75732 7.79431 9.68294 7.74008 9.60856C7.01538 8.69123 6.28574 7.7739 5.56103 6.85161C4.91027 6.02353 4.25458 5.19049 3.60382 4.36241C3.06152 3.67317 2.51922 2.97897 1.96707 2.28974C1.8734 2.17073 1.75508 2.0666 1.64662 1.95751C1.51351 1.82859 1.39519 1.69471 1.27687 1.55587C1.12404 1.37736 0.941628 1.24348 0.774008 1.08481C0.542299 0.86663 0.281009 0.688122 0 0.544324C0.01479 0.504655 0.0542299 0.52449 0.0788798 0.52449C1.22264 0.52449 2.3664 0.52449 3.51015 0.52449H7.5281C7.54289 0.564158 7.5626 0.603827 7.57246 0.643495C7.67106 1.06497 7.89291 1.42199 8.10983 1.78396C8.44507 2.33436 8.80003 2.8798 9.15006 3.42029C9.77124 4.38225 10.3875 5.34421 11.0087 6.30121C11.0678 6.39542 11.1171 6.39542 11.1812 6.30121C11.2946 6.13262 11.4031 5.95907 11.5165 5.78552C12.1327 4.84339 12.749 3.89631 13.3701 2.95914C13.73 2.40874 14.0653 1.84347 14.3512 1.2534C14.4695 1.01043 14.5829 0.767459 14.6963 0.52449H22.185V0.519531Z" fill="#1C1C1C"/>
</svg>
