<svg width="49" height="25" viewBox="0 0 49 25" fill="none" xmlns="http://www.w3.org/2000/svg">
<g clip-path="url(#clip0_2165_16254)">
<path d="M23.1472 0.0234375C20.2999 2.15932 19.495 4.11494 20.2857 7.00593C20.5885 8.11319 21.2204 9.0569 21.9579 9.91292C22.4317 10.4627 22.4359 10.7731 21.8097 11.19C20.7729 11.879 19.8708 12.728 19.1616 13.7525C17.9823 15.4562 17.7149 17.3359 18.1759 19.3076C18.3943 20.2402 18.1021 20.5137 17.1632 20.4893C15.2257 20.4399 13.2854 20.4963 11.3465 20.4649C10.6217 20.4531 10.1884 20.6647 9.97281 21.3899C9.61468 22.5946 9.17569 23.7756 8.77075 24.9664C6.0624 24.9664 3.35405 24.9705 0.645691 24.9594C0.381168 24.958 -0.106747 25.1884 0.0209049 24.5578C1.23147 21.6272 2.4541 18.7007 3.64906 15.7638C5.78298 10.5198 7.89917 5.27022 10.0217 0.0234375C14.3967 0.0234375 18.7716 0.0234375 23.1465 0.0234375H23.1472ZM14.6669 7.70884L14.4215 7.64899C13.73 9.67142 13.0379 11.6932 12.3486 13.7163C12.1578 14.2751 12.5585 14.2578 12.9173 14.2598C13.8896 14.2647 14.8633 14.2243 15.8328 14.2751C16.6263 14.3162 16.8192 14.0531 16.566 13.328C15.9157 11.4614 15.298 9.58304 14.6676 7.70954L14.6669 7.70884Z" fill="#1C1C1C"/>
<path d="M48.9812 5.95259C44.9211 5.9519 40.8618 5.96303 36.8017 5.93937C36.0146 5.9345 35.677 6.16973 35.6976 6.99235C35.7685 9.82209 35.3401 9.41496 38.1839 9.43514C41.1334 9.45671 44.0829 9.4588 47.0324 9.43027C47.9096 9.42192 48.2947 9.70169 48.2436 10.612C48.1805 11.7325 48.1897 12.8606 48.2401 13.9818C48.277 14.7961 47.9444 15.0396 47.1444 15.032C43.8829 15.0014 40.62 15.0724 37.3599 14.993C36.1309 14.9631 35.2096 15.2227 34.5664 16.2931C34.1296 17.0203 33.6863 17.0816 33.092 16.3341C31.8765 14.8051 30.5858 13.3325 29.2951 11.8626C28.7738 11.269 28.7433 10.8472 29.4802 10.4088C30.0404 10.0754 30.5532 9.65645 31.0574 9.24097C33.8778 6.9144 33.7275 2.74286 30.7553 0.590282C30.5049 0.408638 30.2659 0.213076 30.0213 0.0237769C36.038 0.0237769 42.0546 0.0446554 48.0713 0.000114497C48.906 -0.00614907 49.023 0.243698 48.9982 0.9654C48.9415 2.62594 48.9805 4.28996 48.9805 5.95329L48.9812 5.95259Z" fill="#1C1C1C"/>
<path d="M40.4374 24.9656C39.3595 23.6851 38.2751 22.4101 37.2092 21.1205C36.9433 20.799 36.4504 20.4934 36.788 19.9916C37.1575 19.4425 37.4646 18.7647 38.3085 18.7696C41.8657 18.789 45.4222 18.8113 48.9795 18.8329C48.9795 20.7071 48.9611 22.5813 48.993 24.4548C49.0008 24.8953 48.9064 24.9837 48.4582 24.9795C45.7846 24.9531 43.111 24.9663 40.4374 24.9663V24.9656Z" fill="#1C1C1C"/>
<path d="M27.032 21.7034C24.9051 21.7055 23.1017 20.283 22.601 18.3113C22.2003 16.7343 23.157 14.7968 24.7307 13.8858C25.1888 13.6206 25.4356 13.8023 25.6952 14.1141C27.2121 15.9319 28.7212 17.7553 30.2467 19.5661C30.6069 19.9935 30.4842 20.2732 30.0779 20.5725C29.1325 21.2677 28.0801 21.6519 27.032 21.7034V21.7034Z" fill="#1C1C1C"/>
<path d="M26.5472 3.21626C27.4181 3.20861 28.1124 3.5197 28.4925 4.32282C28.874 5.12943 28.8166 5.9089 28.2471 6.62573C28.162 6.73291 28.0833 6.86027 27.9698 6.92777C27.2847 7.33421 26.8351 8.48462 25.86 7.97588C24.6267 7.33282 24.0573 5.35562 24.5863 4.29429C24.9849 3.49395 25.6777 3.19817 26.5472 3.21556V3.21626Z" fill="#1C1C1C"/>
</g>
<defs>
<clipPath id="clip0_2165_16254">
<rect width="49" height="25" fill="white"/>
</clipPath>
</defs>
</svg>
