<svg width="85" height="18" viewBox="0 0 85 18" fill="none" xmlns="http://www.w3.org/2000/svg">
<path d="M25.7344 17.0574C25.7443 16.922 25.8255 16.8177 25.8928 16.7076C27.5577 13.9733 29.2193 11.2377 30.8922 8.50858C31.0288 8.28574 30.9575 8.13092 30.8453 7.9489C29.3467 5.51841 27.8488 3.08792 26.3569 0.653549C26.2533 0.485125 26.0163 0.304393 26.1212 0.124957C26.2103 -0.0272721 26.4876 0.0647133 26.6804 0.0640655C28.2304 0.059531 29.7798 0.0679522 31.3298 0.0569398C31.5952 0.0549965 31.749 0.141152 31.8804 0.36399C32.4693 1.35963 33.0733 2.34686 33.6741 3.33538C33.7341 3.43449 33.7764 3.55044 33.9196 3.63141C34.1065 3.32955 34.2926 3.02897 34.4775 2.7284C34.9699 1.92645 35.467 1.12773 35.9496 0.320588C36.0645 0.128844 36.2018 0.0582354 36.4262 0.0588832C38.0199 0.0660088 39.6135 0.0614743 41.2077 0.0627699C41.5939 0.0627699 41.6104 0.0867379 41.415 0.409335C39.9449 2.8314 38.48 5.2567 36.99 7.66646C36.7497 8.05578 36.7345 8.33238 36.9867 8.73401C38.6516 11.3802 40.2835 14.0458 41.924 16.7063C41.9887 16.8119 42.1003 16.9103 42.0283 17.0574H37.2131C37.1273 17.0444 37.0362 17.0082 36.9557 17.0231C36.5352 17.0995 36.3305 16.878 36.1344 16.5502C35.436 15.3816 34.7065 14.2311 33.9995 13.0677C33.8543 12.828 33.7843 12.8358 33.6417 13.0729C32.839 14.4054 32.0223 15.7307 31.211 17.058H25.7364L25.7344 17.0574Z" fill="#1C1C1C"/>
<path d="M0.00792185 0.0195546C3.51466 0.0195546 7.02206 0.0195546 10.5288 0.0195546C10.7453 0.0195546 10.95 0.0111334 10.9691 0.314296C11.0536 1.62217 11.1559 2.92875 11.2365 4.23663C11.2675 4.74385 11.2497 4.74449 10.7143 4.74385C9.01045 4.7432 7.30659 4.75032 5.60273 4.73672C5.27859 4.73413 5.14854 4.81381 5.17033 5.1513C5.19938 5.60151 5.19409 6.05496 5.17033 6.50582C5.15449 6.81157 5.24889 6.91392 5.57368 6.91004C6.95869 6.89319 8.34435 6.90162 9.72935 6.90226C10.1604 6.90226 10.1717 6.90809 10.1651 7.34017C10.1519 8.18941 10.1948 9.03866 10.1307 9.8879C10.0971 10.3362 10.1954 10.7851 10.1505 11.2398C10.1235 11.5151 10.033 11.5961 9.7518 11.5935C8.37802 11.5799 7.00358 11.587 5.62914 11.5877C5.32106 11.5877 5.16681 11.7434 5.16637 12.0547C5.16175 13.7215 5.15713 15.3889 5.15251 17.0556C3.53843 17.0556 1.92501 17.0505 0.311593 17.0615C0.0785584 17.0628 0 17.0317 0 16.7732C0.0105625 11.1893 0.00792185 5.60475 0.00792185 0.0195546Z" fill="#1C1C1C"/>
<path d="M61.9477 17.0567C61.9411 16.3798 61.9391 15.7022 61.9259 15.0253C61.9213 14.8115 62.0236 14.7383 62.2236 14.7383C62.5313 14.7383 62.8395 14.7409 63.1465 14.7247C63.538 14.7046 63.6984 14.5615 63.7585 14.1812C63.7836 14.0232 63.7809 13.8593 63.7809 13.6986C63.7822 11.9243 63.775 10.1494 63.7888 8.37513C63.7915 8.04994 63.6931 7.93075 63.3578 7.95212C62.9854 7.97609 62.6105 7.95277 62.2368 7.95731C62.0177 7.9599 61.9206 7.87504 61.9239 7.65026C61.9332 7.02644 61.9332 6.40262 61.9239 5.77881C61.9206 5.55079 62.0216 5.47759 62.2414 5.48212C62.6481 5.49054 63.0554 5.4737 63.4614 5.48795C63.709 5.49637 63.7888 5.4018 63.7842 5.1673C63.7677 4.39255 63.7822 3.62039 63.9651 2.85924C64.2741 1.57339 65.088 0.770139 66.3859 0.439769C67.9023 0.0543376 69.4312 -0.119916 70.9779 0.263572C71.7384 0.452077 72.4157 0.797346 72.9491 1.37517C73.8186 2.3164 73.7116 4.02007 72.7075 4.69247C71.984 5.17702 71.1733 5.27289 70.3554 4.92049C69.7962 4.67952 69.4431 4.25198 69.383 3.63853C69.3176 2.97649 69.5097 2.42588 70.1428 2.08449C69.4332 1.57598 68.4099 1.90765 68.1102 2.73487C67.9452 3.18961 67.9478 3.66574 67.9168 4.13603C67.8937 4.47871 67.9221 4.82462 67.9076 5.16795C67.8976 5.40309 67.9795 5.49249 68.2277 5.48795C68.9308 5.47565 69.6352 5.49378 70.3382 5.47888C70.628 5.47305 70.7555 5.54885 70.7449 5.85784C70.7244 6.44862 70.731 7.04069 70.7422 7.63212C70.7469 7.8705 70.6498 7.9599 70.4135 7.95796C69.7652 7.95213 69.1163 7.96573 68.468 7.95277C68.1894 7.94694 68.0765 8.0331 68.0785 8.32007C68.0891 10.1377 68.0792 11.9554 68.0884 13.7731C68.0924 14.5181 68.2891 14.7033 69.0496 14.7267C69.4338 14.739 69.8194 14.7331 70.2036 14.7383C70.3653 14.7403 70.5251 14.7603 70.5251 14.9722C70.5251 15.6174 70.5224 16.2626 70.5158 16.9071C70.5158 16.957 70.4769 17.0062 70.4564 17.0554H61.947L61.9477 17.0567Z" fill="#1C1C1C"/>
<path d="M77.8451 17.056C77.2701 16.9789 76.6892 16.9504 76.1215 16.8176C74.273 16.3849 72.727 15.5181 71.7651 13.8527C71.1347 12.7612 70.9782 11.5556 71.0489 10.3268C71.1353 8.82134 71.7031 7.50698 72.8233 6.4485C73.945 5.38873 75.3168 4.87503 76.8463 4.71374C77.9851 4.59389 79.1054 4.6658 80.1966 5.02402C82.455 5.76638 83.9707 7.80172 83.9998 10.1286C84.0037 10.4291 83.9958 10.7304 83.9892 11.0316C83.9833 11.3276 83.8578 11.4591 83.5238 11.4578C81.0951 11.4455 78.667 11.4513 76.2383 11.4513C75.7326 11.4513 75.728 11.4526 75.7584 11.9553C75.8138 12.868 76.0456 13.7108 76.8859 14.242C77.6695 14.7376 78.5205 14.7868 79.3754 14.4383C79.8784 14.2336 80.1748 13.8248 80.3544 13.3234C80.7049 12.3459 80.4402 12.5364 81.4892 12.5195C82.1262 12.5092 82.764 12.5169 83.401 12.5176C83.8737 12.5176 83.8856 12.5338 83.7687 12.9963C83.3845 14.5238 82.4141 15.5913 81.0383 16.3486C80.3293 16.7392 79.5748 16.9769 78.7667 17.0566H77.8432L77.8451 17.056ZM77.7395 9.44321C78.2663 9.44321 78.7925 9.44321 79.3193 9.44321C79.4929 9.44321 79.646 9.40628 79.584 9.18863C79.4546 8.73518 79.3694 8.26554 79.1331 7.84707C78.7687 7.20252 78.0689 6.89936 77.3513 7.06973C76.5314 7.26406 75.7518 8.4236 75.8792 9.24628C75.9102 9.44774 76.0502 9.44256 76.1934 9.44321C76.709 9.4458 77.2246 9.44386 77.7402 9.44321H77.7395Z" fill="#1C1C1C"/>
<path d="M53.3721 17.0564C53.3655 16.3684 53.3616 15.6811 53.3503 14.9932C53.347 14.784 53.4718 14.7412 53.6448 14.7386C53.9412 14.7347 54.2382 14.7354 54.5346 14.7257C54.8878 14.714 55.1024 14.5274 55.1968 14.1997C55.245 14.0332 55.2668 13.8641 55.2668 13.6905C55.2648 12.0775 55.2668 10.4652 55.2635 8.85219C55.2635 8.7032 55.2423 8.55227 55.212 8.40587C55.1301 8.01526 54.942 7.85979 54.53 7.84489C54.2336 7.83388 53.9365 7.83517 53.6401 7.83906C53.4309 7.84165 53.347 7.75225 53.3497 7.54691C53.3569 6.95548 53.3563 6.36405 53.3497 5.77263C53.3477 5.56987 53.4236 5.48242 53.6375 5.48242C55.5605 5.48631 57.4842 5.48825 59.4072 5.48048C59.732 5.47918 59.7162 5.67481 59.7162 5.88664C59.7162 7.87598 59.7162 9.86468 59.7162 11.854C59.7162 12.5744 59.7122 13.2947 59.7188 14.015C59.7235 14.519 59.9248 14.7159 60.4384 14.7328C60.713 14.7418 60.9877 14.7354 61.2623 14.7406C61.4003 14.7431 61.5442 14.7671 61.5461 14.9394C61.5547 15.6157 61.5904 16.2926 61.5263 16.9683C61.5237 16.9987 61.4999 17.0266 61.4861 17.0557H53.3728L53.3721 17.0564Z" fill="#1C1C1C"/>
<path d="M28.3053 8.51508C28.4354 12.5087 25.2772 16.1615 20.9736 16.7678C16.9203 17.3392 12.9943 15.092 11.5803 11.3517C10.2448 7.81871 11.6351 3.772 14.8949 1.6965C16.3809 0.750085 18.0115 0.249996 19.7807 0.278498C24.3081 0.351698 27.7805 3.54463 28.3 7.6451C28.3363 7.93077 28.3046 8.22487 28.3046 8.51443L28.3053 8.51508ZM18.2993 8.58504H18.3007C18.3007 9.69145 18.296 10.7979 18.3026 11.9043C18.3066 12.5624 18.7271 13.0865 19.3635 13.2562C20.1722 13.4713 21.1162 12.9194 21.1723 12.1971C21.1941 11.9185 21.2205 11.64 21.2212 11.3614C21.2245 9.28853 21.2271 7.21497 21.2192 5.14206C21.2172 4.54999 20.7353 3.97152 20.1511 3.81151C19.5153 3.63726 18.9423 3.84585 18.5687 4.38416C18.37 4.67048 18.2993 4.99048 18.2993 5.33057C18.2993 6.41561 18.2993 7.50065 18.2993 8.58568V8.58504Z" fill="#1C1C1C"/>
<path d="M50.9427 7.16968C50.9427 9.36308 50.9427 11.5565 50.9427 13.7499C50.9427 14.4903 51.1136 14.6542 51.8774 14.6555C52.4887 14.6563 52.7944 14.9589 52.7944 15.563C52.7944 15.918 52.7805 16.2736 52.7984 16.6273C52.8135 16.9182 52.7112 17.0212 52.4042 17.0192C50.6456 17.0076 48.8876 17.0134 47.129 17.0134C46.3704 17.0134 45.6119 17.0063 44.8541 17.0166C44.6012 17.0199 44.4996 16.9409 44.5062 16.683C44.5207 16.1136 44.518 15.5436 44.5075 14.9735C44.5029 14.7339 44.6025 14.6464 44.8389 14.6535C45.1571 14.6626 45.4766 14.6607 45.7948 14.6522C46.1849 14.6419 46.3962 14.4391 46.4292 14.0543C46.4365 13.9688 46.4345 13.8827 46.4345 13.7965C46.4345 10.3665 46.4345 6.93648 46.4332 3.5071C46.4332 3.29269 46.4285 3.07633 46.4034 2.86386C46.3652 2.53608 46.1598 2.37024 45.8258 2.36377C45.4852 2.35729 45.1445 2.35405 44.8039 2.35858C44.5959 2.36117 44.5075 2.27891 44.5095 2.07097C44.5167 1.46917 44.5154 0.866735 44.5101 0.264944C44.5081 0.0693129 44.5992 0 44.79 0C46.7461 0.00259114 48.7028 0.00323892 50.6588 0C50.8793 0 50.944 0.106884 50.9427 0.299924C50.9394 0.84795 50.9427 1.39662 50.9427 1.94465C50.9427 3.68654 50.9427 5.42843 50.9427 7.17033V7.16968Z" fill="#1C1C1C"/>
<path d="M55.2598 2.13276C55.2671 0.963509 56.2342 0.0332906 57.4344 0.041064C58.6477 0.0488374 59.6016 0.997842 59.5931 2.18782C59.5851 3.33699 58.5837 4.30025 57.4099 4.28859C56.1933 4.27693 55.2525 3.3331 55.2598 2.13276V2.13276Z" fill="#1C1C1C"/>
</svg>
