<svg width="32" height="36" viewBox="0 0 32 36" fill="none" xmlns="http://www.w3.org/2000/svg">
<g clip-path="url(#clip0_2165_16222)">
<path d="M29.1229 0.000311812C29.1505 0.136574 29.0996 0.267847 29.0967 0.40255C29.0941 0.518544 28.9987 0.503889 28.9199 0.507319C28.4851 0.525404 28.084 0.649194 27.7106 0.86528C27.2509 1.13157 27.0268 1.54628 26.9253 2.03957C26.9012 2.15681 26.8894 2.27436 26.8894 2.39472C26.8904 9.6216 26.89 16.8488 26.891 24.0757C26.891 24.4913 27.0027 24.8783 27.2608 25.2122C27.5717 25.6148 28.0212 25.7966 28.506 25.9129C28.6472 25.9469 28.7906 25.9506 28.9343 25.9456C29.0451 25.9416 29.1021 25.979 29.1008 26.0971C29.0957 26.5515 29.1441 26.4891 28.7195 26.4894C25.4147 26.491 22.1099 26.4903 18.805 26.49C18.7519 26.49 18.6984 26.4916 18.6453 26.4891C18.4 26.4785 18.515 26.2942 18.5002 26.1829C18.4865 26.0787 18.4554 25.9375 18.651 25.9447C18.8175 25.9509 18.9795 25.9172 19.1396 25.8792C20.0876 25.6544 20.638 24.9737 20.6383 24.0248C20.6393 21.1537 20.639 18.2828 20.639 15.4116C20.639 15.2572 20.561 15.1799 20.4049 15.1797C17.4626 15.1797 14.5202 15.1797 11.5781 15.1797C11.4238 15.1797 11.3464 15.2577 11.346 15.4138C11.346 17.7293 11.3498 20.0449 11.3421 22.3604C11.3405 22.863 11.3005 23.366 11.3197 23.8686C11.3303 24.1464 11.3364 24.4261 11.4283 24.6974C11.6594 25.3809 12.1637 25.751 12.8594 25.9122C13.017 25.9487 13.1764 25.9487 13.3358 25.9453C13.4437 25.9428 13.4898 25.9871 13.4892 26.0934C13.4863 26.5546 13.5283 26.4885 13.1108 26.4888C9.82739 26.4903 6.54369 26.4897 3.26032 26.4897C3.20717 26.4897 3.1537 26.4907 3.10056 26.4894C2.9791 26.4869 2.91859 26.3847 2.91902 26.1829C2.91966 25.9565 2.92542 25.9434 3.10792 25.9478C3.2965 25.9522 3.48156 25.9322 3.6599 25.8783C4.1488 25.7305 4.58936 25.5094 4.85766 25.0582C5.0312 24.7663 5.12629 24.4492 5.12629 24.11C5.12725 21.753 5.12693 19.3957 5.12693 17.0387C5.12693 12.1532 5.12885 7.26773 5.12373 2.38225C5.12309 1.87275 4.96236 1.40503 4.56279 1.05393C4.23109 0.762381 3.82831 0.601174 3.38551 0.538188C3.33812 0.531328 3.29074 0.525716 3.24367 0.517921C3.02297 0.481542 2.91443 0.350581 2.91806 0.125037C2.9187 0.0835658 2.92382 0.0424065 2.9267 0.00124725C6.45597 0.000311812 9.98523 0.000311812 13.5142 0.000311812C13.5167 0.0311812 13.5206 0.0623625 13.5215 0.0932319C13.5308 0.496094 13.5299 0.488922 13.1181 0.539124C12.668 0.594315 12.2623 0.770177 11.9293 1.0664C11.5169 1.43278 11.3834 1.92638 11.3818 2.44866C11.3751 4.67625 11.3793 6.90384 11.3799 9.13112C11.3799 9.28952 11.4626 9.36882 11.628 9.36903C14.5493 9.36903 17.4706 9.36903 20.3921 9.36903C20.5565 9.36903 20.6389 9.28941 20.6393 9.13018C20.6399 6.97026 20.6403 4.81002 20.6409 2.65009C20.6409 2.45303 20.648 2.25534 20.606 2.06108C20.4997 1.5681 20.2951 1.1431 19.8222 0.870892C19.4556 0.659795 19.0689 0.535382 18.6475 0.50919C18.5393 0.50233 18.4919 0.463353 18.4964 0.357961C18.5015 0.238848 18.5018 0.119424 18.5044 0C22.0442 0 25.5837 0 29.1236 0L29.1229 0.000311812ZM23.9989 13.0494C23.9989 9.47723 23.9989 5.90542 23.9989 2.33329C23.9989 2.27623 23.9986 2.21917 23.997 2.16211C23.9957 2.11783 23.9816 2.08447 23.9316 2.06794C23.72 1.99685 23.5987 2.07698 23.5987 2.29182C23.5987 5.46389 23.5987 8.63627 23.5987 11.8083C23.5987 11.9796 23.5106 12.0654 23.3345 12.0656C18.4413 12.0656 13.5481 12.0656 8.65491 12.0656C8.60689 12.0656 8.55886 12.0646 8.51116 12.064C8.434 12.0634 8.39205 12.0275 8.39077 11.9505C8.39013 11.8935 8.38885 11.8364 8.38885 11.7793C8.38885 8.61226 8.38885 5.44518 8.38885 2.27841C8.38885 2.06077 8.38757 2.07262 8.16985 2.05952C7.97711 2.04798 7.98671 2.15681 7.98671 2.28403C7.98799 9.45384 7.98767 16.624 7.98767 23.7938C7.98767 23.8353 7.98831 23.8767 7.98992 23.9182C7.99152 23.9637 8.00913 23.994 8.05939 24.0086C8.28191 24.0744 8.38885 24.0018 8.38885 23.7804C8.38885 20.1044 8.38885 16.4288 8.38885 12.7528C8.38885 12.7007 8.39109 12.649 8.38885 12.5972C8.38501 12.5006 8.42759 12.4507 8.53005 12.4544C8.57807 12.4563 8.6261 12.4541 8.6738 12.4541C13.551 12.4541 18.4282 12.4541 23.3057 12.4541C23.3537 12.4541 23.4018 12.4566 23.4495 12.4541C23.5602 12.4485 23.6044 12.5018 23.5987 12.6053C23.5958 12.6571 23.5987 12.7092 23.5987 12.7609C23.5987 16.4213 23.5987 20.0813 23.5987 23.7417C23.5987 23.7988 23.5993 23.8558 23.6009 23.9129C23.6025 23.9662 23.6288 23.9962 23.6848 24.0099C23.9172 24.066 23.9989 24.0077 23.9989 23.7807C23.9989 20.2036 23.9989 16.6265 23.9989 13.049V13.0494Z" fill="#1C1C1C"/>
<path d="M32.0013 28.8176C31.9267 28.8204 31.8524 28.8254 31.7778 28.8254C21.2816 28.8257 10.7854 28.8257 0.289127 28.8257C0.00481369 28.8257 0.00225233 28.8257 0.00513389 28.5467C0.00961631 28.1475 -0.055699 28.1887 0.36885 28.1887C10.8225 28.1881 21.2761 28.1881 31.7298 28.1887C31.8204 28.1887 31.9107 28.1928 32.0013 28.1949V28.8179V28.8176Z" fill="#1C1C1C"/>
<path d="M32.0012 30.75C31.3784 31.6858 30.756 32.6218 30.133 33.5573C30.0757 33.6433 30.0571 33.7359 30.0574 33.8379C30.0596 34.4609 30.0587 35.0839 30.0584 35.7072C30.0584 35.9292 30.0574 35.9295 29.823 35.9298C29.5618 35.9302 29.3005 35.9305 29.0396 35.9295C28.8334 35.9289 28.8273 35.9227 28.8273 35.7156C28.827 35.0926 28.8235 34.4693 28.8302 33.8463C28.8318 33.6988 28.7946 33.5741 28.7136 33.4525C28.1392 32.591 27.5671 31.7282 26.9946 30.866C26.9773 30.8398 26.9594 30.8139 26.9437 30.7868C26.8963 30.7057 26.9194 30.6512 27.0158 30.6502C27.4102 30.6471 27.8047 30.6474 28.1991 30.6502C28.3166 30.6512 28.3483 30.7559 28.3979 30.8323C28.7162 31.3237 29.0136 31.8276 29.3489 32.3085C29.4744 32.4884 29.4869 32.4862 29.6072 32.296C29.9338 31.7793 30.2642 31.2648 30.5911 30.7481C30.6308 30.6855 30.6744 30.6459 30.7547 30.6465C31.1703 30.6509 31.5859 30.6527 32.0018 30.6555V30.7491L32.0012 30.75Z" fill="#1C1C1C"/>
<path d="M19.2322 35.9895C18.5489 36.0425 17.9447 35.8361 17.4222 35.4226C16.7579 34.8969 16.389 34.2178 16.3503 33.3706C16.2891 32.0295 17.3012 30.8461 18.6587 30.601C20.2401 30.3157 21.7833 31.2203 22.0737 32.8084C22.2725 33.8957 21.8851 34.8012 20.9784 35.4731C20.4667 35.8523 19.8831 36.0409 19.2318 35.9892L19.2322 35.9895ZM17.615 33.2951C17.59 34.1551 18.3123 34.8794 19.2376 34.8729C20.1703 34.866 20.8468 34.2318 20.8535 33.3082C20.8596 32.4616 20.2173 31.7279 19.2504 31.7148C18.3059 31.7024 17.6102 32.466 17.6153 33.2954L17.615 33.2951Z" fill="#1C1C1C"/>
<path d="M23.8421 30.6172C24.379 30.6191 24.9163 30.6078 25.4484 30.7067C26.1576 30.838 26.7422 31.4391 26.7537 32.2308C26.764 32.9355 26.4246 33.4737 25.7775 33.8064C25.6565 33.8685 25.6517 33.9043 25.7279 34.0078C26.1441 34.5719 26.5533 35.141 26.9622 35.71C26.999 35.7615 27.0704 35.8142 27.0268 35.8878C26.9887 35.952 26.9113 35.928 26.8501 35.9283C26.5142 35.9302 26.1787 35.9258 25.8428 35.9311C25.7234 35.933 25.6463 35.8912 25.579 35.7942C25.1999 35.2488 24.8154 34.7072 24.4325 34.1644C24.4113 34.1344 24.3918 34.1033 24.3675 34.0758C24.3054 34.0047 24.2205 34.0212 24.144 34.034C24.0537 34.0487 24.0761 34.1282 24.0761 34.1862C24.0745 34.7001 24.0755 35.2139 24.0745 35.7278C24.0742 35.9189 24.064 35.928 23.8645 35.9286C23.6087 35.9295 23.3529 35.9289 23.097 35.9286C22.9299 35.9286 22.8461 35.849 22.8457 35.6898C22.8457 34.2364 22.8457 32.783 22.8457 31.3297C22.8457 31.1741 22.8457 31.0182 22.8457 30.8626C22.8457 30.6992 22.9271 30.6174 23.09 30.6172C23.3404 30.6172 23.5911 30.6172 23.8414 30.6172H23.8421ZM24.0761 32.3733C24.0761 32.5548 24.0784 32.7363 24.0752 32.9177C24.0736 33.0107 24.1129 33.045 24.208 33.0471C24.4373 33.0524 24.6652 33.0425 24.8916 33.011C25.2175 32.9658 25.4567 32.7166 25.4695 32.4182C25.4849 32.0606 25.3056 31.8273 24.9454 31.7481C24.6883 31.6917 24.4261 31.73 24.1661 31.7251C24.0861 31.7235 24.0761 31.7834 24.0761 31.8448C24.0761 32.021 24.0761 32.1975 24.0761 32.3736V32.3733Z" fill="#1C1C1C"/>
<path d="M0.00419603 33.2869C0.00419603 32.4718 0.00739776 31.6567 0.00131448 30.842C0.000353961 30.6948 0.0429369 30.6393 0.199181 30.6449C0.481254 30.6552 0.763966 30.6505 1.04636 30.6468C1.16226 30.6452 1.20997 30.6898 1.20805 30.803C1.2042 31.0366 1.20388 31.2704 1.20837 31.5036C1.21509 31.8507 1.22982 32.1977 1.23622 32.5448C1.23782 32.6374 1.274 32.6742 1.36941 32.6742C1.98767 32.6726 2.60592 32.672 3.22417 32.6767C3.35801 32.6776 3.36665 32.6078 3.36601 32.5083C3.36377 31.9633 3.36473 31.4182 3.36537 30.8732C3.36537 30.6487 3.36633 30.648 3.59782 30.6477C3.87509 30.6474 4.15204 30.6515 4.42931 30.6462C4.55481 30.644 4.59772 30.6939 4.5974 30.8127C4.59548 32.4634 4.59548 34.1141 4.5974 35.7652C4.5974 35.884 4.55449 35.9339 4.42899 35.9317C4.13603 35.9267 3.84275 35.9255 3.54979 35.9323C3.41116 35.9357 3.36217 35.8868 3.36313 35.7515C3.36825 35.1649 3.36089 34.5781 3.36825 33.9916C3.37017 33.846 3.32055 33.8054 3.17583 33.807C2.57903 33.8136 1.9819 33.8136 1.3851 33.807C1.2423 33.8054 1.20324 33.8532 1.20452 33.9872C1.21061 34.5635 1.20741 35.1397 1.20677 35.7159C1.20677 35.9239 1.201 35.9295 0.994811 35.9301C0.73355 35.9311 0.472289 35.9227 0.211348 35.9329C0.0535027 35.9392 -0.00156708 35.893 3.37878e-05 35.7318C0.00771794 34.9167 0.00355569 34.1017 0.00355569 33.2869H0.00419603Z" fill="#1C1C1C"/>
<path d="M9.585 35.994C9.06152 36.0361 8.57454 35.8615 8.14326 35.5204C7.91082 35.3364 7.75041 35.1004 7.61818 34.8431C7.56279 34.7355 7.58712 34.6585 7.70431 34.6036C7.95404 34.487 8.20217 34.3664 8.44775 34.2413C8.55917 34.1846 8.62832 34.2083 8.70228 34.3065C8.86173 34.5191 9.01605 34.739 9.28404 34.8447C9.55522 34.9516 9.81681 34.9307 10.0685 34.7995C10.4014 34.6261 10.4072 34.2401 10.0813 34.0505C9.77262 33.8712 9.42363 33.7839 9.09322 33.6548C8.78521 33.5344 8.49097 33.3972 8.24348 33.1724C7.67453 32.6554 7.65852 31.793 8.09812 31.2152C8.41861 30.7942 8.87006 30.604 9.38681 30.5588C9.97721 30.5074 10.5154 30.6536 10.9816 31.0243C11.1878 31.1884 11.3373 31.3932 11.4644 31.6168C11.5019 31.6826 11.4926 31.7284 11.4209 31.7702C11.1606 31.9227 10.8926 32.0611 10.6192 32.1902C10.4908 32.251 10.445 32.1668 10.4037 32.0783C10.2795 31.8104 10.0649 31.6604 9.77134 31.609C9.60773 31.5803 9.45437 31.6084 9.30613 31.6776C9.04071 31.802 8.9613 32.2382 9.26579 32.4069C9.59269 32.5881 9.94968 32.6929 10.2935 32.8307C10.5897 32.9492 10.8785 33.0751 11.1193 33.2922C11.5922 33.7181 11.6825 34.237 11.5188 34.8138C11.3309 35.4758 10.647 35.98 9.94103 35.9931C9.83442 35.995 9.7278 35.9931 9.58436 35.9931L9.585 35.994Z" fill="#1C1C1C"/>
<path d="M14.7036 33.8504C14.7036 34.4787 14.7039 35.107 14.7036 35.735C14.7036 35.9392 14.6828 35.9588 14.4753 35.9598C14.2249 35.9607 13.9742 35.9598 13.7239 35.9598C13.4485 35.9598 13.4431 35.9545 13.4431 35.6922C13.4431 34.4512 13.4431 33.2105 13.4431 31.9695C13.4431 31.8261 13.3701 31.7543 13.2241 31.754C12.8828 31.7537 12.5418 31.7494 12.2008 31.7559C12.0593 31.7587 11.9968 31.7172 12.0023 31.5701C12.0116 31.3212 12.0087 31.0718 12.0032 30.8227C12.0004 30.6986 12.0433 30.6462 12.1781 30.6465C13.4415 30.6496 14.7045 30.6496 15.9679 30.6465C16.0995 30.6462 16.1488 30.6923 16.146 30.8195C16.1402 31.0737 16.1399 31.3284 16.146 31.5825C16.1492 31.7107 16.0979 31.7575 15.9673 31.7556C15.6263 31.7503 15.285 31.754 14.944 31.7544C14.7844 31.7544 14.7044 31.83 14.7042 31.9814C14.7042 32.6044 14.7042 33.2274 14.7042 33.8504H14.7036Z" fill="#1C1C1C"/>
<path d="M6.80593 33.3073C6.80593 34.1111 6.80593 34.915 6.80593 35.7188C6.80593 35.924 6.79984 35.9296 6.59173 35.9302C6.30966 35.9308 6.02726 35.9268 5.74519 35.9318C5.62257 35.934 5.5739 35.8897 5.57422 35.7684C5.57646 34.1139 5.57646 32.4594 5.57422 30.805C5.57422 30.6796 5.63217 30.6447 5.75032 30.6466C6.03239 30.6509 6.31478 30.6472 6.59685 30.6481C6.79664 30.6487 6.80593 30.6568 6.80593 30.8489C6.80657 31.6684 6.80593 32.4878 6.80593 33.3073V33.3073Z" fill="#1C1C1C"/>
</g>
<defs>
<clipPath id="clip0_2165_16222">
<rect width="32" height="36" fill="white"/>
</clipPath>
</defs>
</svg>
