<svg width="47" height="26" viewBox="0 0 47 26" fill="none" xmlns="http://www.w3.org/2000/svg">
<g clip-path="url(#clip0_2165_16234)">
<path d="M14.6406 15.9647C13.5988 15.2745 12.8705 14.3887 12.0123 13.6525C11.7893 13.4609 11.8391 13.163 11.8417 12.9085C11.8483 12.4177 11.6659 12.1552 11.1437 12.2405C10.4653 12.3521 10.2697 12.0489 10.2999 11.398C10.3458 10.3941 10.3078 9.38764 10.3117 8.38113C10.313 7.97301 10.2632 7.64888 9.72649 7.63707C9.17012 7.62395 9.21998 7.99138 9.21867 8.34176C9.21473 9.43488 9.20293 10.528 9.21998 11.6211C9.22654 12.0542 9.10057 12.2576 8.62687 12.2458C6.45258 12.1933 6.86854 12.5581 6.85148 10.5188C6.82524 7.32738 6.86329 4.13462 6.83049 0.943185C6.82393 0.263429 7.04437 0.069213 7.69522 0.103332C8.63212 0.151886 9.57559 0.0993952 10.5151 0.123016C11.9835 0.161072 12.6684 0.857887 12.6999 2.32894C12.717 3.1163 12.7091 3.90366 12.7012 4.68971C12.696 5.29729 12.5857 5.86944 12.0635 6.26969C11.8496 6.43372 11.8483 6.56888 12.0858 6.71323C12.5962 7.02424 12.7104 7.52422 12.7104 8.07274C12.7104 8.94672 12.7025 9.822 12.7209 10.696C12.7262 10.9453 12.5831 11.3442 13.0358 11.3482C13.4702 11.3508 13.3796 10.9676 13.3796 10.7052C13.3862 7.51372 13.3849 4.32097 13.3862 1.12953C13.3862 0.454146 13.7151 0.116017 14.373 0.115142C15.2915 0.115142 16.21 0.136139 17.1272 0.107269C17.6429 0.0915216 17.8765 0.233247 17.8647 0.801459C17.8279 2.52841 18.0012 2.25152 16.4528 2.24627C15.9082 2.24496 15.7127 2.42474 15.7416 2.96408C15.777 3.6399 15.7678 4.31965 15.7455 4.99679C15.7311 5.43771 15.8833 5.61355 16.3465 5.62274C17.5799 5.64636 17.5799 5.66604 17.5747 6.90351C17.5729 7.46166 17.2746 7.74337 16.6798 7.74861C16.0596 7.75386 15.7486 8.06487 15.7468 8.68164C15.7429 10.0845 15.7442 10.1107 17.1115 10.091C17.719 10.0818 17.908 10.2905 17.8896 10.8876C17.8384 12.4623 18.0431 12.2143 16.5092 12.2392C16.378 12.2418 16.2468 12.2392 16.1155 12.2392C14.4727 12.2392 14.4779 12.2392 14.5685 13.9123C14.6039 14.5606 14.7246 15.2076 14.638 15.9621L14.6406 15.9647ZM10.2986 3.93647H10.2947C10.2947 3.52048 10.3025 3.1058 10.292 2.68982C10.2815 2.28432 10.0086 2.19771 9.66482 2.19247C9.31184 2.18722 9.21867 2.38799 9.21998 2.69506C9.22392 3.48243 9.22261 4.26979 9.21998 5.05715C9.21998 5.36816 9.25935 5.62274 9.67138 5.61618C10.0611 5.61093 10.3052 5.48364 10.2999 5.0519C10.296 4.68053 10.2999 4.30784 10.2999 3.93647H10.2986Z" fill="#1C1C1C"/>
<path d="M18.403 3.7055C18.5723 3.80917 18.6353 3.83148 18.6746 3.87347C19.3412 4.58866 20.3949 5.05451 20.6941 5.95735C20.9815 6.82608 20.7741 7.85883 20.7873 8.82073C20.8069 10.3128 20.6705 10.0936 22.026 10.1015C23.2935 10.1094 23.0797 10.2157 23.2437 9.04119C23.6268 6.2933 23.9772 3.54147 24.321 0.788325C24.38 0.318533 24.5283 0.082324 25.0493 0.107257C25.8339 0.144001 26.6226 0.134815 27.4086 0.111194C27.8272 0.0980713 27.9925 0.283101 28.0463 0.671533C28.5462 4.33014 29.0462 7.98744 29.5658 11.6434C29.6354 12.1368 29.4556 12.2851 29.0055 12.2431C28.8756 12.2313 28.7431 12.2431 28.6118 12.2418C27.3338 12.2379 27.3036 12.2418 27.0831 10.9886C26.9546 10.2577 26.431 10.5201 26.0203 10.465C25.5846 10.4073 25.4101 10.6028 25.3537 11.0398C25.1962 12.2444 25.1778 12.2418 23.9588 12.2418C22.3199 12.2418 20.681 12.2418 19.0421 12.2392C18.7363 12.2392 18.4004 12.2825 18.4004 11.8088C18.403 9.14486 18.4004 6.48226 18.4004 3.7055H18.403ZM26.1121 3.77374C25.9757 5.10832 25.8497 6.44289 25.6988 7.77485C25.6476 8.23152 25.7972 8.39424 26.263 8.39161C26.7774 8.38899 26.7499 8.09635 26.7131 7.74598C26.6514 7.16202 26.6213 6.57543 26.5386 5.99541C26.4336 5.2566 26.4559 4.4968 26.1121 3.77374V3.77374Z" fill="#1C1C1C"/>
<path d="M34.5832 6.17122C34.5832 4.88257 34.5701 3.59524 34.5858 2.30659C34.6055 0.742363 35.2537 0.0809795 36.8192 0.0258642C37.4503 0.0035556 38.088 -0.00694256 38.7166 0.0481728C39.9409 0.155779 40.5996 0.756798 40.6206 1.96146C40.6704 4.77759 40.6704 7.59504 40.6179 10.4099C40.5956 11.5975 39.9461 12.205 38.7678 12.3035C38.0303 12.3651 37.2824 12.3651 36.5436 12.3126C35.2485 12.2221 34.6265 11.5581 34.5937 10.2314C34.5596 8.87844 34.5858 7.52417 34.5858 6.16991H34.5819L34.5832 6.17122ZM38.2455 6.17385C38.2455 5.05842 38.2363 3.94299 38.2494 2.82887C38.2547 2.37876 38.1747 2.0507 37.6248 2.04676C37.0868 2.04282 36.974 2.34858 36.9766 2.80919C36.9858 5.06104 36.9858 7.3129 36.9766 9.56607C36.974 10.0372 37.1105 10.3219 37.6393 10.3167C38.1458 10.3101 38.2534 10.0175 38.2494 9.58575C38.2403 8.44932 38.2468 7.31159 38.2455 6.17385V6.17385Z" fill="#1C1C1C"/>
<path d="M25.2701 13.0683C26.9523 13.0683 26.9589 13.0683 27.1859 14.748C27.6111 17.9067 28.031 21.0666 28.4456 24.2279C28.5663 25.1504 28.5506 25.1556 27.6465 25.1635C27.6032 25.1635 27.5586 25.1635 27.5153 25.1635C26.2516 25.1674 26.2136 25.1727 26.0679 23.9326C25.9826 23.2108 25.4945 23.4405 25.1035 23.3985C24.6796 23.3539 24.4211 23.4549 24.3673 23.972C24.244 25.1661 24.2164 25.1635 23.021 25.1635C22.8688 25.1635 22.714 25.1517 22.5631 25.1635C22.0815 25.2002 21.9791 24.9916 22.0421 24.531C22.4437 21.6112 22.8189 18.6888 23.2034 15.7663C23.2979 15.0525 23.4107 14.3399 23.4777 13.6221C23.5157 13.2153 23.6732 13.0368 24.0918 13.0631C24.4828 13.088 24.8778 13.0683 25.2701 13.0683V13.0683ZM25.316 16.7374H25.1192C24.9736 18.1494 24.8161 19.5614 24.6888 20.9774C24.6534 21.3776 24.9985 21.3172 25.2504 21.3264C25.5339 21.3369 25.7924 21.2949 25.7517 20.9118C25.6835 20.2622 25.6087 19.6139 25.5404 18.9643C25.463 18.2229 25.3908 17.4802 25.3147 16.7374H25.316Z" fill="#1C1C1C"/>
<path d="M11.3975 25.161C11.2886 25.161 11.177 25.1492 11.0694 25.1636C10.4251 25.2489 10.1273 25.0258 10.101 24.3212C10.0656 23.3776 10.0118 23.4131 9.10507 23.3829C8.55002 23.3645 8.3978 23.5955 8.35844 24.1007C8.33088 24.4419 8.48309 24.9615 8.06188 25.0901C7.50551 25.2607 6.88354 25.2384 6.31273 25.0967C6.01749 25.0232 6.17233 24.6742 6.19988 24.4576C6.524 21.921 6.8586 19.387 7.1919 16.8517C7.33099 15.7901 7.49633 14.7311 7.60524 13.6668C7.65379 13.1866 7.85718 13.0356 8.31907 13.0579C8.97385 13.0894 9.63257 13.096 10.286 13.0579C10.8044 13.0278 11.0143 13.2036 11.0799 13.7325C11.4316 16.5735 11.8174 19.4106 12.1913 22.2491C12.2858 22.9643 12.3422 23.6873 12.4866 24.392C12.6165 25.0245 12.3974 25.2397 11.7911 25.1649C11.6625 25.1492 11.5287 25.1623 11.3975 25.1623V25.161ZM9.32814 16.7651L9.12476 16.7572C8.98041 18.1574 8.8282 19.5563 8.69698 20.9578C8.65893 21.362 8.98304 21.3147 9.24154 21.3279C9.57615 21.3449 9.7966 21.2504 9.75461 20.8515C9.60895 19.4894 9.46986 18.1272 9.32946 16.7651H9.32814Z" fill="#1C1C1C"/>
<path d="M43.5231 7.79901C43.5231 8.38297 43.5231 8.96824 43.5231 9.5522C43.5231 9.93801 43.5073 10.3225 44.0637 10.3277C44.6437 10.3343 44.6647 9.94325 44.6581 9.52464C44.6581 9.48134 44.6529 9.43672 44.6594 9.39341C44.8287 8.3436 44.3813 7.67303 43.5139 7.05889C40.8869 5.20202 41.1769 5.61933 41.1743 2.39245C41.1729 0.700939 41.8264 0.0579265 43.5165 0.0119971C44.1503 -0.00506241 44.7854 -0.027371 45.4139 0.0867965C46.4598 0.277076 47.1605 1.29408 46.9676 2.32159C46.9374 2.48694 46.8574 2.60373 46.7379 2.70215C46.1002 3.22837 45.4586 3.75197 44.767 4.31887C44.5479 3.77559 44.6686 3.27955 44.6437 2.79926C44.6227 2.41214 44.6279 2.02239 44.0834 2.02633C43.5441 2.03158 43.5743 2.41739 43.5257 2.80319C43.4076 3.72966 43.7133 4.39367 44.5374 4.87527C45.1187 5.21515 45.6344 5.66919 46.1763 6.07337C46.7196 6.47886 47.0069 7.01033 46.9978 7.70059C46.9859 8.59687 47.0214 9.49315 46.9833 10.3881C46.9335 11.5744 46.343 12.1899 45.1581 12.3027C44.376 12.3775 43.5848 12.3985 42.804 12.2738C41.6847 12.0954 40.984 11.0744 41.1874 9.96425C41.2163 9.80547 41.2819 9.67555 41.396 9.56795C42.0442 8.95643 42.6925 8.34491 43.3407 7.73339L43.5231 7.79507V7.79901Z" fill="#1C1C1C"/>
<path d="M2.87776 25.2542C2.57202 25.2542 2.26497 25.27 1.96054 25.2516C0.64179 25.1703 -0.104846 24.2832 0.0119388 22.9722C0.0329338 22.7308 0.143158 22.5654 0.305869 22.4119C0.846491 21.904 1.3858 21.3922 1.93036 20.8883C2.01828 20.807 2.10488 20.6521 2.25316 20.744C2.37913 20.8214 2.33714 20.9802 2.33845 21.1062C2.3437 21.6088 2.34632 22.1114 2.34108 22.614C2.33714 22.9945 2.45524 23.2504 2.89088 23.2583C3.36196 23.2662 3.49711 22.9998 3.47743 22.5877C3.47349 22.5221 3.46956 22.4552 3.47874 22.3909C3.64933 21.3004 3.21106 20.6009 2.29384 19.9501C-0.300362 18.1103 0.00537783 18.6194 0.0171875 15.201C0.0224363 13.5646 0.896354 12.8179 2.52741 12.953C2.83971 12.9793 3.05753 13.079 3.01029 13.415C2.92762 14.0055 3.23861 14.6734 2.49985 15.1353C2.07076 15.403 2.36994 17.0342 2.84627 17.399C3.50499 17.9042 4.16764 18.4042 4.84736 18.8806C5.53101 19.3595 5.86299 19.9907 5.84331 20.8267C5.82494 21.6127 5.86168 22.4001 5.82756 23.1848C5.7672 24.5627 5.10323 25.2044 3.73068 25.2582C3.44725 25.2687 3.16251 25.2595 2.87907 25.2595V25.2529L2.87776 25.2542Z" fill="#1C1C1C"/>
<path d="M41.5576 12.9751C41.9066 12.9751 42.2596 12.9476 42.606 12.9804C43.7857 13.0893 44.5034 13.9449 44.4339 15.122C44.4234 15.3057 44.3853 15.4671 44.2384 15.5879C43.6636 16.059 43.0889 16.5301 42.5128 16.9999C42.2648 17.2033 42.1152 17.1534 42.1034 16.8227C42.0903 16.4513 42.0929 16.08 42.0877 15.7073C42.0824 15.3162 42.0706 14.9488 41.5129 14.9632C41.0051 14.9764 41.0091 15.311 40.9658 15.6797C40.8542 16.6193 41.1285 17.3188 41.9958 17.8082C42.5811 18.1389 43.0902 18.6048 43.6348 19.0076C44.1846 19.4131 44.4562 19.9643 44.4628 20.6401C44.4706 21.5141 44.4956 22.3907 44.4536 23.2633C44.3827 24.7226 43.1768 25.5861 41.7491 25.2593C41.5038 25.2029 41.4277 25.0454 41.3949 24.8525C41.3332 24.4864 41.2886 24.1176 41.2545 23.7476C41.2321 23.5061 41.3096 23.3158 41.5956 23.2856C42.0195 23.2397 42.1166 22.9536 42.1113 22.5862C42.1061 22.2371 42.0982 21.8868 42.1113 21.5364C42.1297 21.0548 41.9328 20.7057 41.5418 20.4288C40.8464 19.9354 40.1666 19.4223 39.4817 18.9132C38.9174 18.4945 38.6274 17.9316 38.6248 17.2269C38.6222 16.5708 38.6117 15.9146 38.6209 15.2598C38.6458 13.6575 39.3111 12.9896 40.9015 12.9555C41.1206 12.9502 41.3384 12.9555 41.5576 12.9555V12.9765V12.9751Z" fill="#1C1C1C"/>
<path d="M33.3822 19.0871C33.3822 17.3169 33.3979 15.5466 33.373 13.7777C33.3651 13.2488 33.5147 13.0362 34.0724 13.0559C35.1195 13.0927 36.1706 13.0927 37.2177 13.0559C37.7544 13.0376 37.8948 13.2593 37.8882 13.7488C37.8659 15.4128 37.9984 15.1201 36.5406 15.1162C35.9869 15.1162 35.7402 15.2487 35.7795 15.8471C35.8228 16.5216 35.7992 17.2014 35.773 17.8785C35.7559 18.3208 35.9016 18.4927 36.3687 18.4966C37.5969 18.5071 37.5969 18.5268 37.5864 19.7393C37.5812 20.3237 37.2912 20.6177 36.7164 20.6212C36.0997 20.6255 35.7909 20.937 35.79 21.5555C35.79 22.9583 35.79 22.9767 37.198 22.9819C37.7268 22.9846 37.9355 23.1447 37.9197 23.6984C37.8712 25.3847 38.1415 25.1354 36.4566 25.159C35.6916 25.1695 34.9253 25.1327 34.1629 25.1682C33.5816 25.1957 33.3546 25.0212 33.3677 24.3966C33.4071 22.6276 33.3808 20.8561 33.3808 19.0871H33.3822Z" fill="#1C1C1C"/>
<path d="M19.7342 20.6672C19.9481 18.9167 20.1606 17.1674 20.3745 15.4168C20.4506 14.7883 20.5346 14.1597 20.6028 13.5311C20.637 13.2214 20.7708 13.0902 21.1002 13.0626C22.8874 12.9104 22.8992 12.9157 22.6617 14.6728C22.2273 17.8983 21.7786 21.1213 21.3731 24.3508C21.2944 24.978 21.0713 25.2274 20.427 25.1736C19.7762 25.1198 19.1174 25.1683 18.4613 25.1526C18.132 25.1447 17.9089 25.0397 18.2527 24.7077C18.3039 24.6578 18.3616 24.6172 18.3144 24.5699C17.5244 23.7721 17.7672 22.6907 17.5599 21.742C17.2659 20.3995 17.1019 19.0295 16.8893 17.67C16.8565 17.4614 16.7358 17.191 16.9208 17.0506C17.1426 16.8826 17.363 17.0769 17.5651 17.2146C17.8892 17.4338 18.212 17.6385 18.6188 17.7107C19.0256 17.7829 19.2224 18.0781 19.2644 18.5046C19.3379 19.2355 19.4494 19.9625 19.5452 20.6922C19.6069 20.6843 19.6699 20.6764 19.7315 20.6685L19.7342 20.6672Z" fill="#1C1C1C"/>
<path d="M30.3118 7.38626C30.3118 5.89946 30.3013 4.41266 30.3184 2.92586C30.3236 2.47575 30.2134 2.18311 29.7004 2.26579C28.9878 2.38127 28.7595 2.04008 28.6965 1.37476C28.5522 -0.143541 28.4735 0.135973 29.7581 0.120225C31.048 0.104478 32.3379 0.132036 33.6277 0.11104C34.1211 0.103166 34.3166 0.275073 34.2182 0.767174C34.1749 0.981074 34.129 1.20022 34.1329 1.41675C34.146 2.03483 33.9243 2.36814 33.2459 2.2671C32.7341 2.19099 32.6921 2.53349 32.6935 2.92323C32.6974 5.1974 32.683 7.47025 32.7 9.74441C32.704 10.3349 32.679 10.8467 32.1108 11.222C31.6791 11.5081 31.3235 11.907 30.9325 12.2548C30.7987 12.3742 30.6373 12.4923 30.464 12.4346C30.2528 12.365 30.321 12.138 30.3197 11.9766C30.3131 10.4465 30.3158 8.91637 30.3158 7.38495H30.3131L30.3118 7.38626Z" fill="#1C1C1C"/>
<path d="M32.6281 11.6029C32.6623 11.8325 32.6846 11.9165 32.6846 11.9992C32.6859 15.6906 32.699 19.382 32.6793 23.0721C32.6714 24.4185 32.0075 25.0628 30.6638 25.1455C30.5982 25.1494 30.5326 25.1521 30.467 25.1547C28.9251 25.2085 28.9356 25.2085 28.9789 23.6469C28.9908 23.2348 29.0774 22.9566 29.5589 22.996C30.1953 23.0485 30.3161 22.6876 30.3121 22.1417C30.299 19.9135 30.3148 17.6866 30.3121 15.4583C30.3121 15.0384 30.4 14.6841 30.6166 14.2957C31.1467 13.3429 31.871 12.5556 32.6281 11.6016V11.6029Z" fill="#1C1C1C"/>
<path d="M13.0099 20.3476C13.0099 19.038 13.0073 17.727 13.0152 16.4174C13.0152 16.21 12.9285 15.9397 13.1451 15.8124C13.3891 15.6681 13.5151 15.9646 13.7001 16.0526C15.1606 16.7363 15.612 17.8832 15.4112 19.4474C15.2879 20.4146 15.4047 21.4106 15.3837 22.3921C15.3745 22.8436 15.5398 23.0089 15.9938 23.001C17.2968 22.9774 17.159 22.921 17.1643 24.2267C17.1682 25.1571 17.1643 25.1597 16.2261 25.1623C15.3745 25.165 14.5215 25.14 13.6712 25.1689C13.149 25.1873 12.981 24.9773 13.002 24.4747C13.0322 23.7779 13.0086 23.0771 13.0086 22.379C13.0086 21.7019 13.0086 21.0248 13.0086 20.3476H13.0099Z" fill="#1C1C1C"/>
<path d="M21.0692 5.40813C20.3042 4.87535 19.7741 4.17591 19.1442 3.58145C18.9907 3.4371 18.9461 3.2547 18.9592 3.04474C19.0064 2.23769 19.0524 1.42933 19.0839 0.622285C19.0983 0.256162 19.2715 0.118374 19.6258 0.148556C21.7857 0.332274 21.3986 -0.128333 21.3356 1.94637C21.3028 3.03817 21.2057 4.12867 21.1361 5.21917C21.1335 5.26116 21.1086 5.30053 21.0692 5.40813V5.40813Z" fill="#1C1C1C"/>
<path d="M17.0682 12.7011C18.3069 12.7523 18.3135 12.751 18.4237 13.9648C18.5077 14.8965 18.5641 15.8309 18.6494 16.7626C18.6809 17.1103 18.5733 17.2114 18.2531 17.0618C18.1744 17.025 18.0996 16.9712 18.0156 16.9529C16.6273 16.6432 16.0001 15.7836 16.1195 14.3651C16.1352 14.1735 16.0749 13.9766 16.0578 13.7824C15.962 12.6473 15.6983 12.621 17.0682 12.7011Z" fill="#1C1C1C"/>
<path d="M3.85058 15.9319C3.98836 14.991 3.43068 14.1879 3.55009 13.2693C3.62489 12.6958 3.77579 12.5108 4.34003 12.5803C5.3701 12.7063 6.04588 13.205 6.25452 14.0842C6.4146 14.7587 6.40279 15.3558 5.68371 15.7705C5.1982 16.0513 4.78224 16.4528 4.33085 16.794C4.21537 16.882 4.09728 17.0421 3.93588 16.9568C3.77448 16.8715 3.86108 16.6825 3.85321 16.5395C3.8414 16.3229 3.85058 16.1038 3.85058 15.9319Z" fill="#1C1C1C"/>
<path d="M40.9134 24.7041C40.8819 25.9862 40.5394 26.2119 39.508 25.8353C38.348 25.4114 37.9557 23.8616 38.7876 22.9785C39.2206 22.5179 39.6523 22.0572 40.0932 21.6032C40.2297 21.4628 40.4869 21.2778 40.483 21.6426C40.4672 22.758 40.7926 23.8209 40.9134 24.7028V24.7041Z" fill="#1C1C1C"/>
</g>
<defs>
<clipPath id="clip0_2165_16234">
<rect width="47" height="26" fill="white"/>
</clipPath>
</defs>
</svg>
