<svg width="87" height="16" viewBox="0 0 87 16" fill="none" xmlns="http://www.w3.org/2000/svg">
<path d="M63.4195 15.1898C62.6995 15.0798 61.9795 14.9698 61.2895 14.7198C59.2495 13.9798 58.0295 12.4898 57.6195 10.4098C57.0595 7.62977 57.8795 5.15977 59.6495 2.99977C61.0695 1.26977 63.0095 0.459769 65.1495 0.0597687C65.2295 0.0497687 65.2995 0.0297656 65.3795 0.00976562H66.9295C67.0095 0.0297656 67.0795 0.0497687 67.1595 0.0597687C69.7595 0.519769 71.5895 1.90977 72.3695 4.48977C72.7995 5.90977 72.6095 7.32977 72.2995 8.74977C72.2195 9.08977 72.0895 9.19977 71.7395 9.19977C68.6795 9.18977 65.6295 9.19977 62.5695 9.19977C62.4695 9.19977 62.3695 9.19977 62.2695 9.19977C62.0895 9.19977 62.0295 9.26977 62.0795 9.44977C62.1895 9.87977 62.3595 10.2498 62.7095 10.5298C63.7095 11.3298 65.0295 11.3298 66.1395 10.5298C66.2695 10.4298 66.3895 10.3098 66.5795 10.3098C68.1895 10.3098 69.7895 10.3098 71.3995 10.3098C71.6295 10.3098 71.6395 10.4198 71.5695 10.5898C71.4095 10.9898 71.2095 11.3598 70.9495 11.7098C69.9195 13.1098 68.5495 14.0598 66.9295 14.6598C66.1695 14.9498 65.3795 15.0898 64.5695 15.1898H63.4195V15.1898ZM65.3895 5.91977C66.1495 5.91977 66.9195 5.91977 67.6795 5.91977C67.8295 5.91977 67.9695 5.93977 67.9695 5.70977C67.9495 4.80977 67.4295 4.11977 66.5495 3.88977C65.2595 3.53977 63.4595 4.43977 62.9295 5.69977C62.8195 5.95977 62.9795 5.92977 63.1295 5.92977C63.8795 5.92977 64.6295 5.92977 65.3895 5.92977V5.91977Z" fill="#1C1C1C"/>
<path d="M53.4998 0.00999451C53.8798 0.0999945 54.2698 0.189998 54.6198 0.349998C55.9598 0.979998 56.5898 2.11 56.8198 3.5C57.0098 4.67 56.8698 5.83 56.6698 6.98C56.2398 9.47 55.8198 11.96 55.4098 14.45C55.3598 14.74 55.2498 14.85 54.9598 14.85C53.5398 14.84 52.1298 14.85 50.7098 14.85C50.3098 14.85 50.2798 14.8 50.3398 14.42C50.7498 11.95 51.1698 9.47999 51.5698 7.00999C51.6498 6.53999 51.6598 6.05 51.5398 5.57C51.3098 4.67 50.5998 4.23999 49.6998 4.43999C48.5798 4.68999 47.7998 5.64 47.6398 6.78C47.4698 8.02 47.1998 9.26 46.9698 10.49C46.7298 11.79 46.4698 13.09 46.2398 14.4C46.1798 14.74 46.0398 14.86 45.6898 14.85C44.3298 14.83 42.9698 14.85 41.6098 14.85C41.2098 14.85 41.1898 14.82 41.2598 14.42C42.0598 9.88 42.8598 5.33 43.6498 0.779999C43.6998 0.479999 43.8198 0.369997 44.1298 0.379997C45.4198 0.399997 46.7198 0.379997 48.0098 0.379997C48.3998 0.379997 48.4198 0.399999 48.3198 0.779999C48.2098 1.18 48.0998 1.57 48.0498 2C48.2098 1.86 48.3598 1.72 48.5198 1.59C49.4398 0.829996 50.4698 0.320002 51.6398 0.0800018C51.7498 0.0600018 51.8598 0.02 51.9598 0H53.5098L53.4998 0.00999451Z" fill="#1C1C1C"/>
<path d="M18.8302 15.1896C17.9602 15.0496 17.1102 14.8596 16.3202 14.4496C14.5902 13.5696 13.4302 11.8896 13.6102 9.61961C13.7302 8.10961 14.0802 6.62961 14.3102 5.12961C14.5302 3.69961 14.7902 2.26961 15.0402 0.849609C15.1002 0.516276 15.3002 0.349609 15.6402 0.349609C17.0102 0.349609 18.3802 0.349609 19.7502 0.349609C20.1702 0.349609 20.1902 0.369606 20.1202 0.799606C19.6902 3.31961 19.2402 5.83961 18.8202 8.36961C18.6902 9.11961 18.8302 9.82961 19.4902 10.2996C20.1402 10.7696 20.8302 10.6496 21.4902 10.2796C21.9002 10.0496 22.2102 9.70961 22.4502 9.29961C22.7002 8.86961 22.7702 8.38961 22.8602 7.91961C23.3002 5.55961 23.7402 3.18961 24.1602 0.829613C24.2202 0.499613 24.3402 0.38961 24.6802 0.38961C26.0602 0.40961 27.4502 0.38961 28.8302 0.38961C29.2502 0.38961 29.2502 0.389608 29.1802 0.809608C28.7502 3.46961 28.3402 6.12961 27.8702 8.78961C27.3502 11.7396 25.5702 13.6296 22.8102 14.6796C22.1102 14.9496 21.3802 15.0696 20.6502 15.1896H18.8302V15.1896Z" fill="#1C1C1C"/>
<path d="M0.0703125 4.67062C0.310312 3.36062 0.550312 2.04062 0.780312 0.730621C0.820312 0.480621 0.920312 0.390625 1.17031 0.390625C5.36031 0.390625 9.55031 0.390625 13.7503 0.390625C14.0403 0.390625 14.1003 0.490626 14.0503 0.750626C13.8203 2.07063 13.5903 3.38062 13.3603 4.70062C13.3203 4.96062 13.1903 5.05063 12.9303 5.04063C11.8303 5.03063 10.7303 5.04062 9.63031 5.03062C9.35031 5.03062 9.26031 5.13062 9.22031 5.38062C8.72031 8.37062 8.22031 11.3606 7.72031 14.3506C7.64031 14.8206 7.65031 14.8206 7.17031 14.8206C5.74031 14.8206 4.32031 14.8206 2.89031 14.8206C2.58031 14.8206 2.48031 14.7506 2.54031 14.4206C2.99031 11.9006 3.43031 9.38063 3.87031 6.86063C3.96031 6.36063 4.03031 5.86062 4.13031 5.37062C4.19031 5.09062 4.09031 5.04063 3.85031 5.04063C2.74031 5.04063 1.62031 5.04063 0.510312 5.04063C0.360312 5.04063 0.220313 5.03062 0.0703125 5.02062V4.68063V4.67062Z" fill="#1C1C1C"/>
<path d="M86.4308 3.93036C86.1808 5.02036 85.6108 5.88035 84.5708 6.35035C83.3008 6.92035 82.0908 6.76035 81.0508 5.84035C80.0108 4.93035 79.6808 3.74035 80.0808 2.41035C80.4708 1.11035 81.3808 0.330352 82.7308 0.130352C84.3608 -0.109648 85.8308 0.850355 86.3208 2.43036C86.3608 2.55036 86.3908 2.67035 86.4308 2.78035V3.93036V3.93036Z" fill="#1C1C1C"/>
<path d="M30.4905 14.8801C29.7705 14.8801 29.0505 14.8801 28.3305 14.8801C27.9505 14.8801 27.9305 14.8501 27.9905 14.4701C28.3105 12.5601 28.6205 10.6601 28.9405 8.75008C29.3805 6.09008 29.8305 3.43007 30.2605 0.770073C30.3105 0.460073 30.4105 0.330078 30.7505 0.330078C32.1905 0.350078 33.6305 0.330078 35.0705 0.330078C35.5005 0.330078 35.5105 0.330073 35.4405 0.770073C34.9405 3.74007 34.4305 6.70007 33.9305 9.67007C33.6705 11.2101 33.4005 12.7501 33.1505 14.2901C33.0505 14.8701 33.0605 14.8701 32.4905 14.8701C31.8305 14.8701 31.1605 14.8701 30.5005 14.8701L30.4905 14.8801Z" fill="#1C1C1C"/>
<path d="M38.8404 6.65008C37.0304 6.65008 35.5604 5.17008 35.5704 3.36008C35.5704 1.58008 37.0604 0.0800781 38.8304 0.0800781C40.6204 0.0800781 42.1204 1.57007 42.1204 3.37007C42.1204 5.18007 40.6504 6.65008 38.8404 6.65008V6.65008Z" fill="#1C1C1C"/>
<path d="M74.8394 14.8803C74.1294 14.8803 73.4194 14.8803 72.7194 14.8803C72.3094 14.8803 72.2894 14.8603 72.3494 14.4603C73.0994 9.91031 73.8594 5.36031 74.5994 0.810313C74.6494 0.480313 74.7594 0.330312 75.1294 0.340312C76.5594 0.360312 77.9794 0.340312 79.4094 0.340312C79.8394 0.340312 79.8494 0.360316 79.7794 0.790316C79.0094 5.35032 78.2294 9.91032 77.4694 14.4703C77.4194 14.7903 77.2894 14.9003 76.9594 14.8903C76.2494 14.8703 75.5394 14.8903 74.8394 14.8903V14.8803Z" fill="#1C1C1C"/>
</svg>
