<svg width="91" height="16" viewBox="0 0 91 16" fill="none" xmlns="http://www.w3.org/2000/svg">
<path d="M90.4287 0.970358V15.0104C89.7987 15.0104 89.1788 15.0404 88.5488 15.0204C87.7288 14.9904 87.3288 14.5904 87.2688 13.7904C87.2288 13.2104 87.1788 12.6304 87.1588 12.0404C87.1088 9.77036 87.0787 7.49036 87.0387 5.22036C87.0387 5.10036 87.0887 4.95036 86.9287 4.83036C86.7787 5.14036 86.6388 5.42036 86.5188 5.71036C85.2288 8.59036 83.9387 11.4604 82.6787 14.3504C82.4587 14.8504 82.1887 15.0604 81.6487 15.0304C81.0287 15.0004 80.3988 15.0104 79.7688 15.0404C79.2988 15.0704 79.0588 14.8704 78.8788 14.4404C77.9288 12.1204 76.9588 9.81036 75.9888 7.50036C75.5788 6.53036 75.1687 5.56036 74.7587 4.58036L74.5387 4.60036C74.5387 6.45036 74.5387 8.30036 74.5387 10.1504C74.5387 11.3804 74.5687 12.6104 74.4187 13.8404C74.3387 14.5304 73.9687 14.9404 73.2587 15.0004C72.7987 15.0404 72.3388 15.0004 71.8788 15.0304C71.3988 15.0604 71.2188 14.8704 71.2188 14.3804C71.2287 10.1204 71.2287 5.86036 71.2188 1.60036C71.2188 1.07036 71.4187 0.910358 71.9187 0.920358C72.9387 0.950358 73.9688 0.920358 74.9888 0.920358C76.8988 0.920358 76.9087 0.920358 77.6387 2.72036C78.6187 5.14036 79.5687 7.57036 80.5387 9.99036C80.6187 10.1904 80.6387 10.4304 80.9187 10.5804C81.0487 10.2904 81.1687 10.0204 81.2787 9.76036C82.4287 7.10036 83.4888 4.39036 84.7388 1.77036C84.9888 1.25036 85.3087 0.920358 85.9287 0.920358C87.4287 0.930358 88.9388 0.930358 90.4388 0.940358L90.4287 0.970358Z" fill="#1C1C1C"/>
<path d="M62.9704 0.840078C64.3104 1.13008 65.5804 1.57008 66.5604 2.60008C67.7504 3.84008 68.4104 5.29008 68.5204 7.01008C68.5804 7.99008 68.6204 8.98008 68.4204 9.94008C67.8704 12.6001 66.2004 14.2601 63.6104 15.0101C63.3104 15.1001 63.0104 15.1701 62.7104 15.2501H59.7004C58.8504 15.0601 58.0104 14.8301 57.2304 14.4001C55.6004 13.5201 54.5204 12.2101 54.1304 10.3801C53.7904 8.81008 53.7604 7.22008 54.1704 5.67008C54.8104 3.28008 56.3504 1.75008 58.7304 1.06008C59.0104 0.980079 59.2904 0.910078 59.5704 0.830078H62.9504L62.9704 0.840078ZM64.9604 8.06008C64.9604 7.83008 64.9604 7.60008 64.9604 7.37008C64.9004 4.83008 63.6404 3.60008 61.1104 3.61008C60.9804 3.61008 60.8604 3.61008 60.7304 3.61008C59.2904 3.63008 58.2004 4.41008 57.7604 5.77008C57.3204 7.15008 57.2904 8.58008 57.6304 9.98008C57.9404 11.2801 58.7604 12.2101 60.1104 12.4201C61.5804 12.6501 63.0604 12.6101 64.1404 11.3301C64.3404 11.1001 64.4804 10.8001 64.6104 10.5201C64.9604 9.74008 64.9704 8.90008 64.9504 8.06008H64.9604Z" fill="#1C1C1C"/>
<path d="M0.429688 0.969487C1.23969 0.969487 2.05969 0.969487 2.86969 0.939487C3.56969 0.909487 3.99969 1.21949 4.27969 1.84949C5.29969 4.15949 6.17968 6.52949 7.11968 8.87949C7.34968 9.44949 7.52969 10.0495 7.90969 10.6695C8.60969 9.03949 9.26969 7.48949 9.93969 5.93949C10.4897 4.64949 11.0497 3.36949 11.5797 2.07949C11.8997 1.28949 12.4397 0.889487 13.3197 0.949487C13.8597 0.979487 14.4097 0.949487 14.9497 0.949487C15.5897 0.959487 15.6497 1.05949 15.3897 1.65949C14.6897 3.23949 13.9797 4.81949 13.2697 6.39949C12.0897 9.02949 10.8897 11.6495 9.72968 14.2895C9.47968 14.8595 9.13969 15.0795 8.52969 15.0295C7.98969 14.9895 7.43968 14.9995 6.89968 15.0295C6.35968 15.0595 6.06969 14.8395 5.85969 14.3395C4.47969 10.9795 3.06969 7.62949 1.66969 4.27949C1.25969 3.29949 0.839687 2.31949 0.429688 1.33949V0.959487V0.969487Z" fill="#1C1C1C"/>
<path d="M52.5702 0.839844C52.5702 1.33984 52.6102 1.83984 52.5802 2.33984C52.5302 3.07984 51.9702 3.58984 51.2302 3.60984C49.8302 3.64984 48.4402 3.68984 47.0402 3.73984C45.6502 3.78984 44.5302 4.68984 44.1902 6.03984C43.8802 7.29984 43.8602 8.55984 44.1702 9.81984C44.5402 11.3198 45.5802 12.1698 47.1202 12.2398C48.5202 12.2998 49.9102 12.3598 51.3002 12.4698C52.1502 12.5398 52.4902 12.9498 52.5802 13.7998C52.7102 15.1598 52.7102 15.1798 51.3402 15.1598C49.5702 15.1298 47.7902 15.2398 46.0202 15.0498C43.1602 14.7298 41.1702 12.9798 40.5902 10.1298C40.0602 7.52984 40.3502 5.04984 42.1002 2.90984C43.0002 1.80984 44.2202 1.23984 45.6202 1.07984C47.5902 0.859844 49.5802 0.979844 51.5602 0.939844C51.8502 0.939844 52.1502 0.979843 52.4202 0.849844H52.5502L52.5702 0.839844Z" fill="#1C1C1C"/>
<path d="M29.2401 0.940136C30.7601 1.00014 32.2901 0.940136 33.8101 1.05014C36.3101 1.24014 37.5901 2.29014 37.8401 4.80014C38.0601 7.04014 38.0801 9.31014 37.8201 11.5501C37.5901 13.5101 36.3101 14.7501 34.3801 14.9601C32.3001 15.1901 30.2101 15.2801 28.1301 15.0401C25.0001 14.6801 23.4301 12.0001 24.5501 9.02014C25.1001 7.56014 26.1501 6.77014 27.6801 6.58014C29.7001 6.33014 31.7301 6.49014 33.7501 6.45014C34.6401 6.43014 34.6401 6.45014 34.5101 5.54014C34.3401 4.31014 33.7601 3.77014 32.5201 3.73014C30.5201 3.67014 28.5101 3.64014 26.5101 3.60014C25.5401 3.58014 25.0301 3.12014 25.0001 2.16014C24.9601 0.680136 24.8101 0.940136 26.1801 0.920136C27.2001 0.910136 28.2301 0.920136 29.2501 0.920136L29.2401 0.940136ZM32.3501 9.15014C31.4101 9.10014 30.2701 9.22014 29.1201 9.29014C28.1801 9.34014 27.7401 9.89014 27.7701 10.8201C27.8001 11.7701 28.1801 12.1701 29.1501 12.2401C30.0901 12.3101 31.0201 12.3901 31.9601 12.3701C33.8601 12.3301 34.3101 11.9401 34.5301 10.0701C34.5401 9.95014 34.5701 9.82014 34.5901 9.70014C34.6601 9.33014 34.5201 9.15014 34.1301 9.16014C33.6101 9.17014 33.0901 9.16014 32.3501 9.16014V9.15014Z" fill="#1C1C1C"/>
<path d="M21.0097 8.0404C21.0097 10.1704 20.9997 12.3004 21.0097 14.4304C21.0097 14.9604 20.8497 15.1604 20.2997 15.1704C17.8997 15.2104 17.6597 14.7504 17.6897 12.6204C17.7297 9.0104 17.6897 5.3904 17.6897 1.7804C17.6897 0.950402 17.6897 0.950402 18.5297 0.940402C19.1097 0.940402 19.6997 0.970402 20.2797 0.940402C20.8197 0.910402 21.0097 1.1104 21.0097 1.6604C20.9897 3.7904 21.0097 5.9204 21.0097 8.0504V8.0404Z" fill="#1C1C1C"/>
</svg>
