<svg width="75" height="31" viewBox="0 0 75 31" fill="none" xmlns="http://www.w3.org/2000/svg">
<path d="M17.0137 30.029C17.0137 29.4089 17.0137 28.7959 17.0137 28.1757C17.0137 27.8621 17.0137 27.855 17.3273 27.855C18.4463 27.855 19.5581 27.855 20.6771 27.855C26.3148 27.855 31.9596 27.855 37.5973 27.855C37.7042 27.855 37.8111 27.8336 37.9109 27.8763C37.9394 27.969 37.861 27.9975 37.8182 28.0403C37.4547 28.3824 37.0484 28.6676 36.6137 28.9242C35.6586 29.4802 34.6252 29.8223 33.5276 29.9577C33.4064 29.972 33.2852 29.9791 33.1783 30.0361H17.0208L17.0137 30.029Z" fill="#1C1C1C"/>
<path d="M0.669922 3.99839C5.3668 3.99839 10.0637 3.99839 14.7606 3.99839C15.1953 3.99839 15.1953 3.96988 15.1953 4.4332C15.1953 4.89653 15.1953 5.35272 15.1953 5.81605C15.1953 5.88733 15.1953 5.95148 15.1953 6.02276C15.1953 6.12256 15.1383 6.17245 15.0385 6.17958C14.9958 6.17958 14.9459 6.17958 14.9031 6.17958C10.1635 6.17958 5.41668 6.17958 0.677045 6.17958V4.00552L0.669922 3.99839Z" fill="#1C1C1C"/>
<path d="M0.669922 27.8555C2.96491 27.8555 5.25276 27.8555 7.54774 27.8555C9.97101 27.8555 12.3872 27.8555 14.8104 27.8555C15.1668 27.8555 15.1739 27.8555 15.1668 28.219C15.1668 28.8249 15.1668 29.4236 15.1597 30.0295H0.677045V27.8555H0.669922Z" fill="#1C1C1C"/>
<path d="M0.669922 0.0134338C0.776831 0.0134338 0.883742 0.00630571 0.983524 0.00630571C5.59487 0.00630571 10.1991 0.00630571 14.8104 0.00630571C15.1668 0.00630571 15.2024 -0.0507189 15.1953 0.391222C15.1953 0.868803 15.1953 1.33926 15.1953 1.81684C15.1953 1.87386 15.1953 1.93801 15.1953 1.99504C15.1953 2.09483 15.1454 2.15186 15.0385 2.15186C14.9815 2.15186 14.9174 2.15186 14.8603 2.15186C10.2205 2.15186 5.58062 2.15186 0.947885 2.15186C0.855231 2.15186 0.7697 2.15186 0.677045 2.14473V0.0134338H0.669922Z" fill="#1C1C1C"/>
<path d="M0.669922 23.8708C0.769704 23.8708 0.862361 23.8637 0.962143 23.8637C5.56636 23.8637 10.1635 23.8637 14.7677 23.8637C15.1811 23.8637 15.1668 23.8352 15.1668 24.2557C15.1668 24.7547 15.1668 25.2537 15.1668 25.7526C15.1668 25.9879 15.1454 26.0021 14.9031 26.0092C14.8461 26.0092 14.7819 26.0092 14.7249 26.0092C10.1563 26.0092 5.58061 26.0092 1.01203 26.0092C0.897992 26.0092 0.783958 26.0092 0.669922 26.0021C0.669922 25.2893 0.669922 24.5836 0.669922 23.8708Z" fill="#1C1C1C"/>
<path d="M75.0002 6.12253C74.879 6.18668 74.7507 6.17243 74.6224 6.17243C70.5884 6.17243 66.5544 6.17243 62.5203 6.17243C62.1711 6.17243 61.829 6.17243 61.4797 6.17243C61.4298 6.17243 61.3728 6.17243 61.3229 6.17243C61.2303 6.17243 61.2089 6.1154 61.2303 6.02986C61.2445 5.9871 61.2588 5.94433 61.273 5.90156C61.4726 5.33844 61.665 4.77532 61.8646 4.21933C61.9359 4.02687 61.9572 4.01262 62.1568 4.00549C62.2067 4.00549 62.2637 4.00549 62.3136 4.00549C66.4118 4.00549 70.5171 4.00549 74.6153 4.00549C74.7436 4.00549 74.8719 3.99123 74.993 4.04826V6.12966L75.0002 6.12253Z" fill="#1C1C1C"/>
<path d="M75.0002 2.13715C74.8862 2.13715 74.7722 2.15141 74.6581 2.15141C70.7595 2.15141 66.8609 2.15141 62.9623 2.15141C62.5845 2.15141 62.5916 2.15141 62.7199 1.79501C62.9052 1.28178 63.0905 0.775692 63.2687 0.26247C63.3614 0.00585938 63.3614 0.00585938 63.618 0.00585938C67.3455 0.00585938 71.066 0.00585938 74.7935 0.00585938C74.8648 0.00585938 74.929 0.00585938 75.0002 0.0129875V2.13715Z" fill="#1C1C1C"/>
<path d="M42.002 30.0295C42.002 29.4023 42.002 28.775 42.002 28.1548C42.002 28.1121 42.002 28.0622 42.002 28.0194C42.002 27.9054 42.0661 27.8555 42.173 27.8555C42.2229 27.8555 42.2799 27.8555 42.3298 27.8555C45.5157 27.8555 48.7087 27.8555 51.8946 27.8555C52.2296 27.8555 52.2296 27.8555 52.2296 28.1976C52.2296 28.8106 52.2296 29.4165 52.2296 30.0295H42.002V30.0295Z" fill="#1C1C1C"/>
<path d="M64.8157 30.0299C64.8157 29.3741 64.8086 28.7183 64.8086 28.0626C64.8086 27.8844 64.8371 27.863 65.0224 27.8487C65.0723 27.8487 65.1293 27.8487 65.1792 27.8487C68.3295 27.8487 71.4726 27.8487 74.6229 27.8487C74.7512 27.8487 74.8794 27.8273 75.0006 27.8986V30.0299H64.8157V30.0299Z" fill="#1C1C1C"/>
<path d="M74.9999 25.9958C74.9001 25.9958 74.8075 26.003 74.7077 26.003C71.5289 26.003 68.3573 26.003 65.1785 26.003C64.9267 26.003 64.8008 25.8794 64.8008 25.6323C64.8008 25.1333 64.8008 24.6344 64.8008 24.1354C64.8008 23.8717 64.815 23.8574 65.0859 23.8574C66.5256 23.8574 67.9653 23.8574 69.405 23.8574C71.1797 23.8574 72.9472 23.8574 74.7219 23.8574C74.8146 23.8574 74.9001 23.8574 74.9928 23.8645V25.9958H74.9999Z" fill="#1C1C1C"/>
<path d="M58.3431 30.0295C58.1365 29.4094 57.9226 28.7892 57.7159 28.1691C57.609 27.8555 57.609 27.8555 57.9369 27.8555C58.3218 27.8555 58.7066 27.8555 59.0915 27.8555C59.1414 27.8555 59.1984 27.8555 59.2483 27.8555C59.3695 27.8697 59.398 27.9054 59.3481 28.0408C59.2625 28.3045 59.1699 28.5683 59.0773 28.832C58.9418 29.2312 58.7993 29.6304 58.6639 30.0295H58.3503H58.3431Z" fill="#1C1C1C"/>
<path d="M58.4796 13.8205C58.5722 13.571 58.6506 13.35 58.7362 13.1219C58.8502 12.794 58.9643 12.4661 59.0783 12.1383C59.1496 11.9315 59.1638 11.9244 59.3919 11.9173C59.4346 11.9173 59.4845 11.9173 59.5273 11.9173C63.1907 11.9173 66.8613 11.9173 70.5247 11.9173C70.7955 11.9173 70.9309 12.0551 70.9309 12.3307C70.9309 12.8012 70.9309 13.2645 70.9309 13.7349C70.9309 13.8062 70.9309 13.8704 70.9309 13.9417C70.9238 14.0415 70.8668 14.0913 70.767 14.0913C70.71 14.0913 70.6459 14.0913 70.5888 14.0913C68.7785 14.0913 66.9682 14.0913 65.1579 14.0913C64.8229 14.0913 64.8229 14.0913 64.8157 13.7492C64.8157 13.3928 64.8157 13.0435 64.8157 12.6729C64.7373 12.7014 64.7373 12.7584 64.7231 12.8012C64.5948 13.1647 64.4736 13.5282 64.3453 13.8918C64.2812 14.0771 64.2598 14.0913 64.0674 14.0913C64.0175 14.0913 63.9605 14.0913 63.9106 14.0913C60.3256 14.0913 56.7477 14.0913 53.1626 14.0913C52.7493 14.0913 52.7778 14.127 52.6352 13.7207C52.5212 13.3857 52.4 13.0578 52.2717 12.6871C52.229 12.7869 52.2432 12.8511 52.2432 12.9152C52.2432 13.2146 52.2432 13.5211 52.2432 13.8205C52.2432 14.07 52.2218 14.0842 51.9653 14.0842C51.9368 14.0842 51.9082 14.0842 51.8726 14.0842C50.0623 14.0842 48.252 14.0842 46.4416 14.0842C46.1993 14.0842 46.0781 13.963 46.0781 13.7207C46.0781 13.2075 46.0781 12.6942 46.0781 12.181C46.0781 11.9387 46.1066 11.9102 46.3561 11.9102C46.3989 11.9102 46.4488 11.9102 46.4915 11.9102C50.1122 11.9102 53.7328 11.9102 57.3535 11.9102C57.8381 11.9102 57.7597 11.9458 57.888 12.2737C58.0448 12.6871 58.1945 13.1077 58.3513 13.5282C58.3869 13.6138 58.4012 13.7136 58.4867 13.8062L58.4796 13.8205Z" fill="#1C1C1C"/>
<path d="M28.5599 6.17279C24.8466 6.17279 21.1404 6.17279 17.4271 6.17279C17.1515 6.17279 17.0137 6.03736 17.0137 5.76649C17.0137 5.28891 17.0137 4.81846 17.0137 4.34088C17.0137 4.28385 17.0137 4.2197 17.0137 4.16268C17.0137 4.06288 17.0778 4.01299 17.1705 4.00586C17.2417 4.00586 17.3059 4.00586 17.3772 4.00586C24.6327 4.00586 31.8883 4.00586 39.1439 4.00586C39.2009 4.00586 39.265 4.00586 39.3221 4.00586C39.4218 4.00586 39.4931 4.05576 39.5287 4.15555C39.7069 4.61175 39.9136 5.06081 40.0134 5.5384C40.049 5.69521 40.049 5.85203 40.0704 6.00885C40.0847 6.10864 40.0348 6.16567 39.935 6.17279C39.8423 6.17279 39.7568 6.17279 39.6642 6.17279C35.958 6.17279 32.2589 6.17279 28.5527 6.17279H28.5599Z" fill="#1C1C1C"/>
<path d="M28.6026 23.8633C32.3445 23.8633 36.0863 23.8633 39.8281 23.8633C40.2343 23.8633 40.1773 23.8704 40.106 24.2054C40.0063 24.6545 39.9065 25.1036 39.6927 25.517C39.6642 25.574 39.6357 25.6239 39.6071 25.6738C39.4931 25.9162 39.3149 26.0088 39.0298 26.0088C31.817 26.0017 24.6114 26.0088 17.3986 26.0088C17.142 26.0088 17.0137 25.8805 17.0137 25.6239C17.0137 25.1321 17.0137 24.6402 17.0137 24.1555C17.0137 23.8775 17.0279 23.8633 17.313 23.8633C20.3492 23.8633 23.3926 23.8633 26.4288 23.8633C27.1558 23.8633 27.8756 23.8633 28.6026 23.8633Z" fill="#1C1C1C"/>
<path d="M27.448 2.17992C24.1053 2.17992 20.7697 2.17992 17.4271 2.17992C17.1515 2.17992 17.0137 2.04449 17.0137 1.77362C17.0137 1.30317 17.0137 0.839844 17.0137 0.369391C17.0137 0.127037 17.1325 0.00585938 17.37 0.00585938C17.9402 0.00585938 18.5175 0.00585938 19.0877 0.00585938C23.5494 0.00585938 28.0182 0.00585938 32.4799 0.00585938C33.2282 0.00585938 33.9481 0.127037 34.6608 0.340879C35.7869 0.66877 36.7919 1.21763 37.6757 1.98746C37.7256 2.03023 37.8182 2.05875 37.7897 2.13715C37.7612 2.21556 37.6757 2.18705 37.6044 2.18705C37.5402 2.18705 37.469 2.18705 37.3977 2.18705C34.0764 2.18705 30.7622 2.18705 27.4409 2.18705L27.448 2.17992Z" fill="#1C1C1C"/>
<path d="M30.1421 11.9177C32.9788 11.9177 35.8154 11.9177 38.6521 11.9177C38.7661 11.9177 38.9229 11.8607 38.9871 11.9819C39.0369 12.0816 38.9158 12.1814 38.8516 12.2741C38.4525 12.8871 37.9963 13.4431 37.4547 13.9278C37.3193 14.049 37.1767 14.0918 37.0057 14.0918C34.8247 14.0918 32.6438 14.0918 30.4628 14.0918C27.505 14.0918 24.5472 14.0918 21.5894 14.0918C21.3423 14.0918 21.2188 13.9682 21.2188 13.7211C21.2188 13.2079 21.2188 12.6947 21.2188 12.1814C21.2188 11.9391 21.2401 11.9248 21.4753 11.9177C22.1524 11.9177 22.8366 11.9177 23.5137 11.9177C25.7232 11.9177 27.9326 11.9177 30.1421 11.9177V11.9177Z" fill="#1C1C1C"/>
<path d="M30.1771 18.0831C27.3191 18.0831 24.461 18.0831 21.603 18.0831C21.1967 18.0831 21.211 18.1044 21.211 17.6839C21.211 17.1849 21.211 16.6859 21.211 16.187C21.211 15.9589 21.2324 15.9446 21.4533 15.9375C21.5317 15.9375 21.603 15.9375 21.6814 15.9375C26.7489 15.9375 31.8164 15.9375 36.8839 15.9375C37.1333 15.9375 37.3187 16.0017 37.5111 16.1727C38.0741 16.6788 38.5588 17.2562 39.0078 17.8621C39.0292 17.8835 39.0434 17.912 39.0648 17.9334C39.129 18.0403 39.1147 18.0759 38.9793 18.0831C38.9009 18.0831 38.8296 18.0831 38.7512 18.0831C35.8932 18.0831 33.0352 18.0831 30.1771 18.0831Z" fill="#1C1C1C"/>
<path d="M48.837 6.17144C46.6774 6.17144 44.525 6.17144 42.3655 6.17144C42.1231 6.17144 42.002 6.05026 42.002 5.8079C42.002 5.29468 42.002 4.78146 42.002 4.26824C42.002 4.01876 42.0305 3.99737 42.2728 3.99025C42.3084 3.99025 42.3512 3.99025 42.3868 3.99025C46.4494 3.99025 50.519 3.99025 54.5816 3.99025C54.9665 3.99025 54.9308 3.98312 55.052 4.33239C55.2231 4.83136 55.4012 5.33032 55.5794 5.82929C55.6008 5.88631 55.6222 5.94334 55.6364 6.00036C55.6649 6.12154 55.6436 6.15718 55.5295 6.16431C55.4583 6.17144 55.3799 6.16431 55.3015 6.16431C53.1419 6.16431 50.9895 6.16431 48.8299 6.16431L48.837 6.17144Z" fill="#1C1C1C"/>
<path d="M48.1386 2.17992C46.2213 2.17992 44.3112 2.17992 42.394 2.17992C42.1374 2.17992 42.0067 2.05162 42.002 1.79501C42.002 1.31743 42.002 0.846972 42.002 0.369391C42.002 0.319495 42.002 0.26247 42.002 0.212574C42.0091 0.0414998 42.0376 0.0201155 42.2015 0.00585938C42.2443 0.00585938 42.2942 0.00585938 42.3369 0.00585938C45.9647 0.00585938 49.5925 0.00585938 53.2203 0.00585938C53.2631 0.00585938 53.313 0.00585938 53.3557 0.00585938C53.4698 0.00585938 53.541 0.0486278 53.5767 0.155549C53.7905 0.768563 54.0043 1.38158 54.2181 1.99459C54.268 2.13715 54.2395 2.16567 54.0898 2.17992C54.0114 2.17992 53.9402 2.17992 53.8618 2.17992C51.9516 2.17992 50.0487 2.17992 48.1386 2.17992V2.17992Z" fill="#1C1C1C"/>
<path d="M65.336 10.1631C63.5969 10.1631 61.8507 10.1631 60.1116 10.1631C59.7767 10.1631 59.7767 10.1631 59.8836 9.85662C60.0689 9.32914 60.2542 8.80167 60.4395 8.28132C60.5321 8.02471 60.5322 8.02471 60.8101 8.01758C63.1906 8.01758 65.5783 8.01758 67.9588 8.01758C68.8212 8.01758 69.6765 8.01758 70.5389 8.01758C70.5959 8.01758 70.66 8.01758 70.717 8.01758C70.8881 8.02471 70.9166 8.04609 70.9166 8.21716C70.9166 8.79454 70.9166 9.37904 70.9166 9.95641C70.9166 10.1275 70.881 10.1489 70.717 10.156C70.6458 10.156 70.5816 10.156 70.5103 10.156C68.7855 10.156 67.0536 10.156 65.3288 10.156L65.336 10.1631Z" fill="#1C1C1C"/>
<path d="M51.6011 10.1632C49.8834 10.1632 48.1586 10.1632 46.4409 10.1632C46.1938 10.1632 46.0703 10.0373 46.0703 9.78542C46.0703 9.27933 46.0703 8.77324 46.0703 8.26714C46.0703 8.03904 46.0917 8.01766 46.3126 8.01766C46.3625 8.01766 46.4195 8.01766 46.4694 8.01766C49.6339 8.01766 52.8056 8.01766 55.9701 8.01766C56.3977 8.01766 56.3407 8.0034 56.469 8.35268C56.6614 8.89441 56.8539 9.42902 57.0463 9.97075C57.1033 10.1276 57.0819 10.149 56.9109 10.1561C56.8539 10.1561 56.7897 10.1561 56.7327 10.1561C55.0222 10.1561 53.3116 10.1561 51.594 10.1561L51.6011 10.1632Z" fill="#1C1C1C"/>
<path d="M47.1044 26.003C45.5221 26.003 43.9399 26.003 42.3505 26.003C42.1129 26.003 41.9941 25.8889 41.9941 25.6608C41.9941 25.1547 41.9941 24.6486 41.9941 24.1425C41.9941 23.8717 42.0084 23.8574 42.2792 23.8574C43.8615 23.8574 45.4437 23.8574 47.0331 23.8574C48.6439 23.8574 50.2618 23.8574 51.8725 23.8574C52.1101 23.8574 52.2289 23.9715 52.2289 24.1996C52.2289 24.7057 52.2289 25.2118 52.2289 25.7178C52.2289 25.9887 52.2147 26.003 51.9438 26.003C50.333 26.003 48.7152 26.003 47.1044 26.003Z" fill="#1C1C1C"/>
<path d="M58.4941 15.9375C60.0906 15.9375 61.6942 15.9375 63.2907 15.9375C63.6043 15.9375 63.5972 15.9375 63.4974 16.244C63.3335 16.7145 63.1767 17.1849 63.0199 17.6554C62.9985 17.7195 62.9771 17.7837 62.9558 17.8478C62.8702 18.0688 62.856 18.0759 62.6279 18.0831C62.2787 18.0831 61.9366 18.0831 61.5873 18.0831C59.2496 18.0831 56.9118 18.0831 54.5741 18.0831C54.5028 18.0831 54.4387 18.0831 54.3674 18.0831C54.2248 18.0973 54.1464 18.026 54.0966 17.8977C53.8899 17.3061 53.6761 16.7216 53.4622 16.13C53.4052 15.9803 53.4337 15.9518 53.6048 15.9446C53.6618 15.9446 53.7259 15.9446 53.783 15.9446C55.351 15.9446 56.919 15.9446 58.487 15.9446L58.4941 15.9375Z" fill="#1C1C1C"/>
<path d="M58.523 19.9297C59.6349 19.9297 60.7538 19.9297 61.8657 19.9297C62.2007 19.9297 62.2007 19.9297 62.0938 20.2362C61.9013 20.7851 61.7089 21.3339 61.5164 21.8757C61.438 22.0895 61.4238 22.1038 61.1886 22.1038C59.3925 22.1038 57.6036 22.1038 55.8075 22.1038C55.5794 22.1038 55.558 22.0895 55.4796 21.8757C55.2801 21.3054 55.0734 20.7423 54.8738 20.172C54.8596 20.1364 54.8453 20.1008 54.8382 20.0651C54.8168 19.9938 54.8524 19.9439 54.9237 19.9368C55.0021 19.9368 55.0734 19.9368 55.1518 19.9368C56.2779 19.9368 57.3969 19.9368 58.523 19.9368V19.9297Z" fill="#1C1C1C"/>
<path d="M37.0693 22.1038C36.0643 22.1038 35.0594 22.1038 34.0615 22.1038C33.7408 22.1038 33.7266 22.0895 33.7266 21.7759C33.7266 21.2626 33.7266 20.7494 33.7266 20.2362C33.7266 20.1863 33.7266 20.1293 33.7266 20.0794C33.7337 19.9796 33.7907 19.9297 33.8905 19.9297C33.9475 19.9297 34.0116 19.9297 34.0687 19.9297C35.9574 19.9297 37.839 19.9297 39.7277 19.9297C39.7705 19.9297 39.8204 19.9297 39.8631 19.9297C39.9843 19.9297 40.0556 19.9796 40.1055 20.0936C40.2052 20.3431 40.2694 20.5997 40.3122 20.8563C40.3692 21.1842 40.4048 21.5121 40.4191 21.8471C40.4262 22.0824 40.4048 22.1109 40.1696 22.1109C39.1362 22.1109 38.1027 22.1109 37.0693 22.1109V22.1038Z" fill="#1C1C1C"/>
<path d="M36.9625 8.01758C37.9675 8.01758 38.9653 8.01758 39.9702 8.01758C40.2767 8.01758 40.2838 8.03896 40.2624 8.34547C40.2339 8.709 40.2197 9.06541 40.1484 9.42181C40.1056 9.61427 40.0558 9.80673 40.013 9.99206C39.9845 10.1132 39.9061 10.1703 39.7849 10.1631C39.7422 10.1631 39.6923 10.1631 39.6495 10.1631C37.7537 10.1631 35.8649 10.1631 33.9691 10.1631C33.741 10.1631 33.627 10.0443 33.627 9.80673C33.627 9.32202 33.627 8.84443 33.627 8.35973C33.627 8.13163 33.7457 8.01758 33.9833 8.01758C34.9811 8.01758 35.9718 8.01758 36.9696 8.01758H36.9625Z" fill="#1C1C1C"/>
<path d="M24.3761 19.929C25.2955 19.929 26.215 19.929 27.1344 19.929C27.1914 19.929 27.2556 19.929 27.3126 19.929C27.4908 19.9361 27.5121 19.9646 27.5264 20.1428C27.562 20.6917 27.5549 21.2406 27.5549 21.7966C27.5549 21.8393 27.5549 21.8892 27.5549 21.932C27.5549 22.0389 27.4908 22.0959 27.3839 22.0959C27.3268 22.0959 27.2627 22.0959 27.2057 22.0959C25.3241 22.0959 23.4496 22.0959 21.568 22.0959C21.5466 22.0959 21.5252 22.0959 21.4967 22.0959C21.233 22.0959 21.2188 22.0817 21.2188 21.8108C21.2188 21.2691 21.2188 20.7273 21.2188 20.1785C21.2188 19.9433 21.2401 19.9219 21.4825 19.9219C22.4446 19.9219 23.4139 19.9219 24.3761 19.9219V19.929Z" fill="#1C1C1C"/>
<path d="M7.87624 11.9173C8.80279 11.9173 9.72933 11.9173 10.6559 11.9173C10.9766 11.9173 10.9909 11.9315 10.9909 12.2452C10.9909 12.7513 10.9909 13.2574 10.9909 13.7563C10.9909 13.7991 10.9909 13.849 10.9909 13.8918C10.9766 14.0486 10.9481 14.0771 10.7984 14.0842C10.7414 14.0842 10.6773 14.0842 10.6202 14.0842C8.7814 14.0842 6.94257 14.0842 5.10373 14.0842C4.86141 14.0842 4.74023 13.963 4.74023 13.7207C4.74023 13.2289 4.74023 12.7441 4.74023 12.2523C4.74023 11.9102 4.74024 11.9102 5.07522 11.9102C6.00889 11.9102 6.94257 11.9102 7.87624 11.9102V11.9173Z" fill="#1C1C1C"/>
<path d="M7.84773 22.1038C6.94969 22.1038 6.05165 22.1038 5.15362 22.1038C5.10373 22.1038 5.04671 22.1038 4.99682 22.1038C4.76162 22.1038 4.74023 22.0824 4.74023 21.84C4.74023 21.2912 4.74023 20.7423 4.74023 20.1863C4.74023 19.9511 4.76162 19.9297 5.00395 19.9297C6.90693 19.9297 8.80279 19.9297 10.7058 19.9297C10.941 19.9297 10.9624 19.9511 10.9624 20.1934C10.9624 20.7423 10.9624 21.2912 10.9624 21.8471C10.9624 22.0824 10.941 22.1038 10.6986 22.1038C9.75071 22.1038 8.79566 22.1038 7.84773 22.1038Z" fill="#1C1C1C"/>
<path d="M49.1785 19.929C50.0765 19.929 50.9746 19.929 51.8726 19.929C51.9439 19.929 52.008 19.929 52.0793 19.929C52.1791 19.929 52.229 19.986 52.2361 20.0858C52.2361 20.1143 52.2361 20.1428 52.2361 20.1785C52.2361 20.7273 52.2361 21.2833 52.2361 21.8322C52.2361 22.0746 52.2076 22.1031 51.9581 22.1031C50.0837 22.1031 48.2163 22.1031 46.3418 22.1031C46.0924 22.1031 46.0781 22.0817 46.0781 21.8251C46.0781 21.2833 46.0781 20.7416 46.0781 20.1927C46.0781 19.9433 46.0995 19.9219 46.349 19.9219C47.2898 19.9219 48.2377 19.9219 49.1785 19.9219V19.929Z" fill="#1C1C1C"/>
<path d="M7.86843 8.01885C8.78072 8.01885 9.69301 8.01885 10.6053 8.01885C10.6766 8.01885 10.7407 8.01885 10.812 8.01885C10.926 8.01885 10.9759 8.07587 10.983 8.18279C10.983 8.22556 10.983 8.27546 10.983 8.31823C10.983 8.83858 10.983 9.35892 10.983 9.87927C10.983 10.1359 10.9617 10.1573 10.7193 10.1573C8.80923 10.1573 6.89911 10.1573 4.99613 10.1573C4.7538 10.1573 4.73242 10.1359 4.73242 9.90066C4.73242 9.35893 4.73242 8.81719 4.73242 8.26833C4.73242 8.0331 4.7538 8.01172 4.99613 8.01172C5.95118 8.01172 6.91338 8.01172 7.86843 8.01172V8.01885Z" fill="#1C1C1C"/>
<path d="M67.8591 22.1038C66.9539 22.1038 66.0487 22.1038 65.1436 22.1038C64.8086 22.1038 64.8086 22.1038 64.8086 21.7616C64.8086 21.2413 64.8086 20.7209 64.8086 20.2006C64.8086 19.9511 64.83 19.9297 65.0794 19.9297C66.9325 19.9297 68.7856 19.9297 70.6387 19.9297C70.9024 19.9297 70.9238 19.9511 70.9238 20.2148C70.9238 20.7494 70.9238 21.284 70.9238 21.8186C70.9238 22.0752 70.8953 22.1038 70.6387 22.1038C69.7122 22.1038 68.7856 22.1038 67.8591 22.1038V22.1038Z" fill="#1C1C1C"/>
<path d="M24.3262 8.01758C25.2457 8.01758 26.1651 8.01758 27.0845 8.01758C27.1558 8.01758 27.2199 8.01758 27.2912 8.01758C27.3838 8.01758 27.4266 8.06747 27.4337 8.16014C27.4337 8.16727 27.4337 8.1744 27.4337 8.18152C27.4337 8.78741 27.4337 9.38617 27.4337 9.99206C27.4337 10.099 27.3838 10.1631 27.2698 10.1631C27.2128 10.1631 27.1486 10.1631 27.0916 10.1631C25.2528 10.1631 23.4139 10.1631 21.568 10.1631C21.3352 10.1631 21.2188 10.0467 21.2188 9.81385C21.2188 9.30063 21.2188 8.78741 21.2188 8.27419C21.2188 8.03183 21.2401 8.01758 21.4753 8.01758C22.4233 8.01758 23.3783 8.01758 24.3262 8.01758V8.01758Z" fill="#1C1C1C"/>
<path d="M7.84773 18.0831C6.94256 18.0831 6.0374 18.0831 5.13224 18.0831C5.07522 18.0831 5.01107 18.0831 4.95405 18.0831C4.76875 18.0759 4.74736 18.0545 4.74023 17.8692C4.74023 17.6625 4.74023 17.4629 4.74023 17.2562C4.74023 16.8998 4.74023 16.5505 4.74023 16.1941C4.74023 15.9518 4.76162 15.9375 4.99682 15.9375C5.93049 15.9375 6.86417 15.9375 7.79784 15.9375C8.71726 15.9375 9.63668 15.9375 10.5561 15.9375C10.6131 15.9375 10.6773 15.9375 10.7343 15.9375C10.9196 15.9446 10.941 15.966 10.9481 16.1442C10.9481 16.3295 10.9481 16.522 10.9481 16.7073C10.9481 17.078 10.9481 17.4487 10.9481 17.8122C10.9481 18.0545 10.9267 18.0688 10.6915 18.0688C9.74359 18.0688 8.78853 18.0688 7.8406 18.0688L7.84773 18.0831Z" fill="#1C1C1C"/>
<path d="M49.1564 15.9375C50.0545 15.9375 50.9525 15.9375 51.8505 15.9375C51.9075 15.9375 51.9717 15.9375 52.0287 15.9375C52.1998 15.9446 52.2283 15.966 52.2283 16.1371C52.2283 16.7145 52.2283 17.299 52.2283 17.8763C52.2283 18.0474 52.1926 18.0688 52.0216 18.0759C51.9788 18.0759 51.9289 18.0759 51.8862 18.0759C50.0616 18.0759 48.237 18.0759 46.4124 18.0759C46.1843 18.0759 46.0703 17.9642 46.0703 17.7409C46.0703 17.2277 46.0703 16.7145 46.0703 16.2012C46.0703 15.9518 46.0845 15.9375 46.3411 15.9375C47.2748 15.9375 48.2085 15.9375 49.1493 15.9375H49.1564Z" fill="#1C1C1C"/>
<path d="M67.8662 18.0831C66.9895 18.0831 66.12 18.0831 65.2434 18.0831C65.1935 18.0831 65.1365 18.0831 65.0866 18.0831C64.8229 18.0831 64.8086 18.0688 64.8086 17.7979C64.8086 17.2704 64.8086 16.743 64.8086 16.2155C64.8086 15.9589 64.8228 15.9375 65.0723 15.9375C66.9396 15.9375 68.8141 15.9375 70.6815 15.9375C70.9024 15.9375 70.9238 15.9589 70.9309 16.187C70.9309 16.7358 70.9309 17.2847 70.9309 17.8407C70.9309 18.0617 70.9096 18.0831 70.6815 18.0831C69.7478 18.0831 68.8141 18.0831 67.8804 18.0831H67.8662Z" fill="#1C1C1C"/>
<path d="M58.5007 23.8633C59.1706 23.8633 59.8406 23.8633 60.5105 23.8633C60.7814 23.8633 60.7885 23.8775 60.703 24.127C60.5177 24.683 60.3252 25.239 60.1328 25.795C60.0687 25.9946 60.0544 26.0017 59.8406 26.0017C58.9425 26.0017 58.0516 26.0017 57.1536 26.0017C56.9398 26.0017 56.9255 25.9874 56.8614 25.795C56.6618 25.239 56.4694 24.6901 56.2769 24.1341C56.2627 24.0914 56.2484 24.0486 56.2342 24.0058C56.2128 23.9274 56.2342 23.8704 56.3268 23.8633C56.391 23.8633 56.4623 23.8633 56.5264 23.8633C57.1821 23.8633 57.8378 23.8633 58.4935 23.8633H58.5007Z" fill="#1C1C1C"/>
</svg>
