<svg width="123" height="31" viewBox="0 0 123 31" fill="none" xmlns="http://www.w3.org/2000/svg">
<path d="M0 4.63868C0.0427637 4.41771 0.0784 4.19674 0.135418 3.99002C0.591564 2.33631 1.63927 1.23858 3.2928 0.803772C4.91069 0.376087 6.37891 0.782388 7.54779 1.98703C8.78081 3.26296 9.13717 4.80975 8.55273 6.48485C7.96117 8.15995 6.72815 9.15075 4.96771 9.40023C2.5872 9.73525 0.392 8.0459 0.0427637 5.67938C0.0356364 5.61522 0.0142546 5.5582 0 5.49405V4.63155V4.63868Z" fill="#1C1C1C"/>
<path d="M14.1546 29.9997C13.7982 29.9142 13.4419 29.8501 13.0998 29.7146C10.2346 28.5741 9.3722 24.9816 11.4391 22.7006C12.6436 21.3748 14.1689 20.9257 15.8865 21.4104C17.6541 21.9094 18.7374 23.1283 19.0368 24.9459C19.4359 27.3695 17.8109 29.5649 15.3662 29.9712C15.3306 29.9712 15.2878 29.9926 15.2522 30.0069H14.1546V29.9997Z" fill="#1C1C1C"/>
<path d="M65.6715 18.9225C64.5311 18.9225 63.3907 18.9225 62.2504 18.9225C62.0366 18.9225 61.9938 18.9796 62.0437 19.1863C62.5212 21.1322 64.4955 21.6312 65.8568 20.9184C66.1205 20.783 66.3486 20.5905 66.5196 20.341C66.6194 20.1985 66.7334 20.1486 66.8974 20.1486C67.5602 20.1486 68.223 20.1486 68.8787 20.1486C69.1638 20.1486 69.1923 20.1842 69.0783 20.4551C68.4155 21.9306 67.2965 22.8715 65.7071 23.178C63.8611 23.5344 62.2076 23.121 60.8677 21.7381C60.0409 20.8828 59.6418 19.8278 59.542 18.6588C59.4351 17.3686 59.6703 16.1497 60.4187 15.0663C61.3666 13.7119 62.6923 13.049 64.3315 12.9706C65.5717 12.9064 66.6836 13.2415 67.6457 14.0256C68.7362 14.9094 69.3064 16.0713 69.4418 17.4613C69.4774 17.8605 69.4418 18.2525 69.4062 18.6517C69.3848 18.8726 69.2779 18.9225 69.0783 18.9225C67.9379 18.9225 66.7976 18.9225 65.6572 18.9225H65.6715ZM64.4884 17.2403C65.2438 17.2403 65.9993 17.2403 66.7548 17.2403C66.8617 17.2403 66.9972 17.2617 66.9544 17.0692C66.7477 16.2139 66.3272 15.5153 65.4505 15.2088C63.9681 14.6813 62.4357 15.5082 62.0294 17.0265C61.9795 17.2261 62.0651 17.2403 62.2219 17.2403C62.9774 17.2403 63.7329 17.2403 64.4884 17.2403V17.2403Z" fill="#1C1C1C"/>
<path d="M50.4043 18.9229C49.271 18.9229 48.1378 18.9229 47.0117 18.9229C46.7195 18.9229 46.7052 18.9372 46.7765 19.2223C47.3609 21.4534 49.7913 21.6387 50.9317 20.6764C51.0172 20.6051 51.117 20.5339 51.1669 20.4412C51.3023 20.1775 51.5161 20.1418 51.7798 20.1489C52.3714 20.1632 52.9558 20.1489 53.5474 20.1489C53.9038 20.1489 53.9323 20.1775 53.7755 20.5125C53.191 21.7884 52.236 22.6794 50.8818 23.0715C49.1926 23.5562 47.589 23.3423 46.1635 22.266C45.0089 21.3964 44.4316 20.1917 44.2748 18.7732C44.1465 17.6327 44.3176 16.5279 44.8735 15.5157C45.7644 13.9047 47.1685 13.0921 48.9859 12.9781C50.1192 12.9068 51.1669 13.1706 52.1077 13.8335C53.2623 14.6532 53.918 15.7723 54.1318 17.1623C54.2102 17.6541 54.196 18.1459 54.1318 18.6378C54.1033 18.8445 54.0321 18.9229 53.8182 18.9229C52.6779 18.9158 51.5375 18.9229 50.3971 18.9229H50.4043ZM49.214 17.2407C49.9695 17.2407 50.725 17.2407 51.4876 17.2407C51.6302 17.2407 51.7228 17.2193 51.68 17.0411C51.4662 16.1929 51.0386 15.5014 50.1762 15.2021C48.822 14.7387 47.311 15.309 46.7907 16.9413C46.7052 17.2122 46.7195 17.2336 46.9903 17.2336C47.7315 17.2336 48.4728 17.2336 49.214 17.2336V17.2407Z" fill="#1C1C1C"/>
<path d="M122.425 19.736C122.425 20.7625 122.425 21.7889 122.425 22.8153C122.425 23.1147 122.41 23.1219 122.111 23.1219C121.598 23.1219 121.092 23.1219 120.579 23.1219C120.401 23.1219 120.315 23.0577 120.294 22.8795C120.272 22.7013 120.215 22.5231 120.18 22.3449C120.151 22.1809 120.094 22.1239 119.952 22.2665C119.118 23.0862 118.084 23.3713 116.951 23.3072C115.853 23.243 114.877 22.8795 114.186 21.9671C113.145 20.5985 113.537 18.2177 115.454 17.3838C116.124 17.0915 116.823 16.9703 117.55 16.9561C118.248 16.9418 118.954 16.9489 119.652 16.9561C119.88 16.9561 119.937 16.8705 119.937 16.6638C119.923 15.7728 119.424 15.1455 118.576 14.9887C117.678 14.8176 116.851 15.2311 116.545 16.0223C116.473 16.2005 116.374 16.2433 116.203 16.2433C115.575 16.2433 114.941 16.2433 114.314 16.2433C114.029 16.2433 114.007 16.2147 114.072 15.9368C114.349 14.7107 115.062 13.8197 116.238 13.3635C117.657 12.8075 119.082 12.8147 120.45 13.5203C121.726 14.1832 122.375 15.281 122.418 16.7066C122.453 17.7188 122.418 18.731 122.418 19.736H122.425ZM118.74 18.8307C118.441 18.8307 118.134 18.8165 117.835 18.8307C117.464 18.845 117.086 18.8878 116.744 19.0517C116.288 19.2727 116.096 19.6362 116.117 20.1352C116.131 20.6199 116.352 20.9692 116.801 21.1688C117.179 21.3327 117.578 21.3541 117.992 21.3113C119.267 21.1759 120.001 20.3348 119.952 19.0588C119.952 18.8806 119.873 18.8236 119.702 18.8307C119.381 18.8379 119.068 18.8307 118.747 18.8307H118.74Z" fill="#1C1C1C"/>
<path d="M25.0173 0.662109C27.4477 0.662109 29.4148 2.62946 29.4148 5.053C29.4148 7.46229 27.4263 9.4439 25.0101 9.45103C22.5869 9.45103 20.6055 7.46942 20.6055 5.03875C20.6055 2.62233 22.5797 0.669237 25.0173 0.669237V0.662109Z" fill="#1C1C1C"/>
<path d="M10.3196 15.3233C10.3196 12.8926 12.2868 10.9253 14.71 10.9395C17.3542 10.9609 19.1289 13.1492 19.0933 15.3589C19.0577 17.7825 17.1119 19.7356 14.6815 19.7284C12.2582 19.7284 10.3125 17.754 10.3125 15.3162L10.3196 15.3233Z" fill="#1C1C1C"/>
<path d="M14.6956 9.44215C12.1512 9.4279 10.2695 7.30373 10.3052 4.97285C10.3408 2.6491 12.3436 0.603341 14.8025 0.653238C17.0904 0.703134 19.143 2.6491 19.0931 5.12254C19.0432 7.49619 17.0832 9.45641 14.6956 9.44215V9.44215Z" fill="#1C1C1C"/>
<path d="M76.6046 18.1257C76.6189 16.7072 77.0394 15.4455 78.0443 14.4191C78.7428 13.7063 79.5981 13.2501 80.5816 13.079C82.1425 12.801 83.6036 13.0362 84.8723 14.0413C85.8986 14.8468 86.4759 15.9231 86.6755 17.199C86.8964 18.6674 86.6612 20.0431 85.7917 21.2692C84.9293 22.4809 83.7176 23.1153 82.2423 23.2721C81.1162 23.3933 80.0471 23.2009 79.0635 22.6377C77.6238 21.8109 76.8755 20.5278 76.6474 18.9169C76.6118 18.6603 76.5832 18.3965 76.5975 18.1328L76.6046 18.1257ZM81.722 21.0268C82.7198 20.9912 83.4824 20.5278 83.96 19.6154C84.1667 19.2234 84.2593 18.7957 84.2807 18.3538C84.3235 17.3844 84.0811 16.529 83.3399 15.8589C82.3563 14.9608 80.6102 15.0749 79.7763 16.1156C78.9352 17.1705 78.8497 18.3466 79.3771 19.5513C79.8048 20.5278 80.6173 21.0054 81.7291 21.0339L81.722 21.0268Z" fill="#1C1C1C"/>
<path d="M88.1719 18.1533C88.1719 16.6065 88.1719 15.0669 88.1719 13.5201C88.1719 13.1779 88.1719 13.1779 88.5211 13.1779C89.077 13.1779 89.633 13.1779 90.196 13.1779C90.3742 13.1779 90.4597 13.235 90.4882 13.4132C90.5167 13.5842 90.5524 13.7553 90.5952 13.9264C90.645 14.1474 90.6807 14.1545 90.8446 13.9977C91.3791 13.4773 92.0206 13.1637 92.7547 13.0282C94.957 12.6433 96.9313 14.0476 97.2805 16.2501C97.3376 16.6279 97.3732 17.0057 97.3732 17.3906C97.3732 19.1798 97.3732 20.9689 97.3732 22.7652C97.3732 23.1073 97.3589 23.1145 97.024 23.1216C96.4181 23.1216 95.8123 23.1216 95.2065 23.1216C94.9 23.1216 94.8858 23.1002 94.8858 22.7937C94.8858 20.9903 94.8858 19.1798 94.8858 17.3764C94.8858 16.9701 94.8145 16.5852 94.6007 16.2359C94.1303 15.4589 93.2037 15.1025 92.2273 15.3164C91.3649 15.5088 90.7876 16.1575 90.6736 17.0627C90.645 17.2623 90.6379 17.4548 90.6379 17.6544C90.6379 19.3651 90.6379 21.0758 90.6379 22.7866C90.6379 23.1145 90.6379 23.1216 90.3029 23.1216C89.7042 23.1216 89.1055 23.1216 88.5069 23.1216C88.1861 23.1216 88.179 23.1216 88.179 22.7866C88.179 21.2398 88.179 19.7001 88.179 18.1533H88.1719Z" fill="#1C1C1C"/>
<path d="M38.7232 17.5331C38.7232 15.7796 38.7232 14.0333 38.7232 12.2797C38.7232 11.9519 38.7232 11.9447 38.3953 11.9447C37.2478 11.9447 36.1003 11.9447 34.9529 11.9447C34.6393 11.9447 34.625 11.9376 34.625 11.624C34.625 11.0181 34.625 10.4122 34.625 9.80631C34.625 9.47129 34.6393 9.45703 34.9742 9.45703C37.7539 9.45703 40.5335 9.45703 43.3203 9.45703C43.9118 9.45703 44.4963 9.45703 45.0878 9.45703C45.3017 9.45703 45.3872 9.53544 45.3801 9.74928C45.3729 10.3837 45.3729 11.0252 45.3801 11.6596C45.3801 11.8806 45.2945 11.9519 45.0807 11.9447C43.919 11.9447 42.7572 11.9447 41.5883 11.9447C41.2747 11.9447 41.2747 11.9447 41.2747 12.2655C41.2747 15.7511 41.2747 19.2367 41.2747 22.7224C41.2747 22.9837 41.1417 23.1144 40.8756 23.1144C40.2627 23.1144 39.6497 23.1144 39.0368 23.1144C38.7374 23.1144 38.7232 23.1002 38.7232 22.8079C38.7232 21.0473 38.7232 19.2866 38.7232 17.5331Z" fill="#1C1C1C"/>
<path d="M111.585 16.8134C111.257 16.8134 110.929 16.8134 110.608 16.8134C110.458 16.8134 110.359 16.7635 110.287 16.6138C109.86 15.6658 109.097 15.2238 108.078 15.2523C107.045 15.2808 106.296 15.7941 105.847 16.7207C105.248 17.9396 105.519 19.5007 106.453 20.3845C107.308 21.1971 108.791 21.247 109.682 20.5057C109.96 20.2705 110.159 19.9711 110.28 19.629C110.344 19.4436 110.444 19.3866 110.63 19.3937C111.278 19.4009 111.92 19.4009 112.568 19.3937C112.775 19.3937 112.832 19.4579 112.782 19.6646C112.319 21.4751 111.022 22.9506 109.005 23.2572C106.189 23.6777 103.517 22.0026 103.146 18.909C102.953 17.3266 103.281 15.8796 104.336 14.6464C105.099 13.7554 106.082 13.2422 107.23 13.0569C108.249 12.8929 109.268 12.95 110.223 13.3919C111.52 13.9835 112.297 15.0171 112.725 16.3429C112.875 16.8205 112.867 16.8205 112.361 16.8205C112.105 16.8205 111.848 16.8205 111.599 16.8205L111.585 16.8134Z" fill="#1C1C1C"/>
<path d="M74.1299 19.3441C74.1299 20.506 74.1299 21.6679 74.1299 22.8298C74.1299 23.0579 74.0586 23.1363 73.8306 23.1363C73.2105 23.122 72.5904 23.122 71.9632 23.1363C71.7352 23.1363 71.6639 23.0579 71.6639 22.8298C71.6639 20.5203 71.6639 18.2179 71.6639 15.9084C71.6639 15.6661 71.5427 15.5425 71.3004 15.5377C70.944 15.5377 70.5805 15.5377 70.2242 15.5377C70.0602 15.5377 69.9961 15.4807 69.9961 15.3168C69.9961 14.6824 69.9961 14.0409 69.9961 13.4065C69.9961 13.2425 70.0602 13.1784 70.2242 13.1784C70.6304 13.1784 71.0367 13.1784 71.4429 13.1784C71.6069 13.1784 71.671 13.1213 71.671 12.9574C71.671 12.5226 71.671 12.0806 71.671 11.6458C71.6853 10.3129 72.5548 9.4076 73.8876 9.30781C74.5932 9.25791 75.3059 9.29355 76.0115 9.2793C76.204 9.2793 76.2824 9.35771 76.2752 9.55016C76.2681 10.1062 76.2681 10.6621 76.2752 11.2181C76.2752 11.4248 76.1897 11.4819 76.0044 11.4747C75.6124 11.4676 75.2204 11.4747 74.8355 11.4747C74.4008 11.4747 74.1513 11.7242 74.1299 12.1519C74.1228 12.4228 74.1299 12.6936 74.1299 12.9645C74.1299 13.1285 74.1941 13.1855 74.358 13.1855C74.9068 13.1855 75.4556 13.1855 76.0044 13.1855C76.2111 13.1855 76.2824 13.2568 76.2824 13.4635C76.2752 14.0694 76.2752 14.6752 76.2824 15.2811C76.2824 15.495 76.204 15.5591 75.9973 15.552C75.4627 15.5449 74.9282 15.552 74.3936 15.5449C74.1798 15.5449 74.1228 15.6162 74.1228 15.8229C74.1299 16.999 74.1228 18.1751 74.1228 19.3584L74.1299 19.3441Z" fill="#1C1C1C"/>
<path d="M58.1007 16.3078C58.1007 18.4462 58.1007 20.5918 58.1007 22.7302C58.1007 23.1151 58.1007 23.1222 57.7158 23.1222C57.1243 23.1222 56.5398 23.1222 55.9483 23.1222C55.6204 23.1222 55.6133 23.1222 55.6133 22.7872C55.6133 20.0785 55.6133 17.377 55.6133 14.6683C55.6133 13.0574 55.6133 11.4536 55.6133 9.84263C55.6133 9.46484 55.6133 9.46484 56.0053 9.46484C56.5897 9.46484 57.167 9.46484 57.7515 9.46484C58.0864 9.46484 58.1007 9.4791 58.1007 9.81412C58.1007 11.9811 58.1007 14.148 58.1007 16.3078V16.3078Z" fill="#1C1C1C"/>
<path d="M99.1758 18.1531C99.1758 16.5992 99.1758 15.0524 99.1758 13.4985C99.1758 13.1849 99.1829 13.1777 99.5036 13.1777C100.131 13.1777 100.765 13.1777 101.392 13.1777C101.599 13.1777 101.67 13.249 101.67 13.4557C101.67 16.585 101.67 19.7071 101.67 22.8363C101.67 23.0572 101.592 23.1285 101.371 23.1285C100.737 23.1214 100.095 23.1214 99.4609 23.1285C99.2399 23.1285 99.1758 23.0501 99.1758 22.8363C99.1758 21.2752 99.1758 19.7142 99.1758 18.1603V18.1531Z" fill="#1C1C1C"/>
<path d="M100.402 8.87891C101.222 8.87891 101.863 9.50618 101.863 10.3188C101.863 11.11 101.214 11.7729 100.409 11.7943C99.625 11.8085 98.9479 11.1314 98.9337 10.333C98.9265 9.53469 99.5751 8.87891 100.395 8.87891H100.402Z" fill="#1C1C1C"/>
<path d="M81.7649 11.8525C81.4941 11.8525 81.2232 11.8525 80.9524 11.8525C80.7172 11.8525 80.6958 11.8026 80.8241 11.603C81.3658 10.7761 81.9075 9.95641 82.4491 9.12955C82.5133 9.03689 82.5845 8.97987 82.7057 8.97987C83.4327 8.97987 84.1525 8.97987 84.8795 8.97987C84.9294 8.97987 85.0007 8.96561 85.0292 9.02976C85.0577 9.09391 85.0007 9.12956 84.9651 9.17232C84.2666 10.0134 83.561 10.8617 82.8625 11.7028C82.7699 11.8097 82.6629 11.8525 82.5275 11.8454C82.2709 11.8454 82.0215 11.8454 81.7649 11.8454V11.8525Z" fill="#1C1C1C"/>
</svg>
