<svg width="668" height="34" viewBox="0 0 668 34" fill="none" xmlns="http://www.w3.org/2000/svg">
<path d="M382.25 569.844C539.513 569.844 667 442.357 667 285.094C667 127.831 539.513 0.34375 382.25 0.34375C224.987 0.34375 97.5 127.831 97.5 285.094C97.5 442.357 224.987 569.844 382.25 569.844Z" stroke="#7B7B7B" stroke-width="0.5" stroke-miterlimit="10"/>
<path d="M-187.48 579.602C-30.3445 579.602 97.0392 452.218 97.0392 295.082C97.0392 137.946 -30.3445 10.5625 -187.48 10.5625C-344.616 10.5625 -472 137.946 -472 295.082C-472 452.218 -344.616 579.602 -187.48 579.602Z" stroke="#7B7B7B" stroke-width="0.5" stroke-miterlimit="10"/>
<path d="M-150.545 579.602C-13.8108 579.602 97.0344 452.218 97.0344 295.082C97.0344 137.946 -13.8108 10.5625 -150.545 10.5625C-287.28 10.5625 -398.125 137.946 -398.125 295.082C-398.125 452.218 -287.28 579.602 -150.545 579.602Z" stroke="#7B7B7B" stroke-width="0.5" stroke-miterlimit="10"/>
<path d="M-108.404 579.602C5.05942 579.602 97.0396 452.218 97.0396 295.082C97.0396 137.946 5.05942 10.5625 -108.404 10.5625C-221.867 10.5625 -313.848 137.946 -313.848 295.082C-313.848 452.218 -221.867 579.602 -108.404 579.602Z" stroke="#7B7B7B" stroke-width="0.5" stroke-miterlimit="10"/>
<path d="M-60.3421 579.602C26.5853 579.602 97.054 452.218 97.054 295.082C97.054 137.946 26.5853 10.5625 -60.3421 10.5625C-147.27 10.5625 -217.738 137.946 -217.738 295.082C-217.738 452.218 -147.27 579.602 -60.3421 579.602Z" stroke="#7B7B7B" stroke-width="0.5" stroke-miterlimit="10"/>
<path d="M229.467 569.383C302.604 569.383 361.894 441.999 361.894 284.863C361.894 127.728 302.604 0.34375 229.467 0.34375C156.329 0.34375 97.0391 127.728 97.0391 284.863C97.0391 441.999 156.329 569.383 229.467 569.383Z" stroke="#7B7B7B" stroke-width="0.5" stroke-miterlimit="10"/>
<path d="M278.122 569.383C378.131 569.383 459.204 441.999 459.204 284.863C459.204 127.728 378.131 0.34375 278.122 0.34375C178.113 0.34375 97.0391 127.728 97.0391 284.863C97.0391 441.999 178.113 569.383 278.122 569.383Z" stroke="#7B7B7B" stroke-width="0.5" stroke-miterlimit="10"/>
<path d="M-7.69297 579.602C50.1494 579.602 97.0398 452.218 97.0398 295.082C97.0398 137.946 50.1494 10.5625 -7.69297 10.5625C-65.5353 10.5625 -112.426 137.946 -112.426 295.082C-112.426 452.218 -65.5353 579.602 -7.69297 579.602Z" stroke="#7B7B7B" stroke-width="0.5" stroke-miterlimit="10"/>
<path d="M187.83 569.383C237.972 569.383 278.621 441.999 278.621 284.863C278.621 127.728 237.972 0.34375 187.83 0.34375C137.688 0.34375 97.0391 127.728 97.0391 284.863C97.0391 441.999 137.688 569.383 187.83 569.383Z" stroke="#7B7B7B" stroke-width="0.5" stroke-miterlimit="10"/>
<path d="M42.714 579.602C72.716 579.602 97.0374 452.218 97.0374 295.082C97.0374 137.946 72.716 10.5625 42.714 10.5625C12.712 10.5625 -11.6094 137.946 -11.6094 295.082C-11.6094 452.218 12.712 579.602 42.714 579.602Z" stroke="#7B7B7B" stroke-width="0.5" stroke-miterlimit="10"/>
<path d="M146.072 569.383C173.152 569.383 195.105 441.999 195.105 284.863C195.105 127.728 173.152 0.34375 146.072 0.34375C118.992 0.34375 97.0391 127.728 97.0391 284.863C97.0391 441.999 118.992 569.383 146.072 569.383Z" stroke="#7B7B7B" stroke-width="0.5" stroke-miterlimit="10"/>
<path d="M77.1261 569.383C88.1206 569.383 97.0334 441.999 97.0334 284.863C97.0334 127.728 88.1206 0.34375 77.1261 0.34375C66.1316 0.34375 57.2188 127.728 57.2188 284.863C57.2188 441.999 66.1316 569.383 77.1261 569.383Z" stroke="#7B7B7B" stroke-width="0.5" stroke-miterlimit="10"/>
<path d="M119.146 569.383C131.356 569.383 141.254 441.999 141.254 284.863C141.254 127.728 131.356 0.34375 119.146 0.34375C106.937 0.34375 97.0391 127.728 97.0391 284.863C97.0391 441.999 106.937 569.383 119.146 569.383Z" stroke="#7B7B7B" stroke-width="0.5" stroke-miterlimit="10"/>
</svg>
