<svg width="287" height="305" viewBox="0 0 287 305" fill="none" xmlns="http://www.w3.org/2000/svg">
<path d="M121.184 326.649C212.529 326.649 286.579 250.92 286.579 157.504C286.579 64.0881 212.529 -11.6406 121.184 -11.6406C29.8389 -11.6406 -44.2109 64.0881 -44.2109 157.504C-44.2109 250.92 29.8389 326.649 121.184 326.649Z" stroke="#7B7B7B" stroke-width="0.25" stroke-miterlimit="10"/>
<path d="M32.443 326.375C74.9245 326.375 109.363 250.708 109.363 157.367C109.363 64.0269 74.9245 -11.6406 32.443 -11.6406C-10.0385 -11.6406 -44.4766 64.0269 -44.4766 157.367C-44.4766 250.708 -10.0385 326.375 32.443 326.375Z" stroke="#7B7B7B" stroke-width="0.25" stroke-miterlimit="10"/>
<path d="M60.7038 326.375C118.793 326.375 165.884 250.708 165.884 157.367C165.884 64.0269 118.793 -11.6406 60.7038 -11.6406C2.61433 -11.6406 -44.4766 64.0269 -44.4766 157.367C-44.4766 250.708 2.61433 326.375 60.7038 326.375Z" stroke="#7B7B7B" stroke-width="0.25" stroke-miterlimit="10"/>
<path d="M8.25867 326.375C37.3835 326.375 60.9939 250.708 60.9939 157.367C60.9939 64.0269 37.3835 -11.6406 8.25867 -11.6406C-20.8662 -11.6406 -44.4766 64.0269 -44.4766 157.367C-44.4766 250.708 -20.8662 326.375 8.25867 326.375Z" stroke="#7B7B7B" stroke-width="0.25" stroke-miterlimit="10"/>
<path d="M-15.9962 326.375C-0.267002 326.375 12.4841 250.708 12.4841 157.367C12.4841 64.0269 -0.267002 -11.6406 -15.9962 -11.6406C-31.7255 -11.6406 -44.4766 64.0269 -44.4766 157.367C-44.4766 250.708 -31.7255 326.375 -15.9962 326.375Z" stroke="#7B7B7B" stroke-width="0.25" stroke-miterlimit="10"/>
</svg>
