<svg width="67" height="25" viewBox="0 0 67 25" fill="none" xmlns="http://www.w3.org/2000/svg">
<path d="M6.95471 24.8992C5.90827 24.8992 4.87504 24.6272 3.96337 24.1095C2.55226 23.3093 1.54017 22.0072 1.10944 20.4463C0.678708 18.8854 0.882183 17.2506 1.68551 15.8402L8.6565 3.56701C10.3107 0.661789 14.0208 -0.357678 16.9276 1.29037C19.8344 2.94107 20.857 6.65182 19.2081 9.55968L12.2345 21.8329C11.159 23.7266 9.13744 24.9019 6.95471 24.9019V24.8992ZM13.9442 1.46733C12.1684 1.46733 10.4376 2.39436 9.49946 4.04241L2.52848 16.3183C1.85463 17.5015 1.68287 18.8749 2.04489 20.1875C2.40692 21.5001 3.25781 22.5909 4.44431 23.2644C5.21064 23.6975 6.08003 23.9273 6.95735 23.9273C8.79127 23.9273 10.4904 22.9395 11.3942 21.3469L18.3678 9.07372C19.7525 6.63069 18.8936 3.51154 16.452 2.12496C15.6592 1.67597 14.7977 1.46204 13.9468 1.46204L13.9442 1.46733Z" fill="#1C1C1C"/>
<path d="M21.0138 24.9612C18.5008 24.9612 16.2203 23.3792 15.3351 21.0207C15.1686 20.5743 14.7061 20.1253 14.0429 20.1253C13.3796 20.1253 12.9171 20.577 12.748 21.0233C11.8707 23.3792 9.58756 24.9638 7.06923 24.9638C6.34253 24.9638 5.62905 24.8344 4.94464 24.5782C3.42783 24.0104 2.22019 22.8879 1.54899 21.4142C0.877787 19.9404 0.819652 18.2924 1.3878 16.7738C2.33911 14.2251 4.02239 12.0462 6.25269 10.4694C8.54112 8.85308 11.2339 8 14.0429 8C16.8519 8 19.5446 8.85308 21.8304 10.4694C24.0607 12.0435 25.744 14.2251 26.6953 16.7738C27.2634 18.2871 27.2079 19.9352 26.5367 21.4089C25.8655 22.8853 24.6579 24.0104 23.1384 24.5782C22.4567 24.8344 21.7432 24.9638 21.0138 24.9638H21.0086L21.0138 24.9612ZM14.0455 19.156C15.1712 19.156 15.9613 19.922 16.2441 20.68C16.9866 22.6608 18.9051 23.9919 21.0138 23.9919C21.6375 23.9972 22.2294 23.8836 22.8028 23.6697C24.0792 23.1917 25.0939 22.2461 25.6568 21.0075C26.2196 19.7688 26.2672 18.3848 25.7915 17.1118C24.9063 14.7454 23.3446 12.7197 21.2755 11.2591C19.1509 9.75898 16.651 8.96665 14.0455 8.96665C11.44 8.96665 8.9375 9.75898 6.81555 11.2591C4.7438 12.7223 3.18207 14.7454 2.29947 17.1118C1.82117 18.3875 1.86874 19.7714 2.43424 21.0101C2.99974 22.2488 4.01182 23.1917 5.28817 23.6697C5.86424 23.8836 6.46409 23.9919 7.07187 23.9919C9.18854 23.9919 11.107 22.6608 11.8443 20.68C12.1323 19.9193 12.9224 19.156 14.0455 19.156V19.156Z" fill="#1C1C1C"/>
<path d="M41.3859 10.7977C41.0239 10.0767 40.4558 9.48506 39.6921 9.03607C38.9389 8.59237 38.0114 8.36523 36.9412 8.36523C35.6199 8.36523 34.304 8.63991 33.0329 9.1787C32.4753 9.41111 32.1714 9.86538 32.1714 10.4517C32.1714 10.8109 32.3036 11.1331 32.552 11.3814C32.8004 11.6323 33.1148 11.7643 33.461 11.7643C33.5773 11.7643 33.7067 11.7459 33.8627 11.7062C33.8759 11.7062 33.8864 11.701 33.8996 11.6957C34.3938 11.5319 34.8483 11.4078 35.2447 11.3259C35.6331 11.2493 36.0877 11.2071 36.5977 11.2071C37.4538 11.2071 38.0748 11.4633 38.4474 11.7908C38.7487 12.0628 38.9231 12.4273 38.9654 13.2222H36.8778C35.1548 13.2222 33.8151 13.4863 32.8928 14.181C31.9257 14.9046 31.4395 15.8475 31.4395 17.065C31.4395 17.8019 31.6218 18.4437 31.9891 19.0168C32.3511 19.5873 32.8506 20.0152 33.4689 20.3136C34.0741 20.6015 34.7347 20.7467 35.435 20.7467C36.5395 20.7467 37.5305 20.509 38.3999 20.0416C38.7355 19.8646 39.1292 19.9333 39.3961 20.2C39.3961 20.2 39.3987 20.2053 39.4014 20.2053C39.6815 20.4853 40.0409 20.6305 40.4425 20.6305C40.8442 20.6305 41.1983 20.4853 41.4811 20.2132C41.7717 19.9306 41.9224 19.5715 41.9224 19.1674V13.0928C41.9224 12.2741 41.7453 11.5029 41.3859 10.7977M36.1669 18.0238C35.4931 18.0238 35.0016 17.9049 34.7505 17.6804C34.5048 17.4586 34.3912 17.1813 34.3912 16.8062C34.3912 16.0086 35.3134 15.6045 37.1341 15.6045H38.125C38.5769 15.6045 38.9442 15.9743 38.9442 16.4259C38.9442 16.6583 38.8491 16.8828 38.6747 17.0333C38.4236 17.2552 38.0696 17.4506 37.7472 17.6197C37.2345 17.8891 36.7166 18.0238 36.1696 18.0238" fill="#1C1C1C"/>
<path d="M54.1149 10.7329C53.7687 10.0066 53.2402 9.42558 52.5875 9.00565C51.9269 8.58307 51.1421 8.36914 50.2621 8.36914C49.3187 8.36914 48.481 8.56986 47.7755 8.97131C47.4187 9.17204 47.0673 9.41502 46.7343 9.69498C46.6762 9.3754 46.5124 9.08752 46.2613 8.8551C45.9865 8.60948 45.635 8.47743 45.2651 8.47743C44.8608 8.47743 44.5542 8.63061 44.2741 8.91849C44.0046 9.20373 43.9121 9.56292 43.9121 9.95909V19.1686C43.9121 19.5727 44.0072 19.9293 44.2821 20.2092C44.5595 20.4865 44.8898 20.6344 45.2915 20.6344C45.6932 20.6344 46.1133 20.4892 46.3934 20.2145C46.6815 19.9372 46.8929 19.578 46.8929 19.1686V13.6672C46.8929 13.1152 47.1201 12.5843 47.5112 12.2014C47.7306 11.9875 47.9605 11.7999 48.1983 11.6388C48.6845 11.3193 49.2024 11.1634 49.8234 11.1634C51.113 11.1634 51.6653 11.8184 51.6653 13.2869V19.166C51.6653 19.5674 51.8001 19.9266 52.0775 20.2066C52.3576 20.4839 52.7091 20.6318 53.1134 20.6318C53.5177 20.6318 53.8982 20.4865 54.181 20.2119C54.4716 19.9346 54.6487 19.5754 54.6487 19.166V13.0703C54.6487 12.2278 54.4479 11.4407 54.1123 10.7303" fill="#1C1C1C"/>
<path d="M66.6518 18.3124L63.2429 13.7934C63.1319 13.6403 63.1478 13.4237 63.2931 13.2969L65.793 11.0573C65.793 11.0573 65.8088 11.0467 65.8141 11.0388C66.1523 10.7033 66.3241 10.3362 66.3241 9.95856C66.3241 9.58088 66.2131 9.25866 65.9885 8.98135C65.8167 8.7727 65.4891 8.51915 64.8813 8.51915C64.543 8.51915 64.2207 8.65385 63.9036 8.93117L59.6279 12.8796V5.30757C59.6279 4.93253 59.4192 4.39638 59.1417 4.14548C58.8643 3.88665 58.5207 3.75195 58.1376 3.75195C57.7333 3.75195 57.3554 3.90514 57.0779 4.19566C56.8031 4.47826 56.6445 4.83745 56.6445 5.23626V19.1655C56.6445 19.5695 56.8031 19.9261 57.0832 20.2034C57.358 20.4807 57.728 20.6286 58.127 20.6286C58.526 20.6286 58.8907 20.4834 59.1787 20.2087C59.4668 19.9314 59.6253 19.5722 59.6253 19.1655V17.2084C59.6253 16.8334 59.7839 16.4715 60.064 16.218C60.5211 15.798 61.2425 15.8746 61.6072 16.3712L64.2947 20.0265C64.4426 20.2166 64.6197 20.3619 64.8311 20.4649C65.0451 20.5732 65.2618 20.626 65.4811 20.626C65.8934 20.626 66.2475 20.4939 66.5276 20.2377C66.8156 19.9684 66.9662 19.6065 66.9662 19.1839C66.9662 18.8749 66.8605 18.5738 66.6518 18.3045" fill="#1C1C1C"/>
</svg>
