<svg width="69" height="23" viewBox="0 0 69 23" fill="none" xmlns="http://www.w3.org/2000/svg">
<path d="M56.1352 22.6682C55.1179 22.552 54.1137 22.3908 53.1492 22.0237C49.2224 20.5289 46.7807 17.724 45.9113 13.6277C45.3934 11.1926 45.6708 8.78386 46.7966 6.54949C48.4455 3.27715 51.0669 1.19596 54.6871 0.445885C55.1654 0.348164 55.6517 0.292701 56.1352 0.21875H57.7393C58.8253 0.350805 59.8956 0.538324 60.9182 0.952978C64.1315 2.24976 66.338 4.51055 67.5113 7.7776C67.8601 8.74953 68.0055 9.75315 68.1244 10.7673V12.1169C68.024 12.9357 67.9288 13.7544 67.6963 14.5494C67.1044 16.5619 66.0474 18.2786 64.5041 19.7048C63.2463 20.8696 61.7955 21.6804 60.1651 22.1928C59.3723 22.441 58.5558 22.5493 57.7393 22.6655H56.1352V22.6682ZM47.4625 11.4382C47.3911 16.5144 51.4923 20.9224 56.8778 20.9224C62.3135 20.9224 66.3962 16.7045 66.3671 11.425C66.3354 5.91298 62.1021 1.99358 56.928 1.95924C51.6007 1.92491 47.399 6.30122 47.4651 11.4382H47.4625Z" fill="#1C1C1C"/>
<path d="M0.320312 5.45434C1.00737 5.44642 1.69707 5.44113 2.38413 5.42793C2.61403 5.42265 2.72237 5.52565 2.7118 5.75543C2.70916 5.83994 2.7118 5.92445 2.7118 6.00897C2.7118 9.66162 2.7118 13.3143 2.7118 16.9669C2.7118 17.548 2.7118 17.5533 2.13045 17.548C1.52795 17.5453 0.922809 17.5321 0.320312 17.5242V5.45434V5.45434Z" fill="#1C1C1C"/>
<path d="M16.844 11.4434C16.844 9.60254 16.844 7.76169 16.844 5.92084C16.844 5.37677 16.8731 5.34771 17.4174 5.34771C18.6118 5.34771 19.8142 5.27376 21.0007 5.36884C22.1079 5.456 23.2231 5.29225 24.3171 5.5141C26.3016 5.91555 27.3058 7.43419 26.9992 9.49953C26.8988 10.1757 26.5949 10.7197 26.04 11.1133C25.8656 11.2374 25.9105 11.2902 26.0638 11.3668C27.1816 11.9452 27.6017 12.9594 27.6017 14.1188C27.6017 15.7722 26.8143 16.9712 24.9222 17.3727C24.2933 17.5074 23.6485 17.5576 23.0011 17.5549C21.1302 17.547 19.2593 17.5417 17.391 17.5602C16.9735 17.5655 16.8308 17.4493 16.8361 17.0161C16.8572 15.1621 16.844 13.3054 16.844 11.4513V11.4434ZM21.7617 15.2994C22.4541 15.2571 23.3103 15.3654 24.1638 15.2202C24.8667 15.0987 25.271 14.6761 25.2869 13.9736C25.308 13.0703 24.6765 12.4285 23.6749 12.41C22.2982 12.3863 20.9188 12.41 19.542 12.3995C19.2672 12.3995 19.1694 12.5025 19.1747 12.7719C19.1853 13.4744 19.1932 14.1769 19.1721 14.8795C19.1615 15.2255 19.2963 15.3153 19.6187 15.3073C20.2793 15.2888 20.9399 15.3021 21.7644 15.3021L21.7617 15.2994ZM21.6296 10.1519C22.2797 10.0964 23.083 10.2575 23.8731 10.0647C24.4466 9.92475 24.8112 9.42823 24.7769 8.86303C24.7372 8.20803 24.3039 7.74848 23.6908 7.67453C22.3061 7.5055 20.9161 7.63491 19.5288 7.59001C19.2778 7.58209 19.1721 7.67717 19.1774 7.93336C19.1879 8.55138 19.1879 9.1694 19.1774 9.78742C19.1721 10.0595 19.2725 10.1625 19.5473 10.1572C20.1921 10.144 20.8395 10.1545 21.6323 10.1545L21.6296 10.1519Z" fill="#1C1C1C"/>
<path d="M36.4702 5.42362C37.3158 5.42362 38.0055 5.43418 38.6952 5.41834C39.007 5.41041 39.1206 5.52926 39.1101 5.83827C39.0942 6.30047 39.0889 6.76794 39.1101 7.23014C39.1286 7.59461 38.97 7.68177 38.637 7.67913C37.5536 7.66328 36.4702 7.66328 35.3867 7.67913C34.5966 7.68969 33.8144 7.81911 33.1089 8.18358C32.0175 8.74613 31.4177 9.65468 31.3305 10.896C31.2802 11.6144 31.3067 12.3196 31.5762 12.9957C32.1232 14.3611 33.241 14.9369 34.6125 15.1271C35.9284 15.3093 37.2497 15.1931 38.571 15.2036C39.007 15.2063 39.1391 15.3436 39.1127 15.7609C39.081 16.2363 39.1048 16.717 39.1048 17.195C39.1048 17.3773 39.081 17.5437 38.8432 17.541C36.9088 17.5252 34.9613 17.6995 33.056 17.2373C30.8337 16.6959 29.6419 15.1561 29.1847 12.9957C28.8861 11.5853 28.9442 10.175 29.523 8.83593C30.358 6.90264 31.8431 5.80394 33.9333 5.5055C34.8318 5.37608 35.7276 5.4606 36.4675 5.42626L36.4702 5.42362Z" fill="#1C1C1C"/>
<path d="M12.1672 17.3813C10.8592 17.413 9.55115 17.4341 8.30124 16.9587C6.2982 16.1981 5.07735 14.7824 4.76553 12.6405C4.57792 11.3596 4.61227 10.0971 5.1487 8.88748C5.92825 7.13642 7.23365 6.04564 9.13099 5.67853C10.8196 5.35103 12.524 5.57817 14.2179 5.51214C14.461 5.50422 14.535 5.63363 14.5323 5.85284C14.527 6.35994 14.5217 6.86439 14.535 7.37148C14.5429 7.66729 14.4213 7.76501 14.1359 7.76236C13.0657 7.7518 11.9981 7.73331 10.9279 7.76765C10.011 7.7967 9.11249 7.95781 8.32766 8.48603C7.40806 9.10405 6.97997 9.98882 6.92712 11.0822C6.88484 11.9564 7.00111 12.791 7.48998 13.5411C8.04227 14.3863 8.89052 14.7639 9.8339 14.9647C11.1684 15.2499 12.5213 15.1046 13.8664 15.1311C14.5297 15.1443 14.5297 15.1337 14.5297 15.8019C14.5297 16.1532 14.5085 16.5071 14.535 16.8557C14.5667 17.2519 14.4372 17.4103 14.0197 17.3918C13.4013 17.3602 12.783 17.3839 12.162 17.3839L12.1672 17.3813Z" fill="#1C1C1C"/>
<path d="M53.6861 17.4627C52.8986 17.4627 52.1112 17.4495 51.3237 17.468C50.9696 17.4759 50.8665 17.3412 50.8692 17.0005C50.8824 15.5664 50.8824 14.1322 50.8692 12.6981C50.8665 12.368 50.9855 12.2544 51.3131 12.2597C52.1852 12.2755 53.0572 12.2544 53.9292 12.2703C54.2437 12.2755 54.3388 12.162 54.3441 11.853C54.3626 10.543 54.3705 10.543 53.0836 10.543C52.4785 10.543 51.8734 10.5324 51.2682 10.5456C50.9775 10.5509 50.8718 10.44 50.8718 10.1495C50.8798 8.70213 50.8798 7.25216 50.8718 5.80483C50.8718 5.50111 51.004 5.42188 51.2814 5.42188C52.8854 5.4298 54.4895 5.4298 56.0908 5.42188C56.4053 5.42188 56.5216 5.53808 56.5031 5.84445C56.4872 6.13761 56.4846 6.43606 56.5031 6.72922C56.5242 7.06464 56.3841 7.17028 56.0591 7.16764C55.0602 7.15444 54.0614 7.17557 53.0625 7.15708C52.7084 7.14916 52.5816 7.27593 52.6106 7.62191C52.6318 7.88602 52.6291 8.15542 52.6106 8.42217C52.5921 8.72061 52.719 8.81569 53.007 8.81041C53.879 8.79985 54.7511 8.81834 55.6231 8.80249C55.9746 8.79457 56.0855 8.92926 56.0802 9.26997C56.067 10.7041 56.067 12.1382 56.0802 13.5723C56.0829 13.9051 55.964 14.016 55.6363 14.0081C54.7933 13.9923 53.9477 14.016 53.1048 13.9976C52.7507 13.9896 52.6053 14.0926 52.6053 14.4729C52.6027 15.7222 52.5895 15.7222 53.8262 15.7222C54.5846 15.7222 55.3456 15.7301 56.104 15.7196C56.3947 15.7143 56.4898 15.8278 56.5004 16.1157C56.548 17.4627 56.5559 17.4627 55.2003 17.4627C54.6929 17.4627 54.1882 17.4627 53.6808 17.4627H53.6861Z" fill="#1C1C1C"/>
<path d="M60.1788 5.42749C60.9663 5.42749 61.7538 5.4407 62.5413 5.42221C62.8954 5.41429 63.0063 5.54634 63.0011 5.88968C62.9878 7.29475 62.9878 8.70246 63.0011 10.1075C63.0037 10.4852 62.8769 10.6384 62.4884 10.6305C61.6587 10.612 60.8289 10.6384 59.9992 10.6199C59.6583 10.612 59.5314 10.7123 59.5314 11.0715C59.5314 12.2706 59.5182 12.2706 60.7206 12.2706C61.3257 12.2706 61.9309 12.2785 62.536 12.2706C62.8504 12.2653 63.0011 12.3762 62.9984 12.709C62.9905 14.1564 62.9905 15.6063 62.9984 17.0536C62.9984 17.36 62.8874 17.4736 62.5783 17.4736C60.9742 17.463 59.3702 17.4657 57.7689 17.4736C57.4782 17.4736 57.3804 17.3679 57.3698 17.0801C57.3223 15.7304 57.3144 15.7331 58.67 15.7331C59.402 15.7331 60.1339 15.7252 60.8633 15.7357C61.1487 15.741 61.2781 15.6512 61.2623 15.3501C61.2438 15.0411 61.2464 14.7321 61.2623 14.4231C61.2781 14.1062 61.1354 14.0058 60.8342 14.0084C59.9754 14.019 59.1192 14.0005 58.2604 14.0164C57.9195 14.0243 57.7874 13.916 57.7926 13.5621C57.8085 12.157 57.8085 10.7493 57.7926 9.34425C57.79 8.99034 57.9195 8.88206 58.2604 8.88734C59.1033 8.90583 59.9489 8.88206 60.7919 8.8979C61.1328 8.90319 61.2887 8.79754 61.2649 8.44099C61.2438 8.14783 61.2464 7.84938 61.2649 7.55622C61.2834 7.25778 61.1566 7.1627 60.8686 7.16534C59.8697 7.1759 58.8708 7.15478 57.8719 7.17591C57.4808 7.18383 57.3381 7.04649 57.3725 6.66353C57.3963 6.38357 57.3883 6.10097 57.3725 5.82102C57.3566 5.52521 57.4861 5.42485 57.7715 5.43013C58.5722 5.4407 59.3755 5.43277 60.1762 5.43277L60.1788 5.42749Z" fill="#1C1C1C"/>
</svg>
