<svg width="85" height="15" viewBox="0 0 85 15" fill="none" xmlns="http://www.w3.org/2000/svg">
<path d="M78.9878 8.06874C78.3589 7.2632 77.6639 7.01758 75.7164 7.01758C75.209 7.01758 74.1732 7.04663 73.9036 7.03078L73.8164 7.11794C73.8323 7.45336 73.8455 8.95879 73.8455 10.4642C73.8455 11.9697 73.8296 13.4724 73.8164 13.8079L73.9036 13.895C74.3053 13.8818 74.8021 13.9029 75.3359 13.9029C76.3876 13.9029 77.2517 13.8818 78.1766 13.2638C79.001 12.7118 79.6088 11.7557 79.6088 10.2846C79.6088 9.53719 79.4793 8.69732 78.9878 8.0661M77.5556 12.8439C76.8077 13.3087 75.5552 13.248 75.2857 13.248H74.6647C74.6541 12.5982 74.6462 11.5286 74.6462 10.4589C74.6462 9.38929 74.6514 8.3038 74.662 7.65673C74.8893 7.64881 75.3226 7.64616 75.3226 7.64616C76.8659 7.61975 77.5609 7.68314 78.1501 8.30116C78.5809 8.75279 78.7711 9.53456 78.7711 10.2318C78.7711 11.452 78.3113 12.3711 77.5556 12.8439V12.8439Z" fill="#1C1C1C"/>
<path d="M8.67748 2.54833C8.67748 3.58364 7.83716 4.42088 6.80921 4.42088C5.78127 4.42088 4.92773 3.58364 4.92773 2.54833C4.92773 1.51301 5.7707 0.675781 6.80921 0.675781C7.84773 0.675781 8.67748 1.51565 8.67748 2.54833Z" fill="#1C1C1C"/>
<path d="M3.86268 13.8942L6.80381 7.02734H3.07785L0.136719 13.8942H3.86268Z" fill="#1C1C1C"/>
<path d="M9.74582 13.8942L6.80469 7.02734H10.5307L13.4718 13.8942H9.74582Z" fill="#1C1C1C"/>
<path d="M20.4238 7.04055C20.5295 7.04055 20.6643 7.03527 20.7832 7.02734L20.8731 7.1145C20.8599 7.44992 20.844 8.95535 20.844 10.4608C20.844 11.9662 20.8599 13.469 20.8731 13.8044L20.7832 13.8916C20.6643 13.8837 20.5295 13.8784 20.4238 13.881C20.3155 13.881 20.1834 13.8837 20.0645 13.8916L19.9746 13.8044C19.9878 13.469 20.0037 11.9636 20.0037 10.4608C20.0037 8.95799 19.9905 7.44992 19.9746 7.1145L20.0645 7.02734C20.1834 7.03527 20.3181 7.04055 20.4238 7.04055Z" fill="#1C1C1C"/>
<path d="M83.6953 7.04055C83.801 7.04055 83.9358 7.03527 84.0547 7.02734L84.1419 7.1145C84.1261 7.44992 84.1128 8.95535 84.1128 10.4608C84.1128 11.9662 84.1287 13.469 84.1419 13.8044L84.0547 13.8916C83.9332 13.8837 83.801 13.8784 83.6953 13.881C83.587 13.881 83.4548 13.8837 83.3333 13.8916L83.2461 13.8044C83.2593 13.469 83.2752 11.9636 83.2752 10.4608C83.2752 8.95799 83.2619 7.44992 83.2461 7.1145L83.3333 7.02734C83.4548 7.03527 83.587 7.04055 83.6953 7.04055Z" fill="#1C1C1C"/>
<path d="M29.562 13.8849C29.6704 13.8849 29.9505 13.8876 30.0694 13.8955L30.1593 13.8083C30.146 13.4729 30.1302 11.9675 30.1302 10.4647C30.1302 8.9619 30.1434 7.45383 30.1593 7.11841L30.0694 7.03125C29.9505 7.03917 29.8554 7.04446 29.747 7.04446C29.6387 7.04446 29.5383 7.03917 29.4193 7.03125L29.3295 7.11841C29.3454 7.45383 29.3586 8.95926 29.3586 10.4647V13.0081C29.1234 12.5802 28.0611 10.6813 27.6964 10.0263C27.308 9.32638 26.2245 7.35875 26.0898 7.10784L25.9682 7.03389C25.8519 7.03918 25.5745 7.0471 25.4318 7.0471C25.3261 7.0471 25.0512 7.04182 24.9297 7.03389L24.8398 7.12105C24.8531 7.45912 24.8689 8.9619 24.8689 10.4673C24.8689 11.9728 24.8557 13.4782 24.8398 13.811L24.9297 13.8981C25.0512 13.8902 25.1437 13.8849 25.2521 13.8876C25.3578 13.8876 25.4608 13.8902 25.5798 13.8981L25.6696 13.811C25.6537 13.4756 25.6405 11.9701 25.6405 10.4673V7.89753C26.2827 9.01736 26.8323 10.0051 27.1626 10.5994C27.4586 11.1355 28.4178 12.8919 28.9173 13.8136L29.0203 13.9008C29.2079 13.8902 29.4193 13.8902 29.5594 13.8902L29.562 13.8849Z" fill="#1C1C1C"/>
<path d="M44.866 13.3104L44.7709 13.2153C44.4749 13.2259 43.92 13.2365 42.8788 13.2365H41.6976V10.6297H42.6727C43.7165 10.6297 44.2688 10.6403 44.5648 10.6482L44.6599 10.5531C44.6546 10.4686 44.652 10.3814 44.652 10.3101C44.652 10.2388 44.6546 10.149 44.6599 10.0671L44.5648 9.97207C44.2688 9.98263 43.7139 9.99319 42.6727 9.99319H41.6976V7.69015H42.8788C43.9226 7.69015 44.4511 7.70071 44.7445 7.71128L44.8396 7.6162C44.8343 7.53168 44.8317 7.44189 44.8317 7.37322C44.8317 7.30191 44.8317 7.21211 44.8396 7.13023L44.7445 7.03516C44.4485 7.04308 43.92 7.05365 42.8788 7.05365C41.8377 7.05365 41.2405 7.04572 40.9551 7.03516L40.8652 7.12231C40.8811 7.45773 40.8943 8.96316 40.8943 10.4686C40.8943 11.974 40.8784 13.4768 40.8652 13.8122L40.9551 13.8994C41.2431 13.8888 41.8298 13.8809 42.8788 13.8809C43.9279 13.8809 44.4749 13.8915 44.7709 13.8994L44.866 13.8043C44.8607 13.7198 44.8581 13.6326 44.8581 13.5613C44.8581 13.4927 44.8581 13.4002 44.866 13.3184V13.3104Z" fill="#1C1C1C"/>
<path d="M69.9701 10.4634C69.9701 8.95799 69.9833 7.45256 69.9992 7.11714L69.9094 7.02998C69.7904 7.0379 69.6953 7.04319 69.587 7.04319C69.4786 7.04319 69.4046 7.0379 69.2831 7.02998L69.1959 7.11714C69.2117 7.45256 69.2249 8.95799 69.2249 10.4634C69.2249 11.7708 69.2197 12.1352 69.0056 12.5631C68.7149 13.1336 68.1098 13.3607 67.465 13.3607C66.8969 13.3607 66.445 13.1943 66.1913 12.9672C65.7262 12.5288 65.7077 11.953 65.7077 10.4238C65.7077 8.8946 65.721 7.44992 65.7368 7.1145L65.6496 7.02734C65.5281 7.03527 65.4012 7.04055 65.2955 7.04055C65.1898 7.04055 65.0603 7.03527 64.9388 7.02734L64.8516 7.1145C64.8674 7.44992 64.8806 9.12966 64.8806 10.6325C64.8806 12.1352 64.9071 12.9566 65.75 13.5746C66.1438 13.8625 66.733 14.0289 67.3646 14.0289C68.3793 14.0289 69.3254 13.6248 69.7165 12.7506C69.949 12.2382 69.9701 11.681 69.9701 10.4608V10.4634Z" fill="#1C1C1C"/>
<path d="M37.8941 7.71931L37.9892 7.62423C37.9839 7.53971 37.9813 7.44464 37.9813 7.37333C37.9813 7.30202 37.9839 7.20694 37.9892 7.12242L37.8941 7.02734C37.5981 7.03527 36.557 7.04583 35.5132 7.04583C34.4694 7.04583 33.4123 7.03791 33.127 7.02734L33.0371 7.11714C33.0424 7.20166 33.045 7.29938 33.045 7.37333C33.045 7.44728 33.045 7.54236 33.0371 7.62687L33.1296 7.71931C33.3833 7.71139 34.2051 7.70082 35.1036 7.70082V10.4634C35.1036 11.9689 35.0877 13.4716 35.0745 13.8071L35.1643 13.8942C35.2833 13.8863 35.4048 13.8837 35.5105 13.8837C35.6189 13.8837 35.7457 13.8863 35.8646 13.8942L35.9545 13.8071C35.9412 13.4716 35.9254 11.9662 35.9254 10.4634V7.70082C36.8186 7.70346 37.6377 7.71139 37.8941 7.71931V7.71931Z" fill="#1C1C1C"/>
<path d="M61.0412 11.3178C60.9118 10.9401 60.3251 9.19168 60.156 8.67402C59.9235 7.96884 59.86 7.77869 59.6539 7.09992L59.5509 7.03125C59.4663 7.03653 59.2945 7.04446 59.1201 7.04446C58.9404 7.04446 58.7449 7.03653 58.6709 7.03125L58.5678 7.09992C58.4172 7.60701 58.1635 8.33068 58.0076 8.8008C57.8517 9.27355 57.2598 11.0537 57.096 11.5528C56.9295 12.0494 56.6573 12.8998 56.3164 13.8242L56.3904 13.9008C56.5093 13.8929 56.6177 13.8902 56.7445 13.8902C56.8449 13.8902 56.9797 13.8902 57.1012 13.9008L57.1884 13.8374C57.3734 13.1798 57.5954 12.3901 57.8464 11.5819C58.3221 11.574 59.7226 11.566 60.2908 11.5792C60.518 12.2871 60.8034 13.1824 60.9752 13.8268L61.0571 13.9008C61.1575 13.8929 61.3108 13.8876 61.4535 13.8876C61.5962 13.8876 61.7389 13.8929 61.8208 13.9008L61.8974 13.8268C61.7204 13.3329 61.1787 11.6981 61.0465 11.3204M59.0276 10.9718C58.6128 10.9718 58.2798 10.9639 58.042 10.9586L59.0435 7.72851L60.0847 10.9454C59.7253 10.9586 59.4716 10.9718 59.0276 10.9718Z" fill="#1C1C1C"/>
<path d="M51.3123 10.7365C52.7287 10.5225 53.2863 9.65098 53.2863 8.81375C53.2863 8.09273 52.8846 7.45886 52.2848 7.21588C51.7827 7.01252 51.3203 7.00195 50.7891 7.00195C50.3874 7.00195 49.1137 7.03365 48.8574 7.02837L48.7676 7.11552C48.7834 7.45094 48.7966 8.95637 48.7966 10.4618C48.7966 11.9672 48.7808 13.47 48.7676 13.8054L48.8574 13.8926C48.9763 13.8847 49.0926 13.882 49.1983 13.882C49.304 13.882 49.4203 13.8847 49.5392 13.8926L49.629 13.8054C49.6158 13.4964 49.6026 12.2023 49.6 10.8289C49.888 10.8289 50.139 10.8289 50.3901 10.821C50.7891 11.2938 51.4418 12.1099 51.6638 12.3951C51.9518 12.7596 52.7023 13.6919 52.8027 13.8213L52.9058 13.8952C53.0538 13.89 53.2387 13.8847 53.3761 13.8847C53.5136 13.8847 53.6721 13.8847 53.8254 13.8952L53.865 13.816C53.2969 13.1425 52.6177 12.3396 52.298 11.9514C52.0364 11.6345 51.5872 11.0798 51.3176 10.7391M49.6026 10.2003V7.66223C49.925 7.64902 50.3425 7.6411 50.5909 7.6411C51.2621 7.6411 51.7299 7.64638 52.0998 7.95803C52.2901 8.1165 52.4671 8.42815 52.4671 8.84545C52.4671 9.71966 51.8038 9.97056 51.4524 10.0736C51.0745 10.1845 50.4826 10.2003 49.6026 10.2003Z" fill="#1C1C1C"/>
</svg>
