<svg width="85" height="22" viewBox="0 0 85 22" fill="none" xmlns="http://www.w3.org/2000/svg">
<path d="M49.2022 9.36523L49.9659 20.8356H47.7382L47.326 11.177H47.1146L44.4879 20.8356H41.8507L39.3085 11.177H39.0971L38.5316 20.8356H36.6211L37.3848 9.36523H41.0738L43.2221 18.1443H43.4282L45.6638 9.36523H49.2048H49.2022Z" fill="#1C1C1C"/>
<path d="M55.2926 21.015C53.2103 20.9833 51.3262 20.6214 51.3262 18.2312C51.3262 15.5109 54.5078 15.6245 56.9336 15.6245C56.9336 14.2801 56.9178 13.6753 54.8037 13.6753C53.6569 13.6753 52.4915 13.8549 51.9022 13.987V12.3653C52.6237 12.2016 54.0189 12.0537 54.9359 12.0537C56.9838 12.0352 59.2643 12.265 59.2643 14.9193V20.801C57.7872 20.9648 56.5742 21.0493 55.2952 21.0123L55.2926 21.015ZM56.931 17.1167C56.6377 17.1008 55.8343 17.1008 55.5859 17.1008C54.6188 17.1008 53.7679 17.1669 53.7679 18.3131C53.7679 19.4593 54.6188 19.5227 55.5859 19.5227C56.0774 19.5227 56.4712 19.491 56.931 19.425V17.1167V17.1167Z" fill="#1C1C1C"/>
<path d="M65.2984 21.016C62.4444 21.016 60.3965 19.4762 60.3965 16.3782C60.3965 13.576 62.5924 12.0547 65.198 12.0547C66.0171 12.0547 66.8865 12.1181 67.6899 12.3003V13.8401C67.1323 13.774 66.6408 13.7239 66.1017 13.7239C63.919 13.7239 62.8382 14.4132 62.8382 16.4944C62.8382 18.5756 63.919 19.3124 66.1017 19.3124C66.8707 19.3124 67.2829 19.2464 67.7559 19.183V20.7386C66.9209 20.9526 66.1176 21.016 65.2984 21.016V21.016Z" fill="#1C1C1C"/>
<path d="M71.7421 14.6259V20.8352H69.4141V12.2331H71.4779C71.4779 12.2331 71.462 13.0201 71.4779 13.0201C73.0211 12.101 74.0358 12.1671 74.8392 12.1671V14.066C73.9856 14.066 72.5772 14.0317 71.7395 14.6233L71.7421 14.6259Z" fill="#1C1C1C"/>
<path d="M79.6487 21.0142C76.7287 21.0142 75.0586 19.1945 75.0586 16.527C75.0586 13.8595 76.7472 12.0371 79.6487 12.0371C82.5502 12.0371 84.2044 13.7908 84.2044 16.527C84.2044 19.2632 82.3018 21.0142 79.6487 21.0142ZM79.6328 13.6587C77.9918 13.6587 77.4686 14.6571 77.4686 16.5587C77.4686 18.4603 77.9918 19.4454 79.6328 19.4454C81.2738 19.4454 81.7785 18.4444 81.7785 16.5587C81.7785 14.6729 81.2553 13.6587 79.6328 13.6587Z" fill="#1C1C1C"/>
<path d="M20.1096 16.4153C20.1096 13.8719 18.0484 11.8145 15.5063 11.8145C12.9642 11.8145 10.9004 13.8745 10.9004 16.4153H20.1096Z" fill="#1C1C1C"/>
<path d="M20.1096 16.416C20.1096 18.9568 18.0484 21.0168 15.5063 21.0168C12.9642 21.0168 10.9004 18.9568 10.9004 16.416H20.1096Z" fill="#1C1C1C"/>
<path d="M25.5688 16.4148C25.5688 10.8605 21.0607 6.35742 15.5061 6.35742C9.95151 6.35742 5.44336 10.8605 5.44336 16.4148H10.0678C10.0678 13.4118 12.5042 10.9794 15.5061 10.9794C18.508 10.9794 20.9444 13.4118 20.9444 16.4148H25.5688Z" fill="#1C1C1C"/>
<path d="M31.0101 16.4153C31.0101 7.85547 24.0681 0.919922 15.5037 0.919922C6.93928 0.919922 0 7.85547 0 16.4153H4.60593C4.60593 10.3989 9.48403 5.52073 15.5063 5.52073C21.5287 5.52073 26.4041 10.3989 26.4041 16.4153H31.0101Z" fill="#1C1C1C"/>
</svg>
