<svg width="91" height="22" viewBox="0 0 91 22" fill="none" xmlns="http://www.w3.org/2000/svg">
<g clip-path="url(#clip0_2165_15927)">
<path d="M0.000234375 1.74023C0.670234 1.74023 1.35023 1.74023 2.02023 1.74023C2.20023 1.74023 2.31023 1.80023 2.42023 1.94023C4.86023 5.20023 7.31023 8.46023 9.75023 11.7202C9.79023 11.7702 9.81023 11.8302 9.88023 11.8602C9.92023 11.7902 9.90023 11.7202 9.90023 11.6502C9.90023 8.51023 9.90023 5.38023 9.90023 2.24023C9.90023 2.19023 9.90023 2.14023 9.90023 2.10023C9.90023 1.86023 10.0236 1.74023 10.2702 1.74023C10.9102 1.74023 11.5602 1.74023 12.2002 1.74023C12.2402 1.74023 12.2702 1.74023 12.3102 1.74023C12.5402 1.74023 12.5502 1.75023 12.5502 1.97023C12.5502 2.16023 12.5502 2.34023 12.5502 2.53023C12.5502 7.06023 12.5502 11.5902 12.5502 16.1202C12.5502 16.1902 12.5502 16.2502 12.5502 16.3202C12.5502 16.4202 12.5102 16.4702 12.4002 16.4702C11.7302 16.4702 11.0502 16.4702 10.3802 16.4702C10.2602 16.4702 10.2002 16.3802 10.1402 16.3002C9.17023 15.0102 8.21023 13.7302 7.24023 12.4402C5.76023 10.4702 4.29023 8.50023 2.81023 6.54023C2.76023 6.48023 2.73023 6.41023 2.65023 6.36023C2.61023 6.44023 2.63023 6.51023 2.63023 6.59023C2.63023 9.79023 2.63023 12.9802 2.63023 16.1802C2.63023 16.4802 2.63023 16.4802 2.33023 16.4802C1.55023 16.4802 0.770234 16.4802 -0.00976562 16.4802V1.74023H0.000234375Z" fill="#1C1C1C"/>
<path d="M54.5605 21.5302C54.5605 20.7702 54.5605 20.0102 54.5605 19.2502C54.5605 19.1102 54.6405 19.0902 54.7605 19.0802C55.3505 19.0102 55.9005 18.8402 56.3405 18.4202C56.7905 17.9902 57.0105 17.4602 57.0105 16.8402C57.0205 15.6302 57.0105 14.4202 57.0105 13.2102C57.0105 11.1402 57.0105 9.07016 57.0105 7.00016C57.0105 6.77349 57.1272 6.66016 57.3605 6.66016C58.0105 6.66016 58.6705 6.66016 59.3205 6.66016C59.4905 6.66016 59.5505 6.71016 59.5505 6.88016C59.5505 10.2702 59.5805 13.6702 59.5405 17.0602C59.5205 18.9402 58.5505 20.2602 56.8405 21.0202C56.2805 21.2702 55.6805 21.4202 55.0705 21.5002C55.0305 21.5002 55.0005 21.5202 54.9705 21.5302H54.5705H54.5605Z" fill="#1C1C1C"/>
<path d="M69.0299 7.27008C69.0299 7.10008 69.0299 6.97008 69.0299 6.84008C69.0299 6.72008 69.0699 6.67008 69.1999 6.67008C69.9299 6.67008 70.6599 6.67008 71.3999 6.67008C71.5299 6.67008 71.5799 6.73008 71.5799 6.85008C71.5799 6.90008 71.5799 6.96008 71.5799 7.01008C71.5799 10.0701 71.5799 13.1301 71.5799 16.1801C71.5799 16.3667 71.4833 16.4601 71.2899 16.4601C70.6099 16.4601 69.9299 16.4601 69.2499 16.4601C69.0799 16.4601 69.0199 16.4001 69.0299 16.2401C69.0299 16.1301 69.0299 16.0101 69.0299 15.9001C68.9499 15.8701 68.9099 15.9301 68.8699 15.9701C67.8999 16.6801 66.8199 16.8901 65.6399 16.7301C63.4399 16.4301 61.7299 14.6301 61.3499 12.5901C60.9599 10.5101 61.7399 8.42008 63.5899 7.19008C64.4599 6.61008 65.4299 6.33008 66.4799 6.33008C67.3599 6.33008 68.1599 6.62008 68.8799 7.15008C68.9199 7.18008 68.9599 7.20008 69.0399 7.26008L69.0299 7.27008ZM66.7799 14.4801C67.4799 14.4601 68.2299 14.0201 68.6999 13.1301C69.1599 12.2601 69.1499 11.3401 68.8799 10.4201C68.5899 9.43008 67.6599 8.72008 66.6699 8.66008C65.3999 8.59008 64.5099 9.23008 64.0899 10.2001C63.8399 10.7801 63.8099 11.3901 63.8599 12.0201C63.9699 13.4401 65.0699 14.4801 66.7899 14.4801H66.7799Z" fill="#1C1C1C"/>
<path d="M21.9406 7.22886C21.9406 7.08886 21.9406 6.95886 21.9406 6.82886C21.9406 6.71886 21.9806 6.65886 22.1006 6.65886C22.8406 6.65886 23.5906 6.65886 24.3306 6.65886C24.4406 6.65886 24.4806 6.70886 24.4806 6.80886C24.4806 6.84886 24.4806 6.88886 24.4806 6.93886C24.4806 10.0189 24.4806 13.0889 24.4806 16.1689C24.4806 16.3622 24.3806 16.4589 24.1806 16.4589C23.5106 16.4589 22.8306 16.4589 22.1606 16.4589C21.9806 16.4589 21.9306 16.3989 21.9306 16.2289C21.9306 16.1289 21.9806 15.9689 21.9006 15.9289C21.8106 15.8789 21.7206 16.0189 21.6406 16.0789C20.6906 16.7089 19.6406 16.8889 18.5206 16.7389C16.3306 16.4289 14.5906 14.5889 14.2506 12.5189C13.9906 10.9689 14.3106 9.53887 15.2906 8.29887C16.1906 7.16887 17.3806 6.52886 18.8306 6.36886C19.9406 6.24886 20.9406 6.52886 21.8306 7.18886C21.8506 7.19886 21.8706 7.21886 21.8906 7.22886C21.8906 7.22886 21.9006 7.22886 21.9406 7.22886V7.22886ZM16.7606 11.6289C16.7606 11.8289 16.7806 12.1289 16.8406 12.4289C17.0506 13.4489 17.8706 14.2589 18.8606 14.4389C19.9906 14.6389 20.9906 14.2189 21.5306 13.2789C22.1406 12.2189 22.1406 11.0989 21.6106 10.0189C20.8106 8.37887 18.6306 8.29886 17.5806 9.35886C16.9706 9.96886 16.7406 10.7089 16.7506 11.6389L16.7606 11.6289Z" fill="#1C1C1C"/>
<path d="M40.7205 7.26956C40.7205 7.09956 40.7205 6.96956 40.7205 6.83956C40.7205 6.71956 40.7605 6.66956 40.8905 6.66956C41.6205 6.66956 42.3505 6.66956 43.0905 6.66956C43.2805 6.66956 43.2605 6.78956 43.2605 6.90956C43.2605 8.54956 43.2605 10.1996 43.2605 11.8396C43.2605 13.2996 43.2605 14.7696 43.2605 16.2296C43.2605 16.4796 43.2605 16.4796 43.0105 16.4796C42.3205 16.4796 41.6305 16.4796 40.9405 16.4796C40.7805 16.4796 40.7105 16.4296 40.7205 16.2596C40.7205 16.1496 40.7205 16.0296 40.7205 15.9196C40.6505 15.8896 40.6205 15.9396 40.5905 15.9696C39.4405 16.8096 38.1605 17.0096 36.8105 16.6296C34.7105 16.0396 33.4405 14.6196 33.0505 12.4996C32.7305 10.7696 33.2005 9.19956 34.4405 7.91956C35.4905 6.83956 36.8005 6.31956 38.3205 6.35956C39.1405 6.37956 39.8805 6.65956 40.5505 7.13956C40.6005 7.16956 40.6505 7.20956 40.7405 7.27956L40.7205 7.26956ZM40.7605 11.7496C40.7605 11.3096 40.7305 10.9696 40.6505 10.6496C40.3705 9.51956 39.4605 8.72956 38.3905 8.66956C37.1205 8.59956 36.1205 9.22956 35.7205 10.3796C35.4805 11.0496 35.4905 11.7496 35.6305 12.4396C36.0005 14.2696 38.2005 15.1196 39.6905 13.9996C40.4605 13.4196 40.7505 12.5896 40.7705 11.7596L40.7605 11.7496Z" fill="#1C1C1C"/>
<path d="M76.5306 16.4995C76.0106 16.4995 75.5006 16.4995 74.9806 16.4995C74.8806 16.4995 74.7806 16.4995 74.7306 16.3995C74.6806 16.2995 74.7406 16.2295 74.7906 16.1495C76.1306 14.0695 77.4806 11.9895 78.8206 9.90947C79.1306 9.42947 79.4406 8.93947 79.7606 8.45947C79.8506 8.31947 79.8506 8.20947 79.7606 8.06947C79.1706 7.15947 78.5806 6.24947 77.9906 5.32947C76.9206 3.67947 75.8606 2.01947 74.7906 0.369469C74.7406 0.289469 74.6606 0.199469 74.7306 0.0894691C74.7906 -0.0205309 74.9006 -0.000530903 75.0006 -0.000530903C76.0206 -0.000530903 77.0406 -0.000530903 78.0606 -0.000530903C78.2906 -0.000530903 78.4506 0.0794691 78.5706 0.269469C79.8506 2.25947 81.1306 4.24947 82.4106 6.22947C82.7306 6.72947 83.0506 7.22947 83.3806 7.71947C83.6206 8.07947 83.6206 8.42947 83.3806 8.78947C81.8006 11.2295 80.2106 13.6695 78.6406 16.1195C78.4706 16.3895 78.2606 16.4995 77.9506 16.4895C77.4806 16.4695 77.0006 16.4895 76.5306 16.4895V16.4995Z" fill="#1C1C1C"/>
<path d="M48.1405 7.12935C48.4105 6.91935 48.6905 6.73935 49.0005 6.60935C50.0305 6.18935 51.0605 6.23935 52.0605 6.69935C53.4805 7.34935 54.2605 8.46935 54.4205 10.0194C54.4705 10.5194 54.4905 11.0094 54.4905 11.5094C54.4905 13.0794 54.4905 14.6393 54.4905 16.2093C54.4905 16.4693 54.4905 16.4693 54.2305 16.4693C53.5505 16.4693 52.8605 16.4693 52.1805 16.4693C52.0105 16.4693 51.9505 16.4193 51.9505 16.2393C51.9505 14.5493 51.9505 12.8594 51.9505 11.1694C51.9505 10.6994 51.9005 10.2393 51.7705 9.77935C51.5805 9.10935 51.0305 8.67935 50.3305 8.65935C50.1005 8.65935 49.8605 8.65935 49.6305 8.70935C48.7405 8.90935 48.3205 9.36935 48.1805 10.3394C48.1205 10.7194 48.1005 11.0993 48.1005 11.4893C48.1005 13.0593 48.1005 14.6294 48.1005 16.1994C48.1005 16.4694 48.1005 16.4693 47.8305 16.4693C47.1505 16.4693 46.4605 16.4693 45.7805 16.4693C45.6205 16.4693 45.5605 16.4193 45.5605 16.2493C45.5605 13.1293 45.5605 9.99935 45.5605 6.87935C45.5605 6.71935 45.6105 6.65935 45.7805 6.65935C46.4805 6.65935 47.1905 6.65935 47.8905 6.65935C48.0505 6.65935 48.1205 6.70935 48.1105 6.87935C48.1105 6.95935 48.0905 7.04935 48.1405 7.13935V7.12935Z" fill="#1C1C1C"/>
<path d="M29.3408 7.27986C29.6908 7.00986 30.0308 6.81986 30.4108 6.70986C30.9508 6.54986 31.4908 6.58986 32.0408 6.63986C32.1508 6.64986 32.1908 6.70986 32.1908 6.81986C32.1908 7.46986 32.1908 8.12986 32.1908 8.77986C32.1908 8.92986 32.1108 8.93986 31.9908 8.92986C31.5908 8.89986 31.1908 8.87986 30.7908 8.93986C30.0508 9.05986 29.6608 9.40986 29.4908 10.1499C29.3908 10.5699 29.3408 10.9999 29.3408 11.4299C29.3408 13.0199 29.3408 14.6099 29.3408 16.1999C29.3408 16.3799 29.2508 16.4699 29.0708 16.4699C28.3908 16.4699 27.7008 16.4699 27.0208 16.4699C26.8608 16.4699 26.8008 16.4299 26.8008 16.2599C26.8008 13.1299 26.8008 9.99986 26.8008 6.86986C26.8008 6.70986 26.8508 6.65986 27.0108 6.65986C27.7208 6.65986 28.4308 6.65986 29.1408 6.65986C29.3008 6.65986 29.3608 6.70986 29.3508 6.86986C29.3508 6.98986 29.3508 7.10986 29.3508 7.27986H29.3408Z" fill="#1C1C1C"/>
<path d="M87.1196 16.53C86.6296 16.53 86.1396 16.53 85.6396 16.53C85.3596 16.53 85.1696 16.43 85.0096 16.19C84.2896 15.06 83.5496 13.93 82.8296 12.8C82.5496 12.36 82.5296 11.9 82.8096 11.46C83.2396 10.77 83.6796 10.1 84.1196 9.41999C84.2396 9.23999 84.3796 9.24999 84.4996 9.43999C85.2796 10.65 86.0596 11.86 86.8496 13.07C87.5196 14.11 88.1996 15.15 88.8696 16.2C88.9196 16.27 88.9996 16.34 88.9396 16.44C88.8796 16.54 88.7796 16.53 88.6796 16.53C88.1596 16.53 87.6396 16.53 87.1096 16.53H87.1196Z" fill="#1C1C1C"/>
<path d="M87.1008 0.000330579C87.6408 0.000330579 88.1808 0.000330579 88.7208 0.000330579C88.8008 0.000330579 88.8908 -0.00966942 88.9508 0.0803306C89.0008 0.170331 88.9408 0.240331 88.8908 0.310331C87.4308 2.56033 85.9808 4.81033 84.5208 7.06033C84.3708 7.28033 84.2508 7.29033 84.1008 7.06033C83.6808 6.41033 83.2608 5.76033 82.8408 5.11033C82.5308 4.63033 82.5408 4.15033 82.8508 3.67033C83.5908 2.52033 84.3408 1.37033 85.0808 0.230331C85.1808 0.0703306 85.3208 0.000330579 85.5208 0.000330579C86.0508 0.000330579 86.5808 0.000330579 87.1108 0.000330579H87.1008Z" fill="#1C1C1C"/>
<path d="M56.7094 3.36859C56.7094 2.49859 57.4094 1.80859 58.2994 1.80859C59.1994 1.80859 59.8894 2.49859 59.8894 3.38859C59.8894 4.23859 59.1594 4.93859 58.2894 4.93859C57.3994 4.93859 56.6594 4.15859 56.7094 3.36859V3.36859Z" fill="#1C1C1C"/>
<path d="M88.7793 1.91906C88.7793 1.54906 89.0393 1.28906 89.3993 1.28906C89.7593 1.28906 90.0393 1.56906 90.0393 1.91906C90.0393 2.27906 89.7493 2.56906 89.3793 2.55906C89.0293 2.55906 88.7793 2.27906 88.7793 1.90906V1.91906ZM88.9393 1.93906C88.9393 2.18906 89.1493 2.39906 89.3993 2.39906C89.6493 2.39906 89.8693 2.17906 89.8693 1.92906C89.8693 1.67906 89.6593 1.45906 89.3993 1.45906C89.1393 1.45906 88.9393 1.66906 88.9393 1.93906Z" fill="#1C1C1C"/>
<path d="M89.0293 1.95851C89.0293 1.77851 89.1093 1.66851 89.2393 1.59851C89.3593 1.53851 89.4793 1.53851 89.5993 1.60851C89.6493 1.63851 89.7093 1.67851 89.6593 1.74851C89.6193 1.80851 89.5793 1.80851 89.5193 1.76851C89.4293 1.70851 89.3293 1.71851 89.2593 1.79851C89.1993 1.87851 89.1993 1.96851 89.2593 2.04851C89.3293 2.13851 89.4193 2.13851 89.5193 2.08851C89.5793 2.05851 89.6393 2.04851 89.6693 2.11851C89.6993 2.18851 89.6493 2.21851 89.5993 2.24851C89.4793 2.31851 89.3493 2.33851 89.2293 2.26851C89.0993 2.19851 89.0393 2.07851 89.0293 1.95851V1.95851Z" fill="#1C1C1C"/>
</g>
<defs>
<clipPath id="clip0_2165_15927">
<rect width="90.04" height="21.53" fill="white"/>
</clipPath>
</defs>
</svg>
