<svg width="82" height="21" viewBox="0 0 82 21" fill="none" xmlns="http://www.w3.org/2000/svg">
<g clip-path="url(#clip0_2165_15943)">
<path d="M26.653 5.7832C28.096 5.86399 29.1648 6.56751 29.548 7.68617C29.9782 8.9451 29.6589 10.3521 28.7447 11.1342C28.5083 11.3362 28.2293 11.4899 27.9313 11.6907C28.3783 12.2416 28.8298 12.7847 29.2657 13.3401C29.7194 13.918 29.7082 14.5216 29.2578 14.8795C28.7985 15.2442 28.1027 15.1443 27.668 14.6147C27.0877 13.909 26.5309 13.183 25.9662 12.4638C25.713 12.1418 24.5389 11.8826 24.1815 12.0711C24.0291 12.1519 24.0694 12.2932 24.0683 12.4167C24.0638 12.9395 24.0762 13.4635 24.0638 13.9864C24.047 14.6518 23.6448 15.0781 23.0466 15.0882C22.4214 15.0983 22.0102 14.6708 22.008 13.9673C22.0013 11.6133 22.0046 9.25927 22.0057 6.90524C22.0057 6.31729 22.222 5.89204 22.855 5.78433C23.2818 5.97844 23.7333 5.87409 24.168 5.86399C24.996 5.84604 25.8306 5.98517 26.653 5.78433V5.7832ZM24.084 10.241C24.8671 10.4363 25.6503 10.4273 26.4334 10.2478C26.4849 10.2265 26.5353 10.2018 26.588 10.1849C27.3465 9.928 27.7039 9.46348 27.6411 8.81606C27.5739 8.12826 27.1426 7.71871 26.3135 7.65027C25.6671 7.59753 25.0139 7.62783 24.3641 7.60651C24.0997 7.59753 24.0605 7.73442 24.0638 7.9521C24.0762 8.71508 24.0784 9.47806 24.084 10.2422V10.241Z" fill="#1C1C1C"/>
<path d="M50.0649 10.5882C49.8878 10.0878 49.6324 9.6816 49.0285 9.63784C48.242 9.58062 47.7368 10.062 47.7211 10.9562C47.702 12.0401 47.7188 13.124 47.7155 14.2079C47.7132 14.9058 47.5149 15.082 46.7396 15.0898C45.9139 15.0988 45.6854 14.9204 45.6809 14.2315C45.6731 13.1476 45.6854 12.0637 45.6764 10.9798C45.6697 10.2494 45.3784 9.80727 44.8496 9.67599C44.0396 9.47403 43.392 9.93182 43.3562 10.8036C43.3114 11.8673 43.3405 12.9333 43.3282 13.9992C43.3237 14.3582 43.4525 14.8149 42.9876 14.9686C42.4621 15.1425 41.9019 15.2536 41.4269 14.797C41.4314 12.8435 41.437 10.8889 41.4415 8.93545C41.4415 8.80641 41.456 8.67289 41.3496 8.56967C41.4706 8.08495 41.8112 7.85493 42.2806 7.8381C42.9024 7.81566 43.206 8.22071 43.3797 8.79632C44.1382 7.91103 45.0412 7.57218 46.1503 7.8841C46.5581 7.99855 46.9223 8.19827 47.1564 8.5461C47.3536 8.84008 47.4634 8.78173 47.6886 8.57528C48.6162 7.72702 49.6828 7.55422 50.8491 8.00753C51.0709 8.09392 51.2928 8.205 51.4171 8.43166L51.5359 8.55957L51.5292 8.55171C51.5617 8.59435 51.5953 8.63699 51.6278 8.67962L51.6311 8.68524C51.6367 8.77612 51.6591 8.85691 51.7521 8.89954V8.89618C51.7488 8.99043 51.7678 9.0757 51.8597 9.1262L51.8843 9.14751L51.8742 9.17781C52.0255 10.8205 51.9571 12.4676 51.9717 14.1125C51.9739 14.3728 51.9717 14.6309 51.8765 14.8777L51.8888 14.8688C51.8417 14.9002 51.7947 14.9305 51.7476 14.9619C51.6883 15.0382 51.611 15.064 51.518 15.0483C51.118 14.8733 50.6732 15.0113 50.2699 14.8643L50.2766 14.871C50.243 14.8261 50.2094 14.7812 50.1758 14.7364C50.0873 14.6825 50.0693 14.6006 50.0861 14.5052C50.1164 14.4211 50.1735 14.3369 50.1747 14.2528C50.1814 13.0679 50.1803 11.8819 50.1791 10.697C50.1791 10.6286 50.1836 10.54 50.0649 10.5882V10.5882Z" fill="#1C1C1C"/>
<path d="M70.0602 12.1731C69.5011 12.1731 68.9398 12.2 68.383 12.1653C67.8587 12.1327 67.927 12.3627 68.0962 12.6848C68.4659 13.3872 69.3499 13.7024 70.2361 13.4421C70.5061 13.3625 70.7481 13.2278 70.9878 13.0797C71.4472 12.797 71.9245 12.8677 72.1765 13.2379C72.4264 13.606 72.3334 14.1154 71.9133 14.4194C70.6932 15.3013 69.36 15.4079 67.9943 14.848C66.6577 14.2994 65.9944 13.2121 65.8846 11.804C65.665 8.99551 68.1545 7.04654 70.7055 8.00476C71.9402 8.46816 72.8768 9.90212 72.8062 11.2205C72.7748 11.8062 72.4454 12.1473 71.8494 12.1664C71.2534 12.1855 70.6562 12.1709 70.0602 12.1709V12.1742V12.1731ZM67.917 10.9007C68.755 10.9007 69.5852 10.8794 70.4131 10.9086C70.8657 10.9243 70.8568 10.7358 70.7358 10.4093C70.4926 9.74952 69.9549 9.37813 69.2883 9.42637C68.5477 9.48023 68.0839 9.96607 67.9158 10.9007H67.917Z" fill="#1C1C1C"/>
<path d="M36.2837 12.1737C35.6866 12.1737 35.0894 12.1872 34.4934 12.1693C34.1472 12.1592 34.1259 12.2747 34.2492 12.5608C34.5842 13.3395 35.4748 13.7143 36.4238 13.4529C36.733 13.3676 36.9974 13.1959 37.2741 13.04C37.6719 12.8167 38.0696 12.8223 38.3743 13.2105C38.6522 13.5639 38.5905 14.0554 38.204 14.3572C37.068 15.2459 35.7885 15.3906 34.4531 14.9463C33.1792 14.5222 32.4084 13.592 32.1653 12.2815C31.762 10.1013 32.9697 8.2152 34.9707 7.82137C37.0814 7.40622 39.0342 9.01746 39.0006 11.1471C38.9905 11.8259 38.6891 12.1446 38.0203 12.1704C37.7223 12.1816 37.4231 12.1737 37.1251 12.1737C36.845 12.1737 36.5649 12.1737 36.286 12.1737H36.2837ZM35.5656 10.9014C35.9555 10.9014 36.3465 10.889 36.7364 10.9058C37.0075 10.9171 37.0971 10.861 37.0086 10.5647C36.8081 9.89153 36.3117 9.44495 35.6664 9.41242C35.0491 9.381 34.5147 9.75351 34.2436 10.3819C34.0957 10.7252 34.0666 10.9518 34.564 10.907C34.8956 10.8778 35.2328 10.9014 35.5667 10.9014H35.5656Z" fill="#1C1C1C"/>
<path d="M79.2837 12.1744C78.6866 12.1744 78.0894 12.1879 77.4934 12.1688C77.1506 12.1587 77.1203 12.2787 77.2368 12.5637C77.5528 13.3301 78.467 13.7105 79.4148 13.4513C79.724 13.3671 79.9873 13.1898 80.264 13.0384C80.6629 12.8196 81.0584 12.8297 81.362 13.2145C81.6421 13.5713 81.5637 14.0213 81.1895 14.3601C80.2114 15.2443 78.3325 15.4361 77.0229 14.7854C75.74 14.1469 74.9446 12.7175 75.0768 11.2824C75.3053 8.79483 77.1965 7.34404 79.5056 7.88373C80.9956 8.23269 82.1182 9.77997 81.9894 11.3082C81.9457 11.8311 81.6275 12.1475 81.0729 12.1665C80.4769 12.1867 79.8798 12.171 79.2826 12.171V12.1744H79.2837ZM77.1304 10.902C78.0076 10.902 78.8804 10.8942 79.752 10.9065C80.0232 10.911 80.0512 10.8257 79.9918 10.5811C79.8181 9.87422 79.2445 9.39512 78.551 9.41531C77.7858 9.43775 77.2682 9.96511 77.1304 10.902Z" fill="#1C1C1C"/>
<path d="M62.4487 15.133C60.8891 15.1307 60.2483 14.4956 60.2404 13.0505C60.236 12.0608 60.2326 11.0712 60.2449 10.0816C60.2483 9.83023 60.208 9.6709 59.9267 9.60133C59.5133 9.49923 59.3094 9.1873 59.3106 8.77327C59.3106 8.35587 59.529 8.03273 59.9357 7.95082C60.2572 7.88574 60.2393 7.70846 60.2427 7.47844C60.2573 6.47086 60.6046 5.9637 61.2712 6.01082C61.8224 6.05009 62.4139 6.45178 62.2582 7.47395C62.2067 7.81169 62.3277 7.96316 62.6828 7.91043C62.8285 7.88911 62.9808 7.89921 63.1298 7.90818C63.643 7.9396 63.9768 8.2706 63.9892 8.75195C64.0015 9.23779 63.6911 9.56879 63.1892 9.66865C62.8822 9.72924 62.4587 9.45771 62.2896 9.83023C62.1697 10.0939 62.2605 10.4541 62.2593 10.7716C62.2582 11.3136 62.2548 11.8544 62.2593 12.3963C62.2661 13.0493 62.4722 13.2726 63.1041 13.3265C63.8323 13.3893 63.9634 13.5172 63.9724 14.1804C63.9813 14.83 63.8334 14.9849 63.1074 15.0713C62.8486 15.1015 62.5887 15.1195 62.4475 15.1318L62.4487 15.133Z" fill="#1C1C1C"/>
<path d="M56.9972 11.6671C56.9972 12.5266 57.0005 13.385 56.9972 14.2445C56.9938 14.8548 56.8213 15.0366 56.2051 15.0759C56.0012 15.0894 55.7939 15.0894 55.5911 15.0647C55.1856 15.0153 54.9693 14.8111 54.9727 14.3623C54.9861 12.5322 54.9738 10.7022 54.9817 8.87216C54.9839 8.24382 55.3928 7.83091 55.9765 7.83203C56.5546 7.83203 56.9826 8.24606 56.9938 8.86767C57.0106 9.8012 56.9983 10.7347 56.9983 11.6694L56.9972 11.6671Z" fill="#1C1C1C"/>
<path d="M55.9518 7.22111C55.2718 7.21325 54.8337 6.82952 54.8359 6.24606C54.8382 5.64801 55.2998 5.27774 56.0235 5.29345C56.6901 5.30804 57.1002 5.66372 57.1069 6.23147C57.1136 6.83961 56.6599 7.23008 55.9518 7.22111V7.22111Z" fill="#1C1C1C"/>
<path d="M41.3503 8.56836C41.4567 8.67159 41.4421 8.80511 41.4421 8.93414C41.4377 10.8876 41.4321 12.8422 41.4276 14.7957C41.3906 14.7137 41.3223 14.6318 41.3223 14.551C41.3279 12.5572 41.3402 10.5622 41.3514 8.56836H41.3503Z" fill="#1C1C1C"/>
<path d="M51.8772 14.8777C51.9725 14.6297 51.9747 14.3728 51.9725 14.1124C51.9568 12.4675 52.0251 10.8204 51.875 9.17773C52.1092 9.55923 52.0968 9.98896 52.0991 10.4097C52.1069 11.6877 52.1047 12.9657 52.0991 14.2437C52.0991 14.476 52.154 14.7385 51.8772 14.8777V14.8777Z" fill="#1C1C1C"/>
<path d="M50.0645 10.588C50.1832 10.5398 50.1787 10.6284 50.1787 10.6968C50.1787 11.8817 50.181 13.0677 50.1742 14.2526C50.1742 14.3367 50.1171 14.4209 50.0857 14.505C50.079 13.199 50.0712 11.894 50.0645 10.588V10.588Z" fill="#1C1C1C"/>
<path d="M26.6535 5.7832C25.8311 5.98405 24.9965 5.84604 24.1685 5.86287C23.7327 5.87184 23.2823 5.97619 22.8555 5.7832C24.1215 5.7832 25.3875 5.7832 26.6535 5.7832Z" fill="#1C1C1C"/>
<path d="M50.2695 14.8652C50.6729 15.0122 51.1188 14.8742 51.5176 15.0492C51.0885 15.0784 50.6437 15.2075 50.2695 14.8652Z" fill="#1C1C1C"/>
<path d="M51.7519 8.89986C51.66 8.85834 51.6365 8.77643 51.6309 8.68555C51.7149 8.73267 51.7519 8.8056 51.7519 8.89986Z" fill="#1C1C1C"/>
<path d="M51.8608 9.1265C51.7689 9.07601 51.7499 8.99074 51.7521 8.89648C51.8361 8.95034 51.8686 9.02888 51.8608 9.1265Z" fill="#1C1C1C"/>
<path d="M51.5367 8.5576L51.418 8.42969L51.5367 8.5576Z" fill="#1C1C1C"/>
<path d="M51.6298 8.68065C51.5974 8.63801 51.5637 8.59537 51.5312 8.55273C51.5637 8.59537 51.5974 8.63801 51.6298 8.68065Z" fill="#1C1C1C"/>
<path d="M50.1758 14.7363C50.2094 14.7812 50.243 14.8261 50.2766 14.871C50.243 14.8261 50.2094 14.7812 50.1758 14.7363Z" fill="#1C1C1C"/>
<path d="M51.748 14.9623C51.7951 14.9309 51.8422 14.9006 51.8892 14.8691C51.8422 14.9006 51.7951 14.9309 51.748 14.9623Z" fill="#1C1C1C"/>
<path d="M24.084 10.2422C24.8671 10.2444 25.6502 10.2467 26.4334 10.2489C25.6491 10.4284 24.866 10.4374 24.084 10.2422Z" fill="#1C1C1C"/>
<path d="M13.6609 5.9242C13.3483 3.15278 11.0673 0.689912 8.34146 0.144603C7.16508 -0.0910245 5.98423 0.0380095 4.80561 0.0144468C4.18045 0.00210437 3.55754 0.0615722 2.9391 0.155823C1.756 0.335349 0.869801 0.886268 0.496722 2.09245C0.347715 2.57493 0.250244 3.06638 0.193105 3.56569C0.0149687 5.11409 0.0530608 6.66811 0.063144 8.22101C0.0698662 9.27011 0.102357 10.3215 0.330909 11.3526C0.487759 12.0617 0.775691 12.6845 1.40309 13.0704C1.65517 12.4836 1.8658 11.8665 2.0697 11.2696C2.17277 10.9655 2.28033 10.6525 2.39124 10.3439C2.56602 9.86142 2.73856 9.36885 2.90549 8.89198C3.08587 8.37697 3.27297 7.844 3.46343 7.32114C3.66733 6.76349 4.24543 6.49083 4.80897 6.68606C5.78144 7.0238 6.75615 7.37051 7.70509 7.71834C8.28656 7.9304 8.55096 8.48917 8.3493 9.076C7.97062 10.1767 7.57849 11.2931 7.19869 12.3737L6.74159 13.6696C6.75839 13.6696 6.77632 13.6696 6.79537 13.6696C6.85026 13.6853 6.90628 13.6999 6.96342 13.7156C8.38179 13.6012 9.7195 13.2533 10.8847 12.3882C11.0527 12.2637 11.1939 12.0965 11.3989 12.0213C11.4392 11.9686 11.4751 11.9103 11.5221 11.8643C13.2184 10.2395 13.9231 8.25804 13.6609 5.92533V5.9242Z" fill="#1C1C1C"/>
<path d="M4.14446 19.7064L4.71921 18.0728C5.19648 16.7173 5.69056 15.3148 6.17007 13.9336L6.77282 12.2247C7.1515 11.1453 7.54363 10.03 7.92231 8.93041C8.04555 8.57248 7.90214 8.26954 7.54811 8.1405C6.60141 7.79492 5.62894 7.44821 4.65871 7.1116C4.32148 6.9949 4.00218 7.14413 3.88118 7.47626C3.69184 7.99576 3.50586 8.5276 3.32548 9.0415C3.15855 9.51948 2.98489 10.0132 2.809 10.4979C2.6992 10.8008 2.59277 11.1128 2.4897 11.4146C2.28355 12.0194 2.07068 12.6443 1.81188 13.2458L1.8074 13.2693C1.79956 13.3131 1.79172 13.3625 1.77267 13.4163L1.58557 13.9515C1.08141 15.3933 0.577249 16.8363 0.0697276 18.277C-0.105048 18.774 0.0282744 19.0714 0.502185 19.2419C1.3559 19.5493 2.25666 19.8658 3.1776 20.1844C3.68848 20.3617 3.95848 20.2271 4.1411 19.7064H4.14446Z" fill="#1C1C1C"/>
<path d="M7.40932 14.2333C8.82769 14.1189 10.1654 13.7711 11.3306 12.906C11.4986 12.7814 11.6398 12.6142 11.8448 12.5391C12.6223 14.6227 13.4043 16.7052 14.1752 18.7922C14.3443 19.25 14.1494 19.6808 13.6923 19.857C12.7288 20.2295 11.7597 20.5897 10.7872 20.9397C10.2931 21.1181 9.88195 20.8949 9.68477 20.3664C9.10106 18.8023 8.52072 17.2381 7.93925 15.6729C7.76112 15.1938 7.58522 14.7136 7.4082 14.2333H7.40932Z" fill="#1C1C1C"/>
</g>
<defs>
<clipPath id="clip0_2165_15943">
<rect width="82" height="21" fill="white"/>
</clipPath>
</defs>
</svg>
