<svg width="57" height="19" viewBox="0 0 57 19" fill="none" xmlns="http://www.w3.org/2000/svg">
<path d="M0.792969 1.37508C0.803539 1.33283 0.819395 1.29321 0.827323 1.25095C0.861676 1.09513 0.861673 1.09513 1.02287 1.09513C3.34565 1.09513 5.6658 1.09513 7.98858 1.09513C8.25812 1.09513 8.52501 1.12946 8.78926 1.19549C9.47103 1.36716 9.90705 1.79502 10.0656 2.47114C10.2136 3.09973 10.3246 3.73623 10.4488 4.3701C10.713 5.71178 10.9773 7.05347 11.2442 8.39251C11.5296 9.82927 11.815 11.2634 12.1004 12.7002C12.1083 12.7345 12.1162 12.7662 12.1347 12.8322C12.2113 12.6315 12.2748 12.4572 12.3408 12.2855C13.308 9.68929 14.2725 7.09044 15.2397 4.49423C15.6413 3.41402 16.0456 2.33645 16.442 1.2536C16.4869 1.13475 16.5424 1.08984 16.6746 1.08984C18.1412 1.09513 19.6078 1.09249 21.0744 1.09249C21.1008 1.09249 21.1246 1.09249 21.151 1.09249C21.2276 1.09249 21.2461 1.12154 21.2171 1.19285C21.1167 1.43055 21.0215 1.67089 20.9237 1.91123C19.8192 4.62365 18.7119 7.33606 17.6074 10.0485C16.8728 11.8524 16.1355 13.6589 15.4009 15.4628C15.0203 16.3924 14.6398 17.3247 14.2646 18.2544C14.2302 18.3363 14.188 18.3706 14.0981 18.3706C12.5998 18.3706 11.1015 18.3706 9.60052 18.3706C9.49217 18.3706 9.46046 18.3204 9.43668 18.228C8.99009 16.543 8.54351 14.8553 8.09692 13.1703C7.24602 9.97189 6.39513 6.77615 5.54952 3.57777C5.50988 3.43251 5.45704 3.32686 5.31435 3.24763C3.88738 2.44737 2.37849 1.86633 0.795614 1.4596V1.37244L0.792969 1.37508Z" fill="#1C1C1C"/>
<path d="M53.9212 18.3752C53.279 18.3752 52.6342 18.3752 51.9921 18.3752C51.8891 18.3752 51.8494 18.3435 51.8283 18.2405C51.6724 17.464 51.5086 16.6875 51.3526 15.9111C51.3341 15.8133 51.2918 15.7843 51.1967 15.7843C49.3707 15.7843 47.5447 15.7869 45.7188 15.7843C45.6183 15.7843 45.5813 15.8265 45.5523 15.9111C45.2722 16.6875 44.9894 17.464 44.712 18.2405C44.675 18.3435 44.6274 18.3752 44.519 18.3752C43.0524 18.3726 41.5859 18.3752 40.1193 18.3752C39.9475 18.3752 39.9475 18.3752 40.0136 18.2194C40.7455 16.4762 41.4775 14.7305 42.2095 12.9873C43.4594 10.0108 44.7067 7.03693 45.9566 4.0604C46.1891 3.50313 46.4164 2.94585 46.6622 2.39386C46.9925 1.64907 47.5712 1.23177 48.3798 1.13141C48.6123 1.10236 48.8449 1.0918 49.0774 1.0918C50.1344 1.0918 51.1914 1.0918 52.2484 1.0918C52.4096 1.0918 52.4096 1.09179 52.444 1.25026C52.9011 3.44238 53.3583 5.63186 53.8181 7.82398C54.381 10.5205 54.9465 13.2171 55.512 15.9137C55.6732 16.6796 55.8317 17.4455 55.9903 18.2115C56.0246 18.3726 56.022 18.3726 55.8581 18.3726C55.216 18.3726 54.5712 18.3726 53.9291 18.3726L53.9212 18.3752ZM49.2545 5.83786C49.2122 5.88276 49.2069 5.92766 49.1937 5.96728C48.9981 6.51399 48.8052 7.06334 48.6044 7.60741C48.0495 9.11284 47.4919 10.6156 46.937 12.1184C46.8894 12.2452 46.8921 12.2478 47.0242 12.2478C48.1605 12.2478 49.2941 12.2478 50.4304 12.2478C50.581 12.2478 50.581 12.2478 50.5519 12.0999C50.1688 10.238 49.783 8.37861 49.3998 6.51663C49.3549 6.29214 49.3047 6.07028 49.2545 5.83522V5.83786Z" fill="#1C1C1C"/>
<path d="M32.55 18.6344C31.0808 18.6238 29.6353 18.4284 28.2295 17.99C28.0207 17.9239 27.8146 17.8473 27.6138 17.7628C27.5345 17.7311 27.5081 17.6915 27.5239 17.5991C27.7248 16.3789 27.9203 15.1561 28.1132 13.9332C28.1291 13.8302 28.1687 13.8329 28.248 13.8698C28.906 14.1841 29.5745 14.4773 30.2774 14.6833C30.8456 14.8497 31.4243 14.95 32.0136 14.9817C32.4337 15.0055 32.8513 15.0346 33.2714 15.0002C33.8924 14.95 34.487 14.8127 34.9996 14.4377C35.396 14.1471 35.618 13.7642 35.5968 13.2624C35.581 12.8477 35.3617 12.5414 35.0657 12.2772C34.6217 11.8811 34.1012 11.6038 33.5753 11.337C32.9226 11.0095 32.2699 10.6847 31.6674 10.27C30.9988 9.81045 30.399 9.28223 29.9603 8.59026C29.482 7.83755 29.305 7.01616 29.379 6.13403C29.4345 5.47376 29.5957 4.84781 29.8969 4.25884C30.3594 3.34766 31.0464 2.64513 31.9026 2.09578C32.7852 1.53058 33.755 1.18459 34.7803 0.981228C35.6603 0.806915 36.5481 0.754095 37.4413 0.793712C38.5935 0.843893 39.7165 1.05782 40.7973 1.46455C40.9453 1.52001 40.9427 1.52002 40.9189 1.6732C40.7313 2.82472 40.5436 3.9736 40.356 5.12513C40.3322 5.26511 40.327 5.26775 40.1922 5.20436C39.5368 4.89535 38.8577 4.65237 38.139 4.53616C37.222 4.38562 36.3024 4.34072 35.3907 4.56785C35.0102 4.66293 34.6614 4.82932 34.3786 5.11456C33.9188 5.5794 33.9136 6.19742 34.3654 6.67018C34.6667 6.98711 35.0366 7.20896 35.4092 7.42553C35.869 7.687 36.342 7.92206 36.8124 8.15976C37.5312 8.52159 38.2103 8.94153 38.8101 9.48295C39.6373 10.2357 40.1922 11.1389 40.2794 12.272C40.393 13.7642 39.9914 15.1059 38.9951 16.2468C38.213 17.1422 37.2167 17.7126 36.1042 18.093C35.3009 18.3676 34.4738 18.5208 33.6282 18.5921C33.2688 18.6238 32.912 18.637 32.5526 18.637L32.55 18.6344Z" fill="#1C1C1C"/>
<path d="M25.2811 1.0918C25.9813 1.0918 26.6816 1.0918 27.3845 1.0918C27.5193 1.0918 27.5246 1.09972 27.5034 1.23441C27.2577 2.74513 27.0146 4.25848 26.7688 5.7692C26.531 7.23237 26.2958 8.6929 26.058 10.1561C25.7779 11.8886 25.4977 13.6186 25.2176 15.3511C25.0617 16.3072 24.9085 17.2633 24.7552 18.2194C24.7314 18.3752 24.7288 18.3752 24.5729 18.3752C23.1829 18.3752 21.7903 18.3752 20.4003 18.3752C20.2418 18.3752 20.2391 18.3752 20.2629 18.222C20.432 17.1709 20.6038 16.1197 20.7729 15.0685C20.9922 13.7163 21.2089 12.364 21.4283 11.0118C21.6053 9.92366 21.7824 8.83816 21.9568 7.75003C22.1682 6.44004 22.3796 5.13005 22.591 3.82006C22.731 2.94849 22.8764 2.07957 23.0138 1.208C23.0296 1.11556 23.0693 1.0918 23.1538 1.0918C23.862 1.0918 24.5702 1.0918 25.2784 1.0918H25.2811Z" fill="#1C1C1C"/>
</svg>
