<svg width="105" height="18" viewBox="0 0 105 18" fill="none" xmlns="http://www.w3.org/2000/svg">
<g clip-path="url(#clip0_2168_16528)">
<path d="M29.9751 5.72849C30.6181 6.07416 31.1279 6.57188 31.5054 7.2226C31.883 7.87238 32.0713 8.63738 32.0713 9.51572V13.6278H30.426L30.2842 12.3623C29.9894 12.8194 29.5995 13.1735 29.1163 13.4257C28.6322 13.6779 28.1139 13.8035 27.5594 13.8035C26.8166 13.8035 26.1442 13.6222 25.5421 13.2585C24.9401 12.8959 24.4626 12.3887 24.1088 11.7389C23.755 11.0892 23.5781 10.3478 23.5781 9.51572C23.5781 8.68366 23.7636 7.97533 24.1355 7.31894C24.5073 6.66255 25.0171 6.14783 25.6658 5.77288C26.3144 5.39794 27.0401 5.21094 27.8428 5.21094C28.6455 5.21094 29.3322 5.38377 29.9751 5.72944V5.72849ZM29.0107 11.8438C29.376 11.6388 29.6717 11.3347 29.8952 10.9305C30.1197 10.5263 30.231 10.055 30.231 9.51572C30.231 8.97644 30.1216 8.50516 29.9038 8.10094C29.6851 7.69672 29.3931 7.38883 29.0279 7.17822C28.6617 6.9676 28.267 6.86183 27.8418 6.86183C27.3929 6.86183 26.9859 6.97327 26.6207 7.19522C26.2545 7.4181 25.9663 7.73072 25.7533 8.13494C25.5412 8.53916 25.4346 8.9991 25.4346 9.51477C25.4346 10.2996 25.6582 10.9352 26.1071 11.4216C26.555 11.908 27.1333 12.1507 27.8409 12.1507C28.2537 12.1507 28.6427 12.0487 29.0088 11.8428L29.0107 11.8438Z" fill="#1C1C1C"/>
<path d="M35.8155 13.6278H33.957V2.05273H35.8155V13.6278Z" fill="#1C1C1C"/>
<path d="M45.7737 10.1844H39.4033C39.5213 10.8172 39.7923 11.3092 40.2175 11.6605C40.6426 12.0119 41.1552 12.1875 41.7573 12.1875C42.736 12.1875 43.4027 11.8419 43.7565 11.1505H45.5788C45.3315 11.9703 44.8588 12.6182 44.1635 13.0923C43.4673 13.5664 42.6713 13.8044 41.7744 13.8044C40.9603 13.8044 40.2317 13.6231 39.5888 13.2595C38.9459 12.8968 38.4447 12.3897 38.0842 11.7399C37.7237 11.0901 37.5449 10.3487 37.5449 9.51666C37.5449 8.6846 37.7247 7.94416 38.0842 7.29344C38.4437 6.64366 38.9421 6.13366 39.5793 5.76438C40.2165 5.3951 40.9422 5.21094 41.7563 5.21094C42.4991 5.21094 43.1811 5.39888 43.8002 5.77288C44.4194 6.14783 44.9063 6.66349 45.2601 7.31894C45.6139 7.97533 45.7908 8.70727 45.7908 9.51572C45.7908 9.78583 45.7851 10.0078 45.7728 10.1834L45.7737 10.1844ZM40.226 7.35483C39.8076 7.70616 39.5327 8.18121 39.4033 8.7781H43.9514C43.8925 8.23977 43.6566 7.77983 43.2438 7.39827C42.8311 7.01766 42.3355 6.82688 41.7573 6.82688C41.179 6.82688 40.6455 7.00255 40.227 7.35388L40.226 7.35483Z" fill="#1C1C1C"/>
<path d="M54.1848 5.3866H55.813V13.2066C55.813 14.1322 55.6181 14.899 55.2291 15.5082C54.8401 16.1174 54.3322 16.5622 53.7073 16.8437C53.0815 17.1251 52.4158 17.2658 51.7081 17.2658C50.5402 17.2658 49.5872 16.9957 48.8501 16.4574C48.113 15.9181 47.667 15.1625 47.5139 14.1907H49.4075C49.5368 14.6478 49.8022 15.002 50.2035 15.2542C50.6049 15.5063 51.1061 15.6319 51.7081 15.6319C52.3568 15.6319 52.8961 15.4298 53.3269 15.0256C53.7577 14.6214 53.9727 14.015 53.9727 13.2066V12.3802C53.6778 12.8137 53.285 13.1509 52.7962 13.3908C52.3064 13.6307 51.7728 13.7506 51.1946 13.7506C50.5098 13.7506 49.8668 13.5834 49.2658 13.25C48.6637 12.9157 48.1806 12.4237 47.8144 11.7739C47.4482 11.1241 47.2656 10.3591 47.2656 9.48077C47.2656 8.60244 47.4482 7.83744 47.8144 7.18766C48.1796 6.53788 48.6637 6.04583 49.2658 5.71149C49.8678 5.37716 50.5107 5.21094 51.1946 5.21094C51.7966 5.21094 52.3473 5.33655 52.8495 5.58872C53.3507 5.84088 53.7435 6.20072 54.026 6.66916L54.1848 5.3866V5.3866ZM52.76 11.7833C53.1319 11.5727 53.4325 11.2705 53.6626 10.8785C53.8928 10.4866 54.0079 10.021 54.0079 9.48172C54.0079 8.94244 53.8928 8.47777 53.6626 8.08488C53.4325 7.69294 53.1319 7.39072 52.76 7.1801C52.3882 6.96949 51.9963 6.86372 51.5836 6.86372C51.1346 6.86372 50.7219 6.96949 50.3452 7.1801C49.9677 7.39072 49.6671 7.69577 49.4427 8.09338C49.2182 8.49194 49.1069 8.95472 49.1069 9.48172C49.1069 10.0087 49.2192 10.4715 49.4427 10.87C49.6671 11.2686 49.9677 11.5727 50.3452 11.7833C50.7228 11.9939 51.1356 12.0997 51.5836 12.0997C51.9963 12.0997 52.3891 11.9939 52.76 11.7833V11.7833Z" fill="#1C1C1C"/>
<path d="M57.5732 8.56655C57.5732 7.54749 57.8652 6.73338 58.4492 6.12422C59.0331 5.51505 59.8206 5.21094 60.8117 5.21094C61.1065 5.21094 61.4365 5.25249 61.8027 5.33372V7.02049C61.6962 7.00916 61.4841 7.00255 61.1655 7.00255C60.5872 7.00255 60.1535 7.14894 59.8644 7.44172C59.5753 7.73449 59.4307 8.21522 59.4307 8.88294V13.6278H57.5723V8.56655H57.5732Z" fill="#1C1C1C"/>
<path d="M69.1314 5.72849C69.7743 6.07416 70.2841 6.57188 70.6617 7.2226C71.0393 7.87238 71.2276 8.63738 71.2276 9.51572V13.6278H69.5822L69.4405 12.3623C69.1457 12.8194 68.7557 13.1735 68.2726 13.4257C67.7885 13.6779 67.2701 13.8035 66.7156 13.8035C65.9728 13.8035 65.3004 13.6222 64.6984 13.2585C64.0963 12.8959 63.6189 12.3887 63.2651 11.7389C62.9113 11.0892 62.7344 10.3478 62.7344 9.51572C62.7344 8.68366 62.9198 7.97533 63.2917 7.31894C63.6636 6.66255 64.1734 6.14783 64.822 5.77288C65.4707 5.39794 66.1963 5.21094 66.9991 5.21094C67.8018 5.21094 68.4885 5.38377 69.1314 5.72944V5.72849ZM68.167 11.8438C68.5322 11.6388 68.828 11.3347 69.0515 10.9305C69.276 10.5263 69.3872 10.055 69.3872 9.51572C69.3872 8.97644 69.2779 8.50516 69.0601 8.10094C68.8413 7.69672 68.5493 7.38883 68.1841 7.17822C67.8179 6.9676 67.4232 6.86183 66.9981 6.86183C66.5492 6.86183 66.1421 6.97327 65.7769 7.19522C65.4107 7.4181 65.1226 7.73072 64.9095 8.13494C64.6965 8.53916 64.5909 8.9991 64.5909 9.51477C64.5909 10.2996 64.8144 10.9352 65.2633 11.4216C65.7113 11.908 66.2895 12.1507 66.9971 12.1507C67.4099 12.1507 67.7989 12.0487 68.1651 11.8428L68.167 11.8438Z" fill="#1C1C1C"/>
<path d="M72.9453 8.83099C72.9453 7.7411 73.2582 6.8656 73.883 6.20355C74.5079 5.54149 75.3572 5.21094 76.431 5.21094C76.9379 5.21094 77.384 5.29877 77.7673 5.47444C78.1506 5.6501 78.4578 5.85222 78.6879 6.08077C78.9181 6.30933 79.0741 6.5171 79.1568 6.7041H79.192C79.2624 6.52844 79.4136 6.32349 79.6428 6.08927C79.873 5.85505 80.1792 5.6501 80.5625 5.47444C80.9458 5.29877 81.3909 5.21094 81.8988 5.21094C82.984 5.21094 83.8362 5.54244 84.4563 6.20355C85.0754 6.8656 85.3855 7.7411 85.3855 8.83099V13.6278H83.5271V8.97077C83.5271 8.31438 83.3825 7.80533 83.0934 7.44172C82.8042 7.07905 82.3772 6.89677 81.8103 6.89677C81.2435 6.89677 80.8165 7.0781 80.5273 7.44172C80.2382 7.80533 80.0936 8.32005 80.0936 8.98777V13.6448H78.2352V8.98777C78.2352 8.32005 78.0906 7.80438 77.8015 7.44172C77.5124 7.07905 77.0844 6.89677 76.5185 6.89677C75.9526 6.89677 75.5246 7.0781 75.2355 7.44172C74.9463 7.80533 74.8018 8.31438 74.8018 8.97077V13.6278H72.9434V8.83099H72.9453Z" fill="#1C1C1C"/>
<path d="M95.0081 10.1844H88.6377C88.7557 10.8172 89.0267 11.3092 89.4519 11.6605C89.877 12.0119 90.3896 12.1875 90.9917 12.1875C91.9703 12.1875 92.637 11.8419 92.9908 11.1505H94.8131C94.5658 11.9703 94.0932 12.6182 93.3979 13.0923C92.7017 13.5664 91.9057 13.8044 91.0088 13.8044C90.1947 13.8044 89.4661 13.6231 88.8232 13.2595C88.1803 12.8968 87.679 12.3897 87.3186 11.7399C86.9581 11.0901 86.7793 10.3487 86.7793 9.51666C86.7793 8.6846 86.9591 7.94416 87.3186 7.29344C87.6781 6.64366 88.1764 6.13366 88.8137 5.76438C89.4509 5.3951 90.1766 5.21094 90.9907 5.21094C91.7335 5.21094 92.4154 5.39888 93.0346 5.77288C93.6538 6.14783 94.1407 6.66349 94.4945 7.31894C94.8483 7.97533 95.0252 8.70727 95.0252 9.51572C95.0252 9.78583 95.0195 10.0078 95.0072 10.1834L95.0081 10.1844ZM89.4604 7.35483C89.0419 7.70616 88.7671 8.18121 88.6377 8.7781H93.1858C93.1269 8.23977 92.891 7.77983 92.4782 7.39827C92.0654 7.01766 91.5699 6.82688 90.9917 6.82688C90.4134 6.82688 89.8798 7.00255 89.4614 7.35388L89.4604 7.35483Z" fill="#1C1C1C"/>
<path d="M102.841 2.05273H104.716V9.46379C104.716 10.3421 104.524 11.11 104.141 11.7654C103.758 12.4218 103.247 12.9252 102.611 13.2765C101.974 13.6278 101.271 13.8035 100.505 13.8035C99.7383 13.8035 98.9974 13.6165 98.3545 13.2416C97.7115 12.8666 97.2046 12.3538 96.8327 11.704C96.4609 11.0542 96.2754 10.3242 96.2754 9.51668C96.2754 8.70918 96.4466 7.94135 96.789 7.28496C97.1314 6.62857 97.5964 6.11951 98.1871 5.7559C98.7767 5.39323 99.4263 5.21096 100.134 5.21096C100.653 5.21096 101.154 5.3224 101.638 5.54529C102.121 5.76818 102.522 6.0789 102.841 6.47651V2.05273V2.05273ZM101.673 11.8353C102.027 11.6247 102.313 11.3196 102.531 10.922C102.748 10.5235 102.858 10.055 102.858 9.51573C102.858 8.97646 102.746 8.49101 102.521 8.09246C102.297 7.69484 101.999 7.38979 101.627 7.17918C101.255 6.96857 100.863 6.86279 100.451 6.86279C99.7782 6.86279 99.2238 7.10834 98.7872 7.6004C98.3507 8.09246 98.1329 8.7309 98.1329 9.51573C98.1329 10.3006 98.3602 10.922 98.8138 11.4131C99.2675 11.9052 99.8315 12.1507 100.504 12.1507C100.928 12.1507 101.318 12.045 101.672 11.8343L101.673 11.8353Z" fill="#1C1C1C"/>
<path d="M3.03588 5.57934C4.17489 5.31239 4.8803 4.17908 4.61147 3.04803C4.34264 1.91698 3.20136 1.21648 2.06236 1.48344C0.923349 1.75039 0.21793 2.8837 0.48676 4.01475C0.755591 5.1458 1.89687 5.84629 3.03588 5.57934Z" fill="#1C1C1C"/>
<path d="M7 7V12.2606C7 15.1666 9.37201 17.5221 12.2985 17.5221H15.4789C16.6488 17.5221 17.597 16.5804 17.597 15.4188V7H7Z" fill="#1C1C1C"/>
<path d="M6.54572 12.499V7H5.4533C2.44131 7 0 9.46222 0 12.5C0 15.5378 2.44131 18 5.4533 18H12C8.98801 17.999 6.5467 15.5358 6.5467 12.498L6.54572 12.499Z" fill="#1C1C1C"/>
<path d="M12.2995 0C9.37296 0 7 2.35544 7 5.2615V6.3155H17.597V5.2615C17.598 2.35544 15.225 0 12.2995 0Z" fill="#1C1C1C"/>
</g>
<defs>
<clipPath id="clip0_2168_16528">
<rect width="104.716" height="18" fill="white"/>
</clipPath>
</defs>
</svg>
