<svg width="81" height="19" viewBox="0 0 81 19" fill="none" xmlns="http://www.w3.org/2000/svg">
<g clip-path="url(#clip0_2165_16005)">
<path d="M9.38224 0.006694C12.2903 0.006694 15.1973 0.0122649 18.1053 8.95964e-06C18.4543 -0.00110521 18.5738 0.101399 18.5728 0.473533C18.5631 5.39484 18.562 10.315 18.5728 15.2363C18.5728 15.6285 18.4015 15.6998 18.0924 15.721C16.857 15.809 15.6195 15.7722 14.383 15.8703C9.78721 16.2369 5.27219 16.99 0.953195 18.7359C0.853028 18.7761 0.753939 18.8206 0.653773 18.8607C0.0333887 19.1025 0.00430822 19.0813 0.00323117 18.3761C0.00215411 12.5267 0 6.67836 0 0.828954C0 0.0144932 0.00215411 0.013379 0.765787 0.013379C3.6383 0.013379 6.50973 0.013379 9.38224 0.013379V0.006694Z" fill="#1C1C1C"/>
<path d="M74.3245 4.25596C74.9708 4.25596 75.6159 4.26711 76.2621 4.25039C76.5906 4.24259 76.7921 4.34955 76.9181 4.68381C78.2504 8.22799 79.5892 11.7688 80.9376 15.3063C81.0874 15.6996 80.9667 15.801 80.5995 15.7943C79.8638 15.781 79.1282 15.7843 78.3926 15.7921C78.1039 15.7955 77.9316 15.6807 77.826 15.3921C77.5546 14.6456 77.2509 13.9125 76.9795 13.166C76.847 12.8006 76.6273 12.6546 76.2481 12.6591C75.0106 12.6747 73.772 12.678 72.5345 12.6591C72.1478 12.6524 71.9378 12.8228 71.7945 13.1649C71.4962 13.8802 71.1774 14.5866 70.8876 15.3052C70.7476 15.6517 70.5688 15.8423 70.166 15.8044C69.704 15.7609 69.2344 15.7698 68.7712 15.7999C68.3092 15.83 68.3016 15.6462 68.461 15.2829C69.2677 13.4412 70.0648 11.595 70.8629 9.74884C71.4197 8.46197 71.9787 7.17621 72.5248 5.88489C72.7822 5.27543 72.7219 5.11833 72.1801 4.81528C72.0282 4.7306 71.7977 4.69606 71.871 4.44203C71.9388 4.21028 72.1618 4.26153 72.332 4.26042C72.9954 4.25262 73.6589 4.25708 74.3234 4.25708L74.3245 4.25596ZM74.5615 6.84085C73.9562 8.23913 73.4166 9.48924 72.8727 10.736C72.7563 11.0034 72.7843 11.1616 73.1118 11.1605C73.9896 11.156 74.8684 11.156 75.7462 11.1594C76.0726 11.1605 76.162 11.0212 76.0414 10.707C75.5642 9.4703 75.0935 8.23133 74.5615 6.84085V6.84085Z" fill="#1C1C1C"/>
<path d="M29.3855 4.25615C30.0317 4.25615 30.6769 4.26952 31.322 4.25058C31.6742 4.24055 31.8746 4.35977 32.0081 4.7163C33.3275 8.22483 34.6588 11.73 35.9954 15.2308C36.1645 15.6742 36.0858 15.8268 35.6022 15.8034C34.886 15.7678 34.1676 15.78 33.4503 15.8057C33.1455 15.8168 32.9979 15.7065 32.8967 15.4157C32.635 14.6659 32.3345 13.9305 32.0727 13.1807C31.9467 12.8197 31.7561 12.6514 31.363 12.657C30.0899 12.6782 28.8157 12.6748 27.5426 12.6592C27.2228 12.6548 27.0547 12.7807 26.9309 13.0737C26.6013 13.8559 26.2362 14.6213 25.9131 15.4057C25.786 15.7143 25.605 15.8135 25.2927 15.799C24.8091 15.7778 24.3233 15.78 23.8408 15.8068C23.4057 15.8313 23.3604 15.6976 23.5338 15.3009C24.8295 12.345 26.1069 9.38023 27.3908 6.41876C27.4716 6.23269 27.5329 6.0366 27.6267 5.85833C27.8819 5.37478 27.7419 5.05167 27.2788 4.82883C27.1291 4.75641 26.891 4.72187 26.9524 4.4645C27.0181 4.18818 27.2658 4.26395 27.4479 4.26172C28.093 4.25058 28.7392 4.25726 29.3855 4.25726V4.25615ZM29.6386 6.82209C29.0214 8.26494 28.4646 9.55961 27.9164 10.8576C27.8162 11.0938 27.9788 11.154 28.163 11.1551C29.0774 11.1573 29.9908 11.1573 30.9052 11.1529C31.1357 11.1518 31.2445 11.0337 31.154 10.7941C30.6715 9.52285 30.1857 8.2538 29.6386 6.82209V6.82209Z" fill="#1C1C1C"/>
<path d="M63.1458 12.4795C63.6531 11.2428 64.1367 10.074 64.6128 8.90189C65.175 7.51697 65.7404 6.13317 66.2822 4.73934C66.4157 4.39506 66.5956 4.2335 66.9586 4.25133C67.37 4.2725 67.7836 4.25021 68.1961 4.25801C68.7088 4.26804 68.7562 4.34603 68.5494 4.85855C67.8784 6.51867 67.1988 8.17545 66.5278 9.83557C65.7803 11.6829 65.0285 13.5291 64.3004 15.3853C64.1712 15.7151 64.0031 15.8432 63.6639 15.8254C62.9121 15.7853 62.1581 15.7518 61.4064 15.8398C60.9561 15.8922 60.7903 15.6014 60.646 15.2226C59.472 12.1319 58.2818 9.04896 57.1067 5.95936C56.8989 5.41341 56.6081 4.97777 56.0426 4.79282C55.88 4.73934 55.7281 4.66023 55.7798 4.44408C55.8251 4.25801 55.9909 4.26358 56.132 4.26247C57.2801 4.25913 58.4283 4.26247 59.5764 4.25801C59.9556 4.25578 60.0363 4.55438 60.1408 4.82847C60.9992 7.0713 61.8544 9.31413 62.7161 11.5559C62.8259 11.8422 62.8948 12.1508 63.1469 12.4795H63.1458Z" fill="#1C1C1C"/>
<path d="M42.8095 12.5499C43.1832 11.6407 43.4988 10.8809 43.8079 10.1177C44.5295 8.33833 45.2565 6.56011 45.9599 4.77297C46.1117 4.38635 46.3239 4.22034 46.7267 4.24931C47.1198 4.27828 47.5162 4.26714 47.9104 4.25377C48.324 4.23928 48.4155 4.40084 48.2572 4.78969C47.6142 6.36178 46.9831 7.93945 46.3476 9.51489C45.5743 11.4324 44.7869 13.3454 44.0362 15.2729C43.8725 15.693 43.656 15.8245 43.2327 15.8033C42.5348 15.7676 41.8315 15.7676 41.1346 15.8133C40.7275 15.8401 40.5293 15.7164 40.3786 15.3175C39.3144 12.5009 38.2266 9.69205 37.1474 6.88099C37.0343 6.58796 36.9007 6.30162 36.8113 6.00079C36.6369 5.41028 36.3019 4.98801 35.7289 4.78189C35.5932 4.73286 35.4392 4.6883 35.4564 4.49332C35.4779 4.25934 35.6643 4.2638 35.8215 4.26268C36.9697 4.25822 38.1189 4.26491 39.267 4.256C39.6192 4.25377 39.7097 4.50557 39.8109 4.77074C40.5315 6.65147 41.252 8.53108 41.9758 10.4107C42.2311 11.0747 42.4928 11.7366 42.8105 12.5499H42.8095Z" fill="#1C1C1C"/>
<path d="M54.084 10.0705C54.084 11.7217 54.0862 13.3729 54.084 15.0241C54.0829 15.7784 54.07 15.7885 53.3204 15.7918C52.728 15.794 52.1345 15.7673 51.5454 15.8063C51.1318 15.8341 51.0263 15.6837 51.0284 15.2748C51.0424 12.251 51.0187 9.22599 51.0478 6.20212C51.0543 5.50465 50.8981 5.00438 50.2238 4.77375C50.0763 4.7225 49.9567 4.63782 49.9987 4.45287C50.0418 4.26457 50.2066 4.26457 50.3466 4.26346C51.4582 4.259 52.5708 4.259 53.6823 4.26123C54.1206 4.26123 54.0819 4.59994 54.0829 4.89408C54.0862 6.52634 54.0851 8.15972 54.0851 9.79199C54.0851 9.88446 54.0851 9.97805 54.0851 10.0705H54.084Z" fill="#1C1C1C"/>
</g>
<defs>
<clipPath id="clip0_2165_16005">
<rect width="81" height="19" fill="white"/>
</clipPath>
</defs>
</svg>
