<svg width="92" height="25" viewBox="0 0 92 25" fill="none" xmlns="http://www.w3.org/2000/svg">
<path d="M54.402 20.7754L53.0926 24.9429H52.3809L51.4985 21.9377L51.3846 21.5692C51.3846 21.5408 51.3562 21.4841 51.3277 21.3707L51.2708 21.1723L51.2138 21.3707L51.1569 21.5692L51.043 21.9377L50.1606 24.9429H49.4489L48.168 20.7754H48.6519L49.5628 23.7521L49.6767 24.149C49.6767 24.1774 49.7051 24.2624 49.7336 24.3475L49.7905 24.5459L49.8475 24.3475L49.9044 24.149L50.0183 23.7521L50.9007 20.7754H51.5839L52.4663 23.7805L52.5802 24.1774L52.6656 24.3758L52.7225 24.5743L52.7795 24.3758L52.8364 24.1774L52.9503 23.7805L53.8612 20.8037H54.402V20.7754Z" fill="#1C1C1C"/>
<path d="M57.3332 20.748C58.1303 20.748 58.6142 20.8614 58.8135 21.0882C59.0127 21.315 59.0981 21.8821 59.0981 22.8176C59.0981 23.8099 59.0127 24.4052 58.8135 24.6604C58.6142 24.8872 58.1303 25.0006 57.3332 25.0006C56.5362 25.0006 56.0238 24.8872 55.853 24.6604C55.6538 24.4336 55.5684 23.8382 55.5684 22.8743V22.5908V22.1939C55.5684 21.6553 55.6822 21.2584 55.9384 21.0599C56.1946 20.8331 56.6501 20.748 57.3332 20.748ZM57.3332 21.1449C56.6785 21.1449 56.28 21.23 56.1661 21.3717C56.0523 21.5135 55.9953 22.0238 55.9953 22.8743C55.9953 23.7248 56.0523 24.2351 56.1661 24.3769C56.28 24.5186 56.6785 24.6037 57.3332 24.6037C57.988 24.6037 58.3865 24.5186 58.5004 24.3769C58.6142 24.2351 58.6712 23.7248 58.6712 22.8743V22.5908V22.1939C58.6712 21.7403 58.5858 21.4568 58.4434 21.315C58.2726 21.2016 57.9026 21.1449 57.3332 21.1449Z" fill="#1C1C1C"/>
<path d="M60.6367 24.9429V20.7754H62.6293C63.0848 20.7754 63.3979 20.8604 63.5687 21.0305C63.7395 21.2006 63.8534 21.5125 63.8534 21.9377C63.8534 22.3346 63.7964 22.5898 63.711 22.7315C63.5972 22.8733 63.4264 22.9867 63.1417 23.015C63.5972 23.0434 63.7964 23.3269 63.7964 23.8088V24.9429H63.3125V23.9789C63.3125 23.497 63.1133 23.2418 62.6863 23.2418H62.5439H61.1206V24.9429H60.6367ZM61.1206 22.8449H62.487C62.8571 22.8449 63.0848 22.7882 63.2271 22.6748C63.3695 22.5614 63.4264 22.363 63.4264 22.0511C63.4264 21.6826 63.3695 21.4274 63.2841 21.314C63.1987 21.2006 62.9709 21.1439 62.6578 21.1439H61.1491V22.8449H61.1206Z" fill="#1C1C1C"/>
<path d="M66.016 20.7754V24.4893H68.1794V24.9429H65.5605V20.7754H66.016Z" fill="#1C1C1C"/>
<path d="M69.6035 24.9429V20.7754H71.5392C72.137 20.7754 72.5355 20.9171 72.7632 21.1723C72.9625 21.4274 73.0764 21.9377 73.0764 22.6748C73.0764 23.582 72.991 24.1774 72.7917 24.4893C72.5924 24.8011 72.2224 24.9429 71.6531 24.9429H69.6035ZM70.059 24.5459H71.4253C71.9377 24.5459 72.2509 24.4325 72.3932 24.2341C72.5355 24.0356 72.6209 23.582 72.6209 22.9016C72.6209 22.1362 72.564 21.6542 72.4216 21.4558C72.3078 21.2573 71.9947 21.1439 71.5107 21.1439H70.059V24.5459V24.5459Z" fill="#1C1C1C"/>
<path d="M80.5348 20.7754L79.2254 24.9429H78.5137L77.6313 21.9377L77.5174 21.5692C77.5174 21.5408 77.489 21.4841 77.4605 21.3707L77.4036 21.1723L77.3466 21.3707L77.2897 21.5692L77.1758 21.9377L76.2934 24.9429H75.5818L74.3008 20.7754H74.7847L75.6956 23.7521L75.8095 24.149C75.8095 24.1774 75.8379 24.2624 75.8664 24.3475L75.9233 24.5459L75.9803 24.3475L76.0372 24.149L76.1511 23.7521L77.0335 20.7754H77.7167L78.5991 23.7805L78.713 24.1774L78.7699 24.3758L78.8269 24.5743L78.8838 24.3758L78.9407 24.1774L79.0546 23.7805L79.9655 20.8037H80.5348V20.7754Z" fill="#1C1C1C"/>
<path d="M82.4117 20.7754H81.9277V24.9429H82.4117V20.7754Z" fill="#1C1C1C"/>
<path d="M84.207 24.9429V20.7754H86.1427C86.7405 20.7754 87.139 20.9171 87.3668 21.1723C87.566 21.4274 87.6799 21.9377 87.6799 22.6748C87.6799 23.582 87.5945 24.1774 87.3952 24.4893C87.196 24.8011 86.8259 24.9429 86.2566 24.9429H84.207ZM84.691 24.5459H86.0573C86.5697 24.5459 86.8828 24.4325 87.0252 24.2341C87.1675 24.0356 87.2529 23.582 87.2529 22.9016C87.2529 22.1362 87.196 21.6542 87.0536 21.4558C86.9398 21.2573 86.6266 21.1439 86.1427 21.1439H84.691V24.5459Z" fill="#1C1C1C"/>
<path d="M89.6148 21.1723V22.5898H91.7213V22.9867H89.6148V24.5459H91.8351V24.9429H89.1309V20.7754H91.8351V21.1723H89.6148Z" fill="#1C1C1C"/>
<path d="M8.51517 1.2143C9.16989 2.37665 8.7429 3.82251 7.60426 4.44621C6.43715 5.09826 4.98539 4.67301 4.35914 3.53901C3.70442 2.37665 4.13141 0.930801 5.27005 0.307099C6.40869 -0.344953 7.86045 0.0802984 8.51517 1.2143Z" fill="#1C1C1C"/>
<path d="M10.0521 21.6826C6.60774 19.3012 2.28092 12.1569 11.0769 5.60807C11.2762 5.46632 11.4185 5.15447 10.9915 5.35292C3.16336 8.83998 1.99626 5.35292 1.93932 3.22667C1.91086 2.43286 1.6262 2.80142 1.4554 3.25502C-3.44075 15.7007 5.21291 20.7187 9.76747 22.0511C10.4222 22.2496 10.536 22.0228 10.0521 21.6826Z" fill="#1C1C1C"/>
<path d="M18.8775 14.9358H20.1869V15.4177C20.1869 17.3172 18.9344 18.2811 16.4294 18.2811C14.8353 18.2811 13.7536 17.9692 13.2412 17.3739C12.7289 16.7785 12.4727 15.5311 12.4727 13.66C12.4727 11.9023 12.7288 10.7116 13.2697 10.0879C13.7821 9.46419 14.8069 9.15234 16.2586 9.15234C17.7104 9.15234 18.7067 9.37914 19.2191 9.77605C19.76 10.2013 20.0161 10.9951 20.0161 12.1575H18.7067V11.9023C18.7067 11.2219 18.5359 10.7683 18.1943 10.5131C17.8527 10.2863 17.1695 10.1729 16.1448 10.1729C15.1485 10.1729 14.5222 10.3997 14.2375 10.825C13.9529 11.2502 13.8106 12.2425 13.8106 13.7451C13.8106 15.2193 13.9814 16.1548 14.2945 16.5517C14.6076 16.9486 15.3762 17.1471 16.5433 17.1471C17.5396 17.1471 18.1659 17.0053 18.4505 16.7502C18.7352 16.5234 18.8775 15.8997 18.8775 14.9358Z" fill="#1C1C1C"/>
<path d="M24.4852 5.43945H23.1758V18.1403H24.4852V5.43945Z" fill="#1C1C1C"/>
<path d="M34.1348 15.4461H35.4727V15.758C35.4727 16.6935 35.188 17.3172 34.6187 17.6858C34.0494 18.0543 33.0815 18.2528 31.6582 18.2528C30.0072 18.2528 28.9255 17.9409 28.4131 17.3456C27.9007 16.7502 27.6445 15.5028 27.6445 13.575C27.6445 11.789 27.9007 10.6266 28.4131 10.0029C28.9255 9.40755 29.9503 9.0957 31.459 9.0957C33.11 9.0957 34.1917 9.35085 34.6756 9.88951C35.188 10.4282 35.4442 11.5338 35.4442 13.2065V13.9152H29.0394C29.0394 15.3044 29.1817 16.2116 29.4948 16.5801C29.8079 16.977 30.4911 17.1471 31.6013 17.1471C32.6545 17.1471 33.3377 17.0621 33.6509 16.8636C33.964 16.6935 34.1348 16.2966 34.1348 15.6729V15.4461ZM34.1348 12.923V12.4977C34.1348 11.5338 33.964 10.9101 33.6509 10.6266C33.3377 10.3431 32.6545 10.2014 31.6013 10.2014C30.5481 10.2014 29.8649 10.3715 29.5518 10.7117C29.2386 11.0519 29.0678 11.789 29.0678 12.923H34.1348V12.923Z" fill="#1C1C1C"/>
<path d="M38.6613 9.23745H39.9707L39.9422 10.5699L39.9707 10.5983C40.4831 9.60601 41.4509 9.0957 42.8742 9.0957C44.3829 9.0957 45.2939 9.60601 45.6354 10.5983H45.6639C46.2332 9.60601 47.258 9.0957 48.7382 9.0957C50.8447 9.0957 51.898 10.173 51.898 12.2993V18.1394H50.5885V12.1859C50.5885 11.3921 50.4462 10.8818 50.1615 10.5983C49.8769 10.3148 49.3645 10.173 48.5674 10.173C47.5427 10.173 46.831 10.3715 46.461 10.74C46.0909 11.1369 45.9201 11.874 45.9201 12.9513V18.1394H44.6107V12.3276L44.5822 11.9307C44.5822 10.7967 43.9275 10.2014 42.618 10.2014C40.8247 10.2014 39.9422 11.1653 39.9422 13.0931V18.1394H38.6328V9.23745H38.6613Z" fill="#1C1C1C"/>
<path d="M61.8027 15.2567H63.1406V15.5685C63.1406 16.5041 62.856 17.1278 62.2867 17.4963C61.7173 17.8649 60.7495 18.0633 59.3262 18.0633C57.6752 18.0633 56.5935 17.7515 56.0811 17.1561C55.5687 16.5608 55.3125 15.3134 55.3125 13.3856C55.3125 11.5995 55.5687 10.4372 56.0811 9.81345C56.5935 9.2181 57.6182 8.90625 59.1269 8.90625C60.778 8.90625 61.8597 9.1614 62.3436 9.70005C62.856 10.2387 63.1122 11.3444 63.1122 13.017V13.7258H56.6789C56.6789 15.1149 56.8212 16.0221 57.1343 16.3907C57.4474 16.7876 58.1306 16.9577 59.2408 16.9577C60.294 16.9577 60.9772 16.8726 61.2904 16.6742C61.6035 16.5041 61.7743 16.1072 61.7743 15.4835V15.2567H61.8027ZM61.8027 12.7335V12.3083C61.8027 11.3444 61.6319 10.7207 61.3188 10.4372C61.0057 10.1537 60.3225 10.0119 59.2693 10.0119C58.216 10.0119 57.5328 10.182 57.2197 10.5222C56.9066 10.8624 56.7358 11.5995 56.7358 12.7335H61.8027V12.7335Z" fill="#1C1C1C"/>
<path d="M66.3574 9.23645H67.6099L67.5815 10.4555L67.6099 10.4839C68.0084 9.57665 69.0048 9.12305 70.5704 9.12305C71.8514 9.12305 72.7053 9.34985 73.1608 9.80345C73.6162 10.257 73.844 11.1076 73.844 12.355V18.1384H72.5345V12.4684V12.1282C72.5345 11.3627 72.3922 10.8524 72.1075 10.5973C71.8229 10.3421 71.2536 10.2003 70.4281 10.2003C68.6062 10.2003 67.6669 11.0509 67.6669 12.7802V18.1384H66.3574V9.23645Z" fill="#1C1C1C"/>
<path d="M82.0716 9.23758V10.3149H78.6272V15.7581C78.6272 16.6937 79.0542 17.1756 79.9082 17.1756C80.7622 17.1756 81.1607 16.7504 81.1607 15.8998V15.4746L81.1892 14.9926H82.4132V15.6447C82.4132 17.4024 81.5877 18.2529 79.9082 18.2529C78.1718 18.2529 77.3178 17.5158 77.3178 16.07V15.7581V10.3149H76.0938V9.23758H77.3178V7.11133H78.6272V9.23758H82.0716Z" fill="#1C1C1C"/>
<path d="M91.6361 11.5613H90.3266C90.3266 10.9376 90.2128 10.569 89.9566 10.3989C89.7004 10.2572 89.0457 10.1721 88.0209 10.1721C87.053 10.1721 86.4268 10.2572 86.1706 10.3989C85.9144 10.569 85.7721 10.9376 85.7721 11.5329C85.7721 12.4401 86.1991 12.9221 87.0815 12.9504L88.1348 13.0071L89.4727 13.0638C91.0952 13.1489 91.8923 13.9994 91.8923 15.587C91.8923 16.5792 91.6361 17.2596 91.0952 17.6282C90.5544 17.9967 89.5865 18.1952 88.1632 18.1952C86.7115 18.1952 85.6867 18.0251 85.1458 17.6565C84.605 17.3163 84.3203 16.6643 84.3203 15.7004V15.2184H85.6867V15.6437C85.6867 16.239 85.829 16.6076 86.1421 16.806C86.4268 17.0045 87.0246 17.0895 87.907 17.0895C88.9887 17.0895 89.7004 16.9761 90.042 16.7777C90.3836 16.5792 90.5544 16.154 90.5544 15.5019C90.5544 14.5664 90.1274 14.0844 89.2734 14.0844C87.2808 14.0844 85.9713 13.9143 85.3451 13.5741C84.7188 13.2339 84.4057 12.5535 84.4057 11.5046C84.4057 10.5123 84.6619 9.83192 85.1458 9.52007C85.6297 9.17987 86.6261 9.00977 88.1063 9.00977C90.469 9.00977 91.6645 9.71852 91.6645 11.136V11.5613H91.6361Z" fill="#1C1C1C"/>
</svg>
