<svg width="73" height="23" viewBox="0 0 73 23" fill="none" xmlns="http://www.w3.org/2000/svg">
<path d="M53.5957 15.8327C51.7427 17.5616 49.6947 17.9975 47.4291 17.4877C43.9557 16.7119 41.5476 13.3798 42.0277 10.055C42.5454 6.49379 45.7637 3.78965 49.3121 3.93742C52.9805 4.09257 55.9063 6.88538 56.0488 10.4466C56.1238 12.3897 56.1763 14.3476 56.0338 16.2834C55.8163 19.2461 54.3534 21.5144 51.4576 22.5266C48.7119 23.4871 46.1238 22.9994 43.9857 20.9085C43.5881 20.5169 42.9955 20.118 43.6632 19.4604C44.4434 18.692 44.9535 18.6551 45.6512 19.3422C47.1365 20.7977 49.0645 21.1967 50.9025 20.4283C52.5079 19.7559 53.6182 17.9384 53.5882 15.8401L53.5957 15.8327ZM49.2146 6.13915C46.5889 6.10221 44.4359 8.17834 44.4209 10.7717C44.4059 13.3576 46.4989 15.5593 48.982 15.5667C51.6977 15.5741 53.7607 13.594 53.7832 10.9416C53.8057 8.17096 51.9153 6.1761 49.2146 6.13915Z" fill="#1C1C1C"/>
<path d="M65.2305 17.665C61.2845 17.665 58.1862 14.6357 58.2012 10.7864C58.2162 7.13652 61.5396 3.94475 65.2905 3.96691C69.109 3.98908 72.2748 7.09958 72.2823 10.8455C72.2973 14.7022 69.2365 17.6576 65.223 17.665H65.2305ZM69.8442 10.8677C69.8367 8.07485 67.9237 6.12432 65.208 6.13909C62.6799 6.15387 60.6318 8.25217 60.6543 10.8012C60.6769 13.4757 62.7024 15.574 65.2455 15.5593C67.8787 15.5445 69.8592 13.5349 69.8517 10.8603L69.8442 10.8677Z" fill="#1C1C1C"/>
<path d="M16.2592 8.85151C16.2592 7.52161 16.2742 6.3838 16.2592 5.25338C16.2442 4.38155 16.7393 4.14512 17.5195 4.15251C18.2697 4.15251 18.7123 4.42588 18.7123 5.23121C18.6973 7.59549 18.8098 9.97455 18.6673 12.3314C18.4797 15.5084 16.0941 17.8432 12.5307 17.6954C9.2449 17.5624 6.99433 15.4272 6.85179 11.9325C6.76177 9.73073 6.83679 7.52161 6.82178 5.31987C6.82178 4.49976 7.19688 4.15251 8.02209 4.15251C8.8548 4.15251 9.35742 4.44805 9.36493 5.31987C9.37243 7.26301 9.36493 9.21355 9.37993 11.1567C9.37993 11.6739 9.37993 12.1984 9.43995 12.7082C9.65 14.4002 10.8053 15.4641 12.5232 15.5749C14.2562 15.6858 15.584 14.8139 16.0491 13.2107C16.4842 11.7108 16.1617 10.174 16.2742 8.8589L16.2592 8.85151Z" fill="#1C1C1C"/>
<path d="M21.6082 12.9738C21.6082 11.969 21.5932 10.9642 21.6082 9.95939C21.6682 6.42036 24.0539 4.01175 27.5197 3.96742C30.8506 3.92309 33.3187 6.25043 33.4687 9.71557C33.5663 11.9469 33.4762 14.1929 33.4988 16.4242C33.5063 17.3995 32.9211 17.4808 32.1409 17.4955C31.3157 17.5103 31.0306 17.1704 31.0456 16.3947C31.0756 14.4811 31.0681 12.5675 31.0456 10.6539C31.0456 10.0776 30.9931 9.48653 30.8806 8.91763C30.5355 7.1592 29.3427 6.18393 27.5872 6.17654C25.7718 6.16177 24.5565 7.14442 24.2189 8.95457C23.8888 10.7204 24.1289 12.5158 24.0689 14.289C24.0539 14.8431 24.0689 15.3898 24.0689 15.944C24.0689 17.3625 23.9563 17.4881 22.816 17.4808C21.7058 17.4808 21.6157 17.3551 21.6082 15.8996C21.6082 14.9244 21.6082 13.9565 21.6082 12.9812V12.9738Z" fill="#1C1C1C"/>
<path d="M1.0291 10.7723C1.0291 8.99165 1.0216 7.21106 1.0291 5.43046C1.0366 4.3887 1.29917 4.15227 2.28942 4.14488C3.18965 4.13011 3.48972 4.5808 3.48972 5.41568C3.47472 9.04337 3.46722 12.6637 3.48972 16.2914C3.48972 17.1632 3.15214 17.4957 2.25941 17.4957C1.38169 17.4957 0.999092 17.2001 1.0141 16.3135C1.0441 14.4664 1.0216 12.6267 1.0216 10.7796L1.0291 10.7723Z" fill="#1C1C1C"/>
<path d="M36.8204 10.7719C36.8204 8.9913 36.8129 7.21071 36.8204 5.43011C36.8279 4.39574 37.113 4.15192 38.0883 4.14453C38.9885 4.14453 39.2811 4.57306 39.2811 5.41533C39.2586 9.04302 39.2586 12.6633 39.2811 16.291C39.2811 17.1628 38.951 17.4953 38.0582 17.4953C37.173 17.4953 36.7979 17.1776 36.8129 16.3058C36.8429 14.4587 36.8204 12.619 36.8204 10.7719Z" fill="#1C1C1C"/>
<path d="M12.778 2.27528C12.3804 2.27528 11.9903 2.25312 11.5927 2.27528C10.8425 2.327 10.3924 2.0758 10.3849 1.26308C10.3774 0.465134 10.715 0.0587735 11.5627 0.0809386C12.4179 0.103104 13.2731 0.0809386 14.1208 0.0957154C14.886 0.0957154 15.1261 0.546406 15.1261 1.23352C15.1261 1.95759 14.811 2.31962 14.0533 2.27528C13.6257 2.25312 13.1981 2.27528 12.7705 2.27528H12.778Z" fill="#1C1C1C"/>
<path d="M2.37262 0.015048C3.19033 -0.0810008 3.52041 0.354913 3.4979 1.20458C3.4679 2.21678 3.26535 2.40888 2.21508 2.43843C1.32985 2.46799 0.969763 2.09857 0.99977 1.23413C1.03728 0.199757 1.20982 0.00765968 2.37262 0.015048Z" fill="#1C1C1C"/>
<path d="M39.2661 1.24125C39.3786 2.15002 38.9285 2.46772 38.0583 2.43816C37.053 2.40122 36.8354 2.16479 36.8054 1.13781C36.7829 0.206874 37.2706 0 38.1033 0C39.011 0 39.3786 0.384195 39.2661 1.24125Z" fill="#1C1C1C"/>
</svg>
