<svg width="88" height="19" viewBox="0 0 88 19" fill="none" xmlns="http://www.w3.org/2000/svg">
<path d="M10.3243 0.492188C12.6049 0.93549 14.5629 1.93292 15.9282 3.83173C17.7512 6.36594 18.0663 9.09225 16.8885 11.9885C16.6484 12.587 16.3708 12.7126 15.7632 12.3875C14.2928 11.5895 14.2778 11.6191 14.6754 10.0749C15.4556 7.05306 13.5276 3.95733 10.4293 3.26283C7.29352 2.56093 4.15773 4.56318 3.55007 7.65152C2.8599 11.1684 5.53058 14.3011 9.19151 14.3011C9.59661 14.3011 10.1292 14.0425 10.3768 14.5005C10.7294 15.1212 10.9695 15.8157 11.0445 16.5323C11.082 16.85 10.7069 16.8427 10.4743 16.8796C7.84866 17.2933 5.54558 16.5988 3.54257 14.8995C2.0572 13.6361 1.23949 11.9959 0.796875 10.1488V7.18605C1.23949 5.79704 1.76462 4.45974 2.76988 3.33671C4.15023 1.79993 5.89067 0.920713 7.90868 0.506964H10.3243V0.492188Z" fill="#1C1C1C"/>
<path d="M33.9545 7.14932C33.8795 8.70087 34.1346 10.6145 33.8345 12.4985C33.4669 14.8332 32.1541 16.141 29.7985 16.6212C28.3281 16.9241 26.8502 16.9315 25.3724 16.6212C22.7467 16.0597 21.2613 14.4047 21.2013 11.7227C21.1263 8.3684 21.1863 5.00669 21.1638 1.65237C21.1638 1.14257 21.3663 0.943085 21.8765 0.943085C24.1946 0.935697 23.782 0.854424 23.797 2.70152C23.8195 5.61254 23.782 8.53094 23.8195 11.442C23.8345 12.7349 24.2021 13.9245 25.6199 14.4121C26.9402 14.8702 28.3056 14.8702 29.6109 14.3751C30.8938 13.8875 31.2839 12.7866 31.2989 11.5602C31.3364 8.64916 31.3214 5.73075 31.3214 2.81973C31.3214 2.50203 31.3439 2.17694 31.3214 1.85924C31.2614 1.19429 31.5389 0.928308 32.2291 0.935696C34.2846 0.957861 33.9245 0.854424 33.947 2.5833C33.962 3.98709 33.947 5.39827 33.947 7.14932H33.9545Z" fill="#1C1C1C"/>
<path d="M86.6253 16.687C85.775 16.687 85.1949 16.3077 84.8848 15.5492C84.5622 14.7438 84.2246 13.9459 83.9246 13.1332C83.767 12.6899 83.497 12.5273 83.0243 12.5347C81.4639 12.5569 79.9035 12.5569 78.3432 12.5347C77.8255 12.5273 77.5705 12.7268 77.4054 13.1849C77.0453 14.1602 76.6252 15.1133 76.2576 16.0885C76.0926 16.5244 75.845 16.7313 75.3649 16.7018C74.9373 16.6722 74.5097 16.7018 74.0821 16.7018C73.2344 16.6944 73.1969 16.6426 73.5119 15.8595C75.2299 11.6112 76.9553 7.37024 78.6732 3.12193C78.8233 2.75251 78.9733 2.39048 79.1158 2.02106C79.5059 1.05319 80.6988 0.587718 81.659 1.02363C81.9816 1.1714 82.0266 1.48171 82.1316 1.74769C84.0221 6.43192 85.9126 11.1161 87.7956 15.8004C88.1406 16.6574 88.1106 16.6944 87.1504 16.7018C86.9703 16.7018 86.7978 16.7018 86.6178 16.7018L86.6253 16.687ZM80.6913 4.23019C79.8735 6.30632 79.1384 8.16819 78.4032 10.0301C78.2681 10.3625 78.3507 10.562 78.7408 10.562C80.0011 10.562 81.2614 10.562 82.5217 10.562C82.8668 10.562 83.0468 10.429 82.9043 10.0522C82.1916 8.18296 81.479 6.31371 80.6913 4.23019V4.23019Z" fill="#1C1C1C"/>
<path d="M37.3542 16.6882C36.404 16.6882 36.1014 16.2622 36.4465 15.41C38.2845 10.8662 40.1374 6.32974 41.9454 1.7785C42.238 1.03967 42.6956 0.914063 43.3933 0.92884C44.0684 0.951005 44.6161 0.936228 44.9311 1.74895C46.7841 6.47012 48.6971 11.1691 50.5876 15.8755C50.8877 16.6217 50.8426 16.6735 50.0474 16.6882C48.7671 16.7129 47.8919 16.1464 47.4218 14.9889C47.1592 14.3461 46.8891 13.7107 46.6416 13.0605C46.499 12.6837 46.259 12.5286 45.8464 12.5286C44.2335 12.5434 42.6206 12.5434 41.0152 12.5286C40.5575 12.5286 40.3325 12.7133 40.1824 13.1123C39.8974 13.8807 39.5898 14.6343 39.2822 15.3879C38.6746 16.8729 38.9521 16.6587 37.3617 16.6808L37.3542 16.6882ZM43.5358 4.49742H43.3257C42.6056 6.34452 41.8854 8.17683 41.1577 10.0091C41.0002 10.4155 41.1952 10.5633 41.5778 10.5633C42.8081 10.5633 44.0384 10.5633 45.2687 10.5633C45.7038 10.5633 45.8014 10.3786 45.6363 10.0091C45.5388 9.78011 45.4638 9.55107 45.3738 9.31464C44.7586 7.70398 44.1435 6.1007 43.5283 4.49003L43.5358 4.49742Z" fill="#1C1C1C"/>
<path d="M53.7009 8.78923C53.7009 6.46928 53.7159 4.14194 53.6934 1.82199C53.6934 1.19398 53.9034 0.942775 54.5636 0.935386C56.3265 0.898445 56.3265 0.883668 56.3265 2.5756C56.3265 6.2033 56.3415 9.83837 56.3115 13.4661C56.3115 14.2123 56.5291 14.4561 57.2943 14.4413C59.5073 14.397 61.7279 14.4266 63.941 14.4266C64.8862 14.4266 64.9237 14.4635 64.9312 15.387C64.9312 15.5865 64.9237 15.786 64.9312 15.9781C64.9537 16.4657 64.7662 16.7022 64.226 16.6948C60.9477 16.68 57.6769 16.68 54.3985 16.6948C53.7984 16.6948 53.6934 16.3919 53.6934 15.9042C53.7009 13.5326 53.6934 11.1609 53.6934 8.78923H53.7009Z" fill="#1C1C1C"/>
<path d="M67.7518 8.78215C67.7518 6.4622 67.7669 4.13487 67.7443 1.81492C67.7368 1.18691 67.9319 0.928312 68.6071 0.935701C70.8126 0.965254 70.5125 0.780545 70.52 2.79018C70.5351 7.09021 70.52 11.3902 70.52 15.6829C70.52 16.6582 70.49 16.6877 69.5073 16.6803C67.5343 16.6655 67.7743 16.902 67.7593 14.9958C67.7518 12.9196 67.7593 10.8435 67.7593 8.76737L67.7518 8.78215Z" fill="#1C1C1C"/>
<path d="M10.8337 12.9869C10.7812 12.7505 10.9162 12.6249 11.0963 12.4993C11.4714 12.2481 11.854 12.0116 12.2066 11.7309C12.4541 11.5314 12.6567 11.6053 12.8967 11.7309C14.4496 12.551 15.995 13.3785 17.5554 14.1838C17.938 14.3833 18.0055 14.5902 17.7355 14.9374C16.5802 16.4594 15.1098 17.5825 13.3394 18.3435C13.0168 18.4838 12.7092 18.5799 12.5517 18.1218C11.9965 16.452 11.4264 14.7897 10.8637 13.1273C10.8487 13.0829 10.8412 13.0312 10.8262 12.9869H10.8337Z" fill="#1C1C1C"/>
</svg>
