<svg width="24" height="25" viewBox="0 0 24 25" fill="none" xmlns="http://www.w3.org/2000/svg">
<path d="M8 4.55693C9.42701 3.61257 11.1389 3.0625 12.9796 3.0625C17.9614 3.0625 22 7.09194 22 12.0625C22 17.0331 17.9614 21.0625 12.9796 21.0625C11.1389 21.0625 9.42701 20.5124 8 19.5681" stroke="#FF3366" stroke-width="1.5" stroke-linecap="round"/>
<path d="M15 9.0625H11.5C10.6716 9.0625 10 9.73407 10 10.5625V10.5625C10 11.3909 10.6716 12.0625 11.5 12.0625H14.5C15.3284 12.0625 16 12.7341 16 13.5625V13.5625C16 14.3909 15.3284 15.0625 14.5 15.0625H10" stroke="#FF3366" stroke-width="1.5" stroke-linecap="round" stroke-linejoin="round"/>
<path d="M13.457 7.0625V9.0625" stroke="#FF3366" stroke-width="1.5" stroke-linecap="round" stroke-linejoin="round"/>
<path fill-rule="evenodd" clip-rule="evenodd" d="M12.707 17.0625V15.0625H14.207V17.0625C14.207 17.4767 13.8712 17.8125 13.457 17.8125C13.0428 17.8125 12.707 17.4767 12.707 17.0625Z" fill="#FF3366"/>
<path d="M6.45703 17.0625H4.45703" stroke="#FF3366" stroke-width="1.5" stroke-linecap="round" stroke-linejoin="round"/>
<path d="M6.45703 12.0625H2.45703" stroke="#FF3366" stroke-width="1.5" stroke-linecap="round" stroke-linejoin="round"/>
<path d="M6.45703 7.0625H4.45703" stroke="#FF3366" stroke-width="1.5" stroke-linecap="round" stroke-linejoin="round"/>
</svg>
