<svg width="99" height="24" viewBox="0 0 99 24" fill="none" xmlns="http://www.w3.org/2000/svg">
<path d="M-0.000723638 1.93958C0.735949 1.93958 1.48362 1.93958 2.22029 1.93958C2.4182 1.93958 2.53915 2.00646 2.66009 2.16252C5.3429 5.79652 8.0367 9.43052 10.7195 13.0645C10.7635 13.1203 10.7855 13.1871 10.8624 13.2206C10.9064 13.1425 10.8844 13.0645 10.8844 12.9865C10.8844 9.48625 10.8844 5.99717 10.8844 2.49694C10.8844 2.4412 10.8844 2.38546 10.8844 2.34088C10.8844 2.07334 11.02 1.93958 11.2913 1.93958C11.9949 1.93958 12.7096 1.93958 13.4133 1.93958C13.4573 1.93958 13.4903 1.93958 13.5343 1.93958C13.7871 1.93958 13.7981 1.95072 13.7981 2.19596C13.7981 2.40776 13.7981 2.60841 13.7981 2.82021C13.7981 7.86991 13.7981 12.9196 13.7981 17.9693C13.7981 18.0473 13.7981 18.1142 13.7981 18.1922C13.7981 18.3037 13.7542 18.3595 13.6332 18.3595C12.8965 18.3595 12.1489 18.3595 11.4122 18.3595C11.2803 18.3595 11.2143 18.2591 11.1483 18.17C10.0818 16.732 9.02626 15.3051 7.95974 13.8671C6.33246 11.6711 4.71618 9.47511 3.0889 7.29025C3.03393 7.22337 3.00094 7.14533 2.91298 7.0896C2.869 7.17878 2.89099 7.25681 2.89099 7.34599C2.89099 10.9131 2.89099 14.4691 2.89099 18.0362C2.89099 18.3706 2.89099 18.3706 2.56114 18.3706C1.70352 18.3706 0.8459 18.3706 -0.0117188 18.3706V1.93958H-0.000723638Z" fill="#212121"/>
<path d="M59.9883 24C59.9883 23.1528 59.9883 22.3056 59.9883 21.4584C59.9883 21.3024 60.0762 21.2801 60.2082 21.2689C60.8569 21.1909 61.4616 21.0014 61.9454 20.5332C62.4402 20.0539 62.6821 19.4631 62.6821 18.772C62.6931 17.4231 62.6821 16.0743 62.6821 14.7255C62.6821 12.418 62.6821 10.1106 62.6821 7.80308C62.6821 7.55041 62.8104 7.42407 63.0669 7.42407C63.7816 7.42407 64.5073 7.42407 65.222 7.42407C65.4089 7.42407 65.4748 7.47981 65.4748 7.66931C65.4748 11.4482 65.5078 15.2383 65.4638 19.0172C65.4419 21.1129 64.3753 22.5843 62.4952 23.4315C61.8794 23.7102 61.2197 23.8774 60.549 23.9666C60.505 23.9666 60.4721 23.9889 60.4391 24H59.9993H59.9883Z" fill="#212121"/>
<path d="M75.8996 8.10399C75.8996 7.91449 75.8996 7.76958 75.8996 7.62466C75.8996 7.49089 75.9436 7.43516 76.0865 7.43516C76.8892 7.43516 77.6918 7.43516 78.5055 7.43516C78.6484 7.43516 78.7034 7.50204 78.7034 7.63581C78.7034 7.69154 78.7034 7.75843 78.7034 7.81416C78.7034 11.2252 78.7034 14.6363 78.7034 18.0362C78.7034 18.2443 78.5971 18.3483 78.3845 18.3483C77.6369 18.3483 76.8892 18.3483 76.1415 18.3483C75.9546 18.3483 75.8886 18.2814 75.8996 18.1031C75.8996 17.9804 75.8996 17.8467 75.8996 17.7241C75.8117 17.6906 75.7677 17.7575 75.7237 17.8021C74.6572 18.5935 73.4697 18.8276 72.1723 18.6493C69.7534 18.3149 67.8732 16.3084 67.4554 14.0343C67.0266 11.7157 67.8842 9.38592 69.9183 8.01481C70.8749 7.36828 71.9414 7.05615 73.0959 7.05615C74.0634 7.05615 74.943 7.37942 75.7347 7.97023C75.7787 8.00367 75.8227 8.02596 75.9106 8.09285L75.8996 8.10399ZM73.4257 16.1411C74.1954 16.1189 75.02 15.6284 75.5368 14.6363C76.0426 13.6665 76.0316 12.6409 75.7347 11.6154C75.4158 10.5118 74.3933 9.72034 73.3048 9.65346C71.9084 9.57543 70.9298 10.2889 70.468 11.3701C70.1932 12.0167 70.1602 12.6967 70.2151 13.3989C70.3361 14.9818 71.5456 16.1411 73.4367 16.1411H73.4257Z" fill="#212121"/>
<path d="M24.1207 8.05939C24.1207 7.90333 24.1207 7.75842 24.1207 7.6135C24.1207 7.49088 24.1647 7.424 24.2966 7.424C25.1103 7.424 25.9349 7.424 26.7485 7.424C26.8695 7.424 26.9135 7.47974 26.9135 7.59121C26.9135 7.6358 26.9135 7.68039 26.9135 7.73612C26.9135 11.1695 26.9135 14.5917 26.9135 18.025C26.9135 18.2405 26.8035 18.3483 26.5836 18.3483C25.8469 18.3483 25.0993 18.3483 24.3626 18.3483C24.1647 18.3483 24.1097 18.2814 24.1097 18.0919C24.1097 17.9804 24.1647 17.8021 24.0767 17.7575C23.9778 17.7018 23.8788 17.8578 23.7908 17.9247C22.7463 18.627 21.5918 18.8276 20.3604 18.6604C17.9524 18.3148 16.0393 16.2638 15.6655 13.9563C15.3796 12.2285 15.7314 10.6344 16.8089 9.25215C17.7985 7.99251 19.1069 7.27909 20.7012 7.10073C21.9217 6.96696 23.0212 7.27909 23.9998 8.0148C24.0217 8.02595 24.0437 8.04825 24.0657 8.05939C24.0657 8.05939 24.0767 8.05939 24.1207 8.05939ZM18.4252 12.9642C18.4252 13.1871 18.4472 13.5215 18.5132 13.856C18.7441 14.993 19.6457 15.8959 20.7342 16.0965C21.9767 16.3195 23.0762 15.8513 23.6699 14.8035C24.3406 13.6219 24.3406 12.3734 23.7579 11.1695C22.8783 9.34132 20.4813 9.25215 19.3268 10.4338C18.6561 11.1137 18.4032 11.9386 18.4142 12.9753L18.4252 12.9642Z" fill="#212121"/>
<path d="M44.7708 8.10407C44.7708 7.91456 44.7708 7.76965 44.7708 7.62474C44.7708 7.49097 44.8148 7.43523 44.9577 7.43523C45.7604 7.43523 46.563 7.43523 47.3766 7.43523C47.5855 7.43523 47.5636 7.569 47.5636 7.70277C47.5636 9.53091 47.5636 11.3702 47.5636 13.1984C47.5636 14.8259 47.5636 16.4645 47.5636 18.092C47.5636 18.3707 47.5636 18.3707 47.2887 18.3707C46.53 18.3707 45.7713 18.3707 45.0127 18.3707C44.8368 18.3707 44.7598 18.3149 44.7708 18.1254C44.7708 18.0028 44.7708 17.869 44.7708 17.7464C44.6938 17.713 44.6608 17.7687 44.6279 17.8022C43.3634 18.7385 41.956 18.9615 40.4717 18.5379C38.1627 17.8802 36.7664 16.2973 36.3375 13.9341C35.9857 12.0056 36.5025 10.2555 37.8659 8.82864C39.0203 7.62474 40.4607 7.04508 42.132 7.08967C43.0336 7.11196 43.8472 7.42409 44.5839 7.95915C44.6389 7.99259 44.6938 8.03718 44.7928 8.11521L44.7708 8.10407ZM44.8148 13.098C44.8148 12.6076 44.7818 12.2285 44.6938 11.8718C44.386 10.6122 43.3854 9.73156 42.2089 9.66468C40.8126 9.58665 39.713 10.2889 39.2732 11.5709C39.0094 12.3177 39.0204 13.098 39.1743 13.8672C39.5811 15.9071 42 16.8546 43.6383 15.6062C44.4849 14.9596 44.8038 14.0344 44.8258 13.1092L44.8148 13.098Z" fill="#212121"/>
<path d="M84.146 18.3929C83.5743 18.3929 83.0135 18.3929 82.4418 18.3929C82.3319 18.3929 82.2219 18.3929 82.1669 18.2815C82.1119 18.17 82.1779 18.092 82.2329 18.0028C83.7062 15.6842 85.1906 13.3655 86.6639 11.0469C87.0048 10.5118 87.3456 9.96563 87.6975 9.43056C87.7964 9.2745 87.7964 9.15188 87.6975 8.99582C87.0488 7.98142 86.4 6.96702 85.7513 5.94148C84.5748 4.10218 83.4094 2.25174 82.2329 0.412446C82.1779 0.323268 82.09 0.222943 82.1669 0.100324C82.2329 -0.022296 82.3538 -1.53016e-06 82.4638 -1.53016e-06C83.5853 -1.53016e-06 84.7068 -1.53016e-06 85.8283 -1.53016e-06C86.0812 -1.53016e-06 86.2571 0.0891764 86.389 0.300974C87.7964 2.51927 89.2038 4.73757 90.6112 6.94473C90.963 7.50209 91.3149 8.05945 91.6777 8.60566C91.9416 9.00696 91.9416 9.39712 91.6777 9.79842C89.9405 12.5183 88.1922 15.2383 86.466 17.9693C86.2791 18.2703 86.0482 18.3929 85.7073 18.3818C85.1906 18.3595 84.6628 18.3818 84.146 18.3818V18.3929Z" fill="#212121"/>
<path d="M52.9305 7.94802C53.2274 7.71392 53.5352 7.51327 53.8761 7.36836C55.0086 6.90018 56.1411 6.95591 57.2406 7.46868C58.8019 8.19325 59.6595 9.44175 59.8354 11.1696C59.8904 11.7269 59.9124 12.2731 59.9124 12.8305C59.9124 14.5806 59.9124 16.3196 59.9124 18.0697C59.9124 18.3595 59.9124 18.3595 59.6265 18.3595C58.8788 18.3595 58.1202 18.3595 57.3725 18.3595C57.1856 18.3595 57.1196 18.3038 57.1196 18.1031C57.1196 16.2193 57.1196 14.3354 57.1196 12.4515C57.1196 11.9276 57.0647 11.4148 56.9217 10.902C56.7128 10.1552 56.1081 9.67584 55.3384 9.65354C55.0855 9.65354 54.8216 9.65354 54.5688 9.70928C53.5902 9.93222 53.1284 10.445 52.9745 11.5263C52.9085 11.9499 52.8865 12.3735 52.8865 12.8082C52.8865 14.5583 52.8865 16.3084 52.8865 18.0586C52.8865 18.3595 52.8865 18.3595 52.5896 18.3595C51.842 18.3595 51.0833 18.3595 50.3356 18.3595C50.1597 18.3595 50.0938 18.3038 50.0938 18.1143C50.0938 14.6364 50.0938 11.1473 50.0938 7.66934C50.0938 7.49098 50.1487 7.4241 50.3356 7.4241C51.1053 7.4241 51.886 7.4241 52.6556 7.4241C52.8315 7.4241 52.9085 7.47983 52.8975 7.66934C52.8975 7.75851 52.8755 7.85884 52.9305 7.95916V7.94802Z" fill="#212121"/>
<path d="M32.2576 8.11519C32.6424 7.81421 33.0163 7.60242 33.4341 7.4798C34.0278 7.30144 34.6216 7.34603 35.2263 7.40177C35.3472 7.41291 35.3912 7.4798 35.3912 7.60242C35.3912 8.32699 35.3912 9.0627 35.3912 9.78727C35.3912 9.95448 35.3032 9.96563 35.1713 9.95448C34.7315 9.92104 34.2917 9.89875 33.8519 9.96563C33.0383 10.0994 32.6094 10.4896 32.4225 11.3144C32.3126 11.7826 32.2576 12.262 32.2576 12.7413C32.2576 14.5137 32.2576 16.2861 32.2576 18.0585C32.2576 18.2592 32.1586 18.3595 31.9607 18.3595C31.2131 18.3595 30.4544 18.3595 29.7067 18.3595C29.5308 18.3595 29.4648 18.3149 29.4648 18.1254C29.4648 14.6363 29.4648 11.1472 29.4648 7.65815C29.4648 7.4798 29.5198 7.42406 29.6957 7.42406C30.4764 7.42406 31.257 7.42406 32.0377 7.42406C32.2136 7.42406 32.2796 7.4798 32.2686 7.65815C32.2686 7.79192 32.2686 7.92569 32.2686 8.11519H32.2576Z" fill="#212121"/>
<path d="M95.7872 18.4264C95.2485 18.4264 94.7097 18.4264 94.1599 18.4264C93.8521 18.4264 93.6432 18.3149 93.4672 18.0474C92.6756 16.7878 91.862 15.5281 91.0703 14.2685C90.7625 13.778 90.7405 13.2652 91.0483 12.7747C91.5211 12.0056 92.0049 11.2587 92.4887 10.5007C92.6206 10.3001 92.7746 10.3112 92.9065 10.523C93.7641 11.8718 94.6217 13.2206 95.4903 14.5694C96.227 15.7288 96.9747 16.8881 97.7114 18.0585C97.7663 18.1366 97.8543 18.2146 97.7883 18.3261C97.7224 18.4375 97.6124 18.4264 97.5025 18.4264C96.9307 18.4264 96.359 18.4264 95.7762 18.4264H95.7872Z" fill="#212121"/>
<path d="M95.7662 2.29324e-06C96.3599 2.29324e-06 96.9536 2.29324e-06 97.5474 2.29324e-06C97.6353 2.29324e-06 97.7343 -0.0111449 97.8003 0.0891802C97.8552 0.189505 97.7893 0.267536 97.7343 0.345567C96.129 2.85369 94.5347 5.36182 92.9294 7.86995C92.7645 8.11519 92.6325 8.12634 92.4676 7.86995C92.0058 7.14538 91.544 6.42081 91.0822 5.69624C90.7414 5.16117 90.7524 4.62611 91.0932 4.09104C91.9069 2.80911 92.7315 1.52717 93.5451 0.256389C93.6551 0.078033 93.809 2.29324e-06 94.0289 2.29324e-06C94.6117 2.29324e-06 95.1944 2.29324e-06 95.7772 2.29324e-06H95.7662Z" fill="#212121"/>
<path d="M62.3542 3.75667C62.3542 2.78686 63.1239 2.0177 64.1024 2.0177C65.092 2.0177 65.8506 2.78686 65.8506 3.77896C65.8506 4.72648 65.048 5.50679 64.0914 5.50679C63.1129 5.50679 62.2992 4.6373 62.3542 3.75667Z" fill="#212121"/>
<path d="M97.6133 2.14026C97.6133 1.72782 97.8992 1.43799 98.295 1.43799C98.6908 1.43799 98.9987 1.75011 98.9987 2.14026C98.9987 2.54156 98.6798 2.86483 98.273 2.85369C97.8882 2.85369 97.6133 2.54156 97.6133 2.12912V2.14026ZM97.7892 2.16256C97.7892 2.44124 98.0201 2.67533 98.295 2.67533C98.5699 2.67533 98.8118 2.43009 98.8118 2.15141C98.8118 1.87273 98.5809 1.62749 98.295 1.62749C98.0091 1.62749 97.7892 1.86158 97.7892 2.16256Z" fill="#212121"/>
<path d="M97.8867 2.18489C97.8867 1.98424 97.9747 1.86162 98.1176 1.78359C98.2496 1.71671 98.3815 1.71671 98.5134 1.79474C98.5684 1.82818 98.6344 1.87277 98.5794 1.9508C98.5354 2.01768 98.4914 2.01768 98.4255 1.97309C98.3265 1.90621 98.2166 1.91736 98.1396 2.00654C98.0736 2.09571 98.0736 2.19604 98.1396 2.28522C98.2166 2.38554 98.3155 2.38554 98.4255 2.32981C98.4914 2.29636 98.5574 2.28522 98.5904 2.36325C98.6234 2.44128 98.5684 2.47472 98.5134 2.50816C98.3815 2.58619 98.2386 2.60849 98.1066 2.53046C97.9637 2.45243 97.8977 2.31866 97.8867 2.18489Z" fill="#212121"/>
</svg>
