<svg width="32" height="33" viewBox="0 0 32 33" fill="none" xmlns="http://www.w3.org/2000/svg">
<path d="M31.9746 4.76984V27.56C31.9164 27.692 31.9217 27.8373 31.8953 27.9746C31.4091 30.5074 29.2158 32.3219 26.634 32.3219C19.5521 32.3219 12.4701 32.3219 5.3881 32.3219C4.58213 32.3219 3.80524 32.1687 3.08383 31.8121C1.44017 30.9987 0.449231 29.6808 0.100417 27.8795C0.0528518 27.6365 0.0660632 27.3883 0 27.1479V5.21355C0.0132126 5.14224 0.0316981 5.07093 0.0369831 4.99962C0.076621 4.3367 0.232537 3.70019 0.523215 3.10594C1.3239 1.46846 2.60817 0.451629 4.40773 0.097721C4.61385 0.0581044 4.82789 0.0713099 5.02608 0H27.0066C27.0489 0.0396166 27.1044 0.0343344 27.1546 0.0396166C27.3369 0.0633866 27.5219 0.0713099 27.7016 0.113568C29.8817 0.633866 31.2585 1.98347 31.8425 4.1439C31.8979 4.35254 31.8979 4.56912 31.9719 4.77248L31.9746 4.76984ZM20.0198 24.4012C20.0198 23.7436 20.0198 23.0833 20.0198 22.4256C20.0198 22.0876 20.0013 21.7522 19.9616 21.4167C19.8031 20.0566 18.9416 19.082 17.6124 18.7624C16.743 18.5538 15.8684 18.5828 14.9937 18.7202C14.3489 18.8205 13.7332 19.0054 13.1492 19.3039C13.0409 19.3593 13.0118 19.4174 13.0488 19.5389C13.1836 19.9694 13.3104 20.4052 13.4346 20.841C13.4663 20.9519 13.498 20.9862 13.6169 20.9229C14.4467 20.4844 15.3319 20.289 16.27 20.3603C16.5449 20.3814 16.8118 20.4448 17.0549 20.5795C17.3403 20.7353 17.5464 20.9572 17.6204 21.282C17.6679 21.496 17.6494 21.5171 17.4327 21.5224C16.5449 21.5462 15.6649 21.6175 14.814 21.8869C14.1824 22.0849 13.5984 22.3649 13.1307 22.8482C11.9891 24.0288 12.1741 26.2526 14.0054 26.9261C15.3214 27.4121 16.5581 27.1955 17.6019 26.1998C17.6732 26.1311 17.7049 26.1285 17.734 26.2288C17.7921 26.419 17.8635 26.6065 17.9163 26.7993C17.9507 26.9261 18.0167 26.9631 18.1409 26.9604C18.6985 26.9551 19.2587 26.9525 19.8163 26.9604C19.9801 26.9604 20.0224 26.905 20.0198 26.7518C20.0145 25.9674 20.0171 25.183 20.0171 24.3986L20.0198 24.4012ZM27.0516 25.83C27.1493 26.1839 27.2365 26.4982 27.3185 26.8125C27.3475 26.9234 27.4004 26.9657 27.5166 26.9631C28.0689 26.9578 28.6239 26.9578 29.1762 26.9631C29.3136 26.9631 29.3585 26.9208 29.3585 26.7808C29.3558 24.2005 29.3558 21.6201 29.3585 19.0397C29.3585 18.8918 29.3109 18.8522 29.1682 18.8522C28.4838 18.8575 27.7994 18.8522 27.1123 18.8549C26.9503 18.8549 26.8692 18.9341 26.8692 19.0926C26.8692 20.5769 26.8666 22.0638 26.8692 23.5481C26.8692 23.9654 26.7344 24.322 26.4543 24.6257C26.0236 25.0879 25.4925 25.2331 24.8847 25.0879C24.3245 24.9532 24.0681 24.5332 23.9386 24.0129C23.8647 23.7145 23.8462 23.4108 23.8462 23.1044C23.8462 21.7574 23.8462 20.4078 23.8488 19.0609C23.8488 18.9077 23.8118 18.8496 23.6453 18.8496C22.9609 18.8575 22.2765 18.8575 21.5894 18.8496C21.423 18.8496 21.3886 18.905 21.3886 19.0582C21.3939 20.5848 21.3912 22.114 21.3912 23.6406C21.3912 24.182 21.4441 24.7128 21.6238 25.2252C21.8775 25.9542 22.2844 26.5669 23.0243 26.8706C24.0496 27.2906 25.0697 27.243 26.058 26.7254C26.4517 26.5194 26.7609 26.2156 27.0463 25.83H27.0516ZM9.91475 22.5392C9.91475 21.9476 9.91739 21.4326 9.91475 20.9149C9.91475 20.7617 9.9544 20.701 10.1209 20.7063C10.5146 20.7168 10.911 20.7063 11.3074 20.7116C11.421 20.7116 11.4659 20.6825 11.4659 20.561C11.4606 20.046 11.4606 19.5283 11.4659 19.0133C11.4659 18.8866 11.421 18.8496 11.2994 18.8522C10.9083 18.8575 10.5199 18.8522 10.1288 18.8522C9.92004 18.8522 9.9174 18.8522 9.9174 18.6409C9.9174 17.8777 9.91212 17.1144 9.92004 16.3511C9.92004 16.1953 9.87776 16.1398 9.71656 16.1425C9.04272 16.1504 8.36888 16.1451 7.69239 16.1451C7.48628 16.1451 7.48362 16.1451 7.48362 16.359C7.48362 17.1329 7.48362 17.9067 7.48362 18.6806C7.48362 18.81 7.44135 18.8575 7.30922 18.8549C7.03969 18.8469 6.77279 18.8549 6.50326 18.8522C6.38963 18.8522 6.34205 18.8813 6.3447 19.0028C6.34998 19.5231 6.34998 20.046 6.3447 20.5663C6.3447 20.6772 6.38433 20.7142 6.49268 20.7116C6.74107 20.7063 6.98684 20.7116 7.23524 20.7116C7.39908 20.7116 7.48099 20.7908 7.48099 20.9493C7.48099 21.9291 7.48099 22.909 7.48099 23.8888C7.48099 24.3167 7.49421 24.7419 7.58141 25.1618C7.72411 25.8564 8.02534 26.4507 8.67541 26.7967C9.52894 27.2509 10.4168 27.2615 11.3259 26.9789C11.4448 26.9419 11.4897 26.8812 11.4897 26.7544C11.4818 26.2869 11.4871 25.8168 11.4871 25.3493C11.4871 25.1451 11.3866 25.0562 11.1858 25.0826C10.5199 25.1724 10.1182 24.9215 9.98346 24.3272C9.95704 24.2137 9.94647 24.1001 9.9359 23.9839C9.8989 23.4794 9.91739 22.9724 9.91475 22.5419V22.5392ZM2.65309 21.5541C2.65309 23.2866 2.65309 25.0192 2.65045 26.7544C2.65045 26.9076 2.6848 26.9683 2.85128 26.9657C3.55684 26.9578 4.26504 26.9578 4.97059 26.9657C5.12122 26.9657 5.16878 26.9234 5.16878 26.7703C5.16614 23.2946 5.16614 19.8162 5.16878 16.3405C5.16878 16.1873 5.12122 16.1451 4.97059 16.1451C4.27561 16.1504 3.57798 16.1477 2.88299 16.1477C2.65573 16.1477 2.65309 16.1477 2.65309 16.3722C2.65309 18.0995 2.65309 19.8268 2.65309 21.5567V21.5541ZM27.1229 16.1451C26.7794 16.1451 26.4385 16.1451 26.095 16.1451C26.0025 16.1451 25.9364 16.1689 25.8835 16.2481C25.4343 16.9031 24.9851 17.5581 24.5332 18.2131C24.4592 18.3214 24.483 18.3583 24.6072 18.3583C25.1014 18.3583 25.5982 18.3583 26.0923 18.3583C26.1663 18.3583 26.2218 18.3293 26.272 18.2791C26.9194 17.6109 27.5695 16.9427 28.2169 16.2719C28.2407 16.2455 28.283 16.2217 28.2724 16.1821C28.2565 16.1292 28.201 16.1477 28.164 16.1477C27.8152 16.1477 27.4691 16.1477 27.1203 16.1477L27.1229 16.1451Z" fill="#212121"/>
</svg>
