<svg width="84" height="27" viewBox="0 0 84 27" fill="none" xmlns="http://www.w3.org/2000/svg">
<path d="M17.409 0H9.03744C4.0462 0 0 4.04403 0 9.03259V17.3996C0 22.3882 4.0462 26.4322 9.03744 26.4322H17.409C22.4002 26.4322 26.4464 22.3882 26.4464 17.3996V9.03259C26.4464 4.04403 22.4002 0 17.409 0Z" fill="#212121"/>
<path d="M16.9932 13.2795L14.2212 7.05969H12.2314L10.5983 10.7282L6.96484 18.8839C9.12379 18.8839 10.2786 18.1101 11.8641 13.5674L13.9226 18.192L15.4262 15.7859L18.3198 18.8866H19.4904L16.9932 13.2821V13.2795Z" fill="#F4F4F4"/>
<path d="M41.8881 11.9563V18.4983H40.0674V16.9533C39.1901 18.2025 37.9613 18.7941 36.2384 18.7941C33.8865 18.7941 32.6445 17.3389 32.6445 15.6063C32.6445 14.0032 33.5113 12.9784 35.1549 12.4581C36.3863 12.0936 38.1383 11.8691 39.8613 11.6314C39.7926 10.1656 39.124 9.4763 37.4592 9.4763C36.3361 9.4763 35.3135 9.96755 34.9488 11.1481L33.0303 10.5565C33.543 8.73679 35.0175 7.57471 37.4804 7.57471C39.3803 7.57471 40.8575 8.20329 41.5155 9.60044C41.8511 10.2977 41.8907 11.0663 41.8907 11.951L41.8881 11.9563ZM39.6234 15.0068C39.7899 14.5155 39.8296 13.8368 39.8401 13.3429C38.2361 13.5779 37.0443 13.747 36.1485 14.0111C35.3029 14.2963 34.6819 14.748 34.6819 15.5852C34.6819 16.4224 35.2818 17.1091 36.6004 17.1091C38.3524 17.1091 39.3856 16.0368 39.6234 15.0041V15.0068Z" fill="#212121"/>
<path d="M49.7865 7.87314V9.80115C49.0968 9.61363 48.1719 9.67438 47.4637 10.126C46.4595 10.7652 46.1239 11.8876 46.1239 13.1369V18.4983H44.0469V7.87314H45.8782V9.56609C46.1239 9.12239 46.4595 8.73943 46.8612 8.47532C47.6592 7.88371 48.8299 7.69883 49.7838 7.87579L49.7865 7.87314Z" fill="#212121"/>
<path d="M57.0247 7.87314V9.80115C56.335 9.61363 55.4101 9.67438 54.7019 10.126C53.6978 10.7652 53.3622 11.8876 53.3622 13.1369V18.4983H51.2852V7.87314H53.1164V9.56609C53.3622 9.12239 53.6978 8.73943 54.0995 8.47532C54.8975 7.88371 56.0681 7.69883 57.0221 7.87579L57.0247 7.87314Z" fill="#212121"/>
<path d="M58.418 5.13962C58.418 4.42124 58.9703 3.86133 59.7075 3.86133C60.4448 3.86133 60.9865 4.42124 60.9865 5.13962C60.9865 5.85801 60.4448 6.41792 59.7075 6.41792C58.9703 6.41792 58.418 5.84744 58.418 5.13962ZM58.6743 18.501V7.87317H60.7328V18.4983H58.6743V18.501Z" fill="#212121"/>
<path d="M73.0839 13.1765C73.0839 16.3643 71.2341 18.7941 68.2692 18.7941C66.9294 18.7941 65.8671 18.3214 65.1008 17.5238V18.4983H63.2695V4.33142H65.336V8.60209C66.0733 7.95238 67.0378 7.57998 68.2295 7.57998C71.2209 7.57998 73.0812 9.97019 73.0812 13.1791L73.0839 13.1765ZM70.8985 13.1765C70.8985 11.09 69.963 9.43668 67.9151 9.43668C65.9755 9.43668 65.1008 10.9712 65.1008 13.1765C65.1008 15.3818 65.957 16.9348 67.9838 16.9348C70.0106 16.9348 70.8985 15.2815 70.8985 13.1765Z" fill="#212121"/>
<path d="M83.4701 11.9563V18.4983H81.6494V16.9533C80.7721 18.2025 79.5433 18.7941 77.8204 18.7941C75.4686 18.7941 74.2266 17.3389 74.2266 15.6063C74.2266 14.0032 75.0933 12.9784 76.737 12.4581C77.9684 12.0936 79.7204 11.8691 81.4433 11.6314C81.3746 10.1656 80.706 9.4763 79.0413 9.4763C77.9182 9.4763 76.8955 9.96755 76.5309 11.1481L74.6124 10.5565C75.125 8.73679 76.5995 7.57471 79.0624 7.57471C80.9624 7.57471 82.4395 8.20329 83.0975 9.60044C83.4331 10.2977 83.4728 11.0663 83.4728 11.951L83.4701 11.9563ZM81.2055 15.0068C81.372 14.5155 81.4116 13.8368 81.4222 13.3429C79.8182 13.5779 78.6264 13.747 77.7306 14.0111C76.8849 14.2963 76.264 14.748 76.264 15.5852C76.264 16.4224 76.8638 17.1091 78.1824 17.1091C79.9344 17.1091 80.9677 16.0368 81.2055 15.0041V15.0068Z" fill="#212121"/>
</svg>
