<svg width="104" height="14" viewBox="0 0 104 14" fill="none" xmlns="http://www.w3.org/2000/svg">
<path d="M104 5.72988C103.652 5.84306 103.793 5.52543 103.714 5.39765C103.561 5.47067 103.619 5.76274 103.39 5.74083C103.198 5.72258 103.238 5.48162 103.086 5.37574C103.075 5.45241 103.067 5.51448 103.06 5.57289C103.049 5.65686 103.024 5.74083 102.922 5.72623C102.828 5.71528 102.81 5.624 102.806 5.54368C102.799 5.39765 102.806 5.25161 102.795 5.10557C102.792 5.0143 102.781 4.90478 102.661 4.90113C102.534 4.89382 102.523 5.00335 102.516 5.09462C102.505 5.25161 102.508 5.41225 102.497 5.56924C102.494 5.65321 102.461 5.73353 102.363 5.72988C102.262 5.72623 102.254 5.63496 102.243 5.55464C102.211 5.28447 102.341 4.97414 102.011 4.77334C101.906 4.70763 102.04 4.60905 102.135 4.60905C102.425 4.60175 102.719 4.57619 102.998 4.62731C103.296 4.67842 103.223 5.04716 103.419 5.22606C103.655 5.06542 103.521 4.53604 103.997 4.61636V5.72988H104Z" fill="#212121"/>
<path d="M8.30627 0C8.3825 0.0693672 8.4805 0.127779 8.53495 0.21175C8.70193 0.463663 8.69467 0.719228 8.45146 0.912726C8.22278 1.09527 7.97595 1.06606 7.7872 0.850658C7.59481 0.631604 7.62385 0.386994 7.81261 0.175242C7.87795 0.0985728 7.98321 0.0584144 8.07033 0H8.30627Z" fill="#212121"/>
<path d="M6.6465 0C6.71547 0.0584144 6.79895 0.109526 6.85703 0.178893C7.05305 0.412551 7.06394 0.657163 6.84614 0.887169C6.6465 1.09162 6.3307 1.08432 6.14921 0.868914C5.94594 0.627954 5.96408 0.386995 6.18914 0.167941C6.25447 0.105876 6.33796 0.0584132 6.41056 0.00730058C6.49042 0.00730058 6.57027 0.00730058 6.6465 0.00730058V0Z" fill="#212121"/>
<path d="M0 6.44471C0.0689675 6.36439 0.123416 6.26581 0.206903 6.21105C0.439214 6.05406 0.686045 6.05771 0.874799 6.27676C1.04903 6.47756 1.05266 6.72218 0.874799 6.92298C0.686045 7.13473 0.442844 7.16028 0.206903 6.99599C0.123416 6.93758 0.0689675 6.84265 0 6.76233V6.44471Z" fill="#212121"/>
<path d="M11.2396 10.6422C12.3431 10.7152 13.3922 10.5728 14.325 9.90473C15.7479 8.88978 16.3759 7.08623 15.8641 5.40681C15.3596 3.74565 13.8096 2.57736 12.0745 2.55546C11.4429 2.54815 10.8113 2.5445 10.1797 2.55546C9.86756 2.55911 9.71147 2.45323 9.71873 2.121C9.72962 1.57702 9.72236 1.03668 9.71873 0.492699C9.71873 0.273645 9.76955 0.0801458 10.0345 0.0837967C11.2179 0.0947494 12.4048 -0.0184283 13.5737 0.280946C16.2706 0.970966 18.1872 3.24548 18.4522 6.02381C18.8007 9.63456 16.0238 13.0007 12.1326 13.1212C11.4865 13.1431 10.8404 13.1175 10.1979 13.1285C9.87119 13.1358 9.70784 13.0226 9.7151 12.6721C9.72962 12.1427 9.72599 11.6133 9.7151 11.084C9.70784 10.759 9.85304 10.6313 10.1688 10.6422C10.5246 10.6568 10.8803 10.6422 11.236 10.6422H11.2396Z" fill="#212121"/>
<path d="M46.0969 6.53261C46.0969 5.28766 46.1078 4.03904 46.0896 2.79409C46.0824 2.41439 46.2058 2.27201 46.5869 2.28661C47.6396 2.33407 48.6995 2.19899 49.7449 2.35963C51.7559 2.66631 52.9537 3.95872 53.1715 5.98863C53.2913 7.1058 53.1316 8.16457 52.5 9.1065C51.7123 10.2784 50.5362 10.7567 49.1823 10.8188C48.3147 10.8589 47.4436 10.8188 46.5724 10.8334C46.2167 10.8407 46.0824 10.7092 46.086 10.3478C46.1005 9.07364 46.0933 7.80313 46.0933 6.52896L46.0969 6.53261ZM47.3819 6.56547C47.3819 7.50375 47.3891 8.44569 47.3782 9.38397C47.3782 9.67239 47.4799 9.78922 47.7703 9.77827C48.2313 9.76366 48.6923 9.77826 49.1533 9.77096C50.4201 9.74541 51.451 8.9276 51.7776 7.69725C51.941 7.07294 51.9228 6.43404 51.8539 5.80243C51.7196 4.59033 50.9101 3.69951 49.7377 3.42569C49.1024 3.27601 48.4527 3.38188 47.8102 3.34537C47.4799 3.32712 47.3746 3.4622 47.3782 3.78713C47.3928 4.71446 47.3819 5.63814 47.3855 6.56547H47.3819Z" fill="#212121"/>
<path d="M58.3736 5.2969C58.4607 5.16547 58.5296 5.01578 58.6422 4.90991C59.5061 4.06655 61.1286 4.20163 61.6731 5.22388C61.8219 5.505 61.9163 5.39913 62.0506 5.21293C62.4318 4.6945 62.9508 4.40243 63.5933 4.36592C64.8275 4.28925 65.626 5.00848 65.7059 6.41043C65.7858 7.77221 65.7349 9.13765 65.7422 10.5031C65.7422 10.7148 65.6442 10.8061 65.4337 10.828C64.5806 10.9229 64.5153 10.8718 64.5189 9.99927C64.5189 8.98066 64.5189 7.95841 64.5262 6.93981C64.5262 6.6879 64.5044 6.43598 64.4354 6.19502C64.3302 5.82993 64.1487 5.53056 63.753 5.44294C63.3138 5.34436 62.9036 5.41373 62.6024 5.78247C62.2539 6.20963 62.0143 6.69155 62.0252 7.26839C62.0434 8.32715 61.9925 9.38957 62.0688 10.4447C62.0869 10.6856 61.9962 10.8061 61.7384 10.8317C60.8455 10.912 60.8056 10.8864 60.8092 9.97736C60.8092 8.95876 60.8128 7.93651 60.8165 6.9179C60.8165 6.63678 60.7947 6.36297 60.7039 6.09645C60.4644 5.39913 59.6186 5.15817 59.0596 5.64739C58.5478 6.1001 58.301 6.69155 58.2937 7.37427C58.2828 8.35636 58.2973 9.3348 58.2973 10.3169C58.2973 10.7952 58.2538 10.8317 57.7746 10.8353C57.6548 10.8353 57.5387 10.828 57.4189 10.8353C57.1321 10.8499 57.016 10.7112 57.0196 10.4301C57.0269 8.60097 57.0269 6.77187 57.0232 4.94642C57.0232 4.64704 57.1394 4.52291 57.4479 4.51926C58.1884 4.50466 58.1884 4.4937 58.2574 5.19833L58.3772 5.30786L58.3736 5.2969Z" fill="#212121"/>
<path d="M29.8698 9.43907C30.0985 8.44967 30.3054 7.57711 30.5087 6.70454C30.6466 6.10944 30.7918 5.51799 30.9152 4.9229C30.9769 4.62352 31.1257 4.5067 31.4343 4.514C32.6466 4.5359 32.4034 4.38622 32.6684 5.45958C32.9443 6.57676 33.2093 7.70123 33.4779 8.81841C33.5069 8.94254 33.5505 9.06667 33.6013 9.23826C33.7247 9.08493 33.732 8.93889 33.761 8.80381C34.0514 7.52599 34.3382 6.24453 34.6286 4.96671C34.7193 4.57241 35.4017 4.32415 35.732 4.56146C35.8518 4.64543 35.83 4.76591 35.801 4.88639C35.3328 6.76295 34.8609 8.63587 34.389 10.5124C34.3309 10.7424 34.1893 10.8447 33.957 10.8301C33.9425 10.8301 33.9316 10.8301 33.9171 10.8301C32.7519 10.8228 32.9516 10.9432 32.6866 9.91368C32.349 8.62126 32.0259 7.32519 31.6775 5.9634C31.5105 6.25913 31.4851 6.52929 31.427 6.78486C31.1584 7.96045 30.8898 9.13239 30.643 10.3153C30.5667 10.6913 30.4106 10.8556 30.0077 10.841C29.0422 10.8082 29.1729 10.9323 28.9297 10.0196C28.4868 8.35475 28.044 6.69359 27.6011 5.02877C27.4777 4.56511 27.5068 4.52495 27.9823 4.51765C28.7119 4.50669 28.7155 4.50669 28.8825 5.23322C29.1692 6.47088 29.4487 7.71219 29.7355 8.94984C29.7645 9.07397 29.8008 9.19811 29.8662 9.43541L29.8698 9.43907Z" fill="#212121"/>
<path d="M70.3315 7.88982C69.6854 7.88982 69.0393 7.89713 68.3931 7.88982C68.1173 7.88617 68.0265 7.97379 68.0701 8.26587C68.2443 9.45241 68.8324 10.0329 69.8778 10.011C70.6291 9.99639 71.0793 9.66051 71.3188 8.94128C71.4459 8.55794 72.19 8.33523 72.4876 8.5908C72.6147 8.70032 72.5639 8.83541 72.5348 8.95954C72.2953 9.97084 71.6528 10.5988 70.6691 10.8653C68.6509 11.4129 66.8976 10.0986 66.8142 7.99935C66.7779 7.04646 66.9085 6.13374 67.5292 5.378C68.3568 4.374 69.4531 4.16955 70.6473 4.48718C71.8125 4.79751 72.3787 5.68103 72.6002 6.80915C72.8107 7.88617 72.7925 7.88982 71.7145 7.88982C71.2535 7.88982 70.7925 7.88982 70.3315 7.88982ZM69.7108 6.98075C70.1064 6.98075 70.4985 6.98075 70.8941 6.98075C71.3297 6.9771 71.3951 6.88217 71.268 6.45137C71.0212 5.61896 70.4549 5.26117 69.5148 5.33419C68.8324 5.38896 68.2334 5.995 68.1354 6.71058C68.1028 6.94789 68.2298 6.98075 68.4077 6.98075C68.8432 6.98075 69.2752 6.98075 69.7108 6.98075Z" fill="#212121"/>
<path d="M82.7526 4.36448C83.3406 4.37908 83.8597 4.4594 84.3424 4.68941C84.9305 4.97053 85.2826 5.43784 85.406 6.0804C85.4604 6.35422 85.3733 6.50391 85.072 6.52581C84.4695 6.56962 84.4187 6.54407 84.1791 5.98183C84.0702 5.72627 83.8851 5.54372 83.631 5.43419C83.0974 5.20784 82.5565 5.20419 82.0157 5.41229C81.6672 5.54737 81.5003 5.82484 81.493 6.18263C81.4857 6.52946 81.7398 6.6901 82.023 6.79598C82.5457 6.99313 83.101 7.04059 83.6419 7.13916C83.9541 7.19758 84.259 7.27425 84.553 7.39108C85.239 7.66124 85.6165 8.16142 85.6419 8.8989C85.6673 9.60717 85.3516 10.1731 84.7417 10.5126C83.602 11.1442 82.415 11.1296 81.2498 10.5856C80.6 10.2826 80.2988 9.69845 80.1899 9.00478C80.1463 8.7127 80.2371 8.54111 80.5674 8.56302C80.738 8.57397 80.9086 8.56302 81.0792 8.56667C81.2462 8.56667 81.3369 8.64334 81.3805 8.81493C81.6273 9.75686 82.0375 10.0818 83.003 10.0562C83.395 10.0453 83.7943 10.0051 84.121 9.73496C84.5965 9.34796 84.5421 8.71636 83.9976 8.43889C83.4931 8.18332 82.9341 8.15411 82.3896 8.05189C82.052 7.98982 81.7144 7.92046 81.3986 7.78902C80.7997 7.54441 80.375 7.15012 80.3205 6.4528C80.2625 5.69706 80.5129 5.10196 81.1953 4.72592C81.6926 4.4521 82.2407 4.38273 82.7417 4.35718L82.7526 4.36448Z" fill="#212121"/>
<path d="M89.2703 7.66987C89.2703 7.48368 89.2594 7.29748 89.2703 7.11493C89.3465 5.91744 90.087 4.89518 91.1324 4.53375C92.3448 4.11389 93.7024 4.42422 94.4683 5.32599C95.089 6.05252 95.216 6.94699 95.1943 7.86337C95.187 8.19195 95.1435 8.52053 95.0491 8.84181C94.6062 10.3314 93.3684 11.1601 91.8584 10.963C90.2903 10.7585 89.3139 9.68882 89.2594 8.10433C89.2558 7.95829 89.2594 7.81226 89.2594 7.66622H89.2667L89.2703 7.66987ZM93.9347 7.68448C93.9347 7.25732 93.8803 6.83747 93.7532 6.43222C93.539 5.76045 93.0526 5.37711 92.3993 5.33695C91.5753 5.28948 91.0381 5.5487 90.7513 6.23142C90.3593 7.17335 90.3556 8.15179 90.7404 9.09737C91.0199 9.78739 91.5898 10.0649 92.421 10.0064C93.0708 9.96264 93.5608 9.56834 93.7641 8.90022C93.8839 8.50593 93.9383 8.09703 93.9383 7.68448H93.9347Z" fill="#212121"/>
<path d="M97.6017 5.28508C98.0409 4.74474 98.5708 4.45267 99.2133 4.376C100.578 4.21901 101.529 5.05142 101.609 6.5921C101.678 7.88817 101.631 9.18789 101.638 10.484C101.638 10.7103 101.544 10.8125 101.311 10.8344C100.426 10.9148 100.306 10.787 100.379 9.88887C100.466 8.84471 100.433 7.7969 100.404 6.75274C100.382 6.01161 100.037 5.54429 99.5291 5.43477C98.8612 5.29238 98.3059 5.54794 97.932 6.1832C97.7069 6.56655 97.5799 6.97545 97.5871 7.42816C97.5944 8.39565 97.5835 9.36314 97.6017 10.3306C97.6089 10.7103 97.4674 10.8746 97.0935 10.8344C97.0136 10.8271 96.9338 10.8344 96.8575 10.8344C96.3566 10.8308 96.3203 10.7979 96.3203 10.2905C96.3203 8.54168 96.3203 6.7929 96.3276 5.04412C96.3276 4.85792 96.2659 4.59141 96.5308 4.55125C96.8357 4.50379 97.177 4.42346 97.4492 4.60966C97.6343 4.73744 97.4746 5.01491 97.6017 5.28873V5.28508Z" fill="#212121"/>
<path d="M40.6952 5.21245C40.8331 5.21245 40.8767 5.12118 40.942 5.05911C41.6752 4.37274 42.5246 4.16829 43.4648 4.51512C44.3976 4.85831 44.7243 5.66151 44.757 6.56693C44.8078 7.863 44.7752 9.16638 44.7824 10.4624C44.7824 10.7144 44.6808 10.8129 44.4303 10.8275C43.5737 10.886 43.5555 10.8713 43.5555 10.0353C43.5555 9.02764 43.5628 8.01999 43.5555 7.01234C43.5555 6.8152 43.5374 6.61439 43.5011 6.4209C43.4103 5.94993 43.2034 5.55563 42.6989 5.4388C42.158 5.31467 41.6716 5.4388 41.3014 5.87326C40.9275 6.31137 40.7278 6.8225 40.7278 7.40299C40.7278 8.35588 40.7351 9.31241 40.7351 10.2653C40.7351 10.791 40.7061 10.8202 40.1725 10.8239C40.0817 10.8239 39.9874 10.8166 39.8966 10.8239C39.5699 10.8494 39.4429 10.6961 39.4538 10.3748C39.4792 9.61909 39.5118 8.867 39.5118 8.11126C39.5118 7.07806 39.4901 6.04485 39.4574 5.01165C39.4465 4.6356 39.5808 4.46401 39.9619 4.50782C40.0672 4.51878 40.1725 4.51513 40.2777 4.50782C40.5681 4.48592 40.6916 4.621 40.6698 4.90942C40.6625 5.008 40.6843 5.11022 40.6916 5.2088L40.6952 5.21245Z" fill="#212121"/>
<path d="M75.0303 5.25958C75.259 5.06973 75.4332 4.88719 75.6401 4.75576C77.2191 3.74446 78.9723 4.63162 79.0776 6.53375C79.1502 7.84077 79.0994 9.15875 79.1066 10.4694C79.1066 10.725 78.9905 10.8126 78.7473 10.8272C77.887 10.882 77.8797 10.8783 77.8797 10.0277C77.8797 9.00541 77.8834 7.9868 77.8834 6.96455C77.8834 6.7528 77.8761 6.54105 77.8216 6.33295C77.5748 5.38371 76.5367 5.06243 75.7998 5.7196C75.3098 6.1577 75.0629 6.71264 75.0557 7.3698C75.0484 8.33729 75.0593 9.30478 75.0593 10.2723C75.0593 10.809 75.0448 10.8199 74.4967 10.8236C74.4168 10.8236 74.337 10.8163 74.2607 10.8236C73.8978 10.8601 73.7671 10.6921 73.778 10.3343C73.8215 9.03827 73.8651 7.73855 73.836 6.43882C73.8252 5.9496 73.8106 5.46038 73.7852 4.97116C73.7707 4.63528 73.9014 4.50019 74.2462 4.50019C74.9613 4.50384 74.9613 4.48924 75.023 5.25228L75.0303 5.25958Z" fill="#212121"/>
<path d="M24.4267 7.07617C24.4267 5.97724 24.4158 4.87832 24.434 3.77575C24.4376 3.44352 24.3215 3.33034 23.9948 3.34129C23.4684 3.35955 22.9421 3.33399 22.4158 3.34859C22.0129 3.35955 21.9766 3.12589 21.9766 2.81191C21.9766 2.49063 22.0346 2.28253 22.4267 2.28618C24.1799 2.30078 25.9295 2.30078 27.6827 2.28618C28.1038 2.28253 28.1002 2.52349 28.1074 2.82286C28.1147 3.14049 28.0747 3.36685 27.6718 3.35225C27.1999 3.33034 26.7244 3.34494 26.2489 3.34859C25.719 3.34859 25.7298 3.35225 25.7117 3.87433C25.6318 5.9809 25.719 8.08381 25.7117 10.1904C25.7117 10.4021 25.8206 10.7015 25.5447 10.7855C25.2217 10.8841 24.8623 10.8877 24.5356 10.7709C24.3795 10.7161 24.4231 10.519 24.4231 10.3766C24.4231 9.27766 24.4231 8.17874 24.4231 7.07617H24.4267Z" fill="#212121"/>
<path d="M38.1212 5.98295C38.0304 7.42141 38.1466 8.86351 38.1212 10.302C38.1139 10.7802 38.074 10.824 37.6021 10.8277C37.4823 10.8277 37.3662 10.8204 37.2464 10.8277C36.9633 10.8423 36.8398 10.7145 36.8398 10.4261C36.8435 8.58604 36.8435 6.74964 36.8398 4.90958C36.8398 4.62481 36.9524 4.51529 37.2391 4.50799C38.1176 4.48243 38.1176 4.47513 38.1176 5.34404C38.1176 5.5558 38.1176 5.76755 38.1176 5.9793L38.1212 5.98295Z" fill="#212121"/>
<path d="M54.3998 7.63757C54.3998 6.765 54.4144 5.89244 54.3926 5.01987C54.3853 4.64748 54.5051 4.46859 54.8862 4.51605C54.9008 4.51605 54.9117 4.51605 54.9262 4.51605C55.6739 4.50875 55.6957 4.5124 55.6667 5.24988C55.6013 6.90374 55.6376 8.55395 55.6667 10.2078C55.6703 10.4086 55.7538 10.6934 55.5142 10.7773C55.1948 10.8905 54.8354 10.8869 54.5087 10.77C54.3527 10.7153 54.3962 10.5181 54.3962 10.3757C54.3962 9.46302 54.3962 8.5503 54.3962 7.63757H54.3998Z" fill="#212121"/>
<path d="M86.8125 7.67754C86.8125 6.77576 86.8234 5.87764 86.8089 4.97587C86.8017 4.63633 86.9178 4.50855 87.2663 4.50855C88.0503 4.50855 88.0431 4.4976 88.0431 5.28254C88.0431 6.95101 88.0431 8.61947 88.0431 10.2879C88.0431 10.81 88.0249 10.8246 87.5131 10.8283C87.4478 10.8283 87.3824 10.821 87.3171 10.8283C86.9468 10.8721 86.8017 10.7224 86.8089 10.3354C86.8307 9.44822 86.8162 8.56105 86.8162 7.67389L86.8125 7.67754Z" fill="#212121"/>
<path d="M36.8474 3.23622C36.8837 3.05367 36.7494 2.75795 37.0144 2.66302C37.3229 2.5535 37.6605 2.5754 37.9835 2.66302C38.0815 2.68858 38.1106 2.79446 38.1142 2.88938C38.1215 3.02081 38.1251 3.15225 38.1251 3.28733C38.1251 3.97735 38.1251 3.981 37.4536 3.981C36.851 3.981 36.8438 3.9664 36.8438 3.23622H36.8474Z" fill="#212121"/>
<path d="M55.6801 3.3177C55.6801 3.97486 55.6728 3.98216 55.0194 3.97851C54.4096 3.97851 54.4023 3.96756 54.4023 3.27388C54.4023 2.61672 54.4096 2.60942 55.063 2.61307C55.6728 2.61307 55.6801 2.62402 55.6801 3.3177Z" fill="#212121"/>
<path d="M88.0473 3.35847C88.0001 3.53371 88.1634 3.82944 87.9021 3.93531C87.6117 4.05214 87.285 4.01563 86.9765 3.94262C86.8748 3.91706 86.8385 3.82578 86.8313 3.72721C86.824 3.62133 86.8204 3.51546 86.8204 3.41323C86.8155 2.87533 87.066 2.61125 87.5718 2.62099C88.0473 2.62829 88.0509 2.63559 88.0509 3.35847H88.0473Z" fill="#212121"/>
<path d="M6.12787 11.4656C5.84837 11.4656 5.61243 11.2356 5.63421 10.9617C5.65962 10.677 5.81933 10.5017 6.11335 10.4835C6.39285 10.4689 6.62516 10.6916 6.62879 10.969C6.63242 11.2429 6.40374 11.4692 6.12424 11.4656H6.12787Z" fill="#212121"/>
<path d="M5.15319 0.842237C5.15682 1.11971 4.92814 1.36066 4.6559 1.33876C4.37277 1.31685 4.1949 1.15621 4.18038 0.856841C4.16586 0.57207 4.38003 0.342063 4.6559 0.334761C4.92088 0.32746 5.14956 0.561117 5.15319 0.842237Z" fill="#212121"/>
<path d="M3.48498 1.70477C3.48498 1.98224 3.25267 2.21955 2.98769 2.21225C2.71545 2.20495 2.48677 1.96764 2.50492 1.69017C2.52307 1.39079 2.70093 1.23381 2.98043 1.2046C3.24541 1.17904 3.48135 1.42365 3.48498 1.70112V1.70477Z" fill="#212121"/>
<path d="M1.28085 4.75748C1.25181 5.05321 1.08483 5.2175 0.798074 5.2394C0.525833 5.25766 0.300781 5.02035 0.300781 4.73923C0.300781 4.45811 0.525833 4.21715 0.798074 4.23906C1.11024 4.26096 1.25544 4.45811 1.28085 4.76114V4.75748Z" fill="#212121"/>
<path d="M4.17941 12.3805C4.17215 12.0958 4.38994 11.8548 4.66218 11.8694C4.94531 11.884 5.1377 12.0373 5.14859 12.3367C5.15948 12.6434 4.9925 12.8369 4.68396 12.8698C4.41535 12.899 4.18304 12.6617 4.17578 12.3805H4.17941Z" fill="#212121"/>
<path d="M3.48501 3.93722C3.48501 4.21469 3.24907 4.46295 2.98409 4.43739C2.70096 4.41184 2.5231 4.25485 2.50495 3.95913C2.4868 3.68166 2.70822 3.44435 2.98409 3.43339C3.24907 3.42609 3.48501 3.65975 3.48501 3.93722Z" fill="#212121"/>
<path d="M4.319 3.19721C4.03587 3.19721 3.79993 2.9745 3.82171 2.70068C3.84349 2.3867 4.03587 2.22241 4.34078 2.22241C4.63843 2.22241 4.79451 2.41591 4.81629 2.69703C4.83807 2.97085 4.5985 3.19721 4.319 3.19721Z" fill="#212121"/>
<path d="M1.28089 8.45681C1.25185 8.75618 1.10303 8.94968 0.790858 8.96793C0.514988 8.98254 0.297196 8.74523 0.300826 8.46046C0.304456 8.17934 0.533138 7.94203 0.805378 7.96759C1.08851 7.99314 1.25548 8.15743 1.28089 8.45681Z" fill="#212121"/>
<path d="M4.82571 10.4995C4.81482 10.7697 4.56799 10.9961 4.29938 10.9815C4.03802 10.9668 3.79845 10.7003 3.83112 10.4411C3.86742 10.1527 4.04528 9.98841 4.33204 9.9811C4.59702 9.9738 4.83297 10.2403 4.82208 10.4995H4.82571Z" fill="#212121"/>
<path d="M8.15437 2.58504C7.84583 2.53757 7.66797 2.37693 7.66797 2.06296C7.66797 1.78549 7.9148 1.55548 8.18341 1.58834C8.49195 1.62485 8.64803 1.81469 8.63714 2.12502C8.62625 2.4317 8.43024 2.55583 8.158 2.58504H8.15437Z" fill="#212121"/>
<path d="M2.24283 5.16972C2.50781 5.16972 2.7365 5.41433 2.72198 5.6918C2.70383 5.99117 2.52959 6.14816 2.24283 6.16277C1.97059 6.18102 1.74191 5.94371 1.73828 5.66624C1.73828 5.39243 1.96696 5.16607 2.24283 5.16972Z" fill="#212121"/>
<path d="M2.72006 7.54218C2.7128 7.81965 2.47686 8.04601 2.20825 8.0314C1.93238 8.0168 1.71095 7.77584 1.73636 7.50567C1.7654 7.2136 1.93964 7.05296 2.23003 7.04201C2.51679 7.03105 2.72732 7.25741 2.72006 7.54218Z" fill="#212121"/>
<path d="M2.95715 8.74193C3.26931 8.74193 3.50526 8.97559 3.47985 9.24941C3.45444 9.55973 3.26931 9.72768 2.95715 9.71672C2.6595 9.70942 2.49252 9.53053 2.49615 9.23846C2.49615 8.92813 2.6849 8.76384 2.95352 8.73828L2.95715 8.74193Z" fill="#212121"/>
<path d="M3.48413 11.5178C3.46236 11.7916 3.30627 11.9778 2.99773 12.0033C2.73275 12.0252 2.49681 11.7806 2.50407 11.4995C2.51133 11.2038 2.67467 11.0322 2.96143 11.003C3.22641 10.9738 3.47687 11.2184 3.48413 11.5141V11.5178Z" fill="#212121"/>
<path d="M8.64114 11.1041C8.63388 11.3926 8.41245 11.597 8.1257 11.5715C7.83168 11.5459 7.68285 11.367 7.66833 11.0749C7.65744 10.8011 7.89338 10.5748 8.16925 10.5784C8.43786 10.5784 8.6484 10.8157 8.64114 11.1005V11.1041Z" fill="#212121"/>
<path d="M6.11149 1.68114C6.36558 1.67018 6.61967 1.91844 6.62693 2.18131C6.63056 2.44052 6.3801 2.71069 6.12963 2.69609C5.84287 2.67783 5.6759 2.49894 5.6396 2.21782C5.60693 1.96226 5.85739 1.69209 6.11149 1.68114Z" fill="#212121"/>
<path d="M1.64812 3.5428C1.36136 3.5428 1.15809 3.33105 1.17261 3.03898C1.18713 2.74691 1.35047 2.56071 1.63723 2.55706C1.93851 2.55341 2.12 2.7396 2.14178 3.04628C2.15993 3.3201 1.92762 3.54645 1.64812 3.54645V3.5428Z" fill="#212121"/>
<path d="M1.17202 10.0958C1.1938 9.84025 1.37167 9.69421 1.66206 9.69421C1.94156 9.69421 2.17024 9.93517 2.1412 10.209C2.10853 10.5011 1.9343 10.6617 1.64028 10.6654C1.35715 10.669 1.1575 10.4426 1.16839 10.0958H1.17202Z" fill="#212121"/>
<path d="M7.00095 12.7009C6.96828 12.971 6.81219 13.139 6.51091 13.139C6.22053 13.139 5.98821 12.9126 6.01362 12.6388C6.04266 12.3467 6.21327 12.1788 6.50365 12.1642C6.76864 12.1496 7.00821 12.4051 6.99732 12.7009H7.00095Z" fill="#212121"/>
<path d="M8.63474 12.7082C8.6057 12.9638 8.4605 13.139 8.1556 13.139C7.86158 13.139 7.64378 12.9236 7.66556 12.6388C7.68734 12.3468 7.85795 12.1788 8.14834 12.1642C8.42421 12.1496 8.642 12.3906 8.63474 12.7118V12.7082Z" fill="#212121"/>
</svg>
