<svg width="63" height="16" viewBox="0 0 63 16" fill="none" xmlns="http://www.w3.org/2000/svg">
<path d="M37.2007 0C37.2993 0.0297513 37.4029 0.0297511 37.5015 0.0297511C38.3001 0.0396682 39.0692 0.223135 39.8284 0.461146C40.139 0.560317 40.42 0.733866 40.7109 0.882622C41.0856 1.07105 41.3962 1.35369 41.7117 1.61649C41.8694 1.75037 41.9878 1.92888 42.1011 2.10243C42.3427 2.46936 42.5941 2.83133 42.7519 3.24289C42.8406 3.47595 42.8998 3.71396 42.9294 3.95693C42.9639 4.27923 42.9836 4.60154 43.0033 4.92385C43.0181 5.12715 42.9836 5.33541 42.9688 5.53871C42.9491 5.81639 42.9392 6.09406 42.8751 6.36679C42.7963 6.71388 42.6533 7.03619 42.4709 7.33866C42.2638 7.67584 42.0518 8.00807 41.7807 8.29566C41.6328 8.44938 41.4553 8.56343 41.2926 8.70226C41.0609 8.89565 40.8292 9.08407 40.5679 9.23283C40.5186 9.25762 40.4742 9.28737 40.4249 9.30721C39.7594 9.55018 39.084 9.74356 38.3889 9.87248C38.2114 9.90719 38.0339 9.90719 37.8564 9.92207C35.8746 10.046 33.8878 9.95182 31.901 9.98157C31.7284 9.98157 31.7284 9.98157 31.7284 10.1502C31.7284 11.251 31.7284 12.3518 31.7284 13.4526C31.7284 14.0724 31.8221 14.6773 32.0834 15.2476C32.1721 15.4459 32.1672 15.4509 31.9552 15.4509C29.6332 15.4509 27.3062 15.4509 24.9842 15.4509C24.9596 15.4509 24.9349 15.4509 24.9053 15.4509C24.8758 15.4509 24.8363 15.4657 24.8166 15.436C24.7919 15.4013 24.8363 15.3715 24.8511 15.3418C25.0237 14.9996 25.1666 14.6476 25.2011 14.2558C25.2356 13.8492 25.2554 13.4426 25.2554 13.036C25.2554 9.31713 25.2554 5.59325 25.2554 1.87433C25.2554 1.46277 25.211 1.05617 25.0631 0.664446C25.0237 0.560317 24.9941 0.456187 24.9596 0.352057C24.9201 0.233052 24.8905 0.10413 24.7969 0.00991734H37.2106L37.2007 0ZM31.763 5.04285C31.763 5.71226 31.763 6.38166 31.763 7.05602C31.763 7.1552 31.7925 7.17999 31.8911 7.17999C32.4482 7.17999 33.0102 7.17503 33.5673 7.17999C34.0505 7.17999 34.5188 7.1304 34.9822 6.9866C35.3618 6.8676 35.7217 6.73372 35.988 6.41141C36.0866 6.29241 36.1704 6.16348 36.2443 6.0296C36.3626 5.81639 36.5105 5.61308 36.5056 5.35028C36.5056 5.25607 36.5253 5.1569 36.5253 5.06268C36.5253 4.8693 36.5253 4.666 36.476 4.48253C36.4169 4.24948 36.3281 4.02139 36.1704 3.82305C35.9485 3.54537 35.7168 3.29744 35.3618 3.19827C35.3224 3.18835 35.283 3.16852 35.2485 3.15364C34.9625 3.02472 34.6569 2.94042 34.3413 2.93546C33.523 2.92555 32.7095 2.93546 31.8911 2.93546C31.7925 2.93546 31.7679 2.97017 31.7679 3.06439C31.7679 3.72883 31.7679 4.39328 31.7679 5.05773L31.763 5.04285Z" fill="#212121"/>
<path d="M62.0853 0C62.0853 1.1603 62.0853 2.31565 62.0853 3.47595C62.0853 3.60487 62.0655 3.59991 61.962 3.55528C61.5627 3.39661 61.1535 3.27265 60.7295 3.22306C60.6802 3.2181 60.6358 3.2181 60.5865 3.2181C58.0772 3.2181 55.5678 3.2181 53.0585 3.2181C52.9599 3.2181 52.9106 3.26769 52.9106 3.36686C52.9106 4.48749 52.9106 5.61308 52.9106 6.73372C52.9106 6.87256 52.9106 6.87256 53.0486 6.87256C55.2079 6.87256 57.3623 6.87256 59.5217 6.87256C59.7632 6.87256 59.99 6.78826 60.2267 6.74859C60.3795 6.7238 60.5323 6.68413 60.6851 6.64942C60.8035 6.62463 60.8035 6.62463 60.8035 6.74364C60.8035 7.72543 60.8035 8.70722 60.8035 9.68902C60.8035 9.84769 60.8035 10.0014 60.8035 10.1601C60.8035 10.2345 60.7837 10.2593 60.7049 10.2444C60.3548 10.165 60.0048 10.0907 59.6548 10.0262C59.5266 10.0014 59.3935 10.0014 59.2653 9.99645C58.6639 9.95678 58.0673 9.97661 57.4659 9.97661C56.0017 9.97661 54.5424 9.97661 53.0782 9.97661C52.9631 9.97661 52.9056 10.0345 52.9056 10.1502C52.9056 11.4047 52.9056 12.6592 52.9056 13.9137C52.9056 14.2112 52.9599 14.4939 53.0486 14.7715C53.1078 14.96 53.1817 15.1385 53.2507 15.3219C53.2951 15.4409 53.2902 15.4459 53.162 15.4459C51.6978 15.4459 50.2336 15.4459 48.7644 15.4459C47.8622 15.4459 46.965 15.4459 46.0628 15.4459C45.9297 15.4459 45.9248 15.4459 45.9741 15.3219C46.0579 15.0988 46.1417 14.8707 46.2156 14.6426C46.3142 14.3352 46.3487 14.0228 46.3487 13.7054C46.3487 9.71877 46.3487 5.73705 46.3487 1.75037C46.3487 1.38839 46.2699 1.03138 46.2304 0.669405C46.2304 0.649571 46.2206 0.629736 46.2107 0.614861C46.0924 0.421477 46.0283 0.203301 45.9297 0.00495867H62.0803L62.0853 0Z" fill="#212121"/>
<path d="M22.185 1.32078e-07C22.1357 0.0644614 22.0568 0.0842956 21.9927 0.123964C21.7265 0.282638 21.4948 0.485938 21.2778 0.699156C21.1694 0.808245 21.0609 0.917333 20.9327 1.00163C20.7207 1.14543 20.5778 1.34873 20.4249 1.54707C20.1144 1.95367 19.7939 2.35036 19.4735 2.752C18.8967 3.47099 18.3248 4.18998 17.748 4.90897C17.1712 5.62796 16.5993 6.34695 16.0225 7.06594C15.4703 7.75518 14.9181 8.44442 14.366 9.13366C14.3266 9.17829 14.3167 9.22291 14.3167 9.28242C14.3167 10.8642 14.3167 12.446 14.3167 14.0278C14.3167 14.2608 14.4202 14.474 14.4794 14.6972C14.5336 14.8955 14.6026 15.079 14.716 15.2525C14.721 15.2624 14.7308 15.2773 14.7357 15.2872C14.7998 15.4211 14.785 15.4409 14.6371 15.4409C12.251 15.4409 9.86984 15.4409 7.48373 15.4409C7.45908 15.4409 7.43936 15.4409 7.41471 15.4409C7.3802 15.4409 7.36048 15.4211 7.39006 15.3914C7.56753 15.2029 7.6119 14.955 7.69571 14.7269C7.80417 14.4244 7.81896 14.117 7.81896 13.7997C7.81896 12.3071 7.81896 10.8146 7.81896 9.32704C7.81896 9.23779 7.79431 9.16341 7.74008 9.08903C7.01538 8.1717 6.28574 7.25437 5.56103 6.33208C4.91027 5.504 4.25458 4.67096 3.60382 3.84288C3.06152 3.15364 2.51922 2.45944 1.96707 1.7702C1.8734 1.6512 1.75508 1.54707 1.64662 1.43798C1.51351 1.30906 1.39519 1.17518 1.27687 1.03634C1.12404 0.85783 0.941628 0.723949 0.774009 0.565275C0.542299 0.347099 0.281009 0.168591 0 0.0247925C0.01479 -0.0148759 0.0542299 0.0049588 0.0788798 0.0049588C1.22264 0.0049588 2.3664 0.0049588 3.51015 0.0049588H7.5281C7.54289 0.0446272 7.5626 0.0842956 7.57246 0.123964C7.67106 0.545441 7.89291 0.902457 8.10983 1.26443C8.44507 1.81483 8.80003 2.36027 9.15006 2.90076C9.77124 3.86272 10.3875 4.82467 11.0087 5.78168C11.0678 5.87589 11.1171 5.87589 11.1812 5.78168C11.2946 5.61308 11.4031 5.43954 11.5165 5.26599C12.1327 4.32386 12.749 3.37678 13.3701 2.43961C13.73 1.88921 14.0653 1.32393 14.3512 0.733866C14.4695 0.490897 14.5829 0.247928 14.6963 0.0049588H22.185V1.32078e-07Z" fill="#212121"/>
</svg>
