<svg width="87" height="16" viewBox="0 0 87 16" fill="none" xmlns="http://www.w3.org/2000/svg">
<path d="M63.3492 15.19C62.6292 15.08 61.9092 14.97 61.2192 14.72C59.1792 13.98 57.9592 12.49 57.5492 10.41C56.9892 7.63001 57.8092 5.16002 59.5792 3.00002C60.9992 1.27002 62.9392 0.460013 65.0792 0.0600128C65.1592 0.0500128 65.2292 0.0300098 65.3092 0.0100098H66.8592C66.9392 0.0300098 67.0092 0.0500128 67.0892 0.0600128C69.6892 0.520013 71.5192 1.91001 72.2992 4.49001C72.7292 5.91001 72.5392 7.33002 72.2292 8.75002C72.1492 9.09002 72.0192 9.20001 71.6692 9.20001C68.6092 9.19001 65.5592 9.20001 62.4992 9.20001C62.3992 9.20001 62.2992 9.20001 62.1992 9.20001C62.0192 9.20001 61.9592 9.27001 62.0092 9.45001C62.1192 9.88001 62.2892 10.25 62.6392 10.53C63.6392 11.33 64.9592 11.33 66.0692 10.53C66.1992 10.43 66.3192 10.31 66.5092 10.31C68.1192 10.31 69.7192 10.31 71.3292 10.31C71.5592 10.31 71.5692 10.42 71.4992 10.59C71.3392 10.99 71.1392 11.36 70.8792 11.71C69.8492 13.11 68.4792 14.06 66.8592 14.66C66.0992 14.95 65.3092 15.09 64.4992 15.19H63.3492V15.19ZM65.3192 5.92001C66.0792 5.92001 66.8492 5.92001 67.6092 5.92001C67.7592 5.92001 67.8992 5.94001 67.8992 5.71001C67.8792 4.81001 67.3592 4.12001 66.4792 3.89001C65.1892 3.54001 63.3892 4.44001 62.8592 5.70001C62.7492 5.96001 62.9092 5.93002 63.0592 5.93002C63.8092 5.93002 64.5592 5.93002 65.3192 5.93002V5.92001Z" fill="#212121"/>
<path d="M53.4295 0.00999451C53.8095 0.0999945 54.1995 0.189998 54.5495 0.349998C55.8895 0.979998 56.5195 2.11 56.7495 3.5C56.9395 4.67 56.7995 5.83 56.5995 6.98C56.1695 9.47 55.7495 11.96 55.3395 14.45C55.2895 14.74 55.1795 14.85 54.8895 14.85C53.4695 14.84 52.0595 14.85 50.6395 14.85C50.2395 14.85 50.2095 14.8 50.2695 14.42C50.6795 11.95 51.0995 9.47999 51.4995 7.00999C51.5795 6.53999 51.5895 6.05 51.4695 5.57C51.2395 4.67 50.5295 4.23999 49.6295 4.43999C48.5095 4.68999 47.7295 5.64 47.5695 6.78C47.3995 8.02 47.1295 9.26 46.8995 10.49C46.6595 11.79 46.3995 13.09 46.1695 14.4C46.1095 14.74 45.9695 14.86 45.6195 14.85C44.2595 14.83 42.8995 14.85 41.5395 14.85C41.1395 14.85 41.1195 14.82 41.1895 14.42C41.9895 9.88 42.7895 5.33 43.5795 0.779999C43.6295 0.479999 43.7495 0.369997 44.0595 0.379997C45.3495 0.399997 46.6495 0.379997 47.9395 0.379997C48.3295 0.379997 48.3495 0.399999 48.2495 0.779999C48.1395 1.18 48.0295 1.57 47.9795 2C48.1395 1.86 48.2895 1.72 48.4495 1.59C49.3695 0.829996 50.3995 0.320002 51.5695 0.0800018C51.6795 0.0600018 51.7895 0.02 51.8895 0H53.4395L53.4295 0.00999451Z" fill="#212121"/>
<path d="M18.7599 15.19C17.8899 15.05 17.0399 14.86 16.2499 14.45C14.5199 13.57 13.3599 11.89 13.5399 9.61997C13.6599 8.10997 14.0099 6.62997 14.2399 5.12997C14.4599 3.69997 14.7199 2.26998 14.9699 0.849976C15.0299 0.516642 15.2299 0.349976 15.5699 0.349976C16.9399 0.349976 18.3099 0.349976 19.6799 0.349976C20.0999 0.349976 20.1199 0.369973 20.0499 0.799973C19.6199 3.31997 19.1699 5.83997 18.7499 8.36997C18.6199 9.11997 18.7599 9.82997 19.4199 10.3C20.0699 10.77 20.7599 10.65 21.4199 10.28C21.8299 10.05 22.1399 9.70997 22.3799 9.29997C22.6299 8.86997 22.6999 8.38998 22.7899 7.91998C23.2299 5.55998 23.6699 3.18998 24.0899 0.829979C24.1499 0.499979 24.2699 0.389977 24.6099 0.389977C25.9899 0.409977 27.3799 0.389977 28.7599 0.389977C29.1799 0.389977 29.1799 0.389975 29.1099 0.809975C28.6799 3.46997 28.2699 6.12998 27.7999 8.78998C27.2799 11.74 25.4999 13.63 22.7399 14.68C22.0399 14.95 21.3099 15.07 20.5799 15.19H18.7599V15.19Z" fill="#212121"/>
<path d="M0 4.67001C0.24 3.36001 0.48 2.04001 0.71 0.730011C0.75 0.480011 0.85 0.390015 1.1 0.390015C5.29 0.390015 9.48 0.390015 13.68 0.390015C13.97 0.390015 14.03 0.490015 13.98 0.750015C13.75 2.07002 13.52 3.38001 13.29 4.70001C13.25 4.96001 13.12 5.05002 12.86 5.04002C11.76 5.03002 10.66 5.04001 9.56 5.03001C9.28 5.03001 9.19 5.13001 9.15 5.38001C8.65 8.37001 8.15 11.36 7.65 14.35C7.57 14.82 7.58 14.82 7.1 14.82C5.67 14.82 4.25 14.82 2.82 14.82C2.51 14.82 2.41 14.75 2.47 14.42C2.92 11.9 3.36 9.38002 3.8 6.86002C3.89 6.36002 3.96 5.86001 4.06 5.37001C4.12 5.09001 4.02 5.04002 3.78 5.04002C2.67 5.04002 1.55 5.04002 0.44 5.04002C0.29 5.04002 0.15 5.03001 0 5.02001V4.68002V4.67001Z" fill="#212121"/>
<path d="M86.3605 3.92999C86.1105 5.01999 85.5405 5.87999 84.5005 6.34999C83.2305 6.91999 82.0205 6.75998 80.9805 5.83998C79.9405 4.92998 79.6105 3.73998 80.0105 2.40998C80.4005 1.10998 81.3105 0.329986 82.6605 0.129986C84.2905 -0.110014 85.7605 0.849989 86.2505 2.42999C86.2905 2.54999 86.3205 2.66999 86.3605 2.77999V3.92999V3.92999Z" fill="#212121"/>
<path d="M30.4202 14.88C29.7002 14.88 28.9802 14.88 28.2602 14.88C27.8802 14.88 27.8602 14.85 27.9202 14.47C28.2402 12.56 28.5502 10.66 28.8702 8.74995C29.3102 6.08995 29.7602 3.42995 30.1902 0.769951C30.2402 0.459951 30.3402 0.329956 30.6802 0.329956C32.1202 0.349956 33.5602 0.329956 35.0002 0.329956C35.4302 0.329956 35.4402 0.329951 35.3702 0.769951C34.8702 3.73995 34.3602 6.69995 33.8602 9.66995C33.6002 11.21 33.3302 12.75 33.0802 14.29C32.9802 14.87 32.9902 14.8699 32.4202 14.8699C31.7602 14.8699 31.0902 14.8699 30.4302 14.8699L30.4202 14.88Z" fill="#212121"/>
<path d="M38.7701 6.64996C36.9601 6.64996 35.4901 5.16995 35.5001 3.35995C35.5001 1.57995 36.9901 0.0799561 38.7601 0.0799561C40.5501 0.0799561 42.05 1.56995 42.05 3.36995C42.05 5.17995 40.5801 6.64996 38.7701 6.64996V6.64996Z" fill="#212121"/>
<path d="M74.7691 14.8799C74.0591 14.8799 73.3491 14.8799 72.6491 14.8799C72.2391 14.8799 72.2191 14.8599 72.2791 14.4599C73.0291 9.90995 73.7891 5.35995 74.5291 0.809947C74.5791 0.479947 74.6891 0.329946 75.0591 0.339946C76.4891 0.359946 77.9091 0.339946 79.3391 0.339946C79.7691 0.339946 79.7791 0.35995 79.7091 0.78995C78.9391 5.34995 78.1591 9.90995 77.3991 14.47C77.3491 14.79 77.2191 14.8999 76.8891 14.8899C76.1791 14.8699 75.4691 14.8899 74.7691 14.8899V14.8799Z" fill="#212121"/>
</svg>
