<svg width="85" height="18" viewBox="0 0 85 18" fill="none" xmlns="http://www.w3.org/2000/svg">
<path d="M25.7344 17.0568C25.7443 16.9214 25.8255 16.8171 25.8928 16.7069C27.5577 13.9726 29.2193 11.2371 30.8922 8.50794C31.0288 8.2851 30.9575 8.13028 30.8453 7.94826C29.3467 5.51777 27.8488 3.08728 26.3569 0.652908C26.2533 0.484484 26.0163 0.303753 26.1212 0.124316C26.2103 -0.027913 26.4876 0.0640724 26.6804 0.0634246C28.2304 0.0588901 29.7798 0.0673113 31.3298 0.056299C31.5952 0.0543556 31.749 0.140511 31.8804 0.363349C32.4693 1.35899 33.0733 2.34622 33.6741 3.33474C33.7341 3.43385 33.7764 3.5498 33.9196 3.63077C34.1065 3.32891 34.2926 3.02833 34.4775 2.72776C34.9699 1.9258 35.467 1.12709 35.9496 0.319947C36.0645 0.128203 36.2018 0.0575945 36.4262 0.0582423C38.0199 0.065368 39.6135 0.0608335 41.2077 0.062129C41.5939 0.062129 41.6104 0.0860971 41.415 0.408694C39.9449 2.83076 38.48 5.25606 36.99 7.66582C36.7497 8.05514 36.7345 8.33174 36.9867 8.73337C38.6516 11.3796 40.2835 14.0452 41.924 16.7057C41.9887 16.8112 42.1003 16.9097 42.0283 17.0568H37.2131C37.1273 17.0438 37.0362 17.0075 36.9557 17.0224C36.5352 17.0989 36.3305 16.8773 36.1344 16.5495C35.436 15.3809 34.7065 14.2305 33.9995 13.067C33.8543 12.8274 33.7843 12.8351 33.6417 13.0722C32.839 14.4047 32.0223 15.7301 31.211 17.0574H25.7364L25.7344 17.0568Z" fill="#212121"/>
<path d="M0.00792185 0.0196156C3.51466 0.0196156 7.02206 0.0196156 10.5288 0.0196156C10.7453 0.0196156 10.95 0.0111944 10.9691 0.314358C11.0536 1.62223 11.1559 2.92882 11.2365 4.23669C11.2675 4.74391 11.2497 4.74455 10.7143 4.74391C9.01045 4.74326 7.30659 4.75038 5.60273 4.73678C5.27859 4.73419 5.14854 4.81387 5.17033 5.15136C5.19938 5.60157 5.19409 6.05502 5.17033 6.50588C5.15449 6.81164 5.24889 6.91399 5.57368 6.9101C6.95869 6.89326 8.34435 6.90168 9.72935 6.90232C10.1604 6.90232 10.1717 6.90815 10.1651 7.34023C10.1519 8.18947 10.1948 9.03872 10.1307 9.88796C10.0971 10.3362 10.1954 10.7851 10.1505 11.2399C10.1235 11.5152 10.033 11.5962 9.7518 11.5936C8.37802 11.58 7.00358 11.5871 5.62914 11.5877C5.32106 11.5877 5.16681 11.7434 5.16637 12.0548C5.16175 13.7216 5.15713 15.3889 5.1525 17.0557C3.53843 17.0557 1.92501 17.0505 0.311593 17.0615C0.0785584 17.0628 0 17.0317 0 16.7733C0.0105625 11.1894 0.00792185 5.60481 0.00792185 0.0196156Z" fill="#212121"/>
<path d="M61.9477 17.0568C61.9411 16.3798 61.9391 15.7022 61.9259 15.0253C61.9213 14.8115 62.0236 14.7383 62.2236 14.7383C62.5313 14.7383 62.8395 14.7409 63.1465 14.7247C63.538 14.7047 63.6984 14.5615 63.7585 14.1812C63.7836 14.0232 63.7809 13.8593 63.7809 13.6987C63.7822 11.9244 63.775 10.1494 63.7888 8.37516C63.7915 8.04997 63.6931 7.93078 63.3578 7.95216C62.9854 7.97612 62.6105 7.9528 62.2368 7.95734C62.0177 7.95993 61.9206 7.87507 61.9239 7.65029C61.9332 7.02647 61.9332 6.40266 61.9239 5.77884C61.9206 5.55082 62.0216 5.47762 62.2414 5.48215C62.6481 5.49057 63.0554 5.47373 63.4614 5.48798C63.709 5.49641 63.7888 5.40183 63.7842 5.16733C63.7677 4.39258 63.7822 3.62042 63.9651 2.85927C64.2741 1.57342 65.088 0.77017 66.3859 0.4398C67.9023 0.0543681 69.4312 -0.119886 70.9779 0.263602C71.7384 0.452108 72.4157 0.797377 72.9492 1.3752C73.8186 2.31643 73.7116 4.0201 72.7075 4.6925C71.984 5.17705 71.1733 5.27292 70.3554 4.92052C69.7962 4.67955 69.4431 4.25201 69.383 3.63856C69.3176 2.97652 69.5097 2.42591 70.1428 2.08452C69.4332 1.57601 68.4099 1.90768 68.1102 2.7349C67.9452 3.18964 67.9478 3.66577 67.9168 4.13606C67.8937 4.47874 67.9221 4.82465 67.9075 5.16798C67.8976 5.40312 67.9795 5.49252 68.2277 5.48798C68.9308 5.47568 69.6352 5.49381 70.3382 5.47891C70.628 5.47308 70.7555 5.54888 70.7449 5.85787C70.7244 6.44865 70.731 7.04072 70.7422 7.63215C70.7469 7.87053 70.6498 7.95993 70.4135 7.95799C69.7652 7.95216 69.1163 7.96576 68.468 7.9528C68.1894 7.94697 68.0765 8.03313 68.0785 8.3201C68.0891 10.1378 68.0792 11.9555 68.0884 13.7731C68.0924 14.5181 68.2891 14.7034 69.0496 14.7267C69.4338 14.739 69.8194 14.7332 70.2036 14.7383C70.3653 14.7403 70.5251 14.7604 70.5251 14.9722C70.5251 15.6174 70.5224 16.2626 70.5158 16.9071C70.5158 16.957 70.4769 17.0062 70.4564 17.0555H61.947L61.9477 17.0568Z" fill="#212121"/>
<path d="M77.8451 17.0568C77.2701 16.9797 76.6892 16.9512 76.1215 16.8184C74.273 16.3857 72.727 15.5189 71.7651 13.8535C71.1347 12.762 70.9782 11.5564 71.0489 10.3276C71.1353 8.82213 71.7031 7.50777 72.8233 6.44929C73.945 5.38952 75.3168 4.87583 76.8463 4.71453C77.9851 4.59469 79.1054 4.66659 80.1966 5.02482C82.455 5.76718 83.9707 7.80252 83.9998 10.1294C84.0037 10.4299 83.9958 10.7311 83.9892 11.0324C83.9833 11.3284 83.8578 11.4599 83.5238 11.4586C81.0951 11.4463 78.667 11.4521 76.2383 11.4521C75.7326 11.4521 75.728 11.4534 75.7584 11.9561C75.8138 12.8688 76.0456 13.7116 76.8859 14.2428C77.6695 14.7383 78.5205 14.7876 79.3754 14.4391C79.8784 14.2344 80.1748 13.8256 80.3544 13.3242C80.7049 12.3467 80.4402 12.5372 81.4892 12.5203C82.1262 12.51 82.764 12.5177 83.401 12.5184C83.8737 12.5184 83.8856 12.5346 83.7687 12.9971C83.3845 14.5246 82.4141 15.5921 81.0383 16.3494C80.3293 16.74 79.5748 16.9777 78.7667 17.0574H77.8432L77.8451 17.0568ZM77.7395 9.444C78.2663 9.444 78.7925 9.444 79.3193 9.444C79.4929 9.444 79.646 9.40708 79.584 9.18942C79.4546 8.73597 79.3694 8.26633 79.1331 7.84786C78.7687 7.20332 78.0689 6.90015 77.3513 7.07052C76.5314 7.26486 75.7518 8.42439 75.8792 9.24708C75.9102 9.44854 76.0502 9.44335 76.1934 9.444C76.709 9.44659 77.2246 9.44465 77.7402 9.444H77.7395Z" fill="#212121"/>
<path d="M53.3721 17.0567C53.3655 16.3688 53.3616 15.6815 53.3503 14.9936C53.347 14.7843 53.4718 14.7416 53.6448 14.739C53.9412 14.7351 54.2382 14.7357 54.5346 14.726C54.8878 14.7144 55.1024 14.5278 55.1968 14.2C55.245 14.0335 55.2668 13.8645 55.2668 13.6909C55.2648 12.0779 55.2668 10.4655 55.2635 8.85256C55.2635 8.70357 55.2423 8.55263 55.212 8.40624C55.1301 8.01562 54.942 7.86015 54.53 7.84525C54.2336 7.83424 53.9365 7.83554 53.6401 7.83942C53.4309 7.84202 53.347 7.75262 53.3497 7.54727C53.3569 6.95585 53.3563 6.36442 53.3497 5.77299C53.3477 5.57024 53.4236 5.48278 53.6375 5.48278C55.5605 5.48667 57.4842 5.48861 59.4072 5.48084C59.732 5.47955 59.7162 5.67518 59.7162 5.887C59.7162 7.87635 59.7162 9.86505 59.7162 11.8544C59.7162 12.5747 59.7122 13.2951 59.7188 14.0154C59.7235 14.5194 59.9248 14.7163 60.4384 14.7331C60.713 14.7422 60.9877 14.7357 61.2623 14.7409C61.4003 14.7435 61.5442 14.7675 61.5461 14.9398C61.5547 15.6161 61.5904 16.293 61.5263 16.9686C61.5237 16.9991 61.4999 17.0269 61.4861 17.0561H53.3728L53.3721 17.0567Z" fill="#212121"/>
<path d="M28.3053 8.51443C28.4354 12.508 25.2772 16.1609 20.9736 16.7672C16.9203 17.3386 12.9943 15.0914 11.5803 11.3511C10.2448 7.81807 11.6351 3.77136 14.8949 1.69586C16.3809 0.749444 18.0115 0.249355 19.7807 0.277857C24.3081 0.351057 27.7805 3.54399 28.3 7.64446C28.3363 7.93013 28.3046 8.22423 28.3046 8.51379L28.3053 8.51443ZM18.2993 8.5844H18.3007C18.3007 9.69081 18.296 10.7972 18.3026 11.9036C18.3066 12.5618 18.7271 13.0858 19.3635 13.2556C20.1722 13.4706 21.1162 12.9187 21.1723 12.1964C21.1941 11.9179 21.2205 11.6393 21.2212 11.3608C21.2245 9.28789 21.2271 7.21433 21.2192 5.14142C21.2172 4.54935 20.7353 3.97088 20.1511 3.81087C19.5153 3.63662 18.9423 3.84521 18.5687 4.38351C18.37 4.66984 18.2993 4.98984 18.2993 5.32993C18.2993 6.41497 18.2993 7.5 18.2993 8.58504V8.5844Z" fill="#212121"/>
<path d="M50.9427 7.16962C50.9427 9.36302 50.9427 11.5564 50.9427 13.7498C50.9427 14.4902 51.1136 14.6541 51.8774 14.6554C52.4887 14.6563 52.7944 14.9588 52.7944 15.563C52.7944 15.9179 52.7805 16.2736 52.7984 16.6273C52.8135 16.9181 52.7112 17.0211 52.4042 17.0192C50.6456 17.0075 48.8876 17.0133 47.129 17.0133C46.3704 17.0133 45.6119 17.0062 44.8541 17.0166C44.6012 17.0198 44.4996 16.9408 44.5062 16.683C44.5207 16.1136 44.518 15.5435 44.5075 14.9735C44.5029 14.7338 44.6025 14.6463 44.8389 14.6535C45.1571 14.6625 45.4766 14.6606 45.7948 14.6522C46.1849 14.6418 46.3962 14.4391 46.4292 14.0543C46.4365 13.9688 46.4345 13.8826 46.4345 13.7965C46.4345 10.3664 46.4345 6.93641 46.4332 3.50704C46.4332 3.29263 46.4285 3.07627 46.4034 2.86379C46.3652 2.53602 46.1598 2.37018 45.8258 2.3637C45.4852 2.35723 45.1445 2.35399 44.8039 2.35852C44.5959 2.36111 44.5075 2.27884 44.5095 2.07091C44.5167 1.46911 44.5154 0.866674 44.5101 0.264883C44.5081 0.0692519 44.5992 -6.10352e-05 44.79 -6.10352e-05C46.7461 0.0025301 48.7028 0.00317789 50.6588 -6.10352e-05C50.8793 -6.10352e-05 50.944 0.106823 50.9427 0.299863C50.9394 0.847889 50.9427 1.39656 50.9427 1.94459C50.9427 3.68648 50.9427 5.42837 50.9427 7.17026V7.16962Z" fill="#212121"/>
<path d="M55.2598 2.13245C55.2671 0.963204 56.2342 0.0329854 57.4344 0.0407588C58.6477 0.0485322 59.6016 0.997536 59.5931 2.18752C59.5851 3.33669 58.5837 4.29994 57.4099 4.28828C56.1933 4.27662 55.2525 3.3328 55.2598 2.13245Z" fill="#212121"/>
</svg>
