<svg width="91" height="15" viewBox="0 0 91 15" fill="none" xmlns="http://www.w3.org/2000/svg">
<path d="M89.9991 0.139975V14.18C89.3691 14.18 88.7491 14.21 88.1191 14.19C87.2991 14.16 86.8991 13.76 86.8391 12.96C86.7991 12.38 86.7491 11.8 86.7291 11.21C86.6791 8.93998 86.6491 6.65998 86.6091 4.38998C86.6091 4.26998 86.6591 4.11997 86.4991 3.99997C86.3491 4.30997 86.2091 4.58997 86.0891 4.87997C84.7991 7.75997 83.5091 10.63 82.2491 13.52C82.0291 14.02 81.7591 14.23 81.2191 14.2C80.5991 14.17 79.9691 14.18 79.3391 14.21C78.8691 14.24 78.6291 14.04 78.4491 13.61C77.4991 11.29 76.5291 8.97997 75.5591 6.66997C75.1491 5.69998 74.7391 4.72997 74.3291 3.74997L74.1091 3.76998C74.1091 5.61998 74.1091 7.46997 74.1091 9.31997C74.1091 10.55 74.1391 11.78 73.9891 13.01C73.9091 13.7 73.5391 14.11 72.8291 14.17C72.3691 14.21 71.9091 14.17 71.4491 14.2C70.9691 14.23 70.7891 14.04 70.7891 13.55C70.7991 9.28997 70.7991 5.02998 70.7891 0.769975C70.7891 0.239975 70.9891 0.0799748 71.4891 0.0899748C72.5091 0.119975 73.5391 0.0899748 74.5591 0.0899748C76.4691 0.0899748 76.4791 0.089975 77.2091 1.88997C78.1891 4.30998 79.1391 6.73997 80.1091 9.15997C80.1891 9.35997 80.2091 9.59997 80.4891 9.74997C80.6191 9.45997 80.7391 9.18997 80.8491 8.92997C81.9991 6.26997 83.0591 3.55998 84.3091 0.939975C84.5591 0.419975 84.8791 0.0899748 85.4991 0.0899748C86.9991 0.0999748 88.5091 0.0999748 90.0091 0.109975L89.9991 0.139975Z" fill="#212121"/>
<path d="M62.5407 0.0100002C63.8807 0.3 65.1507 0.74 66.1307 1.77C67.3207 3.01 67.9807 4.46 68.0907 6.18C68.1507 7.16 68.1907 8.15 67.9907 9.11C67.4407 11.77 65.7707 13.43 63.1807 14.18C62.8807 14.27 62.5807 14.34 62.2807 14.42H59.2707C58.4207 14.23 57.5807 14 56.8007 13.57C55.1707 12.69 54.0907 11.38 53.7007 9.55C53.3607 7.98 53.3307 6.39 53.7407 4.84C54.3807 2.45 55.9207 0.92 58.3007 0.23C58.5807 0.15 58.8607 0.08 59.1407 0H62.5207L62.5407 0.0100002ZM64.5307 7.23C64.5307 7 64.5307 6.77 64.5307 6.54C64.4707 4 63.2107 2.77 60.6807 2.78C60.5507 2.78 60.4307 2.78 60.3007 2.78C58.8607 2.8 57.7707 3.58 57.3307 4.94C56.8907 6.32 56.8607 7.75 57.2007 9.15C57.5107 10.45 58.3307 11.38 59.6807 11.59C61.1507 11.82 62.6307 11.78 63.7107 10.5C63.9107 10.27 64.0507 9.97 64.1807 9.69C64.5307 8.91 64.5407 8.07 64.5207 7.23H64.5307Z" fill="#212121"/>
<path d="M0 0.140019C0.81 0.140019 1.63 0.140019 2.44 0.110019C3.14 0.0800192 3.57 0.39002 3.85 1.02002C4.87 3.33002 5.74999 5.70002 6.68999 8.05002C6.91999 8.62002 7.1 9.22002 7.48 9.84002C8.18 8.21002 8.84 6.66002 9.51 5.11002C10.06 3.82002 10.62 2.54002 11.15 1.25002C11.47 0.460019 12.01 0.060019 12.89 0.120019C13.43 0.150019 13.98 0.120019 14.52 0.120019C15.16 0.130019 15.22 0.230019 14.96 0.830019C14.26 2.41002 13.55 3.99002 12.84 5.57002C11.66 8.20002 10.46 10.82 9.3 13.46C9.05 14.03 8.71 14.25 8.1 14.2C7.56 14.16 7.00999 14.17 6.46999 14.2C5.92999 14.23 5.64 14.01 5.43 13.51C4.05 10.15 2.64 6.80002 1.24 3.45002C0.829998 2.47002 0.41 1.49002 0 0.510019V0.130019V0.140019Z" fill="#212121"/>
<path d="M52.1405 0.0100098C52.1405 0.51001 52.1805 1.01001 52.1505 1.51001C52.1005 2.25001 51.5405 2.76001 50.8005 2.78001C49.4005 2.82001 48.0105 2.86001 46.6105 2.91001C45.2205 2.96001 44.1005 3.86001 43.7605 5.21001C43.4505 6.47001 43.4305 7.73001 43.7405 8.99001C44.1105 10.49 45.1505 11.34 46.6905 11.41C48.0905 11.47 49.4805 11.53 50.8705 11.64C51.7205 11.71 52.0605 12.12 52.1505 12.97C52.2805 14.33 52.2805 14.35 50.9105 14.33C49.1405 14.3 47.3605 14.41 45.5905 14.22C42.7305 13.9 40.7405 12.15 40.1605 9.30001C39.6305 6.70001 39.9205 4.22001 41.6705 2.08001C42.5705 0.980009 43.7905 0.41001 45.1905 0.25001C47.1605 0.0300095 49.1505 0.15001 51.1305 0.11001C51.4205 0.11001 51.7205 0.15001 51.9905 0.0200095H52.1205L52.1405 0.0100098Z" fill="#212121"/>
<path d="M28.8104 0.109997C30.3304 0.169997 31.8604 0.109997 33.3804 0.219997C35.8804 0.409997 37.1604 1.46 37.4104 3.97C37.6304 6.21 37.6504 8.48 37.3904 10.72C37.1604 12.68 35.8804 13.92 33.9504 14.13C31.8704 14.36 29.7804 14.45 27.7004 14.21C24.5704 13.85 23.0004 11.17 24.1204 8.19C24.6704 6.73 25.7204 5.94 27.2504 5.75C29.2704 5.5 31.3004 5.66 33.3204 5.62C34.2104 5.6 34.2104 5.62 34.0804 4.71C33.9104 3.48 33.3304 2.94 32.0904 2.9C30.0904 2.84 28.0804 2.81 26.0804 2.77C25.1104 2.75 24.6004 2.29 24.5704 1.33C24.5304 -0.150003 24.3804 0.109997 25.7504 0.0899971C26.7704 0.0799971 27.8004 0.0899971 28.8204 0.0899971L28.8104 0.109997ZM31.9204 8.32C30.9804 8.27 29.8404 8.39 28.6904 8.46C27.7504 8.51 27.3104 9.06 27.3404 9.99C27.3704 10.94 27.7504 11.34 28.7204 11.41C29.6604 11.48 30.5904 11.56 31.5304 11.54C33.4304 11.5 33.8804 11.11 34.1004 9.24C34.1104 9.12 34.1404 8.99 34.1604 8.87C34.2304 8.5 34.0904 8.32 33.7004 8.33C33.1804 8.34 32.6604 8.33 31.9204 8.33V8.32Z" fill="#212121"/>
<path d="M20.58 7.21002C20.58 9.34002 20.57 11.47 20.58 13.6C20.58 14.13 20.4201 14.33 19.8701 14.34C17.4701 14.38 17.2301 13.92 17.2601 11.79C17.3001 8.18002 17.2601 4.56002 17.2601 0.950019C17.2601 0.120019 17.2601 0.120019 18.1001 0.110019C18.6801 0.110019 19.2701 0.140019 19.8501 0.110019C20.3901 0.080019 20.58 0.280019 20.58 0.830019C20.56 2.96002 20.58 5.09002 20.58 7.22002V7.21002Z" fill="#212121"/>
</svg>
