<svg width="69" height="28" viewBox="0 0 69 28" fill="none" xmlns="http://www.w3.org/2000/svg">
<path d="M15.1719 27.8702C15.1719 27.2945 15.1719 26.7254 15.1719 26.1498C15.1719 25.8586 15.1719 25.852 15.463 25.852C16.5017 25.852 17.5338 25.852 18.5726 25.852C23.806 25.852 29.046 25.852 34.2794 25.852C34.3786 25.852 34.4779 25.8322 34.5705 25.8719C34.5969 25.9579 34.5242 25.9843 34.4845 26.024C34.147 26.3417 33.7699 26.6063 33.3663 26.8445C32.4798 27.3607 31.5204 27.6783 30.5015 27.804C30.3891 27.8172 30.2766 27.8238 30.1773 27.8768H15.1785L15.1719 27.8702Z" fill="#212121"/>
<path d="M0 3.70619C4.36005 3.70619 8.72011 3.70619 13.0802 3.70619C13.4837 3.70619 13.4837 3.67972 13.4837 4.10982C13.4837 4.53992 13.4837 4.9634 13.4837 5.3935C13.4837 5.45967 13.4837 5.51922 13.4837 5.58539C13.4837 5.67803 13.4308 5.72435 13.3382 5.73096C13.2985 5.73096 13.2522 5.73096 13.2125 5.73096C8.81273 5.73096 4.40636 5.73096 0.00661253 5.73096V3.71281L0 3.70619Z" fill="#212121"/>
<path d="M0 25.8542C2.13041 25.8542 4.25419 25.8542 6.3846 25.8542C8.63409 25.8542 10.877 25.8542 13.1265 25.8542C13.4573 25.8542 13.4639 25.8542 13.4573 26.1917C13.4573 26.7541 13.4573 27.31 13.4507 27.8724H0.00661253V25.8542H0Z" fill="#212121"/>
<path d="M0 0.00884429C0.0992425 0.00884429 0.198487 0.00222739 0.291113 0.00222739C4.57177 0.00222739 8.84581 0.00222739 13.1265 0.00222739C13.4573 0.00222739 13.4904 -0.0507079 13.4837 0.35954C13.4837 0.802873 13.4837 1.23959 13.4837 1.68292C13.4837 1.73586 13.4837 1.79541 13.4837 1.84834C13.4837 1.94098 13.4374 1.99392 13.3382 1.99392C13.2853 1.99392 13.2257 1.99392 13.1728 1.99392C8.86566 1.99392 4.55854 1.99392 0.25803 1.99392C0.17202 1.99392 0.0926227 1.99392 0.00661253 1.9873V0.00884429H0Z" fill="#212121"/>
<path d="M0 22.1554C0.0926263 22.1554 0.178639 22.1488 0.271265 22.1488C4.54531 22.1488 8.81273 22.1488 13.0868 22.1488C13.4705 22.1488 13.4573 22.1223 13.4573 22.5127C13.4573 22.9759 13.4573 23.4391 13.4573 23.9022C13.4573 24.1206 13.4374 24.1338 13.2125 24.1404C13.1596 24.1404 13.1 24.1404 13.0471 24.1404C8.80612 24.1404 4.55854 24.1404 0.317573 24.1404C0.211714 24.1404 0.105859 24.1404 0 24.1338C0 23.4721 0 22.8171 0 22.1554Z" fill="#212121"/>
<path d="M69.0004 5.67983C68.888 5.73938 68.7689 5.72614 68.6498 5.72614C64.905 5.72614 61.1603 5.72614 57.4155 5.72614C57.0913 5.72614 56.7738 5.72614 56.4496 5.72614C56.4033 5.72614 56.3503 5.72614 56.304 5.72614C56.218 5.72614 56.1982 5.67321 56.218 5.59381C56.2312 5.55411 56.2445 5.5144 56.2577 5.4747C56.443 4.95197 56.6216 4.42923 56.8068 3.91311C56.873 3.73446 56.8929 3.72122 57.0781 3.71461C57.1244 3.71461 57.1773 3.71461 57.2237 3.71461C61.028 3.71461 64.8389 3.71461 68.6432 3.71461C68.7623 3.71461 68.8814 3.70137 68.9938 3.75431V5.68644L69.0004 5.67983Z" fill="#212121"/>
<path d="M69.0006 1.97846C68.8948 1.97846 68.7889 1.99169 68.683 1.99169C65.064 1.99169 61.445 1.99169 57.8259 1.99169C57.4753 1.99169 57.4819 1.99169 57.601 1.66084C57.773 1.18443 57.945 0.714626 58.1104 0.238209C58.1964 0 58.1964 0 58.4346 0C61.8949 0 65.3485 0 68.8087 0C68.8749 0 68.9345 0 69.0006 0.00661691V1.97846Z" fill="#212121"/>
<path d="M38.3672 27.8724C38.3672 27.2901 38.3672 26.7078 38.3672 26.1322C38.3672 26.0925 38.3672 26.0461 38.3672 26.0064C38.3672 25.9006 38.4267 25.8542 38.526 25.8542C38.5723 25.8542 38.6252 25.8542 38.6715 25.8542C41.629 25.8542 44.593 25.8542 47.5504 25.8542C47.8614 25.8542 47.8614 25.8542 47.8614 26.1719C47.8614 26.7409 47.8614 27.3034 47.8614 27.8724H38.3672Z" fill="#212121"/>
<path d="M59.5457 27.8746C59.5457 27.2659 59.5391 26.6571 59.5391 26.0483C59.5391 25.8829 59.5655 25.8631 59.7376 25.8498C59.7839 25.8498 59.8368 25.8498 59.8831 25.8498C62.8075 25.8498 65.7252 25.8498 68.6495 25.8498C68.7686 25.8498 68.8877 25.83 69.0002 25.8962V27.8746H59.5457Z" fill="#212121"/>
<path d="M68.999 24.1262C68.9064 24.1262 68.8203 24.1328 68.7277 24.1328C65.7769 24.1328 62.8327 24.1328 59.8819 24.1328C59.6481 24.1328 59.5312 24.0181 59.5312 23.7887C59.5312 23.3255 59.5312 22.8624 59.5312 22.3992C59.5312 22.1543 59.5445 22.1411 59.7959 22.1411C61.1324 22.1411 62.4688 22.1411 63.8053 22.1411C65.4527 22.1411 67.0935 22.1411 68.7409 22.1411C68.827 22.1411 68.9063 22.1411 68.9924 22.1477V24.1262H68.999Z" fill="#212121"/>
<path d="M53.5358 27.8724C53.3439 27.2967 53.1454 26.7211 52.9536 26.1454C52.8543 25.8542 52.8543 25.8542 53.1587 25.8542C53.5159 25.8542 53.8732 25.8542 54.2305 25.8542C54.2768 25.8542 54.3297 25.8542 54.376 25.8542C54.4885 25.8675 54.515 25.9006 54.4687 26.0263C54.3893 26.2711 54.3033 26.5159 54.2173 26.7608C54.0915 27.1313 53.9592 27.5019 53.8335 27.8724H53.5424H53.5358Z" fill="#212121"/>
<path d="M53.6645 12.8258C53.7505 12.5942 53.8233 12.389 53.9027 12.1773C54.0085 11.8729 54.1144 11.5685 54.2202 11.2642C54.2864 11.0723 54.2996 11.0657 54.5113 11.059C54.551 11.059 54.5973 11.059 54.637 11.059C58.0378 11.059 61.4451 11.059 64.8458 11.059C65.0972 11.059 65.2229 11.187 65.2229 11.4428C65.2229 11.8795 65.2229 12.3096 65.2229 12.7464C65.2229 12.8125 65.2229 12.8721 65.2229 12.9382C65.2163 13.0309 65.1634 13.0772 65.0708 13.0772C65.0178 13.0772 64.9583 13.0772 64.9053 13.0772C63.2248 13.0772 61.5443 13.0772 59.8638 13.0772C59.5529 13.0772 59.5529 13.0772 59.5462 12.7596C59.5462 12.4287 59.5462 12.1045 59.5462 11.7604C59.4735 11.7869 59.4735 11.8398 59.4602 11.8795C59.3411 12.217 59.2287 12.5545 59.1096 12.8919C59.05 13.064 59.0302 13.0772 58.8516 13.0772C58.8052 13.0772 58.7523 13.0772 58.706 13.0772C55.3781 13.0772 52.0567 13.0772 48.7288 13.0772C48.3451 13.0772 48.3715 13.1103 48.2392 12.7331C48.1334 12.4221 48.0209 12.1178 47.9018 11.7737C47.8621 11.8663 47.8753 11.9259 47.8753 11.9854C47.8753 12.2633 47.8753 12.5479 47.8753 12.8258C47.8753 13.0574 47.8555 13.0706 47.6173 13.0706C47.5908 13.0706 47.5644 13.0706 47.5313 13.0706C45.8508 13.0706 44.1703 13.0706 42.4898 13.0706C42.2648 13.0706 42.1523 12.9581 42.1523 12.7331C42.1523 12.2567 42.1523 11.7803 42.1523 11.3039C42.1523 11.0789 42.1788 11.0524 42.4104 11.0524C42.4501 11.0524 42.4964 11.0524 42.5361 11.0524C45.8971 11.0524 49.2581 11.0524 52.6191 11.0524C53.069 11.0524 52.9962 11.0855 53.1153 11.3899C53.2609 11.7737 53.3998 12.1641 53.5454 12.5545C53.5785 12.6339 53.5917 12.7265 53.6711 12.8125L53.6645 12.8258Z" fill="#212121"/>
<path d="M25.8901 5.72467C22.443 5.72467 19.0026 5.72467 15.5556 5.72467C15.2998 5.72467 15.1719 5.59895 15.1719 5.34751C15.1719 4.90418 15.1719 4.46746 15.1719 4.02413C15.1719 3.97119 15.1719 3.91164 15.1719 3.85871C15.1719 3.76607 15.2314 3.71975 15.3174 3.71313C15.3836 3.71313 15.4431 3.71313 15.5093 3.71313C22.2446 3.71313 28.9798 3.71313 35.7151 3.71313C35.768 3.71313 35.8276 3.71313 35.8805 3.71313C35.9731 3.71313 36.0393 3.75945 36.0723 3.85209C36.2377 4.27557 36.4296 4.69244 36.5223 5.13577C36.5553 5.28134 36.5553 5.42691 36.5752 5.57249C36.5884 5.66512 36.5421 5.71806 36.4495 5.72467C36.3635 5.72467 36.2841 5.72467 36.198 5.72467C32.7576 5.72467 29.3239 5.72467 25.8834 5.72467H25.8901Z" fill="#212121"/>
<path d="M25.9298 22.1484C29.4033 22.1484 32.8767 22.1484 36.3502 22.1484C36.7273 22.1484 36.6744 22.155 36.6082 22.466C36.5156 22.8829 36.423 23.2997 36.2245 23.6835C36.1981 23.7364 36.1716 23.7828 36.1451 23.8291C36.0393 24.054 35.8739 24.1401 35.6092 24.1401C28.9137 24.1334 22.2247 24.1401 15.5292 24.1401C15.291 24.1401 15.1719 24.021 15.1719 23.7828C15.1719 23.3262 15.1719 22.8696 15.1719 22.4197C15.1719 22.1616 15.1851 22.1484 15.4498 22.1484C18.2682 22.1484 21.0933 22.1484 23.9118 22.1484C24.5867 22.1484 25.2549 22.1484 25.9298 22.1484Z" fill="#212121"/>
<path d="M24.858 2.01816C21.755 2.01816 18.6586 2.01816 15.5556 2.01816C15.2998 2.01816 15.1719 1.89244 15.1719 1.64099C15.1719 1.20428 15.1719 0.774178 15.1719 0.337462C15.1719 0.112487 15.2821 0 15.5027 0C16.032 0 16.5679 0 17.0972 0C21.2389 0 25.3872 0 29.529 0C30.2237 0 30.8919 0.112487 31.5535 0.310995C32.5989 0.615372 33.5317 1.12487 34.3522 1.8395C34.3985 1.8792 34.4845 1.90567 34.458 1.97846C34.4315 2.05124 34.3521 2.02477 34.286 2.02477C34.2264 2.02477 34.1603 2.02477 34.0941 2.02477C31.011 2.02477 27.9345 2.02477 24.8513 2.02477L24.858 2.01816Z" fill="#212121"/>
<path d="M27.3577 11.0576C29.9909 11.0576 32.6241 11.0576 35.2574 11.0576C35.3632 11.0576 35.5088 11.0047 35.5683 11.1172C35.6146 11.2098 35.5022 11.3024 35.4426 11.3885C35.0721 11.9575 34.6487 12.4736 34.1458 12.9236C34.0201 13.0361 33.8878 13.0758 33.729 13.0758C31.7045 13.0758 29.6799 13.0758 27.6554 13.0758C24.9097 13.0758 22.164 13.0758 19.4183 13.0758C19.1889 13.0758 19.0742 12.9611 19.0742 12.7317C19.0742 12.2553 19.0742 11.7789 19.0742 11.3024C19.0742 11.0775 19.0941 11.0642 19.3124 11.0576C19.9409 11.0576 20.5761 11.0576 21.2046 11.0576C23.2556 11.0576 25.3066 11.0576 27.3577 11.0576Z" fill="#212121"/>
<path d="M27.3896 16.7863C24.7365 16.7863 22.0834 16.7863 19.4304 16.7863C19.0532 16.7863 19.0665 16.8062 19.0665 16.4158C19.0665 15.9526 19.0665 15.4894 19.0665 15.0262C19.0665 14.8145 19.0863 14.8012 19.2914 14.7946C19.3642 14.7946 19.4304 14.7946 19.5031 14.7946C24.2072 14.7946 28.9113 14.7946 33.6154 14.7946C33.847 14.7946 34.019 14.8542 34.1976 15.013C34.7203 15.4828 35.1702 16.0187 35.587 16.5812C35.6069 16.601 35.6201 16.6275 35.64 16.6473C35.6995 16.7466 35.6863 16.7797 35.5606 16.7863C35.4878 16.7863 35.4216 16.7863 35.3488 16.7863C32.6958 16.7863 30.0427 16.7863 27.3896 16.7863Z" fill="#212121"/>
<path d="M44.7121 5.72345C42.7074 5.72345 40.7093 5.72345 38.7046 5.72345C38.4797 5.72345 38.3672 5.61097 38.3672 5.38599C38.3672 4.90957 38.3672 4.43316 38.3672 3.95674C38.3672 3.72515 38.3937 3.7053 38.6186 3.69868C38.6517 3.69868 38.6914 3.69868 38.7245 3.69868C42.4957 3.69868 46.2735 3.69868 50.0447 3.69868C50.402 3.69868 50.3689 3.69206 50.4814 4.01629C50.6402 4.47947 50.8056 4.94266 50.971 5.40584C50.9908 5.45878 51.0107 5.51171 51.0239 5.56465C51.0504 5.67713 51.0305 5.71022 50.9247 5.71684C50.8585 5.72345 50.7857 5.71684 50.713 5.71684C48.7083 5.71684 46.7102 5.71684 44.7055 5.71684L44.7121 5.72345Z" fill="#212121"/>
<path d="M44.0637 2.01816C42.284 2.01816 40.5108 2.01816 38.7311 2.01816C38.4929 2.01816 38.3716 1.89905 38.3672 1.66084C38.3672 1.21751 38.3672 0.780795 38.3672 0.337462C38.3672 0.291144 38.3672 0.238209 38.3672 0.19189C38.3738 0.0330845 38.4003 0.0132338 38.5524 0C38.5921 0 38.6385 0 38.6781 0C42.0458 0 45.4134 0 48.781 0C48.8207 0 48.8671 0 48.9068 0C49.0126 0 49.0788 0.0397014 49.1119 0.138955C49.3103 0.708009 49.5088 1.27706 49.7073 1.84612C49.7536 1.97846 49.7272 2.00492 49.5882 2.01816C49.5154 2.01816 49.4493 2.01816 49.3765 2.01816C47.6034 2.01816 45.8368 2.01816 44.0637 2.01816Z" fill="#212121"/>
<path d="M60.0303 9.43248C58.4159 9.43248 56.7949 9.43248 55.1806 9.43248C54.8696 9.43248 54.8696 9.43248 54.9689 9.14796C55.1409 8.65831 55.3129 8.16866 55.4849 7.68562C55.5709 7.44741 55.571 7.44741 55.829 7.4408C58.0388 7.4408 60.2552 7.4408 62.465 7.4408C63.2656 7.4408 64.0595 7.4408 64.86 7.4408C64.913 7.4408 64.9725 7.4408 65.0255 7.4408C65.1842 7.44741 65.2107 7.46726 65.2107 7.62607C65.2107 8.16204 65.2107 8.70463 65.2107 9.24059C65.2107 9.3994 65.1776 9.41925 65.0255 9.42587C64.9593 9.42587 64.8997 9.42587 64.8336 9.42587C63.2325 9.42587 61.6247 9.42587 60.0236 9.42587L60.0303 9.43248Z" fill="#212121"/>
<path d="M47.2787 9.43256C45.6842 9.43256 44.0831 9.43256 42.4886 9.43256C42.2592 9.43256 42.1445 9.31566 42.1445 9.08186C42.1445 8.61206 42.1445 8.14226 42.1445 7.67246C42.1445 7.46072 42.1644 7.44087 42.3695 7.44087C42.4158 7.44087 42.4687 7.44087 42.515 7.44087C45.4526 7.44087 48.3968 7.44087 51.3344 7.44087C51.7313 7.44087 51.6784 7.42764 51.7975 7.75187C51.9762 8.25475 52.1548 8.75102 52.3334 9.2539C52.3864 9.39948 52.3665 9.41933 52.2077 9.42594C52.1548 9.42594 52.0952 9.42594 52.0423 9.42594C50.4544 9.42594 48.8666 9.42594 47.2721 9.42594L47.2787 9.43256Z" fill="#212121"/>
<path d="M43.1032 24.1328C41.6344 24.1328 40.1656 24.1328 38.6902 24.1328C38.4696 24.1328 38.3594 24.0269 38.3594 23.8152C38.3594 23.3454 38.3594 22.8756 38.3594 22.4058C38.3594 22.1543 38.3726 22.1411 38.624 22.1411C40.0928 22.1411 41.5616 22.1411 43.037 22.1411C44.5322 22.1411 46.0341 22.1411 47.5294 22.1411C47.7499 22.1411 47.8602 22.247 47.8602 22.4587C47.8602 22.9285 47.8602 23.3983 47.8602 23.8681C47.8602 24.1196 47.847 24.1328 47.5955 24.1328C46.1003 24.1328 44.5984 24.1328 43.1032 24.1328Z" fill="#212121"/>
<path d="M53.6763 14.7946C55.1583 14.7946 56.6469 14.7946 58.1289 14.7946C58.42 14.7946 58.4134 14.7946 58.3208 15.0791C58.1686 15.5159 58.0231 15.9526 57.8775 16.3893C57.8577 16.4488 57.8378 16.5084 57.818 16.5679C57.7386 16.7731 57.7253 16.7797 57.5136 16.7863C57.1894 16.7863 56.8719 16.7863 56.5477 16.7863C54.3776 16.7863 52.2075 16.7863 50.0374 16.7863C49.9712 16.7863 49.9117 16.7863 49.8455 16.7863C49.7132 16.7995 49.6404 16.7334 49.5941 16.6143C49.4022 16.0651 49.2037 15.5225 49.0052 14.9733C48.9523 14.8343 48.9788 14.8079 49.1376 14.8012C49.1905 14.8012 49.25 14.8012 49.303 14.8012C50.7585 14.8012 52.2141 14.8012 53.6696 14.8012L53.6763 14.7946Z" fill="#212121"/>
<path d="M53.7036 18.4932C54.7358 18.4932 55.7745 18.4932 56.8066 18.4932C57.1176 18.4932 57.1176 18.4932 57.0183 18.7778C56.8397 19.2873 56.661 19.7968 56.4824 20.2996C56.4096 20.4981 56.3964 20.5114 56.1781 20.5114C54.5108 20.5114 52.8501 20.5114 51.1829 20.5114C50.9711 20.5114 50.9513 20.4981 50.8785 20.2996C50.6933 19.7703 50.5014 19.2476 50.3161 18.7182C50.3029 18.6851 50.2897 18.652 50.2831 18.6189C50.2632 18.5528 50.2963 18.5065 50.3625 18.4998C50.4352 18.4998 50.5014 18.4998 50.5742 18.4998C51.6195 18.4998 52.6583 18.4998 53.7036 18.4998V18.4932Z" fill="#212121"/>
<path d="M33.7905 20.5114C32.8576 20.5114 31.9247 20.5114 30.9985 20.5114C30.7007 20.5114 30.6875 20.4981 30.6875 20.207C30.6875 19.7306 30.6875 19.2542 30.6875 18.7778C30.6875 18.7314 30.6875 18.6785 30.6875 18.6322C30.6941 18.5395 30.747 18.4932 30.8397 18.4932C30.8926 18.4932 30.9521 18.4932 31.0051 18.4932C32.7583 18.4932 34.505 18.4932 36.2583 18.4932C36.298 18.4932 36.3443 18.4932 36.384 18.4932C36.4965 18.4932 36.5626 18.5395 36.609 18.6454C36.7016 18.877 36.7611 19.1152 36.8008 19.3534C36.8538 19.6578 36.8868 19.9622 36.9001 20.2732C36.9067 20.4915 36.8869 20.518 36.6685 20.518C35.7092 20.518 34.7498 20.518 33.7905 20.518V20.5114Z" fill="#212121"/>
<path d="M33.6901 7.4408C34.623 7.4408 35.5493 7.4408 36.4821 7.4408C36.7666 7.4408 36.7732 7.46065 36.7534 7.74517C36.7269 8.08264 36.7137 8.41348 36.6475 8.74433C36.6078 8.92298 36.5615 9.10164 36.5218 9.27368C36.4954 9.38617 36.4226 9.4391 36.3101 9.43248C36.2704 9.43248 36.2241 9.43248 36.1844 9.43248C34.4245 9.43248 32.6712 9.43248 30.9113 9.43248C30.6996 9.43248 30.5938 9.3222 30.5938 9.10164C30.5938 8.65169 30.5938 8.20836 30.5938 7.75841C30.5938 7.54667 30.704 7.4408 30.9246 7.4408C31.8508 7.4408 32.7705 7.4408 33.6967 7.4408H33.6901Z" fill="#212121"/>
<path d="M22.0052 18.4998C22.8587 18.4998 23.7122 18.4998 24.5656 18.4998C24.6186 18.4998 24.6781 18.4998 24.731 18.4998C24.8964 18.5065 24.9163 18.5329 24.9295 18.6983C24.9626 19.2079 24.956 19.7174 24.956 20.2335C24.956 20.2732 24.956 20.3195 24.956 20.3592C24.956 20.4584 24.8965 20.5114 24.7972 20.5114C24.7443 20.5114 24.6847 20.5114 24.6318 20.5114C22.8851 20.5114 21.1451 20.5114 19.3984 20.5114C19.3786 20.5114 19.3587 20.5114 19.3322 20.5114C19.0875 20.5114 19.0742 20.4981 19.0742 20.2467C19.0742 19.7438 19.0742 19.2409 19.0742 18.7314C19.0742 18.5131 19.0941 18.4932 19.319 18.4932C20.2122 18.4932 21.112 18.4932 22.0052 18.4932V18.4998Z" fill="#212121"/>
<path d="M6.68846 11.059C7.54856 11.059 8.40866 11.059 9.26876 11.059C9.56649 11.059 9.57972 11.0723 9.57972 11.3634C9.57972 11.8332 9.57972 12.303 9.57972 12.7662C9.57972 12.8059 9.57972 12.8522 9.57972 12.8919C9.56649 13.0375 9.54002 13.064 9.40108 13.0706C9.34816 13.0706 9.28861 13.0706 9.23568 13.0706C7.52871 13.0706 5.82175 13.0706 4.11477 13.0706C3.88983 13.0706 3.77734 12.9581 3.77734 12.7331C3.77734 12.2766 3.77734 11.8266 3.77734 11.37C3.77734 11.0524 3.77734 11.0524 4.0883 11.0524C4.95502 11.0524 5.82174 11.0524 6.68846 11.0524V11.059Z" fill="#212121"/>
<path d="M6.66199 20.5114C5.82836 20.5114 4.99472 20.5114 4.16108 20.5114C4.11477 20.5114 4.06184 20.5114 4.01553 20.5114C3.79719 20.5114 3.77734 20.4915 3.77734 20.2666C3.77734 19.7571 3.77734 19.2476 3.77734 18.7314C3.77734 18.5131 3.7972 18.4932 4.02215 18.4932C5.78867 18.4932 7.54856 18.4932 9.31508 18.4932C9.53341 18.4932 9.55326 18.5131 9.55326 18.7381C9.55326 19.2476 9.55326 19.7571 9.55326 20.2732C9.55326 20.4915 9.53341 20.5114 9.30846 20.5114C8.42851 20.5114 7.54194 20.5114 6.66199 20.5114Z" fill="#212121"/>
<path d="M45.0304 18.4998C45.864 18.4998 46.6977 18.4998 47.5313 18.4998C47.5975 18.4998 47.657 18.4998 47.7232 18.4998C47.8158 18.4998 47.8621 18.5528 47.8687 18.6454C47.8687 18.6719 47.8687 18.6983 47.8687 18.7314C47.8687 19.2409 47.8687 19.7571 47.8687 20.2666C47.8687 20.4915 47.8422 20.518 47.6107 20.518C45.8706 20.518 44.1372 20.518 42.3971 20.518C42.1656 20.518 42.1523 20.4981 42.1523 20.2599C42.1523 19.7571 42.1523 19.2542 42.1523 18.7447C42.1523 18.5131 42.1722 18.4932 42.4038 18.4932C43.2771 18.4932 44.157 18.4932 45.0304 18.4932V18.4998Z" fill="#212121"/>
<path d="M6.68065 7.44015C7.52752 7.44015 8.37439 7.44015 9.22126 7.44015C9.28742 7.44015 9.34696 7.44015 9.41312 7.44015C9.51898 7.44015 9.5653 7.49308 9.57191 7.59234C9.57191 7.63204 9.57191 7.67836 9.57191 7.71806C9.57191 8.20109 9.57191 8.68413 9.57191 9.16716C9.57191 9.40537 9.55207 9.42522 9.32712 9.42522C7.55398 9.42522 5.78084 9.42522 4.01433 9.42522C3.78938 9.42522 3.76953 9.40537 3.76953 9.18701C3.76953 8.68413 3.76953 8.18124 3.76953 7.67174C3.76953 7.45338 3.78938 7.43353 4.01433 7.43353C4.90089 7.43353 5.79408 7.43353 6.68065 7.43353V7.44015Z" fill="#212121"/>
<path d="M62.3708 20.5114C61.5305 20.5114 60.6903 20.5114 59.85 20.5114C59.5391 20.5114 59.5391 20.5114 59.5391 20.1938C59.5391 19.7107 59.5391 19.2277 59.5391 18.7447C59.5391 18.5131 59.5589 18.4932 59.7905 18.4932C61.5107 18.4932 63.2309 18.4932 64.9511 18.4932C65.1959 18.4932 65.2157 18.5131 65.2157 18.7579C65.2157 19.2542 65.2157 19.7504 65.2157 20.2467C65.2157 20.4849 65.1893 20.5114 64.9511 20.5114C64.091 20.5114 63.2309 20.5114 62.3708 20.5114Z" fill="#212121"/>
<path d="M21.9589 7.4408C22.8124 7.4408 23.6658 7.4408 24.5193 7.4408C24.5855 7.4408 24.645 7.4408 24.7112 7.4408C24.7972 7.4408 24.8369 7.48711 24.8435 7.57313C24.8435 7.57975 24.8435 7.58637 24.8435 7.59298C24.8435 8.15542 24.8435 8.71124 24.8435 9.27368C24.8435 9.37293 24.7972 9.43248 24.6913 9.43248C24.6384 9.43248 24.5789 9.43248 24.5259 9.43248C22.819 9.43248 21.112 9.43248 19.3984 9.43248C19.1823 9.43248 19.0742 9.32441 19.0742 9.10826C19.0742 8.63184 19.0742 8.15542 19.0742 7.679C19.0742 7.45403 19.0941 7.4408 19.3124 7.4408C20.1924 7.4408 21.0789 7.4408 21.9589 7.4408Z" fill="#212121"/>
<path d="M6.66199 16.7863C5.82174 16.7863 4.98149 16.7863 4.14123 16.7863C4.08831 16.7863 4.02876 16.7863 3.97583 16.7863C3.80381 16.7797 3.78396 16.7598 3.77734 16.5878C3.77734 16.3959 3.77734 16.2106 3.77734 16.0187C3.77734 15.6879 3.77734 15.3637 3.77734 15.0328C3.77734 14.8078 3.79719 14.7946 4.01553 14.7946C4.88224 14.7946 5.74897 14.7946 6.61568 14.7946C7.46917 14.7946 8.32265 14.7946 9.17614 14.7946C9.22907 14.7946 9.28861 14.7946 9.34154 14.7946C9.51356 14.8012 9.53341 14.8211 9.54003 14.9865C9.54003 15.1585 9.54003 15.3372 9.54003 15.5092C9.54003 15.8533 9.54003 16.1974 9.54003 16.5349C9.54003 16.7598 9.52018 16.7731 9.30185 16.7731C8.4219 16.7731 7.53533 16.7731 6.65538 16.7731L6.66199 16.7863Z" fill="#212121"/>
<path d="M45.0093 14.7946C45.843 14.7946 46.6766 14.7946 47.5102 14.7946C47.5632 14.7946 47.6227 14.7946 47.6756 14.7946C47.8344 14.8012 47.8609 14.8211 47.8609 14.9799C47.8609 15.5159 47.8609 16.0584 47.8609 16.5944C47.8609 16.7532 47.8278 16.7731 47.669 16.7797C47.6293 16.7797 47.583 16.7797 47.5433 16.7797C45.8496 16.7797 44.1558 16.7797 42.4621 16.7797C42.2504 16.7797 42.1445 16.676 42.1445 16.4687C42.1445 15.9923 42.1445 15.5159 42.1445 15.0394C42.1445 14.8078 42.1577 14.7946 42.3959 14.7946C43.2626 14.7946 44.1294 14.7946 45.0027 14.7946H45.0093Z" fill="#212121"/>
<path d="M62.3774 16.7863C61.5636 16.7863 60.7564 16.7863 59.9427 16.7863C59.8963 16.7863 59.8434 16.7863 59.7971 16.7863C59.5523 16.7863 59.5391 16.7731 59.5391 16.5216C59.5391 16.032 59.5391 15.5423 59.5391 15.0527C59.5391 14.8145 59.5523 14.7946 59.7839 14.7946C61.5173 14.7946 63.2574 14.7946 64.9908 14.7946C65.1959 14.7946 65.2157 14.8145 65.2223 15.0262C65.2223 15.5357 65.2223 16.0452 65.2223 16.5613C65.2223 16.7665 65.2025 16.7863 64.9908 16.7863C64.1241 16.7863 63.2573 16.7863 62.3906 16.7863H62.3774Z" fill="#212121"/>
<path d="M53.6852 22.1484C54.3071 22.1484 54.9291 22.1484 55.551 22.1484C55.8024 22.1484 55.809 22.1616 55.7296 22.3932C55.5576 22.9093 55.379 23.4254 55.2003 23.9416C55.1408 24.1268 55.1276 24.1334 54.9291 24.1334C54.0954 24.1334 53.2684 24.1334 52.4348 24.1334C52.2363 24.1334 52.2231 24.1202 52.1635 23.9416C51.9783 23.4254 51.7996 22.9159 51.621 22.3998C51.6078 22.3601 51.5945 22.3204 51.5813 22.2807C51.5614 22.2079 51.5813 22.155 51.6673 22.1484C51.7269 22.1484 51.793 22.1484 51.8526 22.1484C52.4612 22.1484 53.0699 22.1484 53.6786 22.1484H53.6852Z" fill="#212121"/>
</svg>
