<svg width="102" height="25" viewBox="0 0 102 25" fill="none" xmlns="http://www.w3.org/2000/svg">
<path d="M0 3.31901C0.0354832 3.13566 0.0650526 2.95231 0.112364 2.78079C0.490851 1.40862 1.36019 0.497778 2.73221 0.136992C4.07466 -0.21788 5.29291 0.119248 6.26279 1.1188C7.28589 2.17751 7.58158 3.46096 7.09664 4.85087C6.60579 6.24079 5.58269 7.06291 4.12197 7.26992C2.14673 7.5479 0.325263 6.14615 0.0354832 4.18253C0.0295693 4.1293 0.0118277 4.08198 0 4.02875V3.31309V3.31901Z" fill="#212121"/>
<path d="M11.7446 24.3656C11.4489 24.2947 11.1532 24.2414 10.8693 24.129C8.49196 23.1827 7.77639 20.2018 9.49141 18.3092C10.4909 17.209 11.7564 16.8364 13.1817 17.2386C14.6483 17.6526 15.5472 18.664 15.7956 20.1722C16.1268 22.1832 14.7784 24.0048 12.7499 24.342C12.7204 24.342 12.6849 24.3597 12.6553 24.3715H11.7446V24.3656Z" fill="#212121"/>
<path d="M54.491 15.1743C53.5448 15.1743 52.5985 15.1743 51.6523 15.1743C51.4749 15.1743 51.4394 15.2216 51.4808 15.3931C51.877 17.0078 53.5152 17.4218 54.6447 16.8304C54.8635 16.718 55.0528 16.5583 55.1947 16.3513C55.2775 16.233 55.3721 16.1916 55.5082 16.1916C56.0581 16.1916 56.6081 16.1916 57.1522 16.1916C57.3888 16.1916 57.4124 16.2212 57.3178 16.4459C56.7678 17.6702 55.8393 18.451 54.5205 18.7053C52.9888 19.001 51.6168 18.658 50.505 17.5105C49.819 16.8008 49.4878 15.9255 49.405 14.9555C49.3163 13.8849 49.5115 12.8736 50.1324 11.9745C50.919 10.8508 52.019 10.3007 53.3792 10.2357C54.4082 10.1824 55.3307 10.4604 56.1291 11.111C57.0339 11.8444 57.507 12.8085 57.6194 13.9618C57.649 14.293 57.6194 14.6183 57.5898 14.9496C57.5721 15.1329 57.4834 15.1743 57.3178 15.1743C56.3716 15.1743 55.4254 15.1743 54.4791 15.1743H54.491ZM53.5093 13.7785C54.1361 13.7785 54.763 13.7785 55.3899 13.7785C55.4786 13.7785 55.591 13.7962 55.5555 13.6365C55.384 12.9268 55.035 12.3472 54.3076 12.0928C53.0776 11.6552 51.8061 12.3412 51.469 13.601C51.4276 13.7666 51.4986 13.7785 51.6287 13.7785C52.2555 13.7785 52.8824 13.7785 53.5093 13.7785Z" fill="#212121"/>
<path d="M41.8226 15.1714C40.8823 15.1714 39.942 15.1714 39.0076 15.1714C38.7651 15.1714 38.7533 15.1832 38.8124 15.4198C39.2974 17.271 41.314 17.4248 42.2602 16.6263C42.3312 16.5672 42.414 16.5081 42.4554 16.4312C42.5677 16.2123 42.7452 16.1828 42.964 16.1887C43.4548 16.2005 43.9398 16.1887 44.4306 16.1887C44.7263 16.1887 44.75 16.2123 44.6199 16.4903C44.1349 17.549 43.3425 18.2883 42.2188 18.6136C40.8172 19.0158 39.4866 18.8384 38.3038 17.9453C37.3458 17.2237 36.8668 16.2242 36.7367 15.0472C36.6302 14.1008 36.7722 13.1841 37.2334 12.3442C37.9727 11.0075 39.1377 10.3333 40.6457 10.2387C41.586 10.1795 42.4554 10.3983 43.236 10.9484C44.1941 11.6286 44.7381 12.5571 44.9156 13.7105C44.9806 14.1186 44.9688 14.5267 44.9156 14.9348C44.8919 15.1063 44.8328 15.1714 44.6553 15.1714C43.7091 15.1655 42.7629 15.1714 41.8167 15.1714H41.8226ZM40.835 13.7755C41.4619 13.7755 42.0887 13.7755 42.7215 13.7755C42.8398 13.7755 42.9167 13.7578 42.8812 13.6099C42.7038 12.9061 42.3489 12.3324 41.6334 12.084C40.5097 11.6995 39.256 12.1727 38.8243 13.5271C38.7533 13.7519 38.7651 13.7696 38.9899 13.7696C39.6049 13.7696 40.2199 13.7696 40.835 13.7696V13.7755Z" fill="#212121"/>
<path d="M101.582 15.846C101.582 16.6977 101.582 17.5494 101.582 18.4011C101.582 18.6495 101.571 18.6554 101.322 18.6554C100.896 18.6554 100.477 18.6554 100.051 18.6554C99.9029 18.6554 99.832 18.6022 99.8142 18.4544C99.7965 18.3065 99.7492 18.1586 99.7196 18.0108C99.696 17.8747 99.6486 17.8274 99.5304 17.9457C98.8384 18.6259 97.9809 18.8625 97.0406 18.8092C96.1299 18.756 95.3197 18.4544 94.7461 17.6973C93.8826 16.5617 94.2079 14.5863 95.7987 13.8943C96.3546 13.6518 96.9342 13.5512 97.5374 13.5394C98.1169 13.5276 98.7024 13.5335 99.282 13.5394C99.4712 13.5394 99.5185 13.4684 99.5185 13.2969C99.5067 12.5576 99.0927 12.0371 98.389 11.907C97.6438 11.765 96.9578 12.1081 96.7035 12.7646C96.6444 12.9124 96.5616 12.9479 96.4197 12.9479C95.8992 12.9479 95.3729 12.9479 94.8525 12.9479C94.6159 12.9479 94.5982 12.9243 94.6514 12.6936C94.8821 11.6763 95.4735 10.937 96.4492 10.5585C97.6261 10.0971 98.8089 10.103 99.9443 10.6886C101.003 11.2386 101.541 12.1495 101.577 13.3324C101.606 14.1722 101.577 15.0121 101.577 15.846H101.582ZM98.525 15.0949C98.2766 15.0949 98.0223 15.0831 97.7739 15.0949C97.4664 15.1067 97.153 15.1422 96.8691 15.2783C96.4906 15.4616 96.331 15.7632 96.3487 16.1773C96.3605 16.5794 96.5439 16.8693 96.9164 17.0349C97.2299 17.1709 97.5611 17.1886 97.9041 17.1532C98.9626 17.0408 99.5718 16.3429 99.5304 15.2842C99.5304 15.1363 99.4653 15.089 99.3234 15.0949C99.0573 15.1008 98.797 15.0949 98.5309 15.0949H98.525Z" fill="#212121"/>
<path d="M20.7583 0.0194397C22.775 0.0194397 24.4072 1.65185 24.4072 3.66279C24.4072 5.6619 22.7572 7.30614 20.7524 7.31206C18.7417 7.31206 17.0977 5.66782 17.0977 3.65096C17.0977 1.64594 18.7358 0.0253542 20.7583 0.0253542V0.0194397Z" fill="#212121"/>
<path d="M8.56255 12.1878C8.56255 10.171 10.1948 8.53856 12.2055 8.55039C14.3995 8.56813 15.8721 10.3839 15.8425 12.2174C15.813 14.2283 14.1985 15.8489 12.1818 15.843C10.1711 15.843 8.55664 14.2047 8.55664 12.1819L8.56255 12.1878Z" fill="#212121"/>
<path d="M12.1941 7.30633C10.0829 7.2945 8.52162 5.53197 8.55119 3.59792C8.58076 1.66978 10.2426 -0.0276899 12.2828 0.0137119C14.1812 0.0551136 15.8844 1.66978 15.843 3.72212C15.8016 5.69166 14.1753 7.31816 12.1941 7.30633Z" fill="#212121"/>
<path d="M63.5637 14.5066C63.5755 13.3296 63.9245 12.2828 64.7583 11.4311C65.3379 10.8396 66.0475 10.4611 66.8636 10.3191C68.1588 10.0885 69.3711 10.2836 70.4238 11.1176C71.2754 11.7859 71.7544 12.679 71.92 13.7377C72.1033 14.9561 71.9082 16.0976 71.1867 17.1149C70.4711 18.1204 69.4658 18.6468 68.2416 18.7769C67.3072 18.8775 66.4201 18.7178 65.604 18.2505C64.4094 17.5644 63.7884 16.4998 63.5992 15.1631C63.5696 14.9502 63.546 14.7314 63.5578 14.5125L63.5637 14.5066ZM67.8099 16.9138C68.6378 16.8843 69.2706 16.4998 69.6668 15.7428C69.8383 15.4175 69.9152 15.0626 69.9329 14.6959C69.9684 13.8915 69.7674 13.1818 69.1523 12.6258C68.3362 11.8806 66.8873 11.9752 66.1954 12.8387C65.4975 13.7141 65.4266 14.69 65.8642 15.6895C66.219 16.4998 66.8932 16.8961 67.8158 16.9198L67.8099 16.9138Z" fill="#212121"/>
<path d="M73.1602 14.5344C73.1602 13.251 73.1602 11.9734 73.1602 10.69C73.1602 10.4061 73.1602 10.4061 73.4499 10.4061C73.9112 10.4061 74.3725 10.4061 74.8397 10.4061C74.9875 10.4061 75.0585 10.4534 75.0822 10.6013C75.1058 10.7432 75.1354 10.8852 75.1709 11.0271C75.2123 11.2105 75.2418 11.2164 75.3779 11.0863C75.8214 10.6545 76.3536 10.3943 76.9628 10.2819C78.7902 9.9625 80.4283 11.1277 80.7181 12.9553C80.7654 13.2687 80.795 13.5822 80.795 13.9016C80.795 15.3861 80.795 16.8707 80.795 18.3611C80.795 18.645 80.7831 18.6509 80.5052 18.6569C80.0025 18.6569 79.4998 18.6569 78.9971 18.6569C78.7428 18.6569 78.731 18.6391 78.731 18.3848C78.731 16.8884 78.731 15.3861 78.731 13.8897C78.731 13.5526 78.6719 13.2332 78.4945 12.9434C78.1041 12.2987 77.3353 12.003 76.5251 12.1804C75.8096 12.3401 75.3305 12.8784 75.2359 13.6295C75.2123 13.7951 75.2064 13.9548 75.2064 14.1204C75.2064 15.5399 75.2064 16.9594 75.2064 18.3789C75.2064 18.6509 75.2064 18.6569 74.9284 18.6569C74.4316 18.6569 73.9349 18.6569 73.4381 18.6569C73.172 18.6569 73.1661 18.6569 73.1661 18.3789C73.1661 17.0954 73.1661 15.8179 73.1661 14.5344H73.1602Z" fill="#212121"/>
<path d="M32.1309 14.0198C32.1309 12.5649 32.1309 11.1158 32.1309 9.66082C32.1309 9.38875 32.1309 9.38284 31.8589 9.38284C30.9068 9.38284 29.9546 9.38284 29.0025 9.38284C28.7423 9.38284 28.7305 9.37692 28.7305 9.11668C28.7305 8.61395 28.7305 8.11121 28.7305 7.60848C28.7305 7.33049 28.7423 7.31866 29.0202 7.31866C31.3267 7.31866 33.6331 7.31866 35.9454 7.31866C36.4362 7.31866 36.9212 7.31866 37.412 7.31866C37.5894 7.31866 37.6604 7.38372 37.6545 7.56116C37.6486 8.08755 37.6486 8.61986 37.6545 9.14625C37.6545 9.32961 37.5835 9.38875 37.4061 9.38284C36.4422 9.38284 35.4782 9.38284 34.5083 9.38284C34.2481 9.38284 34.2481 9.38284 34.2481 9.64899C34.2481 12.5412 34.2481 15.4334 34.2481 18.3256C34.2481 18.5425 34.1377 18.6509 33.9169 18.6509C33.4083 18.6509 32.8997 18.6509 32.3912 18.6509C32.1428 18.6509 32.1309 18.6391 32.1309 18.3966C32.1309 16.9357 32.1309 15.4748 32.1309 14.0198Z" fill="#212121"/>
<path d="M92.5883 13.4226C92.3162 13.4226 92.0442 13.4226 91.7781 13.4226C91.6539 13.4226 91.5711 13.3812 91.5119 13.257C91.1571 12.4704 90.5243 12.1036 89.6786 12.1273C88.8211 12.151 88.2002 12.5768 87.8276 13.3457C87.3308 14.3571 87.5556 15.6524 88.3303 16.3858C89.0399 17.06 90.27 17.1014 91.0092 16.4863C91.2399 16.2911 91.4055 16.0427 91.506 15.7588C91.5592 15.6051 91.642 15.5577 91.7958 15.5637C92.334 15.5696 92.8662 15.5696 93.4044 15.5637C93.5759 15.5637 93.6232 15.6169 93.5818 15.7884C93.1974 17.2907 92.1211 18.515 90.4474 18.7693C88.1115 19.1183 85.8938 17.7284 85.5862 15.1615C85.4266 13.8484 85.6986 12.6478 86.5738 11.6246C87.2066 10.8853 88.0227 10.4594 88.9749 10.3056C89.8206 10.1696 90.6662 10.2169 91.4587 10.5836C92.535 11.0745 93.1796 11.9321 93.5345 13.0322C93.6587 13.4285 93.6527 13.4285 93.2329 13.4285C93.02 13.4285 92.8071 13.4285 92.6001 13.4285L92.5883 13.4226Z" fill="#212121"/>
<path d="M61.5101 15.5209C61.5101 16.4849 61.5101 17.449 61.5101 18.4131C61.5101 18.6023 61.451 18.6674 61.2617 18.6674C60.7472 18.6556 60.2327 18.6556 59.7123 18.6674C59.5231 18.6674 59.4639 18.6023 59.4639 18.4131C59.4639 16.4968 59.4639 14.5864 59.4639 12.6701C59.4639 12.469 59.3634 12.3665 59.1623 12.3625C58.8666 12.3625 58.565 12.3625 58.2693 12.3625C58.1333 12.3625 58.0801 12.3152 58.0801 12.1792C58.0801 11.6528 58.0801 11.1205 58.0801 10.5941C58.0801 10.458 58.1333 10.4048 58.2693 10.4048C58.6064 10.4048 58.9435 10.4048 59.2806 10.4048C59.4166 10.4048 59.4698 10.3575 59.4698 10.2215C59.4698 9.86067 59.4698 9.49397 59.4698 9.13318C59.4817 8.02716 60.2032 7.27602 61.309 7.19321C61.8945 7.15181 62.4859 7.18138 63.0714 7.16956C63.2311 7.16956 63.2961 7.23462 63.2902 7.39431C63.2843 7.85564 63.2843 8.31697 63.2902 8.77831C63.2902 8.94983 63.2192 8.99715 63.0655 8.99123C62.7402 8.98532 62.4149 8.99123 62.0956 8.99123C61.7348 8.99123 61.5279 9.19824 61.5101 9.55311C61.5042 9.77786 61.5101 10.0026 61.5101 10.2274C61.5101 10.3634 61.5633 10.4107 61.6994 10.4107C62.1547 10.4107 62.6101 10.4107 63.0655 10.4107C63.237 10.4107 63.2961 10.4699 63.2961 10.6414C63.2902 11.1441 63.2902 11.6469 63.2961 12.1496C63.2961 12.327 63.2311 12.3803 63.0596 12.3743C62.616 12.3684 62.1725 12.3743 61.7289 12.3684C61.5515 12.3684 61.5042 12.4276 61.5042 12.5991C61.5101 13.575 61.5042 14.5509 61.5042 15.5327L61.5101 15.5209Z" fill="#212121"/>
<path d="M48.2085 13.0031C48.2085 14.7774 48.2085 16.5577 48.2085 18.3321C48.2085 18.6515 48.2085 18.6574 47.8891 18.6574C47.3983 18.6574 46.9133 18.6574 46.4225 18.6574C46.1504 18.6574 46.1445 18.6574 46.1445 18.3794C46.1445 16.1319 46.1445 13.8903 46.1445 11.6427C46.1445 10.3061 46.1445 8.97529 46.1445 7.6386C46.1445 7.32513 46.1445 7.32513 46.4698 7.32513C46.9547 7.32513 47.4338 7.32513 47.9187 7.32513C48.1966 7.32513 48.2085 7.33696 48.2085 7.61495C48.2085 9.41296 48.2085 11.211 48.2085 13.0031Z" fill="#212121"/>
<path d="M82.291 14.5326C82.291 13.2433 82.291 11.9598 82.291 10.6705C82.291 10.4102 82.2969 10.4043 82.5631 10.4043C83.0835 10.4043 83.6098 10.4043 84.1302 10.4043C84.3017 10.4043 84.3609 10.4634 84.3609 10.635C84.3609 13.2314 84.3609 15.822 84.3609 18.4185C84.3609 18.6018 84.2958 18.661 84.1125 18.661C83.5862 18.6551 83.0539 18.6551 82.5276 18.661C82.3442 18.661 82.291 18.5959 82.291 18.4185C82.291 17.1232 82.291 15.8279 82.291 14.5386V14.5326Z" fill="#212121"/>
<path d="M83.3081 6.83896C83.9882 6.83896 84.5205 7.35944 84.5205 8.03369C84.5205 8.69021 83.9823 9.24026 83.3141 9.258C82.6635 9.26983 82.1017 8.70795 82.0899 8.04552C82.084 7.3831 82.6221 6.83896 83.3022 6.83896H83.3081Z" fill="#212121"/>
<path d="M67.8454 9.30142C67.6206 9.30142 67.3959 9.30142 67.1712 9.30142C66.976 9.30142 66.9583 9.26002 67.0647 9.09442C67.5142 8.40833 67.9636 7.72816 68.4131 7.04207C68.4663 6.96518 68.5255 6.91787 68.626 6.91787C69.2292 6.91787 69.8265 6.91787 70.4297 6.91787C70.4711 6.91787 70.5303 6.90604 70.5539 6.95927C70.5776 7.0125 70.5303 7.04207 70.5007 7.07756C69.9211 7.77548 69.3357 8.4793 68.7561 9.17722C68.6792 9.26594 68.5905 9.30142 68.4781 9.29551C68.2652 9.29551 68.0583 9.29551 67.8454 9.29551V9.30142Z" fill="#212121"/>
</svg>
