<svg width="95" height="17" viewBox="0 0 95 17" fill="none" xmlns="http://www.w3.org/2000/svg">
<g clip-path="url(#clip0_1_268)">
<path d="M27.1198 6.02136C27.7015 6.33065 28.1627 6.77598 28.5044 7.3582C28.846 7.93958 29.0164 8.62405 29.0164 9.40993V13.0892H27.5277L27.3995 11.9569C27.1327 12.3658 26.7799 12.6827 26.3428 12.9084C25.9048 13.134 25.4358 13.2464 24.9341 13.2464C24.2621 13.2464 23.6537 13.0841 23.109 12.7588C22.5643 12.4343 22.1323 11.9805 21.8122 11.3991C21.4921 10.8178 21.332 10.1544 21.332 9.40993C21.332 8.66546 21.4998 8.03169 21.8363 7.44439C22.1727 6.8571 22.634 6.39656 23.2208 6.06108C23.8077 5.7256 24.4643 5.55829 25.1905 5.55829C25.9168 5.55829 26.5381 5.71293 27.1198 6.02221V6.02136ZM26.2472 11.4929C26.5777 11.3096 26.8453 11.0375 27.0475 10.6758C27.2506 10.3141 27.3513 9.89244 27.3513 9.40993C27.3513 8.92742 27.2523 8.50575 27.0553 8.14408C26.8573 7.78241 26.5932 7.50693 26.2627 7.31848C25.9314 7.13004 25.5743 7.0354 25.1897 7.0354C24.7835 7.0354 24.4152 7.13511 24.0848 7.3337C23.7535 7.53312 23.4928 7.81283 23.3 8.1745C23.1081 8.53617 23.0117 8.9477 23.0117 9.40909C23.0117 10.1113 23.214 10.68 23.6201 11.1152C24.0254 11.5504 24.5486 11.7676 25.1888 11.7676C25.5623 11.7676 25.9142 11.6763 26.2455 11.4921L26.2472 11.4929Z" fill="#212121"/>
<path d="M32.4041 13.0884H30.7227V2.73169H32.4041V13.0884Z" fill="#212121"/>
<path d="M41.4139 10.0066H35.6502C35.7569 10.5727 36.0021 11.013 36.3868 11.3273C36.7714 11.6417 37.2352 11.7989 37.7799 11.7989C38.6654 11.7989 39.2686 11.4896 39.5887 10.871H41.2375C41.0137 11.6045 40.586 12.1842 39.957 12.6084C39.3271 13.0326 38.6069 13.2456 37.7954 13.2456C37.0588 13.2456 36.3997 13.0833 35.818 12.758C35.2363 12.4335 34.7828 11.9797 34.4567 11.3983C34.1305 10.8169 33.9688 10.1536 33.9688 9.40913C33.9688 8.66466 34.1314 8.00215 34.4567 7.41993C34.7819 6.83855 35.2328 6.38223 35.8094 6.05183C36.3859 5.72142 37.0425 5.55664 37.7791 5.55664C38.4511 5.55664 39.0681 5.7248 39.6283 6.05943C40.1885 6.39491 40.6291 6.8563 40.9492 7.44275C41.2693 8.03004 41.4293 8.68494 41.4293 9.40828C41.4293 9.64996 41.4242 9.84854 41.413 10.0057L41.4139 10.0066ZM36.3945 7.47486C36.0159 7.78921 35.7672 8.21426 35.6502 8.74832H39.7651C39.7118 8.26665 39.4984 7.85512 39.1249 7.51373C38.7514 7.17318 38.3031 7.00249 37.7799 7.00249C37.2567 7.00249 36.774 7.15966 36.3954 7.47401L36.3945 7.47486Z" fill="#212121"/>
<path d="M49.0219 5.71467H50.4951V12.7115C50.4951 13.5396 50.3187 14.2258 49.9667 14.7708C49.6148 15.3159 49.1553 15.7139 48.5899 15.9657C48.0237 16.2175 47.4214 16.3434 46.7811 16.3434C45.7244 16.3434 44.8622 16.1018 44.1953 15.6201C43.5284 15.1376 43.1249 14.4616 42.9863 13.592H44.6996C44.8166 14.001 45.0567 14.3179 45.4198 14.5435C45.783 14.7692 46.2364 14.8815 46.7811 14.8815C47.368 14.8815 47.8559 14.7007 48.2457 14.339C48.6355 13.9774 48.83 13.4349 48.83 12.7115V11.9721C48.5633 12.36 48.2079 12.6617 47.7656 12.8763C47.3224 13.0909 46.8397 13.1982 46.3165 13.1982C45.6969 13.1982 45.1152 13.0487 44.5714 12.7504C44.0267 12.4512 43.5895 12.011 43.2582 11.4296C42.9269 10.8482 42.7617 10.1638 42.7617 9.37787C42.7617 8.592 42.9269 7.90752 43.2582 7.32614C43.5887 6.74476 44.0267 6.3045 44.5714 6.00536C45.1161 5.70622 45.6978 5.5575 46.3165 5.5575C46.8612 5.5575 47.3594 5.66988 47.8138 5.89551C48.2672 6.12113 48.6226 6.44309 48.8782 6.86222L49.0219 5.71467ZM47.7329 11.4381C48.0693 11.2496 48.3412 10.9792 48.5495 10.6285C48.7577 10.2778 48.8619 9.86123 48.8619 9.37872C48.8619 8.89621 48.7577 8.48045 48.5495 8.12892C48.3412 7.77823 48.0693 7.50782 47.7329 7.31938C47.3964 7.13094 47.0419 7.0363 46.6684 7.0363C46.2623 7.0363 45.8888 7.13094 45.548 7.31938C45.2064 7.50782 44.9345 7.78077 44.7314 8.13652C44.5283 8.49313 44.4277 8.90719 44.4277 9.37872C44.4277 9.85024 44.5292 10.2643 44.7314 10.6209C44.9345 10.9775 45.2064 11.2496 45.548 11.4381C45.8897 11.6265 46.2631 11.7211 46.6684 11.7211C47.0419 11.7211 47.3973 11.6265 47.7329 11.4381Z" fill="#212121"/>
<path d="M52.0907 8.56068C52.0907 7.64889 52.3549 6.92048 52.8832 6.37543C53.4116 5.83039 54.1241 5.55829 55.0207 5.55829C55.2875 5.55829 55.5861 5.59547 55.9174 5.66814V7.17736C55.821 7.16722 55.6291 7.16131 55.3408 7.16131C54.8177 7.16131 54.4253 7.29229 54.1637 7.55425C53.9021 7.81621 53.7713 8.24633 53.7713 8.84376V13.0892H52.0898V8.56068H52.0907Z" fill="#212121"/>
<path d="M62.5495 6.02136C63.1312 6.33065 63.5924 6.77598 63.9341 7.3582C64.2757 7.93958 64.446 8.62405 64.446 9.40993V13.0892H62.9574L62.8292 11.9569C62.5624 12.3658 62.2096 12.6827 61.7725 12.9084C61.3345 13.134 60.8655 13.2464 60.3638 13.2464C59.6917 13.2464 59.0834 13.0841 58.5387 12.7588C57.994 12.4343 57.562 11.9805 57.2419 11.3991C56.9218 10.8178 56.7617 10.1544 56.7617 9.40993C56.7617 8.66546 56.9295 8.03169 57.266 7.44439C57.6024 6.8571 58.0637 6.39656 58.6505 6.06108C59.2374 5.7256 59.894 5.55829 60.6202 5.55829C61.3465 5.55829 61.9678 5.71293 62.5495 6.02221V6.02136ZM61.6769 11.4929C62.0074 11.3096 62.275 11.0375 62.4772 10.6758C62.6803 10.3141 62.781 9.89244 62.781 9.40993C62.781 8.92742 62.682 8.50575 62.485 8.14408C62.287 7.78241 62.0229 7.50693 61.6924 7.31848C61.3611 7.13004 61.004 7.0354 60.6194 7.0354C60.2132 7.0354 59.8449 7.13511 59.5145 7.3337C59.1832 7.53312 58.9225 7.81283 58.7297 8.1745C58.5369 8.53617 58.4414 8.9477 58.4414 9.40909C58.4414 10.1113 58.6437 10.68 59.0498 11.1152C59.4551 11.5504 59.9783 11.7676 60.6185 11.7676C60.992 11.7676 61.3439 11.6763 61.6752 11.4921L61.6769 11.4929Z" fill="#212121"/>
<path d="M65.9978 8.79649C65.9978 7.82133 66.2809 7.03799 66.8463 6.44562C67.4116 5.85326 68.1801 5.5575 69.1516 5.5575C69.6102 5.5575 70.0138 5.63608 70.3606 5.79326C70.7074 5.95043 70.9853 6.13127 71.1936 6.33577C71.4018 6.54026 71.5429 6.72617 71.6178 6.89349H71.6496C71.7133 6.73631 71.8501 6.55294 72.0575 6.34337C72.2658 6.13381 72.5428 5.95043 72.8896 5.79326C73.2364 5.63608 73.6391 5.5575 74.0986 5.5575C75.0805 5.5575 75.8515 5.8541 76.4125 6.44562C76.9727 7.03799 77.2533 7.82133 77.2533 8.79649V13.0884H75.5718V8.92156C75.5718 8.33426 75.441 7.87879 75.1794 7.55345C74.9178 7.22896 74.5315 7.06587 74.0186 7.06587C73.5057 7.06587 73.1194 7.22812 72.8578 7.55345C72.5962 7.87879 72.4654 8.33933 72.4654 8.93677V13.1036H70.784V8.93677C70.784 8.33933 70.6532 7.87795 70.3916 7.55345C70.13 7.22896 69.7427 7.06587 69.2307 7.06587C68.7187 7.06587 68.3315 7.22812 68.0699 7.55345C67.8083 7.87879 67.6775 8.33426 67.6775 8.92156V13.0884H65.9961V8.79649H65.9978Z" fill="#212121"/>
<path d="M85.9568 10.0066H80.1932C80.2999 10.5727 80.5451 11.013 80.9297 11.3273C81.3144 11.6417 81.7782 11.7989 82.3229 11.7989C83.2084 11.7989 83.8116 11.4896 84.1317 10.871H85.7804C85.5567 11.6045 85.129 12.1842 84.5 12.6084C83.8701 13.0326 83.1499 13.2456 82.3384 13.2456C81.6018 13.2456 80.9427 13.0833 80.361 12.758C79.7793 12.4335 79.3258 11.9797 78.9996 11.3983C78.6735 10.8169 78.5117 10.1536 78.5117 9.40913C78.5117 8.66466 78.6744 8.00215 78.9996 7.41993C79.3249 6.83855 79.7758 6.38223 80.3523 6.05183C80.9289 5.72142 81.5855 5.55664 82.322 5.55664C82.9941 5.55664 83.6111 5.7248 84.1713 6.05943C84.7315 6.39491 85.1721 6.8563 85.4922 7.44275C85.8123 8.03004 85.9723 8.68494 85.9723 9.40828C85.9723 9.64996 85.9672 9.84854 85.956 10.0057L85.9568 10.0066ZM80.9375 7.47486C80.5589 7.78921 80.3102 8.21426 80.1932 8.74832H84.3081C84.2547 8.26665 84.0413 7.85512 83.6679 7.51373C83.2944 7.17318 82.8461 7.00249 82.3229 7.00249C81.7997 7.00249 81.317 7.15966 80.9384 7.47401L80.9375 7.47486Z" fill="#212121"/>
<path d="M93.0456 2.73169H94.7425V9.36263C94.7425 10.1485 94.5686 10.8355 94.2219 11.422C93.8751 12.0093 93.413 12.4597 92.8373 12.774C92.2616 13.0884 91.6257 13.2455 90.9321 13.2455C90.2386 13.2455 89.5682 13.0782 88.9865 12.7427C88.4048 12.4073 87.9462 11.9484 87.6097 11.367C87.2733 10.7857 87.1055 10.1325 87.1055 9.40995C87.1055 8.68745 87.2604 8.00045 87.5701 7.41315C87.8799 6.82586 88.3007 6.37038 88.8351 6.04505C89.3686 5.72056 89.9563 5.55747 90.5965 5.55747C91.0664 5.55747 91.5199 5.65718 91.957 5.85661C92.3941 6.05603 92.7573 6.33405 93.0456 6.68981V2.73169ZM91.9888 11.4845C92.309 11.2961 92.568 11.0231 92.765 10.6674C92.9621 10.3108 93.061 9.89162 93.061 9.40911C93.061 8.9266 92.9595 8.49225 92.7564 8.13565C92.5533 7.77989 92.284 7.50695 91.9475 7.31851C91.6111 7.13007 91.2566 7.03542 90.8831 7.03542C90.2747 7.03542 89.773 7.25513 89.3781 7.69539C88.9831 8.13565 88.786 8.70689 88.786 9.40911C88.786 10.1113 88.9917 10.6674 89.4022 11.1068C89.8126 11.547 90.3229 11.7667 90.9313 11.7667C91.3151 11.7667 91.6679 11.6721 91.988 11.4837L91.9888 11.4845Z" fill="#212121"/>
<path d="M2.74675 5.8867C3.77728 5.64784 4.41551 4.63383 4.17229 3.62184C3.92906 2.60984 2.89647 1.98309 1.86594 2.22194C0.835411 2.46079 0.197175 3.4748 0.440402 4.4868C0.68363 5.49879 1.71622 6.12555 2.74675 5.8867Z" fill="#212121"/>
<path d="M6.33203 7.1579V11.8647C6.33203 14.4649 8.47814 16.5724 11.1259 16.5724H14.0035C15.0619 16.5724 15.9198 15.7299 15.9198 14.6905V7.1579H6.33203Z" fill="#212121"/>
<path d="M5.92232 12.0781V7.1579H4.93394C2.2088 7.1579 0 9.36093 0 12.079C0 14.797 2.2088 17 4.93394 17H10.8571C8.13201 16.9991 5.92321 14.7952 5.92321 12.0772L5.92232 12.0781Z" fill="#212121"/>
<path d="M11.1268 0.894714C8.479 0.894714 6.33203 3.00222 6.33203 5.60237V6.54542H15.9198V5.60237C15.9207 3.00222 13.7737 0.894714 11.1268 0.894714Z" fill="#212121"/>
</g>
<defs>
<clipPath id="clip0_1_268">
<rect width="95" height="17" fill="white"/>
</clipPath>
</defs>
</svg>
