<svg width="72" height="23" viewBox="0 0 72 23" fill="none" xmlns="http://www.w3.org/2000/svg">
<path d="M52.5976 15.8333C50.7447 17.5622 48.6966 17.9981 46.4311 17.4883C42.9577 16.7125 40.5496 13.3803 41.0297 10.0556C41.5473 6.49437 44.7657 3.79023 48.3141 3.938C51.9825 4.09315 54.9082 6.88596 55.0508 10.4472C55.1258 12.3903 55.1783 14.3482 55.0358 16.284C54.8182 19.2467 53.3553 21.5149 50.4596 22.5271C47.7139 23.4876 45.1257 23 42.9877 20.9091C42.5901 20.5175 41.9974 20.1185 42.6651 19.461C43.4453 18.6926 43.9554 18.6556 44.6531 19.3428C46.1385 20.7983 48.0665 21.1972 49.9045 20.4288C51.5099 19.7565 52.6201 17.939 52.5901 15.8407L52.5976 15.8333ZM48.2165 6.13973C45.5909 6.10279 43.4378 8.17892 43.4228 10.7722C43.4078 13.3582 45.5008 15.5599 47.984 15.5673C50.6997 15.5747 52.7627 13.5946 52.7852 10.9422C52.8077 8.17154 50.9172 6.17667 48.2165 6.13973Z" fill="#212121"/>
<path d="M64.2325 17.6656C60.2865 17.6656 57.1882 14.6364 57.2032 10.787C57.2182 7.13716 60.5415 3.94539 64.2925 3.96755C68.1109 3.98972 71.2768 7.10022 71.2843 10.8461C71.2993 14.7029 68.2385 17.6582 64.225 17.6656H64.2325ZM68.8461 10.8683C68.8386 8.07549 66.9256 6.12496 64.21 6.13973C61.6818 6.15451 59.6338 8.25281 59.6563 10.8018C59.6788 13.4764 61.7043 15.5747 64.2475 15.5599C66.8806 15.5451 68.8611 13.5355 68.8536 10.8609L68.8461 10.8683Z" fill="#212121"/>
<path d="M15.2611 8.85127C15.2611 7.52136 15.2761 6.38355 15.2611 5.25313C15.2461 4.38131 15.7413 4.14488 16.5215 4.15227C17.2716 4.15227 17.7143 4.42564 17.7143 5.23097C17.6993 7.59525 17.8118 9.9743 17.6692 12.3312C17.4817 15.5082 15.0961 17.8429 11.5327 17.6952C8.24685 17.5622 5.99628 15.4269 5.85374 11.9322C5.76372 9.73049 5.83874 7.52136 5.82373 5.31963C5.82373 4.49952 6.19883 4.15227 7.02404 4.15227C7.85675 4.15227 8.35938 4.4478 8.36688 5.31963C8.37438 7.26277 8.36688 9.2133 8.38188 11.1564C8.38188 11.6736 8.38188 12.1982 8.4419 12.708C8.65195 14.3999 9.80725 15.4639 11.5252 15.5747C13.2581 15.6855 14.586 14.8137 15.0511 13.2104C15.4862 11.7106 15.1636 10.1738 15.2761 8.85866L15.2611 8.85127Z" fill="#212121"/>
<path d="M20.6082 12.974C20.6082 11.9691 20.5932 10.9643 20.6082 9.95951C20.6682 6.42048 23.0539 4.01187 26.5197 3.96754C29.8506 3.92321 32.3187 6.25055 32.4687 9.71569C32.5663 11.947 32.4762 14.193 32.4988 16.4243C32.5063 17.3996 31.9211 17.4809 31.1409 17.4957C30.3157 17.5104 30.0306 17.1706 30.0456 16.3948C30.0756 14.4812 30.0681 12.5676 30.0456 10.654C30.0456 10.0777 29.9931 9.48666 29.8806 8.91775C29.5355 7.15932 28.3427 6.18405 26.5872 6.17666C24.7718 6.16189 23.5565 7.14454 23.2189 8.95469C22.8888 10.7205 23.1289 12.5159 23.0689 14.2891C23.0539 14.8432 23.0689 15.39 23.0689 15.9441C23.0689 17.3627 22.9563 17.4883 21.816 17.4809C20.7058 17.4809 20.6157 17.3553 20.6082 15.8998C20.6082 14.9245 20.6082 13.9566 20.6082 12.9814V12.974Z" fill="#212121"/>
<path d="M0.0310528 10.7723C0.0310528 8.99165 0.0235509 7.21106 0.0310528 5.43046C0.0385547 4.3887 0.301121 4.15227 1.29137 4.14488C2.1916 4.13011 2.49168 4.5808 2.49168 5.41568C2.47667 9.04337 2.46917 12.6637 2.49168 16.2914C2.49168 17.1632 2.15409 17.4957 1.26137 17.4957C0.383642 17.4957 0.00104517 17.2001 0.016049 16.3135C0.0460566 14.4664 0.0235509 12.6267 0.0235509 10.7796L0.0310528 10.7723Z" fill="#212121"/>
<path d="M35.8243 10.7722C35.8243 8.99164 35.8168 7.21104 35.8243 5.43044C35.8318 4.39607 36.1169 4.15226 37.0922 4.14487C37.9924 4.14487 38.285 4.57339 38.285 5.41567C38.2625 9.04336 38.2625 12.6637 38.285 16.2913C38.285 17.1632 37.9549 17.4957 37.0622 17.4957C36.1769 17.4957 35.8018 17.178 35.8168 16.3061C35.8468 14.459 35.8243 12.6193 35.8243 10.7722Z" fill="#212121"/>
<path d="M11.7799 2.27562C11.3823 2.27562 10.9922 2.25346 10.5946 2.27562C9.84446 2.32734 9.39434 2.07613 9.38684 1.26341C9.37934 0.46547 9.71692 0.0591092 10.5646 0.0812743C11.4199 0.103439 12.2751 0.0812743 13.1228 0.0960511C13.888 0.0960511 14.128 0.546742 14.128 1.23386C14.128 1.95792 13.813 2.31995 13.0553 2.27562C12.6277 2.25346 12.2001 2.27562 11.7724 2.27562H11.7799Z" fill="#212121"/>
<path d="M1.37457 0.014987C2.19228 -0.0810618 2.52236 0.354852 2.49986 1.20451C2.46985 2.21672 2.2673 2.40882 1.21703 2.43837C0.331807 2.46793 -0.028284 2.09851 0.0017236 1.23407C0.0392331 0.199696 0.211777 0.00759864 1.37457 0.014987Z" fill="#212121"/>
<path d="M38.27 1.24125C38.3825 2.15002 37.9324 2.46772 37.0622 2.43816C36.0569 2.40122 35.8393 2.16479 35.8093 1.13781C35.7868 0.206874 36.2745 0 37.1072 0C38.0149 0 38.3825 0.384195 38.27 1.24125Z" fill="#212121"/>
</svg>
