<svg width="88" height="18" viewBox="0 0 88 18" fill="none" xmlns="http://www.w3.org/2000/svg">
<path d="M9.52742 0C11.808 0.443302 13.766 1.44073 15.1313 3.33954C16.9543 5.87375 17.2694 8.60006 16.0916 11.4963C15.8515 12.0948 15.574 12.2204 14.9663 11.8953C13.4959 11.0973 13.4809 11.1269 13.8785 9.58272C14.6587 6.56087 12.7307 3.46515 9.63244 2.77064C6.49665 2.06874 3.36085 4.07099 2.7532 7.15933C2.06302 10.6762 4.7337 13.8089 8.39463 13.8089C8.79974 13.8089 9.33237 13.5503 9.57994 14.0084C9.93253 14.629 10.1726 15.3235 10.2476 16.0402C10.2851 16.3579 9.91001 16.3505 9.67745 16.3874C7.05179 16.8012 4.74871 16.1066 2.7457 14.4073C1.26032 13.1439 0.442612 11.5037 0 9.6566V6.69386C0.442612 5.30485 0.967749 3.96756 1.973 2.84452C3.35336 1.30774 5.09379 0.428526 7.1118 0.0147767H9.52742V0Z" fill="#212121"/>
<path d="M33.1596 6.65689C33.0846 8.20844 33.3397 10.122 33.0396 12.0061C32.672 14.3408 31.3592 15.6485 29.0036 16.1288C27.5332 16.4317 26.0553 16.4391 24.5774 16.1288C21.9518 15.5673 20.4664 13.9123 20.4064 11.2303C20.3314 7.87597 20.3914 4.51426 20.3689 1.15994C20.3689 0.650139 20.5714 0.450653 21.0815 0.450653C23.3996 0.443265 22.987 0.361993 23.002 2.20909C23.0245 5.1201 22.987 8.03851 23.0245 10.9495C23.0395 12.2425 23.4071 13.432 24.825 13.9197C26.1453 14.3777 27.5107 14.3777 28.816 13.8827C30.0988 13.3951 30.4889 12.2942 30.5039 11.0677C30.5415 8.15672 30.5264 5.23832 30.5264 2.3273C30.5264 2.0096 30.549 1.68451 30.5264 1.36681C30.4664 0.701858 30.744 0.435876 31.4342 0.443265C33.4897 0.46543 33.1296 0.361993 33.1521 2.09087C33.1671 3.49466 33.1521 4.90584 33.1521 6.65689H33.1596Z" fill="#212121"/>
<path d="M85.8303 16.1953C84.9801 16.1953 84.4 15.816 84.0899 15.0575C83.7673 14.2521 83.4297 13.4542 83.1296 12.6415C82.9721 12.1982 82.702 12.0356 82.2294 12.043C80.669 12.0652 79.1086 12.0652 77.5482 12.043C77.0306 12.0356 76.7755 12.2351 76.6105 12.6932C76.2504 13.6685 75.8303 14.6216 75.4627 15.5968C75.2977 16.0327 75.0501 16.2396 74.57 16.2101C74.1424 16.1805 73.7148 16.2101 73.2872 16.2101C72.4394 16.2027 72.4019 16.1509 72.717 15.3678C74.4349 11.1195 76.1604 6.87854 77.8783 2.63023C78.0284 2.26081 78.1784 1.89878 78.3209 1.52936C78.711 0.561486 79.9038 0.0960189 80.8641 0.531933C81.1867 0.6797 81.2317 0.990012 81.3367 1.25599C83.2272 5.94022 85.1177 10.6244 87.0006 15.3087C87.3457 16.1657 87.3157 16.2027 86.3555 16.2101C86.1754 16.2101 86.0029 16.2101 85.8228 16.2101L85.8303 16.1953ZM79.8963 3.73849C79.0786 5.81462 78.3434 7.67649 77.6082 9.53836C77.4732 9.87083 77.5557 10.0703 77.9458 10.0703C79.2061 10.0703 80.4665 10.0703 81.7268 10.0703C82.0719 10.0703 82.2519 9.93733 82.1094 9.56052C81.3967 7.69126 80.684 5.82201 79.8963 3.73849Z" fill="#212121"/>
<path d="M36.5573 16.1953C35.6071 16.1953 35.3045 15.7693 35.6496 14.9171C37.4876 10.3733 39.3406 5.83682 41.1485 1.28558C41.4411 0.546746 41.8987 0.421143 42.5964 0.43592C43.2716 0.458085 43.8192 0.443308 44.1343 1.25603C45.9872 5.9772 47.9002 10.6762 49.7907 15.3826C50.0908 16.1288 50.0458 16.1805 49.2506 16.1953C47.9702 16.2199 47.095 15.6535 46.6249 14.496C46.3623 13.8532 46.0923 13.2178 45.8447 12.5676C45.7022 12.1908 45.4621 12.0357 45.0495 12.0357C43.4366 12.0504 41.8237 12.0504 40.2183 12.0357C39.7607 12.0357 39.5356 12.2204 39.3856 12.6193C39.1005 13.3877 38.7929 14.1413 38.4853 14.895C37.8777 16.38 38.1553 16.1658 36.5649 16.1879L36.5573 16.1953ZM42.7389 4.0045H42.5289C41.8087 5.8516 41.0885 7.68391 40.3608 9.51623C40.2033 9.92259 40.3983 10.0704 40.7809 10.0704C42.0112 10.0704 43.2415 10.0704 44.4719 10.0704C44.907 10.0704 45.0045 9.88565 44.8395 9.51623C44.7419 9.28719 44.6669 9.05815 44.5769 8.82172C43.9617 7.21106 43.3466 5.60778 42.7314 3.99711L42.7389 4.0045Z" fill="#212121"/>
<path d="M52.902 8.29716C52.902 5.97721 52.917 3.64987 52.8945 1.32993C52.8945 0.701914 53.1046 0.450709 53.7648 0.443321C55.5277 0.406379 55.5277 0.391603 55.5277 2.08354C55.5277 5.71123 55.5427 9.34631 55.5127 12.974C55.5127 13.7202 55.7303 13.964 56.4954 13.9493C58.7085 13.9049 60.9291 13.9345 63.1421 13.9345C64.0874 13.9345 64.1249 13.9714 64.1324 14.895C64.1324 15.0945 64.1249 15.2939 64.1324 15.486C64.1549 15.9737 63.9674 16.2101 63.4272 16.2027C60.1489 16.1879 56.878 16.1879 53.5997 16.2027C52.9996 16.2027 52.8945 15.8998 52.8945 15.4122C52.902 13.0405 52.8945 10.6688 52.8945 8.29716H52.902Z" fill="#212121"/>
<path d="M66.953 8.28972C66.953 5.96977 66.968 3.64243 66.9455 1.32249C66.938 0.694473 67.1331 0.435881 67.8082 0.443269C70.0138 0.472822 69.7137 0.288113 69.7212 2.29775C69.7362 6.59778 69.7212 10.8978 69.7212 15.1905C69.7212 16.1657 69.6912 16.1953 68.7085 16.1879C66.7355 16.1731 66.9755 16.4095 66.9605 14.5033C66.953 12.4272 66.9605 10.3511 66.9605 8.27494L66.953 8.28972Z" fill="#212121"/>
<path d="M10.0388 12.4937C9.98628 12.2573 10.1213 12.1317 10.3014 12.0061C10.6765 11.7549 11.0591 11.5185 11.4116 11.2377C11.6592 11.0382 11.8618 11.1121 12.1018 11.2377C13.6547 12.0578 15.2001 12.8853 16.7605 13.6906C17.1431 13.8901 17.2106 14.097 16.9405 14.4443C15.7853 15.9663 14.3149 17.0893 12.5444 17.8503C12.2218 17.9907 11.9143 18.0867 11.7567 17.6286C11.2016 15.9589 10.6314 14.2965 10.0688 12.6341C10.0538 12.5898 10.0463 12.5381 10.0313 12.4937H10.0388Z" fill="#212121"/>
</svg>
