<svg width="63" height="24" viewBox="0 0 63 24" fill="none" xmlns="http://www.w3.org/2000/svg">
<path d="M62.4976 8.94098C61.7576 11.421 61.0076 13.901 60.2676 16.381C59.7176 18.251 59.1676 20.121 58.6476 22.001C58.4976 22.551 58.2176 22.791 57.6276 22.771C56.5276 22.741 55.4276 22.731 54.3276 22.771C53.6476 22.801 53.3076 22.551 53.1376 21.881C52.2976 18.651 51.4076 15.431 50.5376 12.211C50.4676 11.961 50.4676 11.681 50.1176 11.461C49.6576 12.421 49.4876 13.441 49.1976 14.421C48.4476 16.951 47.7376 19.501 47.0276 22.051C46.8976 22.521 46.6676 22.781 46.1376 22.771C44.9076 22.751 43.6676 22.761 42.4376 22.771C41.9976 22.771 41.7476 22.591 41.6176 22.171C40.1476 17.201 38.6676 12.241 37.1776 7.28098C36.9776 6.61098 37.1476 6.32098 37.8576 6.35098C38.4476 6.37098 39.0476 6.41098 39.6276 6.35098C40.5176 6.25098 40.9076 6.62098 41.1276 7.47098C42.0676 11.091 43.0676 14.691 44.0576 18.291C44.1476 18.611 44.1876 18.971 44.5076 19.261C44.8276 19.001 44.8476 18.611 44.9376 18.281C45.9676 14.691 47.0076 11.101 47.9876 7.49098C48.2176 6.65098 48.5776 6.23098 49.4876 6.35098C49.9076 6.41098 50.3476 6.35098 50.7776 6.35098C52.1376 6.35098 52.1176 6.35098 52.4976 7.62098C53.5676 11.261 54.6576 14.891 55.7376 18.521C55.7976 18.741 55.7976 19.081 56.1076 19.051C56.4076 19.021 56.3576 18.681 56.4176 18.461C57.1776 15.621 57.9176 12.781 58.6776 9.94098C58.9476 8.93098 59.2576 7.94098 59.5176 6.93098C59.6276 6.52098 59.8476 6.35098 60.2476 6.35098C60.9976 6.36098 61.7476 6.37098 62.4976 6.37098V8.94098Z" fill="#212121"/>
<path d="M18.8468 14.431C18.6768 9.86102 22.6568 5.65102 27.8368 5.82102C32.6168 5.98102 36.2468 9.62102 36.2368 14.611C36.2368 19.301 32.7168 23.201 27.5268 23.191C22.1568 23.191 18.6368 18.891 18.8468 14.421V14.431ZM27.4868 19.641C30.5468 19.621 32.5568 17.211 32.6368 14.301C32.7068 11.771 30.1468 9.33102 27.5768 9.32102C24.8568 9.31102 22.3968 11.771 22.3968 14.511C22.3968 17.281 24.7268 19.641 27.4768 19.651L27.4868 19.641Z" fill="#212121"/>
<path d="M2.06736 16.341C2.06736 14.521 2.04736 12.701 2.06736 10.891C2.07736 10.111 1.80735 9.71102 0.997354 9.80102C0.257354 9.89102 -0.0426363 9.55102 0.00736374 8.83102C0.0173637 8.62102 0.00736374 8.40102 0.00736374 8.19102C0.00736374 7.24102 -0.172646 6.72102 1.24735 6.82102C1.88735 6.86102 2.04735 6.45102 2.05735 5.89102C2.08735 4.77102 1.94737 3.65102 2.19737 2.54102C2.43737 1.51102 3.01737 0.801021 4.01737 0.481021C5.76737 -0.0789787 7.59737 -0.0989786 9.35737 0.161021C10.4174 0.321021 9.67736 1.52102 9.84736 2.23102C9.94736 2.66102 9.79736 3.03102 9.22736 3.03102C8.39736 3.03102 7.56737 3.03102 6.72737 3.03102C5.83737 3.04102 5.55735 3.29102 5.52735 4.15102C5.50735 4.76102 5.52735 5.38102 5.52735 5.99102C5.52735 6.56102 5.79735 6.82102 6.36735 6.81102C7.03735 6.81102 7.70736 6.83102 8.37736 6.81102C8.93736 6.79102 9.22736 6.98102 9.21735 7.59102C9.18736 10.191 9.49735 9.73102 7.14735 9.78102C6.98735 9.78102 6.82737 9.78102 6.66737 9.78102C5.69737 9.80102 5.53736 9.94102 5.53736 10.901C5.53736 13.441 5.53736 15.981 5.53736 18.521C5.53736 19.641 5.51736 20.771 5.53736 21.891C5.54736 22.491 5.34738 22.791 4.70738 22.761C4.08738 22.731 3.46737 22.731 2.85737 22.761C2.25737 22.781 2.05735 22.511 2.05735 21.941C2.07735 20.071 2.05735 18.201 2.05735 16.331L2.06736 16.341Z" fill="#212121"/>
<path d="M11.5667 10.381C11.5667 7.28103 11.5866 4.18103 11.5566 1.08103C11.5566 0.321033 11.7867 0.00103275 12.5667 0.0710328C13.0767 0.121033 13.5866 0.111033 14.0966 0.0710328C14.7766 0.0210328 15.0867 0.271033 15.0467 0.981033C15.0067 1.73103 15.0467 2.48103 15.0467 3.22103C15.0467 8.24103 15.0467 13.261 15.0467 18.291C15.0467 19.451 15.2366 19.631 16.4066 19.641C17.4133 19.641 17.9167 20.1577 17.9167 21.191C17.9167 22.2244 17.3967 22.751 16.3567 22.771C15.8167 22.771 15.2866 22.771 14.7466 22.771C12.4866 22.771 11.5866 21.891 11.5866 19.601C11.5766 16.531 11.5866 13.461 11.5866 10.381H11.5667Z" fill="#212121"/>
<path d="M26.2766 12.011C26.3766 12.051 26.5266 12.091 26.6666 12.161C27.7066 12.761 28.7566 13.351 29.7866 13.971C30.2766 14.261 30.3165 14.681 29.8365 14.981C28.7665 15.641 27.6766 16.271 26.5666 16.861C26.0666 17.121 25.7366 16.881 25.7266 16.301C25.7266 15.071 25.7266 13.851 25.7266 12.621C25.7266 12.301 25.8166 12.031 26.2666 12.011H26.2766Z" fill="#212121"/>
</svg>
