<svg width="80" height="18" viewBox="0 0 80 18" fill="none" xmlns="http://www.w3.org/2000/svg">
<path d="M26.4437 11.53C26.4437 13.5 26.4437 15.46 26.4437 17.43C26.4437 17.86 26.4137 17.88 25.9937 17.88C25.2237 17.88 24.4537 17.88 23.6837 17.88C23.3837 17.88 23.3337 17.83 23.3337 17.53C23.3337 17.2 23.3337 16.87 23.3337 16.55C23.3337 16.51 23.3337 16.45 23.2937 16.43C23.2437 16.4 23.2137 16.45 23.1837 16.48C22.6937 17.04 22.0737 17.37 21.3837 17.59C20.3237 17.93 19.2537 17.97 18.1637 17.73C17.1937 17.52 16.3137 17.11 15.5337 16.51C14.7037 15.87 14.0737 15.05 13.6337 14.09C13.1637 13.05 12.9837 11.97 13.0537 10.84C13.1237 9.81002 13.4337 8.85002 13.9537 7.97002C14.5437 6.97002 15.3437 6.18002 16.3637 5.62002C17.1837 5.16002 18.0637 4.89002 19.0037 4.80002C19.9637 4.70002 20.8737 4.87002 21.7437 5.26002C22.2737 5.50002 22.7337 5.85001 23.1637 6.24001C23.2037 6.28001 23.2437 6.36002 23.3037 6.34002C23.3837 6.31002 23.3537 6.22001 23.3537 6.16001C23.3537 5.94001 23.3537 5.72002 23.3537 5.50002C23.3537 5.23002 23.4037 5.17002 23.6837 5.19002C24.3837 5.23002 25.0837 5.21002 25.7837 5.22002C25.8937 5.22002 26.0137 5.22002 26.1237 5.21002C26.3837 5.19002 26.4537 5.24002 26.4537 5.51002C26.4537 6.38002 26.4537 7.25002 26.4537 8.12002C26.4537 9.26002 26.4537 10.41 26.4537 11.55L26.4437 11.53ZM23.4337 11.33C23.4737 9.25002 21.8237 7.46002 19.5637 7.49002C17.4437 7.51002 15.7637 9.16002 15.7737 11.35C15.7737 13.57 17.5437 15.15 19.5937 15.17C21.7337 15.19 23.4837 13.44 23.4337 11.33Z" fill="#212121"/>
<path d="M50.2635 16.44C49.6735 17.08 48.9435 17.48 48.1235 17.69C47.3235 17.89 46.5135 17.96 45.6835 17.83C44.4135 17.64 43.2835 17.16 42.3135 16.32C41.0535 15.22 40.3035 13.84 40.1135 12.16C40.0235 11.41 40.0335 10.66 40.1935 9.93001C40.3935 8.98001 40.7935 8.11001 41.3935 7.34001C42.1235 6.42001 43.0035 5.71001 44.1035 5.27001C45.6835 4.64001 47.2735 4.57001 48.8435 5.30001C49.2735 5.50001 49.6735 5.78001 50.0235 6.12001C50.1035 6.20001 50.1835 6.34001 50.2935 6.29001C50.3935 6.25001 50.3335 6.10001 50.3335 5.99001C50.3335 5.81001 50.3335 5.62001 50.3335 5.44001C50.3335 5.28001 50.4135 5.19001 50.5935 5.19001C51.3135 5.19001 52.0235 5.19001 52.7435 5.19001C52.8835 5.19001 53.0335 5.19001 53.1735 5.17001C53.3835 5.16001 53.4535 5.22001 53.4535 5.43001C53.4535 8.64001 53.4435 11.85 53.4435 15.06C53.4435 15.91 53.4035 16.75 53.4735 17.6C53.4835 17.77 53.4035 17.87 53.2135 17.87C52.3435 17.87 51.4735 17.87 50.6035 17.87C50.3935 17.87 50.3235 17.75 50.3235 17.56C50.3235 17.22 50.3235 16.87 50.3235 16.53C50.3235 16.49 50.3235 16.45 50.2635 16.41V16.44ZM46.6135 15.19C48.7535 15.17 50.5135 13.42 50.4635 11.24C50.4135 9.16001 48.7635 7.47001 46.6135 7.49001C44.4535 7.51001 42.8035 9.17001 42.8035 11.33C42.8035 13.55 44.5335 15.12 46.6235 15.19H46.6135Z" fill="#212121"/>
<path d="M66.6742 11.55C66.6742 13.58 66.6742 15.61 66.6742 17.63C66.6742 17.81 66.5942 17.89 66.4342 17.89C65.6542 17.89 64.8842 17.89 64.1042 17.89C63.9542 17.89 63.8742 17.81 63.8742 17.66C63.8742 17.58 63.8742 17.49 63.8742 17.41C63.8742 14.34 63.8742 11.27 63.8742 8.18998C63.8742 7.91665 63.7409 7.77998 63.4742 7.77998C62.2042 7.77998 60.9242 7.77998 59.6542 7.77998C59.3442 7.77998 59.3142 7.80998 59.3142 8.11998C59.3142 9.89998 59.3042 11.69 59.3142 13.47C59.3142 13.91 59.3842 14.35 59.7342 14.69C59.9742 14.93 60.2542 15.05 60.5842 15.09C60.9642 15.15 61.3442 15.14 61.7242 15.13C61.9242 15.13 62.0242 15.2 62.0242 15.4C62.0242 16.1 62.0242 16.8 62.0242 17.5C62.0242 17.63 61.9542 17.72 61.8142 17.73C60.6342 17.84 59.4642 17.87 58.3442 17.42C57.5842 17.12 57.1042 16.55 56.8142 15.79C56.5642 15.14 56.5142 14.47 56.5042 13.79C56.4942 11.91 56.5042 10.04 56.5042 8.15998C56.5042 7.76998 56.5042 7.76998 56.1142 7.76998C55.5242 7.76998 54.9442 7.76998 54.3542 7.76998C54.1442 7.76998 54.0742 7.69998 54.0742 7.48998C54.0742 6.80998 54.0742 6.12998 54.0742 5.44998C54.0742 5.25998 54.1042 5.15998 54.3442 5.16998C54.9642 5.18998 55.5742 5.17998 56.1942 5.17998C56.4742 5.17998 56.5142 5.14998 56.5142 4.85998C56.5142 4.08998 56.5142 3.31998 56.5142 2.54998C56.5142 2.33998 56.5742 2.21998 56.7942 2.14998C57.5542 1.92998 58.3042 1.68998 59.0642 1.45998C59.2542 1.39998 59.3142 1.48998 59.3142 1.66998C59.3142 2.22998 59.3142 2.79998 59.3142 3.35998C59.3142 3.85998 59.3142 4.36998 59.3142 4.86998C59.3142 5.13998 59.3542 5.16998 59.6142 5.15998C59.8042 5.15998 59.9942 5.17998 60.1842 5.17998C62.0842 5.17998 63.9842 5.17998 65.8742 5.17998C66.0442 5.17998 66.2242 5.17998 66.3942 5.14998C66.5942 5.12998 66.6842 5.21998 66.6742 5.40998C66.6742 5.57998 66.6642 5.74998 66.6642 5.90998C66.6642 7.77998 66.6642 9.64998 66.6642 11.51L66.6742 11.55Z" fill="#212121"/>
<path d="M73.7647 17.89C71.9247 17.89 70.0747 17.89 68.2347 17.89C67.8347 17.89 67.8047 17.86 67.8047 17.46C67.8047 16.83 67.8047 16.21 67.8047 15.58C67.8047 15.42 67.8547 15.29 67.9647 15.17C68.6347 14.52 69.3047 13.86 69.9647 13.2C70.5047 12.66 71.0447 12.11 71.5947 11.57C72.2747 10.89 72.9647 10.23 73.6447 9.55001C74.1747 9.03001 74.7047 8.50001 75.2247 7.97001C75.2647 7.93001 75.3247 7.90001 75.3047 7.84001C75.2847 7.76001 75.2047 7.80001 75.1447 7.80001C74.4147 7.80001 73.6847 7.78001 72.9547 7.78001C71.4347 7.78001 69.9247 7.78001 68.4047 7.78001C68.0447 7.78001 68.0247 7.76001 68.0247 7.41001C68.0247 6.78001 68.0247 6.16001 68.0247 5.53001C68.0247 5.20001 68.0547 5.17001 68.3747 5.20001C68.4347 5.20001 68.4947 5.20001 68.5547 5.20001C72.1847 5.20001 75.8147 5.20001 79.4447 5.20001C79.6347 5.20001 79.7047 5.27001 79.6947 5.45001C79.6947 6.18001 79.6947 6.91001 79.6947 7.65001C79.6947 7.76001 79.6447 7.84001 79.5747 7.91001C78.1647 9.30001 76.7447 10.69 75.3347 12.08C74.3247 13.08 73.3147 14.09 72.3047 15.09C72.2647 15.13 72.1947 15.17 72.2347 15.24C72.2747 15.3 72.3447 15.28 72.4047 15.28C73.5147 15.28 74.6347 15.28 75.7447 15.28C76.9747 15.28 78.2147 15.28 79.4447 15.28C79.6247 15.28 79.6847 15.34 79.6847 15.51C79.6847 16.2 79.6847 16.88 79.6847 17.57C79.6847 17.86 79.6547 17.89 79.3547 17.89C77.4847 17.89 75.6147 17.89 73.7547 17.89H73.7647Z" fill="#212121"/>
<path d="M27.5039 11.52C27.5039 9.55998 27.5039 7.59998 27.5039 5.63998C27.5039 5.20998 27.5339 5.18998 27.9539 5.18998C28.7339 5.18998 29.5239 5.19998 30.3039 5.19998C30.5639 5.19998 30.6039 5.22998 30.6039 5.49998C30.6039 5.75998 30.6039 6.01998 30.6039 6.27998C30.6039 6.32998 30.5839 6.39998 30.6439 6.41998C30.7039 6.43998 30.7339 6.37998 30.7739 6.34998C31.3139 5.82998 31.9339 5.42998 32.6339 5.16998C33.5039 4.85998 34.3839 4.74998 35.3039 4.89998C36.0439 5.01998 36.7239 5.25998 37.3439 5.69998C38.1939 6.30998 38.7039 7.13998 38.9739 8.13998C39.1339 8.72998 39.1639 9.31998 39.1639 9.91998C39.1539 12.43 39.1639 14.94 39.1639 17.44C39.1639 17.85 39.1439 17.87 38.7339 17.87C37.9639 17.87 37.1939 17.87 36.4239 17.87C36.1439 17.87 36.0939 17.81 36.1139 17.53C36.1139 17.42 36.1239 17.32 36.1239 17.21C36.1239 14.93 36.1239 12.65 36.1239 10.37C36.1239 9.98998 36.0639 9.60998 35.9639 9.23998C35.6939 8.24998 34.7739 7.64998 33.8239 7.60998C33.1839 7.58998 32.5639 7.64998 31.9939 7.96998C31.2539 8.38998 30.8739 9.05998 30.6939 9.86998C30.6039 10.25 30.6039 10.64 30.6039 11.03C30.6039 13.19 30.6039 15.34 30.6039 17.5C30.6039 17.82 30.5639 17.86 30.2339 17.86C29.4539 17.86 28.6739 17.86 27.9039 17.86C27.5639 17.86 27.5039 17.81 27.5039 17.46C27.5039 15.47 27.5039 13.48 27.5039 11.49V11.52Z" fill="#212121"/>
<path d="M6.44422 0.0100002C8.46422 0.0100002 10.4842 0.0100002 12.5042 0.0100002C12.8742 0.0100002 12.9042 0.0400003 12.9042 0.41C12.9042 1.12 12.9042 1.83 12.9042 2.54C12.9042 2.86 12.8742 2.89 12.5442 2.89C9.38422 2.89 6.21422 2.89 3.05422 2.89C2.75422 2.89 2.60422 3.03667 2.60422 3.33C2.60422 3.86 2.60422 4.38 2.60422 4.91C2.60422 5.12 2.67422 5.22 2.89422 5.21C3.71422 5.2 4.53422 5.19 5.35422 5.18C5.47422 5.18 5.67422 5.12 5.70422 5.25C5.75422 5.41 5.54422 5.43 5.43422 5.49C4.49422 5.99 3.64422 6.62 2.87422 7.35C1.89422 8.26 1.04422 9.28 0.294219 10.39C0.244219 10.47 0.194219 10.59 0.0742187 10.54C-0.0257813 10.5 0.00421877 10.38 0.00421877 10.29C0.00421877 6.97 0.00421877 3.64 0.00421877 0.32C0.00421877 0.0200002 0.0342187 0 0.334219 0C2.37422 0 4.40422 0 6.44422 0V0.0100002Z" fill="#212121"/>
<path d="M12.9138 6.63002C12.9138 7.00002 12.9138 7.36002 12.9138 7.73002C12.9138 7.92002 12.8438 8.00002 12.6538 8.02002C12.2538 8.07002 11.8538 8.06002 11.4538 8.14002C10.5938 8.30002 9.76383 8.53002 8.97383 8.89002C7.61383 9.50002 6.44383 10.38 5.48383 11.52C4.65383 12.49 4.04383 13.59 3.64383 14.81C3.35383 15.71 3.18383 16.64 3.16383 17.59C3.16383 17.83 3.09383 17.89 2.84383 17.9C2.14383 17.9 1.44383 17.9 0.743826 17.9C0.433826 17.9 0.373826 17.84 0.383826 17.54C0.433826 16.15 0.673826 14.81 1.15383 13.5C1.64383 12.17 2.34383 10.96 3.21383 9.86002C3.91383 8.99002 4.73383 8.24002 5.64383 7.59002C6.61383 6.90002 7.65383 6.35002 8.77383 5.96002C9.95383 5.56002 11.1638 5.28002 12.4138 5.27002C12.7472 5.27002 12.9138 5.43669 12.9138 5.77002C12.9138 6.06002 12.9138 6.35002 12.9138 6.64002V6.63002Z" fill="#212121"/>
<path d="M67.2538 2.18001C67.2538 3.15001 66.3938 3.99001 65.4138 3.99001C64.4238 3.99001 63.5838 3.16001 63.5938 2.17001C63.5938 1.17001 64.4238 0.330007 65.3938 0.320007C66.5538 0.320007 67.2738 1.32001 67.2638 2.17001L67.2538 2.18001Z" fill="#212121"/>
</svg>
