<svg width="101" height="36" viewBox="0 0 101 36" fill="none" xmlns="http://www.w3.org/2000/svg">
<g clip-path="url(#clip0_2164_15845)">
<g clip-path="url(#clip1_2164_15845)">
<path d="M29.1229 -0.000176469C29.1505 0.136086 29.0996 0.267359 29.0967 0.402062C29.0941 0.518056 28.9987 0.503401 28.9199 0.506831C28.4851 0.524916 28.084 0.648705 27.7106 0.864791C27.2509 1.13108 27.0268 1.54579 26.9253 2.03908C26.9012 2.15632 26.8894 2.27387 26.8894 2.39423C26.8904 9.62111 26.89 16.8483 26.891 24.0752C26.891 24.4908 27.0027 24.8778 27.2608 25.2117C27.5717 25.6143 28.0212 25.7961 28.506 25.9124C28.6472 25.9464 28.7906 25.9501 28.9343 25.9451C29.0451 25.9411 29.1021 25.9785 29.1008 26.0967C29.0957 26.551 29.1441 26.4886 28.7195 26.4889C25.4147 26.4905 22.1099 26.4899 18.805 26.4895C18.7519 26.4895 18.6984 26.4911 18.6453 26.4886C18.4 26.478 18.515 26.2937 18.5002 26.1824C18.4865 26.0783 18.4554 25.937 18.651 25.9442C18.8175 25.9504 18.9795 25.9167 19.1396 25.8787C20.0876 25.6539 20.638 24.9732 20.6383 24.0244C20.6393 21.1532 20.639 18.2823 20.639 15.4112C20.639 15.2567 20.561 15.1794 20.4049 15.1792C17.4626 15.1792 14.5202 15.1792 11.5781 15.1792C11.4238 15.1792 11.3464 15.2572 11.346 15.4133C11.346 17.7289 11.3498 20.0444 11.3421 22.3599C11.3405 22.8625 11.3005 23.3655 11.3197 23.8681C11.3303 24.146 11.3364 24.4257 11.4283 24.6969C11.6594 25.3804 12.1637 25.7505 12.8594 25.9118C13.017 25.9482 13.1764 25.9482 13.3358 25.9448C13.4437 25.9423 13.4898 25.9866 13.4892 26.0929C13.4863 26.5541 13.5283 26.488 13.1108 26.4883C9.82739 26.4899 6.54369 26.4892 3.26032 26.4892C3.20717 26.4892 3.1537 26.4902 3.10056 26.4889C2.9791 26.4864 2.91859 26.3843 2.91902 26.1824C2.91966 25.956 2.92542 25.9429 3.10792 25.9473C3.2965 25.9517 3.48156 25.9317 3.6599 25.8778C4.1488 25.73 4.58936 25.5089 4.85766 25.0577C5.0312 24.7658 5.12629 24.4487 5.12629 24.1095C5.12725 21.7525 5.12693 19.3952 5.12693 17.0382C5.12693 12.1527 5.12885 7.26724 5.12373 2.38176C5.12309 1.87226 4.96236 1.40454 4.56279 1.05344C4.23109 0.761893 3.82831 0.600686 3.38551 0.5377C3.33812 0.53084 3.29074 0.525228 3.24367 0.517432C3.02297 0.481054 2.91443 0.350093 2.91806 0.124549C2.9187 0.0830775 2.92382 0.0419182 2.9267 0.000758969C6.45597 -0.000176469 9.98523 -0.000176469 13.5142 -0.000176469C13.5167 0.030693 13.5206 0.0618742 13.5215 0.0927437C13.5308 0.495605 13.5299 0.488434 13.1181 0.538636C12.668 0.593826 12.2623 0.769688 11.9293 1.06591C11.5169 1.43229 11.3834 1.92589 11.3818 2.44818C11.3751 4.67576 11.3793 6.90335 11.3799 9.13063C11.3799 9.28903 11.4626 9.36833 11.628 9.36854C14.5493 9.36854 17.4706 9.36854 20.3921 9.36854C20.5565 9.36854 20.6389 9.28893 20.6393 9.12969C20.6399 6.96977 20.6403 4.80953 20.6409 2.64961C20.6409 2.45254 20.648 2.25485 20.606 2.06059C20.4997 1.56762 20.2951 1.14262 19.8222 0.870404C19.4556 0.659307 19.0689 0.534894 18.6475 0.508701C18.5393 0.501842 18.4919 0.462865 18.4964 0.357472C18.5015 0.23836 18.5018 0.118936 18.5044 -0.000488281C22.0442 -0.000488281 25.5837 -0.000488281 29.1236 -0.000488281L29.1229 -0.000176469ZM23.9989 13.0489C23.9989 9.47674 23.9989 5.90493 23.9989 2.3328C23.9989 2.27574 23.9986 2.21868 23.997 2.16162C23.9957 2.11734 23.9816 2.08398 23.9316 2.06745C23.72 1.99636 23.5987 2.07649 23.5987 2.29133C23.5987 5.4634 23.5987 8.63578 23.5987 11.8079C23.5987 11.9791 23.5106 12.0649 23.3345 12.0651C18.4413 12.0651 13.5481 12.0651 8.65491 12.0651C8.60689 12.0651 8.55886 12.0642 8.51116 12.0635C8.434 12.0629 8.39205 12.0271 8.39077 11.95C8.39013 11.893 8.38885 11.8359 8.38885 11.7789C8.38885 8.61177 8.38885 5.44469 8.38885 2.27793C8.38885 2.06028 8.38757 2.07213 8.16985 2.05903C7.97711 2.0475 7.98671 2.15632 7.98671 2.28354C7.98799 9.45335 7.98767 16.6235 7.98767 23.7933C7.98767 23.8348 7.98831 23.8762 7.98992 23.9177C7.99152 23.9632 8.00913 23.9935 8.05939 24.0081C8.28191 24.0739 8.38885 24.0013 8.38885 23.7799C8.38885 20.1039 8.38885 16.4283 8.38885 12.7523C8.38885 12.7003 8.39109 12.6485 8.38885 12.5967C8.38501 12.5001 8.42759 12.4502 8.53005 12.4539C8.57807 12.4558 8.6261 12.4536 8.6738 12.4536C13.551 12.4536 18.4282 12.4536 23.3057 12.4536C23.3537 12.4536 23.4018 12.4561 23.4495 12.4536C23.5602 12.448 23.6044 12.5013 23.5987 12.6048C23.5958 12.6566 23.5987 12.7087 23.5987 12.7604C23.5987 16.4208 23.5987 20.0809 23.5987 23.7412C23.5987 23.7983 23.5993 23.8553 23.6009 23.9124C23.6025 23.9657 23.6288 23.9957 23.6848 24.0094C23.9172 24.0655 23.9989 24.0072 23.9989 23.7802C23.9989 20.2031 23.9989 16.626 23.9989 13.0486V13.0489Z" fill="#212121"/>
<path d="M32.0013 28.8176C31.9267 28.8204 31.8524 28.8254 31.7778 28.8254C21.2816 28.8257 10.7854 28.8257 0.289127 28.8257C0.00481369 28.8257 0.00225233 28.8257 0.00513389 28.5467C0.00961631 28.1475 -0.055699 28.1887 0.36885 28.1887C10.8225 28.1881 21.2761 28.1881 31.7298 28.1887C31.8204 28.1887 31.9107 28.1928 32.0013 28.1949V28.8179V28.8176Z" fill="#212121"/>
<path d="M32.0012 30.7493C31.3784 31.685 30.756 32.6211 30.133 33.5565C30.0757 33.6426 30.0571 33.7352 30.0574 33.8372C30.0596 34.4602 30.0587 35.0832 30.0584 35.7065C30.0584 35.9285 30.0574 35.9288 29.823 35.9291C29.5618 35.9294 29.3005 35.9297 29.0396 35.9288C28.8334 35.9282 28.8273 35.9219 28.8273 35.7149C28.827 35.0919 28.8235 34.4686 28.8302 33.8456C28.8318 33.6981 28.7946 33.5734 28.7136 33.4518C28.1392 32.5902 27.5671 31.7274 26.9946 30.8653C26.9773 30.8391 26.9594 30.8132 26.9437 30.7861C26.8963 30.705 26.9194 30.6504 27.0158 30.6495C27.4102 30.6464 27.8047 30.6467 28.1991 30.6495C28.3166 30.6504 28.3483 30.7552 28.3979 30.8316C28.7162 31.323 29.0136 31.8269 29.3489 32.3077C29.4744 32.4876 29.4869 32.4855 29.6072 32.2952C29.9338 31.7786 30.2642 31.2641 30.5911 30.7474C30.6308 30.6847 30.6744 30.6451 30.7547 30.6458C31.1703 30.6501 31.5859 30.652 32.0018 30.6548V30.7483L32.0012 30.7493Z" fill="#212121"/>
<path d="M19.2322 35.99C18.5489 36.043 17.9447 35.8366 17.4222 35.4231C16.7579 34.8974 16.389 34.2182 16.3503 33.3711C16.2891 32.0299 17.3012 30.8466 18.6587 30.6015C20.2401 30.3162 21.7833 31.2208 22.0737 32.8089C22.2725 33.8961 21.8851 34.8016 20.9784 35.4736C20.4667 35.8528 19.8831 36.0414 19.2318 35.9897L19.2322 35.99ZM17.615 33.2956C17.59 34.1556 18.3123 34.8799 19.2376 34.8734C20.1703 34.8665 20.8468 34.2323 20.8535 33.3087C20.8596 32.4621 20.2173 31.7284 19.2504 31.7153C18.3059 31.7029 17.6102 32.4665 17.6153 33.2959L17.615 33.2956Z" fill="#212121"/>
<path d="M23.8421 30.6174C24.379 30.6193 24.9163 30.6081 25.4484 30.7069C26.1576 30.8382 26.7422 31.4394 26.7537 32.2311C26.764 32.9358 26.4246 33.4739 25.7775 33.8066C25.6565 33.8687 25.6517 33.9046 25.7279 34.0081C26.1441 34.5722 26.5533 35.1412 26.9622 35.7103C26.999 35.7617 27.0704 35.8144 27.0268 35.888C26.9887 35.9522 26.9113 35.9282 26.8501 35.9285C26.5142 35.9304 26.1787 35.926 25.8428 35.9313C25.7234 35.9332 25.6463 35.8914 25.579 35.7945C25.1999 35.2491 24.8154 34.7075 24.4325 34.1646C24.4113 34.1347 24.3918 34.1035 24.3675 34.0761C24.3054 34.005 24.2205 34.0215 24.144 34.0343C24.0537 34.0489 24.0761 34.1284 24.0761 34.1864C24.0745 34.7003 24.0755 35.2142 24.0745 35.728C24.0742 35.9192 24.064 35.9282 23.8645 35.9288C23.6087 35.9298 23.3529 35.9292 23.097 35.9288C22.9299 35.9288 22.8461 35.8492 22.8457 35.69C22.8457 34.2366 22.8457 32.7833 22.8457 31.3299C22.8457 31.1743 22.8457 31.0184 22.8457 30.8628C22.8457 30.6994 22.9271 30.6176 23.09 30.6174C23.3404 30.6174 23.5911 30.6174 23.8414 30.6174H23.8421ZM24.0761 32.3736C24.0761 32.555 24.0784 32.7365 24.0752 32.918C24.0736 33.0109 24.1129 33.0452 24.208 33.0474C24.4373 33.0527 24.6652 33.0427 24.8916 33.0112C25.2175 32.966 25.4567 32.7169 25.4695 32.4185C25.4849 32.0608 25.3056 31.8276 24.9454 31.7484C24.6883 31.6919 24.4261 31.7303 24.1661 31.7253C24.0861 31.7237 24.0761 31.7836 24.0761 31.845C24.0761 32.0212 24.0761 32.1977 24.0761 32.3739V32.3736Z" fill="#212121"/>
<path d="M0.00419603 33.2859C0.00419603 32.4708 0.00739776 31.6558 0.00131448 30.841C0.000353961 30.6938 0.0429369 30.6383 0.199181 30.6439C0.481254 30.6542 0.763966 30.6496 1.04636 30.6458C1.16226 30.6443 1.20997 30.6888 1.20805 30.802C1.2042 31.0356 1.20388 31.2694 1.20837 31.5027C1.21509 31.8497 1.22982 32.1968 1.23622 32.5438C1.23782 32.6364 1.274 32.6732 1.36941 32.6732C1.98767 32.6717 2.60592 32.671 3.22417 32.6757C3.35801 32.6766 3.36665 32.6068 3.36601 32.5073C3.36377 31.9623 3.36473 31.4172 3.36537 30.8722C3.36537 30.6477 3.36633 30.6471 3.59782 30.6467C3.87509 30.6464 4.15204 30.6505 4.42931 30.6452C4.55481 30.643 4.59772 30.6929 4.5974 30.8117C4.59548 32.4624 4.59548 34.1132 4.5974 35.7642C4.5974 35.883 4.55449 35.9329 4.42899 35.9307C4.13603 35.9257 3.84275 35.9245 3.54979 35.9313C3.41116 35.9348 3.36217 35.8858 3.36313 35.7505C3.36825 35.164 3.36089 34.5771 3.36825 33.9906C3.37017 33.845 3.32055 33.8045 3.17583 33.806C2.57903 33.8126 1.9819 33.8126 1.3851 33.806C1.2423 33.8045 1.20324 33.8522 1.20452 33.9863C1.21061 34.5625 1.20741 35.1387 1.20677 35.7149C1.20677 35.9229 1.201 35.9285 0.994811 35.9292C0.73355 35.9301 0.472289 35.9217 0.211348 35.932C0.0535027 35.9382 -0.00156708 35.8921 3.37878e-05 35.7308C0.00771794 34.9158 0.00355569 34.1007 0.00355569 33.2859H0.00419603Z" fill="#212121"/>
<path d="M9.585 35.9938C9.06152 36.0359 8.57454 35.8613 8.14326 35.5201C7.91082 35.3362 7.75041 35.1001 7.61818 34.8429C7.56279 34.7353 7.58712 34.6583 7.70431 34.6034C7.95404 34.4868 8.20217 34.3661 8.44775 34.2411C8.55917 34.1843 8.62832 34.208 8.70228 34.3062C8.86173 34.5189 9.01605 34.7387 9.28404 34.8444C9.55522 34.9514 9.81681 34.9305 10.0685 34.7992C10.4014 34.6259 10.4072 34.2398 10.0813 34.0502C9.77262 33.871 9.42363 33.7836 9.09322 33.6546C8.78521 33.5342 8.49097 33.397 8.24348 33.1722C7.67453 32.6552 7.65852 31.7927 8.09812 31.2149C8.41861 30.794 8.87006 30.6038 9.38681 30.5586C9.97721 30.5071 10.5154 30.6534 10.9816 31.0241C11.1878 31.1881 11.3373 31.393 11.4644 31.6165C11.5019 31.6823 11.4926 31.7282 11.4209 31.77C11.1606 31.9224 10.8926 32.0609 10.6192 32.19C10.4908 32.2508 10.445 32.1666 10.4037 32.078C10.2795 31.8102 10.0649 31.6602 9.77134 31.6088C9.60773 31.5801 9.45437 31.6081 9.30613 31.6773C9.04071 31.8018 8.9613 32.238 9.26579 32.4067C9.59269 32.5878 9.94968 32.6926 10.2935 32.8304C10.5897 32.9489 10.8785 33.0749 11.1193 33.2919C11.5922 33.7178 11.6825 34.2367 11.5188 34.8136C11.3309 35.4755 10.647 35.9797 9.94103 35.9928C9.83442 35.9947 9.7278 35.9928 9.58436 35.9928L9.585 35.9938Z" fill="#212121"/>
<path d="M14.7036 33.8491C14.7036 34.4774 14.7039 35.1057 14.7036 35.7337C14.7036 35.938 14.6828 35.9576 14.4753 35.9585C14.2249 35.9595 13.9742 35.9585 13.7239 35.9585C13.4485 35.9585 13.4431 35.9532 13.4431 35.691C13.4431 34.45 13.4431 33.2093 13.4431 31.9683C13.4431 31.8249 13.3701 31.753 13.2241 31.7528C12.8828 31.7525 12.5418 31.7481 12.2008 31.7547C12.0593 31.7575 11.9968 31.716 12.0023 31.5689C12.0116 31.32 12.0087 31.0706 12.0032 30.8214C12.0004 30.6973 12.0433 30.645 12.1781 30.6453C13.4415 30.6484 14.7045 30.6484 15.9679 30.6453C16.0995 30.645 16.1488 30.6911 16.146 30.8183C16.1402 31.0724 16.1399 31.3272 16.146 31.5813C16.1492 31.7095 16.0979 31.7563 15.9673 31.7544C15.6263 31.7491 15.285 31.7528 14.944 31.7531C14.7844 31.7531 14.7044 31.8288 14.7042 31.9801C14.7042 32.6031 14.7042 33.2261 14.7042 33.8491H14.7036Z" fill="#212121"/>
<path d="M6.80593 33.3063C6.80593 34.1101 6.80593 34.914 6.80593 35.7178C6.80593 35.923 6.79984 35.9286 6.59173 35.9292C6.30966 35.9299 6.02726 35.9258 5.74519 35.9308C5.62257 35.933 5.5739 35.8887 5.57422 35.7674C5.57646 34.1129 5.57646 32.4585 5.57422 30.804C5.57422 30.6786 5.63217 30.6437 5.75032 30.6456C6.03239 30.6499 6.31478 30.6462 6.59685 30.6471C6.79664 30.6478 6.80593 30.6559 6.80593 30.8479C6.80657 31.6674 6.80593 32.4868 6.80593 33.3063V33.3063Z" fill="#212121"/>
</g>
<g clip-path="url(#clip2_2164_15845)">
<path d="M75.1472 4.02441C72.2999 6.16029 71.495 8.11592 72.2857 11.0069C72.5885 12.1142 73.2204 13.0579 73.9579 13.9139C74.4317 14.4637 74.4359 14.7741 73.8097 15.191C72.7729 15.88 71.8708 16.729 71.1616 17.7535C69.9823 19.4572 69.7149 21.3369 70.1759 23.3086C70.3943 24.2411 70.1021 24.5146 69.1632 24.4903C67.2257 24.4409 65.2854 24.4972 63.3465 24.4659C62.6217 24.4541 62.1884 24.6657 61.9728 25.3908C61.6147 26.5955 61.1757 27.7766 60.7708 28.9673C58.0624 28.9673 55.354 28.9715 52.6457 28.9604C52.3812 28.959 51.8933 29.1894 52.0209 28.5588C53.2315 25.6282 54.4541 22.7017 55.6491 19.7648C57.783 14.5208 59.8992 9.2712 62.0217 4.02441C66.3967 4.02441 70.7716 4.02441 75.1465 4.02441H75.1472ZM66.6669 11.7098L66.4215 11.65C65.73 13.6724 65.0379 15.6941 64.3486 17.7173C64.1578 18.2761 64.5585 18.2587 64.9173 18.2608C65.8896 18.2657 66.8633 18.2253 67.8328 18.2761C68.6263 18.3172 68.8192 18.0541 68.566 17.3289C67.9157 15.4624 67.298 13.584 66.6676 11.7105L66.6669 11.7098Z" fill="#212121"/>
<path d="M100.981 9.95308C96.9211 9.95239 92.8618 9.96352 88.8017 9.93986C88.0146 9.93499 87.677 10.1702 87.6976 10.9928C87.7685 13.8226 87.3401 13.4154 90.1839 13.4356C93.1334 13.4572 96.0829 13.4593 99.0324 13.4308C99.9096 13.4224 100.295 13.7022 100.244 14.6125C100.181 15.733 100.19 16.8611 100.24 17.9823C100.277 18.7965 99.9444 19.0401 99.1444 19.0325C95.8829 19.0019 92.62 19.0728 89.3599 18.9935C88.1309 18.9636 87.2096 19.2232 86.5664 20.2935C86.1296 21.0208 85.6863 21.0821 85.092 20.3346C83.8765 18.8056 82.5858 17.333 81.2951 15.8631C80.7738 15.2695 80.7433 14.8477 81.4802 14.4093C82.0404 14.0759 82.5532 13.6569 83.0574 13.2415C85.8778 10.9149 85.7275 6.74335 82.7553 4.59077C82.5049 4.40913 82.2659 4.21356 82.0213 4.02427C88.038 4.02427 94.0546 4.04514 100.071 4.0006C100.906 3.99434 101.023 4.24419 100.998 4.96589C100.941 6.62643 100.98 8.29045 100.98 9.95378L100.981 9.95308Z" fill="#212121"/>
<path d="M92.4374 28.9666C91.3595 27.686 90.2751 26.4111 89.2092 25.1215C88.9433 24.7999 88.4504 24.4944 88.788 23.9926C89.1575 23.4435 89.4646 22.7657 90.3085 22.7705C93.8657 22.79 97.4222 22.8123 100.979 22.8339C100.979 24.7081 100.961 26.5823 100.993 28.4558C101.001 28.8963 100.906 28.9847 100.458 28.9805C97.7846 28.9541 95.111 28.9673 92.4374 28.9673V28.9666Z" fill="#212121"/>
<path d="M79.032 25.7032C76.9051 25.7053 75.1017 24.2827 74.601 22.3111C74.2003 20.7341 75.157 18.7965 76.7307 17.8855C77.1888 17.6204 77.4356 17.802 77.6952 18.1138C79.2121 19.9316 80.7212 21.755 82.2467 23.5659C82.6069 23.9932 82.4842 24.273 82.0779 24.5722C81.1325 25.2675 80.0801 25.6517 79.032 25.7032V25.7032Z" fill="#212121"/>
<path d="M78.5472 7.21748C79.4181 7.20983 80.1124 7.52092 80.4925 8.32405C80.874 9.13065 80.8166 9.91012 80.2471 10.627C80.162 10.7341 80.0833 10.8615 79.9698 10.929C79.2847 11.3354 78.8351 12.4858 77.86 11.9771C76.6267 11.334 76.0573 9.35684 76.5863 8.29551C76.9849 7.49517 77.6777 7.19939 78.5472 7.21679V7.21748Z" fill="#212121"/>
</g>
</g>
<defs>
<clipPath id="clip0_2164_15845">
<rect width="101" height="36" fill="white"/>
</clipPath>
<clipPath id="clip1_2164_15845">
<rect width="32" height="36" fill="white"/>
</clipPath>
<clipPath id="clip2_2164_15845">
<rect width="49" height="25" fill="white" transform="translate(52 4)"/>
</clipPath>
</defs>
</svg>
