<svg width="82" height="25" viewBox="0 0 82 25" fill="none" xmlns="http://www.w3.org/2000/svg">
<path d="M35.2614 10.6023C36.8135 9.71817 38.2565 8.89545 39.6996 8.07273C38.9356 6.56237 37.7472 6.15715 36.28 6.86936C34.9218 7.52016 34.4732 9.04281 35.2614 10.6023ZM44.8047 8.36744C41.955 10.0129 39.2509 11.5601 36.5346 13.1196C38.3414 15.3298 39.8693 14.8632 41.3609 13.6353C41.8702 13.2178 42.1369 12.5179 42.5856 12.0021C43.3253 11.1671 44.1135 10.3813 44.8775 9.5831C44.9502 9.66906 45.0351 9.74273 45.1079 9.82869C45.023 9.42347 44.9381 9.01825 44.8047 8.36744ZM15.3016 14.5317C15.7018 10.3935 16.0777 6.32906 16.49 2.26458C16.6234 0.913852 17.836 -0.080778 19.182 0.00517791C20.722 0.103413 21.9589 1.14716 21.9589 2.51017C21.9468 4.14333 21.7891 5.78877 21.6921 7.4956C25.33 5.55546 28.4949 5.887 30.2532 8.31832C34.7278 1.19628 43.1192 1.42959 45.0957 6.70972C45.5444 6.40274 45.9446 5.92384 46.4417 5.80105C48.5153 5.26076 49.3642 5.89929 49.9583 7.69208C50.6617 9.82869 51.3529 11.9653 52.0683 14.0896C52.1289 14.2738 52.2381 14.4335 52.4442 14.8264C52.7716 12.2109 53.1112 9.84097 53.3658 7.45877C53.4992 6.25539 53.7417 5.19936 55.1362 4.97833C57.7312 4.56084 58.3254 4.76958 58.9802 6.5501C59.7927 8.77266 60.4718 11.0321 61.2236 13.2792C61.3085 13.5371 61.4661 13.7827 61.6723 14.1879C61.9754 11.4987 62.2058 8.99369 62.5696 6.51326C62.7151 5.51863 62.9334 4.41348 64.243 4.19245C66.0377 3.88547 66.8259 4.22929 67.5535 5.64142C67.6262 5.78878 67.7354 5.93613 67.4443 5.69054C68.0628 5.28532 68.6327 4.74503 69.3118 4.524C69.9545 4.32753 70.7184 4.37665 71.3975 4.48716C72.501 4.67135 72.8769 5.56775 72.9982 6.57466C73.2771 8.98142 73.5317 11.4005 73.7985 13.8072C73.8227 14.0037 73.9561 14.1879 74.138 14.6177C74.9505 12.5916 75.6659 10.7865 76.3935 8.96914C76.6724 8.29377 76.927 7.60612 77.2544 6.95532C77.8971 5.64142 79.1098 5.13797 80.3466 5.6537C81.6199 6.18172 82.3838 7.63068 81.8018 8.84634C79.7039 13.2424 77.6425 17.6629 75.3021 21.9362C73.8227 24.6376 70.1849 25.3007 67.4322 23.8272C66.3287 23.2378 66.4015 22.2923 66.5106 21.359C66.6319 20.3398 67.4201 20.217 68.2689 20.303C68.5721 20.3276 68.8752 20.3153 69.1784 20.303C70.003 20.2662 70.4031 20.0329 70.1849 19.0137C69.433 15.6123 68.7661 12.1863 68.087 8.77266C68.0022 8.34289 68.0264 7.90083 67.7475 7.40965C67.408 8.83406 67.0684 10.2585 66.7289 11.6952C66.2923 13.5371 65.9164 15.3913 65.4071 17.2086C64.9221 18.94 64.1703 19.4557 62.4605 19.5048C59.9018 19.5908 59.3562 19.3452 58.6528 17.4787C57.9738 15.6737 57.4281 13.8072 56.8339 11.9776C56.7854 11.8302 56.7369 11.6706 56.6035 11.2408C56.2882 13.5862 56.0336 15.6368 55.7304 17.6752C55.5485 18.9277 54.9058 19.7995 53.6447 20.1802C50.9648 20.9661 49.5582 20.303 48.5274 17.7489C47.9211 16.2385 47.2784 14.7404 46.5994 13.1196C44.7077 15.9193 42.1854 17.6015 39.166 18.4243C35.8434 19.3206 33.3818 18.2769 31.4901 15.4404C31.3567 15.2316 31.2233 15.0229 30.8838 14.4826C30.7504 15.1579 30.6655 15.4895 30.6292 15.821C30.5321 16.9876 30.4836 18.1664 30.3503 19.3452C30.1805 20.7328 28.9072 21.4818 26.9913 21.359C25.6453 21.2853 24.8328 20.4749 24.8935 19.0873C24.9905 17.049 25.1724 15.0229 25.3906 12.9968C25.5119 11.9039 24.8086 10.7251 23.79 10.5286C22.5288 10.2953 21.389 10.9952 21.2435 12.2232C21.0131 14.0773 20.819 15.9315 20.7099 17.798C20.6008 19.7627 19.4609 20.7942 17.4722 20.5609C16.0292 20.389 14.7923 19.2224 15.1804 17.3805C15.2652 16.963 15.1925 16.5087 15.1925 15.8087C12.9491 19.6399 9.44466 20.0574 5.79467 19.7259C3.85447 19.554 2.27807 18.412 1.25946 16.6437C-0.450332 13.6721 -0.717108 9.17787 2.35082 6.82023C3.59982 5.86244 5.18836 5.15024 6.72839 4.85553C8.54732 4.49943 10.5481 4.32752 12.2458 5.51862C12.8036 5.91156 13.2402 6.53781 13.6403 7.11494C14.2345 7.9745 13.7495 8.66214 13.1553 9.30067C12.5368 9.96375 11.8335 9.91464 11.0696 9.63221C10.1601 9.30067 9.25064 8.82177 8.31692 8.71126C6.3646 8.50251 5.6249 9.95147 5.58852 11.4127C5.56427 12.3582 5.84317 13.402 6.27972 14.2615C7.22556 16.1526 8.92323 16.3736 10.4996 14.9001C10.9362 14.4948 11.2151 13.9054 11.6759 13.5371C12.9855 12.4319 14.1254 12.7512 15.3016 14.5317Z" fill="#1E1E1C"/>
</svg>
