<svg width="76" height="30" viewBox="0 0 76 30" fill="none" xmlns="http://www.w3.org/2000/svg">
<path d="M-0.000192827 16.409C0.234807 15.5135 0.42932 14.61 0.815706 13.757C1.33675 12.605 2.02239 11.5683 2.87525 10.6479C5.13196 8.21427 7.93699 6.73739 11.1143 5.92794C13.6166 5.29068 16.1409 4.81851 18.7391 4.88862C20.1473 4.92679 21.5423 5.06347 22.8854 5.51612C23.1926 5.61996 23.3774 5.55073 23.5588 5.30488C24.3183 4.27089 25.3859 3.77031 26.6102 3.56884C28.5712 3.24488 30.5322 2.92536 32.4967 2.62714C34.8801 2.26502 37.253 1.80971 39.6822 1.86563C40.4462 1.88338 41.2022 1.92066 41.9468 2.09284C42.1325 2.13544 42.2945 2.12923 42.4485 2.0245C43.2292 1.49552 44.1208 1.34641 45.0291 1.26209C46.9338 1.08458 48.8384 0.902636 50.7448 0.746427C51.8512 0.655897 52.9619 0.614182 54.0709 0.544953C54.7689 0.501463 55.4615 0.394957 56.1674 0.524539C56.7897 0.638146 57.3486 0.875122 57.8397 1.25677C58.0553 1.42363 58.219 1.41653 58.4312 1.28961C59.9996 0.349692 61.7264 0.0363871 63.5202 0.00976063C65.174 -0.0150908 66.8225 -0.0266289 68.4393 0.449985C71.445 1.33576 73.817 3.01678 75.2473 5.87824C75.7648 6.91401 76.0174 8.02522 75.9989 9.20655C75.9813 10.2725 75.9734 11.3145 75.5016 12.3139C74.7342 13.9416 73.4447 14.9588 71.8411 15.6315C70.6555 16.1286 69.4181 16.3664 68.1322 16.4498C66.4044 16.5626 64.7216 16.3842 63.0599 15.9191C62.8838 15.8694 62.6972 15.8028 62.5291 15.9821C61.8408 16.7152 60.922 16.8936 59.989 17.0463C57.9409 17.3809 55.8972 17.743 53.8465 18.0634C52.1293 18.3315 50.435 18.7326 48.7029 18.9288C48.2153 18.9838 47.7717 19.3078 47.2603 19.4027C45.449 19.7391 43.6517 20.1554 41.8342 20.4527C40.8695 20.6107 39.8714 20.6196 38.9658 20.0977C38.7977 20.0009 38.6516 19.9699 38.5072 20.1545C37.7459 21.1272 36.6888 21.5382 35.5226 21.7743C33.8891 22.1053 32.2643 22.4816 30.6325 22.8216C29.792 22.9964 29.0007 22.7772 28.2649 22.3849C28 22.2438 27.8662 22.2651 27.677 22.4745C25.9888 24.3375 23.9909 25.7851 21.7421 26.8786C19.4581 27.9898 17.0483 28.6856 14.5302 29.0016C14.1984 29.0433 13.8683 29.1001 13.5374 29.1507H9.66913C9.59959 29.1303 9.53094 29.0992 9.45965 29.0912C7.73544 28.9075 6.12124 28.3998 4.62235 27.5043C2.90694 26.4792 1.64129 25.0751 0.864114 23.2174C0.446923 22.2198 0.223365 21.1734 -0.00195312 20.1243V16.4081L-0.000192827 16.409ZM18.1265 6.15959C16.2958 6.08149 14.4642 6.4871 12.6326 6.87407C9.16304 7.60719 6.03587 8.99975 3.63042 11.7316C2.89726 12.5642 2.29964 13.4916 1.87805 14.5212C0.973252 16.7312 0.981174 18.9767 1.55591 21.2746C2.31724 24.3206 4.24213 26.2413 7.11141 27.262C9.39364 28.0741 11.756 28.1087 14.128 27.791C16.801 27.4333 19.364 26.7046 21.7562 25.415C23.8668 24.2771 25.76 22.8775 27.2369 20.9524C27.5115 20.5938 27.8644 20.5485 28.2323 20.8051C28.3529 20.8894 28.4629 20.987 28.5853 21.0669C29.1776 21.453 29.8096 21.7246 30.5304 21.5666C32.2458 21.192 33.9516 20.7722 35.6714 20.4199C36.6017 20.229 37.2627 19.7293 37.7432 18.935C38.1111 18.327 38.4562 18.272 39.0415 18.6705C39.7535 19.1551 40.5245 19.4169 41.4029 19.2394C43.0083 18.9146 44.6058 18.5143 46.227 18.3172C47.2577 18.1921 48.1167 17.6187 49.1896 17.5531C50.8997 17.4483 52.5887 16.9966 54.2883 16.701C56.2475 16.3602 58.205 16.0087 60.1694 15.7061C60.812 15.6076 61.348 15.391 61.7687 14.894C62.2651 14.3073 62.2783 14.3037 62.9982 14.5461C65.4486 15.3697 67.9253 15.4975 70.4197 14.783C71.7839 14.3916 73.0187 13.7437 73.8663 12.5571C75.1619 10.7438 75.0501 8.77431 74.258 6.83147C73.2511 4.36142 71.3165 2.82773 68.8803 1.94196C66.973 1.24789 64.9883 1.05086 62.9586 1.27363C61.3638 1.44848 59.8517 1.82125 58.5042 2.74253C58.0087 3.08068 57.7763 3.03719 57.3635 2.57744C56.839 1.99432 56.1956 1.7396 55.4175 1.72096C54.7266 1.70409 54.0471 1.81415 53.3597 1.82924C52.4268 1.85054 51.4938 1.93574 50.5626 2.01474C49.0065 2.14698 47.4513 2.28721 45.8969 2.44253C45.1145 2.52064 44.2467 2.431 43.6006 2.90495C42.8006 3.49162 42.0516 3.42328 41.1503 3.26263C39.4868 2.96619 37.7925 3.10198 36.1264 3.34961C32.9755 3.81912 29.8289 4.32059 26.6868 4.84779C25.635 5.02442 24.7522 5.5321 24.2884 6.57497C24.0516 7.10661 23.792 7.25305 23.2516 7.02407C21.6277 6.33622 19.9308 6.11433 18.1265 6.15782V6.15959Z" fill="#282728"/>
<path d="M17.6624 7.98523C19.722 7.94795 21.5553 8.24795 23.2734 9.09733C25.4993 10.1979 26.7147 12.0404 27.0914 14.4714C27.4637 16.8767 26.691 18.8994 25.0372 20.631C23.4969 22.2437 21.5773 23.2316 19.5468 24.0277C17.5603 24.8052 15.4964 25.2685 13.3717 25.4664C11.6096 25.6306 9.86605 25.5845 8.15151 25.1052C6.34457 24.6002 4.81927 23.694 3.83086 22.0201C3.34238 21.1929 3.09242 20.2893 2.98328 19.3494C2.787 17.6569 3.03697 16.0415 3.87047 14.5309C4.56667 13.2688 5.52867 12.2517 6.67286 11.4103C9.24114 9.52158 12.1668 8.57456 15.2886 8.15209C16.1318 8.03848 16.9724 7.95328 17.6624 7.98612V7.98523ZM10.2929 16.8181C10.2639 17.5788 10.4848 18.2639 10.9425 18.8453C11.9282 20.0976 13.252 20.5831 14.8134 20.4819C16.5041 20.3719 17.9132 19.6902 19.0073 18.382C20.6681 16.3957 19.9605 13.5413 17.5629 12.5925C15.6389 11.8319 13.8487 12.2073 12.2099 13.3744C11.0437 14.2052 10.3281 15.3324 10.2929 16.8172V16.8181Z" fill="#282728"/>
<path d="M39.9861 4.62236C40.8372 4.58419 41.7138 4.63833 42.5429 4.97383C43.8429 5.49926 44.6535 6.46669 44.8313 7.86547C44.9792 9.02461 44.364 9.86068 43.4512 10.4944C42.785 10.9568 42.7999 10.9284 43.4416 11.4671C44.753 12.5704 46.0433 13.6993 47.3397 14.8203C47.5448 14.9978 47.7244 15.1984 47.6504 15.5037C47.573 15.8232 47.2781 15.8126 47.0493 15.8579C45.3286 16.1978 43.6053 16.5244 41.8819 16.8501C41.4498 16.9318 41.0678 16.812 40.7545 16.4978C38.9924 14.7271 37.2303 12.9565 35.4727 11.1805C35.1409 10.8459 35.1972 10.6719 35.6593 10.5698C36.1161 10.4678 36.5773 10.387 37.0332 10.2858C37.4064 10.2033 37.7628 10.0701 38.0999 9.88553C38.4907 9.67163 38.8225 9.39649 38.7952 8.90567C38.7662 8.39533 38.305 7.90452 37.8104 7.77139C37.4777 7.68174 37.1467 7.70304 36.8132 7.7563C36.0923 7.87168 35.3679 7.96665 34.6524 8.10954C34.1005 8.22049 33.965 8.49918 34.1278 9.04591C34.8891 11.6127 35.6514 14.1804 36.4153 16.7472C36.4787 16.9611 36.5201 17.1759 36.5095 17.3995C36.4945 17.7182 36.3352 17.9454 36.0333 18.0119C34.2484 18.4025 32.4617 18.7894 30.6715 19.1533C30.1698 19.2554 29.8256 18.9909 29.6954 18.4886C28.8179 15.1132 27.9421 11.7378 27.0664 8.36249C26.9669 7.97819 26.8578 7.59565 26.7671 7.20868C26.6641 6.77023 26.8859 6.39657 27.3243 6.32468C29.0397 6.04421 30.7577 5.77617 32.4758 5.51257C33.9632 5.28447 35.4516 5.06436 36.9408 4.85223C37.9397 4.71023 38.9414 4.59396 39.9861 4.62325V4.62236Z" fill="#282728"/>
<path d="M56.1555 3.12231C56.6809 3.03178 57.0251 3.30337 57.2275 3.82347C57.3815 4.22109 57.576 4.60274 57.7151 5.0048C57.8392 5.36248 57.6913 5.58614 57.3208 5.62253C55.9838 5.75123 54.646 5.86661 53.3082 5.98377C52.8716 6.02193 52.4333 6.04146 51.9976 6.09116C51.5646 6.14086 51.4916 6.27133 51.6289 6.67339C51.87 7.38254 52.0566 7.51745 52.7933 7.44467C54.1153 7.3142 55.4346 7.16687 56.7557 7.02664C57.2029 6.9796 57.488 7.23344 57.664 7.59112C57.885 8.03844 58.0619 8.50884 58.2361 8.97747C58.4139 9.4532 58.2546 9.71414 57.7459 9.77449C56.4125 9.93336 55.0773 10.0851 53.7421 10.2298C53.2316 10.2848 53.1295 10.4286 53.2985 10.9194C53.5537 11.6579 53.809 11.783 54.5923 11.6712C56.254 11.4324 57.9193 11.2185 59.5837 11.0011C60.0123 10.9452 60.3379 11.1395 60.5105 11.5247C60.7384 12.0342 60.94 12.557 61.1266 13.0842C61.2867 13.5386 61.1248 13.7747 60.6381 13.8492C58.2854 14.2105 55.931 14.5655 53.5793 14.9329C52.2661 15.1388 50.9555 15.3625 49.6441 15.5835C49.1169 15.6723 48.764 15.4788 48.5888 14.9702C47.4235 11.5895 46.2054 8.22838 44.9274 4.88942C44.6995 4.29476 44.8271 4.07642 45.459 3.99654C47.0081 3.80039 48.5633 3.65927 50.1212 3.5501C52.0003 3.41875 53.8776 3.26431 55.755 3.12142C55.8712 3.11254 55.9891 3.12053 56.1546 3.12053L56.1555 3.12231Z" fill="#282728"/>
<path d="M64.8477 2.75492C66.9873 2.75581 68.9976 3.22266 70.7658 4.49541C72.0869 5.44686 73.0982 6.64771 73.4802 8.27548C73.9423 10.2458 72.8905 12.2082 71.0131 12.9591C69.2801 13.6523 67.4996 13.6301 65.7085 13.2804C64.2826 13.0017 62.9466 12.4763 61.8147 11.5434C60.329 10.3177 59.3098 8.79026 59.0722 6.82256C58.8979 5.38384 59.8044 3.97086 61.2444 3.38686C61.7073 3.19958 62.1808 3.05136 62.6667 2.94397C63.384 2.7851 64.1119 2.73539 64.8468 2.75581L64.8477 2.75492ZM67.6571 10.3745C69.1191 10.3745 69.8786 9.32989 69.3752 7.95419C69.0469 7.05776 68.4493 6.3495 67.607 5.89596C66.828 5.47615 66.0156 5.15486 65.0941 5.37319C64.1172 5.60484 63.5847 6.46843 63.8329 7.44473C64.236 9.03256 65.9884 10.3745 67.6571 10.3745Z" fill="#282728"/>
</svg>
