<svg width="74" height="17" viewBox="0 0 74 17" fill="none" xmlns="http://www.w3.org/2000/svg">
<path d="M73.8039 15.962C73.8039 15.962 73.7639 15.972 73.7439 15.972C73.3139 15.972 72.8739 15.992 72.4439 15.912C72.0139 15.822 71.6139 15.662 71.2439 15.442C70.7039 15.122 70.2339 14.712 69.8339 14.222C69.4039 13.702 68.9739 13.182 68.5439 12.652C67.9839 11.972 67.4239 11.292 66.8639 10.612C66.3039 9.93197 65.7339 9.24197 65.1639 8.56197C64.8139 8.14197 64.4739 7.71197 64.1239 7.29197C63.8339 6.94197 63.5439 6.58197 63.2539 6.23197C63.2439 6.21197 63.2239 6.18197 63.1939 6.20197C63.1739 6.20197 63.1839 6.24197 63.1839 6.26197C63.1839 6.29197 63.1839 6.32197 63.1839 6.35197C63.1839 9.01197 63.1839 11.672 63.1839 14.332C63.1839 15.122 62.6139 15.812 61.8339 15.962C61.7339 15.982 61.6339 15.992 61.5339 15.992C61.0739 15.992 60.6139 15.992 60.1539 15.992C60.0139 15.992 60.0039 15.992 60.0039 15.842C60.0039 10.722 60.0039 5.60197 60.0039 0.47197C60.0039 0.34197 60.0039 0.33197 60.1439 0.33197C60.8839 0.33197 61.6239 0.33197 62.3639 0.33197C62.4239 0.33197 62.4739 0.33197 62.5139 0.39197C63.0939 1.09197 63.6739 1.80197 64.2539 2.50197C64.7639 3.12197 65.2739 3.73197 65.7839 4.35197C66.3339 5.01197 66.8739 5.68197 67.4239 6.34197C68.1339 7.20197 68.8539 8.07197 69.5639 8.93197C69.8839 9.31197 70.1939 9.70197 70.5139 10.082C70.5339 10.102 70.5339 10.122 70.5539 10.152C70.6039 10.082 70.5939 10.032 70.5939 9.99197C70.5939 7.34197 70.5939 4.68197 70.5939 2.03197C70.5939 1.30197 70.9939 0.70197 71.6739 0.43197C71.8239 0.37197 71.9739 0.33197 72.1339 0.33197C72.6839 0.33197 73.2439 0.33197 73.7939 0.33197V15.972L73.8039 15.962Z" fill="#212121"/>
<path d="M45.9241 16.392C45.9241 16.392 45.8341 16.372 45.7941 16.372C45.1841 16.372 44.5841 16.292 43.9941 16.152C43.1041 15.942 42.2741 15.592 41.5041 15.102C41.0841 14.832 40.6941 14.522 40.3241 14.192C39.7641 13.682 39.2941 13.112 38.8941 12.472C38.4741 11.802 38.1641 11.082 37.9641 10.312C37.8241 9.80196 37.7441 9.28196 37.7041 8.75196C37.6741 8.35196 37.6741 7.95196 37.7041 7.54196C37.7241 7.29196 37.7541 7.05196 37.7941 6.80196C37.8841 6.26196 38.0241 5.73196 38.2241 5.21196C38.5141 4.46196 38.9141 3.76196 39.4041 3.12196C39.8041 2.61196 40.2541 2.16196 40.7641 1.76196C41.4141 1.24196 42.1241 0.841961 42.9041 0.551961C43.5741 0.301961 44.2741 0.141962 44.9941 0.0519615C45.5141 -0.0080385 46.0341 -0.00803846 46.5641 0.0119615C47.1841 0.0319615 47.7941 0.141962 48.3941 0.301962C49.1841 0.521962 49.9241 0.841962 50.6141 1.28196C51.1841 1.65196 51.6941 2.09196 52.1641 2.58196C52.8341 3.29196 53.3541 4.09196 53.7341 4.99196C53.9841 5.57196 54.1541 6.18196 54.2541 6.80196C54.3541 7.38196 54.3941 7.97196 54.3541 8.56196C54.3041 9.40196 54.1441 10.222 53.8541 11.012C53.6141 11.642 53.3041 12.242 52.9141 12.792C52.5341 13.332 52.0841 13.822 51.5941 14.252C51.1741 14.632 50.7141 14.952 50.2241 15.242C49.7341 15.522 49.2141 15.762 48.6741 15.932C48.2041 16.082 47.7241 16.202 47.2441 16.272C46.9141 16.322 46.5841 16.352 46.2441 16.352C46.1941 16.352 46.1441 16.352 46.0941 16.372H45.9341L45.9241 16.392ZM40.8941 8.18196C40.8941 10.992 43.1641 13.292 46.0041 13.292C48.8541 13.292 51.1241 11.022 51.1241 8.19196C51.1241 5.33196 48.8441 3.08196 45.9941 3.08196C43.1641 3.08196 40.8941 5.37196 40.8941 8.19196V8.18196Z" fill="#212121"/>
<path d="M15.2443 15.982C14.6943 15.982 14.1343 15.982 13.5843 15.982C13.4843 15.982 13.4143 15.952 13.3543 15.862C12.8543 15.192 12.3043 14.582 11.6843 14.022C10.9843 13.392 10.2043 12.872 9.35432 12.472C8.68432 12.152 7.98432 11.922 7.25432 11.752C6.79432 11.642 6.34432 11.562 5.87432 11.502C5.78432 11.492 5.74432 11.502 5.70432 11.592C5.27432 12.422 4.84432 13.262 4.40432 14.092C4.27432 14.352 4.15432 14.612 3.98432 14.852C3.58432 15.402 3.06432 15.782 2.39432 15.932C2.22432 15.972 2.05432 15.982 1.88432 15.982C1.30432 15.982 0.71432 15.982 0.13432 15.982C-0.0156797 15.982 -0.0256797 15.962 0.0343203 15.832C0.37432 15.132 0.71432 14.4419 1.05432 13.742C1.40432 13.0319 1.75432 12.332 2.10432 11.622C2.62432 10.552 3.15432 9.48195 3.67432 8.41195C4.06432 7.62195 4.45432 6.84195 4.83432 6.05195C5.36432 4.97195 5.88432 3.90195 6.41432 2.82195C6.80432 2.02195 7.20432 1.22195 7.60432 0.411951C7.64432 0.331951 7.68432 0.311951 7.77432 0.311951C8.26432 0.311951 8.75432 0.311951 9.25432 0.311951C9.34432 0.311951 9.39432 0.341951 9.43432 0.431951C9.74432 1.06195 10.0543 1.69195 10.3643 2.32195C10.6543 2.90195 10.9343 3.49195 11.2243 4.07195C11.8343 5.30195 12.4443 6.54195 13.0543 7.77195C13.6043 8.88195 14.1543 10.002 14.6943 11.122C15.1043 11.962 15.5243 12.802 15.9343 13.632C16.2943 14.372 16.6643 15.1119 17.0243 15.842C17.0743 15.952 17.0643 15.962 16.9443 15.962C16.3743 15.962 15.8143 15.962 15.2443 15.962V15.982ZM10.5143 9.96195L8.51432 5.76195C8.38432 6.03195 8.26432 6.27195 8.15432 6.51195C7.80432 7.25195 7.45432 8.00195 7.09432 8.74195C7.06432 8.81195 7.07432 8.84195 7.14432 8.85195C7.34432 8.90195 7.55432 8.94195 7.75432 8.99195C8.33432 9.13195 8.89432 9.31195 9.45432 9.51195C9.80432 9.64195 10.1443 9.78195 10.5143 9.96195Z" fill="#212121"/>
<path d="M26.2444 10.402C26.3444 10.242 26.4044 10.082 26.4744 9.93196C26.7744 9.29196 27.0744 8.64197 27.3744 8.00197C27.6544 7.40197 27.9344 6.81197 28.2044 6.21197C28.6544 5.25197 29.0944 4.29197 29.5444 3.33197C29.8044 2.78197 30.0544 2.23196 30.3144 1.68196C30.6044 1.09196 31.0644 0.681966 31.6844 0.461966C31.9544 0.361966 32.2344 0.321965 32.5144 0.331965C33.1444 0.331965 33.7744 0.331965 34.4044 0.331965C34.5544 0.331965 34.5544 0.341965 34.4944 0.471965C34.0544 1.40196 33.6044 2.33196 33.1644 3.26196C32.6344 4.37196 32.0944 5.49196 31.5644 6.60196C31.2344 7.29197 30.9144 7.97196 30.5844 8.66196C30.2344 9.39196 29.8844 10.112 29.5344 10.842C29.1844 11.562 28.8444 12.282 28.5044 13.002C28.2144 13.602 27.9344 14.202 27.6444 14.802C27.4744 15.162 27.2944 15.522 27.1244 15.882C27.0844 15.962 27.0444 15.992 26.9644 15.992C26.4844 15.992 26.0044 15.992 25.5144 15.992C25.4244 15.992 25.3744 15.962 25.3444 15.882C25.0544 15.262 24.7644 14.652 24.4644 14.032C24.0744 13.212 23.6744 12.392 23.2844 11.572C22.8844 10.732 22.4844 9.89197 22.0844 9.05197C21.6544 8.15197 21.2244 7.25197 20.7944 6.36197C20.5144 5.78197 20.2444 5.21197 19.9744 4.63197C19.5544 3.75197 19.1344 2.87197 18.7044 1.99197C18.4544 1.48197 18.2144 0.961965 17.9644 0.451965C17.9244 0.361965 17.9244 0.341965 18.0244 0.341965C18.7244 0.341965 19.4344 0.331965 20.1344 0.341965C20.6544 0.351965 21.1144 0.561965 21.5144 0.891965C21.9044 1.21196 22.1244 1.64197 22.3244 2.08197C22.8044 3.11197 23.2944 4.14196 23.7744 5.18196C24.0744 5.82196 24.3744 6.47197 24.6744 7.11197C25.1844 8.19197 25.6944 9.28197 26.2044 10.362C26.2044 10.372 26.2144 10.382 26.2344 10.412L26.2444 10.402Z" fill="#212121"/>
</svg>
